solid 28byj48 m5 coupler
facet normal 0.0 0.0 -1.0
outer loop
vertex -6.248872575142066 33.587527754292175 6.799939134774655
vertex -1.6217561221282852 32.03667202286053 6.800391563833576
vertex -1.6217561642622786 27.88867130569739 6.8006552324861085
endloop
endfacet
facet normal 0.0 0.0 -1.0
outer loop
vertex -1.6217561221282852 32.03667202286053 6.800391563833576
vertex -6.248872575142066 33.587527754292175 6.799939134774655
vertex 0.029811602295111993 37.212527754292175 6.799939134774655
endloop
endfacet
facet normal 0.0 0.0 -1.0
outer loop
vertex -1.6217561221282852 32.03667202286053 6.800391563833576
vertex 0.029811602295111993 37.212527754292175 6.799939134774655
vertex -1.0287428994511796 32.39305398825883 6.800486326777071
endloop
endfacet
facet normal 0.0 0.0 -1.0
outer loop
vertex -1.0287428994511796 32.39305398825883 6.800486326777071
vertex 0.029811602295111993 37.212527754292175 6.799939134774655
vertex -0.36369767353799365 32.58380941467458 6.80059260036547
endloop
endfacet
facet normal 0.0 0.0 -1.0
outer loop
vertex -0.36369767353799365 32.58380941467458 6.80059260036547
vertex 0.029811602295111993 37.212527754292175 6.799939134774655
vertex 0.3280578225044923 32.59593863503583 6.800703142229419
endloop
endfacet
facet normal 0.0 0.0 -1.0
outer loop
vertex 0.3280578225044923 32.59593863503583 6.800703142229419
vertex 0.029811602295111993 37.212527754292175 6.799939134774655
vertex 6.3084957797322945 33.587527754292175 6.799939134774655
endloop
endfacet
facet normal 0.0 0.0 -1.0
outer loop
vertex 0.3280578225044923 32.59593863503583 6.800703142229419
vertex 6.3084957797322945 33.587527754292175 6.799939134774655
vertex 0.9993815948009797 32.428615063019414 6.800810419123496
endloop
endfacet
facet normal 0.0 0.0 -1.0
outer loop
vertex 0.9993815948009797 32.428615063019414 6.800810419123496
vertex 6.3084957797322945 33.587527754292175 6.799939134774655
vertex 1.604524037684469 32.09324152354301 6.800907120304719
endloop
endfacet
facet normal 0.0 0.0 -1.0
outer loop
vertex 1.604524037684469 32.09324152354301 6.800907120304719
vertex 6.3084957797322945 33.587527754292175 6.799939134774655
vertex 1.6782468874955363 32.03667202286053 6.8006552324861085
endloop
endfacet
facet normal 0.0 0.0 -1.0
outer loop
vertex 1.6782468874955363 32.03667202286053 6.8006552324861085
vertex 6.3084957797322945 33.587527754292175 6.799939134774655
vertex 6.308495779732289 26.33752775429218 6.799939134774655
endloop
endfacet
facet normal 0.0 0.0 -1.0
outer loop
vertex -6.248872575142066 33.587527754292175 6.799939134774655
vertex 0.02981160229511058 22.712527754292182 6.799939134774655
vertex -6.248872575142067 26.33752775429218 6.799939134774655
endloop
endfacet
facet normal 0.0 0.0 -1.0
outer loop
vertex 0.02981160229511058 22.712527754292182 6.799939134774655
vertex -6.248872575142066 33.587527754292175 6.799939134774655
vertex -1.6217561642622786 27.88867130569739 6.8006552324861085
endloop
endfacet
facet normal 0.0 0.0 -1.0
outer loop
vertex 0.02981160229511058 22.712527754292182 6.799939134774655
vertex -1.6217561642622786 27.88867130569739 6.8006552324861085
vertex -1.5480333144512168 27.832101805014915 6.800403344667454
endloop
endfacet
facet normal 0.0 0.0 -1.0
outer loop
vertex 0.02981160229511058 22.712527754292182 6.799939134774655
vertex -1.5480333144512168 27.832101805014915 6.800403344667454
vertex -0.9428908715677361 27.496728265538493 6.8005000458486755
endloop
endfacet
facet normal 0.0 0.0 -1.0
outer loop
vertex 0.02981160229511058 22.712527754292182 6.799939134774655
vertex -0.9428908715677361 27.496728265538493 6.8005000458486755
vertex -0.2715670992712432 27.329404693522083 6.800607322742753
endloop
endfacet
facet normal 0.0 0.0 -1.0
outer loop
vertex 0.02981160229511058 22.712527754292182 6.799939134774655
vertex -0.2715670992712432 27.329404693522083 6.800607322742753
vertex 0.4201883967712428 27.341533913883325 6.8007178646067015
endloop
endfacet
facet normal 0.0 0.0 -1.0
outer loop
vertex 0.02981160229511058 22.712527754292182 6.799939134774655
vertex 0.4201883967712428 27.341533913883325 6.8007178646067015
vertex 6.308495779732289 26.33752775429218 6.799939134774655
endloop
endfacet
facet normal 0.0 0.0 -1.0
outer loop
vertex 6.308495779732289 26.33752775429218 6.799939134774655
vertex 0.4201883967712428 27.341533913883325 6.8007178646067015
vertex 1.0852336226844288 27.532289340299084 6.800824138195101
endloop
endfacet
facet normal 0.0 0.0 -1.0
outer loop
vertex 6.308495779732289 26.33752775429218 6.799939134774655
vertex 1.0852336226844288 27.532289340299084 6.800824138195101
vertex 1.6782468453615371 27.88867130569739 6.800918901138597
endloop
endfacet
facet normal 0.0 0.0 -1.0
outer loop
vertex 6.308495779732289 26.33752775429218 6.799939134774655
vertex 1.6782468453615371 27.88867130569739 6.800918901138597
vertex 1.6782468874955363 32.03667202286053 6.8006552324861085
endloop
endfacet
facet normal 0.5483190964783395 0.8362691942256613 5.680088538810643e-05
outer loop
vertex -1.5480333144512168 27.832101805014915 6.800403344667454
vertex -0.9413246308892529 27.496584355551747 -0.00021605186275457376
vertex -1.5464670737727337 27.831957895028168 -0.0003127530439654524
endloop
endfacet
facet normal 0.36642216079145423 0.9304487083850796 3.384463048981565e-05
outer loop
vertex -0.9413246308892529 27.496584355551747 -0.00021605186275457376
vertex -1.5480333144512168 27.832101805014915 6.800403344667454
vertex -0.9428908715677361 27.496728265538493 6.8005000458486755
endloop
endfacet
facet normal 0.3988171183788449 -0.9170304807916734 5.819782793021242e-05
outer loop
vertex -1.0271766587726965 32.39291007827203 -0.00022977093435918582
vertex -1.6217561221282852 32.03667202286053 6.800391563833576
vertex -1.620189881449802 32.03652811287373 -0.0003245338778323781
endloop
endfacet
facet normal 0.5151056826886029 -0.8571266712355332 7.1544409927731e-05
outer loop
vertex -1.6217561221282852 32.03667202286053 6.800391563833576
vertex -1.0271766587726965 32.39291007827203 -0.00022977093435918582
vertex -1.0287428994511796 32.39305398825883 6.800486326777071
endloop
endfacet
facet normal 0.6087613524798264 0.7933533963872883 6.455762210855677e-05
outer loop
vertex -1.6201899235837953 27.888527395710643 -6.0865225338702085e-05
vertex -1.5480333144512168 27.832101805014915 6.800403344667454
vertex -1.5464670737727337 27.831957895028168 -0.0003127530439654524
endloop
endfacet
facet normal 0.5483190964783395 0.8362691942256613 5.680088538810643e-05
outer loop
vertex -1.5480333144512168 27.832101805014915 6.800403344667454
vertex -1.6201899235837953 27.888527395710643 -6.0865225338702085e-05
vertex -1.6217561642622786 27.88867130569739 6.8006552324861085
endloop
endfacet
facet normal -0.11313082182252603 -0.993580101021975 -2.630931688246665e-06
outer loop
vertex 0.3296240631829755 32.59579472504903 -1.2955482022336539e-05
vertex -0.36369767353799365 32.58380941467458 6.80059260036547
vertex -0.3621314328595105 32.58366550468779 -0.00012349734594878646
endloop
endfacet
facet normal 0.14789289603073816 -0.989003382439224 2.876482577405541e-05
outer loop
vertex -0.36369767353799365 32.58380941467458 6.80059260036547
vertex 0.3296240631829755 32.59579472504903 -1.2955482022336539e-05
vertex 0.3280578225044923 32.59593863503583 6.800703142229419
endloop
endfacet
facet normal -0.3664335040086697 -0.9304442412065183 -3.384604649488007e-05
outer loop
vertex 1.0009478354794628 32.42847115303262 9.432141207152966e-05
vertex 0.3280578225044923 32.59593863503583 6.800703142229419
vertex 0.3296240631829755 32.59579472504903 -1.2955482022336539e-05
endloop
endfacet
facet normal -0.11311885898759205 -0.993581463058984 -2.6294754077395638e-06
outer loop
vertex 0.3280578225044923 32.59593863503583 6.800703142229419
vertex 1.0009478354794628 32.42847115303262 9.432141207152966e-05
vertex 0.9993815948009797 32.428615063019414 6.800810419123496
endloop
endfacet
facet normal 0.366433504008681 0.9304442412065138 3.384604649488148e-05
outer loop
vertex -0.9428908715677361 27.496728265538493 6.8005000458486755
vertex -0.27000085859275996 27.329260783535336 -0.00010877496866070757
vertex -0.9413246308892529 27.496584355551747 -0.00021605186275457376
endloop
endfacet
facet normal 0.11311885898759065 0.9935814630589841 2.629475407739393e-06
outer loop
vertex -0.27000085859275996 27.329260783535336 -0.00010877496866070757
vertex -0.9428908715677361 27.496728265538493 6.8005000458486755
vertex -0.2715670992712432 27.329404693522083 6.800607322742753
endloop
endfacet
facet normal -0.5483190964783299 -0.8362691942256676 -5.68008853881052e-05
outer loop
vertex 1.6060902783629494 32.09309761355621 0.00019102259328240834
vertex 0.9993815948009797 32.428615063019414 6.800810419123496
vertex 1.0009478354794628 32.42847115303262 9.432141207152966e-05
endloop
endfacet
facet normal -0.3664221607914424 -0.9304487083850843 -3.384463048981419e-05
outer loop
vertex 0.9993815948009797 32.428615063019414 6.800810419123496
vertex 1.6060902783629494 32.09309761355621 0.00019102259328240834
vertex 1.604524037684469 32.09324152354301 6.800907120304719
endloop
endfacet
facet normal -0.6087613524798353 -0.7933533963872815 -6.455762210855792e-05
outer loop
vertex 1.6782468874955363 32.03667202286053 6.8006552324861085
vertex 1.6060902783629494 32.09309761355621 0.00019102259328240834
vertex 1.6798131281740165 32.03652811287373 -6.0865225338702085e-05
endloop
endfacet
facet normal -0.5483190964783299 -0.8362691942256676 -5.68008853881052e-05
outer loop
vertex 1.6060902783629494 32.09309761355621 0.00019102259328240834
vertex 1.6782468874955363 32.03667202286053 6.8006552324861085
vertex 1.604524037684469 32.09324152354301 6.800907120304719
endloop
endfacet
facet normal -0.9999999927430783 2.499742988871334e-09 -0.00012047341513381907
outer loop
vertex 1.6782468453615371 27.88867130569739 6.800918901138597
vertex 1.6798131281740165 32.03652811287373 -6.0865225338702085e-05
vertex 1.6798130860400176 27.888527395710643 0.00020280342714933396
endloop
endfacet
facet normal -0.9999999927430783 2.499742988871334e-09 -0.00012047341513381907
outer loop
vertex 1.6798131281740165 32.03652811287373 -6.0865225338702085e-05
vertex 1.6782468453615371 27.88867130569739 6.800918901138597
vertex 1.6782468874955363 32.03667202286053 6.8006552324861085
endloop
endfacet
facet normal -0.39881711837884853 0.9170304807916717 -5.819782793021284e-05
outer loop
vertex 1.0852336226844288 27.532289340299084 6.800824138195101
vertex 1.6798130860400176 27.888527395710643 0.00020280342714933396
vertex 1.086799863362912 27.532145430312337 0.00010804048367614172
endloop
endfacet
facet normal -0.5151056826886089 0.8571266712355295 -7.15444099277317e-05
outer loop
vertex 1.6798130860400176 27.888527395710643 0.00020280342714933396
vertex 1.0852336226844288 27.532289340299084 6.800824138195101
vertex 1.6782468453615371 27.88867130569739 6.800918901138597
endloop
endfacet
facet normal -0.14788194916189498 0.9890050193425403 -2.8763525086891525e-05
outer loop
vertex 0.4201883967712428 27.341533913883325 6.8007178646067015
vertex 1.086799863362912 27.532145430312337 0.00010804048367614172
vertex 0.421754637449726 27.341390003896578 1.766895265742363e-06
endloop
endfacet
facet normal -0.39882568592510637 0.9170267547128961 -5.819881884636082e-05
outer loop
vertex 1.086799863362912 27.532145430312337 0.00010804048367614172
vertex 0.4201883967712428 27.341533913883325 6.8007178646067015
vertex 1.0852336226844288 27.532289340299084 6.800824138195101
endloop
endfacet
facet normal 0.1131308218225245 0.9935801010219752 2.6309316882464796e-06
outer loop
vertex -0.2715670992712432 27.329404693522083 6.800607322742753
vertex 0.421754637449726 27.341390003896578 1.766895265742363e-06
vertex -0.27000085859275996 27.329260783535336 -0.00010877496866070757
endloop
endfacet
facet normal -0.147892896030743 0.9890033824392235 -2.8764825774055988e-05
outer loop
vertex 0.421754637449726 27.341390003896578 1.766895265742363e-06
vertex -0.2715670992712432 27.329404693522083 6.800607322742753
vertex 0.4201883967712428 27.341533913883325 6.8007178646067015
endloop
endfacet
facet normal 0.0 0.0 1.0
outer loop
vertex -9.629446660595569 27.374337303266973 14.799939134774657
vertex -9.629446660595569 32.550718205317395 14.799939134774657
vertex -9.970188397704886 29.96252775429218 14.799939134774657
endloop
endfacet
facet normal 0.0 0.0 1.0
outer loop
vertex -9.629446660595569 32.550718205317395 14.799939134774657
vertex -9.629446660595569 27.374337303266973 14.799939134774657
vertex -8.630442435549273 24.962527754292182 14.799939134774657
endloop
endfacet
facet normal 0.0 0.0 1.0
outer loop
vertex -9.629446660595569 32.550718205317395 14.799939134774657
vertex -8.630442435549273 24.962527754292182 14.799939134774657
vertex -8.630442435549273 34.96252775429218 14.799939134774657
endloop
endfacet
facet normal 0.0 0.0 1.0
outer loop
vertex -8.630442435549273 34.96252775429218 14.799939134774657
vertex -8.630442435549273 24.962527754292182 14.799939134774657
vertex -7.041256209570363 22.89145994242671 14.799939134774657
endloop
endfacet
facet normal 0.0 0.0 1.0
outer loop
vertex -8.630442435549273 34.96252775429218 14.799939134774657
vertex -7.041256209570363 22.89145994242671 14.799939134774657
vertex -7.041256209570361 37.03359556615766 14.799939134774657
endloop
endfacet
facet normal 0.0 0.0 1.0
outer loop
vertex -7.041256209570361 37.03359556615766 14.799939134774657
vertex -7.041256209570363 22.89145994242671 14.799939134774657
vertex -6.248872575142067 26.33752775429218 14.799939134774657
endloop
endfacet
facet normal 0.0 0.0 1.0
outer loop
vertex -6.248872575142067 26.33752775429218 14.799939134774657
vertex -7.041256209570363 22.89145994242671 14.799939134774657
vertex -4.970188397704891 21.3022737164478 14.799939134774657
endloop
endfacet
facet normal 0.0 0.0 1.0
outer loop
vertex -6.248872575142067 26.33752775429218 14.799939134774657
vertex -4.970188397704891 21.3022737164478 14.799939134774657
vertex 0.02981160229511058 22.712527754292182 14.799939134774657
endloop
endfacet
facet normal 0.0 0.0 1.0
outer loop
vertex 0.02981160229511058 22.712527754292182 14.799939134774657
vertex -4.970188397704891 21.3022737164478 14.799939134774657
vertex -2.5583788487300976 20.303269491401498 14.799939134774657
endloop
endfacet
facet normal 0.0 0.0 1.0
outer loop
vertex 0.02981160229511058 22.712527754292182 14.799939134774657
vertex -2.5583788487300976 20.303269491401498 14.799939134774657
vertex 0.02981160229511058 19.962527754292182 14.799939134774657
endloop
endfacet
facet normal 0.0 0.0 1.0
outer loop
vertex 0.02981160229511058 22.712527754292182 14.799939134774657
vertex 0.02981160229511058 19.962527754292182 14.799939134774657
vertex 2.618002053320314 20.303269491401498 14.799939134774657
endloop
endfacet
facet normal 0.0 0.0 1.0
outer loop
vertex 0.02981160229511058 22.712527754292182 14.799939134774657
vertex 2.618002053320314 20.303269491401498 14.799939134774657
vertex 6.308495779732289 26.33752775429218 14.799939134774657
endloop
endfacet
facet normal 0.0 0.0 1.0
outer loop
vertex 6.308495779732289 26.33752775429218 14.799939134774657
vertex 2.618002053320314 20.303269491401498 14.799939134774657
vertex 5.0298116022951085 21.302273716447793 14.799939134774657
endloop
endfacet
facet normal 0.0 0.0 1.0
outer loop
vertex 6.308495779732289 26.33752775429218 14.799939134774657
vertex 5.0298116022951085 21.302273716447793 14.799939134774657
vertex 7.100879414160582 22.891459942426703 14.799939134774657
endloop
endfacet
facet normal 0.0 0.0 1.0
outer loop
vertex 6.308495779732289 26.33752775429218 14.799939134774657
vertex 7.100879414160582 22.891459942426703 14.799939134774657
vertex 6.3084957797322945 33.587527754292175 14.799939134774657
endloop
endfacet
facet normal 0.0 0.0 1.0
outer loop
vertex -7.041256209570361 37.03359556615766 14.799939134774657
vertex -6.248872575142066 33.587527754292175 14.799939134774657
vertex -4.970188397704886 38.62278179213657 14.799939134774657
endloop
endfacet
facet normal 0.0 0.0 1.0
outer loop
vertex -6.248872575142066 33.587527754292175 14.799939134774657
vertex -7.041256209570361 37.03359556615766 14.799939134774657
vertex -6.248872575142067 26.33752775429218 14.799939134774657
endloop
endfacet
facet normal 0.0 0.0 1.0
outer loop
vertex -4.970188397704886 38.62278179213657 14.799939134774657
vertex -6.248872575142066 33.587527754292175 14.799939134774657
vertex 0.029811602295111993 37.212527754292175 14.799939134774657
endloop
endfacet
facet normal 0.0 0.0 1.0
outer loop
vertex -4.970188397704886 38.62278179213657 14.799939134774657
vertex 0.029811602295111993 37.212527754292175 14.799939134774657
vertex -2.5583788487300945 39.62178601718286 14.799939134774657
endloop
endfacet
facet normal 0.0 0.0 1.0
outer loop
vertex -2.5583788487300945 39.62178601718286 14.799939134774657
vertex 0.029811602295111993 37.212527754292175 14.799939134774657
vertex 0.029811602295111993 39.96252775429218 14.799939134774657
endloop
endfacet
facet normal 0.0 0.0 1.0
outer loop
vertex 0.029811602295111993 39.96252775429218 14.799939134774657
vertex 0.029811602295111993 37.212527754292175 14.799939134774657
vertex 6.3084957797322945 33.587527754292175 14.799939134774657
endloop
endfacet
facet normal 0.0 0.0 1.0
outer loop
vertex 0.029811602295111993 39.96252775429218 14.799939134774657
vertex 6.3084957797322945 33.587527754292175 14.799939134774657
vertex 2.618002053320327 39.62178601718286 14.799939134774657
endloop
endfacet
facet normal 0.0 0.0 1.0
outer loop
vertex 2.618002053320327 39.62178601718286 14.799939134774657
vertex 6.3084957797322945 33.587527754292175 14.799939134774657
vertex 5.029811602295114 38.62278179213656 14.799939134774657
endloop
endfacet
facet normal 0.0 0.0 1.0
outer loop
vertex 5.029811602295114 38.62278179213656 14.799939134774657
vertex 6.3084957797322945 33.587527754292175 14.799939134774657
vertex 7.1008794141605875 37.03359556615765 14.799939134774657
endloop
endfacet
facet normal 0.0 0.0 1.0
outer loop
vertex 7.1008794141605875 37.03359556615765 14.799939134774657
vertex 6.3084957797322945 33.587527754292175 14.799939134774657
vertex 7.100879414160582 22.891459942426703 14.799939134774657
endloop
endfacet
facet normal 0.0 0.0 1.0
outer loop
vertex 7.1008794141605875 37.03359556615765 14.799939134774657
vertex 7.100879414160582 22.891459942426703 14.799939134774657
vertex 8.690065640139492 24.96252775429218 14.799939134774657
endloop
endfacet
facet normal 0.0 0.0 1.0
outer loop
vertex 7.1008794141605875 37.03359556615765 14.799939134774657
vertex 8.690065640139492 24.96252775429218 14.799939134774657
vertex 8.690065640139501 34.96252775429217 14.799939134774657
endloop
endfacet
facet normal 0.0 0.0 1.0
outer loop
vertex 8.690065640139501 34.96252775429217 14.799939134774657
vertex 8.690065640139492 24.96252775429218 14.799939134774657
vertex 9.689069865185793 27.374337303266966 14.799939134774657
endloop
endfacet
facet normal 0.0 0.0 1.0
outer loop
vertex 8.690065640139501 34.96252775429217 14.799939134774657
vertex 9.689069865185793 27.374337303266966 14.799939134774657
vertex 9.689069865185793 32.55071820531738 14.799939134774657
endloop
endfacet
facet normal 0.0 0.0 1.0
outer loop
vertex 9.689069865185793 32.55071820531738 14.799939134774657
vertex 9.689069865185793 27.374337303266966 14.799939134774657
vertex 10.02981160229511 29.96252775429218 14.799939134774657
endloop
endfacet
facet normal -1.0 -1.514888682259974e-16 0.0
outer loop
vertex -9.970188397704886 29.96252775429218 14.799939134774657
vertex -9.629446660595569 27.374337303266973 -6.086522534434202e-05
vertex -9.629446660595569 27.374337303266973 14.799939134774657
endloop
endfacet
facet normal -0.9659258262890683 -0.25881904510252074 0.0
outer loop
vertex -9.629446660595569 27.374337303266973 -6.086522534434202e-05
vertex -9.970188397704886 29.96252775429218 14.799939134774657
vertex -9.970188397704886 29.96252775429218 -6.086522534434202e-05
endloop
endfacet
facet normal -0.9659258262890683 -0.25881904510252074 0.0
outer loop
vertex -9.629446660595569 27.374337303266973 14.799939134774657
vertex -8.630442435549273 24.962527754292182 -6.086522534434202e-05
vertex -8.630442435549273 24.962527754292182 14.799939134774657
endloop
endfacet
facet normal -0.8660254037844388 -0.5000000000000001 0.0
outer loop
vertex -8.630442435549273 24.962527754292182 -6.086522534434202e-05
vertex -9.629446660595569 27.374337303266973 14.799939134774657
vertex -9.629446660595569 27.374337303266973 -6.086522534434202e-05
endloop
endfacet
facet normal -0.5000000000000004 -0.8660254037844384 -3.6393425058240813e-19
outer loop
vertex 6.3084957797322945 33.587527754292175 14.799939134774657
vertex 0.029811602295111993 37.212527754292175 6.799939134774655
vertex 6.3084957797322945 33.587527754292175 6.799939134774655
endloop
endfacet
facet normal -0.5000000000000004 -0.8660254037844384 -3.6393425058240813e-19
outer loop
vertex 0.029811602295111993 37.212527754292175 6.799939134774655
vertex 6.3084957797322945 33.587527754292175 14.799939134774657
vertex 0.029811602295111993 37.212527754292175 14.799939134774657
endloop
endfacet
facet normal 0.4999999999999999 -0.8660254037844387 -2.352507976993363e-18
outer loop
vertex 0.029811602295111993 37.212527754292175 14.799939134774657
vertex -6.248872575142066 33.587527754292175 6.799939134774655
vertex 0.029811602295111993 37.212527754292175 6.799939134774655
endloop
endfacet
facet normal 0.4999999999999999 -0.8660254037844387 -2.352507976993363e-18
outer loop
vertex -6.248872575142066 33.587527754292175 6.799939134774655
vertex 0.029811602295111993 37.212527754292175 14.799939134774657
vertex -6.248872575142066 33.587527754292175 14.799939134774657
endloop
endfacet
facet normal 0.0 0.0 -1.0
outer loop
vertex -2.5583788487300945 39.62178601718286 -6.086522534434202e-05
vertex -1.620189881449802 32.03652811287373 -0.0003245338778323781
vertex -1.6201899235837953 27.888527395710643 -6.0865225338702085e-05
endloop
endfacet
facet normal 0.0 0.0 -1.0
outer loop
vertex -1.620189881449802 32.03652811287373 -0.0003245338778323781
vertex -2.5583788487300945 39.62178601718286 -6.086522534434202e-05
vertex 0.029811602295111993 39.96252775429218 -6.086522534434202e-05
endloop
endfacet
facet normal 0.0 0.0 -1.0
outer loop
vertex -1.620189881449802 32.03652811287373 -0.0003245338778323781
vertex 0.029811602295111993 39.96252775429218 -6.086522534434202e-05
vertex -1.0271766587726965 32.39291007827203 -0.00022977093435918582
endloop
endfacet
facet normal 0.0 0.0 -1.0
outer loop
vertex -1.0271766587726965 32.39291007827203 -0.00022977093435918582
vertex 0.029811602295111993 39.96252775429218 -6.086522534434202e-05
vertex -0.3621314328595105 32.58366550468779 -0.00012349734594878646
endloop
endfacet
facet normal 0.0 0.0 -1.0
outer loop
vertex -0.3621314328595105 32.58366550468779 -0.00012349734594878646
vertex 0.029811602295111993 39.96252775429218 -6.086522534434202e-05
vertex 0.3296240631829755 32.59579472504903 -1.2955482022336539e-05
endloop
endfacet
facet normal 0.0 0.0 -1.0
outer loop
vertex 0.3296240631829755 32.59579472504903 -1.2955482022336539e-05
vertex 0.029811602295111993 39.96252775429218 -6.086522534434202e-05
vertex 2.618002053320327 39.62178601718286 -6.086522534434202e-05
endloop
endfacet
facet normal 0.0 0.0 -1.0
outer loop
vertex 0.3296240631829755 32.59579472504903 -1.2955482022336539e-05
vertex 2.618002053320327 39.62178601718286 -6.086522534434202e-05
vertex 1.0009478354794628 32.42847115303262 9.432141207152966e-05
endloop
endfacet
facet normal 0.0 0.0 -1.0
outer loop
vertex 1.0009478354794628 32.42847115303262 9.432141207152966e-05
vertex 2.618002053320327 39.62178601718286 -6.086522534434202e-05
vertex 1.6060902783629494 32.09309761355621 0.00019102259328240834
endloop
endfacet
facet normal 0.0 0.0 -1.0
outer loop
vertex 1.6060902783629494 32.09309761355621 0.00019102259328240834
vertex 2.618002053320327 39.62178601718286 -6.086522534434202e-05
vertex 1.6798131281740165 32.03652811287373 -6.0865225338702085e-05
endloop
endfacet
facet normal 0.0 0.0 -1.0
outer loop
vertex 1.6798131281740165 32.03652811287373 -6.0865225338702085e-05
vertex 2.618002053320327 39.62178601718286 -6.086522534434202e-05
vertex 2.618002053320314 20.303269491401498 -6.086522534434202e-05
endloop
endfacet
facet normal 0.0 0.0 -1.0
outer loop
vertex 2.618002053320314 20.303269491401498 -6.086522534434202e-05
vertex 2.618002053320327 39.62178601718286 -6.086522534434202e-05
vertex 5.0298116022951085 21.302273716447793 -6.086522534434202e-05
endloop
endfacet
facet normal 0.0 0.0 -1.0
outer loop
vertex 5.0298116022951085 21.302273716447793 -6.086522534434202e-05
vertex 2.618002053320327 39.62178601718286 -6.086522534434202e-05
vertex 5.029811602295114 38.62278179213656 -6.086522534434202e-05
endloop
endfacet
facet normal 0.0 0.0 -1.0
outer loop
vertex 5.0298116022951085 21.302273716447793 -6.086522534434202e-05
vertex 5.029811602295114 38.62278179213656 -6.086522534434202e-05
vertex 7.100879414160582 22.891459942426703 -6.086522534434202e-05
endloop
endfacet
facet normal 0.0 0.0 -1.0
outer loop
vertex 7.100879414160582 22.891459942426703 -6.086522534434202e-05
vertex 5.029811602295114 38.62278179213656 -6.086522534434202e-05
vertex 7.1008794141605875 37.03359556615765 -6.086522534434202e-05
endloop
endfacet
facet normal 0.0 0.0 -1.0
outer loop
vertex 7.100879414160582 22.891459942426703 -6.086522534434202e-05
vertex 7.1008794141605875 37.03359556615765 -6.086522534434202e-05
vertex 8.690065640139492 24.96252775429218 -6.086522534434202e-05
endloop
endfacet
facet normal 0.0 0.0 -1.0
outer loop
vertex 8.690065640139492 24.96252775429218 -6.086522534434202e-05
vertex 7.1008794141605875 37.03359556615765 -6.086522534434202e-05
vertex 8.690065640139501 34.96252775429217 -6.086522534434202e-05
endloop
endfacet
facet normal 0.0 0.0 -1.0
outer loop
vertex 8.690065640139492 24.96252775429218 -6.086522534434202e-05
vertex 8.690065640139501 34.96252775429217 -6.086522534434202e-05
vertex 9.689069865185793 27.374337303266966 -6.086522534434202e-05
endloop
endfacet
facet normal 0.0 0.0 -1.0
outer loop
vertex 9.689069865185793 27.374337303266966 -6.086522534434202e-05
vertex 8.690065640139501 34.96252775429217 -6.086522534434202e-05
vertex 9.689069865185793 32.55071820531738 -6.086522534434202e-05
endloop
endfacet
facet normal 0.0 0.0 -1.0
outer loop
vertex 9.689069865185793 27.374337303266966 -6.086522534434202e-05
vertex 9.689069865185793 32.55071820531738 -6.086522534434202e-05
vertex 10.02981160229511 29.96252775429218 -6.086522534434202e-05
endloop
endfacet
facet normal 0.0 0.0 -1.0
outer loop
vertex -9.629446660595569 32.550718205317395 -6.086522534434202e-05
vertex -9.629446660595569 27.374337303266973 -6.086522534434202e-05
vertex -9.970188397704886 29.96252775429218 -6.086522534434202e-05
endloop
endfacet
facet normal 0.0 0.0 -1.0
outer loop
vertex -9.629446660595569 27.374337303266973 -6.086522534434202e-05
vertex -9.629446660595569 32.550718205317395 -6.086522534434202e-05
vertex -8.630442435549273 34.96252775429218 -6.086522534434202e-05
endloop
endfacet
facet normal 0.0 0.0 -1.0
outer loop
vertex -9.629446660595569 27.374337303266973 -6.086522534434202e-05
vertex -8.630442435549273 34.96252775429218 -6.086522534434202e-05
vertex -8.630442435549273 24.962527754292182 -6.086522534434202e-05
endloop
endfacet
facet normal 0.0 0.0 -1.0
outer loop
vertex -8.630442435549273 24.962527754292182 -6.086522534434202e-05
vertex -8.630442435549273 34.96252775429218 -6.086522534434202e-05
vertex -7.041256209570363 22.89145994242671 -6.086522534434202e-05
endloop
endfacet
facet normal 0.0 0.0 -1.0
outer loop
vertex -7.041256209570363 22.89145994242671 -6.086522534434202e-05
vertex -8.630442435549273 34.96252775429218 -6.086522534434202e-05
vertex -7.041256209570361 37.03359556615766 -6.086522534434202e-05
endloop
endfacet
facet normal 0.0 0.0 -1.0
outer loop
vertex -7.041256209570363 22.89145994242671 -6.086522534434202e-05
vertex -7.041256209570361 37.03359556615766 -6.086522534434202e-05
vertex -4.970188397704891 21.3022737164478 -6.086522534434202e-05
endloop
endfacet
facet normal 0.0 0.0 -1.0
outer loop
vertex -4.970188397704891 21.3022737164478 -6.086522534434202e-05
vertex -7.041256209570361 37.03359556615766 -6.086522534434202e-05
vertex -4.970188397704886 38.62278179213657 -6.086522534434202e-05
endloop
endfacet
facet normal 0.0 0.0 -1.0
outer loop
vertex -4.970188397704891 21.3022737164478 -6.086522534434202e-05
vertex -4.970188397704886 38.62278179213657 -6.086522534434202e-05
vertex -2.5583788487300976 20.303269491401498 -6.086522534434202e-05
endloop
endfacet
facet normal 0.0 0.0 -1.0
outer loop
vertex -2.5583788487300976 20.303269491401498 -6.086522534434202e-05
vertex -4.970188397704886 38.62278179213657 -6.086522534434202e-05
vertex -2.5583788487300945 39.62178601718286 -6.086522534434202e-05
endloop
endfacet
facet normal 0.0 0.0 -1.0
outer loop
vertex -2.5583788487300976 20.303269491401498 -6.086522534434202e-05
vertex -2.5583788487300945 39.62178601718286 -6.086522534434202e-05
vertex -1.6201899235837953 27.888527395710643 -6.0865225338702085e-05
endloop
endfacet
facet normal 0.0 0.0 -1.0
outer loop
vertex -2.5583788487300976 20.303269491401498 -6.086522534434202e-05
vertex -1.6201899235837953 27.888527395710643 -6.0865225338702085e-05
vertex 0.02981160229511058 19.962527754292182 -6.086522534434202e-05
endloop
endfacet
facet normal 0.0 0.0 -1.0
outer loop
vertex 0.02981160229511058 19.962527754292182 -6.086522534434202e-05
vertex -1.6201899235837953 27.888527395710643 -6.0865225338702085e-05
vertex -1.5464670737727337 27.831957895028168 -0.0003127530439654524
endloop
endfacet
facet normal 0.0 0.0 -1.0
outer loop
vertex 0.02981160229511058 19.962527754292182 -6.086522534434202e-05
vertex -1.5464670737727337 27.831957895028168 -0.0003127530439654524
vertex -0.9413246308892529 27.496584355551747 -0.00021605186275457376
endloop
endfacet
facet normal 0.0 0.0 -1.0
outer loop
vertex 0.02981160229511058 19.962527754292182 -6.086522534434202e-05
vertex -0.9413246308892529 27.496584355551747 -0.00021605186275457376
vertex -0.27000085859275996 27.329260783535336 -0.00010877496866070757
endloop
endfacet
facet normal 0.0 0.0 -1.0
outer loop
vertex 0.02981160229511058 19.962527754292182 -6.086522534434202e-05
vertex -0.27000085859275996 27.329260783535336 -0.00010877496866070757
vertex 0.421754637449726 27.341390003896578 1.766895265742363e-06
endloop
endfacet
facet normal 0.0 0.0 -1.0
outer loop
vertex 0.02981160229511058 19.962527754292182 -6.086522534434202e-05
vertex 0.421754637449726 27.341390003896578 1.766895265742363e-06
vertex 2.618002053320314 20.303269491401498 -6.086522534434202e-05
endloop
endfacet
facet normal 0.0 0.0 -1.0
outer loop
vertex 2.618002053320314 20.303269491401498 -6.086522534434202e-05
vertex 0.421754637449726 27.341390003896578 1.766895265742363e-06
vertex 1.086799863362912 27.532145430312337 0.00010804048367614172
endloop
endfacet
facet normal 0.0 0.0 -1.0
outer loop
vertex 2.618002053320314 20.303269491401498 -6.086522534434202e-05
vertex 1.086799863362912 27.532145430312337 0.00010804048367614172
vertex 1.6798130860400176 27.888527395710643 0.00020280342714933396
endloop
endfacet
facet normal 0.0 0.0 -1.0
outer loop
vertex 2.618002053320314 20.303269491401498 -6.086522534434202e-05
vertex 1.6798130860400176 27.888527395710643 0.00020280342714933396
vertex 1.6798131281740165 32.03652811287373 -6.0865225338702085e-05
endloop
endfacet
facet normal -0.49999999999999983 0.8660254037844389 -7.421458181562476e-18
outer loop
vertex 0.02981160229511058 22.712527754292182 14.799939134774657
vertex 6.308495779732289 26.33752775429218 6.799939134774655
vertex 0.02981160229511058 22.712527754292182 6.799939134774655
endloop
endfacet
facet normal -0.49999999999999983 0.8660254037844389 -7.421458181562476e-18
outer loop
vertex 6.308495779732289 26.33752775429218 6.799939134774655
vertex 0.02981160229511058 22.712527754292182 14.799939134774657
vertex 6.308495779732289 26.33752775429218 14.799939134774657
endloop
endfacet
facet normal -0.8660254037844386 0.5000000000000001 0.0
outer loop
vertex -8.630442435549273 34.96252775429218 14.799939134774657
vertex -9.629446660595569 32.550718205317395 -6.086522534434202e-05
vertex -9.629446660595569 32.550718205317395 14.799939134774657
endloop
endfacet
facet normal -0.9659258262890684 0.25881904510252085 0.0
outer loop
vertex -9.629446660595569 32.550718205317395 -6.086522534434202e-05
vertex -8.630442435549273 34.96252775429218 14.799939134774657
vertex -8.630442435549273 34.96252775429218 -6.086522534434202e-05
endloop
endfacet
facet normal -0.5000000000000007 -0.8660254037844383 0.0
outer loop
vertex -4.970188397704891 21.3022737164478 14.799939134774657
vertex -7.041256209570363 22.89145994242671 -6.086522534434202e-05
vertex -4.970188397704891 21.3022737164478 -6.086522534434202e-05
endloop
endfacet
facet normal -0.7071067811865476 -0.7071067811865476 0.0
outer loop
vertex -7.041256209570363 22.89145994242671 -6.086522534434202e-05
vertex -4.970188397704891 21.3022737164478 14.799939134774657
vertex -7.041256209570363 22.89145994242671 14.799939134774657
endloop
endfacet
facet normal 1.0 -1.7822219791293813e-16 0.0
outer loop
vertex 10.02981160229511 29.96252775429218 -6.086522534434202e-05
vertex 9.689069865185793 27.374337303266966 14.799939134774657
vertex 9.689069865185793 27.374337303266966 -6.086522534434202e-05
endloop
endfacet
facet normal 0.9659258262890682 -0.25881904510252146 0.0
outer loop
vertex 9.689069865185793 27.374337303266966 14.799939134774657
vertex 10.02981160229511 29.96252775429218 -6.086522534434202e-05
vertex 10.02981160229511 29.96252775429218 14.799939134774657
endloop
endfacet
facet normal -0.7071067811865475 0.7071067811865477 0.0
outer loop
vertex -7.041256209570361 37.03359556615766 14.799939134774657
vertex -4.970188397704886 38.62278179213657 -6.086522534434202e-05
vertex -7.041256209570361 37.03359556615766 -6.086522534434202e-05
endloop
endfacet
facet normal -0.4999999999999997 0.8660254037844389 0.0
outer loop
vertex -4.970188397704886 38.62278179213657 -6.086522534434202e-05
vertex -7.041256209570361 37.03359556615766 14.799939134774657
vertex -4.970188397704886 38.62278179213657 14.799939134774657
endloop
endfacet
facet normal -0.4999999999999997 0.8660254037844389 0.0
outer loop
vertex -4.970188397704886 38.62278179213657 14.799939134774657
vertex -2.5583788487300945 39.62178601718286 -6.086522534434202e-05
vertex -4.970188397704886 38.62278179213657 -6.086522534434202e-05
endloop
endfacet
facet normal -0.25881904510252063 0.9659258262890683 0.0
outer loop
vertex -2.5583788487300945 39.62178601718286 -6.086522534434202e-05
vertex -4.970188397704886 38.62278179213657 14.799939134774657
vertex -2.5583788487300945 39.62178601718286 14.799939134774657
endloop
endfacet
facet normal -1.960444177042319e-16 1.0 0.0
outer loop
vertex 0.029811602295111993 39.96252775429218 14.799939134774657
vertex 2.618002053320327 39.62178601718286 -6.086522534434202e-05
vertex 0.029811602295111993 39.96252775429218 -6.086522534434202e-05
endloop
endfacet
facet normal 0.2588190451025218 0.9659258262890681 0.0
outer loop
vertex 2.618002053320327 39.62178601718286 -6.086522534434202e-05
vertex 0.029811602295111993 39.96252775429218 14.799939134774657
vertex 2.618002053320327 39.62178601718286 14.799939134774657
endloop
endfacet
facet normal 0.8660254037844392 0.49999999999999956 0.0
outer loop
vertex 8.690065640139501 34.96252775429217 -6.086522534434202e-05
vertex 9.689069865185793 32.55071820531738 14.799939134774657
vertex 9.689069865185793 32.55071820531738 -6.086522534434202e-05
endloop
endfacet
facet normal 0.9659258262890684 0.25881904510252035 0.0
outer loop
vertex 9.689069865185793 32.55071820531738 14.799939134774657
vertex 8.690065640139501 34.96252775429217 -6.086522534434202e-05
vertex 8.690065640139501 34.96252775429217 14.799939134774657
endloop
endfacet
facet normal -0.8660254037844388 -0.5000000000000001 0.0
outer loop
vertex -8.630442435549273 24.962527754292182 14.799939134774657
vertex -7.041256209570363 22.89145994242671 -6.086522534434202e-05
vertex -7.041256209570363 22.89145994242671 14.799939134774657
endloop
endfacet
facet normal -0.7071067811865476 -0.7071067811865476 0.0
outer loop
vertex -7.041256209570363 22.89145994242671 -6.086522534434202e-05
vertex -8.630442435549273 24.962527754292182 14.799939134774657
vertex -8.630442435549273 24.962527754292182 -6.086522534434202e-05
endloop
endfacet
facet normal 1.0693331874776287e-16 -1.0 0.0
outer loop
vertex 0.02981160229511058 19.962527754292182 14.799939134774657
vertex -2.5583788487300976 20.303269491401498 -6.086522534434202e-05
vertex 0.02981160229511058 19.962527754292182 -6.086522534434202e-05
endloop
endfacet
facet normal -0.25881904510252146 -0.9659258262890681 0.0
outer loop
vertex -2.5583788487300976 20.303269491401498 -6.086522534434202e-05
vertex 0.02981160229511058 19.962527754292182 14.799939134774657
vertex -2.5583788487300976 20.303269491401498 14.799939134774657
endloop
endfacet
facet normal -0.9659258262890684 0.25881904510252085 0.0
outer loop
vertex -9.629446660595569 32.550718205317395 14.799939134774657
vertex -9.970188397704886 29.96252775429218 -6.086522534434202e-05
vertex -9.970188397704886 29.96252775429218 14.799939134774657
endloop
endfacet
facet normal -1.0 -1.514888682259974e-16 0.0
outer loop
vertex -9.970188397704886 29.96252775429218 -6.086522534434202e-05
vertex -9.629446660595569 32.550718205317395 14.799939134774657
vertex -9.629446660595569 32.550718205317395 -6.086522534434202e-05
endloop
endfacet
facet normal 0.25881904510252063 -0.9659258262890684 0.0
outer loop
vertex 2.618002053320314 20.303269491401498 14.799939134774657
vertex 0.02981160229511058 19.962527754292182 -6.086522534434202e-05
vertex 2.618002053320314 20.303269491401498 -6.086522534434202e-05
endloop
endfacet
facet normal 1.0693331874776287e-16 -1.0 0.0
outer loop
vertex 0.02981160229511058 19.962527754292182 -6.086522534434202e-05
vertex 2.618002053320314 20.303269491401498 14.799939134774657
vertex 0.02981160229511058 19.962527754292182 14.799939134774657
endloop
endfacet
facet normal 0.4999999999999998 -0.8660254037844388 0.0
outer loop
vertex 5.0298116022951085 21.302273716447793 14.799939134774657
vertex 2.618002053320314 20.303269491401498 -6.086522534434202e-05
vertex 5.0298116022951085 21.302273716447793 -6.086522534434202e-05
endloop
endfacet
facet normal 0.25881904510252063 -0.9659258262890684 0.0
outer loop
vertex 2.618002053320314 20.303269491401498 -6.086522534434202e-05
vertex 5.0298116022951085 21.302273716447793 14.799939134774657
vertex 2.618002053320314 20.303269491401498 14.799939134774657
endloop
endfacet
facet normal 0.7071067811865477 0.7071067811865474 0.0
outer loop
vertex 7.1008794141605875 37.03359556615765 -6.086522534434202e-05
vertex 8.690065640139501 34.96252775429217 14.799939134774657
vertex 8.690065640139501 34.96252775429217 -6.086522534434202e-05
endloop
endfacet
facet normal 0.8660254037844392 0.49999999999999956 0.0
outer loop
vertex 8.690065640139501 34.96252775429217 14.799939134774657
vertex 7.1008794141605875 37.03359556615765 -6.086522534434202e-05
vertex 7.1008794141605875 37.03359556615765 14.799939134774657
endloop
endfacet
facet normal 0.500000000000001 0.866025403784438 0.0
outer loop
vertex 5.029811602295114 38.62278179213656 14.799939134774657
vertex 7.1008794141605875 37.03359556615765 -6.086522534434202e-05
vertex 5.029811602295114 38.62278179213656 -6.086522534434202e-05
endloop
endfacet
facet normal 0.7071067811865477 0.7071067811865474 0.0
outer loop
vertex 7.1008794141605875 37.03359556615765 -6.086522534434202e-05
vertex 5.029811602295114 38.62278179213656 14.799939134774657
vertex 7.1008794141605875 37.03359556615765 14.799939134774657
endloop
endfacet
facet normal 0.2588190451025218 0.9659258262890681 0.0
outer loop
vertex 2.618002053320327 39.62178601718286 14.799939134774657
vertex 5.029811602295114 38.62278179213656 -6.086522534434202e-05
vertex 2.618002053320327 39.62178601718286 -6.086522534434202e-05
endloop
endfacet
facet normal 0.500000000000001 0.866025403784438 0.0
outer loop
vertex 5.029811602295114 38.62278179213656 -6.086522534434202e-05
vertex 2.618002053320327 39.62178601718286 14.799939134774657
vertex 5.029811602295114 38.62278179213656 14.799939134774657
endloop
endfacet
facet normal 0.9659258262890684 0.25881904510252035 0.0
outer loop
vertex 9.689069865185793 32.55071820531738 -6.086522534434202e-05
vertex 10.02981160229511 29.96252775429218 14.799939134774657
vertex 10.02981160229511 29.96252775429218 -6.086522534434202e-05
endloop
endfacet
facet normal 1.0 -1.7822219791293813e-16 0.0
outer loop
vertex 10.02981160229511 29.96252775429218 14.799939134774657
vertex 9.689069865185793 32.55071820531738 -6.086522534434202e-05
vertex 9.689069865185793 32.55071820531738 14.799939134774657
endloop
endfacet
facet normal 0.8660254037844385 -0.5000000000000007 0.0
outer loop
vertex 8.690065640139492 24.96252775429218 -6.086522534434202e-05
vertex 7.100879414160582 22.891459942426703 14.799939134774657
vertex 7.100879414160582 22.891459942426703 -6.086522534434202e-05
endloop
endfacet
facet normal 0.7071067811865474 -0.7071067811865477 0.0
outer loop
vertex 7.100879414160582 22.891459942426703 14.799939134774657
vertex 8.690065640139492 24.96252775429218 -6.086522534434202e-05
vertex 8.690065640139492 24.96252775429218 14.799939134774657
endloop
endfacet
facet normal -0.7071067811865475 0.7071067811865477 0.0
outer loop
vertex -7.041256209570361 37.03359556615766 14.799939134774657
vertex -8.630442435549273 34.96252775429218 -6.086522534434202e-05
vertex -8.630442435549273 34.96252775429218 14.799939134774657
endloop
endfacet
facet normal -0.8660254037844386 0.5000000000000001 0.0
outer loop
vertex -8.630442435549273 34.96252775429218 -6.086522534434202e-05
vertex -7.041256209570361 37.03359556615766 14.799939134774657
vertex -7.041256209570361 37.03359556615766 -6.086522534434202e-05
endloop
endfacet
facet normal 0.7071067811865474 -0.7071067811865477 0.0
outer loop
vertex 7.100879414160582 22.891459942426703 14.799939134774657
vertex 5.0298116022951085 21.302273716447793 -6.086522534434202e-05
vertex 7.100879414160582 22.891459942426703 -6.086522534434202e-05
endloop
endfacet
facet normal 0.4999999999999998 -0.8660254037844388 0.0
outer loop
vertex 5.0298116022951085 21.302273716447793 -6.086522534434202e-05
vertex 7.100879414160582 22.891459942426703 14.799939134774657
vertex 5.0298116022951085 21.302273716447793 14.799939134774657
endloop
endfacet
facet normal -0.25881904510252063 0.9659258262890683 0.0
outer loop
vertex -2.5583788487300945 39.62178601718286 14.799939134774657
vertex 0.029811602295111993 39.96252775429218 -6.086522534434202e-05
vertex -2.5583788487300945 39.62178601718286 -6.086522534434202e-05
endloop
endfacet
facet normal -1.960444177042319e-16 1.0 0.0
outer loop
vertex 0.029811602295111993 39.96252775429218 -6.086522534434202e-05
vertex -2.5583788487300945 39.62178601718286 14.799939134774657
vertex 0.029811602295111993 39.96252775429218 14.799939134774657
endloop
endfacet
facet normal 0.9659258262890682 -0.25881904510252146 0.0
outer loop
vertex 9.689069865185793 27.374337303266966 -6.086522534434202e-05
vertex 8.690065640139492 24.96252775429218 14.799939134774657
vertex 8.690065640139492 24.96252775429218 -6.086522534434202e-05
endloop
endfacet
facet normal 0.8660254037844385 -0.5000000000000007 0.0
outer loop
vertex 8.690065640139492 24.96252775429218 14.799939134774657
vertex 9.689069865185793 27.374337303266966 -6.086522534434202e-05
vertex 9.689069865185793 27.374337303266966 14.799939134774657
endloop
endfacet
facet normal -0.25881904510252146 -0.9659258262890681 0.0
outer loop
vertex -2.5583788487300976 20.303269491401498 14.799939134774657
vertex -4.970188397704891 21.3022737164478 -6.086522534434202e-05
vertex -2.5583788487300976 20.303269491401498 -6.086522534434202e-05
endloop
endfacet
facet normal -0.5000000000000007 -0.8660254037844383 0.0
outer loop
vertex -4.970188397704891 21.3022737164478 -6.086522534434202e-05
vertex -2.5583788487300976 20.303269491401498 14.799939134774657
vertex -4.970188397704891 21.3022737164478 14.799939134774657
endloop
endfacet
facet normal -1.0 5.834413412168067e-16 -5.582454758084374e-33
outer loop
vertex 6.3084957797322945 33.587527754292175 14.799939134774657
vertex 6.308495779732289 26.33752775429218 6.799939134774655
vertex 6.308495779732289 26.33752775429218 14.799939134774657
endloop
endfacet
facet normal -1.0 5.834413412168067e-16 -5.582454758084374e-33
outer loop
vertex 6.308495779732289 26.33752775429218 6.799939134774655
vertex 6.3084957797322945 33.587527754292175 14.799939134774657
vertex 6.3084957797322945 33.587527754292175 6.799939134774655
endloop
endfacet
facet normal 1.0 -9.72402235361344e-17 6.780477835825297e-34
outer loop
vertex -6.248872575142066 33.587527754292175 6.799939134774655
vertex -6.248872575142067 26.33752775429218 14.799939134774657
vertex -6.248872575142067 26.33752775429218 6.799939134774655
endloop
endfacet
facet normal 1.0 -9.72402235361344e-17 6.780477835825297e-34
outer loop
vertex -6.248872575142067 26.33752775429218 14.799939134774657
vertex -6.248872575142066 33.587527754292175 6.799939134774655
vertex -6.248872575142066 33.587527754292175 14.799939134774657
endloop
endfacet
facet normal 0.4999999999999999 0.8660254037844387 2.352507976993363e-18
outer loop
vertex -6.248872575142067 26.33752775429218 14.799939134774657
vertex 0.02981160229511058 22.712527754292182 6.799939134774655
vertex -6.248872575142067 26.33752775429218 6.799939134774655
endloop
endfacet
facet normal 0.4999999999999999 0.8660254037844387 2.352507976993363e-18
outer loop
vertex 0.02981160229511058 22.712527754292182 6.799939134774655
vertex -6.248872575142067 26.33752775429218 14.799939134774657
vertex 0.02981160229511058 22.712527754292182 14.799939134774657
endloop
endfacet
facet normal 0.14788194916189037 -0.9890050193425409 2.876352508689098e-05
outer loop
vertex -0.3621314328595105 32.58366550468779 -0.00012349734594878646
vertex -1.0287428994511796 32.39305398825883 6.800486326777071
vertex -1.0271766587726965 32.39291007827203 -0.00022977093435918582
endloop
endfacet
facet normal 0.3988256859251023 -0.917026754712898 5.819881884636036e-05
outer loop
vertex -1.0287428994511796 32.39305398825883 6.800486326777071
vertex -0.3621314328595105 32.58366550468779 -0.00012349734594878646
vertex -0.36369767353799365 32.58380941467458 6.80059260036547
endloop
endfacet
facet normal 0.9999999927430783 -2.499741629032519e-09 0.00012047341513381905
outer loop
vertex -1.620189881449802 32.03652811287373 -0.0003245338778323781
vertex -1.6217561642622786 27.88867130569739 6.8006552324861085
vertex -1.6201899235837953 27.888527395710643 -6.0865225338702085e-05
endloop
endfacet
facet normal 0.9999999927430783 -2.499741629032519e-09 0.00012047341513381905
outer loop
vertex -1.6217561642622786 27.88867130569739 6.8006552324861085
vertex -1.620189881449802 32.03652811287373 -0.0003245338778323781
vertex -1.6217561221282852 32.03667202286053 6.800391563833576
endloop
endfacet
endsolid 28byj48 m5 coupler
