solid e3d holder
facet normal -1.0 -1.603999781216443e-16 -1.5938137522971867e-30
outer loop
vertex -17.599999999999994 -4.700000000000104 -1.6919798895287383e-14
vertex -17.674963182164042 -5.269401899225736 8.999999999999984
vertex -17.599999999999994 -4.700000000000195 8.99999999999999
endloop
endfacet
facet normal -0.9659258262890686 0.2588190451025201 2.571754424604616e-15
outer loop
vertex -17.674963182164042 -5.269401899225736 8.999999999999984
vertex -17.599999999999994 -4.700000000000104 -1.6919798895287383e-14
vertex -17.674963182164042 -5.269401899225645 -2.255973186038318e-14
endloop
endfacet
facet normal -0.9659258262890684 0.25881904510252046 2.5717544246046198e-15
outer loop
vertex -17.674963182164042 -5.269401899225645 -2.255973186038318e-14
vertex -17.89474411167423 -5.800000000000193 8.999999999999972
vertex -17.674963182164042 -5.269401899225736 8.999999999999984
endloop
endfacet
facet normal -0.8660254037844387 0.5000000000000002 4.968248035197577e-15
outer loop
vertex -17.89474411167423 -5.800000000000193 8.999999999999972
vertex -17.674963182164042 -5.269401899225645 -2.255973186038318e-14
vertex -17.89474411167423 -5.800000000000102 -2.8199664825478976e-14
endloop
endfacet
facet normal -0.707106781186547 0.7071067811865482 7.0261637526099004e-15
outer loop
vertex -18.244365081389596 -6.255634918610596 8.999999999999966
vertex -18.7 -6.6052558883258685 -3.665956427312267e-14
vertex -18.7 -6.605255888325958 8.999999999999964
endloop
endfacet
facet normal -0.5000000000000007 0.8660254037844383 8.605258021566445e-15
outer loop
vertex -18.7 -6.6052558883258685 -3.665956427312267e-14
vertex -18.244365081389596 -6.255634918610596 8.999999999999966
vertex -18.244365081389596 -6.255634918610506 -3.3839597790574766e-14
endloop
endfacet
facet normal -0.2588190451025207 -9.597918177214517e-15 0.9659258262890684
outer loop
vertex -32.72944763917983 -1.127986593019159e-13 1.2725933896874775
vertex -34.8 -3.9000000000000945 0.9999999999999869
vertex -32.72944763917983 -3.9000000000001114 1.2725933896874353
endloop
endfacet
facet normal 3.297110661389343e-16 -9.936496070395151e-15 1.0
outer loop
vertex -34.8 -3.9000000000000945 0.9999999999999869
vertex -32.72944763917983 -1.127986593019159e-13 1.2725933896874775
vertex -34.8 -9.587886040662851e-14 1.0000000000000264
endloop
endfacet
facet normal -9.534887588342187e-16 -1.0 -9.936496070395151e-15
outer loop
vertex -49.79999999999999 -2.500000000000097 1.973976537783528e-14
vertex -50.36940189922554 -2.5749631821642405 9.0
vertex -50.36940189922554 -2.5749631821641503 1.973976537783528e-14
endloop
endfacet
facet normal 0.25881904510252085 -0.9659258262890684 -9.597918177214517e-15
outer loop
vertex -50.36940189922554 -2.5749631821642405 9.0
vertex -49.79999999999999 -2.500000000000097 1.973976537783528e-14
vertex -49.8 -2.500000000000187 9.0
endloop
endfacet
facet normal -0.8660254037844389 -4.968248035197573e-15 0.4999999999999997
outer loop
vertex -27.87179676972449 -1.5227819005758646e-13 5.000000000000025
vertex -27.07259338968745 -3.9000000000001678 6.929447639179818
vertex -27.07259338968745 -1.6919798895287386e-13 6.929447639179858
endloop
endfacet
facet normal -0.9659258262890683 -2.5717544246046206e-15 0.2588190451025205
outer loop
vertex -27.07259338968745 -3.9000000000001678 6.929447639179818
vertex -27.87179676972449 -1.5227819005758646e-13 5.000000000000025
vertex -27.87179676972449 -3.900000000000151 4.999999999999985
endloop
endfacet
facet normal 0.9659258262890684 -2.5717544246046225e-15 0.25881904510252074
outer loop
vertex -42.52740661031254 -3.9000000000001678 6.929447639179818
vertex -42.8 -1.9175772081325702e-13 9.000000000000023
vertex -42.8 -3.9000000000001904 8.999999999999984
endloop
endfacet
facet normal 0.9914448613738104 -1.2969729960781866e-15 0.13052619222005177
outer loop
vertex -42.8 -1.9175772081325702e-13 9.000000000000023
vertex -42.52740661031254 -3.9000000000001678 6.929447639179818
vertex -42.52740661031254 -1.6919798895287386e-13 6.929447639179858
endloop
endfacet
facet normal -0.9659258262890684 -2.5717544246046237e-15 0.25881904510252085
outer loop
vertex -29.004445042265587 -3.9000000000001736 7.447085729384861
vertex -28.799999999999997 -9.400000000000192 8.99999999999993
vertex -28.799999999999997 -3.9000000000001904 8.999999999999984
endloop
endfacet
facet normal -0.9914448613738105 -1.2969729960781824e-15 0.13052619222005135
outer loop
vertex -28.799999999999997 -9.400000000000192 8.99999999999993
vertex -29.004445042265587 -3.9000000000001736 7.447085729384861
vertex -29.004445042265587 -9.400000000000174 7.447085729384807
endloop
endfacet
facet normal 0.4999999999999999 -0.8660254037844388 -8.60525802156645e-15
outer loop
vertex -50.9 -2.794744111674335 1.6919798895287383e-14
vertex -51.3556349186104 -3.144365081389787 8.999999999999995
vertex -51.3556349186104 -3.144365081389691 1.4099832412739488e-14
endloop
endfacet
facet normal 0.7071067811865458 -0.7071067811865493 -7.0261637526099115e-15
outer loop
vertex -51.3556349186104 -3.144365081389787 8.999999999999995
vertex -50.9 -2.794744111674335 1.6919798895287383e-14
vertex -50.9 -2.794744111674425 8.999999999999998
endloop
endfacet
facet normal 0.25881904510252085 -0.9659258262890684 -9.597918177214517e-15
outer loop
vertex -50.36940189922554 -2.5749631821641503 1.973976537783528e-14
vertex -50.9 -2.794744111674425 8.999999999999998
vertex -50.9 -2.794744111674335 1.6919798895287383e-14
endloop
endfacet
facet normal 0.4999999999999999 -0.8660254037844388 -8.60525802156645e-15
outer loop
vertex -50.9 -2.794744111674425 8.999999999999998
vertex -50.36940189922554 -2.5749631821641503 1.973976537783528e-14
vertex -50.36940189922554 -2.5749631821642405 9.0
endloop
endfacet
facet normal 0.0 1.0 9.936496070395151e-15
outer loop
vertex -40.8 -3.9000000000001904 8.999999999999984
vertex -42.52740661031254 -3.9000000000001678 6.929447639179818
vertex -42.8 -3.9000000000001904 8.999999999999984
endloop
endfacet
facet normal 0.0 1.0 9.936496070395151e-15
outer loop
vertex -42.52740661031254 -3.9000000000001678 6.929447639179818
vertex -40.8 -3.9000000000001904 8.999999999999984
vertex -41.728203230275504 -3.900000000000151 4.999999999999985
endloop
endfacet
facet normal 0.0 1.0 9.936496070395151e-15
outer loop
vertex -41.728203230275504 -3.900000000000151 4.999999999999985
vertex -40.8 -3.9000000000001904 8.999999999999984
vertex -40.45685424949237 -3.900000000000134 3.3431457505076003
endloop
endfacet
facet normal 0.0 1.0 9.936496070395151e-15
outer loop
vertex -40.45685424949237 -3.900000000000134 3.3431457505076003
vertex -40.8 -3.9000000000001904 8.999999999999984
vertex -40.59555495773441 -3.9000000000001736 7.447085729384855
endloop
endfacet
facet normal 0.0 1.0 9.936496070395151e-15
outer loop
vertex -40.45685424949237 -3.900000000000134 3.3431457505076003
vertex -40.59555495773441 -3.9000000000001736 7.447085729384855
vertex -39.99615242270663 -3.9000000000001562 5.9999999999999805
endloop
endfacet
facet normal 0.0 1.0 9.936496070395151e-15
outer loop
vertex -40.45685424949237 -3.900000000000134 3.3431457505076003
vertex -39.99615242270663 -3.9000000000001562 5.9999999999999805
vertex -38.8 -3.9000000000001114 2.0717967697244757
endloop
endfacet
facet normal 0.0 1.0 9.936496070395151e-15
outer loop
vertex -38.8 -3.9000000000001114 2.0717967697244757
vertex -39.99615242270663 -3.9000000000001562 5.9999999999999805
vertex -39.04264068711928 -3.900000000000145 4.757359312880697
endloop
endfacet
facet normal 0.0 1.0 9.936496070395151e-15
outer loop
vertex -38.8 -3.9000000000001114 2.0717967697244757
vertex -39.04264068711928 -3.900000000000145 4.757359312880697
vertex -37.8 -3.9000000000001283 3.803847577293351
endloop
endfacet
facet normal 0.0 1.0 9.936496070395151e-15
outer loop
vertex -38.8 -3.9000000000001114 2.0717967697244757
vertex -37.8 -3.9000000000001283 3.803847577293351
vertex -36.87055236082016 -3.9000000000001114 1.2725933896874408
endloop
endfacet
facet normal 0.0 1.0 9.936496070395151e-15
outer loop
vertex -36.87055236082016 -3.9000000000001114 1.2725933896874408
vertex -37.8 -3.9000000000001283 3.803847577293351
vertex -36.352914270615116 -3.9000000000001225 3.204445042265574
endloop
endfacet
facet normal 0.0 1.0 9.936496070395151e-15
outer loop
vertex -36.87055236082016 -3.9000000000001114 1.2725933896874408
vertex -36.352914270615116 -3.9000000000001225 3.204445042265574
vertex -34.8 -3.9000000000000945 0.9999999999999869
endloop
endfacet
facet normal 0.0 1.0 9.936496070395151e-15
outer loop
vertex -34.8 -3.9000000000000945 0.9999999999999869
vertex -36.352914270615116 -3.9000000000001225 3.204445042265574
vertex -34.8 -3.9000000000001283 2.999999999999983
endloop
endfacet
facet normal 0.0 1.0 9.936496070395151e-15
outer loop
vertex -34.8 -3.9000000000000945 0.9999999999999869
vertex -34.8 -3.9000000000001283 2.999999999999983
vertex -33.24708572938487 -3.9000000000001225 3.204445042265574
endloop
endfacet
facet normal 0.0 1.0 9.936496070395151e-15
outer loop
vertex -34.8 -3.9000000000000945 0.9999999999999869
vertex -33.24708572938487 -3.9000000000001225 3.204445042265574
vertex -32.72944763917983 -3.9000000000001114 1.2725933896874353
endloop
endfacet
facet normal 0.0 1.0 9.936496070395151e-15
outer loop
vertex -32.72944763917983 -3.9000000000001114 1.2725933896874353
vertex -33.24708572938487 -3.9000000000001225 3.204445042265574
vertex -31.799999999999997 -3.9000000000001283 3.803847577293354
endloop
endfacet
facet normal 0.0 1.0 9.936496070395151e-15
outer loop
vertex -32.72944763917983 -3.9000000000001114 1.2725933896874353
vertex -31.799999999999997 -3.9000000000001283 3.803847577293354
vertex -30.8 -3.9000000000001114 2.0717967697244757
endloop
endfacet
facet normal 0.0 1.0 9.936496070395151e-15
outer loop
vertex -30.8 -3.9000000000001114 2.0717967697244757
vertex -31.799999999999997 -3.9000000000001283 3.803847577293354
vertex -30.557359312880713 -3.900000000000145 4.757359312880699
endloop
endfacet
facet normal 0.0 1.0 9.936496070395151e-15
outer loop
vertex -30.8 -3.9000000000001114 2.0717967697244757
vertex -30.557359312880713 -3.900000000000145 4.757359312880699
vertex -29.14314575050762 -3.900000000000134 3.3431457505076003
endloop
endfacet
facet normal 0.0 1.0 9.936496070395151e-15
outer loop
vertex -29.14314575050762 -3.900000000000134 3.3431457505076003
vertex -30.557359312880713 -3.900000000000145 4.757359312880699
vertex -29.60384757729337 -3.9000000000001562 5.999999999999986
endloop
endfacet
facet normal 0.0 1.0 9.936496070395151e-15
outer loop
vertex -29.14314575050762 -3.900000000000134 3.3431457505076003
vertex -29.60384757729337 -3.9000000000001562 5.999999999999986
vertex -29.004445042265587 -3.9000000000001736 7.447085729384861
endloop
endfacet
facet normal 0.0 1.0 9.936496070395151e-15
outer loop
vertex -29.14314575050762 -3.900000000000134 3.3431457505076003
vertex -29.004445042265587 -3.9000000000001736 7.447085729384861
vertex -27.87179676972449 -3.900000000000151 4.999999999999985
endloop
endfacet
facet normal 0.0 1.0 9.936496070395151e-15
outer loop
vertex -27.87179676972449 -3.900000000000151 4.999999999999985
vertex -29.004445042265587 -3.9000000000001736 7.447085729384861
vertex -28.799999999999997 -3.9000000000001904 8.999999999999984
endloop
endfacet
facet normal 0.0 1.0 9.936496070395151e-15
outer loop
vertex -27.87179676972449 -3.900000000000151 4.999999999999985
vertex -28.799999999999997 -3.9000000000001904 8.999999999999984
vertex -26.799999999999997 -3.9000000000001904 8.999999999999986
endloop
endfacet
facet normal 0.0 1.0 9.936496070395151e-15
outer loop
vertex -27.87179676972449 -3.900000000000151 4.999999999999985
vertex -26.799999999999997 -3.9000000000001904 8.999999999999986
vertex -27.07259338968745 -3.9000000000001678 6.929447639179818
endloop
endfacet
facet normal 0.866025403784438 -0.5000000000000011 -4.9682480351975866e-15
outer loop
vertex -51.70525588832576 -3.600000000000095 8.459899447643692e-15
vertex -51.3556349186104 -3.144365081389787 8.999999999999995
vertex -51.705255888325766 -3.6000000000001906 8.99999999999999
endloop
endfacet
facet normal 0.7071067811865458 -0.7071067811865493 -7.0261637526099115e-15
outer loop
vertex -51.3556349186104 -3.144365081389787 8.999999999999995
vertex -51.70525588832576 -3.600000000000095 8.459899447643692e-15
vertex -51.3556349186104 -3.144365081389691 1.4099832412739488e-14
endloop
endfacet
facet normal -0.2588190451025209 0.9659258262890684 9.597918177214517e-15
outer loop
vertex -49.23059810077445 -6.825036817836143 8.999999999999957
vertex -49.79999999999999 -6.9000000000001 -2.255973186038318e-14
vertex -49.8 -6.90000000000019 8.999999999999957
endloop
endfacet
facet normal 2.4059996718246644e-16 1.0 9.936496070395151e-15
outer loop
vertex -49.79999999999999 -6.9000000000001 -2.255973186038318e-14
vertex -49.23059810077445 -6.825036817836143 8.999999999999957
vertex -49.23059810077444 -6.825036817836053 -2.255973186038318e-14
endloop
endfacet
facet normal 0.0 1.0 9.936496070395151e-15
outer loop
vertex -42.8 -1.9175772081325702e-13 9.000000000000023
vertex -56.8 -9.023892744153272e-14 1.973976537783528e-14
vertex -56.8 -1.9175772081325702e-13 9.000000000000023
endloop
endfacet
facet normal 0.0 1.0 9.936496070395151e-15
outer loop
vertex -56.8 -9.023892744153272e-14 1.973976537783528e-14
vertex -42.8 -1.9175772081325702e-13 9.000000000000023
vertex -42.52740661031254 -1.6919798895287386e-13 6.929447639179858
endloop
endfacet
facet normal 0.0 1.0 9.936496070395151e-15
outer loop
vertex -56.8 -9.023892744153272e-14 1.973976537783528e-14
vertex -42.52740661031254 -1.6919798895287386e-13 6.929447639179858
vertex -41.728203230275504 -1.5227819005758646e-13 5.000000000000025
endloop
endfacet
facet normal 0.0 1.0 9.936496070395151e-15
outer loop
vertex -56.8 -9.023892744153272e-14 1.973976537783528e-14
vertex -41.728203230275504 -1.5227819005758646e-13 5.000000000000025
vertex -40.45685424949237 -1.3535839116229907e-13 3.343145750507643
endloop
endfacet
facet normal 0.0 1.0 9.936496070395151e-15
outer loop
vertex -56.8 -9.023892744153272e-14 1.973976537783528e-14
vertex -40.45685424949237 -1.3535839116229907e-13 3.343145750507643
vertex -38.8 -1.071587263368201e-13 2.071796769724515
endloop
endfacet
facet normal 0.0 1.0 9.936496070395151e-15
outer loop
vertex -56.8 -9.023892744153272e-14 1.973976537783528e-14
vertex -38.8 -1.071587263368201e-13 2.071796769724515
vertex -36.87055236082016 -1.127986593019159e-13 1.2725933896874804
endloop
endfacet
facet normal 0.0 1.0 9.936496070395151e-15
outer loop
vertex -56.8 -9.023892744153272e-14 1.973976537783528e-14
vertex -36.87055236082016 -1.127986593019159e-13 1.2725933896874804
vertex -34.8 -9.587886040662851e-14 1.0000000000000264
endloop
endfacet
facet normal 0.0 1.0 9.936496070395151e-15
outer loop
vertex -56.8 -9.023892744153272e-14 1.973976537783528e-14
vertex -34.8 -9.587886040662851e-14 1.0000000000000264
vertex -12.799999999999999 -9.023892744153272e-14 2.8199664825478975e-15
endloop
endfacet
facet normal 0.0 1.0 9.936496070395151e-15
outer loop
vertex -12.799999999999999 -9.023892744153272e-14 2.8199664825478975e-15
vertex -34.8 -9.587886040662851e-14 1.0000000000000264
vertex -32.72944763917983 -1.127986593019159e-13 1.2725933896874775
endloop
endfacet
facet normal 0.0 1.0 9.936496070395151e-15
outer loop
vertex -12.799999999999999 -9.023892744153272e-14 2.8199664825478975e-15
vertex -32.72944763917983 -1.127986593019159e-13 1.2725933896874775
vertex -30.8 -1.071587263368201e-13 2.071796769724515
endloop
endfacet
facet normal 0.0 1.0 9.936496070395151e-15
outer loop
vertex -12.799999999999999 -9.023892744153272e-14 2.8199664825478975e-15
vertex -30.8 -1.071587263368201e-13 2.071796769724515
vertex -29.14314575050762 -1.3535839116229907e-13 3.343145750507643
endloop
endfacet
facet normal 0.0 1.0 9.936496070395151e-15
outer loop
vertex -12.799999999999999 -9.023892744153272e-14 2.8199664825478975e-15
vertex -29.14314575050762 -1.3535839116229907e-13 3.343145750507643
vertex -27.87179676972449 -1.5227819005758646e-13 5.000000000000025
endloop
endfacet
facet normal 0.0 1.0 9.936496070395151e-15
outer loop
vertex -12.799999999999999 -9.023892744153272e-14 2.8199664825478975e-15
vertex -27.87179676972449 -1.5227819005758646e-13 5.000000000000025
vertex -27.07259338968745 -1.6919798895287386e-13 6.929447639179858
endloop
endfacet
facet normal 0.0 1.0 9.936496070395151e-15
outer loop
vertex -12.799999999999999 -9.023892744153272e-14 2.8199664825478975e-15
vertex -27.07259338968745 -1.6919798895287386e-13 6.929447639179858
vertex -26.799999999999997 -1.9175772081325702e-13 9.000000000000027
endloop
endfacet
facet normal 0.0 1.0 9.936496070395151e-15
outer loop
vertex -12.799999999999999 -9.023892744153272e-14 2.8199664825478975e-15
vertex -26.799999999999997 -1.9175772081325702e-13 9.000000000000027
vertex -12.799999999999999 -1.9175772081325702e-13 9.000000000000023
endloop
endfacet
facet normal 0.9659258262890683 -2.5717544246046265e-15 0.25881904510252113
outer loop
vertex -40.59555495773441 -9.400000000000174 7.447085729384802
vertex -40.8 -3.9000000000001904 8.999999999999984
vertex -40.8 -9.400000000000192 8.99999999999993
endloop
endfacet
facet normal 0.9914448613738104 -1.296972996078188e-15 0.1305261922200519
outer loop
vertex -40.8 -3.9000000000001904 8.999999999999984
vertex -40.59555495773441 -9.400000000000174 7.447085729384802
vertex -40.59555495773441 -3.9000000000001736 7.447085729384855
endloop
endfacet
facet normal 3.475332859302293e-16 1.0 9.936496070395151e-15
outer loop
vertex -49.8 -6.90000000000019 8.999999999999957
vertex -50.36940189922554 -6.825036817836053 -2.255973186038318e-14
vertex -50.369401899225544 -6.825036817836143 8.999999999999957
endloop
endfacet
facet normal 0.2588190451025209 0.9659258262890684 9.597918177214517e-15
outer loop
vertex -50.36940189922554 -6.825036817836053 -2.255973186038318e-14
vertex -49.8 -6.90000000000019 8.999999999999957
vertex -49.79999999999999 -6.9000000000001 -2.255973186038318e-14
endloop
endfacet
facet normal -0.49999999999999994 -0.8660254037844388 -8.60525802156645e-15
outer loop
vertex -48.69999999999999 -2.794744111674335 1.6919798895287383e-14
vertex -48.24436508138959 -3.144365081389787 8.999999999999995
vertex -48.7 -2.794744111674425 8.999999999999998
endloop
endfacet
facet normal -0.7071067811865475 -0.7071067811865477 -7.026163752609896e-15
outer loop
vertex -48.24436508138959 -3.144365081389787 8.999999999999995
vertex -48.69999999999999 -2.794744111674335 1.6919798895287383e-14
vertex -48.24436508138959 -3.144365081389697 1.4099832412739488e-14
endloop
endfacet
facet normal -0.25881904510252074 -9.597918177214517e-15 0.9659258262890684
outer loop
vertex -33.24708572938487 -9.400000000000123 3.20444504226552
vertex -34.8 -3.9000000000001283 2.999999999999983
vertex -34.8 -9.40000000000013 2.99999999999993
endloop
endfacet
facet normal -9.802220885211571e-17 -9.936496070395151e-15 1.0
outer loop
vertex -34.8 -3.9000000000001283 2.999999999999983
vertex -33.24708572938487 -9.400000000000123 3.20444504226552
vertex -33.24708572938487 -3.9000000000001225 3.204445042265574
endloop
endfacet
facet normal -1.0 -2.1386663749552573e-16 -2.1250850030629156e-30
outer loop
vertex -47.599999999999994 -4.700000000000099 0.0
vertex -47.67496318216404 -5.269401899225736 8.99999999999998
vertex -47.599999999999994 -4.700000000000195 8.999999999999986
endloop
endfacet
facet normal -0.9659258262890686 0.2588190451025201 2.571754424604616e-15
outer loop
vertex -47.67496318216404 -5.269401899225736 8.99999999999998
vertex -47.599999999999994 -4.700000000000099 0.0
vertex -47.67496318216404 -5.269401899225645 -5.639932965095795e-15
endloop
endfacet
facet normal 0.9659258262890684 0.2588190451025205 2.5717544246046206e-15
outer loop
vertex -21.925036817835952 -5.269401899225645 -2.255973186038318e-14
vertex -22.0 -4.700000000000195 8.99999999999999
vertex -21.925036817835952 -5.269401899225736 8.999999999999984
endloop
endfacet
facet normal 1.0 2.2277774739117265e-16 2.2136302115238708e-30
outer loop
vertex -22.0 -4.700000000000195 8.99999999999999
vertex -21.925036817835952 -5.269401899225645 -2.255973186038318e-14
vertex -22.0 -4.700000000000104 -1.6919798895287383e-14
endloop
endfacet
facet normal 0.7071067811865472 0.7071067811865478 7.026163752609896e-15
outer loop
vertex -51.3556349186104 -6.255634918610506 -1.6919798895287383e-14
vertex -51.705255888325766 -5.800000000000193 8.99999999999997
vertex -51.3556349186104 -6.255634918610596 8.999999999999964
endloop
endfacet
facet normal 0.8660254037844387 0.5 4.9682480351975755e-15
outer loop
vertex -51.705255888325766 -5.800000000000193 8.99999999999997
vertex -51.3556349186104 -6.255634918610506 -1.6919798895287383e-14
vertex -51.70525588832576 -5.800000000000102 -1.127986593019159e-14
endloop
endfacet
facet normal 0.8660254037844387 0.5 4.9682480351975755e-15
outer loop
vertex -51.705255888325766 -5.800000000000193 8.99999999999997
vertex -51.925036817835945 -5.269401899225645 -5.639932965095795e-15
vertex -51.92503681783595 -5.269401899225736 8.99999999999998
endloop
endfacet
facet normal 0.9659258262890684 0.2588190451025205 2.5717544246046206e-15
outer loop
vertex -51.925036817835945 -5.269401899225645 -5.639932965095795e-15
vertex -51.705255888325766 -5.800000000000193 8.99999999999997
vertex -51.70525588832576 -5.800000000000102 -1.127986593019159e-14
endloop
endfacet
facet normal -0.5000000000000007 0.8660254037844385 8.605258021566447e-15
outer loop
vertex -48.7 -6.605255888325958 8.999999999999961
vertex -49.23059810077444 -6.825036817836053 -2.255973186038318e-14
vertex -49.23059810077445 -6.825036817836143 8.999999999999957
endloop
endfacet
facet normal -0.25881904510252096 0.9659258262890682 9.597918177214515e-15
outer loop
vertex -49.23059810077444 -6.825036817836053 -2.255973186038318e-14
vertex -48.7 -6.605255888325958 8.999999999999961
vertex -48.69999999999999 -6.6052558883258685 -1.973976537783528e-14
endloop
endfacet
facet normal -0.7071067811865469 0.7071067811865482 7.0261637526099004e-15
outer loop
vertex -48.244365081389596 -6.255634918610596 8.999999999999964
vertex -48.69999999999999 -6.6052558883258685 -1.973976537783528e-14
vertex -48.7 -6.605255888325958 8.999999999999961
endloop
endfacet
facet normal -0.5000000000000008 0.8660254037844383 8.605258021566445e-15
outer loop
vertex -48.69999999999999 -6.6052558883258685 -1.973976537783528e-14
vertex -48.244365081389596 -6.255634918610596 8.999999999999964
vertex -48.24436508138959 -6.255634918610506 -1.6919798895287383e-14
endloop
endfacet
facet normal 0.8660254037844387 -4.9682480351975755e-15 0.5
outer loop
vertex -41.728203230275504 -3.900000000000151 4.999999999999985
vertex -42.52740661031254 -1.6919798895287386e-13 6.929447639179858
vertex -42.52740661031254 -3.9000000000001678 6.929447639179818
endloop
endfacet
facet normal 0.9659258262890684 -2.5717544246046225e-15 0.25881904510252074
outer loop
vertex -42.52740661031254 -1.6919798895287386e-13 6.929447639179858
vertex -41.728203230275504 -3.900000000000151 4.999999999999985
vertex -41.728203230275504 -1.5227819005758646e-13 5.000000000000025
endloop
endfacet
facet normal -0.9659258262890684 -0.2588190451025207 -2.571754424604622e-15
outer loop
vertex -47.67496318216404 -4.130598100774552 5.639932965095795e-15
vertex -47.599999999999994 -4.700000000000195 8.999999999999986
vertex -47.67496318216404 -4.130598100774647 8.999999999999991
endloop
endfacet
facet normal -1.0 -1.0693331874776287e-16 -1.0625425015314578e-30
outer loop
vertex -47.599999999999994 -4.700000000000195 8.999999999999986
vertex -47.67496318216404 -4.130598100774552 5.639932965095795e-15
vertex -47.599999999999994 -4.700000000000099 0.0
endloop
endfacet
facet normal -0.9659258262890684 0.25881904510252046 2.5717544246046198e-15
outer loop
vertex -47.67496318216404 -5.269401899225645 -5.639932965095795e-15
vertex -47.89474411167423 -5.800000000000193 8.99999999999997
vertex -47.67496318216404 -5.269401899225736 8.99999999999998
endloop
endfacet
facet normal -0.8660254037844387 0.5000000000000002 4.968248035197577e-15
outer loop
vertex -47.89474411167423 -5.800000000000193 8.99999999999997
vertex -47.67496318216404 -5.269401899225645 -5.639932965095795e-15
vertex -47.89474411167423 -5.800000000000102 -1.127986593019159e-14
endloop
endfacet
facet normal 0.8660254037844385 -4.968248035197582e-15 0.5000000000000007
outer loop
vertex -39.99615242270663 -9.400000000000151 5.999999999999927
vertex -40.59555495773441 -3.9000000000001736 7.447085729384855
vertex -40.59555495773441 -9.400000000000174 7.447085729384802
endloop
endfacet
facet normal 0.9659258262890682 -2.5717544246046273e-15 0.2588190451025212
outer loop
vertex -40.59555495773441 -3.9000000000001736 7.447085729384855
vertex -39.99615242270663 -9.400000000000151 5.999999999999927
vertex -39.99615242270663 -3.9000000000001562 5.9999999999999805
endloop
endfacet
facet normal -0.7071067811865472 -7.026163752609896e-15 0.7071067811865478
outer loop
vertex -29.14314575050762 -1.3535839116229907e-13 3.343145750507643
vertex -27.87179676972449 -3.900000000000151 4.999999999999985
vertex -27.87179676972449 -1.5227819005758646e-13 5.000000000000025
endloop
endfacet
facet normal -0.8660254037844389 -4.968248035197573e-15 0.4999999999999997
outer loop
vertex -27.87179676972449 -3.900000000000151 4.999999999999985
vertex -29.14314575050762 -1.3535839116229907e-13 3.343145750507643
vertex -29.14314575050762 -3.900000000000134 3.3431457505076003
endloop
endfacet
facet normal 0.9659258262890684 -0.2588190451025206 -2.571754424604621e-15
outer loop
vertex -51.925036817835945 -4.130598100774552 5.639932965095795e-15
vertex -51.705255888325766 -3.6000000000001906 8.99999999999999
vertex -51.92503681783595 -4.130598100774642 8.999999999999991
endloop
endfacet
facet normal 0.8660254037844385 -0.5000000000000006 -4.968248035197581e-15
outer loop
vertex -51.705255888325766 -3.6000000000001906 8.99999999999999
vertex -51.925036817835945 -4.130598100774552 5.639932965095795e-15
vertex -51.70525588832576 -3.600000000000095 8.459899447643692e-15
endloop
endfacet
facet normal 1.0 2.2277774739117265e-16 2.2136302115238708e-30
outer loop
vertex -22.0 -4.700000000000104 -1.6919798895287383e-14
vertex -21.925036817835952 -4.130598100774642 8.999999999999995
vertex -22.0 -4.700000000000195 8.99999999999999
endloop
endfacet
facet normal 0.9659258262890684 -0.25881904510252013 -2.5717544246046166e-15
outer loop
vertex -21.925036817835952 -4.130598100774642 8.999999999999995
vertex -22.0 -4.700000000000104 -1.6919798895287383e-14
vertex -21.925036817835952 -4.130598100774552 -1.127986593019159e-14
endloop
endfacet
facet normal 0.9659258262890684 -0.2588190451025205 -2.5717544246046206e-15
outer loop
vertex -21.925036817835952 -4.130598100774552 -1.127986593019159e-14
vertex -21.705255888325766 -3.6000000000001906 8.999999999999991
vertex -21.925036817835952 -4.130598100774642 8.999999999999995
endloop
endfacet
facet normal 0.8660254037844385 -0.5000000000000007 -4.968248035197582e-15
outer loop
vertex -21.705255888325766 -3.6000000000001906 8.999999999999991
vertex -21.925036817835952 -4.130598100774552 -1.127986593019159e-14
vertex -21.705255888325766 -3.6000000000001005 -8.459899447643692e-15
endloop
endfacet
facet normal 0.2588190451025209 0.9659258262890684 9.597918177214517e-15
outer loop
vertex -20.369401899225544 -6.825036817836143 8.999999999999961
vertex -20.899999999999995 -6.6052558883258685 -3.665956427312267e-14
vertex -20.899999999999995 -6.605255888325958 8.999999999999964
endloop
endfacet
facet normal 0.5000000000000007 0.8660254037844383 8.605258021566445e-15
outer loop
vertex -20.899999999999995 -6.6052558883258685 -3.665956427312267e-14
vertex -20.369401899225544 -6.825036817836143 8.999999999999961
vertex -20.369401899225544 -6.825036817836053 -3.947953075567056e-14
endloop
endfacet
facet normal -0.8660254037844385 0.5000000000000006 4.968248035197581e-15
outer loop
vertex -47.89474411167423 -5.800000000000102 -1.127986593019159e-14
vertex -48.244365081389596 -6.255634918610596 8.999999999999964
vertex -47.89474411167423 -5.800000000000193 8.99999999999997
endloop
endfacet
facet normal -0.7071067811865469 0.7071067811865482 7.0261637526099004e-15
outer loop
vertex -48.244365081389596 -6.255634918610596 8.999999999999964
vertex -47.89474411167423 -5.800000000000102 -1.127986593019159e-14
vertex -48.24436508138959 -6.255634918610506 -1.6919798895287383e-14
endloop
endfacet
facet normal 0.9659258262890684 0.2588190451025205 2.5717544246046206e-15
outer loop
vertex -51.925036817835945 -5.269401899225645 -5.639932965095795e-15
vertex -51.99999999999999 -4.700000000000195 8.999999999999986
vertex -51.92503681783595 -5.269401899225736 8.99999999999998
endloop
endfacet
facet normal 1.0 2.7624440676505406e-16 2.7449014622895993e-30
outer loop
vertex -51.99999999999999 -4.700000000000195 8.999999999999986
vertex -51.925036817835945 -5.269401899225645 -5.639932965095795e-15
vertex -51.99999999999999 -4.700000000000099 0.0
endloop
endfacet
facet normal -0.8660254037844396 -0.49999999999999845 -4.96824803519756e-15
outer loop
vertex -47.89474411167423 -3.6000000000001906 8.99999999999999
vertex -47.67496318216404 -4.130598100774552 5.639932965095795e-15
vertex -47.67496318216404 -4.130598100774647 8.999999999999991
endloop
endfacet
facet normal -0.9659258262890684 -0.2588190451025207 -2.571754424604622e-15
outer loop
vertex -47.67496318216404 -4.130598100774552 5.639932965095795e-15
vertex -47.89474411167423 -3.6000000000001906 8.99999999999999
vertex -47.89474411167423 -3.6000000000001005 8.459899447643692e-15
endloop
endfacet
facet normal 0.5000000000000007 0.8660254037844383 8.605258021566445e-15
outer loop
vertex -50.9 -6.605255888325958 8.999999999999961
vertex -51.3556349186104 -6.255634918610506 -1.6919798895287383e-14
vertex -51.3556349186104 -6.255634918610596 8.999999999999964
endloop
endfacet
facet normal 0.7071067811865472 0.7071067811865478 7.026163752609896e-15
outer loop
vertex -51.3556349186104 -6.255634918610506 -1.6919798895287383e-14
vertex -50.9 -6.605255888325958 8.999999999999961
vertex -50.9 -6.6052558883258685 -1.973976537783528e-14
endloop
endfacet
facet normal 0.707106781186547 -7.0261637526099e-15 0.7071067811865481
outer loop
vertex -39.04264068711928 -9.400000000000146 4.757359312880642
vertex -39.99615242270663 -3.9000000000001562 5.9999999999999805
vertex -39.99615242270663 -9.400000000000151 5.999999999999927
endloop
endfacet
facet normal 0.8660254037844385 -4.968248035197582e-15 0.5000000000000007
outer loop
vertex -39.99615242270663 -3.9000000000001562 5.9999999999999805
vertex -39.04264068711928 -9.400000000000146 4.757359312880642
vertex -39.04264068711928 -3.900000000000145 4.757359312880697
endloop
endfacet
facet normal -0.5 -8.60525802156645e-15 0.8660254037844387
outer loop
vertex -31.799999999999997 -3.9000000000001283 3.803847577293354
vertex -33.24708572938487 -9.400000000000123 3.20444504226552
vertex -31.799999999999997 -9.40000000000013 3.8038475772933005
endloop
endfacet
facet normal -0.25881904510252074 -9.597918177214517e-15 0.9659258262890684
outer loop
vertex -33.24708572938487 -9.400000000000123 3.20444504226552
vertex -31.799999999999997 -3.9000000000001283 3.803847577293354
vertex -33.24708572938487 -3.9000000000001225 3.204445042265574
endloop
endfacet
facet normal 0.2588190451025207 -9.597918177214517e-15 0.9659258262890684
outer loop
vertex -36.352914270615116 -3.9000000000001225 3.204445042265574
vertex -37.8 -9.40000000000013 3.803847577293298
vertex -36.352914270615116 -9.400000000000123 3.20444504226552
endloop
endfacet
facet normal 0.4999999999999997 -8.605258021566451e-15 0.8660254037844389
outer loop
vertex -37.8 -9.40000000000013 3.803847577293298
vertex -36.352914270615116 -3.9000000000001225 3.204445042265574
vertex -37.8 -3.9000000000001283 3.803847577293351
endloop
endfacet
facet normal 0.2588190451025208 -9.597918177214517e-15 0.9659258262890684
outer loop
vertex -36.87055236082016 -1.127986593019159e-13 1.2725933896874804
vertex -38.8 -3.9000000000001114 2.0717967697244757
vertex -36.87055236082016 -3.9000000000001114 1.2725933896874408
endloop
endfacet
facet normal 0.49999999999999994 -8.60525802156645e-15 0.8660254037844388
outer loop
vertex -38.8 -3.9000000000001114 2.0717967697244757
vertex -36.87055236082016 -1.127986593019159e-13 1.2725933896874804
vertex -38.8 -1.071587263368201e-13 2.071796769724515
endloop
endfacet
facet normal -0.8660254037844388 -4.968248035197575e-15 0.49999999999999994
outer loop
vertex -29.60384757729337 -3.9000000000001562 5.999999999999986
vertex -29.004445042265587 -9.400000000000174 7.447085729384807
vertex -29.004445042265587 -3.9000000000001736 7.447085729384861
endloop
endfacet
facet normal -0.9659258262890683 -2.5717544246046225e-15 0.25881904510252074
outer loop
vertex -29.004445042265587 -9.400000000000174 7.447085729384807
vertex -29.60384757729337 -3.9000000000001562 5.999999999999986
vertex -29.60384757729337 -9.400000000000151 5.9999999999999325
endloop
endfacet
facet normal 3.902725095001169e-17 -1.0031912173290432e-14 1.0
outer loop
vertex -12.799999999999999 -9.400000000000185 8.99999999999993
vertex -19.23059810077445 -6.825036817836143 8.999999999999961
vertex -19.799999999999997 -6.90000000000019 8.999999999999961
endloop
endfacet
facet normal 3.902725095001169e-17 -1.0031912173290432e-14 1.0
outer loop
vertex -19.23059810077445 -6.825036817836143 8.999999999999961
vertex -12.799999999999999 -9.400000000000185 8.99999999999993
vertex -18.7 -6.605255888325958 8.999999999999964
endloop
endfacet
facet normal 3.902725095001169e-17 -1.0031912173290432e-14 1.0
outer loop
vertex -18.7 -6.605255888325958 8.999999999999964
vertex -12.799999999999999 -9.400000000000185 8.99999999999993
vertex -18.244365081389596 -6.255634918610596 8.999999999999966
endloop
endfacet
facet normal 3.902725095001169e-17 -1.0031912173290432e-14 1.0
outer loop
vertex -18.244365081389596 -6.255634918610596 8.999999999999966
vertex -12.799999999999999 -9.400000000000185 8.99999999999993
vertex -12.799999999999999 -1.9175772081325702e-13 9.000000000000023
endloop
endfacet
facet normal 3.902725095001169e-17 -1.0031912173290432e-14 1.0
outer loop
vertex -18.244365081389596 -6.255634918610596 8.999999999999966
vertex -12.799999999999999 -1.9175772081325702e-13 9.000000000000023
vertex -17.89474411167423 -5.800000000000193 8.999999999999972
endloop
endfacet
facet normal 3.902725095001169e-17 -1.0031912173290432e-14 1.0
outer loop
vertex -17.89474411167423 -5.800000000000193 8.999999999999972
vertex -12.799999999999999 -1.9175772081325702e-13 9.000000000000023
vertex -17.674963182164042 -5.269401899225736 8.999999999999984
endloop
endfacet
facet normal 3.902725095001169e-17 -1.0031912173290432e-14 1.0
outer loop
vertex -17.674963182164042 -5.269401899225736 8.999999999999984
vertex -12.799999999999999 -1.9175772081325702e-13 9.000000000000023
vertex -17.599999999999994 -4.700000000000195 8.99999999999999
endloop
endfacet
facet normal 3.902725095001169e-17 -1.0031912173290432e-14 1.0
outer loop
vertex -17.599999999999994 -4.700000000000195 8.99999999999999
vertex -12.799999999999999 -1.9175772081325702e-13 9.000000000000023
vertex -17.674963182164042 -4.130598100774647 8.999999999999995
endloop
endfacet
facet normal 3.902725095001169e-17 -1.0031912173290432e-14 1.0
outer loop
vertex -17.674963182164042 -4.130598100774647 8.999999999999995
vertex -12.799999999999999 -1.9175772081325702e-13 9.000000000000023
vertex -17.89474411167423 -3.6000000000001906 8.999999999999991
endloop
endfacet
facet normal 3.902725095001169e-17 -1.0031912173290432e-14 1.0
outer loop
vertex -17.89474411167423 -3.6000000000001906 8.999999999999991
vertex -12.799999999999999 -1.9175772081325702e-13 9.000000000000023
vertex -18.24436508138959 -3.144365081389787 8.999999999999998
endloop
endfacet
facet normal 3.902725095001169e-17 -1.0031912173290432e-14 1.0
outer loop
vertex -18.24436508138959 -3.144365081389787 8.999999999999998
vertex -12.799999999999999 -1.9175772081325702e-13 9.000000000000023
vertex -18.7 -2.794744111674425 9.0
endloop
endfacet
facet normal 3.902725095001169e-17 -1.0031912173290432e-14 1.0
outer loop
vertex -18.7 -2.794744111674425 9.0
vertex -12.799999999999999 -1.9175772081325702e-13 9.000000000000023
vertex -19.23059810077445 -2.5749631821642405 9.000000000000004
endloop
endfacet
facet normal 3.902725095001169e-17 -1.0031912173290432e-14 1.0
outer loop
vertex -19.23059810077445 -2.5749631821642405 9.000000000000004
vertex -12.799999999999999 -1.9175772081325702e-13 9.000000000000023
vertex -19.799999999999997 -2.500000000000187 9.000000000000004
endloop
endfacet
facet normal 3.902725095001169e-17 -1.0031912173290432e-14 1.0
outer loop
vertex -21.705255888325766 -3.6000000000001906 8.999999999999991
vertex -26.799999999999997 -3.9000000000001904 8.999999999999986
vertex -21.925036817835952 -4.130598100774642 8.999999999999995
endloop
endfacet
facet normal 3.902725095001169e-17 -1.0031912173290432e-14 1.0
outer loop
vertex -26.799999999999997 -3.9000000000001904 8.999999999999986
vertex -21.705255888325766 -3.6000000000001906 8.999999999999991
vertex -26.799999999999997 -1.9175772081325702e-13 9.000000000000027
endloop
endfacet
facet normal 3.902725095001169e-17 -1.0031912173290432e-14 1.0
outer loop
vertex -26.799999999999997 -1.9175772081325702e-13 9.000000000000027
vertex -21.705255888325766 -3.6000000000001906 8.999999999999991
vertex -21.3556349186104 -3.144365081389787 8.999999999999998
endloop
endfacet
facet normal 3.902725095001169e-17 -1.0031912173290432e-14 1.0
outer loop
vertex -26.799999999999997 -1.9175772081325702e-13 9.000000000000027
vertex -21.3556349186104 -3.144365081389787 8.999999999999998
vertex -20.899999999999995 -2.794744111674425 9.0
endloop
endfacet
facet normal 3.902725095001169e-17 -1.0031912173290432e-14 1.0
outer loop
vertex -26.799999999999997 -1.9175772081325702e-13 9.000000000000027
vertex -20.899999999999995 -2.794744111674425 9.0
vertex -20.36940189922554 -2.5749631821642405 9.000000000000004
endloop
endfacet
facet normal 3.902725095001169e-17 -1.0031912173290432e-14 1.0
outer loop
vertex -26.799999999999997 -1.9175772081325702e-13 9.000000000000027
vertex -20.36940189922554 -2.5749631821642405 9.000000000000004
vertex -19.799999999999997 -2.500000000000187 9.000000000000004
endloop
endfacet
facet normal 3.902725095001169e-17 -1.0031912173290432e-14 1.0
outer loop
vertex -26.799999999999997 -1.9175772081325702e-13 9.000000000000027
vertex -19.799999999999997 -2.500000000000187 9.000000000000004
vertex -12.799999999999999 -1.9175772081325702e-13 9.000000000000023
endloop
endfacet
facet normal 3.902725095001169e-17 -1.0031912173290432e-14 1.0
outer loop
vertex -28.799999999999997 -9.400000000000192 8.99999999999993
vertex -20.369401899225544 -6.825036817836143 8.999999999999961
vertex -28.799999999999997 -3.9000000000001904 8.999999999999984
endloop
endfacet
facet normal 3.902725095001169e-17 -1.0031912173290432e-14 1.0
outer loop
vertex -20.369401899225544 -6.825036817836143 8.999999999999961
vertex -28.799999999999997 -9.400000000000192 8.99999999999993
vertex -12.799999999999999 -9.400000000000185 8.99999999999993
endloop
endfacet
facet normal 3.902725095001169e-17 -1.0031912173290432e-14 1.0
outer loop
vertex -20.369401899225544 -6.825036817836143 8.999999999999961
vertex -12.799999999999999 -9.400000000000185 8.99999999999993
vertex -19.799999999999997 -6.90000000000019 8.999999999999961
endloop
endfacet
facet normal 3.902725095001169e-17 -1.0031912173290432e-14 1.0
outer loop
vertex -28.799999999999997 -3.9000000000001904 8.999999999999984
vertex -20.369401899225544 -6.825036817836143 8.999999999999961
vertex -20.899999999999995 -6.605255888325958 8.999999999999964
endloop
endfacet
facet normal 3.902725095001169e-17 -1.0031912173290432e-14 1.0
outer loop
vertex -28.799999999999997 -3.9000000000001904 8.999999999999984
vertex -20.899999999999995 -6.605255888325958 8.999999999999964
vertex -21.3556349186104 -6.255634918610596 8.999999999999966
endloop
endfacet
facet normal 3.902725095001169e-17 -1.0031912173290432e-14 1.0
outer loop
vertex -28.799999999999997 -3.9000000000001904 8.999999999999984
vertex -21.3556349186104 -6.255634918610596 8.999999999999966
vertex -21.705255888325766 -5.800000000000193 8.999999999999972
endloop
endfacet
facet normal 3.902725095001169e-17 -1.0031912173290432e-14 1.0
outer loop
vertex -28.799999999999997 -3.9000000000001904 8.999999999999984
vertex -21.705255888325766 -5.800000000000193 8.999999999999972
vertex -21.925036817835952 -5.269401899225736 8.999999999999984
endloop
endfacet
facet normal 3.902725095001169e-17 -1.0031912173290432e-14 1.0
outer loop
vertex -28.799999999999997 -3.9000000000001904 8.999999999999984
vertex -21.925036817835952 -5.269401899225736 8.999999999999984
vertex -22.0 -4.700000000000195 8.99999999999999
endloop
endfacet
facet normal 3.902725095001169e-17 -1.0031912173290432e-14 1.0
outer loop
vertex -28.799999999999997 -3.9000000000001904 8.999999999999984
vertex -22.0 -4.700000000000195 8.99999999999999
vertex -21.925036817835952 -4.130598100774642 8.999999999999995
endloop
endfacet
facet normal 3.902725095001169e-17 -1.0031912173290432e-14 1.0
outer loop
vertex -28.799999999999997 -3.9000000000001904 8.999999999999984
vertex -21.925036817835952 -4.130598100774642 8.999999999999995
vertex -26.799999999999997 -3.9000000000001904 8.999999999999986
endloop
endfacet
facet normal -0.7071067811865478 -7.02616375260989e-15 0.7071067811865472
outer loop
vertex -30.557359312880713 -3.900000000000145 4.757359312880699
vertex -31.799999999999997 -9.40000000000013 3.8038475772933005
vertex -30.557359312880713 -9.400000000000146 4.757359312880645
endloop
endfacet
facet normal -0.5000000000000003 -8.605258021566447e-15 0.8660254037844385
outer loop
vertex -31.799999999999997 -9.40000000000013 3.8038475772933005
vertex -30.557359312880713 -3.900000000000145 4.757359312880699
vertex -31.799999999999997 -3.9000000000001283 3.803847577293354
endloop
endfacet
facet normal 0.4999999999999997 -8.605258021566451e-15 0.8660254037844389
outer loop
vertex -37.8 -9.40000000000013 3.803847577293298
vertex -39.04264068711928 -3.900000000000145 4.757359312880697
vertex -39.04264068711928 -9.400000000000146 4.757359312880642
endloop
endfacet
facet normal 0.7071067811865469 -7.0261637526099e-15 0.7071067811865481
outer loop
vertex -39.04264068711928 -3.900000000000145 4.757359312880697
vertex -37.8 -9.40000000000013 3.803847577293298
vertex -37.8 -3.9000000000001283 3.803847577293351
endloop
endfacet
facet normal -1.0 0.0 0.0
outer loop
vertex -56.8 -9.023892744153272e-14 1.973976537783528e-14
vertex -56.8 -9.400000000000185 8.999999999999927
vertex -56.8 -1.9175772081325702e-13 9.000000000000023
endloop
endfacet
facet normal -1.0 0.0 0.0
outer loop
vertex -56.8 -9.400000000000185 8.999999999999927
vertex -56.8 -9.023892744153272e-14 1.973976537783528e-14
vertex -56.8 -9.400000000000084 -6.485922909860164e-14
endloop
endfacet
facet normal -3.2559156549035645e-17 -1.0 -1.0337163911811259e-14
outer loop
vertex -56.8 -9.400000000000084 -6.485922909860164e-14
vertex -36.352914270615116 -9.400000000000123 3.20444504226552
vertex -56.8 -9.400000000000185 8.999999999999927
endloop
endfacet
facet normal -3.2559156549035645e-17 -1.0 -1.0337163911811259e-14
outer loop
vertex -36.352914270615116 -9.400000000000123 3.20444504226552
vertex -56.8 -9.400000000000084 -6.485922909860164e-14
vertex -12.799999999999999 -9.400000000000084 -5.357936316841005e-14
endloop
endfacet
facet normal -3.2559156549035645e-17 -1.0 -1.0337163911811259e-14
outer loop
vertex -56.8 -9.400000000000185 8.999999999999927
vertex -36.352914270615116 -9.400000000000123 3.20444504226552
vertex -37.8 -9.40000000000013 3.803847577293298
endloop
endfacet
facet normal -3.2559156549035645e-17 -1.0 -1.0337163911811259e-14
outer loop
vertex -56.8 -9.400000000000185 8.999999999999927
vertex -37.8 -9.40000000000013 3.803847577293298
vertex -39.04264068711928 -9.400000000000146 4.757359312880642
endloop
endfacet
facet normal -3.2559156549035645e-17 -1.0 -1.0337163911811259e-14
outer loop
vertex -56.8 -9.400000000000185 8.999999999999927
vertex -39.04264068711928 -9.400000000000146 4.757359312880642
vertex -39.99615242270663 -9.400000000000151 5.999999999999927
endloop
endfacet
facet normal -3.2559156549035645e-17 -1.0 -1.0337163911811259e-14
outer loop
vertex -56.8 -9.400000000000185 8.999999999999927
vertex -39.99615242270663 -9.400000000000151 5.999999999999927
vertex -40.59555495773441 -9.400000000000174 7.447085729384802
endloop
endfacet
facet normal -3.2559156549035645e-17 -1.0 -1.0337163911811259e-14
outer loop
vertex -56.8 -9.400000000000185 8.999999999999927
vertex -40.59555495773441 -9.400000000000174 7.447085729384802
vertex -40.8 -9.400000000000192 8.99999999999993
endloop
endfacet
facet normal -3.2559156549035645e-17 -1.0 -1.0337163911811259e-14
outer loop
vertex -36.352914270615116 -9.400000000000123 3.20444504226552
vertex -12.799999999999999 -9.400000000000084 -5.357936316841005e-14
vertex -34.8 -9.40000000000013 2.99999999999993
endloop
endfacet
facet normal -3.2559156549035645e-17 -1.0 -1.0337163911811259e-14
outer loop
vertex -34.8 -9.40000000000013 2.99999999999993
vertex -12.799999999999999 -9.400000000000084 -5.357936316841005e-14
vertex -33.24708572938487 -9.400000000000123 3.20444504226552
endloop
endfacet
facet normal -3.2559156549035645e-17 -1.0 -1.0337163911811259e-14
outer loop
vertex -33.24708572938487 -9.400000000000123 3.20444504226552
vertex -12.799999999999999 -9.400000000000084 -5.357936316841005e-14
vertex -31.799999999999997 -9.40000000000013 3.8038475772933005
endloop
endfacet
facet normal -3.2559156549035645e-17 -1.0 -1.0337163911811259e-14
outer loop
vertex -31.799999999999997 -9.40000000000013 3.8038475772933005
vertex -12.799999999999999 -9.400000000000084 -5.357936316841005e-14
vertex -30.557359312880713 -9.400000000000146 4.757359312880645
endloop
endfacet
facet normal -3.2559156549035645e-17 -1.0 -1.0337163911811259e-14
outer loop
vertex -30.557359312880713 -9.400000000000146 4.757359312880645
vertex -12.799999999999999 -9.400000000000084 -5.357936316841005e-14
vertex -29.60384757729337 -9.400000000000151 5.9999999999999325
endloop
endfacet
facet normal -3.2559156549035645e-17 -1.0 -1.0337163911811259e-14
outer loop
vertex -29.60384757729337 -9.400000000000151 5.9999999999999325
vertex -12.799999999999999 -9.400000000000084 -5.357936316841005e-14
vertex -29.004445042265587 -9.400000000000174 7.447085729384807
endloop
endfacet
facet normal -3.2559156549035645e-17 -1.0 -1.0337163911811259e-14
outer loop
vertex -29.004445042265587 -9.400000000000174 7.447085729384807
vertex -12.799999999999999 -9.400000000000084 -5.357936316841005e-14
vertex -28.799999999999997 -9.400000000000192 8.99999999999993
endloop
endfacet
facet normal -3.2559156549035645e-17 -1.0 -1.0337163911811259e-14
outer loop
vertex -28.799999999999997 -9.400000000000192 8.99999999999993
vertex -12.799999999999999 -9.400000000000084 -5.357936316841005e-14
vertex -12.799999999999999 -9.400000000000185 8.99999999999993
endloop
endfacet
facet normal -0.4999999999999999 -8.60525802156645e-15 0.8660254037844388
outer loop
vertex -30.8 -3.9000000000001114 2.0717967697244757
vertex -32.72944763917983 -1.127986593019159e-13 1.2725933896874775
vertex -32.72944763917983 -3.9000000000001114 1.2725933896874353
endloop
endfacet
facet normal -0.2588190451025207 -9.597918177214517e-15 0.9659258262890684
outer loop
vertex -32.72944763917983 -1.127986593019159e-13 1.2725933896874775
vertex -30.8 -3.9000000000001114 2.0717967697244757
vertex -30.8 -1.071587263368201e-13 2.071796769724515
endloop
endfacet
facet normal -9.802220885211571e-17 -9.936496070395151e-15 1.0
outer loop
vertex -34.8 -3.9000000000001283 2.999999999999983
vertex -36.352914270615116 -9.400000000000123 3.20444504226552
vertex -34.8 -9.40000000000013 2.99999999999993
endloop
endfacet
facet normal 0.2588190451025204 -9.597918177214519e-15 0.9659258262890685
outer loop
vertex -36.352914270615116 -9.400000000000123 3.20444504226552
vertex -34.8 -3.9000000000001283 2.999999999999983
vertex -36.352914270615116 -3.9000000000001225 3.204445042265574
endloop
endfacet
facet normal -9.534887588342187e-16 -1.0 -9.936496070395151e-15
outer loop
vertex -49.79999999999999 -2.500000000000097 1.973976537783528e-14
vertex -49.23059810077445 -2.5749631821642405 9.0
vertex -49.8 -2.500000000000187 9.0
endloop
endfacet
facet normal -0.25881904510252174 -0.9659258262890682 -9.597918177214515e-15
outer loop
vertex -49.23059810077445 -2.5749631821642405 9.0
vertex -49.79999999999999 -2.500000000000097 1.973976537783528e-14
vertex -49.23059810077444 -2.5749631821641503 1.973976537783528e-14
endloop
endfacet
facet normal 1.0 1.6931108801729119e-16 1.6823589607581415e-30
outer loop
vertex -51.99999999999999 -4.700000000000099 0.0
vertex -51.92503681783595 -4.130598100774642 8.999999999999991
vertex -51.99999999999999 -4.700000000000195 8.999999999999986
endloop
endfacet
facet normal 0.9659258262890686 -0.2588190451025201 -2.571754424604616e-15
outer loop
vertex -51.92503681783595 -4.130598100774642 8.999999999999991
vertex -51.99999999999999 -4.700000000000099 0.0
vertex -51.925036817835945 -4.130598100774552 5.639932965095795e-15
endloop
endfacet
facet normal 0.4999999999999999 -0.8660254037844388 -8.60525802156645e-15
outer loop
vertex -20.899999999999995 -2.794744111674335 0.0
vertex -21.3556349186104 -3.144365081389787 8.999999999999998
vertex -21.3556349186104 -3.144365081389697 -2.8199664825478975e-15
endloop
endfacet
facet normal 0.7071067811865459 -0.7071067811865492 -7.026163752609911e-15
outer loop
vertex -21.3556349186104 -3.144365081389787 8.999999999999998
vertex -20.899999999999995 -2.794744111674335 0.0
vertex -20.899999999999995 -2.794744111674425 9.0
endloop
endfacet
facet normal -0.8660254037844385 0.5000000000000006 4.968248035197581e-15
outer loop
vertex -17.89474411167423 -5.800000000000102 -2.8199664825478976e-14
vertex -18.244365081389596 -6.255634918610596 8.999999999999966
vertex -17.89474411167423 -5.800000000000193 8.999999999999972
endloop
endfacet
facet normal -0.707106781186547 0.7071067811865482 7.0261637526099004e-15
outer loop
vertex -18.244365081389596 -6.255634918610596 8.999999999999966
vertex -17.89474411167423 -5.800000000000102 -2.8199664825478976e-14
vertex -18.244365081389596 -6.255634918610506 -3.3839597790574766e-14
endloop
endfacet
facet normal 0.25881904510252085 -0.9659258262890684 -9.597918177214517e-15
outer loop
vertex -20.36940189922554 -2.5749631821641503 2.8199664825478975e-15
vertex -20.899999999999995 -2.794744111674425 9.0
vertex -20.899999999999995 -2.794744111674335 0.0
endloop
endfacet
facet normal 0.4999999999999999 -0.8660254037844388 -8.60525802156645e-15
outer loop
vertex -20.899999999999995 -2.794744111674425 9.0
vertex -20.36940189922554 -2.5749631821641503 2.8199664825478975e-15
vertex -20.36940189922554 -2.5749631821642405 9.000000000000004
endloop
endfacet
facet normal -8.911109895646904e-16 -1.0 -9.936496070395151e-15
outer loop
vertex -19.799999999999997 -2.500000000000097 2.8199664825478975e-15
vertex -20.36940189922554 -2.5749631821642405 9.000000000000004
vertex -20.36940189922554 -2.5749631821641503 2.8199664825478975e-15
endloop
endfacet
facet normal 0.25881904510252085 -0.9659258262890684 -9.597918177214517e-15
outer loop
vertex -20.36940189922554 -2.5749631821642405 9.000000000000004
vertex -19.799999999999997 -2.500000000000097 2.8199664825478975e-15
vertex -19.799999999999997 -2.500000000000187 9.000000000000004
endloop
endfacet
facet normal -0.2588190451025218 -0.9659258262890681 -9.597918177214514e-15
outer loop
vertex -19.23059810077445 -2.5749631821641503 2.8199664825478975e-15
vertex -19.799999999999997 -2.500000000000187 9.000000000000004
vertex -19.799999999999997 -2.500000000000097 2.8199664825478975e-15
endloop
endfacet
facet normal -8.911109895646904e-16 -1.0 -9.936496070395151e-15
outer loop
vertex -19.799999999999997 -2.500000000000187 9.000000000000004
vertex -19.23059810077445 -2.5749631821641503 2.8199664825478975e-15
vertex -19.23059810077445 -2.5749631821642405 9.000000000000004
endloop
endfacet
facet normal -7.77797725334716e-17 -1.0074836023330544e-14 1.0
outer loop
vertex -40.8 -9.400000000000192 8.99999999999993
vertex -49.23059810077445 -6.825036817836143 8.999999999999957
vertex -56.8 -9.400000000000185 8.999999999999927
endloop
endfacet
facet normal -7.77797725334716e-17 -1.0074836023330544e-14 1.0
outer loop
vertex -49.23059810077445 -6.825036817836143 8.999999999999957
vertex -40.8 -9.400000000000192 8.99999999999993
vertex -40.8 -3.9000000000001904 8.999999999999984
endloop
endfacet
facet normal -7.77797725334716e-17 -1.0074836023330544e-14 1.0
outer loop
vertex -56.8 -9.400000000000185 8.999999999999927
vertex -49.23059810077445 -6.825036817836143 8.999999999999957
vertex -49.8 -6.90000000000019 8.999999999999957
endloop
endfacet
facet normal -7.77797725334716e-17 -1.0074836023330544e-14 1.0
outer loop
vertex -49.23059810077445 -6.825036817836143 8.999999999999957
vertex -40.8 -3.9000000000001904 8.999999999999984
vertex -48.7 -6.605255888325958 8.999999999999961
endloop
endfacet
facet normal -7.77797725334716e-17 -1.0074836023330544e-14 1.0
outer loop
vertex -48.7 -6.605255888325958 8.999999999999961
vertex -40.8 -3.9000000000001904 8.999999999999984
vertex -48.244365081389596 -6.255634918610596 8.999999999999964
endloop
endfacet
facet normal -7.77797725334716e-17 -1.0074836023330544e-14 1.0
outer loop
vertex -48.244365081389596 -6.255634918610596 8.999999999999964
vertex -40.8 -3.9000000000001904 8.999999999999984
vertex -47.89474411167423 -5.800000000000193 8.99999999999997
endloop
endfacet
facet normal -7.77797725334716e-17 -1.0074836023330544e-14 1.0
outer loop
vertex -47.89474411167423 -5.800000000000193 8.99999999999997
vertex -40.8 -3.9000000000001904 8.999999999999984
vertex -47.67496318216404 -5.269401899225736 8.99999999999998
endloop
endfacet
facet normal -7.77797725334716e-17 -1.0074836023330544e-14 1.0
outer loop
vertex -47.67496318216404 -5.269401899225736 8.99999999999998
vertex -40.8 -3.9000000000001904 8.999999999999984
vertex -47.599999999999994 -4.700000000000195 8.999999999999986
endloop
endfacet
facet normal -7.77797725334716e-17 -1.0074836023330544e-14 1.0
outer loop
vertex -47.599999999999994 -4.700000000000195 8.999999999999986
vertex -40.8 -3.9000000000001904 8.999999999999984
vertex -47.67496318216404 -4.130598100774647 8.999999999999991
endloop
endfacet
facet normal -7.77797725334716e-17 -1.0074836023330544e-14 1.0
outer loop
vertex -47.67496318216404 -4.130598100774647 8.999999999999991
vertex -40.8 -3.9000000000001904 8.999999999999984
vertex -42.8 -3.9000000000001904 8.999999999999984
endloop
endfacet
facet normal -7.77797725334716e-17 -1.0074836023330544e-14 1.0
outer loop
vertex -47.67496318216404 -4.130598100774647 8.999999999999991
vertex -42.8 -3.9000000000001904 8.999999999999984
vertex -47.89474411167423 -3.6000000000001906 8.99999999999999
endloop
endfacet
facet normal -7.77797725334716e-17 -1.0074836023330544e-14 1.0
outer loop
vertex -47.89474411167423 -3.6000000000001906 8.99999999999999
vertex -42.8 -3.9000000000001904 8.999999999999984
vertex -42.8 -1.9175772081325702e-13 9.000000000000023
endloop
endfacet
facet normal -7.77797725334716e-17 -1.0074836023330544e-14 1.0
outer loop
vertex -47.89474411167423 -3.6000000000001906 8.99999999999999
vertex -42.8 -1.9175772081325702e-13 9.000000000000023
vertex -48.24436508138959 -3.144365081389787 8.999999999999995
endloop
endfacet
facet normal -7.77797725334716e-17 -1.0074836023330544e-14 1.0
outer loop
vertex -48.24436508138959 -3.144365081389787 8.999999999999995
vertex -42.8 -1.9175772081325702e-13 9.000000000000023
vertex -48.7 -2.794744111674425 8.999999999999998
endloop
endfacet
facet normal -7.77797725334716e-17 -1.0074836023330544e-14 1.0
outer loop
vertex -48.7 -2.794744111674425 8.999999999999998
vertex -42.8 -1.9175772081325702e-13 9.000000000000023
vertex -49.23059810077445 -2.5749631821642405 9.0
endloop
endfacet
facet normal -7.77797725334716e-17 -1.0074836023330544e-14 1.0
outer loop
vertex -49.23059810077445 -2.5749631821642405 9.0
vertex -42.8 -1.9175772081325702e-13 9.000000000000023
vertex -49.8 -2.500000000000187 9.0
endloop
endfacet
facet normal -7.77797725334716e-17 -1.0074836023330544e-14 1.0
outer loop
vertex -56.8 -9.400000000000185 8.999999999999927
vertex -51.3556349186104 -6.255634918610596 8.999999999999964
vertex -56.8 -1.9175772081325702e-13 9.000000000000023
endloop
endfacet
facet normal -7.77797725334716e-17 -1.0074836023330544e-14 1.0
outer loop
vertex -51.3556349186104 -6.255634918610596 8.999999999999964
vertex -56.8 -9.400000000000185 8.999999999999927
vertex -50.9 -6.605255888325958 8.999999999999961
endloop
endfacet
facet normal -7.77797725334716e-17 -1.0074836023330544e-14 1.0
outer loop
vertex -50.9 -6.605255888325958 8.999999999999961
vertex -56.8 -9.400000000000185 8.999999999999927
vertex -50.369401899225544 -6.825036817836143 8.999999999999957
endloop
endfacet
facet normal -7.77797725334716e-17 -1.0074836023330544e-14 1.0
outer loop
vertex -50.369401899225544 -6.825036817836143 8.999999999999957
vertex -56.8 -9.400000000000185 8.999999999999927
vertex -49.8 -6.90000000000019 8.999999999999957
endloop
endfacet
facet normal -7.77797725334716e-17 -1.0074836023330544e-14 1.0
outer loop
vertex -56.8 -1.9175772081325702e-13 9.000000000000023
vertex -51.3556349186104 -6.255634918610596 8.999999999999964
vertex -51.705255888325766 -5.800000000000193 8.99999999999997
endloop
endfacet
facet normal -7.77797725334716e-17 -1.0074836023330544e-14 1.0
outer loop
vertex -56.8 -1.9175772081325702e-13 9.000000000000023
vertex -51.705255888325766 -5.800000000000193 8.99999999999997
vertex -51.92503681783595 -5.269401899225736 8.99999999999998
endloop
endfacet
facet normal -7.77797725334716e-17 -1.0074836023330544e-14 1.0
outer loop
vertex -56.8 -1.9175772081325702e-13 9.000000000000023
vertex -51.92503681783595 -5.269401899225736 8.99999999999998
vertex -51.99999999999999 -4.700000000000195 8.999999999999986
endloop
endfacet
facet normal -7.77797725334716e-17 -1.0074836023330544e-14 1.0
outer loop
vertex -56.8 -1.9175772081325702e-13 9.000000000000023
vertex -51.99999999999999 -4.700000000000195 8.999999999999986
vertex -51.92503681783595 -4.130598100774642 8.999999999999991
endloop
endfacet
facet normal -7.77797725334716e-17 -1.0074836023330544e-14 1.0
outer loop
vertex -56.8 -1.9175772081325702e-13 9.000000000000023
vertex -51.92503681783595 -4.130598100774642 8.999999999999991
vertex -51.705255888325766 -3.6000000000001906 8.99999999999999
endloop
endfacet
facet normal -7.77797725334716e-17 -1.0074836023330544e-14 1.0
outer loop
vertex -56.8 -1.9175772081325702e-13 9.000000000000023
vertex -51.705255888325766 -3.6000000000001906 8.99999999999999
vertex -51.3556349186104 -3.144365081389787 8.999999999999995
endloop
endfacet
facet normal -7.77797725334716e-17 -1.0074836023330544e-14 1.0
outer loop
vertex -56.8 -1.9175772081325702e-13 9.000000000000023
vertex -51.3556349186104 -3.144365081389787 8.999999999999995
vertex -50.9 -2.794744111674425 8.999999999999998
endloop
endfacet
facet normal -7.77797725334716e-17 -1.0074836023330544e-14 1.0
outer loop
vertex -56.8 -1.9175772081325702e-13 9.000000000000023
vertex -50.9 -2.794744111674425 8.999999999999998
vertex -50.36940189922554 -2.5749631821642405 9.0
endloop
endfacet
facet normal -7.77797725334716e-17 -1.0074836023330544e-14 1.0
outer loop
vertex -56.8 -1.9175772081325702e-13 9.000000000000023
vertex -50.36940189922554 -2.5749631821642405 9.0
vertex -49.8 -2.500000000000187 9.0
endloop
endfacet
facet normal -7.77797725334716e-17 -1.0074836023330544e-14 1.0
outer loop
vertex -56.8 -1.9175772081325702e-13 9.000000000000023
vertex -49.8 -2.500000000000187 9.0
vertex -42.8 -1.9175772081325702e-13 9.000000000000023
endloop
endfacet
facet normal 0.7071067811865472 0.7071067811865478 7.026163752609896e-15
outer loop
vertex -21.3556349186104 -6.255634918610506 -3.3839597790574766e-14
vertex -21.705255888325766 -5.800000000000193 8.999999999999972
vertex -21.3556349186104 -6.255634918610596 8.999999999999966
endloop
endfacet
facet normal 0.8660254037844387 0.5000000000000001 4.968248035197576e-15
outer loop
vertex -21.705255888325766 -5.800000000000193 8.999999999999972
vertex -21.3556349186104 -6.255634918610506 -3.3839597790574766e-14
vertex -21.705255888325766 -5.800000000000102 -2.8199664825478976e-14
endloop
endfacet
facet normal 0.8660254037844387 0.5000000000000001 4.968248035197576e-15
outer loop
vertex -21.705255888325766 -5.800000000000193 8.999999999999972
vertex -21.925036817835952 -5.269401899225645 -2.255973186038318e-14
vertex -21.925036817835952 -5.269401899225736 8.999999999999984
endloop
endfacet
facet normal 0.9659258262890684 0.2588190451025205 2.5717544246046206e-15
outer loop
vertex -21.925036817835952 -5.269401899225645 -2.255973186038318e-14
vertex -21.705255888325766 -5.800000000000193 8.999999999999972
vertex -21.705255888325766 -5.800000000000102 -2.8199664825478976e-14
endloop
endfacet
facet normal -0.5000000000000007 0.8660254037844383 8.605258021566445e-15
outer loop
vertex -18.7 -6.605255888325958 8.999999999999964
vertex -19.23059810077445 -6.825036817836053 -3.947953075567056e-14
vertex -19.23059810077445 -6.825036817836143 8.999999999999961
endloop
endfacet
facet normal -0.2588190451025209 0.9659258262890684 9.597918177214517e-15
outer loop
vertex -19.23059810077445 -6.825036817836053 -3.947953075567056e-14
vertex -18.7 -6.605255888325958 8.999999999999964
vertex -18.7 -6.6052558883258685 -3.665956427312267e-14
endloop
endfacet
facet normal -0.2588190451025209 0.9659258262890684 9.597918177214517e-15
outer loop
vertex -19.23059810077445 -6.825036817836143 8.999999999999961
vertex -19.799999999999997 -6.9000000000001 -3.947953075567056e-14
vertex -19.799999999999997 -6.90000000000019 8.999999999999961
endloop
endfacet
facet normal 2.940666265563479e-16 1.0 9.936496070395151e-15
outer loop
vertex -19.799999999999997 -6.9000000000001 -3.947953075567056e-14
vertex -19.23059810077445 -6.825036817836143 8.999999999999961
vertex -19.23059810077445 -6.825036817836053 -3.947953075567056e-14
endloop
endfacet
facet normal 2.940666265563479e-16 1.0 9.936496070395151e-15
outer loop
vertex -19.799999999999997 -6.90000000000019 8.999999999999961
vertex -20.369401899225544 -6.825036817836053 -3.947953075567056e-14
vertex -20.369401899225544 -6.825036817836143 8.999999999999961
endloop
endfacet
facet normal 0.2588190451025209 0.9659258262890684 9.597918177214517e-15
outer loop
vertex -20.369401899225544 -6.825036817836053 -3.947953075567056e-14
vertex -19.799999999999997 -6.90000000000019 8.999999999999961
vertex -19.799999999999997 -6.9000000000001 -3.947953075567056e-14
endloop
endfacet
facet normal -0.7071067811865472 -7.026163752609896e-15 0.7071067811865478
outer loop
vertex -29.14314575050762 -1.3535839116229907e-13 3.343145750507643
vertex -30.8 -3.9000000000001114 2.0717967697244757
vertex -29.14314575050762 -3.900000000000134 3.3431457505076003
endloop
endfacet
facet normal -0.4999999999999999 -8.60525802156645e-15 0.8660254037844388
outer loop
vertex -30.8 -3.9000000000001114 2.0717967697244757
vertex -29.14314575050762 -1.3535839116229907e-13 3.343145750507643
vertex -30.8 -1.071587263368201e-13 2.071796769724515
endloop
endfacet
facet normal 3.297110661389343e-16 -9.936496070395151e-15 1.0
outer loop
vertex -34.8 -3.9000000000000945 0.9999999999999869
vertex -36.87055236082016 -1.127986593019159e-13 1.2725933896874804
vertex -36.87055236082016 -3.9000000000001114 1.2725933896874408
endloop
endfacet
facet normal 0.2588190451025208 -9.597918177214517e-15 0.9659258262890684
outer loop
vertex -36.87055236082016 -1.127986593019159e-13 1.2725933896874804
vertex -34.8 -3.9000000000000945 0.9999999999999869
vertex -34.8 -9.587886040662851e-14 1.0000000000000264
endloop
endfacet
facet normal -0.4999999999999999 -0.8660254037844388 -8.60525802156645e-15
outer loop
vertex -18.7 -2.794744111674335 0.0
vertex -19.23059810077445 -2.5749631821642405 9.000000000000004
vertex -19.23059810077445 -2.5749631821641503 2.8199664825478975e-15
endloop
endfacet
facet normal -0.2588190451025218 -0.9659258262890681 -9.597918177214514e-15
outer loop
vertex -19.23059810077445 -2.5749631821642405 9.000000000000004
vertex -18.7 -2.794744111674335 0.0
vertex -18.7 -2.794744111674425 9.0
endloop
endfacet
facet normal -0.7071067811865475 -0.7071067811865476 -7.026163752609894e-15
outer loop
vertex -18.24436508138959 -3.144365081389697 -2.8199664825478975e-15
vertex -18.7 -2.794744111674425 9.0
vertex -18.7 -2.794744111674335 0.0
endloop
endfacet
facet normal -0.4999999999999999 -0.8660254037844388 -8.60525802156645e-15
outer loop
vertex -18.7 -2.794744111674425 9.0
vertex -18.24436508138959 -3.144365081389697 -2.8199664825478975e-15
vertex -18.24436508138959 -3.144365081389787 8.999999999999998
endloop
endfacet
facet normal -0.7071067811865475 -0.7071067811865476 -7.026163752609894e-15
outer loop
vertex -18.24436508138959 -3.144365081389697 -2.8199664825478975e-15
vertex -17.89474411167423 -3.6000000000001906 8.999999999999991
vertex -18.24436508138959 -3.144365081389787 8.999999999999998
endloop
endfacet
facet normal -0.8660254037844396 -0.49999999999999845 -4.96824803519756e-15
outer loop
vertex -17.89474411167423 -3.6000000000001906 8.999999999999991
vertex -18.24436508138959 -3.144365081389697 -2.8199664825478975e-15
vertex -17.89474411167423 -3.6000000000001005 -8.459899447643692e-15
endloop
endfacet
facet normal -0.8660254037844396 -0.49999999999999845 -4.96824803519756e-15
outer loop
vertex -17.89474411167423 -3.6000000000001906 8.999999999999991
vertex -17.674963182164042 -4.130598100774558 -1.127986593019159e-14
vertex -17.674963182164042 -4.130598100774647 8.999999999999995
endloop
endfacet
facet normal -0.9659258262890684 -0.25881904510252063 -2.5717544246046218e-15
outer loop
vertex -17.674963182164042 -4.130598100774558 -1.127986593019159e-14
vertex -17.89474411167423 -3.6000000000001906 8.999999999999991
vertex -17.89474411167423 -3.6000000000001005 -8.459899447643692e-15
endloop
endfacet
facet normal -0.9659258262890684 -0.25881904510252063 -2.5717544246046218e-15
outer loop
vertex -17.674963182164042 -4.130598100774558 -1.127986593019159e-14
vertex -17.599999999999994 -4.700000000000195 8.99999999999999
vertex -17.674963182164042 -4.130598100774647 8.999999999999995
endloop
endfacet
facet normal -1.0 -1.603999781216443e-16 -1.5938137522971867e-30
outer loop
vertex -17.599999999999994 -4.700000000000195 8.99999999999999
vertex -17.674963182164042 -4.130598100774558 -1.127986593019159e-14
vertex -17.599999999999994 -4.700000000000104 -1.6919798895287383e-14
endloop
endfacet
facet normal 0.5000000000000007 0.8660254037844383 8.605258021566445e-15
outer loop
vertex -20.899999999999995 -6.605255888325958 8.999999999999964
vertex -21.3556349186104 -6.255634918610506 -3.3839597790574766e-14
vertex -21.3556349186104 -6.255634918610596 8.999999999999966
endloop
endfacet
facet normal 0.7071067811865472 0.7071067811865478 7.026163752609896e-15
outer loop
vertex -21.3556349186104 -6.255634918610506 -3.3839597790574766e-14
vertex -20.899999999999995 -6.605255888325958 8.999999999999964
vertex -20.899999999999995 -6.6052558883258685 -3.665956427312267e-14
endloop
endfacet
facet normal -0.2588190451025219 -0.9659258262890681 -9.597918177214514e-15
outer loop
vertex -49.23059810077444 -2.5749631821641503 1.973976537783528e-14
vertex -48.7 -2.794744111674425 8.999999999999998
vertex -49.23059810077445 -2.5749631821642405 9.0
endloop
endfacet
facet normal -0.4999999999999998 -0.8660254037844389 -8.605258021566451e-15
outer loop
vertex -48.7 -2.794744111674425 8.999999999999998
vertex -49.23059810077444 -2.5749631821641503 1.973976537783528e-14
vertex -48.69999999999999 -2.794744111674335 1.6919798895287383e-14
endloop
endfacet
facet normal -0.7071067811865478 -7.02616375260989e-15 0.7071067811865472
outer loop
vertex -30.557359312880713 -3.900000000000145 4.757359312880699
vertex -29.60384757729337 -9.400000000000151 5.9999999999999325
vertex -29.60384757729337 -3.9000000000001562 5.999999999999986
endloop
endfacet
facet normal -0.8660254037844387 -4.9682480351975755e-15 0.5
outer loop
vertex -29.60384757729337 -9.400000000000151 5.9999999999999325
vertex -30.557359312880713 -3.900000000000145 4.757359312880699
vertex -30.557359312880713 -9.400000000000146 4.757359312880645
endloop
endfacet
facet normal 0.2588190451025209 0.9659258262890682 9.597918177214515e-15
outer loop
vertex -50.369401899225544 -6.825036817836143 8.999999999999957
vertex -50.9 -6.6052558883258685 -1.973976537783528e-14
vertex -50.9 -6.605255888325958 8.999999999999961
endloop
endfacet
facet normal 0.5000000000000007 0.8660254037844383 8.605258021566445e-15
outer loop
vertex -50.9 -6.6052558883258685 -1.973976537783528e-14
vertex -50.369401899225544 -6.825036817836143 8.999999999999957
vertex -50.36940189922554 -6.825036817836053 -2.255973186038318e-14
endloop
endfacet
facet normal -0.7071067811865475 -0.7071067811865477 -7.026163752609895e-15
outer loop
vertex -48.24436508138959 -3.144365081389697 1.4099832412739488e-14
vertex -47.89474411167423 -3.6000000000001906 8.99999999999999
vertex -48.24436508138959 -3.144365081389787 8.999999999999995
endloop
endfacet
facet normal -0.8660254037844396 -0.49999999999999845 -4.96824803519756e-15
outer loop
vertex -47.89474411167423 -3.6000000000001906 8.99999999999999
vertex -48.24436508138959 -3.144365081389697 1.4099832412739488e-14
vertex -47.89474411167423 -3.6000000000001005 8.459899447643692e-15
endloop
endfacet
facet normal 0.7071067811865476 -7.026163752609894e-15 0.7071067811865476
outer loop
vertex -40.45685424949237 -3.900000000000134 3.3431457505076003
vertex -41.728203230275504 -1.5227819005758646e-13 5.000000000000025
vertex -41.728203230275504 -3.900000000000151 4.999999999999985
endloop
endfacet
facet normal 0.8660254037844387 -4.9682480351975755e-15 0.5
outer loop
vertex -41.728203230275504 -1.5227819005758646e-13 5.000000000000025
vertex -40.45685424949237 -3.900000000000134 3.3431457505076003
vertex -40.45685424949237 -1.3535839116229907e-13 3.343145750507643
endloop
endfacet
facet normal 1.0 0.0 0.0
outer loop
vertex -12.799999999999999 -9.400000000000084 -5.357936316841005e-14
vertex -12.799999999999999 -1.9175772081325702e-13 9.000000000000023
vertex -12.799999999999999 -9.400000000000185 8.99999999999993
endloop
endfacet
facet normal 1.0 0.0 0.0
outer loop
vertex -12.799999999999999 -1.9175772081325702e-13 9.000000000000023
vertex -12.799999999999999 -9.400000000000084 -5.357936316841005e-14
vertex -12.799999999999999 -9.023892744153272e-14 2.8199664825478975e-15
endloop
endfacet
facet normal 0.8660254037844382 -0.500000000000001 -4.968248035197586e-15
outer loop
vertex -21.705255888325766 -3.6000000000001005 -8.459899447643692e-15
vertex -21.3556349186104 -3.144365081389787 8.999999999999998
vertex -21.705255888325766 -3.6000000000001906 8.999999999999991
endloop
endfacet
facet normal 0.7071067811865459 -0.7071067811865492 -7.026163752609911e-15
outer loop
vertex -21.3556349186104 -3.144365081389787 8.999999999999998
vertex -21.705255888325766 -3.6000000000001005 -8.459899447643692e-15
vertex -21.3556349186104 -3.144365081389697 -2.8199664825478975e-15
endloop
endfacet
facet normal -0.9659258262890683 -2.5717544246046206e-15 0.2588190451025205
outer loop
vertex -27.07259338968745 -1.6919798895287386e-13 6.929447639179858
vertex -26.799999999999997 -3.9000000000001904 8.999999999999986
vertex -26.799999999999997 -1.9175772081325702e-13 9.000000000000027
endloop
endfacet
facet normal -0.9914448613738105 -1.296972996078186e-15 0.1305261922200517
outer loop
vertex -26.799999999999997 -3.9000000000001904 8.999999999999986
vertex -27.07259338968745 -1.6919798895287386e-13 6.929447639179858
vertex -27.07259338968745 -3.9000000000001678 6.929447639179818
endloop
endfacet
facet normal 0.49999999999999994 -8.60525802156645e-15 0.8660254037844388
outer loop
vertex -38.8 -3.9000000000001114 2.0717967697244757
vertex -40.45685424949237 -1.3535839116229907e-13 3.343145750507643
vertex -40.45685424949237 -3.900000000000134 3.3431457505076003
endloop
endfacet
facet normal 0.7071067811865474 -7.026163752609896e-15 0.7071067811865478
outer loop
vertex -40.45685424949237 -1.3535839116229907e-13 3.343145750507643
vertex -38.8 -3.9000000000001114 2.0717967697244757
vertex -38.8 -1.071587263368201e-13 2.071796769724515
endloop
endfacet
facet normal -6.409014733063406e-17 7.499910857840159e-15 -1.0
outer loop
vertex -56.8 -9.400000000000084 -6.485922909860164e-14
vertex -49.79999999999999 -6.9000000000001 -2.255973186038318e-14
vertex -12.799999999999999 -9.400000000000084 -5.357936316841005e-14
endloop
endfacet
facet normal -6.409014733063406e-17 7.499910857840159e-15 -1.0
outer loop
vertex -49.79999999999999 -6.9000000000001 -2.255973186038318e-14
vertex -56.8 -9.400000000000084 -6.485922909860164e-14
vertex -50.36940189922554 -6.825036817836053 -2.255973186038318e-14
endloop
endfacet
facet normal -6.409014733063406e-17 7.499910857840159e-15 -1.0
outer loop
vertex -50.36940189922554 -6.825036817836053 -2.255973186038318e-14
vertex -56.8 -9.400000000000084 -6.485922909860164e-14
vertex -50.9 -6.6052558883258685 -1.973976537783528e-14
endloop
endfacet
facet normal -6.409014733063406e-17 7.499910857840159e-15 -1.0
outer loop
vertex -50.9 -6.6052558883258685 -1.973976537783528e-14
vertex -56.8 -9.400000000000084 -6.485922909860164e-14
vertex -51.3556349186104 -6.255634918610506 -1.6919798895287383e-14
endloop
endfacet
facet normal -6.409014733063406e-17 7.499910857840159e-15 -1.0
outer loop
vertex -51.3556349186104 -6.255634918610506 -1.6919798895287383e-14
vertex -56.8 -9.400000000000084 -6.485922909860164e-14
vertex -56.8 -9.023892744153272e-14 1.973976537783528e-14
endloop
endfacet
facet normal -6.409014733063406e-17 7.499910857840159e-15 -1.0
outer loop
vertex -51.3556349186104 -6.255634918610506 -1.6919798895287383e-14
vertex -56.8 -9.023892744153272e-14 1.973976537783528e-14
vertex -51.70525588832576 -5.800000000000102 -1.127986593019159e-14
endloop
endfacet
facet normal -6.409014733063406e-17 7.499910857840159e-15 -1.0
outer loop
vertex -51.70525588832576 -5.800000000000102 -1.127986593019159e-14
vertex -56.8 -9.023892744153272e-14 1.973976537783528e-14
vertex -51.925036817835945 -5.269401899225645 -5.639932965095795e-15
endloop
endfacet
facet normal -6.409014733063406e-17 7.499910857840159e-15 -1.0
outer loop
vertex -51.925036817835945 -5.269401899225645 -5.639932965095795e-15
vertex -56.8 -9.023892744153272e-14 1.973976537783528e-14
vertex -51.99999999999999 -4.700000000000099 0.0
endloop
endfacet
facet normal -6.409014733063406e-17 7.499910857840159e-15 -1.0
outer loop
vertex -51.99999999999999 -4.700000000000099 0.0
vertex -56.8 -9.023892744153272e-14 1.973976537783528e-14
vertex -51.925036817835945 -4.130598100774552 5.639932965095795e-15
endloop
endfacet
facet normal -6.409014733063406e-17 7.499910857840159e-15 -1.0
outer loop
vertex -51.925036817835945 -4.130598100774552 5.639932965095795e-15
vertex -56.8 -9.023892744153272e-14 1.973976537783528e-14
vertex -51.70525588832576 -3.600000000000095 8.459899447643692e-15
endloop
endfacet
facet normal -6.409014733063406e-17 7.499910857840159e-15 -1.0
outer loop
vertex -51.70525588832576 -3.600000000000095 8.459899447643692e-15
vertex -56.8 -9.023892744153272e-14 1.973976537783528e-14
vertex -51.3556349186104 -3.144365081389691 1.4099832412739488e-14
endloop
endfacet
facet normal -6.409014733063406e-17 7.499910857840159e-15 -1.0
outer loop
vertex -51.3556349186104 -3.144365081389691 1.4099832412739488e-14
vertex -56.8 -9.023892744153272e-14 1.973976537783528e-14
vertex -50.9 -2.794744111674335 1.6919798895287383e-14
endloop
endfacet
facet normal -6.409014733063406e-17 7.499910857840159e-15 -1.0
outer loop
vertex -50.9 -2.794744111674335 1.6919798895287383e-14
vertex -56.8 -9.023892744153272e-14 1.973976537783528e-14
vertex -50.36940189922554 -2.5749631821641503 1.973976537783528e-14
endloop
endfacet
facet normal -6.409014733063406e-17 7.499910857840159e-15 -1.0
outer loop
vertex -50.36940189922554 -2.5749631821641503 1.973976537783528e-14
vertex -56.8 -9.023892744153272e-14 1.973976537783528e-14
vertex -49.79999999999999 -2.500000000000097 1.973976537783528e-14
endloop
endfacet
facet normal -6.409014733063406e-17 7.499910857840159e-15 -1.0
outer loop
vertex -49.79999999999999 -2.500000000000097 1.973976537783528e-14
vertex -56.8 -9.023892744153272e-14 1.973976537783528e-14
vertex -19.799999999999997 -2.500000000000097 2.8199664825478975e-15
endloop
endfacet
facet normal -6.409014733063406e-17 7.499910857840159e-15 -1.0
outer loop
vertex -12.799999999999999 -9.400000000000084 -5.357936316841005e-14
vertex -18.244365081389596 -6.255634918610506 -3.3839597790574766e-14
vertex -12.799999999999999 -9.023892744153272e-14 2.8199664825478975e-15
endloop
endfacet
facet normal -6.409014733063406e-17 7.499910857840159e-15 -1.0
outer loop
vertex -18.244365081389596 -6.255634918610506 -3.3839597790574766e-14
vertex -12.799999999999999 -9.400000000000084 -5.357936316841005e-14
vertex -18.7 -6.6052558883258685 -3.665956427312267e-14
endloop
endfacet
facet normal -6.409014733063406e-17 7.499910857840159e-15 -1.0
outer loop
vertex -18.7 -6.6052558883258685 -3.665956427312267e-14
vertex -12.799999999999999 -9.400000000000084 -5.357936316841005e-14
vertex -19.23059810077445 -6.825036817836053 -3.947953075567056e-14
endloop
endfacet
facet normal -6.409014733063406e-17 7.499910857840159e-15 -1.0
outer loop
vertex -19.23059810077445 -6.825036817836053 -3.947953075567056e-14
vertex -12.799999999999999 -9.400000000000084 -5.357936316841005e-14
vertex -19.799999999999997 -6.9000000000001 -3.947953075567056e-14
endloop
endfacet
facet normal -6.409014733063406e-17 7.499910857840159e-15 -1.0
outer loop
vertex -19.799999999999997 -6.9000000000001 -3.947953075567056e-14
vertex -12.799999999999999 -9.400000000000084 -5.357936316841005e-14
vertex -49.79999999999999 -6.9000000000001 -2.255973186038318e-14
endloop
endfacet
facet normal -6.409014733063406e-17 7.499910857840159e-15 -1.0
outer loop
vertex -12.799999999999999 -9.023892744153272e-14 2.8199664825478975e-15
vertex -18.244365081389596 -6.255634918610506 -3.3839597790574766e-14
vertex -17.89474411167423 -5.800000000000102 -2.8199664825478976e-14
endloop
endfacet
facet normal -6.409014733063406e-17 7.499910857840159e-15 -1.0
outer loop
vertex -12.799999999999999 -9.023892744153272e-14 2.8199664825478975e-15
vertex -17.89474411167423 -5.800000000000102 -2.8199664825478976e-14
vertex -17.674963182164042 -5.269401899225645 -2.255973186038318e-14
endloop
endfacet
facet normal -6.409014733063406e-17 7.499910857840159e-15 -1.0
outer loop
vertex -12.799999999999999 -9.023892744153272e-14 2.8199664825478975e-15
vertex -17.674963182164042 -5.269401899225645 -2.255973186038318e-14
vertex -17.599999999999994 -4.700000000000104 -1.6919798895287383e-14
endloop
endfacet
facet normal -6.409014733063406e-17 7.499910857840159e-15 -1.0
outer loop
vertex -12.799999999999999 -9.023892744153272e-14 2.8199664825478975e-15
vertex -17.599999999999994 -4.700000000000104 -1.6919798895287383e-14
vertex -17.674963182164042 -4.130598100774558 -1.127986593019159e-14
endloop
endfacet
facet normal -6.409014733063406e-17 7.499910857840159e-15 -1.0
outer loop
vertex -12.799999999999999 -9.023892744153272e-14 2.8199664825478975e-15
vertex -17.674963182164042 -4.130598100774558 -1.127986593019159e-14
vertex -17.89474411167423 -3.6000000000001005 -8.459899447643692e-15
endloop
endfacet
facet normal -6.409014733063406e-17 7.499910857840159e-15 -1.0
outer loop
vertex -12.799999999999999 -9.023892744153272e-14 2.8199664825478975e-15
vertex -17.89474411167423 -3.6000000000001005 -8.459899447643692e-15
vertex -18.24436508138959 -3.144365081389697 -2.8199664825478975e-15
endloop
endfacet
facet normal -6.409014733063406e-17 7.499910857840159e-15 -1.0
outer loop
vertex -12.799999999999999 -9.023892744153272e-14 2.8199664825478975e-15
vertex -18.24436508138959 -3.144365081389697 -2.8199664825478975e-15
vertex -18.7 -2.794744111674335 0.0
endloop
endfacet
facet normal -6.409014733063406e-17 7.499910857840159e-15 -1.0
outer loop
vertex -12.799999999999999 -9.023892744153272e-14 2.8199664825478975e-15
vertex -18.7 -2.794744111674335 0.0
vertex -19.23059810077445 -2.5749631821641503 2.8199664825478975e-15
endloop
endfacet
facet normal -6.409014733063406e-17 7.499910857840159e-15 -1.0
outer loop
vertex -12.799999999999999 -9.023892744153272e-14 2.8199664825478975e-15
vertex -19.23059810077445 -2.5749631821641503 2.8199664825478975e-15
vertex -19.799999999999997 -2.500000000000097 2.8199664825478975e-15
endloop
endfacet
facet normal -6.409014733063406e-17 7.499910857840159e-15 -1.0
outer loop
vertex -12.799999999999999 -9.023892744153272e-14 2.8199664825478975e-15
vertex -19.799999999999997 -2.500000000000097 2.8199664825478975e-15
vertex -56.8 -9.023892744153272e-14 1.973976537783528e-14
endloop
endfacet
facet normal -6.409014733063406e-17 7.499910857840159e-15 -1.0
outer loop
vertex -49.23059810077444 -6.825036817836053 -2.255973186038318e-14
vertex -19.799999999999997 -6.9000000000001 -3.947953075567056e-14
vertex -49.79999999999999 -6.9000000000001 -2.255973186038318e-14
endloop
endfacet
facet normal -6.409014733063406e-17 7.499910857840159e-15 -1.0
outer loop
vertex -19.799999999999997 -6.9000000000001 -3.947953075567056e-14
vertex -49.23059810077444 -6.825036817836053 -2.255973186038318e-14
vertex -20.369401899225544 -6.825036817836053 -3.947953075567056e-14
endloop
endfacet
facet normal -6.409014733063406e-17 7.499910857840159e-15 -1.0
outer loop
vertex -20.369401899225544 -6.825036817836053 -3.947953075567056e-14
vertex -49.23059810077444 -6.825036817836053 -2.255973186038318e-14
vertex -48.69999999999999 -6.6052558883258685 -1.973976537783528e-14
endloop
endfacet
facet normal -6.409014733063406e-17 7.499910857840159e-15 -1.0
outer loop
vertex -20.369401899225544 -6.825036817836053 -3.947953075567056e-14
vertex -48.69999999999999 -6.6052558883258685 -1.973976537783528e-14
vertex -20.899999999999995 -6.6052558883258685 -3.665956427312267e-14
endloop
endfacet
facet normal -6.409014733063406e-17 7.499910857840159e-15 -1.0
outer loop
vertex -20.899999999999995 -6.6052558883258685 -3.665956427312267e-14
vertex -48.69999999999999 -6.6052558883258685 -1.973976537783528e-14
vertex -48.24436508138959 -6.255634918610506 -1.6919798895287383e-14
endloop
endfacet
facet normal -6.409014733063406e-17 7.499910857840159e-15 -1.0
outer loop
vertex -20.899999999999995 -6.6052558883258685 -3.665956427312267e-14
vertex -48.24436508138959 -6.255634918610506 -1.6919798895287383e-14
vertex -21.3556349186104 -6.255634918610506 -3.3839597790574766e-14
endloop
endfacet
facet normal -6.409014733063406e-17 7.499910857840159e-15 -1.0
outer loop
vertex -21.3556349186104 -6.255634918610506 -3.3839597790574766e-14
vertex -48.24436508138959 -6.255634918610506 -1.6919798895287383e-14
vertex -47.89474411167423 -5.800000000000102 -1.127986593019159e-14
endloop
endfacet
facet normal -6.409014733063406e-17 7.499910857840159e-15 -1.0
outer loop
vertex -21.3556349186104 -6.255634918610506 -3.3839597790574766e-14
vertex -47.89474411167423 -5.800000000000102 -1.127986593019159e-14
vertex -21.705255888325766 -5.800000000000102 -2.8199664825478976e-14
endloop
endfacet
facet normal -6.409014733063406e-17 7.499910857840159e-15 -1.0
outer loop
vertex -21.705255888325766 -5.800000000000102 -2.8199664825478976e-14
vertex -47.89474411167423 -5.800000000000102 -1.127986593019159e-14
vertex -47.67496318216404 -5.269401899225645 -5.639932965095795e-15
endloop
endfacet
facet normal -6.409014733063406e-17 7.499910857840159e-15 -1.0
outer loop
vertex -21.705255888325766 -5.800000000000102 -2.8199664825478976e-14
vertex -47.67496318216404 -5.269401899225645 -5.639932965095795e-15
vertex -21.925036817835952 -5.269401899225645 -2.255973186038318e-14
endloop
endfacet
facet normal -6.409014733063406e-17 7.499910857840159e-15 -1.0
outer loop
vertex -21.925036817835952 -5.269401899225645 -2.255973186038318e-14
vertex -47.67496318216404 -5.269401899225645 -5.639932965095795e-15
vertex -47.599999999999994 -4.700000000000099 0.0
endloop
endfacet
facet normal -6.409014733063406e-17 7.499910857840159e-15 -1.0
outer loop
vertex -21.925036817835952 -5.269401899225645 -2.255973186038318e-14
vertex -47.599999999999994 -4.700000000000099 0.0
vertex -22.0 -4.700000000000104 -1.6919798895287383e-14
endloop
endfacet
facet normal -6.409014733063406e-17 7.499910857840159e-15 -1.0
outer loop
vertex -22.0 -4.700000000000104 -1.6919798895287383e-14
vertex -47.599999999999994 -4.700000000000099 0.0
vertex -21.925036817835952 -4.130598100774552 -1.127986593019159e-14
endloop
endfacet
facet normal -6.409014733063406e-17 7.499910857840159e-15 -1.0
outer loop
vertex -21.925036817835952 -4.130598100774552 -1.127986593019159e-14
vertex -47.599999999999994 -4.700000000000099 0.0
vertex -47.67496318216404 -4.130598100774552 5.639932965095795e-15
endloop
endfacet
facet normal -6.409014733063406e-17 7.499910857840159e-15 -1.0
outer loop
vertex -21.925036817835952 -4.130598100774552 -1.127986593019159e-14
vertex -47.67496318216404 -4.130598100774552 5.639932965095795e-15
vertex -47.89474411167423 -3.6000000000001005 8.459899447643692e-15
endloop
endfacet
facet normal -6.409014733063406e-17 7.499910857840159e-15 -1.0
outer loop
vertex -21.925036817835952 -4.130598100774552 -1.127986593019159e-14
vertex -47.89474411167423 -3.6000000000001005 8.459899447643692e-15
vertex -21.705255888325766 -3.6000000000001005 -8.459899447643692e-15
endloop
endfacet
facet normal -6.409014733063406e-17 7.499910857840159e-15 -1.0
outer loop
vertex -21.705255888325766 -3.6000000000001005 -8.459899447643692e-15
vertex -47.89474411167423 -3.6000000000001005 8.459899447643692e-15
vertex -48.24436508138959 -3.144365081389697 1.4099832412739488e-14
endloop
endfacet
facet normal -6.409014733063406e-17 7.499910857840159e-15 -1.0
outer loop
vertex -21.705255888325766 -3.6000000000001005 -8.459899447643692e-15
vertex -48.24436508138959 -3.144365081389697 1.4099832412739488e-14
vertex -21.3556349186104 -3.144365081389697 -2.8199664825478975e-15
endloop
endfacet
facet normal -6.409014733063406e-17 7.499910857840159e-15 -1.0
outer loop
vertex -21.3556349186104 -3.144365081389697 -2.8199664825478975e-15
vertex -48.24436508138959 -3.144365081389697 1.4099832412739488e-14
vertex -48.69999999999999 -2.794744111674335 1.6919798895287383e-14
endloop
endfacet
facet normal -6.409014733063406e-17 7.499910857840159e-15 -1.0
outer loop
vertex -21.3556349186104 -3.144365081389697 -2.8199664825478975e-15
vertex -48.69999999999999 -2.794744111674335 1.6919798895287383e-14
vertex -20.899999999999995 -2.794744111674335 0.0
endloop
endfacet
facet normal -6.409014733063406e-17 7.499910857840159e-15 -1.0
outer loop
vertex -20.899999999999995 -2.794744111674335 0.0
vertex -48.69999999999999 -2.794744111674335 1.6919798895287383e-14
vertex -49.23059810077444 -2.5749631821641503 1.973976537783528e-14
endloop
endfacet
facet normal -6.409014733063406e-17 7.499910857840159e-15 -1.0
outer loop
vertex -20.899999999999995 -2.794744111674335 0.0
vertex -49.23059810077444 -2.5749631821641503 1.973976537783528e-14
vertex -20.36940189922554 -2.5749631821641503 2.8199664825478975e-15
endloop
endfacet
facet normal -6.409014733063406e-17 7.499910857840159e-15 -1.0
outer loop
vertex -20.36940189922554 -2.5749631821641503 2.8199664825478975e-15
vertex -49.23059810077444 -2.5749631821641503 1.973976537783528e-14
vertex -49.79999999999999 -2.500000000000097 1.973976537783528e-14
endloop
endfacet
facet normal -6.409014733063406e-17 7.499910857840159e-15 -1.0
outer loop
vertex -20.36940189922554 -2.5749631821641503 2.8199664825478975e-15
vertex -49.79999999999999 -2.500000000000097 1.973976537783528e-14
vertex -19.799999999999997 -2.500000000000097 2.8199664825478975e-15
endloop
endfacet
endsolid e3d holder
