solid idler_GT2
facet normal -0.7071067811865474 0.7071067811865477 1.705780258358407e-15
outer loop
vertex -6.363961030678924 6.363961030678929 0.9999999999999989
vertex -4.499999999999998 7.794228634059948 0.0
vertex -6.3639610306789285 6.3639610306789285 0.0
endloop
endfacet
facet normal -0.49999999999999994 0.8660254037844387 4.2774363497599685e-16
outer loop
vertex -4.499999999999998 7.794228634059948 0.0
vertex -6.363961030678924 6.363961030678929 0.9999999999999989
vertex -4.4999999999999964 7.79422863405995 0.9999999999999989
endloop
endfacet
facet normal 0.7071067811865474 0.7071067811865477 3.458564510303888e-17
outer loop
vertex 5.303300858899107 5.3033008588991075 1.9999999999999984
vertex 6.495190528383288 3.7500000000000036 9.0
vertex 6.495190528383288 3.7500000000000036 1.9999999999999984
endloop
endfacet
facet normal 0.8660254037844383 0.5000000000000006 6.578937184447805e-17
outer loop
vertex 6.495190528383288 3.7500000000000036 9.0
vertex 5.303300858899107 5.3033008588991075 1.9999999999999984
vertex 5.303300858899106 5.3033008588991075 9.0
endloop
endfacet
facet normal -0.7071067811865481 0.7071067811865469 -1.1226196247401417e-16
outer loop
vertex -5.30330085889911 5.303300858899103 9.0
vertex -6.495190528383288 3.7499999999999982 1.9999999999999984
vertex -6.495190528383291 3.7499999999999982 9.0
endloop
endfacet
facet normal -0.8660254037844389 0.4999999999999998 -2.36662738743861e-16
outer loop
vertex -6.495190528383288 3.7499999999999982 1.9999999999999984
vertex -5.30330085889911 5.303300858899103 9.0
vertex -5.303300858899109 5.303300858899103 1.9999999999999984
endloop
endfacet
facet normal 0.14356697510519453 0.5357992453815626 0.8320502943378437
outer loop
vertex 1.9411428382689024 7.2444436971680135 1.9999999999999984
vertex 2.46747067222941e-15 9.0 0.9999999999999989
vertex -1.4099832412739487e-15 7.5 1.9999999999999984
endloop
endfacet
facet normal -1.9035512644532353e-17 0.554700196225229 0.8320502943378437
outer loop
vertex 2.46747067222941e-15 9.0 0.9999999999999989
vertex 1.9411428382689024 7.2444436971680135 1.9999999999999984
vertex 2.329371405922688 8.693332436601615 0.9999999999999989
endloop
endfacet
facet normal 0.39223227027636776 0.3922322702763681 0.8320502943378437
outer loop
vertex 5.303300858899107 5.3033008588991075 1.9999999999999984
vertex 4.500000000000001 7.794228634059947 0.9999999999999989
vertex 3.749999999999995 6.495190528383294 1.9999999999999984
endloop
endfacet
facet normal 0.27735009811261474 0.4803844614152613 0.8320502943378436
outer loop
vertex 4.500000000000001 7.794228634059947 0.9999999999999989
vertex 5.303300858899107 5.3033008588991075 1.9999999999999984
vertex 6.363961030678929 6.363961030678927 0.9999999999999989
endloop
endfacet
facet normal 0.9659258262890682 -0.2588190451025209 2.9439651107626186e-16
outer loop
vertex 7.244443697168015 -1.9411428382689055 1.9999999999999984
vertex 6.495190528383291 -3.7499999999999996 9.0
vertex 6.495190528383291 -3.7499999999999996 1.9999999999999984
endloop
endfacet
facet normal 0.8660254037844386 -0.5 1.1367783577998435e-16
outer loop
vertex 6.495190528383291 -3.7499999999999996 9.0
vertex 7.244443697168015 -1.9411428382689055 1.9999999999999984
vertex 7.244443697168013 -1.9411428382689055 9.0
endloop
endfacet
facet normal -0.3922322702763686 0.3922322702763677 0.8320502943378436
outer loop
vertex -5.303300858899109 5.303300858899103 1.9999999999999984
vertex -4.4999999999999964 7.79422863405995 0.9999999999999989
vertex -6.363961030678924 6.363961030678929 0.9999999999999989
endloop
endfacet
facet normal -0.27735009811261446 0.4803844614152614 0.8320502943378436
outer loop
vertex -4.4999999999999964 7.79422863405995 0.9999999999999989
vertex -5.303300858899109 5.303300858899103 1.9999999999999984
vertex -3.7500000000000036 6.495190528383288 1.9999999999999984
endloop
endfacet
facet normal -0.25881904510252135 0.9659258262890682 -6.912372901244799e-34
outer loop
vertex -1.9411428382689115 7.244443697168011 9.0
vertex -1.4099832412739487e-15 7.5 1.9999999999999984
vertex -1.9411428382689115 7.244443697168011 1.9999999999999984
endloop
endfacet
facet normal -4.901110442605798e-16 1.0 -2.0286252455850916e-32
outer loop
vertex -1.4099832412739487e-15 7.5 1.9999999999999984
vertex -1.9411428382689115 7.244443697168011 9.0
vertex -1.3777276490407724e-15 7.5 9.0
endloop
endfacet
facet normal -0.8660254037844386 -0.5 -1.816712133181626e-16
outer loop
vertex -6.495190528383289 -3.750000000000003 9.0
vertex -5.303300858899107 -5.303300858899107 1.9999999999999984
vertex -5.303300858899107 -5.303300858899107 9.0
endloop
endfacet
facet normal -0.7071067811865472 -0.7071067811865477 -5.636849240477234e-17
outer loop
vertex -5.303300858899107 -5.303300858899107 1.9999999999999984
vertex -6.495190528383289 -3.750000000000003 9.0
vertex -6.495190528383288 -3.750000000000003 1.9999999999999984
endloop
endfacet
facet normal 0.965925826289068 0.25881904510252146 -1.5094719393040518e-15
outer loop
vertex 8.693332436601615 2.329371405922687 0.0
vertex 9.000000000000004 -1.5509815654013436e-14 0.9999999999999989
vertex 9.0 -1.819157579306749e-14 0.0
endloop
endfacet
facet normal 1.0 -9.891331984168066e-16 -2.8424255665386826e-15
outer loop
vertex 9.000000000000004 -1.5509815654013436e-14 0.9999999999999989
vertex 8.693332436601615 2.329371405922687 0.0
vertex 8.69333243660162 2.329371405922669 0.9999999999999989
endloop
endfacet
facet normal -1.0 -4.1882216509540457e-16 -3.5259697301915237e-16
outer loop
vertex -7.5 -9.18485099360515e-16 9.0
vertex -7.244443697168013 1.9411428382689029 1.9999999999999984
vertex -7.499999999999997 -9.253015020860289e-16 1.9999999999999984
endloop
endfacet
facet normal -0.9659258262890684 0.2588190451025206 -2.87457365270804e-16
outer loop
vertex -7.244443697168013 1.9411428382689029 1.9999999999999984
vertex -7.5 -9.18485099360515e-16 9.0
vertex -7.2444436971680135 1.9411428382689029 9.0
endloop
endfacet
facet normal 0.5 -0.8660254037844386 1.402426697542782e-17
outer loop
vertex 3.750000000000001 -6.495190528383289 9.0
vertex 1.9411428382689073 -7.244443697168013 1.9999999999999984
vertex 3.750000000000001 -6.495190528383289 1.9999999999999984
endloop
endfacet
facet normal 0.2588190451025209 -0.9659258262890682 -7.517452978093356e-19
outer loop
vertex 1.9411428382689073 -7.244443697168013 1.9999999999999984
vertex 3.750000000000001 -6.495190528383289 9.0
vertex 1.9411428382689073 -7.244443697168013 9.0
endloop
endfacet
facet normal 0.8660254037844376 -0.5000000000000017 -2.7128507838700808e-15
outer loop
vertex 7.794228634059941 -4.5000000000000115 0.0
vertex 6.363961030678924 -6.363961030678934 0.9999999999999989
vertex 6.363961030678921 -6.363961030678935 0.0
endloop
endfacet
facet normal 0.7071067811865467 -0.7071067811865483 -1.4695590114910437e-15
outer loop
vertex 6.363961030678924 -6.363961030678934 0.9999999999999989
vertex 7.794228634059941 -4.5000000000000115 0.0
vertex 7.794228634059947 -4.50000000000001 0.9999999999999989
endloop
endfacet
facet normal 1.5148886822599737e-16 1.0 3.7713591075579077e-16
outer loop
vertex 2.46747067222941e-15 9.0 0.9999999999999989
vertex 2.329371405922689 8.693332436601615 0.0
vertex 2.5494925039415907e-15 9.0 0.0
endloop
endfacet
facet normal 0.2588190451025209 0.9659258262890682 4.1642747589828676e-16
outer loop
vertex 2.329371405922689 8.693332436601615 0.0
vertex 2.46747067222941e-15 9.0 0.9999999999999989
vertex 2.329371405922688 8.693332436601615 0.9999999999999989
endloop
endfacet
facet normal -0.4803844614152615 -0.27735009811261463 0.8320502943378436
outer loop
vertex -7.7942286340599445 -4.500000000000003 0.9999999999999989
vertex -7.244443697168009 -1.9411428382689078 1.9999999999999984
vertex -8.693332436601612 -2.3293714059226893 0.9999999999999989
endloop
endfacet
facet normal -0.5357992453815626 -0.14356697510519467 0.8320502943378436
outer loop
vertex -7.244443697168009 -1.9411428382689078 1.9999999999999984
vertex -7.7942286340599445 -4.500000000000003 0.9999999999999989
vertex -6.495190528383288 -3.750000000000003 1.9999999999999984
endloop
endfacet
facet normal -0.9659258262890682 0.2588190451025209 2.79222342046278e-15
outer loop
vertex -8.693332436601612 2.329371405922686 0.9999999999999989
vertex -7.794228634059948 4.499999999999999 0.0
vertex -8.693332436601615 2.3293714059226853 0.0
endloop
endfacet
facet normal -0.8660254037844389 0.4999999999999997 2.8670760276772093e-15
outer loop
vertex -7.794228634059948 4.499999999999999 0.0
vertex -8.693332436601612 2.329371405922686 0.9999999999999989
vertex -7.7942286340599445 4.5 0.9999999999999989
endloop
endfacet
facet normal -0.25881904510252063 -0.9659258262890682 -1.5479270055629047e-17
outer loop
vertex -1.9411428382689049 -7.244443697168013 9.0
vertex -3.7499999999999982 -6.495190528383291 1.9999999999999984
vertex -1.9411428382689044 -7.244443697168013 1.9999999999999984
endloop
endfacet
facet normal -0.4999999999999998 -0.8660254037844388 -2.84697703117512e-17
outer loop
vertex -3.7499999999999982 -6.495190528383291 1.9999999999999984
vertex -1.9411428382689049 -7.244443697168013 9.0
vertex -3.7499999999999987 -6.495190528383291 9.0
endloop
endfacet
facet normal -0.143566975105195 0.5357992453815626 0.8320502943378438
outer loop
vertex -1.9411428382689115 7.244443697168011 1.9999999999999984
vertex 2.46747067222941e-15 9.0 0.9999999999999989
vertex -2.3293714059226835 8.693332436601615 0.9999999999999989
endloop
endfacet
facet normal -1.9035512644532353e-17 0.554700196225229 0.8320502943378437
outer loop
vertex 2.46747067222941e-15 9.0 0.9999999999999989
vertex -1.9411428382689115 7.244443697168011 1.9999999999999984
vertex -1.4099832412739487e-15 7.5 1.9999999999999984
endloop
endfacet
facet normal -0.5547001962252291 -1.3669396386743655e-16 0.8320502943378438
outer loop
vertex -7.499999999999997 -9.253015020860289e-16 1.9999999999999984
vertex -8.693332436601612 2.329371405922686 0.9999999999999989
vertex -8.999999999999998 -1.4099832412739487e-15 0.9999999999999989
endloop
endfacet
facet normal -0.5357992453815628 0.14356697510519478 0.8320502943378435
outer loop
vertex -8.693332436601612 2.329371405922686 0.9999999999999989
vertex -7.499999999999997 -9.253015020860289e-16 1.9999999999999984
vertex -7.244443697168013 1.9411428382689029 1.9999999999999984
endloop
endfacet
facet normal 0.25881904510252063 -0.9659258262890683 6.901955571365284e-16
outer loop
vertex 2.3293714059226853 -8.693332436601615 0.9999999999999989
vertex -1.6532731788489267e-15 -9.0 0.0
vertex 2.3293714059226827 -8.693332436601617 0.0
endloop
endfacet
facet normal -3.5644439582587626e-16 -1.0 1.0715500129293035e-15
outer loop
vertex -1.6532731788489267e-15 -9.0 0.0
vertex 2.3293714059226853 -8.693332436601615 0.9999999999999989
vertex 1.0574874309554614e-15 -8.999999999999998 0.9999999999999989
endloop
endfacet
facet normal 0.7071067811865475 -0.7071067811865475 3.458564510303889e-17
outer loop
vertex 5.303300858899107 -5.303300858899107 9.0
vertex 3.750000000000001 -6.495190528383289 1.9999999999999984
vertex 5.3033008588991075 -5.303300858899107 1.9999999999999984
endloop
endfacet
facet normal 0.5 -0.8660254037844386 1.402426697542782e-17
outer loop
vertex 3.750000000000001 -6.495190528383289 1.9999999999999984
vertex 5.303300858899107 -5.303300858899107 9.0
vertex 3.750000000000001 -6.495190528383289 9.0
endloop
endfacet
facet normal 0.0 -0.5547001962252293 0.8320502943378436
outer loop
vertex 1.0574874309554614e-15 -8.999999999999998 0.9999999999999989
vertex 1.9411428382689073 -7.244443697168013 1.9999999999999984
vertex 4.40619762898109e-16 -7.5 1.9999999999999984
endloop
endfacet
facet normal 0.1435669751051947 -0.5357992453815628 0.8320502943378437
outer loop
vertex 1.9411428382689073 -7.244443697168013 1.9999999999999984
vertex 1.0574874309554614e-15 -8.999999999999998 0.9999999999999989
vertex 2.3293714059226853 -8.693332436601615 0.9999999999999989
endloop
endfacet
facet normal 0.7071067811865467 -0.7071067811865483 -1.4695590114910437e-15
outer loop
vertex 6.363961030678924 -6.363961030678934 0.9999999999999989
vertex 4.499999999999994 -7.794228634059951 0.0
vertex 6.363961030678921 -6.363961030678935 0.0
endloop
endfacet
facet normal 0.49999999999999917 -0.8660254037844393 -1.469275344281702e-16
outer loop
vertex 4.499999999999994 -7.794228634059951 0.0
vertex 6.363961030678924 -6.363961030678934 0.9999999999999989
vertex 4.4999999999999964 -7.79422863405995 0.9999999999999989
endloop
endfacet
facet normal 0.25881904510252013 0.9659258262890684 1.2663130039162153e-33
outer loop
vertex 1.9411428382689024 7.2444436971680135 9.0
vertex 3.749999999999995 6.495190528383294 1.9999999999999984
vertex 1.9411428382689024 7.2444436971680135 1.9999999999999984
endloop
endfacet
facet normal 0.49999999999999956 0.8660254037844389 1.402426697542782e-17
outer loop
vertex 3.749999999999995 6.495190528383294 1.9999999999999984
vertex 1.9411428382689024 7.2444436971680135 9.0
vertex 3.749999999999995 6.495190528383294 9.0
endloop
endfacet
facet normal -0.5000000000000006 0.8660254037844383 -1.173966940569324e-17
outer loop
vertex -3.7500000000000036 6.495190528383288 9.0
vertex -1.9411428382689115 7.244443697168011 1.9999999999999984
vertex -3.7500000000000036 6.495190528383288 1.9999999999999984
endloop
endfacet
facet normal -0.25881904510252135 0.9659258262890682 -6.912372901244799e-34
outer loop
vertex -1.9411428382689115 7.244443697168011 1.9999999999999984
vertex -3.7500000000000036 6.495190528383288 9.0
vertex -1.9411428382689115 7.244443697168011 9.0
endloop
endfacet
facet normal -4.901110442605798e-16 1.0 -2.0286252455850916e-32
outer loop
vertex -1.3777276490407724e-15 7.5 9.0
vertex 1.9411428382689024 7.2444436971680135 1.9999999999999984
vertex -1.4099832412739487e-15 7.5 1.9999999999999984
endloop
endfacet
facet normal 0.25881904510252013 0.9659258262890684 1.2663130039162153e-33
outer loop
vertex 1.9411428382689024 7.2444436971680135 1.9999999999999984
vertex -1.3777276490407724e-15 7.5 9.0
vertex 1.9411428382689024 7.2444436971680135 9.0
endloop
endfacet
facet normal 0.2588190451025209 -0.9659258262890682 -7.517452978093356e-19
outer loop
vertex 1.9411428382689073 -7.244443697168013 9.0
vertex 4.40619762898109e-16 -7.5 1.9999999999999984
vertex 1.9411428382689073 -7.244443697168013 1.9999999999999984
endloop
endfacet
facet normal -7.128887916517525e-17 -1.0 -3.006981191237383e-18
outer loop
vertex 4.40619762898109e-16 -7.5 1.9999999999999984
vertex 1.9411428382689073 -7.244443697168013 9.0
vertex 4.592425496802575e-16 -7.5 9.0
endloop
endfacet
facet normal -1.0 -4.1882216509540457e-16 -3.5259697301915237e-16
outer loop
vertex -7.5 -9.18485099360515e-16 9.0
vertex -7.244443697168009 -1.9411428382689078 1.9999999999999984
vertex -7.244443697168013 -1.9411428382689078 9.0
endloop
endfacet
facet normal -0.9659258262890683 -0.25881904510252063 -3.418285104868291e-16
outer loop
vertex -7.244443697168009 -1.9411428382689078 1.9999999999999984
vertex -7.5 -9.18485099360515e-16 9.0
vertex -7.499999999999997 -9.253015020860289e-16 1.9999999999999984
endloop
endfacet
facet normal -7.128887916517525e-17 -1.0 -3.006981191237383e-18
outer loop
vertex 4.592425496802575e-16 -7.5 9.0
vertex -1.9411428382689044 -7.244443697168013 1.9999999999999984
vertex 4.40619762898109e-16 -7.5 1.9999999999999984
endloop
endfacet
facet normal -0.2588190451025207 -0.9659258262890683 -1.5479270055629047e-17
outer loop
vertex -1.9411428382689044 -7.244443697168013 1.9999999999999984
vertex 4.592425496802575e-16 -7.5 9.0
vertex -1.9411428382689049 -7.244443697168013 9.0
endloop
endfacet
facet normal 0.8660254037844386 -0.5 1.1367783577998435e-16
outer loop
vertex 6.495190528383291 -3.7499999999999996 1.9999999999999984
vertex 5.303300858899107 -5.303300858899107 9.0
vertex 5.3033008588991075 -5.303300858899107 1.9999999999999984
endloop
endfacet
facet normal 0.7071067811865475 -0.7071067811865475 3.458564510303889e-17
outer loop
vertex 5.303300858899107 -5.303300858899107 9.0
vertex 6.495190528383291 -3.7499999999999996 1.9999999999999984
vertex 6.495190528383291 -3.7499999999999996 9.0
endloop
endfacet
facet normal -0.4999999999999997 0.8660254037844389 4.2774363497599655e-16
outer loop
vertex -4.4999999999999964 7.79422863405995 0.9999999999999989
vertex -2.3293714059226835 8.693332436601617 0.0
vertex -4.499999999999998 7.794228634059948 0.0
endloop
endfacet
facet normal -0.2588190451025206 0.9659258262890684 4.891090597495153e-16
outer loop
vertex -2.3293714059226835 8.693332436601617 0.0
vertex -4.4999999999999964 7.79422863405995 0.9999999999999989
vertex -2.3293714059226835 8.693332436601615 0.9999999999999989
endloop
endfacet
facet normal -0.4803844614152616 0.27735009811261446 0.8320502943378435
outer loop
vertex -6.495190528383288 3.7499999999999982 1.9999999999999984
vertex -6.363961030678924 6.363961030678929 0.9999999999999989
vertex -7.7942286340599445 4.5 0.9999999999999989
endloop
endfacet
facet normal -0.39223227027636814 0.392232270276368 0.8320502943378435
outer loop
vertex -6.363961030678924 6.363961030678929 0.9999999999999989
vertex -6.495190528383288 3.7499999999999982 1.9999999999999984
vertex -5.303300858899109 5.303300858899103 1.9999999999999984
endloop
endfacet
facet normal -0.5357992453815626 -0.14356697510519473 0.8320502943378436
outer loop
vertex -8.693332436601612 -2.3293714059226893 0.9999999999999989
vertex -7.499999999999997 -9.253015020860289e-16 1.9999999999999984
vertex -8.999999999999998 -1.4099832412739487e-15 0.9999999999999989
endloop
endfacet
facet normal -0.5547001962252291 -1.3669396386743655e-16 0.8320502943378438
outer loop
vertex -7.499999999999997 -9.253015020860289e-16 1.9999999999999984
vertex -8.693332436601612 -2.3293714059226893 0.9999999999999989
vertex -7.244443697168009 -1.9411428382689078 1.9999999999999984
endloop
endfacet
facet normal -0.39223227027636776 -0.3922322702763681 0.8320502943378437
outer loop
vertex -6.363961030678924 -6.363961030678932 0.9999999999999989
vertex -6.495190528383288 -3.750000000000003 1.9999999999999984
vertex -7.7942286340599445 -4.500000000000003 0.9999999999999989
endloop
endfacet
facet normal -0.48038446141526153 -0.2773500981126146 0.8320502943378436
outer loop
vertex -6.495190528383288 -3.750000000000003 1.9999999999999984
vertex -6.363961030678924 -6.363961030678932 0.9999999999999989
vertex -5.303300858899107 -5.303300858899107 1.9999999999999984
endloop
endfacet
facet normal 0.8660254037844383 0.5000000000000006 6.578937184447805e-17
outer loop
vertex 6.495190528383288 3.7500000000000036 1.9999999999999984
vertex 7.244443697168011 1.941142838268912 9.0
vertex 7.244443697168013 1.941142838268912 1.9999999999999984
endloop
endfacet
facet normal 0.9659258262890681 0.25881904510252174 1.9654491331213076e-16
outer loop
vertex 7.244443697168011 1.941142838268912 9.0
vertex 6.495190528383288 3.7500000000000036 1.9999999999999984
vertex 6.495190528383288 3.7500000000000036 9.0
endloop
endfacet
facet normal 0.5357992453815626 0.14356697510519525 0.8320502943378437
outer loop
vertex 7.244443697168013 1.941142838268912 1.9999999999999984
vertex 7.79422863405995 4.499999999999999 0.9999999999999989
vertex 6.495190528383288 3.7500000000000036 1.9999999999999984
endloop
endfacet
facet normal 0.48038446141526153 0.2773500981126144 0.8320502943378437
outer loop
vertex 7.79422863405995 4.499999999999999 0.9999999999999989
vertex 7.244443697168013 1.941142838268912 1.9999999999999984
vertex 8.69333243660162 2.329371405922669 0.9999999999999989
endloop
endfacet
facet normal 0.7071067811865475 0.7071067811865477 9.49758660586778e-31
outer loop
vertex 6.3639610306789285 6.3639610306789285 0.0
vertex 7.79422863405995 4.499999999999999 0.9999999999999989
vertex 7.794228634059948 4.499999999999999 0.0
endloop
endfacet
facet normal 0.8660254037844388 0.4999999999999997 -2.773595270238328e-16
outer loop
vertex 7.79422863405995 4.499999999999999 0.9999999999999989
vertex 6.3639610306789285 6.3639610306789285 0.0
vertex 6.363961030678929 6.363961030678927 0.9999999999999989
endloop
endfacet
facet normal 0.5000000000000001 0.8660254037844386 7.663714129058546e-16
outer loop
vertex 4.500000000000001 7.794228634059947 0.9999999999999989
vertex 6.3639610306789285 6.3639610306789285 0.0
vertex 4.500000000000001 7.794228634059948 0.0
endloop
endfacet
facet normal 0.7071067811865475 0.7071067811865477 9.49758660586778e-31
outer loop
vertex 6.3639610306789285 6.3639610306789285 0.0
vertex 4.500000000000001 7.794228634059947 0.9999999999999989
vertex 6.363961030678929 6.363961030678927 0.9999999999999989
endloop
endfacet
facet normal -0.2588190451025203 -0.9659258262890685 7.477606621978229e-16
outer loop
vertex -2.329371405922683 -8.693332436601615 0.9999999999999989
vertex -4.4999999999999964 -7.79422863405995 0.0
vertex -2.3293714059226858 -8.693332436601615 0.0
endloop
endfacet
facet normal -0.49999999999999967 -0.8660254037844389 3.5719210558010253e-16
outer loop
vertex -4.4999999999999964 -7.79422863405995 0.0
vertex -2.329371405922683 -8.693332436601615 0.9999999999999989
vertex -4.499999999999994 -7.794228634059951 0.9999999999999989
endloop
endfacet
facet normal -0.9659258262890682 -0.258819045102521 2.8400502003100902e-15
outer loop
vertex -8.693332436601612 -2.3293714059226893 0.9999999999999989
vertex -9.0 -2.8946207694179456e-15 0.0
vertex -8.693332436601615 -2.3293714059226907 0.0
endloop
endfacet
facet normal -1.0 -1.247555385390567e-16 2.8467230079302827e-15
outer loop
vertex -9.0 -2.8946207694179456e-15 0.0
vertex -8.693332436601612 -2.3293714059226893 0.9999999999999989
vertex -8.999999999999998 -1.4099832412739487e-15 0.9999999999999989
endloop
endfacet
facet normal 0.27735009811261435 0.4803844614152615 0.8320502943378437
outer loop
vertex 3.749999999999995 6.495190528383294 1.9999999999999984
vertex 2.329371405922688 8.693332436601615 0.9999999999999989
vertex 1.9411428382689024 7.2444436971680135 1.9999999999999984
endloop
endfacet
facet normal 0.1435669751051948 0.5357992453815626 0.8320502943378437
outer loop
vertex 2.329371405922688 8.693332436601615 0.9999999999999989
vertex 3.749999999999995 6.495190528383294 1.9999999999999984
vertex 4.500000000000001 7.794228634059947 0.9999999999999989
endloop
endfacet
facet normal 0.4803844614152605 -0.2773500981126148 0.832050294337844
outer loop
vertex 7.794228634059947 -4.50000000000001 0.9999999999999989
vertex 7.244443697168015 -1.9411428382689055 1.9999999999999984
vertex 6.495190528383291 -3.7499999999999996 1.9999999999999984
endloop
endfacet
facet normal 0.5357992453815623 -0.14356697510519478 0.832050294337844
outer loop
vertex 7.244443697168015 -1.9411428382689055 1.9999999999999984
vertex 7.794228634059947 -4.50000000000001 0.9999999999999989
vertex 8.693332436601615 -2.329371405922699 0.9999999999999989
endloop
endfacet
facet normal 0.49999999999999956 -0.8660254037844389 -1.46927534428172e-16
outer loop
vertex 4.4999999999999964 -7.79422863405995 0.9999999999999989
vertex 2.3293714059226827 -8.693332436601617 0.0
vertex 4.499999999999994 -7.794228634059951 0.0
endloop
endfacet
facet normal 0.2588190451025202 -0.9659258262890685 6.901955571365297e-16
outer loop
vertex 2.3293714059226827 -8.693332436601617 0.0
vertex 4.4999999999999964 -7.79422863405995 0.9999999999999989
vertex 2.3293714059226853 -8.693332436601615 0.9999999999999989
endloop
endfacet
facet normal -0.277350098112614 -0.4803844614152614 0.8320502943378437
outer loop
vertex -4.499999999999994 -7.794228634059951 0.9999999999999989
vertex -5.303300858899107 -5.303300858899107 1.9999999999999984
vertex -6.363961030678924 -6.363961030678932 0.9999999999999989
endloop
endfacet
facet normal -0.3922322702763679 -0.3922322702763679 0.8320502943378437
outer loop
vertex -5.303300858899107 -5.303300858899107 1.9999999999999984
vertex -4.499999999999994 -7.794228634059951 0.9999999999999989
vertex -3.7499999999999982 -6.495190528383291 1.9999999999999984
endloop
endfacet
facet normal 4.633777145736391e-16 1.0 0.0
outer loop
vertex -3.6739403974420584e-16 -1.9999999999999998 10.0
vertex 0.5176380902050405 -1.9318516525781366 0.0
vertex -3.6739403974420584e-16 -1.9999999999999998 0.0
endloop
endfacet
facet normal -0.25881904510252035 0.9659258262890685 0.0
outer loop
vertex 0.5176380902050405 -1.9318516525781366 0.0
vertex -3.6739403974420584e-16 -1.9999999999999998 10.0
vertex 0.5176380902050405 -1.9318516525781366 10.0
endloop
endfacet
facet normal 0.25881904510252135 0.965925826289068 0.0
outer loop
vertex -0.5176380902050429 -1.931851652578136 10.0
vertex -3.6739403974420584e-16 -1.9999999999999998 0.0
vertex -0.5176380902050429 -1.931851652578136 0.0
endloop
endfacet
facet normal 4.633777145736391e-16 1.0 0.0
outer loop
vertex -3.6739403974420584e-16 -1.9999999999999998 0.0
vertex -0.5176380902050429 -1.931851652578136 10.0
vertex -3.6739403974420584e-16 -1.9999999999999998 10.0
endloop
endfacet
facet normal 0.5000000000000004 0.8660254037844384 0.0
outer loop
vertex -1.0000000000000007 -1.7320508075688765 10.0
vertex -0.5176380902050429 -1.931851652578136 0.0
vertex -1.0000000000000007 -1.7320508075688765 0.0
endloop
endfacet
facet normal 0.25881904510252135 0.965925826289068 0.0
outer loop
vertex -0.5176380902050429 -1.931851652578136 0.0
vertex -1.0000000000000007 -1.7320508075688765 10.0
vertex -0.5176380902050429 -1.931851652578136 10.0
endloop
endfacet
facet normal 0.7071067811865478 0.7071067811865472 0.0
outer loop
vertex -1.4142135623730956 -1.4142135623730943 10.0
vertex -1.0000000000000007 -1.7320508075688765 0.0
vertex -1.4142135623730956 -1.4142135623730943 0.0
endloop
endfacet
facet normal 0.5000000000000004 0.8660254037844384 0.0
outer loop
vertex -1.0000000000000007 -1.7320508075688765 0.0
vertex -1.4142135623730956 -1.4142135623730943 10.0
vertex -1.0000000000000007 -1.7320508075688765 10.0
endloop
endfacet
facet normal 0.8660254037844389 0.49999999999999967 0.0
outer loop
vertex -1.7320508075688772 -0.9999999999999994 0.0
vertex -1.4142135623730956 -1.4142135623730943 10.0
vertex -1.4142135623730956 -1.4142135623730943 0.0
endloop
endfacet
facet normal 0.7071067811865478 0.7071067811865472 0.0
outer loop
vertex -1.4142135623730956 -1.4142135623730943 10.0
vertex -1.7320508075688772 -0.9999999999999994 0.0
vertex -1.7320508075688772 -0.9999999999999994 10.0
endloop
endfacet
facet normal -0.8660254037844386 0.5000000000000003 0.0
outer loop
vertex 1.7320508075688763 -1.0000000000000009 10.0
vertex 1.4142135623730943 -1.4142135623730951 0.0
vertex 1.4142135623730943 -1.4142135623730951 10.0
endloop
endfacet
facet normal -0.7071067811865475 0.7071067811865477 0.0
outer loop
vertex 1.4142135623730943 -1.4142135623730951 0.0
vertex 1.7320508075688763 -1.0000000000000009 10.0
vertex 1.7320508075688763 -1.0000000000000009 0.0
endloop
endfacet
facet normal -0.49999999999999967 0.8660254037844389 0.0
outer loop
vertex 0.9999999999999983 -1.732050807568878 10.0
vertex 1.4142135623730943 -1.4142135623730951 0.0
vertex 0.9999999999999983 -1.732050807568878 0.0
endloop
endfacet
facet normal -0.7071067811865475 0.7071067811865477 0.0
outer loop
vertex 1.4142135623730943 -1.4142135623730951 0.0
vertex 0.9999999999999983 -1.732050807568878 10.0
vertex 1.4142135623730943 -1.4142135623730951 10.0
endloop
endfacet
facet normal 0.9659258262890684 0.2588190451025203 0.0
outer loop
vertex -1.9318516525781364 -0.5176380902050407 0.0
vertex -1.7320508075688772 -0.9999999999999994 10.0
vertex -1.7320508075688772 -0.9999999999999994 0.0
endloop
endfacet
facet normal 0.8660254037844389 0.49999999999999967 0.0
outer loop
vertex -1.7320508075688772 -0.9999999999999994 10.0
vertex -1.9318516525781364 -0.5176380902050407 0.0
vertex -1.9318516525781364 -0.5176380902050407 10.0
endloop
endfacet
facet normal -0.7071067811865477 -0.7071067811865475 0.0
outer loop
vertex 1.414213562373095 1.414213562373095 10.0
vertex 1.732050807568877 0.9999999999999998 0.0
vertex 1.732050807568877 0.9999999999999998 10.0
endloop
endfacet
facet normal -0.8660254037844388 -0.49999999999999967 0.0
outer loop
vertex 1.732050807568877 0.9999999999999998 0.0
vertex 1.414213562373095 1.414213562373095 10.0
vertex 1.414213562373095 1.414213562373095 0.0
endloop
endfacet
facet normal 1.0 -2.4059996718246644e-16 0.0
outer loop
vertex -1.9999999999999996 2.449293598294706e-16 0.0
vertex -1.9318516525781364 -0.5176380902050407 10.0
vertex -1.9318516525781364 -0.5176380902050407 0.0
endloop
endfacet
facet normal 0.9659258262890684 0.2588190451025203 0.0
outer loop
vertex -1.9318516525781364 -0.5176380902050407 10.0
vertex -1.9999999999999996 2.449293598294706e-16 0.0
vertex -1.9999999999999996 2.449293598294706e-16 10.0
endloop
endfacet
facet normal 0.9659258262890682 -0.2588190451025208 0.0
outer loop
vertex -1.931851652578136 0.517638090205042 0.0
vertex -1.9999999999999996 2.449293598294706e-16 10.0
vertex -1.9999999999999996 2.449293598294706e-16 0.0
endloop
endfacet
facet normal 1.0 -2.4059996718246644e-16 0.0
outer loop
vertex -1.9999999999999996 2.449293598294706e-16 10.0
vertex -1.931851652578136 0.517638090205042 0.0
vertex -1.931851652578136 0.517638090205042 10.0
endloop
endfacet
facet normal 0.8660254037844386 -0.5 0.0
outer loop
vertex -1.7320508075688765 1.0000000000000007 0.0
vertex -1.931851652578136 0.517638090205042 10.0
vertex -1.931851652578136 0.517638090205042 0.0
endloop
endfacet
facet normal 0.9659258262890682 -0.2588190451025208 0.0
outer loop
vertex -1.931851652578136 0.517638090205042 10.0
vertex -1.7320508075688765 1.0000000000000007 0.0
vertex -1.7320508075688765 1.0000000000000007 10.0
endloop
endfacet
facet normal 0.7071067811865472 -0.7071067811865478 0.0
outer loop
vertex -1.4142135623730947 1.4142135623730951 0.0
vertex -1.7320508075688765 1.0000000000000007 10.0
vertex -1.7320508075688765 1.0000000000000007 0.0
endloop
endfacet
facet normal 0.8660254037844386 -0.5 0.0
outer loop
vertex -1.7320508075688765 1.0000000000000007 10.0
vertex -1.4142135623730947 1.4142135623730951 0.0
vertex -1.4142135623730947 1.4142135623730951 10.0
endloop
endfacet
facet normal 0.4999999999999998 -0.8660254037844388 0.0
outer loop
vertex -0.9999999999999992 1.7320508075688772 10.0
vertex -1.4142135623730947 1.4142135623730951 0.0
vertex -0.9999999999999992 1.7320508075688772 0.0
endloop
endfacet
facet normal 0.7071067811865472 -0.7071067811865478 0.0
outer loop
vertex -1.4142135623730947 1.4142135623730951 0.0
vertex -0.9999999999999992 1.7320508075688772 10.0
vertex -1.4142135623730947 1.4142135623730951 10.0
endloop
endfacet
facet normal 0.2588190451025208 -0.9659258262890683 0.0
outer loop
vertex -0.5176380902050411 1.9318516525781364 10.0
vertex -0.9999999999999992 1.7320508075688772 0.0
vertex -0.5176380902050411 1.9318516525781364 0.0
endloop
endfacet
facet normal 0.4999999999999998 -0.8660254037844388 0.0
outer loop
vertex -0.9999999999999992 1.7320508075688772 0.0
vertex -0.5176380902050411 1.9318516525781364 10.0
vertex -0.9999999999999992 1.7320508075688772 10.0
endloop
endfacet
facet normal 5.346665937388143e-17 -1.0 0.0
outer loop
vertex 1.224646799147353e-16 1.9999999999999998 10.0
vertex -0.5176380902050411 1.9318516525781364 0.0
vertex 1.224646799147353e-16 1.9999999999999998 0.0
endloop
endfacet
facet normal 0.2588190451025208 -0.9659258262890683 0.0
outer loop
vertex -0.5176380902050411 1.9318516525781364 0.0
vertex 1.224646799147353e-16 1.9999999999999998 10.0
vertex -0.5176380902050411 1.9318516525781364 10.0
endloop
endfacet
facet normal -0.258819045102521 -0.9659258262890682 0.0
outer loop
vertex 0.5176380902050418 1.9318516525781364 10.0
vertex 1.224646799147353e-16 1.9999999999999998 0.0
vertex 0.5176380902050418 1.9318516525781364 0.0
endloop
endfacet
facet normal 5.346665937388143e-17 -1.0 0.0
outer loop
vertex 1.224646799147353e-16 1.9999999999999998 0.0
vertex 0.5176380902050418 1.9318516525781364 10.0
vertex 1.224646799147353e-16 1.9999999999999998 10.0
endloop
endfacet
facet normal -0.5000000000000001 -0.8660254037844386 0.0
outer loop
vertex 0.9999999999999999 1.732050807568877 10.0
vertex 0.5176380902050418 1.9318516525781364 0.0
vertex 0.9999999999999999 1.732050807568877 0.0
endloop
endfacet
facet normal -0.258819045102521 -0.9659258262890682 0.0
outer loop
vertex 0.5176380902050418 1.9318516525781364 0.0
vertex 0.9999999999999999 1.732050807568877 10.0
vertex 0.5176380902050418 1.9318516525781364 10.0
endloop
endfacet
facet normal -0.7071067811865477 -0.7071067811865475 0.0
outer loop
vertex 1.414213562373095 1.414213562373095 10.0
vertex 0.9999999999999999 1.732050807568877 0.0
vertex 1.414213562373095 1.414213562373095 0.0
endloop
endfacet
facet normal -0.5000000000000001 -0.8660254037844386 0.0
outer loop
vertex 0.9999999999999999 1.732050807568877 0.0
vertex 1.414213562373095 1.414213562373095 10.0
vertex 0.9999999999999999 1.732050807568877 10.0
endloop
endfacet
facet normal -0.8660254037844388 -0.49999999999999967 0.0
outer loop
vertex 1.732050807568877 0.9999999999999998 10.0
vertex 1.931851652578136 0.5176380902050415 0.0
vertex 1.931851652578136 0.5176380902050415 10.0
endloop
endfacet
facet normal -0.9659258262890682 -0.2588190451025207 0.0
outer loop
vertex 1.931851652578136 0.5176380902050415 0.0
vertex 1.732050807568877 0.9999999999999998 10.0
vertex 1.732050807568877 0.9999999999999998 0.0
endloop
endfacet
facet normal -0.9659258262890682 -0.2588190451025207 0.0
outer loop
vertex 1.931851652578136 0.5176380902050415 10.0
vertex 1.9999999999999996 0.0 0.0
vertex 1.9999999999999996 0.0 10.0
endloop
endfacet
facet normal -1.0 1.425777583303505e-16 0.0
outer loop
vertex 1.9999999999999996 0.0 0.0
vertex 1.931851652578136 0.5176380902050415 10.0
vertex 1.931851652578136 0.5176380902050415 0.0
endloop
endfacet
facet normal -1.0 1.425777583303505e-16 0.0
outer loop
vertex 1.9999999999999996 0.0 10.0
vertex 1.9318516525781357 -0.517638090205043 0.0
vertex 1.9318516525781357 -0.517638090205043 10.0
endloop
endfacet
facet normal -0.9659258262890682 0.2588190451025213 0.0
outer loop
vertex 1.9318516525781357 -0.517638090205043 0.0
vertex 1.9999999999999996 0.0 10.0
vertex 1.9999999999999996 0.0 0.0
endloop
endfacet
facet normal -0.9659258262890682 0.2588190451025213 0.0
outer loop
vertex 1.9318516525781357 -0.517638090205043 10.0
vertex 1.7320508075688763 -1.0000000000000009 0.0
vertex 1.7320508075688763 -1.0000000000000009 10.0
endloop
endfacet
facet normal -0.8660254037844386 0.5000000000000003 0.0
outer loop
vertex 1.7320508075688763 -1.0000000000000009 0.0
vertex 1.9318516525781357 -0.517638090205043 10.0
vertex 1.9318516525781357 -0.517638090205043 0.0
endloop
endfacet
facet normal -0.7071067811865481 0.7071067811865469 -1.1226196247401417e-16
outer loop
vertex -5.30330085889911 5.303300858899103 9.0
vertex -3.7500000000000036 6.495190528383288 1.9999999999999984
vertex -5.303300858899109 5.303300858899103 1.9999999999999984
endloop
endfacet
facet normal -0.5000000000000006 0.8660254037844383 -1.173966940569324e-17
outer loop
vertex -3.7500000000000036 6.495190528383288 1.9999999999999984
vertex -5.30330085889911 5.303300858899103 9.0
vertex -3.7500000000000036 6.495190528383288 9.0
endloop
endfacet
facet normal 0.14356697510519453 -0.5357992453815628 0.8320502943378436
outer loop
vertex 2.3293714059226853 -8.693332436601615 0.9999999999999989
vertex 3.750000000000001 -6.495190528383289 1.9999999999999984
vertex 1.9411428382689073 -7.244443697168013 1.9999999999999984
endloop
endfacet
facet normal 0.2773500981126143 -0.4803844614152613 0.8320502943378437
outer loop
vertex 3.750000000000001 -6.495190528383289 1.9999999999999984
vertex 2.3293714059226853 -8.693332436601615 0.9999999999999989
vertex 4.4999999999999964 -7.79422863405995 0.9999999999999989
endloop
endfacet
facet normal 0.9659258262890679 -0.2588190451025225 -2.779898737544488e-15
outer loop
vertex 8.693332436601612 -2.3293714059227018 0.0
vertex 7.794228634059947 -4.50000000000001 0.9999999999999989
vertex 7.794228634059941 -4.5000000000000115 0.0
endloop
endfacet
facet normal 0.8660254037844382 -0.500000000000001 -2.7128507838700835e-15
outer loop
vertex 7.794228634059947 -4.50000000000001 0.9999999999999989
vertex 8.693332436601612 -2.3293714059227018 0.0
vertex 8.693332436601615 -2.329371405922699 0.9999999999999989
endloop
endfacet
facet normal 1.0 3.207999562432886e-16 3.5259697301915237e-16
outer loop
vertex 7.5000000000000036 0.0 1.9999999999999984
vertex 7.244443697168013 -1.9411428382689055 9.0
vertex 7.244443697168015 -1.9411428382689055 1.9999999999999984
endloop
endfacet
facet normal 0.9659258262890682 -0.25881904510252096 2.9439651107626186e-16
outer loop
vertex 7.244443697168013 -1.9411428382689055 9.0
vertex 7.5000000000000036 0.0 1.9999999999999984
vertex 7.5 0.0 9.0
endloop
endfacet
facet normal -0.25881904510252035 0.9659258262890685 0.0
outer loop
vertex 0.5176380902050405 -1.9318516525781366 10.0
vertex 0.9999999999999983 -1.732050807568878 0.0
vertex 0.5176380902050405 -1.9318516525781366 0.0
endloop
endfacet
facet normal -0.49999999999999967 0.8660254037844389 0.0
outer loop
vertex 0.9999999999999983 -1.732050807568878 0.0
vertex 0.5176380902050405 -1.9318516525781366 10.0
vertex 0.9999999999999983 -1.732050807568878 10.0
endloop
endfacet
facet normal 9.802220885211595e-17 -1.0 1.0715500129293037e-15
outer loop
vertex 1.0574874309554614e-15 -8.999999999999998 0.9999999999999989
vertex -2.3293714059226858 -8.693332436601615 0.0
vertex -1.6532731788489267e-15 -9.0 0.0
endloop
endfacet
facet normal -0.25881904510252063 -0.9659258262890684 7.477606621978218e-16
outer loop
vertex -2.3293714059226858 -8.693332436601615 0.0
vertex 1.0574874309554614e-15 -8.999999999999998 0.9999999999999989
vertex -2.329371405922683 -8.693332436601615 0.9999999999999989
endloop
endfacet
facet normal -0.4999999999999998 -0.8660254037844388 -2.84697703117512e-17
outer loop
vertex -3.7499999999999987 -6.495190528383291 9.0
vertex -5.303300858899107 -5.303300858899107 1.9999999999999984
vertex -3.7499999999999982 -6.495190528383291 1.9999999999999984
endloop
endfacet
facet normal -0.7071067811865472 -0.7071067811865477 -5.636849240477234e-17
outer loop
vertex -5.303300858899107 -5.303300858899107 1.9999999999999984
vertex -3.7499999999999987 -6.495190528383291 9.0
vertex -5.303300858899107 -5.303300858899107 9.0
endloop
endfacet
facet normal -0.8660254037844386 -0.5000000000000001 1.933489641671271e-15
outer loop
vertex -7.7942286340599445 -4.500000000000003 0.9999999999999989
vertex -6.363961030678924 -6.363961030678932 0.0
vertex -6.363961030678924 -6.363961030678932 0.9999999999999989
endloop
endfacet
facet normal -0.7071067811865471 -0.7071067811865478 7.451013967912111e-16
outer loop
vertex -6.363961030678924 -6.363961030678932 0.0
vertex -7.7942286340599445 -4.500000000000003 0.9999999999999989
vertex -7.794228634059945 -4.500000000000005 0.0
endloop
endfacet
facet normal 0.3922322702763672 -0.39223227027636814 0.832050294337844
outer loop
vertex 6.363961030678924 -6.363961030678934 0.9999999999999989
vertex 6.495190528383291 -3.7499999999999996 1.9999999999999984
vertex 5.3033008588991075 -5.303300858899107 1.9999999999999984
endloop
endfacet
facet normal 0.48038446141526064 -0.2773500981126144 0.832050294337844
outer loop
vertex 6.495190528383291 -3.7499999999999996 1.9999999999999984
vertex 6.363961030678924 -6.363961030678934 0.9999999999999989
vertex 7.794228634059947 -4.50000000000001 0.9999999999999989
endloop
endfacet
facet normal 0.2773500981126142 -0.4803844614152615 0.8320502943378438
outer loop
vertex 4.4999999999999964 -7.79422863405995 0.9999999999999989
vertex 5.3033008588991075 -5.303300858899107 1.9999999999999984
vertex 3.750000000000001 -6.495190528383289 1.9999999999999984
endloop
endfacet
facet normal 0.39223227027636753 -0.39223227027636787 0.8320502943378439
outer loop
vertex 5.3033008588991075 -5.303300858899107 1.9999999999999984
vertex 4.4999999999999964 -7.79422863405995 0.9999999999999989
vertex 6.363961030678924 -6.363961030678934 0.9999999999999989
endloop
endfacet
facet normal -0.5357992453815629 0.14356697510519464 0.8320502943378435
outer loop
vertex -7.244443697168013 1.9411428382689029 1.9999999999999984
vertex -7.7942286340599445 4.5 0.9999999999999989
vertex -8.693332436601612 2.329371405922686 0.9999999999999989
endloop
endfacet
facet normal -0.4803844614152615 0.27735009811261463 0.8320502943378435
outer loop
vertex -7.7942286340599445 4.5 0.9999999999999989
vertex -7.244443697168013 1.9411428382689029 1.9999999999999984
vertex -6.495190528383288 3.7499999999999982 1.9999999999999984
endloop
endfacet
facet normal -0.25881904510252063 0.9659258262890683 4.891090597495151e-16
outer loop
vertex -2.3293714059226835 8.693332436601615 0.9999999999999989
vertex 2.5494925039415907e-15 9.0 0.0
vertex -2.3293714059226835 8.693332436601617 0.0
endloop
endfacet
facet normal 1.6931108801729116e-16 1.0 3.771359107557907e-16
outer loop
vertex 2.5494925039415907e-15 9.0 0.0
vertex -2.3293714059226835 8.693332436601615 0.9999999999999989
vertex 2.46747067222941e-15 9.0 0.9999999999999989
endloop
endfacet
facet normal 0.5547001962252289 1.2012499855017143e-16 0.8320502943378437
outer loop
vertex 7.5000000000000036 0.0 1.9999999999999984
vertex 8.69333243660162 2.329371405922669 0.9999999999999989
vertex 7.244443697168013 1.941142838268912 1.9999999999999984
endloop
endfacet
facet normal 0.5357992453815629 0.143566975105194 0.8320502943378436
outer loop
vertex 8.69333243660162 2.329371405922669 0.9999999999999989
vertex 7.5000000000000036 0.0 1.9999999999999984
vertex 9.000000000000004 -1.5509815654013436e-14 0.9999999999999989
endloop
endfacet
facet normal 0.535799245381562 -0.14356697510519534 0.8320502943378439
outer loop
vertex 8.693332436601615 -2.329371405922699 0.9999999999999989
vertex 7.5000000000000036 0.0 1.9999999999999984
vertex 7.244443697168015 -1.9411428382689055 1.9999999999999984
endloop
endfacet
facet normal 0.5547001962252289 1.2012499855017143e-16 0.8320502943378437
outer loop
vertex 7.5000000000000036 0.0 1.9999999999999984
vertex 8.693332436601615 -2.329371405922699 0.9999999999999989
vertex 9.000000000000004 -1.5509815654013436e-14 0.9999999999999989
endloop
endfacet
facet normal 0.965925826289068 0.25881904510252146 -1.5094719393040518e-15
outer loop
vertex 8.693332436601615 2.329371405922687 0.0
vertex 7.79422863405995 4.499999999999999 0.9999999999999989
vertex 8.69333243660162 2.329371405922669 0.9999999999999989
endloop
endfacet
facet normal 0.8660254037844388 0.4999999999999997 -2.773595270238328e-16
outer loop
vertex 7.79422863405995 4.499999999999999 0.9999999999999989
vertex 8.693332436601615 2.329371405922687 0.0
vertex 7.794228634059948 4.499999999999999 0.0
endloop
endfacet
facet normal -0.49999999999999917 -0.8660254037844393 3.5719210558010283e-16
outer loop
vertex -4.499999999999994 -7.794228634059951 0.9999999999999989
vertex -6.363961030678924 -6.363961030678932 0.0
vertex -4.4999999999999964 -7.79422863405995 0.0
endloop
endfacet
facet normal -0.7071067811865471 -0.7071067811865478 7.451013967912111e-16
outer loop
vertex -6.363961030678924 -6.363961030678932 0.0
vertex -4.499999999999994 -7.794228634059951 0.9999999999999989
vertex -6.363961030678924 -6.363961030678932 0.9999999999999989
endloop
endfacet
facet normal -1.0 1.336666484347035e-16 2.8467230079302823e-15
outer loop
vertex -8.999999999999998 -1.4099832412739487e-15 0.9999999999999989
vertex -8.693332436601615 2.3293714059226853 0.0
vertex -9.0 -2.8946207694179456e-15 0.0
endloop
endfacet
facet normal -0.9659258262890683 0.25881904510252063 2.7922234204627797e-15
outer loop
vertex -8.693332436601615 2.3293714059226853 0.0
vertex -8.999999999999998 -1.4099832412739487e-15 0.9999999999999989
vertex -8.693332436601612 2.329371405922686 0.9999999999999989
endloop
endfacet
facet normal 0.25881904510252085 0.9659258262890682 4.164274758982864e-16
outer loop
vertex 2.329371405922688 8.693332436601615 0.9999999999999989
vertex 4.500000000000001 7.794228634059948 0.0
vertex 2.329371405922689 8.693332436601615 0.0
endloop
endfacet
facet normal 0.5 0.8660254037844387 7.663714129058547e-16
outer loop
vertex 4.500000000000001 7.794228634059948 0.0
vertex 2.329371405922688 8.693332436601615 0.9999999999999989
vertex 4.500000000000001 7.794228634059947 0.9999999999999989
endloop
endfacet
facet normal 0.9659258262890681 0.25881904510252174 1.9654491331213076e-16
outer loop
vertex 7.244443697168013 1.941142838268912 1.9999999999999984
vertex 7.5 0.0 9.0
vertex 7.5000000000000036 0.0 1.9999999999999984
endloop
endfacet
facet normal 1.0 3.2079995624328853e-16 3.5259697301915237e-16
outer loop
vertex 7.5 0.0 9.0
vertex 7.244443697168013 1.941142838268912 1.9999999999999984
vertex 7.244443697168011 1.941142838268912 9.0
endloop
endfacet
facet normal 0.0 -0.5547001962252293 0.8320502943378436
outer loop
vertex 1.0574874309554614e-15 -8.999999999999998 0.9999999999999989
vertex -1.9411428382689044 -7.244443697168013 1.9999999999999984
vertex -2.329371405922683 -8.693332436601615 0.9999999999999989
endloop
endfacet
facet normal -0.14356697510519456 -0.5357992453815629 0.8320502943378436
outer loop
vertex -1.9411428382689044 -7.244443697168013 1.9999999999999984
vertex 1.0574874309554614e-15 -8.999999999999998 0.9999999999999989
vertex 4.40619762898109e-16 -7.5 1.9999999999999984
endloop
endfacet
facet normal -0.277350098112614 -0.4803844614152611 -0.8320502943378442
outer loop
vertex -3.7499999999999987 -6.495190528383291 9.0
vertex -2.3293714059226773 -8.693332436601619 10.0
vertex -4.499999999999993 -7.794228634059954 10.0
endloop
endfacet
facet normal -0.14356697510519406 -0.5357992453815622 -0.832050294337844
outer loop
vertex -2.3293714059226773 -8.693332436601619 10.0
vertex -3.7499999999999987 -6.495190528383291 9.0
vertex -1.9411428382689049 -7.244443697168013 9.0
endloop
endfacet
facet normal -0.39223227027636753 -0.3922322702763678 -0.832050294337844
outer loop
vertex -5.303300858899107 -5.303300858899107 9.0
vertex -4.499999999999993 -7.794228634059954 10.0
vertex -6.363961030678921 -6.363961030678938 10.0
endloop
endfacet
facet normal -0.2773500981126137 -0.4803844614152612 -0.8320502943378442
outer loop
vertex -4.499999999999993 -7.794228634059954 10.0
vertex -5.303300858899107 -5.303300858899107 9.0
vertex -3.7499999999999987 -6.495190528383291 9.0
endloop
endfacet
facet normal -0.5547001962252289 -2.692456864055568e-16 -0.8320502943378438
outer loop
vertex -7.5 -9.18485099360515e-16 9.0
vertex -8.693332436601613 -2.329371405922695 10.0
vertex -9.0 -1.0222378499236128e-14 10.0
endloop
endfacet
facet normal -0.5357992453815624 -0.14356697510519503 -0.8320502943378437
outer loop
vertex -8.693332436601613 -2.329371405922695 10.0
vertex -7.5 -9.18485099360515e-16 9.0
vertex -7.244443697168013 -1.9411428382689078 9.0
endloop
endfacet
facet normal -0.0 -0.0 1.0
outer loop
vertex -2.3293714059226773 -8.693332436601619 10.0
vertex -1.9318516525781364 -0.5176380902050407 10.0
vertex -1.9999999999999996 2.449293598294706e-16 10.0
endloop
endfacet
facet normal -0.0 -0.0 1.0
outer loop
vertex -1.9318516525781364 -0.5176380902050407 10.0
vertex -2.3293714059226773 -8.693332436601619 10.0
vertex 8.81239525796218e-15 -9.000000000000004 10.0
endloop
endfacet
facet normal -0.0 -0.0 1.0
outer loop
vertex -1.9318516525781364 -0.5176380902050407 10.0
vertex 8.81239525796218e-15 -9.000000000000004 10.0
vertex -1.7320508075688772 -0.9999999999999994 10.0
endloop
endfacet
facet normal -0.0 -0.0 1.0
outer loop
vertex -1.7320508075688772 -0.9999999999999994 10.0
vertex 8.81239525796218e-15 -9.000000000000004 10.0
vertex -1.4142135623730956 -1.4142135623730943 10.0
endloop
endfacet
facet normal -0.0 -0.0 1.0
outer loop
vertex -1.4142135623730956 -1.4142135623730943 10.0
vertex 8.81239525796218e-15 -9.000000000000004 10.0
vertex -1.0000000000000007 -1.7320508075688765 10.0
endloop
endfacet
facet normal -0.0 -0.0 1.0
outer loop
vertex -1.0000000000000007 -1.7320508075688765 10.0
vertex 8.81239525796218e-15 -9.000000000000004 10.0
vertex -0.5176380902050429 -1.931851652578136 10.0
endloop
endfacet
facet normal -0.0 -0.0 1.0
outer loop
vertex -0.5176380902050429 -1.931851652578136 10.0
vertex 8.81239525796218e-15 -9.000000000000004 10.0
vertex -3.6739403974420584e-16 -1.9999999999999998 10.0
endloop
endfacet
facet normal -0.0 -0.0 1.0
outer loop
vertex -3.6739403974420584e-16 -1.9999999999999998 10.0
vertex 8.81239525796218e-15 -9.000000000000004 10.0
vertex 0.5176380902050405 -1.9318516525781366 10.0
endloop
endfacet
facet normal -0.0 -0.0 1.0
outer loop
vertex 0.5176380902050405 -1.9318516525781366 10.0
vertex 8.81239525796218e-15 -9.000000000000004 10.0
vertex 2.3293714059226955 -8.693332436601617 10.0
endloop
endfacet
facet normal -0.0 -0.0 1.0
outer loop
vertex 0.5176380902050405 -1.9318516525781366 10.0
vertex 2.3293714059226955 -8.693332436601617 10.0
vertex 0.9999999999999983 -1.732050807568878 10.0
endloop
endfacet
facet normal -0.0 -0.0 1.0
outer loop
vertex 0.9999999999999983 -1.732050807568878 10.0
vertex 2.3293714059226955 -8.693332436601617 10.0
vertex 1.4142135623730943 -1.4142135623730951 10.0
endloop
endfacet
facet normal -0.0 -0.0 1.0
outer loop
vertex 1.4142135623730943 -1.4142135623730951 10.0
vertex 2.3293714059226955 -8.693332436601617 10.0
vertex 1.7320508075688763 -1.0000000000000009 10.0
endloop
endfacet
facet normal -0.0 -0.0 1.0
outer loop
vertex 1.7320508075688763 -1.0000000000000009 10.0
vertex 2.3293714059226955 -8.693332436601617 10.0
vertex 1.9318516525781357 -0.517638090205043 10.0
endloop
endfacet
facet normal -0.0 -0.0 1.0
outer loop
vertex 1.9318516525781357 -0.517638090205043 10.0
vertex 2.3293714059226955 -8.693332436601617 10.0
vertex 1.9999999999999996 0.0 10.0
endloop
endfacet
facet normal -0.0 -0.0 1.0
outer loop
vertex 1.9999999999999996 0.0 10.0
vertex 2.3293714059226955 -8.693332436601617 10.0
vertex 2.3293714059226733 8.69333243660162 10.0
endloop
endfacet
facet normal -0.0 -0.0 1.0
outer loop
vertex 2.3293714059226733 8.69333243660162 10.0
vertex 2.3293714059226955 -8.693332436601617 10.0
vertex 4.499999999999992 7.794228634059955 10.0
endloop
endfacet
facet normal -0.0 -0.0 1.0
outer loop
vertex 4.499999999999992 7.794228634059955 10.0
vertex 2.3293714059226955 -8.693332436601617 10.0
vertex 4.500000000000009 -7.794228634059947 10.0
endloop
endfacet
facet normal -0.0 -0.0 1.0
outer loop
vertex 4.499999999999992 7.794228634059955 10.0
vertex 4.500000000000009 -7.794228634059947 10.0
vertex 6.36396103067892 6.363961030678938 10.0
endloop
endfacet
facet normal -0.0 -0.0 1.0
outer loop
vertex 6.36396103067892 6.363961030678938 10.0
vertex 4.500000000000009 -7.794228634059947 10.0
vertex 6.363961030678934 -6.363961030678924 10.0
endloop
endfacet
facet normal -0.0 -0.0 1.0
outer loop
vertex 6.36396103067892 6.363961030678938 10.0
vertex 6.363961030678934 -6.363961030678924 10.0
vertex 7.794228634059941 4.500000000000014 10.0
endloop
endfacet
facet normal -0.0 -0.0 1.0
outer loop
vertex 7.794228634059941 4.500000000000014 10.0
vertex 6.363961030678934 -6.363961030678924 10.0
vertex 7.7942286340599525 -4.499999999999995 10.0
endloop
endfacet
facet normal -0.0 -0.0 1.0
outer loop
vertex 7.794228634059941 4.500000000000014 10.0
vertex 7.7942286340599525 -4.499999999999995 10.0
vertex 8.693332436601613 2.329371405922694 10.0
endloop
endfacet
facet normal -0.0 -0.0 1.0
outer loop
vertex 8.693332436601613 2.329371405922694 10.0
vertex 7.7942286340599525 -4.499999999999995 10.0
vertex 8.693332436601617 -2.3293714059226804 10.0
endloop
endfacet
facet normal -0.0 -0.0 1.0
outer loop
vertex 8.693332436601613 2.329371405922694 10.0
vertex 8.693332436601617 -2.3293714059226804 10.0
vertex 9.0 6.697420396051256e-15 10.0
endloop
endfacet
facet normal -0.0 -0.0 1.0
outer loop
vertex -8.693332436601613 -2.329371405922695 10.0
vertex -8.693332436601619 2.329371405922678 10.0
vertex -9.0 -1.0222378499236128e-14 10.0
endloop
endfacet
facet normal -0.0 -0.0 1.0
outer loop
vertex -8.693332436601619 2.329371405922678 10.0
vertex -8.693332436601613 -2.329371405922695 10.0
vertex -7.794228634059955 4.49999999999999 10.0
endloop
endfacet
facet normal -0.0 -0.0 1.0
outer loop
vertex -7.794228634059955 4.49999999999999 10.0
vertex -8.693332436601613 -2.329371405922695 10.0
vertex -7.7942286340599445 -4.50000000000001 10.0
endloop
endfacet
facet normal -0.0 -0.0 1.0
outer loop
vertex -7.794228634059955 4.49999999999999 10.0
vertex -7.7942286340599445 -4.50000000000001 10.0
vertex -6.363961030678938 6.363961030678921 10.0
endloop
endfacet
facet normal -0.0 -0.0 1.0
outer loop
vertex -6.363961030678938 6.363961030678921 10.0
vertex -7.7942286340599445 -4.50000000000001 10.0
vertex -6.363961030678921 -6.363961030678938 10.0
endloop
endfacet
facet normal -0.0 -0.0 1.0
outer loop
vertex -6.363961030678938 6.363961030678921 10.0
vertex -6.363961030678921 -6.363961030678938 10.0
vertex -4.500000000000013 7.7942286340599445 10.0
endloop
endfacet
facet normal -0.0 -0.0 1.0
outer loop
vertex -4.500000000000013 7.7942286340599445 10.0
vertex -6.363961030678921 -6.363961030678938 10.0
vertex -4.499999999999993 -7.794228634059954 10.0
endloop
endfacet
facet normal -0.0 -0.0 1.0
outer loop
vertex -4.500000000000013 7.7942286340599445 10.0
vertex -4.499999999999993 -7.794228634059954 10.0
vertex -2.3293714059226964 8.693332436601617 10.0
endloop
endfacet
facet normal -0.0 -0.0 1.0
outer loop
vertex -2.3293714059226964 8.693332436601617 10.0
vertex -4.499999999999993 -7.794228634059954 10.0
vertex -2.3293714059226773 -8.693332436601619 10.0
endloop
endfacet
facet normal -0.0 -0.0 1.0
outer loop
vertex -2.3293714059226964 8.693332436601617 10.0
vertex -2.3293714059226773 -8.693332436601619 10.0
vertex -1.9999999999999996 2.449293598294706e-16 10.0
endloop
endfacet
facet normal -0.0 -0.0 1.0
outer loop
vertex -2.3293714059226964 8.693332436601617 10.0
vertex -1.9999999999999996 2.449293598294706e-16 10.0
vertex -1.931851652578136 0.517638090205042 10.0
endloop
endfacet
facet normal -0.0 -0.0 1.0
outer loop
vertex -2.3293714059226964 8.693332436601617 10.0
vertex -1.931851652578136 0.517638090205042 10.0
vertex -1.2337353361147052e-14 9.000000000000004 10.0
endloop
endfacet
facet normal -0.0 -0.0 1.0
outer loop
vertex -1.2337353361147052e-14 9.000000000000004 10.0
vertex -1.931851652578136 0.517638090205042 10.0
vertex -1.7320508075688765 1.0000000000000007 10.0
endloop
endfacet
facet normal -0.0 -0.0 1.0
outer loop
vertex -1.2337353361147052e-14 9.000000000000004 10.0
vertex -1.7320508075688765 1.0000000000000007 10.0
vertex -1.4142135623730947 1.4142135623730951 10.0
endloop
endfacet
facet normal -0.0 -0.0 1.0
outer loop
vertex -1.2337353361147052e-14 9.000000000000004 10.0
vertex -1.4142135623730947 1.4142135623730951 10.0
vertex -0.9999999999999992 1.7320508075688772 10.0
endloop
endfacet
facet normal -0.0 -0.0 1.0
outer loop
vertex -1.2337353361147052e-14 9.000000000000004 10.0
vertex -0.9999999999999992 1.7320508075688772 10.0
vertex -0.5176380902050411 1.9318516525781364 10.0
endloop
endfacet
facet normal -0.0 -0.0 1.0
outer loop
vertex -1.2337353361147052e-14 9.000000000000004 10.0
vertex -0.5176380902050411 1.9318516525781364 10.0
vertex 1.224646799147353e-16 1.9999999999999998 10.0
endloop
endfacet
facet normal -0.0 -0.0 1.0
outer loop
vertex -1.2337353361147052e-14 9.000000000000004 10.0
vertex 1.224646799147353e-16 1.9999999999999998 10.0
vertex 2.3293714059226733 8.69333243660162 10.0
endloop
endfacet
facet normal -0.0 -0.0 1.0
outer loop
vertex 2.3293714059226733 8.69333243660162 10.0
vertex 1.224646799147353e-16 1.9999999999999998 10.0
vertex 0.5176380902050418 1.9318516525781364 10.0
endloop
endfacet
facet normal -0.0 -0.0 1.0
outer loop
vertex 2.3293714059226733 8.69333243660162 10.0
vertex 0.5176380902050418 1.9318516525781364 10.0
vertex 0.9999999999999999 1.732050807568877 10.0
endloop
endfacet
facet normal -0.0 -0.0 1.0
outer loop
vertex 2.3293714059226733 8.69333243660162 10.0
vertex 0.9999999999999999 1.732050807568877 10.0
vertex 1.414213562373095 1.414213562373095 10.0
endloop
endfacet
facet normal -0.0 -0.0 1.0
outer loop
vertex 2.3293714059226733 8.69333243660162 10.0
vertex 1.414213562373095 1.414213562373095 10.0
vertex 1.732050807568877 0.9999999999999998 10.0
endloop
endfacet
facet normal -0.0 -0.0 1.0
outer loop
vertex 2.3293714059226733 8.69333243660162 10.0
vertex 1.732050807568877 0.9999999999999998 10.0
vertex 1.931851652578136 0.5176380902050415 10.0
endloop
endfacet
facet normal -0.0 -0.0 1.0
outer loop
vertex 2.3293714059226733 8.69333243660162 10.0
vertex 1.931851652578136 0.5176380902050415 10.0
vertex 1.9999999999999996 0.0 10.0
endloop
endfacet
facet normal -0.5357992453815625 -0.14356697510519478 -0.8320502943378439
outer loop
vertex -7.244443697168013 -1.9411428382689078 9.0
vertex -7.7942286340599445 -4.50000000000001 10.0
vertex -8.693332436601613 -2.329371405922695 10.0
endloop
endfacet
facet normal -0.480384461415261 -0.2773500981126149 -0.8320502943378438
outer loop
vertex -7.7942286340599445 -4.50000000000001 10.0
vertex -7.244443697168013 -1.9411428382689078 9.0
vertex -6.495190528383289 -3.750000000000003 9.0
endloop
endfacet
facet normal -0.27735009811261485 0.4803844614152601 -0.8320502943378442
outer loop
vertex -4.500000000000013 7.7942286340599445 10.0
vertex -5.30330085889911 5.303300858899103 9.0
vertex -6.363961030678938 6.363961030678921 10.0
endloop
endfacet
facet normal -0.39223227027636787 0.3922322702763671 -0.8320502943378443
outer loop
vertex -5.30330085889911 5.303300858899103 9.0
vertex -4.500000000000013 7.7942286340599445 10.0
vertex -3.7500000000000036 6.495190528383288 9.0
endloop
endfacet
facet normal -0.14356697510519448 -0.5357992453815621 -0.832050294337844
outer loop
vertex -1.9411428382689049 -7.244443697168013 9.0
vertex 8.81239525796218e-15 -9.000000000000004 10.0
vertex -2.3293714059226773 -8.693332436601619 10.0
endloop
endfacet
facet normal 3.8546913105178015e-16 -0.5547001962252281 -0.8320502943378443
outer loop
vertex 8.81239525796218e-15 -9.000000000000004 10.0
vertex -1.9411428382689049 -7.244443697168013 9.0
vertex 4.592425496802575e-16 -7.5 9.0
endloop
endfacet
facet normal 0.3922322702763678 -0.3922322702763675 -0.8320502943378439
outer loop
vertex 5.303300858899107 -5.303300858899107 9.0
vertex 4.500000000000009 -7.794228634059947 10.0
vertex 3.750000000000001 -6.495190528383289 9.0
endloop
endfacet
facet normal 0.2773500981126147 -0.48038446141526026 -0.8320502943378442
outer loop
vertex 4.500000000000009 -7.794228634059947 10.0
vertex 5.303300858899107 -5.303300858899107 9.0
vertex 6.363961030678934 -6.363961030678924 10.0
endloop
endfacet
facet normal 0.39223227027636715 0.3922322702763681 -0.8320502943378439
outer loop
vertex 6.36396103067892 6.363961030678938 10.0
vertex 6.495190528383288 3.7500000000000036 9.0
vertex 5.303300858899106 5.3033008588991075 9.0
endloop
endfacet
facet normal 0.48038446141526103 0.27735009811261463 -0.8320502943378438
outer loop
vertex 6.495190528383288 3.7500000000000036 9.0
vertex 6.36396103067892 6.363961030678938 10.0
vertex 7.794228634059941 4.500000000000014 10.0
endloop
endfacet
facet normal 0.4803844614152608 0.27735009811261513 -0.8320502943378439
outer loop
vertex 7.794228634059941 4.500000000000014 10.0
vertex 7.244443697168011 1.941142838268912 9.0
vertex 6.495190528383288 3.7500000000000036 9.0
endloop
endfacet
facet normal 0.5357992453815624 0.143566975105195 -0.8320502943378437
outer loop
vertex 7.244443697168011 1.941142838268912 9.0
vertex 7.794228634059941 4.500000000000014 10.0
vertex 8.693332436601613 2.329371405922694 10.0
endloop
endfacet
facet normal 0.5357992453815624 0.14356697510519498 -0.8320502943378437
outer loop
vertex 8.693332436601613 2.329371405922694 10.0
vertex 7.5 0.0 9.0
vertex 7.244443697168011 1.941142838268912 9.0
endloop
endfacet
facet normal 0.5547001962252289 1.5740517051401778e-16 -0.8320502943378439
outer loop
vertex 7.5 0.0 9.0
vertex 8.693332436601613 2.329371405922694 10.0
vertex 9.0 6.697420396051256e-15 10.0
endloop
endfacet
facet normal -0.14356697510519495 0.5357992453815617 -0.8320502943378444
outer loop
vertex -2.3293714059226964 8.693332436601617 10.0
vertex -3.7500000000000036 6.495190528383288 9.0
vertex -4.500000000000013 7.7942286340599445 10.0
endloop
endfacet
facet normal -0.2773500981126146 0.4803844614152604 -0.8320502943378443
outer loop
vertex -3.7500000000000036 6.495190528383288 9.0
vertex -2.3293714059226964 8.693332436601617 10.0
vertex -1.9411428382689115 7.244443697168011 9.0
endloop
endfacet
facet normal 0.1435669751051938 0.5357992453815624 -0.8320502943378439
outer loop
vertex 2.3293714059226733 8.69333243660162 10.0
vertex -1.3777276490407724e-15 7.5 9.0
vertex -1.2337353361147052e-14 9.000000000000004 10.0
endloop
endfacet
facet normal -1.5740517051401778e-16 0.5547001962252281 -0.8320502943378443
outer loop
vertex -1.3777276490407724e-15 7.5 9.0
vertex 2.3293714059226733 8.69333243660162 10.0
vertex 1.9411428382689024 7.2444436971680135 9.0
endloop
endfacet
facet normal -0.39223227027636814 0.3922322702763669 -0.832050294337844
outer loop
vertex -6.363961030678938 6.363961030678921 10.0
vertex -6.495190528383291 3.7499999999999982 9.0
vertex -7.794228634059955 4.49999999999999 10.0
endloop
endfacet
facet normal -0.48038446141526103 0.27735009811261396 -0.832050294337844
outer loop
vertex -6.495190528383291 3.7499999999999982 9.0
vertex -6.363961030678938 6.363961030678921 10.0
vertex -5.30330085889911 5.303300858899103 9.0
endloop
endfacet
facet normal -0.48038446141526137 0.2773500981126137 -0.8320502943378442
outer loop
vertex -7.794228634059955 4.49999999999999 10.0
vertex -7.2444436971680135 1.9411428382689029 9.0
vertex -8.693332436601619 2.329371405922678 10.0
endloop
endfacet
facet normal -0.5357992453815624 0.1435669751051942 -0.8320502943378439
outer loop
vertex -7.2444436971680135 1.9411428382689029 9.0
vertex -7.794228634059955 4.49999999999999 10.0
vertex -6.495190528383291 3.7499999999999982 9.0
endloop
endfacet
facet normal 0.27735009811261374 0.4803844614152612 -0.8320502943378439
outer loop
vertex 4.499999999999992 7.794228634059955 10.0
vertex 5.303300858899106 5.3033008588991075 9.0
vertex 3.749999999999995 6.495190528383294 9.0
endloop
endfacet
facet normal 0.3922322702763676 0.3922322702763678 -0.832050294337844
outer loop
vertex 5.303300858899106 5.3033008588991075 9.0
vertex 4.499999999999992 7.794228634059955 10.0
vertex 6.36396103067892 6.363961030678938 10.0
endloop
endfacet
facet normal 0.14356697510519462 -0.5357992453815618 -0.8320502943378445
outer loop
vertex 1.9411428382689073 -7.244443697168013 9.0
vertex 8.81239525796218e-15 -9.000000000000004 10.0
vertex 4.592425496802575e-16 -7.5 9.0
endloop
endfacet
facet normal 3.8546913105178015e-16 -0.5547001962252281 -0.8320502943378443
outer loop
vertex 8.81239525796218e-15 -9.000000000000004 10.0
vertex 1.9411428382689073 -7.244443697168013 9.0
vertex 2.3293714059226955 -8.693332436601617 10.0
endloop
endfacet
facet normal 0.4803844614152611 -0.2773500981126142 -0.8320502943378439
outer loop
vertex 6.495190528383291 -3.7499999999999996 9.0
vertex 6.363961030678934 -6.363961030678924 10.0
vertex 5.303300858899107 -5.303300858899107 9.0
endloop
endfacet
facet normal 0.3922322702763681 -0.39223227027636726 -0.832050294337844
outer loop
vertex 6.363961030678934 -6.363961030678924 10.0
vertex 6.495190528383291 -3.7499999999999996 9.0
vertex 7.7942286340599525 -4.499999999999995 10.0
endloop
endfacet
facet normal 0.0 0.0 -1.0
outer loop
vertex -2.3293714059226835 8.693332436601617 0.0
vertex -1.931851652578136 0.517638090205042 0.0
vertex -1.9999999999999996 2.449293598294706e-16 0.0
endloop
endfacet
facet normal 0.0 0.0 -1.0
outer loop
vertex -1.931851652578136 0.517638090205042 0.0
vertex -2.3293714059226835 8.693332436601617 0.0
vertex 2.5494925039415907e-15 9.0 0.0
endloop
endfacet
facet normal 0.0 0.0 -1.0
outer loop
vertex -1.931851652578136 0.517638090205042 0.0
vertex 2.5494925039415907e-15 9.0 0.0
vertex -1.7320508075688765 1.0000000000000007 0.0
endloop
endfacet
facet normal 0.0 0.0 -1.0
outer loop
vertex -1.7320508075688765 1.0000000000000007 0.0
vertex 2.5494925039415907e-15 9.0 0.0
vertex -1.4142135623730947 1.4142135623730951 0.0
endloop
endfacet
facet normal 0.0 0.0 -1.0
outer loop
vertex -1.4142135623730947 1.4142135623730951 0.0
vertex 2.5494925039415907e-15 9.0 0.0
vertex -0.9999999999999992 1.7320508075688772 0.0
endloop
endfacet
facet normal 0.0 0.0 -1.0
outer loop
vertex -0.9999999999999992 1.7320508075688772 0.0
vertex 2.5494925039415907e-15 9.0 0.0
vertex -0.5176380902050411 1.9318516525781364 0.0
endloop
endfacet
facet normal 0.0 0.0 -1.0
outer loop
vertex -0.5176380902050411 1.9318516525781364 0.0
vertex 2.5494925039415907e-15 9.0 0.0
vertex 1.224646799147353e-16 1.9999999999999998 0.0
endloop
endfacet
facet normal 0.0 0.0 -1.0
outer loop
vertex 1.224646799147353e-16 1.9999999999999998 0.0
vertex 2.5494925039415907e-15 9.0 0.0
vertex 0.5176380902050418 1.9318516525781364 0.0
endloop
endfacet
facet normal 0.0 0.0 -1.0
outer loop
vertex 0.5176380902050418 1.9318516525781364 0.0
vertex 2.5494925039415907e-15 9.0 0.0
vertex 2.329371405922689 8.693332436601615 0.0
endloop
endfacet
facet normal 0.0 0.0 -1.0
outer loop
vertex 0.5176380902050418 1.9318516525781364 0.0
vertex 2.329371405922689 8.693332436601615 0.0
vertex 0.9999999999999999 1.732050807568877 0.0
endloop
endfacet
facet normal 0.0 0.0 -1.0
outer loop
vertex 0.9999999999999999 1.732050807568877 0.0
vertex 2.329371405922689 8.693332436601615 0.0
vertex 1.414213562373095 1.414213562373095 0.0
endloop
endfacet
facet normal 0.0 0.0 -1.0
outer loop
vertex 1.414213562373095 1.414213562373095 0.0
vertex 2.329371405922689 8.693332436601615 0.0
vertex 1.732050807568877 0.9999999999999998 0.0
endloop
endfacet
facet normal 0.0 0.0 -1.0
outer loop
vertex 1.732050807568877 0.9999999999999998 0.0
vertex 2.329371405922689 8.693332436601615 0.0
vertex 1.931851652578136 0.5176380902050415 0.0
endloop
endfacet
facet normal 0.0 0.0 -1.0
outer loop
vertex 1.931851652578136 0.5176380902050415 0.0
vertex 2.329371405922689 8.693332436601615 0.0
vertex 1.9999999999999996 0.0 0.0
endloop
endfacet
facet normal 0.0 0.0 -1.0
outer loop
vertex 1.9999999999999996 0.0 0.0
vertex 2.329371405922689 8.693332436601615 0.0
vertex 2.3293714059226827 -8.693332436601617 0.0
endloop
endfacet
facet normal 0.0 0.0 -1.0
outer loop
vertex 2.3293714059226827 -8.693332436601617 0.0
vertex 2.329371405922689 8.693332436601615 0.0
vertex 4.499999999999994 -7.794228634059951 0.0
endloop
endfacet
facet normal 0.0 0.0 -1.0
outer loop
vertex 4.499999999999994 -7.794228634059951 0.0
vertex 2.329371405922689 8.693332436601615 0.0
vertex 4.500000000000001 7.794228634059948 0.0
endloop
endfacet
facet normal 0.0 0.0 -1.0
outer loop
vertex 4.499999999999994 -7.794228634059951 0.0
vertex 4.500000000000001 7.794228634059948 0.0
vertex 6.363961030678921 -6.363961030678935 0.0
endloop
endfacet
facet normal 0.0 0.0 -1.0
outer loop
vertex 6.363961030678921 -6.363961030678935 0.0
vertex 4.500000000000001 7.794228634059948 0.0
vertex 6.3639610306789285 6.3639610306789285 0.0
endloop
endfacet
facet normal 0.0 0.0 -1.0
outer loop
vertex 6.363961030678921 -6.363961030678935 0.0
vertex 6.3639610306789285 6.3639610306789285 0.0
vertex 7.794228634059941 -4.5000000000000115 0.0
endloop
endfacet
facet normal 0.0 0.0 -1.0
outer loop
vertex 7.794228634059941 -4.5000000000000115 0.0
vertex 6.3639610306789285 6.3639610306789285 0.0
vertex 7.794228634059948 4.499999999999999 0.0
endloop
endfacet
facet normal 0.0 0.0 -1.0
outer loop
vertex 7.794228634059941 -4.5000000000000115 0.0
vertex 7.794228634059948 4.499999999999999 0.0
vertex 8.693332436601612 -2.3293714059227018 0.0
endloop
endfacet
facet normal 0.0 0.0 -1.0
outer loop
vertex 8.693332436601612 -2.3293714059227018 0.0
vertex 7.794228634059948 4.499999999999999 0.0
vertex 8.693332436601615 2.329371405922687 0.0
endloop
endfacet
facet normal 0.0 0.0 -1.0
outer loop
vertex 8.693332436601612 -2.3293714059227018 0.0
vertex 8.693332436601615 2.329371405922687 0.0
vertex 9.0 -1.819157579306749e-14 0.0
endloop
endfacet
facet normal 0.0 0.0 -1.0
outer loop
vertex -8.693332436601615 2.3293714059226853 0.0
vertex -8.693332436601615 -2.3293714059226907 0.0
vertex -9.0 -2.8946207694179456e-15 0.0
endloop
endfacet
facet normal 0.0 0.0 -1.0
outer loop
vertex -8.693332436601615 -2.3293714059226907 0.0
vertex -8.693332436601615 2.3293714059226853 0.0
vertex -7.794228634059948 4.499999999999999 0.0
endloop
endfacet
facet normal 0.0 0.0 -1.0
outer loop
vertex -8.693332436601615 -2.3293714059226907 0.0
vertex -7.794228634059948 4.499999999999999 0.0
vertex -7.794228634059945 -4.500000000000005 0.0
endloop
endfacet
facet normal 0.0 0.0 -1.0
outer loop
vertex -7.794228634059945 -4.500000000000005 0.0
vertex -7.794228634059948 4.499999999999999 0.0
vertex -6.3639610306789285 6.3639610306789285 0.0
endloop
endfacet
facet normal 0.0 0.0 -1.0
outer loop
vertex -7.794228634059945 -4.500000000000005 0.0
vertex -6.3639610306789285 6.3639610306789285 0.0
vertex -6.363961030678924 -6.363961030678932 0.0
endloop
endfacet
facet normal 0.0 0.0 -1.0
outer loop
vertex -6.363961030678924 -6.363961030678932 0.0
vertex -6.3639610306789285 6.3639610306789285 0.0
vertex -4.499999999999998 7.794228634059948 0.0
endloop
endfacet
facet normal 0.0 0.0 -1.0
outer loop
vertex -6.363961030678924 -6.363961030678932 0.0
vertex -4.499999999999998 7.794228634059948 0.0
vertex -4.4999999999999964 -7.79422863405995 0.0
endloop
endfacet
facet normal 0.0 0.0 -1.0
outer loop
vertex -4.4999999999999964 -7.79422863405995 0.0
vertex -4.499999999999998 7.794228634059948 0.0
vertex -2.3293714059226835 8.693332436601617 0.0
endloop
endfacet
facet normal 0.0 0.0 -1.0
outer loop
vertex -4.4999999999999964 -7.79422863405995 0.0
vertex -2.3293714059226835 8.693332436601617 0.0
vertex -2.3293714059226858 -8.693332436601615 0.0
endloop
endfacet
facet normal 0.0 0.0 -1.0
outer loop
vertex -2.3293714059226858 -8.693332436601615 0.0
vertex -2.3293714059226835 8.693332436601617 0.0
vertex -1.9999999999999996 2.449293598294706e-16 0.0
endloop
endfacet
facet normal 0.0 0.0 -1.0
outer loop
vertex -2.3293714059226858 -8.693332436601615 0.0
vertex -1.9999999999999996 2.449293598294706e-16 0.0
vertex -1.9318516525781364 -0.5176380902050407 0.0
endloop
endfacet
facet normal 0.0 0.0 -1.0
outer loop
vertex -2.3293714059226858 -8.693332436601615 0.0
vertex -1.9318516525781364 -0.5176380902050407 0.0
vertex -1.6532731788489267e-15 -9.0 0.0
endloop
endfacet
facet normal 0.0 0.0 -1.0
outer loop
vertex -1.6532731788489267e-15 -9.0 0.0
vertex -1.9318516525781364 -0.5176380902050407 0.0
vertex -1.7320508075688772 -0.9999999999999994 0.0
endloop
endfacet
facet normal 0.0 0.0 -1.0
outer loop
vertex -1.6532731788489267e-15 -9.0 0.0
vertex -1.7320508075688772 -0.9999999999999994 0.0
vertex -1.4142135623730956 -1.4142135623730943 0.0
endloop
endfacet
facet normal 0.0 0.0 -1.0
outer loop
vertex -1.6532731788489267e-15 -9.0 0.0
vertex -1.4142135623730956 -1.4142135623730943 0.0
vertex -1.0000000000000007 -1.7320508075688765 0.0
endloop
endfacet
facet normal 0.0 0.0 -1.0
outer loop
vertex -1.6532731788489267e-15 -9.0 0.0
vertex -1.0000000000000007 -1.7320508075688765 0.0
vertex -0.5176380902050429 -1.931851652578136 0.0
endloop
endfacet
facet normal 0.0 0.0 -1.0
outer loop
vertex -1.6532731788489267e-15 -9.0 0.0
vertex -0.5176380902050429 -1.931851652578136 0.0
vertex -3.6739403974420584e-16 -1.9999999999999998 0.0
endloop
endfacet
facet normal 0.0 0.0 -1.0
outer loop
vertex -1.6532731788489267e-15 -9.0 0.0
vertex -3.6739403974420584e-16 -1.9999999999999998 0.0
vertex 2.3293714059226827 -8.693332436601617 0.0
endloop
endfacet
facet normal 0.0 0.0 -1.0
outer loop
vertex 2.3293714059226827 -8.693332436601617 0.0
vertex -3.6739403974420584e-16 -1.9999999999999998 0.0
vertex 0.5176380902050405 -1.9318516525781366 0.0
endloop
endfacet
facet normal 0.0 0.0 -1.0
outer loop
vertex 2.3293714059226827 -8.693332436601617 0.0
vertex 0.5176380902050405 -1.9318516525781366 0.0
vertex 0.9999999999999983 -1.732050807568878 0.0
endloop
endfacet
facet normal 0.0 0.0 -1.0
outer loop
vertex 2.3293714059226827 -8.693332436601617 0.0
vertex 0.9999999999999983 -1.732050807568878 0.0
vertex 1.4142135623730943 -1.4142135623730951 0.0
endloop
endfacet
facet normal 0.0 0.0 -1.0
outer loop
vertex 2.3293714059226827 -8.693332436601617 0.0
vertex 1.4142135623730943 -1.4142135623730951 0.0
vertex 1.7320508075688763 -1.0000000000000009 0.0
endloop
endfacet
facet normal 0.0 0.0 -1.0
outer loop
vertex 2.3293714059226827 -8.693332436601617 0.0
vertex 1.7320508075688763 -1.0000000000000009 0.0
vertex 1.9318516525781357 -0.517638090205043 0.0
endloop
endfacet
facet normal 0.0 0.0 -1.0
outer loop
vertex 2.3293714059226827 -8.693332436601617 0.0
vertex 1.9318516525781357 -0.517638090205043 0.0
vertex 1.9999999999999996 0.0 0.0
endloop
endfacet
facet normal -0.2773500981126148 0.4803844614152612 0.8320502943378437
outer loop
vertex -3.7500000000000036 6.495190528383288 1.9999999999999984
vertex -2.3293714059226835 8.693332436601615 0.9999999999999989
vertex -4.4999999999999964 7.79422863405995 0.9999999999999989
endloop
endfacet
facet normal -0.14356697510519453 0.5357992453815628 0.8320502943378436
outer loop
vertex -2.3293714059226835 8.693332436601615 0.9999999999999989
vertex -3.7500000000000036 6.495190528383288 1.9999999999999984
vertex -1.9411428382689115 7.244443697168011 1.9999999999999984
endloop
endfacet
facet normal 0.27735009811261435 -0.4803844614152605 -0.8320502943378442
outer loop
vertex 3.750000000000001 -6.495190528383289 9.0
vertex 2.3293714059226955 -8.693332436601617 10.0
vertex 1.9411428382689073 -7.244443697168013 9.0
endloop
endfacet
facet normal 0.14356697510519487 -0.5357992453815617 -0.8320502943378444
outer loop
vertex 2.3293714059226955 -8.693332436601617 10.0
vertex 3.750000000000001 -6.495190528383289 9.0
vertex 4.500000000000009 -7.794228634059947 10.0
endloop
endfacet
facet normal 0.5357992453815624 -0.14356697510519445 -0.8320502943378439
outer loop
vertex 7.244443697168013 -1.9411428382689055 9.0
vertex 7.7942286340599525 -4.499999999999995 10.0
vertex 6.495190528383291 -3.7499999999999996 9.0
endloop
endfacet
facet normal 0.48038446141526125 -0.27735009811261396 -0.8320502943378439
outer loop
vertex 7.7942286340599525 -4.499999999999995 10.0
vertex 7.244443697168013 -1.9411428382689055 9.0
vertex 8.693332436601617 -2.3293714059226804 10.0
endloop
endfacet
facet normal 0.5547001962252289 1.5740517051401778e-16 -0.8320502943378439
outer loop
vertex 7.5 0.0 9.0
vertex 8.693332436601617 -2.3293714059226804 10.0
vertex 7.244443697168013 -1.9411428382689055 9.0
endloop
endfacet
facet normal 0.5357992453815624 -0.14356697510519412 -0.8320502943378439
outer loop
vertex 8.693332436601617 -2.3293714059226804 10.0
vertex 7.5 0.0 9.0
vertex 9.0 6.697420396051256e-15 10.0
endloop
endfacet
facet normal -0.4803844614152611 -0.27735009811261463 -0.8320502943378438
outer loop
vertex -6.495190528383289 -3.750000000000003 9.0
vertex -6.363961030678921 -6.363961030678938 10.0
vertex -7.7942286340599445 -4.50000000000001 10.0
endloop
endfacet
facet normal -0.39223227027636715 -0.3922322702763682 -0.832050294337844
outer loop
vertex -6.363961030678921 -6.363961030678938 10.0
vertex -6.495190528383289 -3.750000000000003 9.0
vertex -5.303300858899107 -5.303300858899107 9.0
endloop
endfacet
facet normal -6.662429425586324e-16 0.5547001962252281 -0.8320502943378444
outer loop
vertex -1.2337353361147052e-14 9.000000000000004 10.0
vertex -1.9411428382689115 7.244443697168011 9.0
vertex -2.3293714059226964 8.693332436601617 10.0
endloop
endfacet
facet normal -0.1435669751051949 0.5357992453815617 -0.8320502943378443
outer loop
vertex -1.9411428382689115 7.244443697168011 9.0
vertex -1.2337353361147052e-14 9.000000000000004 10.0
vertex -1.3777276490407724e-15 7.5 9.0
endloop
endfacet
facet normal -0.5357992453815624 0.14356697510519392 -0.8320502943378439
outer loop
vertex -8.693332436601619 2.329371405922678 10.0
vertex -7.5 -9.18485099360515e-16 9.0
vertex -9.0 -1.0222378499236128e-14 10.0
endloop
endfacet
facet normal -0.5547001962252289 -2.692456864055568e-16 -0.8320502943378438
outer loop
vertex -7.5 -9.18485099360515e-16 9.0
vertex -8.693332436601619 2.329371405922678 10.0
vertex -7.2444436971680135 1.9411428382689029 9.0
endloop
endfacet
facet normal 0.1435669751051938 0.5357992453815624 -0.8320502943378439
outer loop
vertex 2.3293714059226733 8.69333243660162 10.0
vertex 3.749999999999995 6.495190528383294 9.0
vertex 1.9411428382689024 7.2444436971680135 9.0
endloop
endfacet
facet normal 0.2773500981126139 0.48038446141526114 -0.8320502943378439
outer loop
vertex 3.749999999999995 6.495190528383294 9.0
vertex 2.3293714059226733 8.69333243660162 10.0
vertex 4.499999999999992 7.794228634059955 10.0
endloop
endfacet
facet normal -0.8660254037844388 0.49999999999999967 -2.36662738743861e-16
outer loop
vertex -6.495190528383291 3.7499999999999982 9.0
vertex -7.244443697168013 1.9411428382689029 1.9999999999999984
vertex -7.2444436971680135 1.9411428382689029 9.0
endloop
endfacet
facet normal -0.9659258262890684 0.2588190451025206 -2.87457365270804e-16
outer loop
vertex -7.244443697168013 1.9411428382689029 1.9999999999999984
vertex -6.495190528383291 3.7499999999999982 9.0
vertex -6.495190528383288 3.7499999999999982 1.9999999999999984
endloop
endfacet
facet normal -0.9659258262890683 -0.25881904510252063 -3.418285104868291e-16
outer loop
vertex -7.244443697168013 -1.9411428382689078 9.0
vertex -6.495190528383288 -3.750000000000003 1.9999999999999984
vertex -6.495190528383289 -3.750000000000003 9.0
endloop
endfacet
facet normal -0.8660254037844386 -0.5 -1.816712133181626e-16
outer loop
vertex -6.495190528383288 -3.750000000000003 1.9999999999999984
vertex -7.244443697168013 -1.9411428382689078 9.0
vertex -7.244443697168009 -1.9411428382689078 1.9999999999999984
endloop
endfacet
facet normal 0.4803844614152613 0.27735009811261474 0.8320502943378438
outer loop
vertex 6.495190528383288 3.7500000000000036 1.9999999999999984
vertex 6.363961030678929 6.363961030678927 0.9999999999999989
vertex 5.303300858899107 5.3033008588991075 1.9999999999999984
endloop
endfacet
facet normal 0.392232270276368 0.39223227027636803 0.8320502943378438
outer loop
vertex 6.363961030678929 6.363961030678927 0.9999999999999989
vertex 6.495190528383288 3.7500000000000036 1.9999999999999984
vertex 7.79422863405995 4.499999999999999 0.9999999999999989
endloop
endfacet
facet normal -0.8660254037844386 0.5 2.867076027677209e-15
outer loop
vertex -7.7942286340599445 4.5 0.9999999999999989
vertex -6.3639610306789285 6.3639610306789285 0.0
vertex -7.794228634059948 4.499999999999999 0.0
endloop
endfacet
facet normal -0.7071067811865479 0.7071067811865472 1.7057802583584126e-15
outer loop
vertex -6.3639610306789285 6.3639610306789285 0.0
vertex -7.7942286340599445 4.5 0.9999999999999989
vertex -6.363961030678924 6.363961030678929 0.9999999999999989
endloop
endfacet
facet normal 1.0 -1.4435998030947984e-15 -2.842425566538682e-15
outer loop
vertex 9.0 -1.819157579306749e-14 0.0
vertex 8.693332436601615 -2.329371405922699 0.9999999999999989
vertex 8.693332436601612 -2.3293714059227018 0.0
endloop
endfacet
facet normal 0.9659258262890679 -0.258819045102522 -2.7798987375444865e-15
outer loop
vertex 8.693332436601615 -2.329371405922699 0.9999999999999989
vertex 9.0 -1.819157579306749e-14 0.0
vertex 9.000000000000004 -1.5509815654013436e-14 0.9999999999999989
endloop
endfacet
facet normal -0.8660254037844386 -0.5000000000000001 1.933489641671271e-15
outer loop
vertex -7.7942286340599445 -4.500000000000003 0.9999999999999989
vertex -8.693332436601615 -2.3293714059226907 0.0
vertex -7.794228634059945 -4.500000000000005 0.0
endloop
endfacet
facet normal -0.9659258262890682 -0.2588190451025211 2.8400502003100906e-15
outer loop
vertex -8.693332436601615 -2.3293714059226907 0.0
vertex -7.7942286340599445 -4.500000000000003 0.9999999999999989
vertex -8.693332436601612 -2.3293714059226893 0.9999999999999989
endloop
endfacet
facet normal 0.49999999999999956 0.8660254037844389 1.402426697542782e-17
outer loop
vertex 3.749999999999995 6.495190528383294 9.0
vertex 5.303300858899107 5.3033008588991075 1.9999999999999984
vertex 3.749999999999995 6.495190528383294 1.9999999999999984
endloop
endfacet
facet normal 0.7071067811865474 0.7071067811865477 3.458564510303888e-17
outer loop
vertex 5.303300858899107 5.3033008588991075 1.9999999999999984
vertex 3.749999999999995 6.495190528383294 9.0
vertex 5.303300858899106 5.3033008588991075 9.0
endloop
endfacet
facet normal -0.14356697510519442 -0.5357992453815629 0.8320502943378436
outer loop
vertex -2.329371405922683 -8.693332436601615 0.9999999999999989
vertex -3.7499999999999982 -6.495190528383291 1.9999999999999984
vertex -4.499999999999994 -7.794228634059951 0.9999999999999989
endloop
endfacet
facet normal -0.2773500981126142 -0.48038446141526137 0.8320502943378437
outer loop
vertex -3.7499999999999982 -6.495190528383291 1.9999999999999984
vertex -2.329371405922683 -8.693332436601615 0.9999999999999989
vertex -1.9411428382689044 -7.244443697168013 1.9999999999999984
endloop
endfacet
endsolid idler_GT2
