solid pcb holder
facet normal 0.0 -1.0 0.0
outer loop
vertex 3.5883255114735153 -8.668506836793306 19.999999999999964
vertex -0.00012207031247388755 -8.668506836793306 2.8199664825478975e-15
vertex 3.5883255114735153 -8.668506836793306 2.8199664825478975e-15
endloop
endfacet
facet normal 0.0 -1.0 0.0
outer loop
vertex -0.00012207031247388755 -8.668506836793306 2.8199664825478975e-15
vertex 3.5883255114735153 -8.668506836793306 19.999999999999964
vertex -0.00012207031247388755 -8.668506836793306 19.999999999999964
endloop
endfacet
facet normal 0.0 -1.0 0.0
outer loop
vertex 23.576923346333448 -8.668506836793306 19.999999999999964
vertex 12.412376332381092 -8.668506836793306 2.8199664825478975e-15
vertex 23.576923346333448 -8.668506836793306 2.8199664825478975e-15
endloop
endfacet
facet normal 0.0 -1.0 0.0
outer loop
vertex 12.412376332381092 -8.668506836793306 2.8199664825478975e-15
vertex 23.576923346333448 -8.668506836793306 19.999999999999964
vertex 12.412376332381092 -8.668506836793306 19.999999999999964
endloop
endfacet
facet normal 0.0 -1.0 0.0
outer loop
vertex 35.99987792968753 -8.668506836793306 19.999999999999964
vertex 32.43845035589566 -8.668506836793306 2.8199664825478975e-15
vertex 35.99987792968753 -8.668506836793306 2.8199664825478975e-15
endloop
endfacet
facet normal 0.0 -1.0 0.0
outer loop
vertex 32.43845035589566 -8.668506836793306 2.8199664825478975e-15
vertex 35.99987792968753 -8.668506836793306 19.999999999999964
vertex 32.43845035589566 -8.668506836793306 19.999999999999964
endloop
endfacet
facet normal 0.0 0.0 1.0
outer loop
vertex 3.5883255114735153 -8.668506836793306 19.999999999999964
vertex 0.0 0.0 19.999999999999964
vertex -0.00012207031247388755 -8.668506836793306 19.999999999999964
endloop
endfacet
facet normal 0.0 0.0 1.0
outer loop
vertex 0.0 0.0 19.999999999999964
vertex 3.5883255114735153 -8.668506836793306 19.999999999999964
vertex 3.5000360642946315 -8.018016983996576 19.999999999999964
endloop
endfacet
facet normal 0.0 0.0 1.0
outer loop
vertex 23.576923346333448 -8.668506836793306 19.999999999999964
vertex 12.4999639357057 -7.98198492335207 19.999999999999964
vertex 12.412376332381092 -8.668506836793306 19.999999999999964
endloop
endfacet
facet normal 0.0 0.0 1.0
outer loop
vertex 12.4999639357057 -7.98198492335207 19.999999999999964
vertex 23.576923346333448 -8.668506836793306 19.999999999999964
vertex 18.307739257812173 0.0 19.999999999999964
endloop
endfacet
facet normal 0.0 0.0 1.0
outer loop
vertex 18.307739257812173 0.0 19.999999999999964
vertex 23.576923346333448 -8.668506836793306 19.999999999999964
vertex 19.499999999999716 0.0 19.999999999999964
endloop
endfacet
facet normal 0.0 0.0 1.0
outer loop
vertex 18.307739257812173 0.0 19.999999999999964
vertex 19.499999999999716 0.0 19.999999999999964
vertex 18.307739257812173 2.9999999999999947 19.999999999999964
endloop
endfacet
facet normal 0.0 0.0 1.0
outer loop
vertex 19.499999999999716 0.0 19.999999999999964
vertex 23.576923346333448 -8.668506836793306 19.999999999999964
vertex 21.500000000000345 0.0 19.999999999999964
endloop
endfacet
facet normal 0.0 0.0 1.0
outer loop
vertex 21.500000000000345 0.0 19.999999999999964
vertex 23.576923346333448 -8.668506836793306 19.999999999999964
vertex 23.51866736371598 -8.410795139886204 19.999999999999964
endloop
endfacet
facet normal 0.0 0.0 1.0
outer loop
vertex 21.500000000000345 0.0 19.999999999999964
vertex 23.51866736371598 -8.410795139886204 19.999999999999964
vertex 21.500000000000345 2.9999999999999947 19.999999999999964
endloop
endfacet
facet normal 0.0 0.0 1.0
outer loop
vertex 21.500000000000345 2.9999999999999947 19.999999999999964
vertex 23.51866736371598 -8.410795139886204 19.999999999999964
vertex 23.000000000000366 0.0 19.999999999999964
endloop
endfacet
facet normal 0.0 0.0 1.0
outer loop
vertex 35.99987792968753 -8.668506836793306 19.999999999999964
vertex 32.48108849565911 -7.589206767462443 19.999999999999964
vertex 32.43845035589566 -8.668506836793306 19.999999999999964
endloop
endfacet
facet normal 0.0 0.0 1.0
outer loop
vertex 32.48108849565911 -7.589206767462443 19.999999999999964
vertex 35.99987792968753 -8.668506836793306 19.999999999999964
vertex 32.4998779296876 2.9999999999999947 19.999999999999964
endloop
endfacet
facet normal 0.0 0.0 1.0
outer loop
vertex 32.4998779296876 2.9999999999999947 19.999999999999964
vertex 35.99987792968753 -8.668506836793306 19.999999999999964
vertex 34.49987792968751 2.9999999999999947 19.999999999999964
endloop
endfacet
facet normal 0.0 0.0 1.0
outer loop
vertex 34.49987792968751 2.9999999999999947 19.999999999999964
vertex 35.99987792968753 -8.668506836793306 19.999999999999964
vertex 34.49987792968751 10.366812244099934 19.999999999999964
endloop
endfacet
facet normal 0.0 0.0 1.0
outer loop
vertex 34.49987792968751 10.366812244099934 19.999999999999964
vertex 35.99987792968753 -8.668506836793306 19.999999999999964
vertex 35.99987792968753 10.366812244099934 19.999999999999964
endloop
endfacet
facet normal 0.0 0.0 1.0
outer loop
vertex 23.000000000000366 0.0 19.999999999999964
vertex 25.40351444571518 -4.324555856941682 19.999999999999964
vertex 30.99987792968758 0.0 19.999999999999964
endloop
endfacet
facet normal 0.0 0.0 1.0
outer loop
vertex 25.40351444571518 -4.324555856941682 19.999999999999964
vertex 23.000000000000366 0.0 19.999999999999964
vertex 24.540708195821672 -5.121781929293492 19.999999999999964
endloop
endfacet
facet normal 0.0 0.0 1.0
outer loop
vertex 24.540708195821672 -5.121781929293492 19.999999999999964
vertex 23.000000000000366 0.0 19.999999999999964
vertex 23.913638646742914 -6.115153871675005 19.999999999999964
endloop
endfacet
facet normal 0.0 0.0 1.0
outer loop
vertex 23.913638646742914 -6.115153871675005 19.999999999999964
vertex 23.000000000000366 0.0 19.999999999999964
vertex 23.565039551966937 -7.236975027837712 19.999999999999964
endloop
endfacet
facet normal 0.0 0.0 1.0
outer loop
vertex 23.565039551966937 -7.236975027837712 19.999999999999964
vertex 23.000000000000366 0.0 19.999999999999964
vertex 23.51866736371598 -8.410795139886204 19.999999999999964
endloop
endfacet
facet normal 0.0 0.0 1.0
outer loop
vertex 30.99987792968758 0.0 19.999999999999964
vertex 25.40351444571518 -4.324555856941682 19.999999999999964
vertex 26.443258576348054 -3.7778052939720173 19.999999999999964
endloop
endfacet
facet normal 0.0 0.0 1.0
outer loop
vertex 30.99987792968758 0.0 19.999999999999964
vertex 26.443258576348054 -3.7778052939720173 19.999999999999964
vertex 27.58908374347546 -3.5187903877028233 19.999999999999964
endloop
endfacet
facet normal 0.0 0.0 1.0
outer loop
vertex 30.99987792968758 0.0 19.999999999999964
vertex 27.58908374347546 -3.5187903877028233 19.999999999999964
vertex 28.762903855524133 -3.5651625759539596 19.999999999999964
endloop
endfacet
facet normal 0.0 0.0 1.0
outer loop
vertex 30.99987792968758 0.0 19.999999999999964
vertex 28.762903855524133 -3.5651625759539596 19.999999999999964
vertex 29.884725011686747 -3.913761670729824 19.999999999999964
endloop
endfacet
facet normal 0.0 0.0 1.0
outer loop
vertex 30.99987792968758 0.0 19.999999999999964
vertex 29.884725011686747 -3.913761670729824 19.999999999999964
vertex 30.878096954068305 -4.54083121980863 19.999999999999964
endloop
endfacet
facet normal 0.0 0.0 1.0
outer loop
vertex 30.99987792968758 0.0 19.999999999999964
vertex 30.878096954068305 -4.54083121980863 19.999999999999964
vertex 31.67532302642009 -5.403637469702116 19.999999999999964
endloop
endfacet
facet normal 0.0 0.0 1.0
outer loop
vertex 30.99987792968758 0.0 19.999999999999964
vertex 31.67532302642009 -5.403637469702116 19.999999999999964
vertex 30.99987792968758 10.366812244099934 19.999999999999964
endloop
endfacet
facet normal 0.0 0.0 1.0
outer loop
vertex 30.99987792968758 10.366812244099934 19.999999999999964
vertex 31.67532302642009 -5.403637469702116 19.999999999999964
vertex 32.4998779296876 10.366812244099934 19.999999999999964
endloop
endfacet
facet normal 0.0 0.0 1.0
outer loop
vertex 32.4998779296876 10.366812244099934 19.999999999999964
vertex 31.67532302642009 -5.403637469702116 19.999999999999964
vertex 32.222073589389645 -6.4433816003347895 19.999999999999964
endloop
endfacet
facet normal 0.0 0.0 1.0
outer loop
vertex 32.4998779296876 10.366812244099934 19.999999999999964
vertex 32.222073589389645 -6.4433816003347895 19.999999999999964
vertex 32.48108849565911 -7.589206767462443 19.999999999999964
endloop
endfacet
facet normal 0.0 0.0 1.0
outer loop
vertex 32.4998779296876 10.366812244099934 19.999999999999964
vertex 32.48108849565911 -7.589206767462443 19.999999999999964
vertex 32.4998779296876 2.9999999999999947 19.999999999999964
endloop
endfacet
facet normal 0.0 0.0 1.0
outer loop
vertex 23.000000000000366 2.9999999999999947 19.999999999999964
vertex 21.500000000000345 2.9999999999999947 19.999999999999964
vertex 23.000000000000366 0.0 19.999999999999964
endloop
endfacet
facet normal 0.0 0.0 1.0
outer loop
vertex 19.499999999999716 2.9999999999999947 19.999999999999964
vertex 18.307739257812173 2.9999999999999947 19.999999999999964
vertex 19.499999999999716 0.0 19.999999999999964
endloop
endfacet
facet normal 0.0 0.0 1.0
outer loop
vertex 0.0 0.0 19.999999999999964
vertex 6.817921482189534 -3.6580324625714247 19.999999999999964
vertex 18.307739257812173 0.0 19.999999999999964
endloop
endfacet
facet normal 0.0 0.0 1.0
outer loop
vertex 6.817921482189534 -3.6580324625714247 19.999999999999964
vertex 0.0 0.0 19.999999999999964
vertex 5.734415692212767 -4.1119258844006055 19.999999999999964
endloop
endfacet
facet normal 0.0 0.0 1.0
outer loop
vertex 5.734415692212767 -4.1119258844006055 19.999999999999964
vertex 0.0 0.0 19.999999999999964
vertex 4.805305728756634 -4.830785196852921 19.999999999999964
endloop
endfacet
facet normal 0.0 0.0 1.0
outer loop
vertex 4.805305728756634 -4.830785196852921 19.999999999999964
vertex 0.0 0.0 19.999999999999964
vertex 4.09390890040422 -5.765621325755959 19.999999999999964
endloop
endfacet
facet normal 0.0 0.0 1.0
outer loop
vertex 4.09390890040422 -5.765621325755959 19.999999999999964
vertex 0.0 0.0 19.999999999999964
vertex 3.648705725367954 -6.852726733814688 19.999999999999964
endloop
endfacet
facet normal 0.0 0.0 1.0
outer loop
vertex 3.648705725367954 -6.852726733814688 19.999999999999964
vertex 0.0 0.0 19.999999999999964
vertex 3.5000360642946315 -8.018016983996576 19.999999999999964
endloop
endfacet
facet normal 0.0 0.0 1.0
outer loop
vertex 18.307739257812173 0.0 19.999999999999964
vertex 6.817921482189534 -3.6580324625714247 19.999999999999964
vertex 7.981983969677777 -3.500037017968719 19.999999999999964
endloop
endfacet
facet normal 0.0 0.0 1.0
outer loop
vertex 18.307739257812173 0.0 19.999999999999964
vertex 7.981983969677777 -3.500037017968719 19.999999999999964
vertex 9.147274219859689 -3.648706679042334 19.999999999999964
endloop
endfacet
facet normal 0.0 0.0 1.0
outer loop
vertex 18.307739257812173 0.0 19.999999999999964
vertex 9.147274219859689 -3.648706679042334 19.999999999999964
vertex 10.234379627918301 -4.093909854078352 19.999999999999964
endloop
endfacet
facet normal 0.0 0.0 1.0
outer loop
vertex 18.307739257812173 0.0 19.999999999999964
vertex 10.234379627918301 -4.093909854078352 19.999999999999964
vertex 11.169215756821385 -4.80530668243106 19.999999999999964
endloop
endfacet
facet normal 0.0 0.0 1.0
outer loop
vertex 18.307739257812173 0.0 19.999999999999964
vertex 11.169215756821385 -4.80530668243106 19.999999999999964
vertex 11.888075069273723 -5.734416645887103 19.999999999999964
endloop
endfacet
facet normal 0.0 0.0 1.0
outer loop
vertex 18.307739257812173 0.0 19.999999999999964
vertex 11.888075069273723 -5.734416645887103 19.999999999999964
vertex 12.34196849110286 -6.8179224358637365 19.999999999999964
endloop
endfacet
facet normal 0.0 0.0 1.0
outer loop
vertex 18.307739257812173 0.0 19.999999999999964
vertex 12.34196849110286 -6.8179224358637365 19.999999999999964
vertex 12.4999639357057 -7.98198492335207 19.999999999999964
endloop
endfacet
facet normal 0.0 1.0 0.0
outer loop
vertex 19.499999999999716 0.0 19.999999999999964
vertex 21.500000000000345 0.0 0.0
vertex 19.499999999999716 0.0 0.0
endloop
endfacet
facet normal 0.0 1.0 0.0
outer loop
vertex 21.500000000000345 0.0 0.0
vertex 19.499999999999716 0.0 19.999999999999964
vertex 21.500000000000345 0.0 19.999999999999964
endloop
endfacet
facet normal 0.0 1.0 0.0
outer loop
vertex 18.307739257812173 2.9999999999999947 19.999999999999964
vertex 19.499999999999716 2.9999999999999947 0.0
vertex 18.307739257812173 2.9999999999999947 0.0
endloop
endfacet
facet normal 0.0 1.0 0.0
outer loop
vertex 19.499999999999716 2.9999999999999947 0.0
vertex 18.307739257812173 2.9999999999999947 19.999999999999964
vertex 19.499999999999716 2.9999999999999947 19.999999999999964
endloop
endfacet
facet normal 0.0 1.0 0.0
outer loop
vertex 21.500000000000345 2.9999999999999947 19.999999999999964
vertex 23.000000000000366 2.9999999999999947 0.0
vertex 21.500000000000345 2.9999999999999947 0.0
endloop
endfacet
facet normal 0.0 1.0 0.0
outer loop
vertex 23.000000000000366 2.9999999999999947 0.0
vertex 21.500000000000345 2.9999999999999947 19.999999999999964
vertex 23.000000000000366 2.9999999999999947 19.999999999999964
endloop
endfacet
facet normal 1.0 0.0 0.0
outer loop
vertex 23.000000000000366 2.9999999999999947 0.0
vertex 23.000000000000366 0.0 19.999999999999964
vertex 23.000000000000366 0.0 0.0
endloop
endfacet
facet normal 1.0 0.0 0.0
outer loop
vertex 23.000000000000366 0.0 19.999999999999964
vertex 23.000000000000366 2.9999999999999947 0.0
vertex 23.000000000000366 2.9999999999999947 19.999999999999964
endloop
endfacet
facet normal 0.0 1.0 0.0
outer loop
vertex 23.000000000000366 0.0 19.999999999999964
vertex 30.99987792968758 0.0 0.0
vertex 23.000000000000366 0.0 0.0
endloop
endfacet
facet normal 0.0 1.0 0.0
outer loop
vertex 30.99987792968758 0.0 0.0
vertex 23.000000000000366 0.0 19.999999999999964
vertex 30.99987792968758 0.0 19.999999999999964
endloop
endfacet
facet normal -1.0 0.0 0.0
outer loop
vertex 30.99987792968758 10.366812244099934 19.999999999999964
vertex 30.99987792968758 0.0 0.0
vertex 30.99987792968758 0.0 19.999999999999964
endloop
endfacet
facet normal -1.0 0.0 0.0
outer loop
vertex 30.99987792968758 0.0 0.0
vertex 30.99987792968758 10.366812244099934 19.999999999999964
vertex 30.99987792968758 10.366812244099934 0.0
endloop
endfacet
facet normal 0.0 1.0 0.0
outer loop
vertex 30.99987792968758 10.366812244099934 19.999999999999964
vertex 32.4998779296876 10.366812244099934 0.0
vertex 30.99987792968758 10.366812244099934 0.0
endloop
endfacet
facet normal 0.0 1.0 0.0
outer loop
vertex 32.4998779296876 10.366812244099934 0.0
vertex 30.99987792968758 10.366812244099934 19.999999999999964
vertex 32.4998779296876 10.366812244099934 19.999999999999964
endloop
endfacet
facet normal 1.0 0.0 0.0
outer loop
vertex 32.4998779296876 10.366812244099934 0.0
vertex 32.4998779296876 2.9999999999999947 19.999999999999964
vertex 32.4998779296876 2.9999999999999947 0.0
endloop
endfacet
facet normal 1.0 0.0 0.0
outer loop
vertex 32.4998779296876 2.9999999999999947 19.999999999999964
vertex 32.4998779296876 10.366812244099934 0.0
vertex 32.4998779296876 10.366812244099934 19.999999999999964
endloop
endfacet
facet normal 0.0 1.0 0.0
outer loop
vertex 32.4998779296876 2.9999999999999947 19.999999999999964
vertex 34.49987792968751 2.9999999999999947 0.0
vertex 32.4998779296876 2.9999999999999947 0.0
endloop
endfacet
facet normal 0.0 1.0 0.0
outer loop
vertex 34.49987792968751 2.9999999999999947 0.0
vertex 32.4998779296876 2.9999999999999947 19.999999999999964
vertex 34.49987792968751 2.9999999999999947 19.999999999999964
endloop
endfacet
facet normal -0.999999999900848 1.4082046050152374e-05 -2.6339608302440214e-23
outer loop
vertex 0.0 0.0 19.999999999999964
vertex -0.00012207031247388755 -8.668506836793306 2.8199664825478975e-15
vertex -0.00012207031247388755 -8.668506836793306 19.999999999999964
endloop
endfacet
facet normal -0.999999999900848 1.4082046050152374e-05 -2.6339608302440214e-23
outer loop
vertex -0.00012207031247388755 -8.668506836793306 2.8199664825478975e-15
vertex 0.0 0.0 19.999999999999964
vertex 0.0 0.0 0.0
endloop
endfacet
facet normal -1.0 0.0 0.0
outer loop
vertex 34.49987792968751 10.366812244099934 19.999999999999964
vertex 34.49987792968751 2.9999999999999947 0.0
vertex 34.49987792968751 2.9999999999999947 19.999999999999964
endloop
endfacet
facet normal -1.0 0.0 0.0
outer loop
vertex 34.49987792968751 2.9999999999999947 0.0
vertex 34.49987792968751 10.366812244099934 19.999999999999964
vertex 34.49987792968751 10.366812244099934 0.0
endloop
endfacet
facet normal 0.0 1.0 0.0
outer loop
vertex 34.49987792968751 10.366812244099934 19.999999999999964
vertex 35.99987792968753 10.366812244099934 0.0
vertex 34.49987792968751 10.366812244099934 0.0
endloop
endfacet
facet normal 0.0 1.0 0.0
outer loop
vertex 35.99987792968753 10.366812244099934 0.0
vertex 34.49987792968751 10.366812244099934 19.999999999999964
vertex 35.99987792968753 10.366812244099934 19.999999999999964
endloop
endfacet
facet normal 1.0 0.0 0.0
outer loop
vertex 35.99987792968753 10.366812244099934 0.0
vertex 35.99987792968753 -8.668506836793306 19.999999999999964
vertex 35.99987792968753 -8.668506836793306 2.8199664825478975e-15
endloop
endfacet
facet normal 1.0 0.0 0.0
outer loop
vertex 35.99987792968753 -8.668506836793306 19.999999999999964
vertex 35.99987792968753 10.366812244099934 0.0
vertex 35.99987792968753 10.366812244099934 19.999999999999964
endloop
endfacet
facet normal -0.8640166820608394 -0.5034631795082719 0.0
outer loop
vertex 11.888075069273723 -5.734416645887103 19.999999999999964
vertex 12.34196849110286 -6.8179224358637365 0.0
vertex 12.34196849110286 -6.8179224358637365 19.999999999999964
endloop
endfacet
facet normal -0.9648818869117518 -0.2626841150690642 0.0
outer loop
vertex 12.34196849110286 -6.8179224358637365 0.0
vertex 11.888075069273723 -5.734416645887103 19.999999999999964
vertex 11.888075069273723 -5.734416645887103 0.0
endloop
endfacet
facet normal 0.0 1.0 0.0
outer loop
vertex 0.0 0.0 19.999999999999964
vertex 18.307739257812173 0.0 0.0
vertex 0.0 0.0 0.0
endloop
endfacet
facet normal 0.0 1.0 0.0
outer loop
vertex 18.307739257812173 0.0 0.0
vertex 0.0 0.0 19.999999999999964
vertex 18.307739257812173 0.0 19.999999999999964
endloop
endfacet
facet normal -1.0 0.0 0.0
outer loop
vertex 18.307739257812173 2.9999999999999947 19.999999999999964
vertex 18.307739257812173 0.0 0.0
vertex 18.307739257812173 0.0 19.999999999999964
endloop
endfacet
facet normal -1.0 0.0 0.0
outer loop
vertex 18.307739257812173 0.0 0.0
vertex 18.307739257812173 2.9999999999999947 19.999999999999964
vertex 18.307739257812173 2.9999999999999947 0.0
endloop
endfacet
facet normal -0.7042701681825256 -0.7099320602763036 0.0
outer loop
vertex 11.169215756821385 -4.80530668243106 19.999999999999964
vertex 11.888075069273723 -5.734416645887103 0.0
vertex 11.888075069273723 -5.734416645887103 19.999999999999964
endloop
endfacet
facet normal -0.8640166820608394 -0.5034631795082719 0.0
outer loop
vertex 11.888075069273723 -5.734416645887103 0.0
vertex 11.169215756821385 -4.80530668243106 19.999999999999964
vertex 11.169215756821385 -4.80530668243106 0.0
endloop
endfacet
facet normal -0.7042701681825256 -0.7099320602763036 0.0
outer loop
vertex 11.169215756821385 -4.80530668243106 19.999999999999964
vertex 10.234379627918301 -4.093909854078352 0.0
vertex 11.169215756821385 -4.80530668243106 0.0
endloop
endfacet
facet normal -0.4965288062040975 -0.8680202443546661 0.0
outer loop
vertex 10.234379627918301 -4.093909854078352 0.0
vertex 11.169215756821385 -4.80530668243106 19.999999999999964
vertex 10.234379627918301 -4.093909854078352 19.999999999999964
endloop
endfacet
facet normal 1.0 0.0 0.0
outer loop
vertex 19.499999999999716 2.9999999999999947 0.0
vertex 19.499999999999716 0.0 19.999999999999964
vertex 19.499999999999716 0.0 0.0
endloop
endfacet
facet normal 1.0 0.0 0.0
outer loop
vertex 19.499999999999716 0.0 19.999999999999964
vertex 19.499999999999716 2.9999999999999947 0.0
vertex 19.499999999999716 2.9999999999999947 19.999999999999964
endloop
endfacet
facet normal 0.004003562293841299 -0.9999919857123653 0.0
outer loop
vertex 7.981983969677777 -3.500037017968719 19.999999999999964
vertex 6.817921482189534 -3.6580324625714247 0.0
vertex 7.981983969677777 -3.500037017968719 0.0
endloop
endfacet
facet normal 0.2626841150690101 -0.9648818869117666 0.0
outer loop
vertex 6.817921482189534 -3.6580324625714247 0.0
vertex 7.981983969677777 -3.500037017968719 19.999999999999964
vertex 6.817921482189534 -3.6580324625714247 19.999999999999964
endloop
endfacet
facet normal 0.2626841150690101 -0.9648818869117666 0.0
outer loop
vertex 6.817921482189534 -3.6580324625714247 19.999999999999964
vertex 5.734415692212767 -4.1119258844006055 0.0
vertex 6.817921482189534 -3.6580324625714247 0.0
endloop
endfacet
facet normal 0.5034631795082414 -0.8640166820608572 0.0
outer loop
vertex 5.734415692212767 -4.1119258844006055 0.0
vertex 6.817921482189534 -3.6580324625714247 19.999999999999964
vertex 5.734415692212767 -4.1119258844006055 19.999999999999964
endloop
endfacet
facet normal 0.5034631795082414 -0.8640166820608572 0.0
outer loop
vertex 5.734415692212767 -4.1119258844006055 19.999999999999964
vertex 4.805305728756634 -4.830785196852921 0.0
vertex 5.734415692212767 -4.1119258844006055 0.0
endloop
endfacet
facet normal 0.7099320602763434 -0.7042701681824854 0.0
outer loop
vertex 4.805305728756634 -4.830785196852921 0.0
vertex 5.734415692212767 -4.1119258844006055 19.999999999999964
vertex 4.805305728756634 -4.830785196852921 19.999999999999964
endloop
endfacet
facet normal 0.7099320602763434 -0.7042701681824854 0.0
outer loop
vertex 4.805305728756634 -4.830785196852921 0.0
vertex 4.09390890040422 -5.765621325755959 19.999999999999964
vertex 4.09390890040422 -5.765621325755959 0.0
endloop
endfacet
facet normal 0.8680202443546703 -0.4965288062040901 0.0
outer loop
vertex 4.09390890040422 -5.765621325755959 19.999999999999964
vertex 4.805305728756634 -4.830785196852921 0.0
vertex 4.805305728756634 -4.830785196852921 19.999999999999964
endloop
endfacet
facet normal 0.8680202443546703 -0.4965288062040901 0.0
outer loop
vertex 4.09390890040422 -5.765621325755959 0.0
vertex 3.648705725367954 -6.852726733814688 19.999999999999964
vertex 3.648705725367954 -6.852726733814688 0.0
endloop
endfacet
facet normal 0.9669542832515658 -0.2549498266354589 0.0
outer loop
vertex 3.648705725367954 -6.852726733814688 19.999999999999964
vertex 4.09390890040422 -5.765621325755959 0.0
vertex 4.09390890040422 -5.765621325755959 19.999999999999964
endloop
endfacet
facet normal 0.9669542832515658 -0.2549498266354589 0.0
outer loop
vertex 3.648705725367954 -6.852726733814688 0.0
vertex 3.5000360642946315 -8.018016983996576 19.999999999999964
vertex 3.5000360642946315 -8.018016983996576 0.0
endloop
endfacet
facet normal 0.9999919857123651 0.004003562293863673 -7.988890790624457e-20
outer loop
vertex 3.5000360642946315 -8.018016983996576 19.999999999999964
vertex 3.648705725367954 -6.852726733814688 0.0
vertex 3.648705725367954 -6.852726733814688 19.999999999999964
endloop
endfacet
facet normal 0.9999919857123653 0.004003562293863501 -7.988890790624446e-20
outer loop
vertex 3.5000360642946315 -8.018016983996576 0.0
vertex 3.5883255114735153 -8.668506836793306 19.999999999999964
vertex 3.5883255114735153 -8.668506836793306 2.8199664825478975e-15
endloop
endfacet
facet normal 0.9909143459080131 0.13449445740882657 -1.5841089444882806e-19
outer loop
vertex 3.5883255114735153 -8.668506836793306 19.999999999999964
vertex 3.5000360642946315 -8.018016983996576 0.0
vertex 3.5000360642946315 -8.018016983996576 19.999999999999964
endloop
endfacet
facet normal -0.9999919857123653 -0.0040035622938628095 3.61352964336943e-21
outer loop
vertex 12.4999639357057 -7.98198492335207 19.999999999999964
vertex 12.412376332381092 -8.668506836793306 2.8199664825478975e-15
vertex 12.412376332381092 -8.668506836793306 19.999999999999964
endloop
endfacet
facet normal -0.9919594853910402 0.1265558348822477 7.165230792681036e-21
outer loop
vertex 12.412376332381092 -8.668506836793306 2.8199664825478975e-15
vertex 12.4999639357057 -7.98198492335207 19.999999999999964
vertex 12.4999639357057 -7.98198492335207 0.0
endloop
endfacet
facet normal -0.9648818869117518 -0.2626841150690642 0.0
outer loop
vertex 12.34196849110286 -6.8179224358637365 19.999999999999964
vertex 12.4999639357057 -7.98198492335207 0.0
vertex 12.4999639357057 -7.98198492335207 19.999999999999964
endloop
endfacet
facet normal -0.9999919857123651 -0.004003562293862984 3.613529643369425e-21
outer loop
vertex 12.4999639357057 -7.98198492335207 0.0
vertex 12.34196849110286 -6.8179224358637365 19.999999999999964
vertex 12.34196849110286 -6.8179224358637365 0.0
endloop
endfacet
facet normal -0.4965288062040975 -0.8680202443546661 0.0
outer loop
vertex 10.234379627918301 -4.093909854078352 19.999999999999964
vertex 9.147274219859689 -3.648706679042334 0.0
vertex 10.234379627918301 -4.093909854078352 0.0
endloop
endfacet
facet normal -0.25494982663550103 -0.9669542832515549 0.0
outer loop
vertex 9.147274219859689 -3.648706679042334 0.0
vertex 10.234379627918301 -4.093909854078352 19.999999999999964
vertex 9.147274219859689 -3.648706679042334 19.999999999999964
endloop
endfacet
facet normal -0.25494982663550103 -0.9669542832515549 0.0
outer loop
vertex 9.147274219859689 -3.648706679042334 19.999999999999964
vertex 7.981983969677777 -3.500037017968719 0.0
vertex 9.147274219859689 -3.648706679042334 0.0
endloop
endfacet
facet normal 0.004003562293841299 -0.9999919857123653 0.0
outer loop
vertex 7.981983969677777 -3.500037017968719 0.0
vertex 9.147274219859689 -3.648706679042334 19.999999999999964
vertex 7.981983969677777 -3.500037017968719 19.999999999999964
endloop
endfacet
facet normal -0.9958245702158833 -0.09128759693601084 2.3279122884216734e-20
outer loop
vertex 32.48108849565911 -7.589206767462443 19.999999999999964
vertex 32.43845035589566 -8.668506836793306 2.8199664825478975e-15
vertex 32.43845035589566 -8.668506836793306 19.999999999999964
endloop
endfacet
facet normal -0.99922057539529 0.03947457038025648 4.615993352169122e-20
outer loop
vertex 32.43845035589566 -8.668506836793306 2.8199664825478975e-15
vertex 32.48108849565911 -7.589206767462443 19.999999999999964
vertex 32.48108849565911 -7.589206767462443 0.0
endloop
endfacet
facet normal -0.9382657021560434 -0.3459154118532839 0.0
outer loop
vertex 32.222073589389645 -6.4433816003347895 19.999999999999964
vertex 32.48108849565911 -7.589206767462443 0.0
vertex 32.48108849565911 -7.589206767462443 19.999999999999964
endloop
endfacet
facet normal -0.9958245702158833 -0.09128759693601095 2.3279122884216716e-20
outer loop
vertex 32.48108849565911 -7.589206767462443 0.0
vertex 32.222073589389645 -6.4433816003347895 19.999999999999964
vertex 32.222073589389645 -6.4433816003347895 0.0
endloop
endfacet
facet normal -0.8167655770517205 -0.5769696631048898 0.0
outer loop
vertex 31.67532302642009 -5.403637469702116 19.999999999999964
vertex 32.222073589389645 -6.4433816003347895 0.0
vertex 32.222073589389645 -6.4433816003347895 19.999999999999964
endloop
endfacet
facet normal -0.9382657021560434 -0.3459154118532839 0.0
outer loop
vertex 32.222073589389645 -6.4433816003347895 0.0
vertex 31.67532302642009 -5.403637469702116 19.999999999999964
vertex 31.67532302642009 -5.403637469702116 0.0
endloop
endfacet
facet normal -0.6396042276401731 -0.768704385303491 0.0
outer loop
vertex 30.878096954068305 -4.54083121980863 19.999999999999964
vertex 31.67532302642009 -5.403637469702116 0.0
vertex 31.67532302642009 -5.403637469702116 19.999999999999964
endloop
endfacet
facet normal -0.8167655770517205 -0.5769696631048898 0.0
outer loop
vertex 31.67532302642009 -5.403637469702116 0.0
vertex 30.878096954068305 -4.54083121980863 19.999999999999964
vertex 30.878096954068305 -4.54083121980863 0.0
endloop
endfacet
facet normal -0.6396042276401731 -0.768704385303491 0.0
outer loop
vertex 30.878096954068305 -4.54083121980863 19.999999999999964
vertex 29.884725011686747 -3.913761670729824 0.0
vertex 30.878096954068305 -4.54083121980863 0.0
endloop
endfacet
facet normal -0.41885490711095874 -0.9080531739876637 0.0
outer loop
vertex 29.884725011686747 -3.913761670729824 0.0
vertex 30.878096954068305 -4.54083121980863 19.999999999999964
vertex 29.884725011686747 -3.913761670729824 19.999999999999964
endloop
endfacet
facet normal -0.41885490711095874 -0.9080531739876637 0.0
outer loop
vertex 29.884725011686747 -3.913761670729824 19.999999999999964
vertex 28.762903855524133 -3.5651625759539596 0.0
vertex 29.884725011686747 -3.913761670729824 0.0
endloop
endfacet
facet normal -0.16956131685258813 -0.9855196394934077 0.0
outer loop
vertex 28.762903855524133 -3.5651625759539596 0.0
vertex 29.884725011686747 -3.913761670729824 19.999999999999964
vertex 28.762903855524133 -3.5651625759539596 19.999999999999964
endloop
endfacet
facet normal -0.16956131685258813 -0.9855196394934077 0.0
outer loop
vertex 28.762903855524133 -3.5651625759539596 19.999999999999964
vertex 27.58908374347546 -3.5187903877028233 0.0
vertex 28.762903855524133 -3.5651625759539596 0.0
endloop
endfacet
facet normal 0.09128759693600132 -0.995824570215884 0.0
outer loop
vertex 27.58908374347546 -3.5187903877028233 0.0
vertex 28.762903855524133 -3.5651625759539596 19.999999999999964
vertex 27.58908374347546 -3.5187903877028233 19.999999999999964
endloop
endfacet
facet normal 0.09128759693600132 -0.995824570215884 0.0
outer loop
vertex 27.58908374347546 -3.5187903877028233 19.999999999999964
vertex 26.443258576348054 -3.7778052939720173 0.0
vertex 27.58908374347546 -3.5187903877028233 0.0
endloop
endfacet
facet normal 0.34591541185320296 -0.9382657021560733 0.0
outer loop
vertex 26.443258576348054 -3.7778052939720173 0.0
vertex 27.58908374347546 -3.5187903877028233 19.999999999999964
vertex 26.443258576348054 -3.7778052939720173 19.999999999999964
endloop
endfacet
facet normal 0.34591541185320296 -0.9382657021560733 0.0
outer loop
vertex 26.443258576348054 -3.7778052939720173 19.999999999999964
vertex 25.40351444571518 -4.324555856941682 0.0
vertex 26.443258576348054 -3.7778052939720173 0.0
endloop
endfacet
facet normal 0.5769696631048931 -0.8167655770517183 0.0
outer loop
vertex 25.40351444571518 -4.324555856941682 0.0
vertex 26.443258576348054 -3.7778052939720173 19.999999999999964
vertex 25.40351444571518 -4.324555856941682 19.999999999999964
endloop
endfacet
facet normal 0.5769696631048931 -0.8167655770517183 0.0
outer loop
vertex 25.40351444571518 -4.324555856941682 19.999999999999964
vertex 24.540708195821672 -5.121781929293492 0.0
vertex 25.40351444571518 -4.324555856941682 0.0
endloop
endfacet
facet normal 0.7687043853034958 -0.6396042276401672 0.0
outer loop
vertex 24.540708195821672 -5.121781929293492 0.0
vertex 25.40351444571518 -4.324555856941682 19.999999999999964
vertex 24.540708195821672 -5.121781929293492 19.999999999999964
endloop
endfacet
facet normal 0.7687043853034958 -0.6396042276401672 0.0
outer loop
vertex 24.540708195821672 -5.121781929293492 0.0
vertex 23.913638646742914 -6.115153871675005 19.999999999999964
vertex 23.913638646742914 -6.115153871675005 0.0
endloop
endfacet
facet normal 0.9080531739876521 -0.4188549071109844 0.0
outer loop
vertex 23.913638646742914 -6.115153871675005 19.999999999999964
vertex 24.540708195821672 -5.121781929293492 0.0
vertex 24.540708195821672 -5.121781929293492 19.999999999999964
endloop
endfacet
facet normal 0.9080531739876521 -0.4188549071109844 0.0
outer loop
vertex 23.913638646742914 -6.115153871675005 0.0
vertex 23.565039551966937 -7.236975027837712 19.999999999999964
vertex 23.565039551966937 -7.236975027837712 0.0
endloop
endfacet
facet normal 0.9855196394934145 -0.16956131685254908 0.0
outer loop
vertex 23.565039551966937 -7.236975027837712 19.999999999999964
vertex 23.913638646742914 -6.115153871675005 0.0
vertex 23.913638646742914 -6.115153871675005 19.999999999999964
endloop
endfacet
facet normal 0.9855196394934145 -0.16956131685254908 0.0
outer loop
vertex 23.565039551966937 -7.236975027837712 0.0
vertex 23.51866736371598 -8.410795139886204 19.999999999999964
vertex 23.51866736371598 -8.410795139886204 0.0
endloop
endfacet
facet normal 0.9958245702158828 0.09128759693601589 -8.240337537693947e-21
outer loop
vertex 23.51866736371598 -8.410795139886204 19.999999999999964
vertex 23.565039551966937 -7.236975027837712 0.0
vertex 23.565039551966937 -7.236975027837712 19.999999999999964
endloop
endfacet
facet normal 0.9958245702158828 0.09128759693601542 -8.24033753769392e-21
outer loop
vertex 23.51866736371598 -8.410795139886204 0.0
vertex 23.576923346333448 -8.668506836793306 19.999999999999964
vertex 23.576923346333448 -8.668506836793306 2.8199664825478975e-15
endloop
endfacet
facet normal 0.9753897305453699 0.2204878081587064 -1.6339680615465025e-20
outer loop
vertex 23.576923346333448 -8.668506836793306 19.999999999999964
vertex 23.51866736371598 -8.410795139886204 0.0
vertex 23.51866736371598 -8.410795139886204 19.999999999999964
endloop
endfacet
facet normal -1.0 0.0 0.0
outer loop
vertex 21.500000000000345 2.9999999999999947 19.999999999999964
vertex 21.500000000000345 0.0 0.0
vertex 21.500000000000345 0.0 19.999999999999964
endloop
endfacet
facet normal -1.0 0.0 0.0
outer loop
vertex 21.500000000000345 0.0 0.0
vertex 21.500000000000345 2.9999999999999947 19.999999999999964
vertex 21.500000000000345 2.9999999999999947 0.0
endloop
endfacet
facet normal 8.389623735371663e-18 -7.874895492323783e-17 -1.0
outer loop
vertex 0.0 0.0 0.0
vertex 3.648705725367954 -6.852726733814688 0.0
vertex 3.5000360642946315 -8.018016983996576 0.0
endloop
endfacet
facet normal 8.389623735371663e-18 -7.874895492323783e-17 -1.0
outer loop
vertex 3.648705725367954 -6.852726733814688 0.0
vertex 0.0 0.0 0.0
vertex 4.09390890040422 -5.765621325755959 0.0
endloop
endfacet
facet normal 8.389623735371663e-18 -7.874895492323783e-17 -1.0
outer loop
vertex 4.09390890040422 -5.765621325755959 0.0
vertex 0.0 0.0 0.0
vertex 4.805305728756634 -4.830785196852921 0.0
endloop
endfacet
facet normal 8.389623735371663e-18 -7.874895492323783e-17 -1.0
outer loop
vertex 4.805305728756634 -4.830785196852921 0.0
vertex 0.0 0.0 0.0
vertex 5.734415692212767 -4.1119258844006055 0.0
endloop
endfacet
facet normal 8.389623735371663e-18 -7.874895492323783e-17 -1.0
outer loop
vertex 5.734415692212767 -4.1119258844006055 0.0
vertex 0.0 0.0 0.0
vertex 6.817921482189534 -3.6580324625714247 0.0
endloop
endfacet
facet normal 8.389623735371663e-18 -7.874895492323783e-17 -1.0
outer loop
vertex 6.817921482189534 -3.6580324625714247 0.0
vertex 0.0 0.0 0.0
vertex 18.307739257812173 0.0 0.0
endloop
endfacet
facet normal 8.389623735371663e-18 -7.874895492323783e-17 -1.0
outer loop
vertex 6.817921482189534 -3.6580324625714247 0.0
vertex 18.307739257812173 0.0 0.0
vertex 7.981983969677777 -3.500037017968719 0.0
endloop
endfacet
facet normal 8.389623735371663e-18 -7.874895492323783e-17 -1.0
outer loop
vertex 7.981983969677777 -3.500037017968719 0.0
vertex 18.307739257812173 0.0 0.0
vertex 9.147274219859689 -3.648706679042334 0.0
endloop
endfacet
facet normal 8.389623735371663e-18 -7.874895492323783e-17 -1.0
outer loop
vertex 9.147274219859689 -3.648706679042334 0.0
vertex 18.307739257812173 0.0 0.0
vertex 10.234379627918301 -4.093909854078352 0.0
endloop
endfacet
facet normal 8.389623735371663e-18 -7.874895492323783e-17 -1.0
outer loop
vertex 10.234379627918301 -4.093909854078352 0.0
vertex 18.307739257812173 0.0 0.0
vertex 11.169215756821385 -4.80530668243106 0.0
endloop
endfacet
facet normal 8.389623735371663e-18 -7.874895492323783e-17 -1.0
outer loop
vertex 11.169215756821385 -4.80530668243106 0.0
vertex 18.307739257812173 0.0 0.0
vertex 11.888075069273723 -5.734416645887103 0.0
endloop
endfacet
facet normal 8.389623735371663e-18 -7.874895492323783e-17 -1.0
outer loop
vertex 11.888075069273723 -5.734416645887103 0.0
vertex 18.307739257812173 0.0 0.0
vertex 12.34196849110286 -6.8179224358637365 0.0
endloop
endfacet
facet normal 8.389623735371663e-18 -7.874895492323783e-17 -1.0
outer loop
vertex 12.34196849110286 -6.8179224358637365 0.0
vertex 18.307739257812173 0.0 0.0
vertex 12.4999639357057 -7.98198492335207 0.0
endloop
endfacet
facet normal 8.389623735371663e-18 -7.874895492323783e-17 -1.0
outer loop
vertex 19.499999999999716 2.9999999999999947 0.0
vertex 18.307739257812173 0.0 0.0
vertex 18.307739257812173 2.9999999999999947 0.0
endloop
endfacet
facet normal 8.389623735371663e-18 -7.874895492323783e-17 -1.0
outer loop
vertex 23.000000000000366 2.9999999999999947 0.0
vertex 21.500000000000345 0.0 0.0
vertex 21.500000000000345 2.9999999999999947 0.0
endloop
endfacet
facet normal 8.389623735371663e-18 -7.874895492323783e-17 -1.0
outer loop
vertex 32.4998779296876 10.366812244099934 0.0
vertex 30.99987792968758 0.0 0.0
vertex 30.99987792968758 10.366812244099934 0.0
endloop
endfacet
facet normal 8.389623735371663e-18 -7.874895492323783e-17 -1.0
outer loop
vertex 30.99987792968758 0.0 0.0
vertex 32.4998779296876 10.366812244099934 0.0
vertex 31.67532302642009 -5.403637469702116 0.0
endloop
endfacet
facet normal 8.389623735371663e-18 -7.874895492323783e-17 -1.0
outer loop
vertex 31.67532302642009 -5.403637469702116 0.0
vertex 32.4998779296876 10.366812244099934 0.0
vertex 32.222073589389645 -6.4433816003347895 0.0
endloop
endfacet
facet normal 8.389623735371663e-18 -7.874895492323783e-17 -1.0
outer loop
vertex 32.222073589389645 -6.4433816003347895 0.0
vertex 32.4998779296876 10.366812244099934 0.0
vertex 32.48108849565911 -7.589206767462443 0.0
endloop
endfacet
facet normal 8.389623735371663e-18 -7.874895492323783e-17 -1.0
outer loop
vertex 35.99987792968753 10.366812244099934 0.0
vertex 34.49987792968751 2.9999999999999947 0.0
vertex 34.49987792968751 10.366812244099934 0.0
endloop
endfacet
facet normal 8.389623735371663e-18 -7.874895492323783e-17 -1.0
outer loop
vertex 32.48108849565911 -7.589206767462443 0.0
vertex 35.99987792968753 -8.668506836793306 2.8199664825478975e-15
vertex 32.43845035589566 -8.668506836793306 2.8199664825478975e-15
endloop
endfacet
facet normal 8.389623735371663e-18 -7.874895492323783e-17 -1.0
outer loop
vertex 35.99987792968753 -8.668506836793306 2.8199664825478975e-15
vertex 32.48108849565911 -7.589206767462443 0.0
vertex 32.4998779296876 2.9999999999999947 0.0
endloop
endfacet
facet normal 8.389623735371663e-18 -7.874895492323783e-17 -1.0
outer loop
vertex 32.4998779296876 2.9999999999999947 0.0
vertex 32.48108849565911 -7.589206767462443 0.0
vertex 32.4998779296876 10.366812244099934 0.0
endloop
endfacet
facet normal 8.389623735371663e-18 -7.874895492323783e-17 -1.0
outer loop
vertex 35.99987792968753 -8.668506836793306 2.8199664825478975e-15
vertex 32.4998779296876 2.9999999999999947 0.0
vertex 34.49987792968751 2.9999999999999947 0.0
endloop
endfacet
facet normal 8.389623735371663e-18 -7.874895492323783e-17 -1.0
outer loop
vertex 35.99987792968753 -8.668506836793306 2.8199664825478975e-15
vertex 34.49987792968751 2.9999999999999947 0.0
vertex 35.99987792968753 10.366812244099934 0.0
endloop
endfacet
facet normal 8.389623735371663e-18 -7.874895492323783e-17 -1.0
outer loop
vertex 23.000000000000366 0.0 0.0
vertex 23.565039551966937 -7.236975027837712 0.0
vertex 23.51866736371598 -8.410795139886204 0.0
endloop
endfacet
facet normal 8.389623735371663e-18 -7.874895492323783e-17 -1.0
outer loop
vertex 23.565039551966937 -7.236975027837712 0.0
vertex 23.000000000000366 0.0 0.0
vertex 23.913638646742914 -6.115153871675005 0.0
endloop
endfacet
facet normal 8.389623735371663e-18 -7.874895492323783e-17 -1.0
outer loop
vertex 23.913638646742914 -6.115153871675005 0.0
vertex 23.000000000000366 0.0 0.0
vertex 24.540708195821672 -5.121781929293492 0.0
endloop
endfacet
facet normal 8.389623735371663e-18 -7.874895492323783e-17 -1.0
outer loop
vertex 24.540708195821672 -5.121781929293492 0.0
vertex 23.000000000000366 0.0 0.0
vertex 25.40351444571518 -4.324555856941682 0.0
endloop
endfacet
facet normal 8.389623735371663e-18 -7.874895492323783e-17 -1.0
outer loop
vertex 25.40351444571518 -4.324555856941682 0.0
vertex 23.000000000000366 0.0 0.0
vertex 30.99987792968758 0.0 0.0
endloop
endfacet
facet normal 8.389623735371663e-18 -7.874895492323783e-17 -1.0
outer loop
vertex 25.40351444571518 -4.324555856941682 0.0
vertex 30.99987792968758 0.0 0.0
vertex 26.443258576348054 -3.7778052939720173 0.0
endloop
endfacet
facet normal 8.389623735371663e-18 -7.874895492323783e-17 -1.0
outer loop
vertex 26.443258576348054 -3.7778052939720173 0.0
vertex 30.99987792968758 0.0 0.0
vertex 27.58908374347546 -3.5187903877028233 0.0
endloop
endfacet
facet normal 8.389623735371663e-18 -7.874895492323783e-17 -1.0
outer loop
vertex 27.58908374347546 -3.5187903877028233 0.0
vertex 30.99987792968758 0.0 0.0
vertex 28.762903855524133 -3.5651625759539596 0.0
endloop
endfacet
facet normal 8.389623735371663e-18 -7.874895492323783e-17 -1.0
outer loop
vertex 28.762903855524133 -3.5651625759539596 0.0
vertex 30.99987792968758 0.0 0.0
vertex 29.884725011686747 -3.913761670729824 0.0
endloop
endfacet
facet normal 8.389623735371663e-18 -7.874895492323783e-17 -1.0
outer loop
vertex 29.884725011686747 -3.913761670729824 0.0
vertex 30.99987792968758 0.0 0.0
vertex 30.878096954068305 -4.54083121980863 0.0
endloop
endfacet
facet normal 8.389623735371663e-18 -7.874895492323783e-17 -1.0
outer loop
vertex 30.878096954068305 -4.54083121980863 0.0
vertex 30.99987792968758 0.0 0.0
vertex 31.67532302642009 -5.403637469702116 0.0
endloop
endfacet
facet normal 8.389623735371663e-18 -7.874895492323783e-17 -1.0
outer loop
vertex 12.4999639357057 -7.98198492335207 0.0
vertex 23.576923346333448 -8.668506836793306 2.8199664825478975e-15
vertex 12.412376332381092 -8.668506836793306 2.8199664825478975e-15
endloop
endfacet
facet normal 8.389623735371663e-18 -7.874895492323783e-17 -1.0
outer loop
vertex 23.576923346333448 -8.668506836793306 2.8199664825478975e-15
vertex 12.4999639357057 -7.98198492335207 0.0
vertex 18.307739257812173 0.0 0.0
endloop
endfacet
facet normal 8.389623735371663e-18 -7.874895492323783e-17 -1.0
outer loop
vertex 23.576923346333448 -8.668506836793306 2.8199664825478975e-15
vertex 18.307739257812173 0.0 0.0
vertex 19.499999999999716 0.0 0.0
endloop
endfacet
facet normal 8.389623735371663e-18 -7.874895492323783e-17 -1.0
outer loop
vertex 19.499999999999716 0.0 0.0
vertex 18.307739257812173 0.0 0.0
vertex 19.499999999999716 2.9999999999999947 0.0
endloop
endfacet
facet normal 8.389623735371663e-18 -7.874895492323783e-17 -1.0
outer loop
vertex 23.576923346333448 -8.668506836793306 2.8199664825478975e-15
vertex 19.499999999999716 0.0 0.0
vertex 21.500000000000345 0.0 0.0
endloop
endfacet
facet normal 8.389623735371663e-18 -7.874895492323783e-17 -1.0
outer loop
vertex 23.576923346333448 -8.668506836793306 2.8199664825478975e-15
vertex 21.500000000000345 0.0 0.0
vertex 23.51866736371598 -8.410795139886204 0.0
endloop
endfacet
facet normal 8.389623735371663e-18 -7.874895492323783e-17 -1.0
outer loop
vertex 23.51866736371598 -8.410795139886204 0.0
vertex 21.500000000000345 0.0 0.0
vertex 23.000000000000366 0.0 0.0
endloop
endfacet
facet normal 8.389623735371663e-18 -7.874895492323783e-17 -1.0
outer loop
vertex 23.000000000000366 0.0 0.0
vertex 21.500000000000345 0.0 0.0
vertex 23.000000000000366 2.9999999999999947 0.0
endloop
endfacet
facet normal 8.389623735371663e-18 -7.874895492323783e-17 -1.0
outer loop
vertex 0.0 0.0 0.0
vertex 3.5883255114735153 -8.668506836793306 2.8199664825478975e-15
vertex -0.00012207031247388755 -8.668506836793306 2.8199664825478975e-15
endloop
endfacet
facet normal 8.389623735371663e-18 -7.874895492323783e-17 -1.0
outer loop
vertex 3.5883255114735153 -8.668506836793306 2.8199664825478975e-15
vertex 0.0 0.0 0.0
vertex 3.5000360642946315 -8.018016983996576 0.0
endloop
endfacet
endsolid pcb holder
