solid newXgantryHP
facet normal -6.159693581656423e-07 -2.5787341112265044e-12 -0.9999999999998104
outer loop
vertex 619.6935419418204 30.61474128350242 12.20060771647003
vertex 616.1975407159318 28.614764598220997 12.200609869904818
vertex 616.1975323386134 30.61471931800458 12.200609869904822
endloop
endfacet
facet normal -6.159693581656423e-07 -2.5787341112265044e-12 -0.9999999999998104
outer loop
vertex 616.1975407159318 28.614764598220997 12.200609869904818
vertex 619.6935419418204 30.61474128350242 12.20060771647003
vertex 619.6935503191388 28.61478656371884 12.200607716470028
endloop
endfacet
facet normal -0.3602783252976349 0.01865761959945982 -0.9326582554996303
outer loop
vertex 614.1504510702034 30.61456179040149 25.403372470581978
vertex 613.9260716622589 23.615174781243088 25.328173300243705
vertex 613.9260130270894 30.61455962735749 25.468217077371595
endloop
endfacet
facet normal 8.377188540100622e-06 -0.9999999999451796 -6.281989261727916e-06
outer loop
vertex 619.6935922003513 23.61535146346208 12.200570028083147
vertex 613.9203108056929 23.615196531814167 20.331298085070124
vertex 613.6918654289937 23.615194709752483 20.310285235856703
endloop
endfacet
facet normal 8.377188540100622e-06 -0.9999999999451796 -6.281989261727916e-06
outer loop
vertex 613.9203108056929 23.615196531814167 20.331298085070124
vertex 619.6935922003513 23.61535146346208 12.200570028083147
vertex 614.1448971288642 23.615198135015053 20.395069237863325
endloop
endfacet
facet normal 8.377188540100622e-06 -0.9999999999451796 -6.281989261727916e-06
outer loop
vertex 614.1448971288642 23.615198135015053 20.395069237863325
vertex 619.6935922003513 23.61535146346208 12.200570028083147
vertex 614.3617816642507 23.615199491923924 20.5005075521313
endloop
endfacet
facet normal 8.377188540100622e-06 -0.9999999999451796 -6.281989261727916e-06
outer loop
vertex 614.3617816642507 23.615199491923924 20.5005075521313
vertex 619.6935922003513 23.61535146346208 12.200570028083147
vertex 614.5672534573204 23.615200579323698 20.6458089490839
endloop
endfacet
facet normal 8.377188540100622e-06 -0.9999999999451796 -6.281989261727916e-06
outer loop
vertex 614.5672534573204 23.615200579323698 20.6458089490839
vertex 619.6935922003513 23.61535146346208 12.200570028083147
vertex 614.7577968287261 23.61520137860866 20.828487281534116
endloop
endfacet
facet normal 8.377188540100622e-06 -0.9999999999451796 -6.281989261727916e-06
outer loop
vertex 614.7577968287261 23.61520137860866 20.828487281534116
vertex 619.6935922003513 23.61535146346208 12.200570028083147
vertex 614.9301515285545 23.61520187610282 21.04541687256571
endloop
endfacet
facet normal 8.377188540100622e-06 -0.9999999999451796 -6.281989261727916e-06
outer loop
vertex 614.9301515285545 23.61520187610282 21.04541687256571
vertex 619.6935922003513 23.61535146346208 12.200570028083147
vertex 619.6935922003197 23.615152331647323 27.899993391468524
endloop
endfacet
facet normal 8.377188540100622e-06 -0.9999999999451796 -6.281989261727916e-06
outer loop
vertex 614.9301515285545 23.61520187610282 21.04541687256571
vertex 619.6935922003197 23.615152331647323 27.899993391468524
vertex 615.081368520106 23.61520206329392 21.292885996731883
endloop
endfacet
facet normal 8.377188540100622e-06 -0.9999999999451796 -6.281989261727916e-06
outer loop
vertex 615.081368520106 23.61520206329392 21.292885996731883
vertex 619.6935922003197 23.615152331647323 27.899993391468524
vertex 615.2088604387297 23.615201936979073 21.566660388706765
endloop
endfacet
facet normal 8.377188540100622e-06 -0.9999999999451796 -6.281989261727916e-06
outer loop
vertex 615.2088604387297 23.615201936979073 21.566660388706765
vertex 619.6935922003197 23.615152331647323 27.899993391468524
vertex 615.3104458623507 23.615201499319546 21.862055692739077
endloop
endfacet
facet normal 8.377188540100622e-06 -0.9999999999451796 -6.281989261727916e-06
outer loop
vertex 615.3104458623507 23.615201499319546 21.862055692739077
vertex 619.6935922003197 23.615152331647323 27.899993391468524
vertex 615.3843866362057 23.615200757803827 22.174017613277734
endloop
endfacet
facet normal 8.377188540100622e-06 -0.9999999999451796 -6.281989261727916e-06
outer loop
vertex 615.3843866362057 23.615200757803827 22.174017613277734
vertex 619.6935922003197 23.615152331647323 27.899993391468524
vertex 615.4294176131541 23.615199725119453 22.497208395370162
endloop
endfacet
facet normal 8.377188540100622e-06 -0.9999999999451796 -6.281989261727916e-06
outer loop
vertex 615.4294176131541 23.615199725119453 22.497208395370162
vertex 619.6935922003197 23.615152331647323 27.899993391468524
vertex 615.4447683006952 23.61519841893594 22.826098155129348
endloop
endfacet
facet normal 8.377188540100622e-06 -0.9999999999451796 -6.281989261727916e-06
outer loop
vertex 615.4447683006952 23.61519841893594 22.826098155129348
vertex 619.6935922003197 23.615152331647323 27.899993391468524
vertex 615.4301760443092 23.61519686160245 23.15505949758033
endloop
endfacet
facet normal 8.377188540100622e-06 -0.9999999999451796 -6.281989261727916e-06
outer loop
vertex 615.4301760443092 23.61519686160245 23.15505949758033
vertex 619.6935922003197 23.615152331647323 27.899993391468524
vertex 615.3858905215487 23.615195079765382 23.478463802948447
endloop
endfacet
facet normal 8.377188540100622e-06 -0.9999999999451796 -6.281989261727916e-06
outer loop
vertex 615.3858905215487 23.615195079765382 23.478463802948447
vertex 619.6935922003197 23.615152331647323 27.899993391468524
vertex 615.3126694699862 23.61519310391248 23.79077753390428
endloop
endfacet
facet normal 8.377188540100622e-06 -0.9999999999451796 -6.281989261727916e-06
outer loop
vertex 615.3126694699862 23.61519310391248 23.79077753390428
vertex 619.6935922003197 23.615152331647323 27.899993391468524
vertex 615.2117657221149 23.61519096785112 24.086656915921402
endloop
endfacet
facet normal 8.377188540100622e-06 -0.9999999999451796 -6.281989261727916e-06
outer loop
vertex 615.2117657221149 23.61519096785112 24.086656915921402
vertex 619.6935922003197 23.615152331647323 27.899993391468524
vertex 615.0849057690364 23.61518870812991 24.36103937074027
endloop
endfacet
facet normal 8.377188540100622e-06 -0.9999999999451796 -6.281989261727916e-06
outer loop
vertex 615.0849057690364 23.61518870812991 24.36103937074027
vertex 619.6935922003197 23.615152331647323 27.899993391468524
vertex 614.9342602197203 23.615186363413304 24.60923013848573
endloop
endfacet
facet normal 8.377188540100622e-06 -0.9999999999451796 -6.281989261727916e-06
outer loop
vertex 614.9342602197203 23.615186363413304 24.60923013848573
vertex 619.6935922003197 23.615152331647323 27.899993391468524
vertex 614.7624066612822 23.615183973820063 24.82698260631019
endloop
endfacet
facet normal 8.377188540100622e-06 -0.9999999999451796 -6.281989261727916e-06
outer loop
vertex 614.7624066612822 23.615183973820063 24.82698260631019
vertex 619.6935922003197 23.615152331647323 27.899993391468524
vertex 614.5722855557536 23.61518158023677 25.01057096911677
endloop
endfacet
facet normal 8.377188540100622e-06 -0.9999999999451796 -6.281989261727916e-06
outer loop
vertex 614.5722855557536 23.61518158023677 25.01057096911677
vertex 619.6935922003197 23.615152331647323 27.899993391468524
vertex 614.367149927962 23.61517922361832 25.156853979117535
endloop
endfacet
facet normal 8.377188540100622e-06 -0.9999999999451796 -6.281989261727916e-06
outer loop
vertex 614.367149927962 23.61517922361832 25.156853979117535
vertex 619.6935922003197 23.615152331647323 27.899993391468524
vertex 614.1505097053729 23.615176944287093 25.26332869345408
endloop
endfacet
facet normal 8.377188540100622e-06 -0.9999999999451796 -6.281989261727916e-06
outer loop
vertex 614.1505097053729 23.615176944287093 25.26332869345408
vertex 619.6935922003197 23.615152331647323 27.899993391468524
vertex 613.9260716622589 23.615174781243088 25.328173300243705
endloop
endfacet
facet normal 8.377188540100622e-06 -0.9999999999451796 -6.281989261727916e-06
outer loop
vertex 613.9260716622589 23.615174781243088 25.328173300243705
vertex 619.6935922003197 23.615152331647323 27.899993391468524
vertex 613.6976759957638 23.615172771496578 25.35027829028595
endloop
endfacet
facet normal 8.377188540100622e-06 -0.9999999999451796 -6.281989261727916e-06
outer loop
vertex 613.6976759957638 23.615172771496578 25.35027829028595
vertex 619.6935922003197 23.615152331647323 27.899993391468524
vertex 608.1957482407636 23.61515652024643 27.89999339146601
endloop
endfacet
facet normal 8.377188540100622e-06 -0.9999999999451796 -6.281989261727916e-06
outer loop
vertex 608.1957482407952 23.615154635649656 12.20057002808063
vertex 612.4552812050372 23.615181117835757 21.051333387656914
vertex 608.1957482407636 23.61515652024643 27.89999339146601
endloop
endfacet
facet normal 8.377188540100622e-06 -0.9999999999451796 -6.281989261727916e-06
outer loop
vertex 612.4552812050372 23.615181117835757 21.051333387656914
vertex 608.1957482407952 23.615154635649656 12.20057002808063
vertex 612.6271347634753 23.615183507429 20.83358091983246
endloop
endfacet
facet normal 8.377188540100622e-06 -0.9999999999451796 -6.281989261727916e-06
outer loop
vertex 612.6271347634753 23.615183507429 20.83358091983246
vertex 608.1957482407952 23.615154635649656 12.20057002808063
vertex 619.6935922003513 23.61535146346208 12.200570028083147
endloop
endfacet
facet normal 8.377188540100622e-06 -0.9999999999451796 -6.281989261727916e-06
outer loop
vertex 612.6271347634753 23.615183507429 20.83358091983246
vertex 619.6935922003513 23.61535146346208 12.200570028083147
vertex 612.8172558690038 23.61518590101229 20.649992557025886
endloop
endfacet
facet normal 8.377188540100622e-06 -0.9999999999451796 -6.281989261727916e-06
outer loop
vertex 612.8172558690038 23.61518590101229 20.649992557025886
vertex 619.6935922003513 23.61535146346208 12.200570028083147
vertex 613.0223914967955 23.61518825763074 20.503709547025117
endloop
endfacet
facet normal 8.377188540100622e-06 -0.9999999999451796 -6.281989261727916e-06
outer loop
vertex 613.0223914967955 23.61518825763074 20.503709547025117
vertex 619.6935922003513 23.61535146346208 12.200570028083147
vertex 613.2390317193846 23.61519053696197 20.39723483268858
endloop
endfacet
facet normal 8.377188540100622e-06 -0.9999999999451796 -6.281989261727916e-06
outer loop
vertex 613.2390317193846 23.61519053696197 20.39723483268858
vertex 619.6935922003513 23.61535146346208 12.200570028083147
vertex 613.4634697624986 23.615192700005974 20.332390225898955
endloop
endfacet
facet normal 8.377188540100622e-06 -0.9999999999451796 -6.281989261727916e-06
outer loop
vertex 613.4634697624986 23.615192700005974 20.332390225898955
vertex 619.6935922003513 23.61535146346208 12.200570028083147
vertex 613.6918654289937 23.615194709752483 20.310285235856703
endloop
endfacet
facet normal 8.377188540100622e-06 -0.9999999999451796 -6.281989261727916e-06
outer loop
vertex 608.1957482407636 23.61515652024643 27.89999339146601
vertex 612.4552812050372 23.615181117835757 21.051333387656914
vertex 612.3046356557211 23.615178773119148 21.299524155402388
endloop
endfacet
facet normal 8.377188540100622e-06 -0.9999999999451796 -6.281989261727916e-06
outer loop
vertex 608.1957482407636 23.61515652024643 27.89999339146601
vertex 612.3046356557211 23.615178773119148 21.299524155402388
vertex 612.1777757026426 23.61517651339794 21.57390661022124
endloop
endfacet
facet normal 8.377188540100622e-06 -0.9999999999451796 -6.281989261727916e-06
outer loop
vertex 608.1957482407636 23.61515652024643 27.89999339146601
vertex 612.1777757026426 23.61517651339794 21.57390661022124
vertex 612.0768719547713 23.61517437733658 21.869785992238366
endloop
endfacet
facet normal 8.377188540100622e-06 -0.9999999999451796 -6.281989261727916e-06
outer loop
vertex 608.1957482407636 23.61515652024643 27.89999339146601
vertex 612.0768719547713 23.61517437733658 21.869785992238366
vertex 612.0036509032087 23.615172401483676 22.182099723194202
endloop
endfacet
facet normal 8.377188540100622e-06 -0.9999999999451796 -6.281989261727916e-06
outer loop
vertex 608.1957482407636 23.61515652024643 27.89999339146601
vertex 612.0036509032087 23.615172401483676 22.182099723194202
vertex 611.9593653804483 23.61517061964661 22.505504028562328
endloop
endfacet
facet normal 8.377188540100622e-06 -0.9999999999451796 -6.281989261727916e-06
outer loop
vertex 608.1957482407636 23.61515652024643 27.89999339146601
vertex 611.9593653804483 23.61517061964661 22.505504028562328
vertex 611.9447731240623 23.61516906231312 22.83446537101331
endloop
endfacet
facet normal 8.377188540100622e-06 -0.9999999999451796 -6.281989261727916e-06
outer loop
vertex 608.1957482407636 23.61515652024643 27.89999339146601
vertex 611.9447731240623 23.61516906231312 22.83446537101331
vertex 611.9601238116035 23.61516775612961 23.163355130772484
endloop
endfacet
facet normal 8.377188540100622e-06 -0.9999999999451796 -6.281989261727916e-06
outer loop
vertex 608.1957482407636 23.61515652024643 27.89999339146601
vertex 611.9601238116035 23.61516775612961 23.163355130772484
vertex 612.0051547885517 23.61516672344523 23.48654591286492
endloop
endfacet
facet normal 8.377188540100622e-06 -0.9999999999451796 -6.281989261727916e-06
outer loop
vertex 608.1957482407636 23.61515652024643 27.89999339146601
vertex 612.0051547885517 23.61516672344523 23.48654591286492
vertex 612.0790955624069 23.615165981929515 23.798507833403573
endloop
endfacet
facet normal 8.377188540100622e-06 -0.9999999999451796 -6.281989261727916e-06
outer loop
vertex 608.1957482407636 23.61515652024643 27.89999339146601
vertex 612.0790955624069 23.615165981929515 23.798507833403573
vertex 612.1806809860278 23.61516554426999 24.093903137435877
endloop
endfacet
facet normal 8.377188540100622e-06 -0.9999999999451796 -6.281989261727916e-06
outer loop
vertex 608.1957482407636 23.61515652024643 27.89999339146601
vertex 612.1806809860278 23.61516554426999 24.093903137435877
vertex 612.3081729046514 23.61516541795514 24.367677529410756
endloop
endfacet
facet normal 8.377188540100622e-06 -0.9999999999451796 -6.281989261727916e-06
outer loop
vertex 608.1957482407636 23.61515652024643 27.89999339146601
vertex 612.3081729046514 23.61516541795514 24.367677529410756
vertex 612.459389896203 23.615165605146238 24.615146653576947
endloop
endfacet
facet normal 8.377188540100622e-06 -0.9999999999451796 -6.281989261727916e-06
outer loop
vertex 608.1957482407636 23.61515652024643 27.89999339146601
vertex 612.459389896203 23.615165605146238 24.615146653576947
vertex 612.6317445960315 23.6151661026404 24.83207624460853
endloop
endfacet
facet normal 8.377188540100622e-06 -0.9999999999451796 -6.281989261727916e-06
outer loop
vertex 608.1957482407636 23.61515652024643 27.89999339146601
vertex 612.6317445960315 23.6151661026404 24.83207624460853
vertex 612.8222879674372 23.61516690192536 25.014754577058746
endloop
endfacet
facet normal 8.377188540100622e-06 -0.9999999999451796 -6.281989261727916e-06
outer loop
vertex 608.1957482407636 23.61515652024643 27.89999339146601
vertex 612.8222879674372 23.61516690192536 25.014754577058746
vertex 613.0277597605068 23.615167989325137 25.160055974011357
endloop
endfacet
facet normal 8.377188540100622e-06 -0.9999999999451796 -6.281989261727916e-06
outer loop
vertex 608.1957482407636 23.61515652024643 27.89999339146601
vertex 613.0277597605068 23.615167989325137 25.160055974011357
vertex 613.2446442958933 23.61516934623401 25.265494288279328
endloop
endfacet
facet normal 8.377188540100622e-06 -0.9999999999451796 -6.281989261727916e-06
outer loop
vertex 608.1957482407636 23.61515652024643 27.89999339146601
vertex 613.2446442958933 23.61516934623401 25.265494288279328
vertex 613.4692306190645 23.615170949434894 25.32926544107252
endloop
endfacet
facet normal 8.377188540100622e-06 -0.9999999999451796 -6.281989261727916e-06
outer loop
vertex 608.1957482407636 23.61515652024643 27.89999339146601
vertex 613.4692306190645 23.615170949434894 25.32926544107252
vertex 613.6976759957638 23.615172771496578 25.35027829028595
endloop
endfacet
facet normal 0.9270950076301997 0.007505794298169575 -0.37475126401269665
outer loop
vertex 612.1806223508584 30.614550390384387 24.233946914563774
vertex 612.1806809860278 23.61516554426999 24.093903137435877
vertex 612.0790955624069 23.615165981929515 23.798507833403573
endloop
endfacet
facet normal 0.9833686250763481 -0.003624911239413712 0.18158471090364178
outer loop
vertex 612.0035922680394 30.61455724759807 22.322143500322095
vertex 612.0036509032087 23.615172401483676 22.182099723194202
vertex 612.0768719547713 23.61517437733658 21.869785992238366
endloop
endfacet
facet normal 0.9603249445826347 0.005586829315207684 -0.27882752401899336
outer loop
vertex 612.0790369272374 30.61455082804391 23.938551610531473
vertex 612.1806223508584 30.614550390384387 24.233946914563774
vertex 612.0790955624069 23.615165981929515 23.798507833403573
endloop
endfacet
facet normal -0.7386953441587756 -0.01348967676181631 0.6739044569811139
outer loop
vertex 614.7577968287261 23.61520137860866 20.828487281534116
vertex 614.7577381935566 30.614586224723055 20.96853105866202
vertex 614.5672534573204 23.615200579323698 20.6458089490839
endloop
endfacet
facet normal -0.928087313618501 0.00744097385350579 -0.3722882891100734
outer loop
vertex 615.2117070869455 30.614575813965516 24.22670069304931
vertex 615.2117657221149 23.61519096785112 24.086656915921402
vertex 615.084847133867 30.614573554244313 24.50108314786817
endloop
endfacet
facet normal 0.9956654934843567 0.0018688420796687335 -0.09298780841504774
outer loop
vertex 611.960065176434 30.614552602244004 23.303398907900384
vertex 612.0050961533823 30.614551569559634 23.62658968999282
vertex 611.9601238116035 23.61516775612961 23.163355130772484
endloop
endfacet
facet normal -0.18793196587333352 0.01964600438700335 -0.9819855450639842
outer loop
vertex 613.9260716622589 23.615174781243088 25.328173300243705
vertex 613.6976759957638 23.615172771496578 25.35027829028595
vertex 613.9260130270894 30.61455962735749 25.468217077371595
endloop
endfacet
facet normal 0.8829185266476747 -0.009385013190785415 0.46943241987501066
outer loop
vertex 612.3045770205516 30.61456361923355 21.43956793253028
vertex 612.1777170674732 30.614561359512336 21.713950387349154
vertex 612.3046356557211 23.615178773119148 21.299524155402388
endloop
endfacet
facet normal -0.7418529649447964 0.013407727500876723 -0.6704285280668455
outer loop
vertex 614.7624066612822 23.615183973820063 24.82698260631019
vertex 614.5722855557536 23.61518158023677 25.01057096911677
vertex 614.7623480261127 30.61456881993446 24.96702638343808
endloop
endfacet
facet normal -0.18333216952005 -0.019666496285847716 0.9828542844913027
outer loop
vertex 613.9202521705236 30.614581377928562 20.47134186219803
vertex 613.6918067938242 30.61457955586688 20.450329012984596
vertex 613.6918654289937 23.615194709752483 20.310285235856703
endloop
endfacet
facet normal 0.9999984949829769 4.307926067235385e-05 -0.0017344093976240336
outer loop
vertex 611.9447144888928 30.614553908427517 22.97450914814121
vertex 611.9447731240623 23.61516906231312 22.83446537101331
vertex 611.9593653804483 23.61517061964661 22.505504028562328
endloop
endfacet
facet normal -0.9610196995674235 0.005522658930584096 -0.27642474071919776
outer loop
vertex 615.3126108348168 30.61457795002688 23.93082131103218
vertex 615.3858905215487 23.615195079765382 23.478463802948447
vertex 615.3126694699862 23.61519310391248 23.79077753390428
endloop
endfacet
facet normal -0.9275570686910876 -0.007482895691474615 0.373606598701452
outer loop
vertex 615.2088018035603 30.614586783093475 21.706704165834683
vertex 615.081368520106 23.61520206329392 21.292885996731883
vertex 615.2088604387297 23.615201936979073 21.566660388706765
endloop
endfacet
facet normal 0.3568736019520197 0.01868978663209822 -0.9339656974993451
outer loop
vertex 613.2446442958933 23.61516934623401 25.265494288279328
vertex 613.0277597605068 23.615167989325137 25.160055974011357
vertex 613.2445856607238 30.614554192348407 25.405538065407224
endloop
endfacet
facet normal 0.928546038622069 -0.007418057751184074 0.37114313489335016
outer loop
vertex 612.1777170674732 30.614561359512336 21.713950387349154
vertex 612.1777757026426 23.61517651339794 21.57390661022124
vertex 612.3046356557211 23.615178773119148 21.299524155402388
endloop
endfacet
facet normal 0.8809745646829968 0.009472546345935865 -0.47306879758374315
outer loop
vertex 612.308114269482 30.61455026406954 24.507721306538656
vertex 612.459389896203 23.615165605146238 24.615146653576947
vertex 612.3081729046514 23.61516541795514 24.367677529410756
endloop
endfacet
facet normal 0.36102924006669107 -0.01865180491374539 0.9323679520394977
outer loop
vertex 613.2389730842152 30.614575383076364 20.53727860981648
vertex 613.0223328616261 30.614573103745137 20.643753324153025
vertex 613.0223914967955 23.61518825763074 20.503709547025117
endloop
endfacet
facet normal 0.9827131758740686 0.0037116628657763166 -0.18509737308312316
outer loop
vertex 612.0050961533823 30.614551569559634 23.62658968999282
vertex 612.0051547885517 23.61516672344523 23.48654591286492
vertex 611.9601238116035 23.61516775612961 23.163355130772484
endloop
endfacet
facet normal 0.9613518034387534 -0.005499511832449529 0.27526798832167415
outer loop
vertex 612.0768133196018 30.614559223450982 22.009829769366277
vertex 612.0768719547713 23.61517437733658 21.869785992238366
vertex 612.1777757026426 23.61517651339794 21.57390661022124
endloop
endfacet
facet normal -0.81999063339041 -0.011456699666116234 0.5722622695799148
outer loop
vertex 614.9300928933851 30.614586722217222 21.185460649693606
vertex 614.7577968287261 23.61520137860866 20.828487281534116
vertex 614.9301515285545 23.61520187610282 21.04541687256571
endloop
endfacet
facet normal 0.3561288397892909 0.018695465150405998 -0.9342498215430088
outer loop
vertex 613.2445856607238 30.614554192348407 25.405538065407224
vertex 613.0277597605068 23.615167989325137 25.160055974011357
vertex 613.0277011253374 30.614552835439532 25.300099751139253
endloop
endfacet
facet normal -0.9958797177655782 0.0018057041574970443 -0.09066601996143965
outer loop
vertex 615.4301174091398 30.61458170771685 23.295103274708225
vertex 615.4301760443092 23.61519686160245 23.15505949758033
vertex 615.3858318863793 30.614579925879777 23.618507580076347
endloop
endfacet
facet normal 0.7418529649447861 -0.013407727500878026 0.6704285280668567
outer loop
vertex 612.6270761283059 30.614568353543394 20.97362469696036
vertex 612.4552225698677 30.614565963950156 21.191377164784818
vertex 612.4552812050372 23.615181117835757 21.051333387656914
endloop
endfacet
facet normal -0.882324639388038 0.009407324093898953 -0.4705472696575352
outer loop
vertex 615.084847133867 30.614573554244313 24.50108314786817
vertex 615.2117657221149 23.61519096785112 24.086656915921402
vertex 615.0849057690364 23.61518870812991 24.36103937074027
endloop
endfacet
facet normal 0.5129184487417957 -0.017167892777002734 0.8582656514144716
outer loop
vertex 613.0223328616261 30.614573103745137 20.643753324153025
vertex 612.8171972338345 30.61457074712669 20.790036334153793
vertex 612.8172558690038 23.61518590101229 20.649992557025886
endloop
endfacet
facet normal -0.9999998336320485 -1.9911583664430544e-05 0.000576488858868188
outer loop
vertex 615.4447096655257 30.614583265050335 22.966141932257237
vertex 615.4294176131541 23.615199725119453 22.497208395370162
vertex 615.4447683006952 23.61519841893594 22.826098155129348
endloop
endfacet
facet normal -0.6368658134261487 -0.015427916825173403 0.7708202871431742
outer loop
vertex 614.5671948221509 30.614585425438094 20.7858527262118
vertex 614.3617230290812 30.61458433803832 20.640551329259203
vertex 614.3617816642507 23.615199491923924 20.5005075521313
endloop
endfacet
facet normal -0.8815719511035883 -0.009450267861877687 0.4719550693283752
outer loop
vertex 615.0813098849367 30.614586909408324 21.4329297738598
vertex 615.081368520106 23.61520206329392 21.292885996731883
vertex 615.2088018035603 30.614586783093475 21.706704165834683
endloop
endfacet
facet normal 0.8192563040139309 0.011477709117781908 -0.5733126289615829
outer loop
vertex 612.4593312610335 30.61455045126064 24.75519043070484
vertex 612.459389896203 23.615165605146238 24.615146653576947
vertex 612.308114269482 30.61455026406954 24.507721306538656
endloop
endfacet
facet normal 0.9959845496034059 -0.001782524380403606 0.08950753911338563
outer loop
vertex 611.9593067452788 30.61455546576101 22.645547805690228
vertex 611.9447144888928 30.614553908427517 22.97450914814121
vertex 611.9593653804483 23.61517061964661 22.505504028562328
endloop
endfacet
facet normal -0.18290886070223256 -0.019668070054087744 0.9829331186286069
outer loop
vertex 613.9203108056929 23.615196531814167 20.331298085070124
vertex 613.9202521705236 30.614581377928562 20.47134186219803
vertex 613.6918654289937 23.615194709752483 20.310285235856703
endloop
endfacet
facet normal 0.5093686511464964 0.017218683256251286 -0.8603761352897463
outer loop
vertex 613.0277597605068 23.615167989325137 25.160055974011357
vertex 612.8222879674372 23.61516690192536 25.014754577058746
vertex 613.0277011253374 30.614552835439532 25.300099751139253
endloop
endfacet
facet normal -0.18749880629418922 0.019647663992093164 -0.9820683107288963
outer loop
vertex 613.9260130270894 30.61455962735749 25.468217077371595
vertex 613.6976759957638 23.615172771496578 25.35027829028595
vertex 613.6976173605943 30.614557617610973 25.490322067413842
endloop
endfacet
facet normal -0.81999063339041 -0.011456699666116234 0.5722622695799148
outer loop
vertex 614.9300928933851 30.614586722217222 21.185460649693606
vertex 614.9301515285545 23.61520187610282 21.04541687256571
vertex 615.081368520106 23.61520206329392 21.292885996731883
endloop
endfacet
facet normal -0.9275570686910876 -0.007482895691474615 0.373606598701452
outer loop
vertex 615.2088018035603 30.614586783093475 21.706704165834683
vertex 615.2088604387297 23.615201936979073 21.566660388706765
vertex 615.3103872271812 30.614586345433942 22.002099469866977
endloop
endfacet
facet normal -0.9606601404881177 -0.0055636907762404535 0.2776709200155759
outer loop
vertex 615.3103872271812 30.614586345433942 22.002099469866977
vertex 615.2088604387297 23.615201936979073 21.566660388706765
vertex 615.3104458623507 23.615201499319546 21.862055692739077
endloop
endfacet
facet normal -0.9610196995674235 0.005522658930584096 -0.27642474071919776
outer loop
vertex 615.3126108348168 30.61457795002688 23.93082131103218
vertex 615.3126694699862 23.61519310391248 23.79077753390428
vertex 615.2117070869455 30.614575813965516 24.22670069304931
endloop
endfacet
facet normal -8.230392601149132e-06 0.9999999999497353 5.726252213740135e-06
outer loop
vertex 608.1956896051731 30.61459162046374 27.900037361842138
vertex 616.1975234231859 30.614779676069993 7.400259970980583
vertex 608.1956890668366 30.61460481375541 7.400257817543274
endloop
endfacet
facet normal -8.230392601149132e-06 0.9999999999497353 5.726252213740135e-06
outer loop
vertex 616.1975234231859 30.614779676069993 7.400259970980583
vertex 608.1956896051731 30.61459162046374 27.900037361842138
vertex 616.1975323386134 30.61471931800458 12.200609869904822
endloop
endfacet
facet normal -8.230392601149132e-06 0.9999999999497353 5.726252213740135e-06
outer loop
vertex 616.1975323386134 30.61471931800458 12.200609869904822
vertex 608.1956896051731 30.61459162046374 27.900037361842138
vertex 612.4552225698677 30.614565963950156 21.191377164784818
endloop
endfacet
facet normal -8.230392601149132e-06 0.9999999999497353 5.726252213740135e-06
outer loop
vertex 616.1975323386134 30.61471931800458 12.200609869904822
vertex 612.4552225698677 30.614565963950156 21.191377164784818
vertex 612.6270761283059 30.614568353543394 20.97362469696036
endloop
endfacet
facet normal -8.230392601149132e-06 0.9999999999497353 5.726252213740135e-06
outer loop
vertex 616.1975323386134 30.61471931800458 12.200609869904822
vertex 612.6270761283059 30.614568353543394 20.97362469696036
vertex 612.8171972338345 30.61457074712669 20.790036334153793
endloop
endfacet
facet normal -8.230392601149132e-06 0.9999999999497353 5.726252213740135e-06
outer loop
vertex 616.1975323386134 30.61471931800458 12.200609869904822
vertex 612.8171972338345 30.61457074712669 20.790036334153793
vertex 613.0223328616261 30.614573103745137 20.643753324153025
endloop
endfacet
facet normal -8.230392601149132e-06 0.9999999999497353 5.726252213740135e-06
outer loop
vertex 616.1975323386134 30.61471931800458 12.200609869904822
vertex 613.0223328616261 30.614573103745137 20.643753324153025
vertex 613.2389730842152 30.614575383076364 20.53727860981648
endloop
endfacet
facet normal -8.230392601149132e-06 0.9999999999497353 5.726252213740135e-06
outer loop
vertex 616.1975323386134 30.61471931800458 12.200609869904822
vertex 613.2389730842152 30.614575383076364 20.53727860981648
vertex 613.4634111273291 30.614577546120373 20.472434003026844
endloop
endfacet
facet normal -8.230392601149132e-06 0.9999999999497353 5.726252213740135e-06
outer loop
vertex 616.1975323386134 30.61471931800458 12.200609869904822
vertex 613.4634111273291 30.614577546120373 20.472434003026844
vertex 613.6918067938242 30.61457955586688 20.450329012984596
endloop
endfacet
facet normal -8.230392601149132e-06 0.9999999999497353 5.726252213740135e-06
outer loop
vertex 612.4552225698677 30.614565963950156 21.191377164784818
vertex 608.1956896051731 30.61459162046374 27.900037361842138
vertex 612.3045770205516 30.61456361923355 21.43956793253028
endloop
endfacet
facet normal -8.230392601149132e-06 0.9999999999497353 5.726252213740135e-06
outer loop
vertex 612.3045770205516 30.61456361923355 21.43956793253028
vertex 608.1956896051731 30.61459162046374 27.900037361842138
vertex 612.1777170674732 30.614561359512336 21.713950387349154
endloop
endfacet
facet normal -8.230392601149132e-06 0.9999999999497353 5.726252213740135e-06
outer loop
vertex 612.1777170674732 30.614561359512336 21.713950387349154
vertex 608.1956896051731 30.61459162046374 27.900037361842138
vertex 612.0768133196018 30.614559223450982 22.009829769366277
endloop
endfacet
facet normal -8.230392601149132e-06 0.9999999999497353 5.726252213740135e-06
outer loop
vertex 612.0768133196018 30.614559223450982 22.009829769366277
vertex 608.1956896051731 30.61459162046374 27.900037361842138
vertex 612.0035922680394 30.61455724759807 22.322143500322095
endloop
endfacet
facet normal -8.230392601149132e-06 0.9999999999497353 5.726252213740135e-06
outer loop
vertex 612.0035922680394 30.61455724759807 22.322143500322095
vertex 608.1956896051731 30.61459162046374 27.900037361842138
vertex 611.9593067452788 30.61455546576101 22.645547805690228
endloop
endfacet
facet normal -8.230392601149132e-06 0.9999999999497353 5.726252213740135e-06
outer loop
vertex 611.9593067452788 30.61455546576101 22.645547805690228
vertex 608.1956896051731 30.61459162046374 27.900037361842138
vertex 611.9447144888928 30.614553908427517 22.97450914814121
endloop
endfacet
facet normal -8.230392601149132e-06 0.9999999999497353 5.726252213740135e-06
outer loop
vertex 611.9447144888928 30.614553908427517 22.97450914814121
vertex 608.1956896051731 30.61459162046374 27.900037361842138
vertex 611.960065176434 30.614552602244004 23.303398907900384
endloop
endfacet
facet normal -8.230392601149132e-06 0.9999999999497353 5.726252213740135e-06
outer loop
vertex 611.960065176434 30.614552602244004 23.303398907900384
vertex 608.1956896051731 30.61459162046374 27.900037361842138
vertex 612.0050961533823 30.614551569559634 23.62658968999282
endloop
endfacet
facet normal -8.230392601149132e-06 0.9999999999497353 5.726252213740135e-06
outer loop
vertex 612.0050961533823 30.614551569559634 23.62658968999282
vertex 608.1956896051731 30.61459162046374 27.900037361842138
vertex 612.0790369272374 30.61455082804391 23.938551610531473
endloop
endfacet
facet normal -8.230392601149132e-06 0.9999999999497353 5.726252213740135e-06
outer loop
vertex 612.0790369272374 30.61455082804391 23.938551610531473
vertex 608.1956896051731 30.61459162046374 27.900037361842138
vertex 612.1806223508584 30.614550390384387 24.233946914563774
endloop
endfacet
facet normal -8.230392601149132e-06 0.9999999999497353 5.726252213740135e-06
outer loop
vertex 612.1806223508584 30.614550390384387 24.233946914563774
vertex 608.1956896051731 30.61459162046374 27.900037361842138
vertex 612.308114269482 30.61455026406954 24.507721306538656
endloop
endfacet
facet normal -8.230392601149132e-06 0.9999999999497353 5.726252213740135e-06
outer loop
vertex 612.308114269482 30.61455026406954 24.507721306538656
vertex 608.1956896051731 30.61459162046374 27.900037361842138
vertex 612.4593312610335 30.61455045126064 24.75519043070484
endloop
endfacet
facet normal -8.230392601149132e-06 0.9999999999497353 5.726252213740135e-06
outer loop
vertex 612.4593312610335 30.61455045126064 24.75519043070484
vertex 608.1956896051731 30.61459162046374 27.900037361842138
vertex 612.631685960862 30.614550948754797 24.97212002173643
endloop
endfacet
facet normal -8.230392601149132e-06 0.9999999999497353 5.726252213740135e-06
outer loop
vertex 612.631685960862 30.614550948754797 24.97212002173643
vertex 608.1956896051731 30.61459162046374 27.900037361842138
vertex 612.8222293322677 30.614551748039755 25.15479835418664
endloop
endfacet
facet normal -8.230392601149132e-06 0.9999999999497353 5.726252213740135e-06
outer loop
vertex 612.8222293322677 30.614551748039755 25.15479835418664
vertex 608.1956896051731 30.61459162046374 27.900037361842138
vertex 613.0277011253374 30.614552835439532 25.300099751139253
endloop
endfacet
facet normal -8.230392601149132e-06 0.9999999999497353 5.726252213740135e-06
outer loop
vertex 613.0277011253374 30.614552835439532 25.300099751139253
vertex 608.1956896051731 30.61459162046374 27.900037361842138
vertex 613.2445856607238 30.614554192348407 25.405538065407224
endloop
endfacet
facet normal -8.230392601149132e-06 0.9999999999497353 5.726252213740135e-06
outer loop
vertex 613.2445856607238 30.614554192348407 25.405538065407224
vertex 608.1956896051731 30.61459162046374 27.900037361842138
vertex 613.4691719838951 30.61455579554929 25.469309218200415
endloop
endfacet
facet normal -8.230392601149132e-06 0.9999999999497353 5.726252213740135e-06
outer loop
vertex 613.4691719838951 30.61455579554929 25.469309218200415
vertex 608.1956896051731 30.61459162046374 27.900037361842138
vertex 613.6976173605943 30.614557617610973 25.490322067413842
endloop
endfacet
facet normal -8.230392601149132e-06 0.9999999999497353 5.726252213740135e-06
outer loop
vertex 616.1975323386134 30.61471931800458 12.200609869904822
vertex 619.6935335647293 30.61458743186463 27.900037361844653
vertex 619.6935419418204 30.61474128350242 12.20060771647003
endloop
endfacet
facet normal -8.230392601149132e-06 0.9999999999497353 5.726252213740135e-06
outer loop
vertex 619.6935335647293 30.61458743186463 27.900037361844653
vertex 616.1975323386134 30.61471931800458 12.200609869904822
vertex 614.9300928933851 30.614586722217222 21.185460649693606
endloop
endfacet
facet normal -8.230392601149132e-06 0.9999999999497353 5.726252213740135e-06
outer loop
vertex 614.9300928933851 30.614586722217222 21.185460649693606
vertex 616.1975323386134 30.61471931800458 12.200609869904822
vertex 614.7577381935566 30.614586224723055 20.96853105866202
endloop
endfacet
facet normal -8.230392601149132e-06 0.9999999999497353 5.726252213740135e-06
outer loop
vertex 614.7577381935566 30.614586224723055 20.96853105866202
vertex 616.1975323386134 30.61471931800458 12.200609869904822
vertex 614.5671948221509 30.614585425438094 20.7858527262118
endloop
endfacet
facet normal -8.230392601149132e-06 0.9999999999497353 5.726252213740135e-06
outer loop
vertex 614.5671948221509 30.614585425438094 20.7858527262118
vertex 616.1975323386134 30.61471931800458 12.200609869904822
vertex 614.3617230290812 30.61458433803832 20.640551329259203
endloop
endfacet
facet normal -8.230392601149132e-06 0.9999999999497353 5.726252213740135e-06
outer loop
vertex 614.3617230290812 30.61458433803832 20.640551329259203
vertex 616.1975323386134 30.61471931800458 12.200609869904822
vertex 614.1448384936947 30.614582981129455 20.53511301499122
endloop
endfacet
facet normal -8.230392601149132e-06 0.9999999999497353 5.726252213740135e-06
outer loop
vertex 614.1448384936947 30.614582981129455 20.53511301499122
vertex 616.1975323386134 30.61471931800458 12.200609869904822
vertex 613.9202521705236 30.614581377928562 20.47134186219803
endloop
endfacet
facet normal -8.230392601149132e-06 0.9999999999497353 5.726252213740135e-06
outer loop
vertex 613.9202521705236 30.614581377928562 20.47134186219803
vertex 616.1975323386134 30.61471931800458 12.200609869904822
vertex 613.6918067938242 30.61457955586688 20.450329012984596
endloop
endfacet
facet normal -8.230392601149132e-06 0.9999999999497353 5.726252213740135e-06
outer loop
vertex 619.6935335647293 30.61458743186463 27.900037361844653
vertex 614.9300928933851 30.614586722217222 21.185460649693606
vertex 615.0813098849367 30.614586909408324 21.4329297738598
endloop
endfacet
facet normal -8.230392601149132e-06 0.9999999999497353 5.726252213740135e-06
outer loop
vertex 619.6935335647293 30.61458743186463 27.900037361844653
vertex 615.0813098849367 30.614586909408324 21.4329297738598
vertex 615.2088018035603 30.614586783093475 21.706704165834683
endloop
endfacet
facet normal -8.230392601149132e-06 0.9999999999497353 5.726252213740135e-06
outer loop
vertex 619.6935335647293 30.61458743186463 27.900037361844653
vertex 615.2088018035603 30.614586783093475 21.706704165834683
vertex 615.3103872271812 30.614586345433942 22.002099469866977
endloop
endfacet
facet normal -8.230392601149132e-06 0.9999999999497353 5.726252213740135e-06
outer loop
vertex 619.6935335647293 30.61458743186463 27.900037361844653
vertex 615.3103872271812 30.614586345433942 22.002099469866977
vertex 615.3843280010362 30.61458560391823 22.314061390405634
endloop
endfacet
facet normal -8.230392601149132e-06 0.9999999999497353 5.726252213740135e-06
outer loop
vertex 619.6935335647293 30.61458743186463 27.900037361844653
vertex 615.3843280010362 30.61458560391823 22.314061390405634
vertex 615.4293589779846 30.61458457123385 22.637252172498073
endloop
endfacet
facet normal -8.230392601149132e-06 0.9999999999497353 5.726252213740135e-06
outer loop
vertex 619.6935335647293 30.61458743186463 27.900037361844653
vertex 615.4293589779846 30.61458457123385 22.637252172498073
vertex 615.4447096655257 30.614583265050335 22.966141932257237
endloop
endfacet
facet normal -8.230392601149132e-06 0.9999999999497353 5.726252213740135e-06
outer loop
vertex 619.6935335647293 30.61458743186463 27.900037361844653
vertex 615.4447096655257 30.614583265050335 22.966141932257237
vertex 615.4301174091398 30.61458170771685 23.295103274708225
endloop
endfacet
facet normal -8.230392601149132e-06 0.9999999999497353 5.726252213740135e-06
outer loop
vertex 619.6935335647293 30.61458743186463 27.900037361844653
vertex 615.4301174091398 30.61458170771685 23.295103274708225
vertex 615.3858318863793 30.614579925879777 23.618507580076347
endloop
endfacet
facet normal -8.230392601149132e-06 0.9999999999497353 5.726252213740135e-06
outer loop
vertex 619.6935335647293 30.61458743186463 27.900037361844653
vertex 615.3858318863793 30.614579925879777 23.618507580076347
vertex 615.3126108348168 30.61457795002688 23.93082131103218
endloop
endfacet
facet normal -8.230392601149132e-06 0.9999999999497353 5.726252213740135e-06
outer loop
vertex 619.6935335647293 30.61458743186463 27.900037361844653
vertex 615.3126108348168 30.61457795002688 23.93082131103218
vertex 615.2117070869455 30.614575813965516 24.22670069304931
endloop
endfacet
facet normal -8.230392601149132e-06 0.9999999999497353 5.726252213740135e-06
outer loop
vertex 619.6935335647293 30.61458743186463 27.900037361844653
vertex 615.2117070869455 30.614575813965516 24.22670069304931
vertex 615.084847133867 30.614573554244313 24.50108314786817
endloop
endfacet
facet normal -8.230392601149132e-06 0.9999999999497353 5.726252213740135e-06
outer loop
vertex 619.6935335647293 30.61458743186463 27.900037361844653
vertex 615.084847133867 30.614573554244313 24.50108314786817
vertex 614.9342015845508 30.614571209527707 24.749273915613625
endloop
endfacet
facet normal -8.230392601149132e-06 0.9999999999497353 5.726252213740135e-06
outer loop
vertex 619.6935335647293 30.61458743186463 27.900037361844653
vertex 614.9342015845508 30.614571209527707 24.749273915613625
vertex 614.7623480261127 30.61456881993446 24.96702638343808
endloop
endfacet
facet normal -8.230392601149132e-06 0.9999999999497353 5.726252213740135e-06
outer loop
vertex 619.6935335647293 30.61458743186463 27.900037361844653
vertex 614.7623480261127 30.61456881993446 24.96702638343808
vertex 614.5722269205842 30.61456642635117 25.150614746244663
endloop
endfacet
facet normal -8.230392601149132e-06 0.9999999999497353 5.726252213740135e-06
outer loop
vertex 619.6935335647293 30.61458743186463 27.900037361844653
vertex 614.5722269205842 30.61456642635117 25.150614746244663
vertex 614.3670912927926 30.614564069732715 25.296897756245432
endloop
endfacet
facet normal -8.230392601149132e-06 0.9999999999497353 5.726252213740135e-06
outer loop
vertex 619.6935335647293 30.61458743186463 27.900037361844653
vertex 614.3670912927926 30.614564069732715 25.296897756245432
vertex 614.1504510702034 30.61456179040149 25.403372470581978
endloop
endfacet
facet normal -8.230392601149132e-06 0.9999999999497353 5.726252213740135e-06
outer loop
vertex 619.6935335647293 30.61458743186463 27.900037361844653
vertex 614.1504510702034 30.61456179040149 25.403372470581978
vertex 613.9260130270894 30.61455962735749 25.468217077371595
endloop
endfacet
facet normal -8.230392601149132e-06 0.9999999999497353 5.726252213740135e-06
outer loop
vertex 619.6935335647293 30.61458743186463 27.900037361844653
vertex 613.9260130270894 30.61455962735749 25.468217077371595
vertex 613.6976173605943 30.614557617610973 25.490322067413842
endloop
endfacet
facet normal -8.230392601149132e-06 0.9999999999497353 5.726252213740135e-06
outer loop
vertex 619.6935335647293 30.61458743186463 27.900037361844653
vertex 613.6976173605943 30.614557617610973 25.490322067413842
vertex 608.1956896051731 30.61459162046374 27.900037361842138
endloop
endfacet
facet normal -0.928087313618501 0.00744097385350579 -0.3722882891100734
outer loop
vertex 615.2117070869455 30.614575813965516 24.22670069304931
vertex 615.3126694699862 23.61519310391248 23.79077753390428
vertex 615.2117657221149 23.61519096785112 24.086656915921402
endloop
endfacet
facet normal -0.9957730527950736 -0.0018456635863182856 0.09182930280202489
outer loop
vertex 615.4293589779846 30.61458457123385 22.637252172498073
vertex 615.3843866362057 23.615200757803827 22.174017613277734
vertex 615.4294176131541 23.615199725119453 22.497208395370162
endloop
endfacet
facet normal -0.356128839789313 -0.018695465150406536 0.9342498215430004
outer loop
vertex 614.1448971288642 23.615198135015053 20.395069237863325
vertex 614.1448384936947 30.614582981129455 20.53511301499122
vertex 613.9203108056929 23.615196531814167 20.331298085070124
endloop
endfacet
facet normal 0.9603249445826347 0.005586829315207684 -0.27882752401899336
outer loop
vertex 612.0790369272374 30.61455082804391 23.938551610531473
vertex 612.0790955624069 23.615165981929515 23.798507833403573
vertex 612.0051547885517 23.61516672344523 23.48654591286492
endloop
endfacet
facet normal -0.508460371876025 -0.01722941728772954 0.860913002231712
outer loop
vertex 614.3617816642507 23.615199491923924 20.5005075521313
vertex 614.3617230290812 30.61458433803832 20.640551329259203
vertex 614.1448971288642 23.615198135015053 20.395069237863325
endloop
endfacet
facet normal -0.8210404397457043 0.011412813794617598 -0.5707559408218805
outer loop
vertex 614.9342015845508 30.614571209527707 24.749273915613625
vertex 614.9342602197203 23.615186363413304 24.60923013848573
vertex 614.7624066612822 23.615183973820063 24.82698260631019
endloop
endfacet
facet normal -0.882324639388038 0.009407324093898953 -0.4705472696575352
outer loop
vertex 615.084847133867 30.614573554244313 24.50108314786817
vertex 615.0849057690364 23.61518870812991 24.36103937074027
vertex 614.9342015845508 30.614571209527707 24.749273915613625
endloop
endfacet
facet normal -0.50936865114649 -0.017218683256252046 0.86037613528975
outer loop
vertex 614.3617230290812 30.61458433803832 20.640551329259203
vertex 614.1448384936947 30.614582981129455 20.53511301499122
vertex 614.1448971288642 23.615198135015053 20.395069237863325
endloop
endfacet
facet normal 0.8217713870653957 -0.011391749325695588 0.5697034451782051
outer loop
vertex 612.4552225698677 30.614565963950156 21.191377164784818
vertex 612.3045770205516 30.61456361923355 21.43956793253028
vertex 612.4552812050372 23.615181117835757 21.051333387656914
endloop
endfacet
facet normal 0.36027832529763704 -0.01865761959946017 0.9326582554996293
outer loop
vertex 613.2390317193846 23.61519053696197 20.39723483268858
vertex 613.2389730842152 30.614575383076364 20.53727860981648
vertex 613.0223914967955 23.61518825763074 20.503709547025117
endloop
endfacet
facet normal -0.9829308899796471 -0.003688471901283127 0.183938198041767
outer loop
vertex 615.3843280010362 30.61458560391823 22.314061390405634
vertex 615.3843866362057 23.615200757803827 22.174017613277734
vertex 615.4293589779846 30.61458457123385 22.637252172498073
endloop
endfacet
facet normal -0.9831537835449201 0.0036481059027436476 -0.18274388970532188
outer loop
vertex 615.3858318863793 30.614579925879777 23.618507580076347
vertex 615.4301760443092 23.61519686160245 23.15505949758033
vertex 615.3858905215487 23.615195079765382 23.478463802948447
endloop
endfacet
facet normal 2.690493169245705e-07 3.1409968848468803e-06 -0.9999999999950309
outer loop
vertex 616.1975234231859 30.614779676069993 7.400259970980583
vertex 608.1957058212146 28.61460481379487 7.400251535554012
vertex 608.1956890668366 30.61460481375541 7.400257817543274
endloop
endfacet
facet normal 2.690493169245705e-07 3.1409968848468803e-06 -0.9999999999950309
outer loop
vertex 608.1957058212146 28.61460481379487 7.400251535554012
vertex 616.1975234231859 30.614779676069993 7.400259970980583
vertex 616.1975401775638 28.614779676109453 7.400253688991322
endloop
endfacet
facet normal -0.00238224418311842 0.020003931843974195 -0.9997970632200487
outer loop
vertex 613.6976759957638 23.615172771496578 25.35027829028595
vertex 613.4692306190645 23.615170949434894 25.32926544107252
vertex 613.6976173605943 30.614557617610973 25.490322067413842
endloop
endfacet
facet normal -0.7409999252022643 0.013426588923690514 -0.6713708643962091
outer loop
vertex 614.7623480261127 30.61456881993446 24.96702638343808
vertex 614.5722855557536 23.61518158023677 25.01057096911677
vertex 614.5722269205842 30.61456642635117 25.150614746244663
endloop
endfacet
facet normal -0.9958797177655782 0.0018057041574970443 -0.09066601996143965
outer loop
vertex 615.4301174091398 30.61458170771685 23.295103274708225
vertex 615.4447683006952 23.61519841893594 22.826098155129348
vertex 615.4301760443092 23.61519686160245 23.15505949758033
endloop
endfacet
facet normal 0.9613518034387534 -0.005499511832449529 0.27526798832167415
outer loop
vertex 612.0768133196018 30.614559223450982 22.009829769366277
vertex 612.0035922680394 30.61455724759807 22.322143500322095
vertex 612.0768719547713 23.61517437733658 21.869785992238366
endloop
endfacet
facet normal 0.00238224418311906 -0.0200039318439742 0.9997970632200487
outer loop
vertex 613.6918067938242 30.61457955586688 20.450329012984596
vertex 613.4634111273291 30.614577546120373 20.472434003026844
vertex 613.4634697624986 23.615192700005974 20.332390225898955
endloop
endfacet
facet normal 0.8829185266476747 -0.009385013190785415 0.46943241987501066
outer loop
vertex 612.3045770205516 30.61456361923355 21.43956793253028
vertex 612.3046356557211 23.615178773119148 21.299524155402388
vertex 612.4552812050372 23.615181117835757 21.051333387656914
endloop
endfacet
facet normal 0.9999999999800722 6.283019878842728e-06 -6.159693588433197e-07
outer loop
vertex 616.1975401775638 28.614779676109453 7.400253688991322
vertex 616.1975323386134 30.61471931800458 12.200609869904822
vertex 616.1975407159318 28.614764598220997 12.200609869904818
endloop
endfacet
facet normal 0.9999999999800722 6.283019878842728e-06 -6.159693588433197e-07
outer loop
vertex 616.1975323386134 30.61471931800458 12.200609869904822
vertex 616.1975401775638 28.614779676109453 7.400253688991322
vertex 616.1975234231859 30.614779676069993 7.400259970980583
endloop
endfacet
facet normal 0.928546038622069 -0.007418057751184074 0.37114313489335016
outer loop
vertex 612.1777170674732 30.614561359512336 21.713950387349154
vertex 612.0768133196018 30.614559223450982 22.009829769366277
vertex 612.1777757026426 23.61517651339794 21.57390661022124
endloop
endfacet
facet normal -0.3610292400666701 0.018651804913744442 -0.9323679520395058
outer loop
vertex 614.1505097053729 23.615176944287093 25.26332869345408
vertex 613.9260716622589 23.615174781243088 25.328173300243705
vertex 614.1504510702034 30.61456179040149 25.403372470581978
endloop
endfacet
facet normal 0.9999999999689435 7.879513511590546e-06 1.6211085911837082e-07
outer loop
vertex 619.6935922003513 23.61535146346208 12.200570028083147
vertex 619.6935335647293 30.61458743186463 27.900037361844653
vertex 619.6935922003197 23.615152331647323 27.899993391468524
endloop
endfacet
facet normal 0.9999999999689435 7.879513511590546e-06 1.6211085911837082e-07
outer loop
vertex 619.6935335647293 30.61458743186463 27.900037361844653
vertex 619.6935922003513 23.61535146346208 12.200570028083147
vertex 619.6935503191388 28.61478656371884 12.200607716470028
endloop
endfacet
facet normal 0.9999999999689435 7.879513511590546e-06 1.6211085911837082e-07
outer loop
vertex 619.6935335647293 30.61458743186463 27.900037361844653
vertex 619.6935503191388 28.61478656371884 12.200607716470028
vertex 619.6935419418204 30.61474128350242 12.20060771647003
endloop
endfacet
facet normal -0.8815719511035883 -0.009450267861877687 0.4719550693283752
outer loop
vertex 615.0813098849367 30.614586909408324 21.4329297738598
vertex 614.9300928933851 30.614586722217222 21.185460649693606
vertex 615.081368520106 23.61520206329392 21.292885996731883
endloop
endfacet
facet normal 2.1852779439941338e-05 -0.9999999997562952 -3.1409946267398687e-06
outer loop
vertex 616.1975401775638 28.614779676109453 7.400253688991322
vertex 608.1957063595827 28.614589735906417 12.20060771646751
vertex 608.1957058212146 28.61460481379487 7.400251535554012
endloop
endfacet
facet normal 2.1852779439941338e-05 -0.9999999997562952 -3.1409946267398687e-06
outer loop
vertex 608.1957063595827 28.614589735906417 12.20060771646751
vertex 616.1975401775638 28.614779676109453 7.400253688991322
vertex 616.1975407159318 28.614764598220997 12.200609869904818
endloop
endfacet
facet normal 2.3720302671719623e-08 7.678507477822943e-06 -0.99999999997052
outer loop
vertex 616.1975407159318 28.614764598220997 12.200609869904818
vertex 608.1957482407952 23.615154635649656 12.20057002808063
vertex 608.1957063595827 28.614589735906417 12.20060771646751
endloop
endfacet
facet normal 2.3720302671719623e-08 7.678507477822943e-06 -0.99999999997052
outer loop
vertex 608.1957482407952 23.615154635649656 12.20057002808063
vertex 616.1975407159318 28.614764598220997 12.200609869904818
vertex 619.6935922003513 23.61535146346208 12.200570028083147
endloop
endfacet
facet normal 2.3720302671719623e-08 7.678507477822943e-06 -0.99999999997052
outer loop
vertex 619.6935922003513 23.61535146346208 12.200570028083147
vertex 616.1975407159318 28.614764598220997 12.200609869904818
vertex 619.6935503191388 28.61478656371884 12.200607716470028
endloop
endfacet
facet normal -0.9829308899796471 -0.003688471901283127 0.183938198041767
outer loop
vertex 615.3843280010362 30.61458560391823 22.314061390405634
vertex 615.3104458623507 23.615201499319546 21.862055692739077
vertex 615.3843866362057 23.615200757803827 22.174017613277734
endloop
endfacet
facet normal -0.9999999999649114 -8.377198216130448e-06 5.03293215692508e-12
outer loop
vertex 608.1957482407636 23.61515652024643 27.89999339146601
vertex 608.1957063595827 28.614589735906417 12.20060771646751
vertex 608.1957482407952 23.615154635649656 12.20057002808063
endloop
endfacet
facet normal -0.9999999999649114 -8.377198216130448e-06 5.03293215692508e-12
outer loop
vertex 608.1957063595827 28.614589735906417 12.20060771646751
vertex 608.1957482407636 23.61515652024643 27.89999339146601
vertex 608.1956896051731 30.61459162046374 27.900037361842138
endloop
endfacet
facet normal -0.9999999999649114 -8.377198216130448e-06 5.03293215692508e-12
outer loop
vertex 608.1957063595827 28.614589735906417 12.20060771646751
vertex 608.1956896051731 30.61459162046374 27.900037361842138
vertex 608.1957058212146 28.61460481379487 7.400251535554012
endloop
endfacet
facet normal -0.9999999999649114 -8.377198216130448e-06 5.03293215692508e-12
outer loop
vertex 608.1957058212146 28.61460481379487 7.400251535554012
vertex 608.1956896051731 30.61459162046374 27.900037361842138
vertex 608.1956890668366 30.61460481375541 7.400257817543274
endloop
endfacet
facet normal -0.6359364700313557 -0.015443247023756395 0.7715868792335844
outer loop
vertex 614.5672534573204 23.615200579323698 20.6458089490839
vertex 614.5671948221509 30.614585425438094 20.7858527262118
vertex 614.3617816642507 23.615199491923924 20.5005075521313
endloop
endfacet
facet normal -0.9957730527950736 -0.0018456635863182856 0.09182930280202489
outer loop
vertex 615.4293589779846 30.61458457123385 22.637252172498073
vertex 615.4294176131541 23.615199725119453 22.497208395370162
vertex 615.4447096655257 30.614583265050335 22.966141932257237
endloop
endfacet
facet normal -0.9999998336320485 -1.9911583664430544e-05 0.000576488858868188
outer loop
vertex 615.4447096655257 30.614583265050335 22.966141932257237
vertex 615.4447683006952 23.61519841893594 22.826098155129348
vertex 615.4301174091398 30.61458170771685 23.295103274708225
endloop
endfacet
facet normal 0.5084603718760403 0.01722941728772829 -0.860913002231703
outer loop
vertex 613.0277011253374 30.614552835439532 25.300099751139253
vertex 612.8222879674372 23.61516690192536 25.014754577058746
vertex 612.8222293322677 30.614551748039755 25.15479835418664
endloop
endfacet
facet normal -0.8210404397457043 0.011412813794617598 -0.5707559408218805
outer loop
vertex 614.9342015845508 30.614571209527707 24.749273915613625
vertex 614.7624066612822 23.615183973820063 24.82698260631019
vertex 614.7623480261127 30.61456881993446 24.96702638343808
endloop
endfacet
facet normal 0.7386953441587668 0.013489676761816203 -0.6739044569811236
outer loop
vertex 612.631685960862 30.614550948754797 24.97212002173643
vertex 612.6317445960315 23.6151661026404 24.83207624460853
vertex 612.459389896203 23.615165605146238 24.615146653576947
endloop
endfacet
facet normal 0.9999984949829769 4.307926067235385e-05 -0.0017344093976240336
outer loop
vertex 611.9447144888928 30.614553908427517 22.97450914814121
vertex 611.960065176434 30.614552602244004 23.303398907900384
vertex 611.9447731240623 23.61516906231312 22.83446537101331
endloop
endfacet
facet normal 0.18333216952003792 0.019666496285846963 -0.982854284491305
outer loop
vertex 613.4692306190645 23.615170949434894 25.32926544107252
vertex 613.2446442958933 23.61516934623401 25.265494288279328
vertex 613.4691719838951 30.61455579554929 25.469309218200415
endloop
endfacet
facet normal 0.6359364700313642 0.01544324702375563 -0.7715868792335773
outer loop
vertex 612.8222293322677 30.614551748039755 25.15479835418664
vertex 612.6317445960315 23.6151661026404 24.83207624460853
vertex 612.631685960862 30.614550948754797 24.97212002173643
endloop
endfacet
facet normal -0.81999063339041 -0.011456699666116234 0.5722622695799148
outer loop
vertex 614.9300928933851 30.614586722217222 21.185460649693606
vertex 614.7577381935566 30.614586224723055 20.96853105866202
vertex 614.7577968287261 23.61520137860866 20.828487281534116
endloop
endfacet
facet normal -2.5072652595397566e-12 -6.281989260622323e-06 0.9999999999802685
outer loop
vertex 608.1957482407636 23.61515652024643 27.89999339146601
vertex 619.6935335647293 30.61458743186463 27.900037361844653
vertex 608.1956896051731 30.61459162046374 27.900037361842138
endloop
endfacet
facet normal -2.5072652595397566e-12 -6.281989260622323e-06 0.9999999999802685
outer loop
vertex 619.6935335647293 30.61458743186463 27.900037361844653
vertex 608.1957482407636 23.61515652024643 27.89999339146601
vertex 619.6935922003197 23.615152331647323 27.899993391468524
endloop
endfacet
facet normal -0.9606601404881177 -0.0055636907762404535 0.2776709200155759
outer loop
vertex 615.3103872271812 30.614586345433942 22.002099469866977
vertex 615.3104458623507 23.615201499319546 21.862055692739077
vertex 615.3843280010362 30.61458560391823 22.314061390405634
endloop
endfacet
facet normal -0.7395510436809487 -0.013470900603856981 0.6729656667522798
outer loop
vertex 614.7577381935566 30.614586224723055 20.96853105866202
vertex 614.5671948221509 30.614585425438094 20.7858527262118
vertex 614.5672534573204 23.615200579323698 20.6458089490839
endloop
endfacet
facet normal -0.8210404397457043 0.011412813794617598 -0.5707559408218805
outer loop
vertex 614.9342015845508 30.614571209527707 24.749273915613625
vertex 615.0849057690364 23.61518870812991 24.36103937074027
vertex 614.9342602197203 23.615186363413304 24.60923013848573
endloop
endfacet
facet normal -0.6388415786131589 0.015384500607961923 -0.7691844736967138
outer loop
vertex 614.5722269205842 30.61456642635117 25.150614746244663
vertex 614.367149927962 23.61517922361832 25.156853979117535
vertex 614.3670912927926 30.614564069732715 25.296897756245432
endloop
endfacet
facet normal 0.9827131758740686 0.0037116628657763166 -0.18509737308312316
outer loop
vertex 612.0050961533823 30.614551569559634 23.62658968999282
vertex 612.0790369272374 30.61455082804391 23.938551610531473
vertex 612.0051547885517 23.61516672344523 23.48654591286492
endloop
endfacet
facet normal -0.5129184487417955 0.01716789277700136 -0.8582656514144719
outer loop
vertex 614.367149927962 23.61517922361832 25.156853979117535
vertex 614.1505097053729 23.615176944287093 25.26332869345408
vertex 614.3670912927926 30.614564069732715 25.296897756245432
endloop
endfacet
facet normal 0.9833686250763481 -0.003624911239413712 0.18158471090364178
outer loop
vertex 612.0035922680394 30.61455724759807 22.322143500322095
vertex 611.9593067452788 30.61455546576101 22.645547805690228
vertex 612.0036509032087 23.615172401483676 22.182099723194202
endloop
endfacet
facet normal 0.63977000419457 -0.015369051907847361 0.768412736734845
outer loop
vertex 612.8171972338345 30.61457074712669 20.790036334153793
vertex 612.6270761283059 30.614568353543394 20.97362469696036
vertex 612.6271347634753 23.615183507429 20.83358091983246
endloop
endfacet
facet normal 0.512008043478887 -0.017178768872857977 0.8588088572627413
outer loop
vertex 613.0223914967955 23.61518825763074 20.503709547025117
vertex 613.0223328616261 30.614573103745137 20.643753324153025
vertex 612.8172558690038 23.61518590101229 20.649992557025886
endloop
endfacet
facet normal -0.9831537835449201 0.0036481059027436476 -0.18274388970532188
outer loop
vertex 615.3858318863793 30.614579925879777 23.618507580076347
vertex 615.3858905215487 23.615195079765382 23.478463802948447
vertex 615.3126108348168 30.61457795002688 23.93082131103218
endloop
endfacet
facet normal 0.9956654934843567 0.0018688420796687335 -0.09298780841504774
outer loop
vertex 611.960065176434 30.614552602244004 23.303398907900384
vertex 611.9601238116035 23.61516775612961 23.163355130772484
vertex 611.9447731240623 23.61516906231312 22.83446537101331
endloop
endfacet
facet normal 0.18749880629421256 -0.019647663992093074 0.9820683107288919
outer loop
vertex 613.4634697624986 23.615192700005974 20.332390225898955
vertex 613.4634111273291 30.614577546120373 20.472434003026844
vertex 613.2390317193846 23.61519053696197 20.39723483268858
endloop
endfacet
facet normal 0.6368658134261633 0.015427916825172215 -0.7708202871431621
outer loop
vertex 612.8222879674372 23.61516690192536 25.014754577058746
vertex 612.6317445960315 23.6151661026404 24.83207624460853
vertex 612.8222293322677 30.614551748039755 25.15479835418664
endloop
endfacet
facet normal 0.1879319658733681 -0.01964600438700359 0.9819855450639775
outer loop
vertex 613.4634111273291 30.614577546120373 20.472434003026844
vertex 613.2389730842152 30.614575383076364 20.53727860981648
vertex 613.2390317193846 23.61519053696197 20.39723483268858
endloop
endfacet
facet normal 0.6388415786131472 -0.015384500607963357 0.7691844736967236
outer loop
vertex 612.8172558690038 23.61518590101229 20.649992557025886
vertex 612.8171972338345 30.61457074712669 20.790036334153793
vertex 612.6271347634753 23.615183507429 20.83358091983246
endloop
endfacet
facet normal -0.35687360195203993 -0.018689786632098814 0.9339656974993373
outer loop
vertex 614.1448384936947 30.614582981129455 20.53511301499122
vertex 613.9202521705236 30.614581377928562 20.47134186219803
vertex 613.9203108056929 23.615196531814167 20.331298085070124
endloop
endfacet
facet normal 0.9270950076301997 0.007505794298169575 -0.37475126401269665
outer loop
vertex 612.1806223508584 30.614550390384387 24.233946914563774
vertex 612.308114269482 30.61455026406954 24.507721306538656
vertex 612.1806809860278 23.61516554426999 24.093903137435877
endloop
endfacet
facet normal 0.8809745646829968 0.009472546345935865 -0.47306879758374315
outer loop
vertex 612.308114269482 30.61455026406954 24.507721306538656
vertex 612.3081729046514 23.61516541795514 24.367677529410756
vertex 612.1806809860278 23.61516554426999 24.093903137435877
endloop
endfacet
facet normal -0.002376551290934533 0.020003932162614108 -0.9997970767620773
outer loop
vertex 613.6976173605943 30.614557617610973 25.490322067413842
vertex 613.4692306190645 23.615170949434894 25.32926544107252
vertex 613.4691719838951 30.61455579554929 25.469309218200415
endloop
endfacet
facet normal 0.18290886070222337 0.019668070054086953 -0.9829331186286085
outer loop
vertex 613.4691719838951 30.61455579554929 25.469309218200415
vertex 613.2446442958933 23.61516934623401 25.265494288279328
vertex 613.2445856607238 30.614554192348407 25.405538065407224
endloop
endfacet
facet normal 0.9959845496034059 -0.001782524380403606 0.08950753911338563
outer loop
vertex 611.9593067452788 30.61455546576101 22.645547805690228
vertex 611.9593653804483 23.61517061964661 22.505504028562328
vertex 612.0036509032087 23.615172401483676 22.182099723194202
endloop
endfacet
facet normal 0.0023765512909574744 -0.020003932162614896 0.9997970767620773
outer loop
vertex 613.6918654289937 23.615194709752483 20.310285235856703
vertex 613.6918067938242 30.61457955586688 20.450329012984596
vertex 613.4634697624986 23.615192700005974 20.332390225898955
endloop
endfacet
facet normal -0.6397700041945821 0.015369051907845932 -0.7684127367348349
outer loop
vertex 614.5722855557536 23.61518158023677 25.01057096911677
vertex 614.367149927962 23.61517922361832 25.156853979117535
vertex 614.5722269205842 30.61456642635117 25.150614746244663
endloop
endfacet
facet normal -0.5120080434788962 0.01717876887285683 -0.8588088572627356
outer loop
vertex 614.3670912927926 30.614564069732715 25.296897756245432
vertex 614.1505097053729 23.615176944287093 25.26332869345408
vertex 614.1504510702034 30.61456179040149 25.403372470581978
endloop
endfacet
facet normal 0.7386953441587668 0.013489676761816203 -0.6739044569811236
outer loop
vertex 612.631685960862 30.614550948754797 24.97212002173643
vertex 612.459389896203 23.615165605146238 24.615146653576947
vertex 612.4593312610335 30.61455045126064 24.75519043070484
endloop
endfacet
facet normal 0.7418529649447861 -0.013407727500878026 0.6704285280668567
outer loop
vertex 612.6270761283059 30.614568353543394 20.97362469696036
vertex 612.4552812050372 23.615181117835757 21.051333387656914
vertex 612.6271347634753 23.615183507429 20.83358091983246
endloop
endfacet
endsolid newXgantryHP
