solid newXgantryHP
facet normal 0.931192811395562 0.3586455041073437 0.06521771529898075
outer loop
vertex 306.7535500972464 -75.3608121406772 37.99923168299591
vertex 306.8287492675868 -75.13640880276532 35.99984467364663
vertex 306.68870549045675 -75.13637409756325 37.99922951995191
endloop
endfacet
facet normal 0.3760563595086576 -0.9262218724473115 0.02635635546299753
outer loop
vertex 307.92297565326464 -73.3909834213321 37.999220282978804
vertex 308.06301943039455 -73.39101812653415 35.99983543667352
vertex 308.3584147344269 -73.28943270291326 35.99983587433307
endloop
endfacet
facet normal -0.1801234392154734 -0.9835633187468739 -0.012599391287886936
outer loop
vertex 309.8347790675063 -73.21395333851311 37.99922714019249
vertex 309.97482284463626 -73.21398804371515 35.999842293887205
vertex 310.28713657559206 -73.28720909527763 35.9998442697401
endloop
endfacet
facet normal 0.28021889149511586 -0.9597351093620583 0.019644151980844803
outer loop
vertex 308.218370957297 -73.2893979977112 37.99922072063834
vertex 307.92297565326464 -73.3909834213321 37.999220282978804
vertex 308.3584147344269 -73.28943270291326 35.99983587433307
endloop
endfacet
facet normal -0.6743770651541114 0.7368739075388603 -0.04724847492288487
outer loop
vertex 311.3284352862963 -75.96813396923243 35.99987127101222
vertex 311.1883915091663 -75.96809926403044 37.999256117317486
vertex 311.51111361874655 -75.77759059782667 35.99987047172723
endloop
endfacet
facet normal 0.3735967315832576 0.9272224976429452 0.026151902704892996
outer loop
vertex 307.930221874779 -76.42206815741922 37.99924570655994
vertex 308.07026565190904 -76.42210286262127 35.999860860254664
vertex 307.6558394199602 -76.29520820434074 37.99924344683874
endloop
endfacet
facet normal 0.09443100581413559 -0.9955093207309836 0.0066315517540325615
outer loop
vertex 308.85352365992804 -73.17042624690777 37.99922249483841
vertex 308.5303328778356 -73.21545722385609 37.99922146215406
vertex 308.99356743705795 -73.17046095210982 35.99983764853314
endloop
endfacet
facet normal 0.9797555976788658 0.18806904364001087 0.06862218038841825
outer loop
vertex 306.8287492675868 -75.13640880276532 35.99984467364663
vertex 306.8066442775445 -74.90801313627021 35.99984266390012
vertex 306.68870549045675 -75.13637409756325 37.99922951995191
endloop
endfacet
facet normal -0.4678063248490657 -0.8832239728879775 -0.032751429696851506
outer loop
vertex 310.71735463529814 -73.51493809102544 37.99923351182795
vertex 310.4429721804792 -73.38807813794696 37.99923125210674
vertex 310.85739841242804 -73.51497279622747 35.99984866552267
endloop
endfacet
facet normal 0.6685726721414382 0.7421716927629081 0.046816242129166
outer loop
vertex 307.32993996152027 -75.97274380178854 35.9998538662236
vertex 307.1463515987137 -75.78262269626 35.999851472640316
vertex 307.18989618439025 -75.97270909658648 37.999238712528886
endloop
endfacet
facet normal -0.9806235886165098 0.18346427481982663 -0.06868942650592896
outer loop
vertex 311.6855807056303 -75.13061324099733 37.999251270523
vertex 311.7065935548438 -74.90216786429804 37.99924944846129
vertex 311.84663733197374 -74.90220256950002 35.999864602156016
endloop
endfacet
facet normal 0.003179518285629858 -0.9999949165038788 0.00024006222548028183
outer loop
vertex 309.1824134196872 -73.15507555936665 37.99922380102193
vertex 309.32245719681714 -73.15511026456869 35.999838954716644
vertex 309.6514185392681 -73.16970252095466 35.99984051205016
endloop
endfacet
facet normal 0.27781782680310957 0.9604370040487002 0.019442642936449626
outer loop
vertex 308.22610125679614 -76.52297190529058 37.9992478426213
vertex 308.678458764882 -76.59622766205511 35.99986497216894
vertex 308.36614503392616 -76.52300661049263 35.99986299631602
endloop
endfacet
facet normal -0.37205894556025004 0.9278427468384727 -0.026076391004755055
outer loop
vertex 310.45021840199365 -76.41916287403409 37.999256675687896
vertex 310.86403657109855 -76.29170566061245 35.99987195569745
vertex 310.59026217912367 -76.4191975792361 35.99987182938261
endloop
endfacet
facet normal 0.9317801657265776 -0.3571069627126407 0.06527127960063625
outer loop
vertex 306.8914282795511 -74.45498143639969 35.99983923863758
vertex 306.9968665938191 -74.23809690101324 35.99983788172867
vertex 306.75138450242116 -74.45494673119764 37.99922408494286
endloop
endfacet
facet normal -0.3695971392631631 -0.9288318514436302 -0.02587172959591621
outer loop
vertex 310.4429721804792 -73.38807813794696 37.99923125210674
vertex 310.58301595760923 -73.38811284314899 35.99984640580146
vertex 310.85739841242804 -73.51497279622747 35.99984866552267
endloop
endfacet
facet normal 0.4742135076163134 -0.8797825085021038 0.03323081292984576
outer loop
vertex 307.6492012612897 -73.51847533995576 37.99922015666395
vertex 307.54177591425355 -73.66972703670936 35.99983549754978
vertex 307.7892450384197 -73.51851004515781 35.99983531035867
endloop
endfacet
facet normal -0.9301841048616326 -0.36126637997319727 -0.06514701653817176
outer loop
vertex 311.6196439580119 -74.449334154689 37.999245275670766
vertex 311.5131692436753 -74.23269393209988 37.99924299633954
vertex 311.6532130208053 -74.23272863730186 35.99985815003426
endloop
endfacet
facet normal 0.18652785592505633 -0.9823625692910247 0.013082103039579993
outer loop
vertex 308.5303328778356 -73.21545722385609 37.99922146215406
vertex 308.67037665496554 -73.21549192905813 35.99983661584877
vertex 308.99356743705795 -73.17046095210982 35.99983764853314
endloop
endfacet
facet normal -0.273775907469398 -0.9616026547168932 -0.01915951279994007
outer loop
vertex 310.14709279846215 -73.2871743900756 37.99922911604539
vertex 310.28713657559206 -73.28720909527763 35.9998442697401
vertex 310.58301595760923 -73.38811284314899 35.99984640580146
endloop
endfacet
facet normal -0.5705277068288337 0.820304857082767 -0.039975957612717376
outer loop
vertex 310.9714619181347 -76.1404539638589 37.999256614811635
vertex 311.3284352862963 -75.96813396923243 35.99987127101222
vertex 311.1115056952648 -76.14048866906087 35.99987176850637
endloop
endfacet
facet normal 0.932766722309285 -0.35450935418108526 0.06534033632070743
outer loop
vertex 306.75138450242116 -74.45494673119764 37.99922408494286
vertex 306.9968665938191 -74.23809690101324 35.99983788172867
vertex 306.8568228166891 -74.23806219581117 37.99922272803396
endloop
endfacet
facet normal 0.09210940194664043 0.9957281038983736 0.006434374871118843
outer loop
vertex 308.86181929312016 -76.64047847961355 37.99925160031129
vertex 309.0018630702501 -76.6405131848156 35.99986675400602
vertex 308.538414987752 -76.59619295685305 37.999249818474205
endloop
endfacet
facet normal -0.6685726721414634 -0.7421716927628852 -0.04681624212916909
outer loop
vertex 311.18329787086805 -73.8374371987797 37.99923824613779
vertex 310.9655454030436 -73.66558364034158 37.99923585654456
vertex 311.1055891801735 -73.66561834554355 35.999851010239276
endloop
endfacet
facet normal 0.4716977335878068 0.8811416806290472 0.03302403346571506
outer loop
vertex 307.6558394199602 -76.29520820434074 37.99924344683874
vertex 308.07026565190904 -76.42210286262127 35.999860860254664
vertex 307.7958831970902 -76.2952429095428 35.99985860053346
endloop
endfacet
facet normal -0.8561654802755093 -0.5132109561424771 -0.05995986057297772
outer loop
vertex 311.5131692436753 -74.23269393209988 37.99924299633954
vertex 311.3668862336746 -74.02755830430824 37.999240639721094
vertex 311.5069300108046 -74.02759300951023 35.99985579341581
endloop
endfacet
facet normal 0.0008686393550972618 0.9999996217873109 4.348454850606945e-05
outer loop
vertex 309.1907806355711 -76.65507073599953 37.99925315764477
vertex 309.65971417246027 -76.63975475366044 35.99986961752299
vertex 309.3308244127011 -76.65510544120157 35.99986831133949
endloop
endfacet
facet normal -0.7688319618956703 0.6371783306414373 -0.0538626895786506
outer loop
vertex 311.37106984161653 -75.77755589262468 37.99925531803251
vertex 311.51637123856915 -75.57208409955501 37.99925423063273
vertex 311.65641501569917 -75.57211880475701 35.999869384327454
endloop
endfacet
facet normal -0.4703266194362503 0.8818767498059271 -0.032958598292451714
outer loop
vertex 310.72399279396853 -76.29167095541044 37.99925680200273
vertex 310.86403657109855 -76.29170566061245 35.99987195569745
vertex 310.45021840199365 -76.41916287403409 37.999256675687896
endloop
endfacet
facet normal 0.574190495067067 -0.8177326115275828 0.04023246722382322
outer loop
vertex 307.40173213712364 -73.6696923315073 37.99922034385507
vertex 307.54177591425355 -73.66972703670936 35.99983549754978
vertex 307.6492012612897 -73.51847533995576 37.99922015666395
endloop
endfacet
facet normal -0.08805948370316415 -0.9960962284037971 -0.006150698306913878
outer loop
vertex 309.5113747621382 -73.16966781575262 37.99922535835544
vertex 309.1824134196872 -73.15507555936665 37.99922380102193
vertex 309.6514185392681 -73.16970252095466 35.99984051205016
endloop
endfacet
facet normal -0.9808970382325156 0.18198938144555915 -0.06870855425448597
outer loop
vertex 311.8256244827603 -75.13064794619932 35.99986642421772
vertex 311.6855807056303 -75.13061324099733 37.999251270523
vertex 311.84663733197374 -74.90220256950002 35.999864602156016
endloop
endfacet
facet normal 0.8582733329352383 -0.5096585518532297 0.0601252567155129
outer loop
vertex 306.9968665938191 -74.23809690101324 35.99983788172867
vertex 307.1421679907717 -74.03262510794357 35.9998367943289
vertex 306.8568228166891 -74.23806219581117 37.99922272803396
endloop
endfacet
facet normal 0.9800430768085159 0.18655775619292214 0.06864234264621116
outer loop
vertex 306.68870549045675 -75.13637409756325 37.99922951995191
vertex 306.8066442775445 -74.90801313627021 35.99984266390012
vertex 306.6666005004145 -74.90797843106816 37.9992275102054
endloop
endfacet
facet normal -0.5705277068288337 0.820304857082767 -0.039975957612717376
outer loop
vertex 310.9714619181347 -76.1404539638589 37.999256614811635
vertex 311.1115056952648 -76.14048866906087 35.99987176850637
vertex 310.86403657109855 -76.29170566061245 35.99987195569745
endloop
endfacet
facet normal -0.37205894556025004 0.9278427468384727 -0.026076391004755055
outer loop
vertex 310.45021840199365 -76.41916287403409 37.999256675687896
vertex 310.59026217912367 -76.4191975792361 35.99987182938261
vertex 310.15482309796135 -76.52074829765498 37.99925623802838
endloop
endfacet
facet normal -0.2761778328384854 0.9609115211991369 -0.019361122782482015
outer loop
vertex 310.15482309796135 -76.52074829765498 37.99925623802838
vertex 310.59026217912367 -76.4191975792361 35.99987182938261
vertex 310.2948668750914 -76.520783002857 35.99987139172311
endloop
endfacet
facet normal 0.27781782680310957 0.9604370040487002 0.019442642936449626
outer loop
vertex 308.22610125679614 -76.52297190529058 37.9992478426213
vertex 308.36614503392616 -76.52300661049263 35.99986299631602
vertex 307.930221874779 -76.42206815741922 37.99924570655994
endloop
endfacet
facet normal -5.163424710926126e-06 7.742341255058282e-06 0.9999999999566977
outer loop
vertex 319.07277502610435 -66.99064030600886 37.99924835374051
vertex 311.6844885648015 -74.67377219780293 37.99924743871478
vertex 311.7065935548438 -74.90216786429804 37.99924944846129
endloop
endfacet
facet normal -5.163424710926126e-06 7.742341255058282e-06 0.9999999999566977
outer loop
vertex 311.6844885648015 -74.67377219780293 37.99924743871478
vertex 319.07277502610435 -66.99064030600886 37.99924835374051
vertex 311.6196439580119 -74.449334154689 37.999245275670766
endloop
endfacet
facet normal -5.163424710926126e-06 7.742341255058282e-06 0.9999999999566977
outer loop
vertex 311.6196439580119 -74.449334154689 37.999245275670766
vertex 319.07277502610435 -66.99064030600886 37.99924835374051
vertex 311.5131692436753 -74.23269393209988 37.99924299633954
endloop
endfacet
facet normal -5.163424710926126e-06 7.742341255058282e-06 0.9999999999566977
outer loop
vertex 311.5131692436753 -74.23269393209988 37.99924299633954
vertex 319.07277502610435 -66.99064030600886 37.99924835374051
vertex 311.3668862336746 -74.02755830430824 37.999240639721094
endloop
endfacet
facet normal -5.163424710926126e-06 7.742341255058282e-06 0.9999999999566977
outer loop
vertex 311.3668862336746 -74.02755830430824 37.999240639721094
vertex 319.07277502610435 -66.99064030600886 37.99924835374051
vertex 311.18329787086805 -73.8374371987797 37.99923824613779
endloop
endfacet
facet normal -5.163424710926126e-06 7.742341255058282e-06 0.9999999999566977
outer loop
vertex 311.18329787086805 -73.8374371987797 37.99923824613779
vertex 319.07277502610435 -66.99064030600886 37.99924835374051
vertex 303.37330769234524 -66.99064071828622 37.99923824984404
endloop
endfacet
facet normal -5.163424710926126e-06 7.742341255058282e-06 0.9999999999566977
outer loop
vertex 311.18329787086805 -73.8374371987797 37.99923824613779
vertex 303.37330769234524 -66.99064071828622 37.99923824984404
vertex 310.9655454030436 -73.66558364034158 37.99923585654456
endloop
endfacet
facet normal -5.163424710926126e-06 7.742341255058282e-06 0.9999999999566977
outer loop
vertex 310.9655454030436 -73.66558364034158 37.99923585654456
vertex 303.37330769234524 -66.99064071828622 37.99923824984404
vertex 310.71735463529814 -73.51493809102544 37.99923351182795
endloop
endfacet
facet normal -5.163424710926126e-06 7.742341255058282e-06 0.9999999999566977
outer loop
vertex 310.71735463529814 -73.51493809102544 37.99923351182795
vertex 303.37330769234524 -66.99064071828622 37.99923824984404
vertex 310.4429721804792 -73.38807813794696 37.99923125210674
endloop
endfacet
facet normal -5.163424710926126e-06 7.742341255058282e-06 0.9999999999566977
outer loop
vertex 310.4429721804792 -73.38807813794696 37.99923125210674
vertex 303.37330769234524 -66.99064071828622 37.99923824984404
vertex 310.14709279846215 -73.2871743900756 37.99922911604539
endloop
endfacet
facet normal -5.163424710926126e-06 7.742341255058282e-06 0.9999999999566977
outer loop
vertex 310.14709279846215 -73.2871743900756 37.99922911604539
vertex 303.37330769234524 -66.99064071828622 37.99923824984404
vertex 309.8347790675063 -73.21395333851311 37.99922714019249
endloop
endfacet
facet normal -5.163424710926126e-06 7.742341255058282e-06 0.9999999999566977
outer loop
vertex 309.8347790675063 -73.21395333851311 37.99922714019249
vertex 303.37330769234524 -66.99064071828622 37.99923824984404
vertex 309.5113747621382 -73.16966781575262 37.99922535835544
endloop
endfacet
facet normal -5.163424710926126e-06 7.742341255058282e-06 0.9999999999566977
outer loop
vertex 309.5113747621382 -73.16966781575262 37.99922535835544
vertex 303.37330769234524 -66.99064071828622 37.99923824984404
vertex 309.1824134196872 -73.15507555936665 37.99922380102193
endloop
endfacet
facet normal -5.163424710926126e-06 7.742341255058282e-06 0.9999999999566977
outer loop
vertex 309.1824134196872 -73.15507555936665 37.99922380102193
vertex 303.37330769234524 -66.99064071828622 37.99923824984404
vertex 308.85352365992804 -73.17042624690777 37.99922249483841
endloop
endfacet
facet normal -5.163424710926126e-06 7.742341255058282e-06 0.9999999999566977
outer loop
vertex 308.85352365992804 -73.17042624690777 37.99922249483841
vertex 303.37330769234524 -66.99064071828622 37.99923824984404
vertex 308.5303328778356 -73.21545722385609 37.99922146215406
endloop
endfacet
facet normal -5.163424710926126e-06 7.742341255058282e-06 0.9999999999566977
outer loop
vertex 308.5303328778356 -73.21545722385609 37.99922146215406
vertex 303.37330769234524 -66.99064071828622 37.99923824984404
vertex 308.218370957297 -73.2893979977112 37.99922072063834
endloop
endfacet
facet normal -5.163424710926126e-06 7.742341255058282e-06 0.9999999999566977
outer loop
vertex 308.218370957297 -73.2893979977112 37.99922072063834
vertex 303.37330769234524 -66.99064071828622 37.99923824984404
vertex 307.92297565326464 -73.3909834213321 37.999220282978804
endloop
endfacet
facet normal -5.163424710926126e-06 7.742341255058282e-06 0.9999999999566977
outer loop
vertex 307.92297565326464 -73.3909834213321 37.999220282978804
vertex 303.37330769234524 -66.99064071828622 37.99923824984404
vertex 307.6492012612897 -73.51847533995576 37.99922015666395
endloop
endfacet
facet normal -5.163424710926126e-06 7.742341255058282e-06 0.9999999999566977
outer loop
vertex 307.6492012612897 -73.51847533995576 37.99922015666395
vertex 303.37330769234524 -66.99064071828622 37.99923824984404
vertex 307.40173213712364 -73.6696923315073 37.99922034385507
endloop
endfacet
facet normal -5.163424710926126e-06 7.742341255058282e-06 0.9999999999566977
outer loop
vertex 307.40173213712364 -73.6696923315073 37.99922034385507
vertex 303.37330769234524 -66.99064071828622 37.99923824984404
vertex 307.18480254609204 -73.84204703133575 37.999220841349214
endloop
endfacet
facet normal -5.163424710926126e-06 7.742341255058282e-06 0.9999999999566977
outer loop
vertex 307.18480254609204 -73.84204703133575 37.999220841349214
vertex 303.37330769234524 -66.99064071828622 37.99923824984404
vertex 307.00212421364176 -74.0325904027415 37.999221640634175
endloop
endfacet
facet normal -5.163424710926126e-06 7.742341255058282e-06 0.9999999999566977
outer loop
vertex 307.00212421364176 -74.0325904027415 37.999221640634175
vertex 303.37330769234524 -66.99064071828622 37.99923824984404
vertex 306.8568228166891 -74.23806219581117 37.99922272803396
endloop
endfacet
facet normal -5.163424710926126e-06 7.742341255058282e-06 0.9999999999566977
outer loop
vertex 306.8568228166891 -74.23806219581117 37.99922272803396
vertex 303.37330769234524 -66.99064071828622 37.99923824984404
vertex 306.75138450242116 -74.45494673119764 37.99922408494286
endloop
endfacet
facet normal -5.163424710926126e-06 7.742341255058282e-06 0.9999999999566977
outer loop
vertex 306.75138450242116 -74.45494673119764 37.99922408494286
vertex 303.37330769234524 -66.99064071828622 37.99923824984404
vertex 306.6876133496279 -74.67953305436886 37.99922568814373
endloop
endfacet
facet normal -5.163424710926126e-06 7.742341255058282e-06 0.9999999999566977
outer loop
vertex 306.6876133496279 -74.67953305436886 37.99922568814373
vertex 303.37330769234524 -66.99064071828622 37.99923824984404
vertex 306.6666005004145 -74.90797843106816 37.9992275102054
endloop
endfacet
facet normal -5.163424710926126e-06 7.742341255058282e-06 0.9999999999566977
outer loop
vertex 319.0727753720568 -71.99064030582905 37.99929075494336
vertex 323.87308723664285 -78.48848623372537 37.999448270961246
vertex 323.8730875825966 -71.99064017976997 37.99929384433847
endloop
endfacet
facet normal -5.163424710926126e-06 7.742341255058282e-06 0.9999999999566977
outer loop
vertex 323.87308723664285 -78.48848623372537 37.999448270961246
vertex 319.0727753720568 -71.99064030582905 37.99929075494336
vertex 310.72399279396853 -76.29167095541044 37.99925680200273
endloop
endfacet
facet normal -5.163424710926126e-06 7.742341255058282e-06 0.9999999999566977
outer loop
vertex 323.87308723664285 -78.48848623372537 37.999448270961246
vertex 310.72399279396853 -76.29167095541044 37.99925680200273
vertex 310.45021840199365 -76.41916287403409 37.999256675687896
endloop
endfacet
facet normal -5.163424710926126e-06 7.742341255058282e-06 0.9999999999566977
outer loop
vertex 323.87308723664285 -78.48848623372537 37.999448270961246
vertex 310.45021840199365 -76.41916287403409 37.999256675687896
vertex 310.15482309796135 -76.52074829765498 37.99925623802838
endloop
endfacet
facet normal -5.163424710926126e-06 7.742341255058282e-06 0.9999999999566977
outer loop
vertex 323.87308723664285 -78.48848623372537 37.999448270961246
vertex 310.15482309796135 -76.52074829765498 37.99925623802838
vertex 303.3733076923426 -78.48848467784232 37.999234061244955
endloop
endfacet
facet normal -5.163424710926126e-06 7.742341255058282e-06 0.9999999999566977
outer loop
vertex 310.72399279396853 -76.29167095541044 37.99925680200273
vertex 319.0727753720568 -71.99064030582905 37.99929075494336
vertex 310.9714619181347 -76.1404539638589 37.999256614811635
endloop
endfacet
facet normal -5.163424710926126e-06 7.742341255058282e-06 0.9999999999566977
outer loop
vertex 310.9714619181347 -76.1404539638589 37.999256614811635
vertex 319.0727753720568 -71.99064030582905 37.99929075494336
vertex 311.1883915091663 -75.96809926403044 37.999256117317486
endloop
endfacet
facet normal -5.163424710926126e-06 7.742341255058282e-06 0.9999999999566977
outer loop
vertex 311.1883915091663 -75.96809926403044 37.999256117317486
vertex 319.0727753720568 -71.99064030582905 37.99929075494336
vertex 311.37106984161653 -75.77755589262468 37.99925531803251
endloop
endfacet
facet normal -5.163424710926126e-06 7.742341255058282e-06 0.9999999999566977
outer loop
vertex 311.37106984161653 -75.77755589262468 37.99925531803251
vertex 319.0727753720568 -71.99064030582905 37.99929075494336
vertex 319.07277502610435 -66.99064030600886 37.99924835374051
endloop
endfacet
facet normal -5.163424710926126e-06 7.742341255058282e-06 0.9999999999566977
outer loop
vertex 311.37106984161653 -75.77755589262468 37.99925531803251
vertex 319.07277502610435 -66.99064030600886 37.99924835374051
vertex 311.51637123856915 -75.57208409955501 37.99925423063273
endloop
endfacet
facet normal -5.163424710926126e-06 7.742341255058282e-06 0.9999999999566977
outer loop
vertex 311.51637123856915 -75.57208409955501 37.99925423063273
vertex 319.07277502610435 -66.99064030600886 37.99924835374051
vertex 311.62180955283714 -75.35519956416856 37.99925287372386
endloop
endfacet
facet normal -5.163424710926126e-06 7.742341255058282e-06 0.9999999999566977
outer loop
vertex 311.62180955283714 -75.35519956416856 37.99925287372386
vertex 319.07277502610435 -66.99064030600886 37.99924835374051
vertex 311.6855807056303 -75.13061324099733 37.999251270523
endloop
endfacet
facet normal -5.163424710926126e-06 7.742341255058282e-06 0.9999999999566977
outer loop
vertex 311.6855807056303 -75.13061324099733 37.999251270523
vertex 319.07277502610435 -66.99064030600886 37.99924835374051
vertex 311.7065935548438 -74.90216786429804 37.99924944846129
endloop
endfacet
facet normal -5.163424710926126e-06 7.742341255058282e-06 0.9999999999566977
outer loop
vertex 303.3733076923426 -78.48848467784232 37.999234061244955
vertex 310.15482309796135 -76.52074829765498 37.99925623802838
vertex 309.8428611774227 -76.5946890715101 37.999255496512646
endloop
endfacet
facet normal -5.163424710926126e-06 7.742341255058282e-06 0.9999999999566977
outer loop
vertex 303.3733076923426 -78.48848467784232 37.999234061244955
vertex 309.8428611774227 -76.5946890715101 37.999255496512646
vertex 309.5196703953303 -76.6397200484584 37.999254463828265
endloop
endfacet
facet normal -5.163424710926126e-06 7.742341255058282e-06 0.9999999999566977
outer loop
vertex 303.3733076923426 -78.48848467784232 37.999234061244955
vertex 309.5196703953303 -76.6397200484584 37.999254463828265
vertex 309.1907806355711 -76.65507073599953 37.99925315764477
endloop
endfacet
facet normal -5.163424710926126e-06 7.742341255058282e-06 0.9999999999566977
outer loop
vertex 303.3733076923426 -78.48848467784232 37.999234061244955
vertex 309.1907806355711 -76.65507073599953 37.99925315764477
vertex 308.86181929312016 -76.64047847961355 37.99925160031129
endloop
endfacet
facet normal -5.163424710926126e-06 7.742341255058282e-06 0.9999999999566977
outer loop
vertex 303.3733076923426 -78.48848467784232 37.999234061244955
vertex 308.86181929312016 -76.64047847961355 37.99925160031129
vertex 308.538414987752 -76.59619295685305 37.999249818474205
endloop
endfacet
facet normal -5.163424710926126e-06 7.742341255058282e-06 0.9999999999566977
outer loop
vertex 303.3733076923426 -78.48848467784232 37.999234061244955
vertex 308.538414987752 -76.59619295685305 37.999249818474205
vertex 308.22610125679614 -76.52297190529058 37.9992478426213
endloop
endfacet
facet normal -5.163424710926126e-06 7.742341255058282e-06 0.9999999999566977
outer loop
vertex 303.3733076923426 -78.48848467784232 37.999234061244955
vertex 308.22610125679614 -76.52297190529058 37.9992478426213
vertex 307.930221874779 -76.42206815741922 37.99924570655994
endloop
endfacet
facet normal -5.163424710926126e-06 7.742341255058282e-06 0.9999999999566977
outer loop
vertex 303.3733076923426 -78.48848467784232 37.999234061244955
vertex 307.930221874779 -76.42206815741922 37.99924570655994
vertex 307.6558394199602 -76.29520820434074 37.99924344683874
endloop
endfacet
facet normal -5.163424710926126e-06 7.742341255058282e-06 0.9999999999566977
outer loop
vertex 303.3733076923426 -78.48848467784232 37.999234061244955
vertex 307.6558394199602 -76.29520820434074 37.99924344683874
vertex 307.40764865221473 -76.14456265502463 37.999241102122134
endloop
endfacet
facet normal -5.163424710926126e-06 7.742341255058282e-06 0.9999999999566977
outer loop
vertex 303.3733076923426 -78.48848467784232 37.999234061244955
vertex 307.40764865221473 -76.14456265502463 37.999241102122134
vertex 307.18989618439025 -75.97270909658648 37.999238712528886
endloop
endfacet
facet normal -5.163424710926126e-06 7.742341255058282e-06 0.9999999999566977
outer loop
vertex 303.3733076923426 -78.48848467784232 37.999234061244955
vertex 307.18989618439025 -75.97270909658648 37.999238712528886
vertex 307.0063078215837 -75.78258799105795 37.9992363189456
endloop
endfacet
facet normal -5.163424710926126e-06 7.742341255058282e-06 0.9999999999566977
outer loop
vertex 303.3733076923426 -78.48848467784232 37.999234061244955
vertex 307.0063078215837 -75.78258799105795 37.9992363189456
vertex 306.8600248115829 -75.57745236326632 37.999233962327146
endloop
endfacet
facet normal -5.163424710926126e-06 7.742341255058282e-06 0.9999999999566977
outer loop
vertex 303.3733076923426 -78.48848467784232 37.999234061244955
vertex 306.8600248115829 -75.57745236326632 37.999233962327146
vertex 306.7535500972464 -75.3608121406772 37.99923168299591
endloop
endfacet
facet normal -5.163424710926126e-06 7.742341255058282e-06 0.9999999999566977
outer loop
vertex 303.3733076923426 -78.48848467784232 37.999234061244955
vertex 306.7535500972464 -75.3608121406772 37.99923168299591
vertex 306.68870549045675 -75.13637409756325 37.99922951995191
endloop
endfacet
facet normal -5.163424710926126e-06 7.742341255058282e-06 0.9999999999566977
outer loop
vertex 303.3733076923426 -78.48848467784232 37.999234061244955
vertex 306.68870549045675 -75.13637409756325 37.99922951995191
vertex 306.6666005004145 -74.90797843106816 37.9992275102054
endloop
endfacet
facet normal -5.163424710926126e-06 7.742341255058282e-06 0.9999999999566977
outer loop
vertex 303.3733076923426 -78.48848467784232 37.999234061244955
vertex 306.6666005004145 -74.90797843106816 37.9992275102054
vertex 303.37330769234524 -66.99064071828622 37.99923824984404
endloop
endfacet
facet normal 0.3735967315832576 0.9272224976429452 0.026151902704892996
outer loop
vertex 307.930221874779 -76.42206815741922 37.99924570655994
vertex 308.36614503392616 -76.52300661049263 35.99986299631602
vertex 308.07026565190904 -76.42210286262127 35.999860860254664
endloop
endfacet
facet normal -0.0903811101008271 0.9958870213197492 -0.006347889713906065
outer loop
vertex 309.5196703953303 -76.6397200484584 37.999254463828265
vertex 309.9829049545527 -76.59472377671212 35.99987065020736
vertex 309.65971417246027 -76.63975475366044 35.99986961752299
endloop
endfacet
facet normal -0.9327667223092828 0.3545093541810931 -0.06534033632069765
outer loop
vertex 311.7618533299671 -75.35523426937054 35.99986802741859
vertex 311.62180955283714 -75.35519956416856 37.99925287372386
vertex 311.8256244827603 -75.13064794619932 35.99986642421772
endloop
endfacet
facet normal 0.28021889149511586 -0.9597351093620583 0.019644151980844803
outer loop
vertex 308.218370957297 -73.2893979977112 37.99922072063834
vertex 308.3584147344269 -73.28943270291326 35.99983587433307
vertex 308.67037665496554 -73.21549192905813 35.99983661584877
endloop
endfacet
facet normal -0.8601395177433312 0.5064871515100375 -0.06025591565579272
outer loop
vertex 311.65641501569917 -75.57211880475701 35.999869384327454
vertex 311.51637123856915 -75.57208409955501 37.99925423063273
vertex 311.7618533299671 -75.35523426937054 35.99986802741859
endloop
endfacet
facet normal 0.5716428305397766 0.8195257321080033 0.04002560062402385
outer loop
vertex 307.40764865221473 -76.14456265502463 37.999241102122134
vertex 307.5476924293447 -76.14459736022668 35.999856255816844
vertex 307.32993996152027 -75.97274380178854 35.9998538662236
endloop
endfacet
facet normal 0.4716977335878068 0.8811416806290472 0.03302403346571506
outer loop
vertex 307.6558394199602 -76.29520820434074 37.99924344683874
vertex 307.7958831970902 -76.2952429095428 35.99985860053346
vertex 307.40764865221473 -76.14456265502463 37.999241102122134
endloop
endfacet
facet normal -0.858273332935238 0.5096585518532321 -0.06012525671549882
outer loop
vertex 311.51637123856915 -75.57208409955501 37.99925423063273
vertex 311.62180955283714 -75.35519956416856 37.99925287372386
vertex 311.7618533299671 -75.35523426937054 35.99986802741859
endloop
endfacet
facet normal -0.567971853109067 -0.8220866415320137 -0.03976842831275998
outer loop
vertex 310.9655454030436 -73.66558364034158 37.99923585654456
vertex 310.71735463529814 -73.51493809102544 37.99923351182795
vertex 311.1055891801735 -73.66561834554355 35.999851010239276
endloop
endfacet
facet normal -0.9311928113955602 -0.3586455041073462 -0.06521771529899074
outer loop
vertex 311.7596877351419 -74.44936885989098 35.99986042936549
vertex 311.6196439580119 -74.449334154689 37.999245275670766
vertex 311.6532130208053 -74.23272863730186 35.99985815003426
endloop
endfacet
facet normal -0.18247644454152678 0.9831269244818279 -0.012798341548231808
outer loop
vertex 309.8428611774227 -76.5946890715101 37.999255496512646
vertex 309.9829049545527 -76.59472377671212 35.99987065020736
vertex 309.5196703953303 -76.6397200484584 37.999254463828265
endloop
endfacet
facet normal 0.18417508582938258 0.9828090155419061 0.01288319561635266
outer loop
vertex 308.538414987752 -76.59619295685305 37.999249818474205
vertex 309.0018630702501 -76.6405131848156 35.99986675400602
vertex 308.678458764882 -76.59622766205511 35.99986497216894
endloop
endfacet
facet normal 0.999999999939547 -5.29799749588812e-08 1.0995610467937894e-05
outer loop
vertex 323.87308723664285 -78.48848623372537 37.999448270961246
vertex 323.8731095678609 -71.9907422562504 35.99983507445621
vertex 323.8730875825966 -71.99064017976997 37.99929384433847
endloop
endfacet
facet normal 0.999999999939547 -5.29799749588812e-08 1.0995610467937894e-05
outer loop
vertex 323.8731095678609 -71.9907422562504 35.99983507445621
vertex 323.87308723664285 -78.48848623372537 37.999448270961246
vertex 323.8731092219072 -78.4885883102058 35.999989501078986
endloop
endfacet
facet normal 0.9975531139072351 0.002384991837689767 0.06987200260413994
outer loop
vertex 306.8066442775445 -74.90801313627021 35.99984266390012
vertex 306.82765712675797 -74.67956775957092 35.999840841838456
vertex 306.6666005004145 -74.90797843106816 37.9992275102054
endloop
endfacet
facet normal 0.6718564575523361 0.7391857317039552 0.04704630156042475
outer loop
vertex 307.18989618439025 -75.97270909658648 37.999238712528886
vertex 307.1463515987137 -75.78262269626 35.999851472640316
vertex 307.0063078215837 -75.78258799105795 37.9992363189456
endloop
endfacet
facet normal 0.09210940194664043 0.9957281038983736 0.006434374871118843
outer loop
vertex 308.86181929312016 -76.64047847961355 37.99925160031129
vertex 309.3308244127011 -76.65510544120157 35.99986831133949
vertex 309.0018630702501 -76.6405131848156 35.99986675400602
endloop
endfacet
facet normal -0.273775907469398 -0.9616026547168932 -0.01915951279994007
outer loop
vertex 310.14709279846215 -73.2871743900756 37.99922911604539
vertex 309.8347790675063 -73.21395333851311 37.99922714019249
vertex 310.28713657559206 -73.28720909527763 35.9998442697401
endloop
endfacet
facet normal -0.9975531139072352 -0.00238499183768893 -0.06987200260413999
outer loop
vertex 311.7065935548438 -74.90216786429804 37.99924944846129
vertex 311.6844885648015 -74.67377219780293 37.99924743871478
vertex 311.8245323419315 -74.67380690300493 35.99986259240949
endloop
endfacet
facet normal -0.4678063248490657 -0.8832239728879775 -0.032751429696851506
outer loop
vertex 310.71735463529814 -73.51493809102544 37.99923351182795
vertex 310.85739841242804 -73.51497279622747 35.99984866552267
vertex 311.1055891801735 -73.66561834554355 35.999851010239276
endloop
endfacet
facet normal -0.3695971392631631 -0.9288318514436302 -0.02587172959591621
outer loop
vertex 310.4429721804792 -73.38807813794696 37.99923125210674
vertex 310.14709279846215 -73.2871743900756 37.99922911604539
vertex 310.58301595760923 -73.38811284314899 35.99984640580146
endloop
endfacet
facet normal 0.9301841048616618 0.3612663799731254 0.06514701653815409
outer loop
vertex 306.89359387437634 -75.36084684587925 35.99984683669064
vertex 306.8287492675868 -75.13640880276532 35.99984467364663
vertex 306.7535500972464 -75.3608121406772 37.99923168299591
endloop
endfacet
facet normal -0.4703266194362503 0.8818767498059271 -0.032958598292451714
outer loop
vertex 310.72399279396853 -76.29167095541044 37.99925680200273
vertex 310.9714619181347 -76.1404539638589 37.999256614811635
vertex 310.86403657109855 -76.29170566061245 35.99987195569745
endloop
endfacet
facet normal 0.9999999999826206 -2.1293549633581134e-06 -5.49772285892916e-06
outer loop
vertex 319.0727753720568 -71.99064030582905 37.99929075494336
vertex 319.0727750261088 -66.99067542394093 35.99980126483902
vertex 319.07277502610435 -66.99064030600886 37.99924835374051
endloop
endfacet
facet normal 0.9999999999826206 -2.1293549633581134e-06 -5.49772285892916e-06
outer loop
vertex 319.0727750261088 -66.99067542394093 35.99980126483902
vertex 319.0727753720568 -71.99064030582905 37.99929075494336
vertex 319.07275338694745 -71.99074279461844 35.99981999656778
endloop
endfacet
facet normal -0.18247644454152678 0.9831269244818279 -0.012798341548231808
outer loop
vertex 309.8428611774227 -76.5946890715101 37.999255496512646
vertex 310.2948668750914 -76.520783002857 35.99987139172311
vertex 309.9829049545527 -76.59472377671212 35.99987065020736
endloop
endfacet
facet normal -0.7714997310087855 0.6339296627949352 -0.054049492893751445
outer loop
vertex 311.51111361874655 -75.77759059782667 35.99987047172723
vertex 311.37106984161653 -75.77755589262468 37.99925531803251
vertex 311.65641501569917 -75.57211880475701 35.999869384327454
endloop
endfacet
facet normal -0.0903811101008271 0.9958870213197492 -0.006347889713906065
outer loop
vertex 309.5196703953303 -76.6397200484584 37.999254463828265
vertex 309.65971417246027 -76.63975475366044 35.99986961752299
vertex 309.1907806355711 -76.65507073599953 37.99925315764477
endloop
endfacet
facet normal 0.0008686393550972618 0.9999996217873109 4.348454850606945e-05
outer loop
vertex 309.1907806355711 -76.65507073599953 37.99925315764477
vertex 309.3308244127011 -76.65510544120157 35.99986831133949
vertex 308.86181929312016 -76.64047847961355 37.99925160031129
endloop
endfacet
facet normal 0.8601395177433033 -0.5064871515100846 0.060255915655796764
outer loop
vertex 306.8568228166891 -74.23806219581117 37.99922272803396
vertex 307.1421679907717 -74.03262510794357 35.9998367943289
vertex 307.00212421364176 -74.0325904027415 37.999221640634175
endloop
endfacet
facet normal 0.5716428305397766 0.8195257321080033 0.04002560062402385
outer loop
vertex 307.40764865221473 -76.14456265502463 37.999241102122134
vertex 307.32993996152027 -75.97274380178854 35.9998538662236
vertex 307.18989618439025 -75.97270909658648 37.999238712528886
endloop
endfacet
facet normal 0.6743770651540114 -0.7368739075389539 0.04724847492285483
outer loop
vertex 307.18480254609204 -73.84204703133575 37.999220841349214
vertex 307.32484632322195 -73.8420817365378 35.99983599504395
vertex 307.54177591425355 -73.66972703670936 35.99983549754978
endloop
endfacet
facet normal 0.003179518285629858 -0.9999949165038788 0.00024006222548028183
outer loop
vertex 309.1824134196872 -73.15507555936665 37.99922380102193
vertex 308.85352365992804 -73.17042624690777 37.99922249483841
vertex 309.32245719681714 -73.15511026456869 35.999838954716644
endloop
endfacet
facet normal 0.9806235886165094 -0.1834642748198257 0.06868942650593414
outer loop
vertex 306.82765712675797 -74.67956775957092 35.999840841838456
vertex 306.8914282795511 -74.45498143639969 35.99983923863758
vertex 306.6876133496279 -74.67953305436886 37.99922568814373
endloop
endfacet
facet normal 0.7714997310086658 -0.6339296627950828 0.05404949289372921
outer loop
vertex 307.00212421364176 -74.0325904027415 37.999221640634175
vertex 307.32484632322195 -73.8420817365378 35.99983599504395
vertex 307.18480254609204 -73.84204703133575 37.999220841349214
endloop
endfacet
facet normal -0.5705277068288337 0.820304857082767 -0.039975957612717376
outer loop
vertex 310.9714619181347 -76.1404539638589 37.999256614811635
vertex 311.1883915091663 -75.96809926403044 37.999256117317486
vertex 311.3284352862963 -75.96813396923243 35.99987127101222
endloop
endfacet
facet normal -0.9999999997581892 8.235019536229774e-12 -2.1991400553246736e-05
outer loop
vertex 303.3733516627234 -66.99067542390925 35.999803149435856
vertex 303.3733076923426 -78.48848467784232 37.999234061244955
vertex 303.37330769234524 -66.99064071828622 37.99923824984404
endloop
endfacet
facet normal -0.9999999997581892 8.235019536229774e-12 -2.1991400553246736e-05
outer loop
vertex 303.3733076923426 -78.48848467784232 37.999234061244955
vertex 303.3733516627234 -66.99067542390925 35.999803149435856
vertex 303.3733516627209 -78.48851938346539 35.99979896083677
endloop
endfacet
facet normal -0.2761778328384854 0.9609115211991369 -0.019361122782482015
outer loop
vertex 310.15482309796135 -76.52074829765498 37.99925623802838
vertex 310.2948668750914 -76.520783002857 35.99987139172311
vertex 309.8428611774227 -76.5946890715101 37.999255496512646
endloop
endfacet
facet normal -0.6711064846208001 0.7398684059788079 -0.04701944421502654
outer loop
vertex 311.1883915091663 -75.96809926403044 37.999256117317486
vertex 311.37106984161653 -75.77755589262468 37.99925531803251
vertex 311.51111361874655 -75.77759059782667 35.99987047172723
endloop
endfacet
facet normal 0.5716428305397766 0.8195257321080033 0.04002560062402385
outer loop
vertex 307.40764865221473 -76.14456265502463 37.999241102122134
vertex 307.7958831970902 -76.2952429095428 35.99985860053346
vertex 307.5476924293447 -76.14459736022668 35.999856255816844
endloop
endfacet
facet normal 0.7691142283605513 0.6368377869136373 0.053860346195455676
outer loop
vertex 307.0063078215837 -75.78258799105795 37.9992363189456
vertex 307.0000685887129 -75.57748706846837 35.99984911602186
vertex 306.8600248115829 -75.57745236326632 37.999233962327146
endloop
endfacet
facet normal 0.18652785592505633 -0.9823625692910247 0.013082103039579993
outer loop
vertex 308.5303328778356 -73.21545722385609 37.99922146215406
vertex 308.218370957297 -73.2893979977112 37.99922072063834
vertex 308.67037665496554 -73.21549192905813 35.99983661584877
endloop
endfacet
facet normal 0.8561654802754814 0.5132109561425261 0.05995986057295933
outer loop
vertex 307.0000685887129 -75.57748706846837 35.99984911602186
vertex 306.89359387437634 -75.36084684587925 35.99984683669064
vertex 306.8600248115829 -75.57745236326632 37.999233962327146
endloop
endfacet
facet normal -0.1801234392154734 -0.9835633187468739 -0.012599391287886936
outer loop
vertex 309.8347790675063 -73.21395333851311 37.99922714019249
vertex 309.5113747621382 -73.16966781575262 37.99922535835544
vertex 309.97482284463626 -73.21398804371515 35.999842293887205
endloop
endfacet
facet normal -0.7664276481048281 -0.6400843417519518 -0.053672112539684035
outer loop
vertex 311.3668862336746 -74.02755830430824 37.999240639721094
vertex 311.18329787086805 -73.8374371987797 37.99923824613779
vertex 311.323341647998 -73.8374719039817 35.99985339983252
endloop
endfacet
facet normal -0.8580545648401318 -0.5100306728038938 -0.060092233742969584
outer loop
vertex 311.6532130208053 -74.23272863730186 35.99985815003426
vertex 311.5131692436753 -74.23269393209988 37.99924299633954
vertex 311.5069300108046 -74.02759300951023 35.99985579341581
endloop
endfacet
facet normal 0.18417508582938258 0.9828090155419061 0.01288319561635266
outer loop
vertex 308.538414987752 -76.59619295685305 37.999249818474205
vertex 308.678458764882 -76.59622766205511 35.99986497216894
vertex 308.22610125679614 -76.52297190529058 37.9992478426213
endloop
endfacet
facet normal 0.09443100581413559 -0.9955093207309836 0.0066315517540325615
outer loop
vertex 308.85352365992804 -73.17042624690777 37.99922249483841
vertex 308.99356743705795 -73.17046095210982 35.99983764853314
vertex 309.32245719681714 -73.15511026456869 35.999838954716644
endloop
endfacet
facet normal -0.980043076808515 -0.1865577561929251 -0.06864234264621637
outer loop
vertex 311.8245323419315 -74.67380690300493 35.99986259240949
vertex 311.6844885648015 -74.67377219780293 37.99924743871478
vertex 311.7596877351419 -74.44936885989098 35.99986042936549
endloop
endfacet
facet normal 0.7688319618956672 -0.63717833064144 0.053862689578659265
outer loop
vertex 307.1421679907717 -74.03262510794357 35.9998367943289
vertex 307.32484632322195 -73.8420817365378 35.99983599504395
vertex 307.00212421364176 -74.0325904027415 37.999221640634175
endloop
endfacet
facet normal -0.9797555976788657 -0.18806904364000934 -0.0686221803884235
outer loop
vertex 311.6844885648015 -74.67377219780293 37.99924743871478
vertex 311.6196439580119 -74.449334154689 37.999245275670766
vertex 311.7596877351419 -74.44936885989098 35.99986042936549
endloop
endfacet
facet normal -0.7691142283605571 -0.6368377869136289 -0.05386034619547412
outer loop
vertex 311.5069300108046 -74.02759300951023 35.99985579341581
vertex 311.3668862336746 -74.02755830430824 37.999240639721094
vertex 311.323341647998 -73.8374719039817 35.99985339983252
endloop
endfacet
facet normal -0.9317801657265773 0.3571069627126429 -0.06527127960062644
outer loop
vertex 311.62180955283714 -75.35519956416856 37.99925287372386
vertex 311.6855807056303 -75.13061324099733 37.999251270523
vertex 311.8256244827603 -75.13064794619932 35.99986642421772
endloop
endfacet
facet normal 0.3760563595086576 -0.9262218724473115 0.02635635546299753
outer loop
vertex 307.92297565326464 -73.3909834213321 37.999220282978804
vertex 307.6492012612897 -73.51847533995576 37.99922015666395
vertex 308.06301943039455 -73.39101812653415 35.99983543667352
endloop
endfacet
facet normal 0.4742135076163134 -0.8797825085021038 0.03323081292984576
outer loop
vertex 307.6492012612897 -73.51847533995576 37.99922015666395
vertex 307.7892450384197 -73.51851004515781 35.99983531035867
vertex 308.06301943039455 -73.39101812653415 35.99983543667352
endloop
endfacet
facet normal 0.9975531634198161 0.0023640786446988324 0.06987200643519152
outer loop
vertex 306.6666005004145 -74.90797843106816 37.9992275102054
vertex 306.82765712675797 -74.67956775957092 35.999840841838456
vertex 306.6876133496279 -74.67953305436886 37.99922568814373
endloop
endfacet
facet normal 0.9808970382325128 -0.1819893814455729 0.06870855425449067
outer loop
vertex 306.6876133496279 -74.67953305436886 37.99922568814373
vertex 306.8914282795511 -74.45498143639969 35.99983923863758
vertex 306.75138450242116 -74.45494673119764 37.99922408494286
endloop
endfacet
facet normal -0.08805948370316415 -0.9960962284037971 -0.006150698306913878
outer loop
vertex 309.5113747621382 -73.16966781575262 37.99922535835544
vertex 309.6514185392681 -73.16970252095466 35.99984051205016
vertex 309.97482284463626 -73.21398804371515 35.999842293887205
endloop
endfacet
facet normal -0.9975531634198161 -0.0023640786447116425 -0.06987200643519155
outer loop
vertex 311.84663733197374 -74.90220256950002 35.999864602156016
vertex 311.7065935548438 -74.90216786429804 37.99924944846129
vertex 311.8245323419315 -74.67380690300493 35.99986259240949
endloop
endfacet
facet normal 0.7664276481047366 0.6400843417520622 0.05367211253967686
outer loop
vertex 307.1463515987137 -75.78262269626 35.999851472640316
vertex 307.0000685887129 -75.57748706846837 35.99984911602186
vertex 307.0063078215837 -75.78258799105795 37.9992363189456
endloop
endfacet
facet normal 0.858054564840136 0.5100306728038896 0.06009223374294572
outer loop
vertex 306.8600248115829 -75.57745236326632 37.999233962327146
vertex 306.89359387437634 -75.36084684587925 35.99984683669064
vertex 306.7535500972464 -75.3608121406772 37.99923168299591
endloop
endfacet
facet normal 0.6743770651540114 -0.7368739075389539 0.04724847492285483
outer loop
vertex 307.18480254609204 -73.84204703133575 37.999220841349214
vertex 307.54177591425355 -73.66972703670936 35.99983549754978
vertex 307.40173213712364 -73.6696923315073 37.99922034385507
endloop
endfacet
facet normal -0.6685726721414634 -0.7421716927628852 -0.04681624212916909
outer loop
vertex 311.18329787086805 -73.8374371987797 37.99923824613779
vertex 311.1055891801735 -73.66561834554355 35.999851010239276
vertex 311.323341647998 -73.8374719039817 35.99985339983252
endloop
endfacet
facet normal -1.719444577712208e-06 -0.9999999994135289 3.4205055997738824e-05
outer loop
vertex 323.8731092219072 -78.4885883102058 35.999989501078986
vertex 303.3733076923426 -78.48848467784232 37.999234061244955
vertex 303.3733516627209 -78.48851938346539 35.99979896083677
endloop
endfacet
facet normal -1.719444577712208e-06 -0.9999999994135289 3.4205055997738824e-05
outer loop
vertex 303.3733076923426 -78.48848467784232 37.999234061244955
vertex 323.8731092219072 -78.4885883102058 35.999989501078986
vertex 323.87308723664285 -78.48848623372537 37.999448270961246
endloop
endfacet
facet normal -1.3124755809521257e-08 0.9999999998475608 -1.7460768690324245e-05
outer loop
vertex 303.3733516627234 -66.99067542390925 35.999803149435856
vertex 319.07277502610435 -66.99064030600886 37.99924835374051
vertex 319.0727750261088 -66.99067542394093 35.99980126483902
endloop
endfacet
facet normal -1.3124755809521257e-08 0.9999999998475608 -1.7460768690324245e-05
outer loop
vertex 319.07277502610435 -66.99064030600886 37.99924835374051
vertex 303.3733516627234 -66.99067542390925 35.999803149435856
vertex 303.37330769234524 -66.99064071828622 37.99923824984404
endloop
endfacet
facet normal -6.910973757742277e-08 0.9999999986915802 -5.115500769537667e-05
outer loop
vertex 319.0727753720568 -71.99064030582905 37.99929075494336
vertex 323.8731095678609 -71.9907422562504 35.99983507445621
vertex 319.07275338694745 -71.99074279461844 35.99981999656778
endloop
endfacet
facet normal -6.910973757742277e-08 0.9999999986915802 -5.115500769537667e-05
outer loop
vertex 323.8731095678609 -71.9907422562504 35.99983507445621
vertex 319.0727753720568 -71.99064030582905 37.99929075494336
vertex 323.8730875825966 -71.99064017976997 37.99929384433847
endloop
endfacet
facet normal 4.234671974995242e-06 -9.80136166465647e-06 -0.9999999999430005
outer loop
vertex 323.8731092219072 -78.4885883102058 35.999989501078986
vertex 319.07275338694745 -71.99074279461844 35.99981999656778
vertex 323.8731095678609 -71.9907422562504 35.99983507445621
endloop
endfacet
facet normal 4.234671974995242e-06 -9.80136166465647e-06 -0.9999999999430005
outer loop
vertex 319.07275338694745 -71.99074279461844 35.99981999656778
vertex 323.8731092219072 -78.4885883102058 35.999989501078986
vertex 310.86403657109855 -76.29170566061245 35.99987195569745
endloop
endfacet
facet normal 4.234671974995242e-06 -9.80136166465647e-06 -0.9999999999430005
outer loop
vertex 310.86403657109855 -76.29170566061245 35.99987195569745
vertex 323.8731092219072 -78.4885883102058 35.999989501078986
vertex 310.59026217912367 -76.4191975792361 35.99987182938261
endloop
endfacet
facet normal 4.234671974995242e-06 -9.80136166465647e-06 -0.9999999999430005
outer loop
vertex 310.59026217912367 -76.4191975792361 35.99987182938261
vertex 323.8731092219072 -78.4885883102058 35.999989501078986
vertex 310.2948668750914 -76.520783002857 35.99987139172311
endloop
endfacet
facet normal 4.234671974995242e-06 -9.80136166465647e-06 -0.9999999999430005
outer loop
vertex 310.2948668750914 -76.520783002857 35.99987139172311
vertex 323.8731092219072 -78.4885883102058 35.999989501078986
vertex 303.3733516627209 -78.48851938346539 35.99979896083677
endloop
endfacet
facet normal 4.234671974995242e-06 -9.80136166465647e-06 -0.9999999999430005
outer loop
vertex 319.07275338694745 -71.99074279461844 35.99981999656778
vertex 310.86403657109855 -76.29170566061245 35.99987195569745
vertex 311.1115056952648 -76.14048866906087 35.99987176850637
endloop
endfacet
facet normal 4.234671974995242e-06 -9.80136166465647e-06 -0.9999999999430005
outer loop
vertex 319.07275338694745 -71.99074279461844 35.99981999656778
vertex 311.1115056952648 -76.14048866906087 35.99987176850637
vertex 311.3284352862963 -75.96813396923243 35.99987127101222
endloop
endfacet
facet normal 4.234671974995242e-06 -9.80136166465647e-06 -0.9999999999430005
outer loop
vertex 319.07275338694745 -71.99074279461844 35.99981999656778
vertex 311.3284352862963 -75.96813396923243 35.99987127101222
vertex 311.51111361874655 -75.77759059782667 35.99987047172723
endloop
endfacet
facet normal 4.234671974995242e-06 -9.80136166465647e-06 -0.9999999999430005
outer loop
vertex 319.07275338694745 -71.99074279461844 35.99981999656778
vertex 311.51111361874655 -75.77759059782667 35.99987047172723
vertex 311.65641501569917 -75.57211880475701 35.999869384327454
endloop
endfacet
facet normal 4.234671974995242e-06 -9.80136166465647e-06 -0.9999999999430005
outer loop
vertex 319.07275338694745 -71.99074279461844 35.99981999656778
vertex 311.65641501569917 -75.57211880475701 35.999869384327454
vertex 311.7618533299671 -75.35523426937054 35.99986802741859
endloop
endfacet
facet normal 4.234671974995242e-06 -9.80136166465647e-06 -0.9999999999430005
outer loop
vertex 319.07275338694745 -71.99074279461844 35.99981999656778
vertex 311.7618533299671 -75.35523426937054 35.99986802741859
vertex 311.8256244827603 -75.13064794619932 35.99986642421772
endloop
endfacet
facet normal 4.234671974995242e-06 -9.80136166465647e-06 -0.9999999999430005
outer loop
vertex 319.07275338694745 -71.99074279461844 35.99981999656778
vertex 311.8256244827603 -75.13064794619932 35.99986642421772
vertex 311.84663733197374 -74.90220256950002 35.999864602156016
endloop
endfacet
facet normal 4.234671974995242e-06 -9.80136166465647e-06 -0.9999999999430005
outer loop
vertex 310.2948668750914 -76.520783002857 35.99987139172311
vertex 303.3733516627209 -78.48851938346539 35.99979896083677
vertex 309.9829049545527 -76.59472377671212 35.99987065020736
endloop
endfacet
facet normal 4.234671974995242e-06 -9.80136166465647e-06 -0.9999999999430005
outer loop
vertex 309.9829049545527 -76.59472377671212 35.99987065020736
vertex 303.3733516627209 -78.48851938346539 35.99979896083677
vertex 309.65971417246027 -76.63975475366044 35.99986961752299
endloop
endfacet
facet normal 4.234671974995242e-06 -9.80136166465647e-06 -0.9999999999430005
outer loop
vertex 309.65971417246027 -76.63975475366044 35.99986961752299
vertex 303.3733516627209 -78.48851938346539 35.99979896083677
vertex 309.3308244127011 -76.65510544120157 35.99986831133949
endloop
endfacet
facet normal 4.234671974995242e-06 -9.80136166465647e-06 -0.9999999999430005
outer loop
vertex 309.3308244127011 -76.65510544120157 35.99986831133949
vertex 303.3733516627209 -78.48851938346539 35.99979896083677
vertex 309.0018630702501 -76.6405131848156 35.99986675400602
endloop
endfacet
facet normal 4.234671974995242e-06 -9.80136166465647e-06 -0.9999999999430005
outer loop
vertex 309.0018630702501 -76.6405131848156 35.99986675400602
vertex 303.3733516627209 -78.48851938346539 35.99979896083677
vertex 308.678458764882 -76.59622766205511 35.99986497216894
endloop
endfacet
facet normal 4.234671974995242e-06 -9.80136166465647e-06 -0.9999999999430005
outer loop
vertex 308.678458764882 -76.59622766205511 35.99986497216894
vertex 303.3733516627209 -78.48851938346539 35.99979896083677
vertex 308.36614503392616 -76.52300661049263 35.99986299631602
endloop
endfacet
facet normal 4.234671974995242e-06 -9.80136166465647e-06 -0.9999999999430005
outer loop
vertex 308.36614503392616 -76.52300661049263 35.99986299631602
vertex 303.3733516627209 -78.48851938346539 35.99979896083677
vertex 308.07026565190904 -76.42210286262127 35.999860860254664
endloop
endfacet
facet normal 4.234671974995242e-06 -9.80136166465647e-06 -0.9999999999430005
outer loop
vertex 308.07026565190904 -76.42210286262127 35.999860860254664
vertex 303.3733516627209 -78.48851938346539 35.99979896083677
vertex 307.7958831970902 -76.2952429095428 35.99985860053346
endloop
endfacet
facet normal 4.234671974995242e-06 -9.80136166465647e-06 -0.9999999999430005
outer loop
vertex 307.7958831970902 -76.2952429095428 35.99985860053346
vertex 303.3733516627209 -78.48851938346539 35.99979896083677
vertex 307.5476924293447 -76.14459736022668 35.999856255816844
endloop
endfacet
facet normal 4.234671974995242e-06 -9.80136166465647e-06 -0.9999999999430005
outer loop
vertex 307.5476924293447 -76.14459736022668 35.999856255816844
vertex 303.3733516627209 -78.48851938346539 35.99979896083677
vertex 307.32993996152027 -75.97274380178854 35.9998538662236
endloop
endfacet
facet normal 4.234671974995242e-06 -9.80136166465647e-06 -0.9999999999430005
outer loop
vertex 307.32993996152027 -75.97274380178854 35.9998538662236
vertex 303.3733516627209 -78.48851938346539 35.99979896083677
vertex 307.1463515987137 -75.78262269626 35.999851472640316
endloop
endfacet
facet normal 4.234671974995242e-06 -9.80136166465647e-06 -0.9999999999430005
outer loop
vertex 307.1463515987137 -75.78262269626 35.999851472640316
vertex 303.3733516627209 -78.48851938346539 35.99979896083677
vertex 307.0000685887129 -75.57748706846837 35.99984911602186
endloop
endfacet
facet normal 4.234671974995242e-06 -9.80136166465647e-06 -0.9999999999430005
outer loop
vertex 307.0000685887129 -75.57748706846837 35.99984911602186
vertex 303.3733516627209 -78.48851938346539 35.99979896083677
vertex 306.89359387437634 -75.36084684587925 35.99984683669064
endloop
endfacet
facet normal 4.234671974995242e-06 -9.80136166465647e-06 -0.9999999999430005
outer loop
vertex 306.89359387437634 -75.36084684587925 35.99984683669064
vertex 303.3733516627209 -78.48851938346539 35.99979896083677
vertex 306.8287492675868 -75.13640880276532 35.99984467364663
endloop
endfacet
facet normal 4.234671974995242e-06 -9.80136166465647e-06 -0.9999999999430005
outer loop
vertex 306.8287492675868 -75.13640880276532 35.99984467364663
vertex 303.3733516627209 -78.48851938346539 35.99979896083677
vertex 306.8066442775445 -74.90801313627021 35.99984266390012
endloop
endfacet
facet normal 4.234671974995242e-06 -9.80136166465647e-06 -0.9999999999430005
outer loop
vertex 306.8066442775445 -74.90801313627021 35.99984266390012
vertex 303.3733516627209 -78.48851938346539 35.99979896083677
vertex 303.3733516627234 -66.99067542390925 35.999803149435856
endloop
endfacet
facet normal 4.234671974995242e-06 -9.80136166465647e-06 -0.9999999999430005
outer loop
vertex 319.07275338694745 -71.99074279461844 35.99981999656778
vertex 303.3733516627234 -66.99067542390925 35.999803149435856
vertex 319.0727750261088 -66.99067542394093 35.99980126483902
endloop
endfacet
facet normal 4.234671974995242e-06 -9.80136166465647e-06 -0.9999999999430005
outer loop
vertex 303.3733516627234 -66.99067542390925 35.999803149435856
vertex 319.07275338694745 -71.99074279461844 35.99981999656778
vertex 311.323341647998 -73.8374719039817 35.99985339983252
endloop
endfacet
facet normal 4.234671974995242e-06 -9.80136166465647e-06 -0.9999999999430005
outer loop
vertex 311.323341647998 -73.8374719039817 35.99985339983252
vertex 319.07275338694745 -71.99074279461844 35.99981999656778
vertex 311.5069300108046 -74.02759300951023 35.99985579341581
endloop
endfacet
facet normal 4.234671974995242e-06 -9.80136166465647e-06 -0.9999999999430005
outer loop
vertex 311.5069300108046 -74.02759300951023 35.99985579341581
vertex 319.07275338694745 -71.99074279461844 35.99981999656778
vertex 311.6532130208053 -74.23272863730186 35.99985815003426
endloop
endfacet
facet normal 4.234671974995242e-06 -9.80136166465647e-06 -0.9999999999430005
outer loop
vertex 311.6532130208053 -74.23272863730186 35.99985815003426
vertex 319.07275338694745 -71.99074279461844 35.99981999656778
vertex 311.7596877351419 -74.44936885989098 35.99986042936549
endloop
endfacet
facet normal 4.234671974995242e-06 -9.80136166465647e-06 -0.9999999999430005
outer loop
vertex 311.7596877351419 -74.44936885989098 35.99986042936549
vertex 319.07275338694745 -71.99074279461844 35.99981999656778
vertex 311.8245323419315 -74.67380690300493 35.99986259240949
endloop
endfacet
facet normal 4.234671974995242e-06 -9.80136166465647e-06 -0.9999999999430005
outer loop
vertex 311.8245323419315 -74.67380690300493 35.99986259240949
vertex 319.07275338694745 -71.99074279461844 35.99981999656778
vertex 311.84663733197374 -74.90220256950002 35.999864602156016
endloop
endfacet
facet normal 4.234671974995242e-06 -9.80136166465647e-06 -0.9999999999430005
outer loop
vertex 303.3733516627234 -66.99067542390925 35.999803149435856
vertex 311.323341647998 -73.8374719039817 35.99985339983252
vertex 311.1055891801735 -73.66561834554355 35.999851010239276
endloop
endfacet
facet normal 4.234671974995242e-06 -9.80136166465647e-06 -0.9999999999430005
outer loop
vertex 303.3733516627234 -66.99067542390925 35.999803149435856
vertex 311.1055891801735 -73.66561834554355 35.999851010239276
vertex 310.85739841242804 -73.51497279622747 35.99984866552267
endloop
endfacet
facet normal 4.234671974995242e-06 -9.80136166465647e-06 -0.9999999999430005
outer loop
vertex 303.3733516627234 -66.99067542390925 35.999803149435856
vertex 310.85739841242804 -73.51497279622747 35.99984866552267
vertex 310.58301595760923 -73.38811284314899 35.99984640580146
endloop
endfacet
facet normal 4.234671974995242e-06 -9.80136166465647e-06 -0.9999999999430005
outer loop
vertex 303.3733516627234 -66.99067542390925 35.999803149435856
vertex 310.58301595760923 -73.38811284314899 35.99984640580146
vertex 310.28713657559206 -73.28720909527763 35.9998442697401
endloop
endfacet
facet normal 4.234671974995242e-06 -9.80136166465647e-06 -0.9999999999430005
outer loop
vertex 303.3733516627234 -66.99067542390925 35.999803149435856
vertex 310.28713657559206 -73.28720909527763 35.9998442697401
vertex 309.97482284463626 -73.21398804371515 35.999842293887205
endloop
endfacet
facet normal 4.234671974995242e-06 -9.80136166465647e-06 -0.9999999999430005
outer loop
vertex 303.3733516627234 -66.99067542390925 35.999803149435856
vertex 309.97482284463626 -73.21398804371515 35.999842293887205
vertex 309.6514185392681 -73.16970252095466 35.99984051205016
endloop
endfacet
facet normal 4.234671974995242e-06 -9.80136166465647e-06 -0.9999999999430005
outer loop
vertex 303.3733516627234 -66.99067542390925 35.999803149435856
vertex 309.6514185392681 -73.16970252095466 35.99984051205016
vertex 309.32245719681714 -73.15511026456869 35.999838954716644
endloop
endfacet
facet normal 4.234671974995242e-06 -9.80136166465647e-06 -0.9999999999430005
outer loop
vertex 303.3733516627234 -66.99067542390925 35.999803149435856
vertex 309.32245719681714 -73.15511026456869 35.999838954716644
vertex 308.99356743705795 -73.17046095210982 35.99983764853314
endloop
endfacet
facet normal 4.234671974995242e-06 -9.80136166465647e-06 -0.9999999999430005
outer loop
vertex 303.3733516627234 -66.99067542390925 35.999803149435856
vertex 308.99356743705795 -73.17046095210982 35.99983764853314
vertex 308.67037665496554 -73.21549192905813 35.99983661584877
endloop
endfacet
facet normal 4.234671974995242e-06 -9.80136166465647e-06 -0.9999999999430005
outer loop
vertex 303.3733516627234 -66.99067542390925 35.999803149435856
vertex 308.67037665496554 -73.21549192905813 35.99983661584877
vertex 308.3584147344269 -73.28943270291326 35.99983587433307
endloop
endfacet
facet normal 4.234671974995242e-06 -9.80136166465647e-06 -0.9999999999430005
outer loop
vertex 303.3733516627234 -66.99067542390925 35.999803149435856
vertex 308.3584147344269 -73.28943270291326 35.99983587433307
vertex 308.06301943039455 -73.39101812653415 35.99983543667352
endloop
endfacet
facet normal 4.234671974995242e-06 -9.80136166465647e-06 -0.9999999999430005
outer loop
vertex 303.3733516627234 -66.99067542390925 35.999803149435856
vertex 308.06301943039455 -73.39101812653415 35.99983543667352
vertex 307.7892450384197 -73.51851004515781 35.99983531035867
endloop
endfacet
facet normal 4.234671974995242e-06 -9.80136166465647e-06 -0.9999999999430005
outer loop
vertex 303.3733516627234 -66.99067542390925 35.999803149435856
vertex 307.7892450384197 -73.51851004515781 35.99983531035867
vertex 307.54177591425355 -73.66972703670936 35.99983549754978
endloop
endfacet
facet normal 4.234671974995242e-06 -9.80136166465647e-06 -0.9999999999430005
outer loop
vertex 303.3733516627234 -66.99067542390925 35.999803149435856
vertex 307.54177591425355 -73.66972703670936 35.99983549754978
vertex 307.32484632322195 -73.8420817365378 35.99983599504395
endloop
endfacet
facet normal 4.234671974995242e-06 -9.80136166465647e-06 -0.9999999999430005
outer loop
vertex 303.3733516627234 -66.99067542390925 35.999803149435856
vertex 307.32484632322195 -73.8420817365378 35.99983599504395
vertex 307.1421679907717 -74.03262510794357 35.9998367943289
endloop
endfacet
facet normal 4.234671974995242e-06 -9.80136166465647e-06 -0.9999999999430005
outer loop
vertex 303.3733516627234 -66.99067542390925 35.999803149435856
vertex 307.1421679907717 -74.03262510794357 35.9998367943289
vertex 306.9968665938191 -74.23809690101324 35.99983788172867
endloop
endfacet
facet normal 4.234671974995242e-06 -9.80136166465647e-06 -0.9999999999430005
outer loop
vertex 303.3733516627234 -66.99067542390925 35.999803149435856
vertex 306.9968665938191 -74.23809690101324 35.99983788172867
vertex 306.8914282795511 -74.45498143639969 35.99983923863758
endloop
endfacet
facet normal 4.234671974995242e-06 -9.80136166465647e-06 -0.9999999999430005
outer loop
vertex 303.3733516627234 -66.99067542390925 35.999803149435856
vertex 306.8914282795511 -74.45498143639969 35.99983923863758
vertex 306.82765712675797 -74.67956775957092 35.999840841838456
endloop
endfacet
facet normal 4.234671974995242e-06 -9.80136166465647e-06 -0.9999999999430005
outer loop
vertex 303.3733516627234 -66.99067542390925 35.999803149435856
vertex 306.82765712675797 -74.67956775957092 35.999840841838456
vertex 306.8066442775445 -74.90801313627021 35.99984266390012
endloop
endfacet
endsolid newXgantryHP
