solid newXgantryHP
facet normal 0.0 0.0 1.0
outer loop
vertex 988.1083477014926 -1.4562123341099793 0.9999999999999999
vertex 988.1123350822727 0.057886245265241415 0.9999999999999999
vertex 988.0607217599146 -0.6990323710504258 0.9999999999999999
endloop
endfacet
facet normal 0.0 0.0 1.0
outer loop
vertex 988.1123350822727 0.057886245265241415 0.9999999999999999
vertex 988.1083477014926 -1.4562123341099793 0.9999999999999999
vertex 988.2543980139416 -2.200698084815528 0.9999999999999999
endloop
endfacet
facet normal 0.0 0.0 1.0
outer loop
vertex 988.1123350822727 0.057886245265241415 0.9999999999999999
vertex 988.2543980139416 -2.200698084815528 0.9999999999999999
vertex 988.262304550311 0.8015924274543678 0.9999999999999999
endloop
endfacet
facet normal 0.0 0.0 1.0
outer loop
vertex 988.262304550311 0.8015924274543678 0.9999999999999999
vertex 988.2543980139416 -2.200698084815528 0.9999999999999999
vertex 988.4963737359228 -2.9197512655620557 0.9999999999999999
endloop
endfacet
facet normal 0.0 0.0 1.0
outer loop
vertex 988.262304550311 0.8015924274543678 0.9999999999999999
vertex 988.4963737359228 -2.9197512655620557 0.9999999999999999
vertex 988.5080641448524 1.5193611565453924 0.9999999999999999
endloop
endfacet
facet normal 0.0 0.0 1.0
outer loop
vertex 988.5080641448524 1.5193611565453924 0.9999999999999999
vertex 988.4963737359228 -2.9197512655620557 0.9999999999999999
vertex 988.830134595745 -3.6010686770677793 0.9999999999999999
endloop
endfacet
facet normal 0.0 0.0 1.0
outer loop
vertex 988.5080641448524 1.5193611565453924 0.9999999999999999
vertex 988.830134595745 -3.6010686770677793 0.9999999999999999
vertex 988.8454088510965 2.198911210580481 0.9999999999999999
endloop
endfacet
facet normal 0.0 0.0 1.0
outer loop
vertex 988.8454088510965 2.198911210580481 0.9999999999999999
vertex 988.830134595745 -3.6010686770677793 0.9999999999999999
vertex 989.2499698525603 -4.232992789524965 0.9999999999999999
endloop
endfacet
facet normal 0.0 0.0 1.0
outer loop
vertex 988.8454088510965 2.198911210580481 0.9999999999999999
vertex 989.2499698525603 -4.232992789524965 0.9999999999999999
vertex 989.2685666075901 2.828615299728223 0.9999999999999999
endloop
endfacet
facet normal 0.0 0.0 1.0
outer loop
vertex 989.2685666075901 2.828615299728223 0.9999999999999999
vertex 989.2499698525603 -4.232992789524965 0.9999999999999999
vertex 989.7486960087246 -4.804711206167007 0.9999999999999999
endloop
endfacet
facet normal 0.0 0.0 1.0
outer loop
vertex 989.2685666075901 2.828615299728223 0.9999999999999999
vertex 989.7486960087246 -4.804711206167007 0.9999999999999999
vertex 989.660701647563 -0.7143066264020208 0.9999999999999999
endloop
endfacet
facet normal 0.0 0.0 1.0
outer loop
vertex 989.660701647563 -0.7143066264020208 0.9999999999999999
vertex 989.7486960087246 -4.804711206167007 0.9999999999999999
vertex 989.6966332297928 -1.262516633726237 0.9999999999999999
endloop
endfacet
facet normal 0.0 0.0 1.0
outer loop
vertex 989.6966332297928 -1.262516633726237 0.9999999999999999
vertex 989.7486960087246 -4.804711206167007 0.9999999999999999
vertex 989.8038131771489 -1.8013466158326066 0.9999999999999999
endloop
endfacet
facet normal 0.0 0.0 1.0
outer loop
vertex 989.8038131771489 -1.8013466158326066 0.9999999999999999
vertex 989.7486960087246 -4.804711206167007 0.9999999999999999
vertex 990.3177797214327 -5.306441666374871 0.9999999999999999
endloop
endfacet
facet normal 0.0 0.0 1.0
outer loop
vertex 989.8038131771489 -1.8013466158326066 0.9999999999999999
vertex 990.3177797214327 -5.306441666374871 0.9999999999999999
vertex 989.9804076110155 -2.321577042335396 0.9999999999999999
endloop
endfacet
facet normal 0.0 0.0 1.0
outer loop
vertex 989.9804076110155 -2.321577042335396 0.9999999999999999
vertex 990.3177797214327 -5.306441666374871 0.9999999999999999
vertex 990.2233949516683 -2.814306626402019 0.9999999999999999
endloop
endfacet
facet normal 0.0 0.0 1.0
outer loop
vertex 990.2233949516683 -2.814306626402019 0.9999999999999999
vertex 990.3177797214327 -5.306441666374871 0.9999999999999999
vertex 990.5286176183397 -3.2711046282386453 0.9999999999999999
endloop
endfacet
facet normal 0.0 0.0 1.0
outer loop
vertex 990.5286176183397 -3.2711046282386453 0.9999999999999999
vertex 990.3177797214327 -5.306441666374871 0.9999999999999999
vertex 990.9474838105804 -5.729599422868432 0.9999999999999999
endloop
endfacet
facet normal 0.0 0.0 1.0
outer loop
vertex 990.5286176183397 -3.2711046282386453 0.9999999999999999
vertex 990.9474838105804 -5.729599422868432 0.9999999999999999
vertex 990.8908531665795 -3.6841551073855188 0.9999999999999999
endloop
endfacet
facet normal 0.0 0.0 1.0
outer loop
vertex 990.8908531665795 -3.6841551073855188 0.9999999999999999
vertex 990.9474838105804 -5.729599422868432 0.9999999999999999
vertex 991.3039036457262 -4.046390655625208 0.9999999999999999
endloop
endfacet
facet normal 0.0 0.0 1.0
outer loop
vertex 991.3039036457262 -4.046390655625208 0.9999999999999999
vertex 990.9474838105804 -5.729599422868432 0.9999999999999999
vertex 991.6270338646154 -6.066944129112594 0.9999999999999999
endloop
endfacet
facet normal 0.0 0.0 1.0
outer loop
vertex 991.3039036457262 -4.046390655625208 0.9999999999999999
vertex 991.6270338646154 -6.066944129112594 0.9999999999999999
vertex 991.7607016475629 -4.351613322296663 0.9999999999999999
endloop
endfacet
facet normal 0.0 0.0 1.0
outer loop
vertex 991.7607016475629 -4.351613322296663 0.9999999999999999
vertex 991.6270338646154 -6.066944129112594 0.9999999999999999
vertex 992.3448025937065 -6.312703723653895 0.9999999999999999
endloop
endfacet
facet normal 0.0 0.0 1.0
outer loop
vertex 991.7607016475629 -4.351613322296663 0.9999999999999999
vertex 992.3448025937065 -6.312703723653895 0.9999999999999999
vertex 992.2534312316295 -4.594600662949426 0.9999999999999999
endloop
endfacet
facet normal 0.0 0.0 1.0
outer loop
vertex 992.2534312316295 -4.594600662949426 0.9999999999999999
vertex 992.3448025937065 -6.312703723653895 0.9999999999999999
vertex 992.7736616581323 -4.771195096816109 0.9999999999999999
endloop
endfacet
facet normal 0.0 0.0 1.0
outer loop
vertex 992.7736616581323 -4.771195096816109 0.9999999999999999
vertex 992.3448025937065 -6.312703723653895 0.9999999999999999
vertex 993.0885087758957 -6.462673191692301 0.9999999999999999
endloop
endfacet
facet normal 0.0 0.0 1.0
outer loop
vertex 992.7736616581323 -4.771195096816109 0.9999999999999999
vertex 993.0885087758957 -6.462673191692301 0.9999999999999999
vertex 993.3124916402387 -4.878375044172028 0.9999999999999999
endloop
endfacet
facet normal 0.0 0.0 1.0
outer loop
vertex 993.3124916402387 -4.878375044172028 0.9999999999999999
vertex 993.0885087758957 -6.462673191692301 0.9999999999999999
vertex 993.8454273922114 -6.514286514050285 0.9999999999999999
endloop
endfacet
facet normal 0.0 0.0 1.0
outer loop
vertex 993.3124916402387 -4.878375044172028 0.9999999999999999
vertex 993.8454273922114 -6.514286514050285 0.9999999999999999
vertex 993.8607016475629 -4.914306626402025 0.9999999999999999
endloop
endfacet
facet normal 0.0 0.0 1.0
outer loop
vertex 993.8607016475629 -4.914306626402025 0.9999999999999999
vertex 993.8454273922114 -6.514286514050285 0.9999999999999999
vertex 994.6026073552708 -6.466660572472383 0.9999999999999999
endloop
endfacet
facet normal 0.0 0.0 1.0
outer loop
vertex 993.8607016475629 -4.914306626402025 0.9999999999999999
vertex 994.6026073552708 -6.466660572472383 0.9999999999999999
vertex 994.4089116548871 -4.878375044172031 0.9999999999999999
endloop
endfacet
facet normal 0.0 0.0 1.0
outer loop
vertex 994.4089116548871 -4.878375044172031 0.9999999999999999
vertex 994.6026073552708 -6.466660572472383 0.9999999999999999
vertex 994.9477416369936 -4.771195096816116 0.9999999999999999
endloop
endfacet
facet normal 0.0 0.0 1.0
outer loop
vertex 994.9477416369936 -4.771195096816116 0.9999999999999999
vertex 994.6026073552708 -6.466660572472383 0.9999999999999999
vertex 995.3470931059763 -6.320610260023402 0.9999999999999999
endloop
endfacet
facet normal 0.0 0.0 1.0
outer loop
vertex 994.9477416369936 -4.771195096816116 0.9999999999999999
vertex 995.3470931059763 -6.320610260023402 0.9999999999999999
vertex 995.4679720634963 -4.594600662949435 0.9999999999999999
endloop
endfacet
facet normal 0.0 0.0 1.0
outer loop
vertex 995.4679720634963 -4.594600662949435 0.9999999999999999
vertex 995.3470931059763 -6.320610260023402 0.9999999999999999
vertex 996.0661462867229 -6.078634538042136 0.9999999999999999
endloop
endfacet
facet normal 0.0 0.0 1.0
outer loop
vertex 995.4679720634963 -4.594600662949435 0.9999999999999999
vertex 996.0661462867229 -6.078634538042136 0.9999999999999999
vertex 995.9607016475629 -4.351613322296674 0.9999999999999999
endloop
endfacet
facet normal 0.0 0.0 1.0
outer loop
vertex 995.9607016475629 -4.351613322296674 0.9999999999999999
vertex 996.0661462867229 -6.078634538042136 0.9999999999999999
vertex 996.4174996493996 -4.046390655625222 0.9999999999999999
endloop
endfacet
facet normal 0.0 0.0 1.0
outer loop
vertex 996.4174996493996 -4.046390655625222 0.9999999999999999
vertex 996.0661462867229 -6.078634538042136 0.9999999999999999
vertex 996.7474636982287 -5.744873678220033 0.9999999999999999
endloop
endfacet
facet normal 0.0 0.0 1.0
outer loop
vertex 996.4174996493996 -4.046390655625222 0.9999999999999999
vertex 996.7474636982287 -5.744873678220033 0.9999999999999999
vertex 996.8305501285464 -3.6841551073855365 0.9999999999999999
endloop
endfacet
facet normal 0.0 0.0 1.0
outer loop
vertex 996.8305501285464 -3.6841551073855365 0.9999999999999999
vertex 996.7474636982287 -5.744873678220033 0.9999999999999999
vertex 997.3793878106859 -5.32503842140464 0.9999999999999999
endloop
endfacet
facet normal 0.0 0.0 1.0
outer loop
vertex 996.8305501285464 -3.6841551073855365 0.9999999999999999
vertex 997.3793878106859 -5.32503842140464 0.9999999999999999
vertex 997.1927856767861 -3.271104628238665 0.9999999999999999
endloop
endfacet
facet normal 0.0 0.0 1.0
outer loop
vertex 997.1927856767861 -3.271104628238665 0.9999999999999999
vertex 997.3793878106859 -5.32503842140464 0.9999999999999999
vertex 997.4980083434575 -2.8143066264020393 0.9999999999999999
endloop
endfacet
facet normal 0.0 0.0 1.0
outer loop
vertex 997.4980083434575 -2.8143066264020393 0.9999999999999999
vertex 997.3793878106859 -5.32503842140464 0.9999999999999999
vertex 997.951106227328 -4.826312265240393 0.9999999999999999
endloop
endfacet
facet normal 0.0 0.0 1.0
outer loop
vertex 997.4980083434575 -2.8143066264020393 0.9999999999999999
vertex 997.951106227328 -4.826312265240393 0.9999999999999999
vertex 997.7409956841103 -2.3215770423354187 0.9999999999999999
endloop
endfacet
facet normal 0.0 0.0 1.0
outer loop
vertex 997.7409956841103 -2.3215770423354187 0.9999999999999999
vertex 997.951106227328 -4.826312265240393 0.9999999999999999
vertex 997.917590117977 -1.80134661583263 0.9999999999999999
endloop
endfacet
facet normal 0.0 0.0 1.0
outer loop
vertex 997.917590117977 -1.80134661583263 0.9999999999999999
vertex 997.951106227328 -4.826312265240393 0.9999999999999999
vertex 998.024770065333 -1.262516633726261 0.9999999999999999
endloop
endfacet
facet normal 0.0 0.0 1.0
outer loop
vertex 998.024770065333 -1.262516633726261 0.9999999999999999
vertex 997.951106227328 -4.826312265240393 0.9999999999999999
vertex 998.4528366875358 -4.257228552532274 0.9999999999999999
endloop
endfacet
facet normal 0.0 0.0 1.0
outer loop
vertex 998.024770065333 -1.262516633726261 0.9999999999999999
vertex 998.4528366875358 -4.257228552532274 0.9999999999999999
vertex 998.0607016475628 -0.7143066264020447 0.9999999999999999
endloop
endfacet
facet normal 0.0 0.0 1.0
outer loop
vertex 989.660701647563 -0.7143066264020208 0.9999999999999999
vertex 989.7702970677979 3.397699012436342 0.9999999999999999
vertex 989.2685666075901 2.828615299728223 0.9999999999999999
endloop
endfacet
facet normal 0.0 0.0 1.0
outer loop
vertex 989.7702970677979 3.397699012436342 0.9999999999999999
vertex 989.660701647563 -0.7143066264020208 0.9999999999999999
vertex 989.6966332297928 -0.16609661907780454 0.9999999999999999
endloop
endfacet
facet normal 0.0 0.0 1.0
outer loop
vertex 989.7702970677979 3.397699012436342 0.9999999999999999
vertex 989.6966332297928 -0.16609661907780454 0.9999999999999999
vertex 989.8038131771489 0.3727333630285644 0.9999999999999999
endloop
endfacet
facet normal 0.0 0.0 1.0
outer loop
vertex 989.7702970677979 3.397699012436342 0.9999999999999999
vertex 989.8038131771489 0.3727333630285644 0.9999999999999999
vertex 990.3420154844399 3.8964251686005875 0.9999999999999999
endloop
endfacet
facet normal 0.0 0.0 1.0
outer loop
vertex 990.3420154844399 3.8964251686005875 0.9999999999999999
vertex 989.8038131771489 0.3727333630285644 0.9999999999999999
vertex 989.9804076110155 0.8929637895313545 0.9999999999999999
endloop
endfacet
facet normal 0.0 0.0 1.0
outer loop
vertex 990.3420154844399 3.8964251686005875 0.9999999999999999
vertex 989.9804076110155 0.8929637895313545 0.9999999999999999
vertex 990.2233949516683 1.3856933735979768 0.9999999999999999
endloop
endfacet
facet normal 0.0 0.0 1.0
outer loop
vertex 990.3420154844399 3.8964251686005875 0.9999999999999999
vertex 990.2233949516683 1.3856933735979768 0.9999999999999999
vertex 990.5286176183397 1.8424913754346024 0.9999999999999999
endloop
endfacet
facet normal 0.0 0.0 1.0
outer loop
vertex 990.3420154844399 3.8964251686005875 0.9999999999999999
vertex 990.5286176183397 1.8424913754346024 0.9999999999999999
vertex 990.9739395968971 4.316260425415982 0.9999999999999999
endloop
endfacet
facet normal 0.0 0.0 1.0
outer loop
vertex 990.9739395968971 4.316260425415982 0.9999999999999999
vertex 990.5286176183397 1.8424913754346024 0.9999999999999999
vertex 990.8908531665795 2.2555418545814754 0.9999999999999999
endloop
endfacet
facet normal 0.0 0.0 1.0
outer loop
vertex 990.9739395968971 4.316260425415982 0.9999999999999999
vertex 990.8908531665795 2.2555418545814754 0.9999999999999999
vertex 991.3039036457262 2.617777402821163 0.9999999999999999
endloop
endfacet
facet normal 0.0 0.0 1.0
outer loop
vertex 990.9739395968971 4.316260425415982 0.9999999999999999
vertex 991.3039036457262 2.617777402821163 0.9999999999999999
vertex 991.6552570084029 4.650021285238085 0.9999999999999999
endloop
endfacet
facet normal 0.0 0.0 1.0
outer loop
vertex 991.6552570084029 4.650021285238085 0.9999999999999999
vertex 991.3039036457262 2.617777402821163 0.9999999999999999
vertex 991.7607016475629 2.9230000694926175 0.9999999999999999
endloop
endfacet
facet normal 0.0 0.0 1.0
outer loop
vertex 991.6552570084029 4.650021285238085 0.9999999999999999
vertex 991.7607016475629 2.9230000694926175 0.9999999999999999
vertex 992.3743101891495 4.891997007219351 0.9999999999999999
endloop
endfacet
facet normal 0.0 0.0 1.0
outer loop
vertex 992.3743101891495 4.891997007219351 0.9999999999999999
vertex 991.7607016475629 2.9230000694926175 0.9999999999999999
vertex 992.2534312316295 3.165987410145379 0.9999999999999999
endloop
endfacet
facet normal 0.0 0.0 1.0
outer loop
vertex 992.3743101891495 4.891997007219351 0.9999999999999999
vertex 992.2534312316295 3.165987410145379 0.9999999999999999
vertex 992.7736616581323 3.342581844012062 0.9999999999999999
endloop
endfacet
facet normal 0.0 0.0 1.0
outer loop
vertex 992.3743101891495 4.891997007219351 0.9999999999999999
vertex 992.7736616581323 3.342581844012062 0.9999999999999999
vertex 993.118795939855 5.038047319668333 0.9999999999999999
endloop
endfacet
facet normal 0.0 0.0 1.0
outer loop
vertex 993.118795939855 5.038047319668333 0.9999999999999999
vertex 992.7736616581323 3.342581844012062 0.9999999999999999
vertex 993.3124916402387 3.449761791367979 0.9999999999999999
endloop
endfacet
facet normal 0.0 0.0 1.0
outer loop
vertex 993.118795939855 5.038047319668333 0.9999999999999999
vertex 993.3124916402387 3.449761791367979 0.9999999999999999
vertex 993.8759759029145 5.085673261246235 0.9999999999999999
endloop
endfacet
facet normal 0.0 0.0 1.0
outer loop
vertex 993.8759759029145 5.085673261246235 0.9999999999999999
vertex 993.3124916402387 3.449761791367979 0.9999999999999999
vertex 993.8607016475629 3.4856933735979756 0.9999999999999999
endloop
endfacet
facet normal 0.0 0.0 1.0
outer loop
vertex 993.8759759029145 5.085673261246235 0.9999999999999999
vertex 993.8607016475629 3.4856933735979756 0.9999999999999999
vertex 994.4089116548871 3.449761791367979 0.9999999999999999
endloop
endfacet
facet normal 0.0 0.0 1.0
outer loop
vertex 993.8759759029145 5.085673261246235 0.9999999999999999
vertex 994.4089116548871 3.449761791367979 0.9999999999999999
vertex 994.6328945192301 5.034059938888252 0.9999999999999999
endloop
endfacet
facet normal 0.0 0.0 1.0
outer loop
vertex 994.6328945192301 5.034059938888252 0.9999999999999999
vertex 994.4089116548871 3.449761791367979 0.9999999999999999
vertex 994.9477416369936 3.342581844012062 0.9999999999999999
endloop
endfacet
facet normal 0.0 0.0 1.0
outer loop
vertex 994.6328945192301 5.034059938888252 0.9999999999999999
vertex 994.9477416369936 3.342581844012062 0.9999999999999999
vertex 995.3766007014193 4.884090470849846 0.9999999999999999
endloop
endfacet
facet normal 0.0 0.0 1.0
outer loop
vertex 995.3766007014193 4.884090470849846 0.9999999999999999
vertex 994.9477416369936 3.342581844012062 0.9999999999999999
vertex 995.4679720634963 3.165987410145379 0.9999999999999999
endloop
endfacet
facet normal 0.0 0.0 1.0
outer loop
vertex 995.3766007014193 4.884090470849846 0.9999999999999999
vertex 995.4679720634963 3.165987410145379 0.9999999999999999
vertex 996.0943694305104 4.638330876308545 0.9999999999999999
endloop
endfacet
facet normal 0.0 0.0 1.0
outer loop
vertex 996.0943694305104 4.638330876308545 0.9999999999999999
vertex 995.4679720634963 3.165987410145379 0.9999999999999999
vertex 995.9607016475629 2.9230000694926175 0.9999999999999999
endloop
endfacet
facet normal 0.0 0.0 1.0
outer loop
vertex 996.0943694305104 4.638330876308545 0.9999999999999999
vertex 995.9607016475629 2.9230000694926175 0.9999999999999999
vertex 996.4174996493996 2.6177774028211616 0.9999999999999999
endloop
endfacet
facet normal 0.0 0.0 1.0
outer loop
vertex 996.0943694305104 4.638330876308545 0.9999999999999999
vertex 996.4174996493996 2.6177774028211616 0.9999999999999999
vertex 996.7739194845456 4.300986170064383 0.9999999999999999
endloop
endfacet
facet normal 0.0 0.0 1.0
outer loop
vertex 996.7739194845456 4.300986170064383 0.9999999999999999
vertex 996.4174996493996 2.6177774028211616 0.9999999999999999
vertex 996.8305501285464 2.2555418545814754 0.9999999999999999
endloop
endfacet
facet normal 0.0 0.0 1.0
outer loop
vertex 996.7739194845456 4.300986170064383 0.9999999999999999
vertex 996.8305501285464 2.2555418545814754 0.9999999999999999
vertex 997.4036235736932 3.8778284135708216 0.9999999999999999
endloop
endfacet
facet normal 0.0 0.0 1.0
outer loop
vertex 997.4036235736932 3.8778284135708216 0.9999999999999999
vertex 996.8305501285464 2.2555418545814754 0.9999999999999999
vertex 997.1927856767861 1.8424913754346008 0.9999999999999999
endloop
endfacet
facet normal 0.0 0.0 1.0
outer loop
vertex 997.4036235736932 3.8778284135708216 0.9999999999999999
vertex 997.1927856767861 1.8424913754346008 0.9999999999999999
vertex 997.4980083434575 1.385693373597974 0.9999999999999999
endloop
endfacet
facet normal 0.0 0.0 1.0
outer loop
vertex 997.4036235736932 3.8778284135708216 0.9999999999999999
vertex 997.4980083434575 1.385693373597974 0.9999999999999999
vertex 997.9727072864013 3.37609795336296 0.9999999999999999
endloop
endfacet
facet normal 0.0 0.0 1.0
outer loop
vertex 997.9727072864013 3.37609795336296 0.9999999999999999
vertex 997.4980083434575 1.385693373597974 0.9999999999999999
vertex 997.7409956841103 0.8929637895313517 0.9999999999999999
endloop
endfacet
facet normal 0.0 0.0 1.0
outer loop
vertex 997.9727072864013 3.37609795336296 0.9999999999999999
vertex 997.7409956841103 0.8929637895313517 0.9999999999999999
vertex 997.917590117977 0.37273336302856164 0.9999999999999999
endloop
endfacet
facet normal 0.0 0.0 1.0
outer loop
vertex 997.9727072864013 3.37609795336296 0.9999999999999999
vertex 997.917590117977 0.37273336302856164 0.9999999999999999
vertex 998.024770065333 -0.16609661907780807 0.9999999999999999
endloop
endfacet
facet normal 0.0 0.0 1.0
outer loop
vertex 997.9727072864013 3.37609795336296 0.9999999999999999
vertex 998.024770065333 -0.16609661907780807 0.9999999999999999
vertex 998.4714334425655 2.8043795367209174 0.9999999999999999
endloop
endfacet
facet normal 0.0 0.0 1.0
outer loop
vertex 998.4714334425655 2.8043795367209174 0.9999999999999999
vertex 998.024770065333 -0.16609661907780807 0.9999999999999999
vertex 998.0607016475628 -0.7143066264020447 0.9999999999999999
endloop
endfacet
facet normal 0.0 0.0 1.0
outer loop
vertex 998.4714334425655 2.8043795367209174 0.9999999999999999
vertex 998.0607016475628 -0.7143066264020447 0.9999999999999999
vertex 998.4528366875358 -4.257228552532274 0.9999999999999999
endloop
endfacet
facet normal 0.0 0.0 1.0
outer loop
vertex 998.4714334425655 2.8043795367209174 0.9999999999999999
vertex 998.4528366875358 -4.257228552532274 0.9999999999999999
vertex 998.8759944440293 -3.6275244633845345 0.9999999999999999
endloop
endfacet
facet normal 0.0 0.0 1.0
outer loop
vertex 998.4714334425655 2.8043795367209174 0.9999999999999999
vertex 998.8759944440293 -3.6275244633845345 0.9999999999999999
vertex 998.8912686993809 2.1724554242637306 0.9999999999999999
endloop
endfacet
facet normal 0.0 0.0 1.0
outer loop
vertex 998.8912686993809 2.1724554242637306 0.9999999999999999
vertex 998.8759944440293 -3.6275244633845345 0.9999999999999999
vertex 999.2133391502736 -2.947974409349443 0.9999999999999999
endloop
endfacet
facet normal 0.0 0.0 1.0
outer loop
vertex 998.8912686993809 2.1724554242637306 0.9999999999999999
vertex 999.2133391502736 -2.947974409349443 0.9999999999999999
vertex 999.225029559203 1.4911380127580065 0.9999999999999999
endloop
endfacet
facet normal 0.0 0.0 1.0
outer loop
vertex 999.225029559203 1.4911380127580065 0.9999999999999999
vertex 999.2133391502736 -2.947974409349443 0.9999999999999999
vertex 999.4590987448149 -2.230205680258418 0.9999999999999999
endloop
endfacet
facet normal 0.0 0.0 1.0
outer loop
vertex 999.225029559203 1.4911380127580065 0.9999999999999999
vertex 999.4590987448149 -2.230205680258418 0.9999999999999999
vertex 999.4670052811842 0.7720848320114746 0.9999999999999999
endloop
endfacet
facet normal 0.0 0.0 1.0
outer loop
vertex 999.4670052811842 0.7720848320114746 0.9999999999999999
vertex 999.4590987448149 -2.230205680258418 0.9999999999999999
vertex 999.6090682128531 -1.4864994980692914 0.9999999999999999
endloop
endfacet
facet normal 0.0 0.0 1.0
outer loop
vertex 999.4670052811842 0.7720848320114746 0.9999999999999999
vertex 999.6090682128531 -1.4864994980692914 0.9999999999999999
vertex 999.6130555936332 0.027599081305926518 0.9999999999999999
endloop
endfacet
facet normal 0.0 0.0 1.0
outer loop
vertex 999.6130555936332 0.027599081305926518 0.9999999999999999
vertex 999.6090682128531 -1.4864994980692914 0.9999999999999999
vertex 999.6606815352112 -0.729580881753627 0.9999999999999999
endloop
endfacet
facet normal -0.9914448613738168 0.13052619222000356 0.0
outer loop
vertex 998.024770065333 -1.262516633726261 0.9999999999999999
vertex 997.917590117977 -1.80134661583263 0.0
vertex 997.917590117977 -1.80134661583263 0.9999999999999999
endloop
endfacet
facet normal -0.9659258262890529 0.2588190451025784 0.0
outer loop
vertex 997.917590117977 -1.80134661583263 0.0
vertex 998.024770065333 -1.262516633726261 0.9999999999999999
vertex 998.024770065333 -1.262516633726261 0.0
endloop
endfacet
facet normal -1.0 1.2085479105679204e-15 0.0
outer loop
vertex 998.0607016475628 -0.7143066264020447 0.9999999999999999
vertex 998.024770065333 -1.262516633726261 0.0
vertex 998.024770065333 -1.262516633726261 0.9999999999999999
endloop
endfacet
facet normal -0.9914448613738168 0.13052619222000356 0.0
outer loop
vertex 998.024770065333 -1.262516633726261 0.0
vertex 998.0607016475628 -0.7143066264020447 0.9999999999999999
vertex 998.0607016475628 -0.7143066264020447 0.0
endloop
endfacet
facet normal -0.7933533402912104 -0.6087614290087532 0.0
outer loop
vertex 997.1927856767861 1.8424913754346008 0.9999999999999999
vertex 997.4980083434575 1.385693373597974 0.0
vertex 997.4980083434575 1.385693373597974 0.9999999999999999
endloop
endfacet
facet normal -0.8660254037844528 -0.4999999999999754 0.0
outer loop
vertex 997.4980083434575 1.385693373597974 0.0
vertex 997.1927856767861 1.8424913754346008 0.9999999999999999
vertex 997.1927856767861 1.8424913754346008 0.0
endloop
endfacet
facet normal 0.49771759494232065 -0.8673391468651881 0.0
outer loop
vertex 996.7474636982287 -5.744873678220033 0.9999999999999999
vertex 996.0661462867229 -6.078634538042136 0.0
vertex 996.7474636982287 -5.744873678220033 0.0
endloop
endfacet
facet normal 0.3802490757172233 -0.9248841226965665 0.0
outer loop
vertex 996.0661462867229 -6.078634538042136 0.0
vertex 996.7474636982287 -5.744873678220033 0.9999999999999999
vertex 996.0661462867229 -6.078634538042136 0.9999999999999999
endloop
endfacet
facet normal -0.13052619222003758 -0.9914448613738123 0.0
outer loop
vertex 994.4089116548871 3.449761791367979 0.9999999999999999
vertex 993.8607016475629 3.4856933735979756 0.0
vertex 994.4089116548871 3.449761791367979 0.0
endloop
endfacet
facet normal 0.0 -1.0 0.0
outer loop
vertex 993.8607016475629 3.4856933735979756 0.0
vertex 994.4089116548871 3.449761791367979 0.9999999999999999
vertex 993.8607016475629 3.4856933735979756 0.9999999999999999
endloop
endfacet
facet normal 0.0 -1.0 0.0
outer loop
vertex 993.8607016475629 3.4856933735979756 0.9999999999999999
vertex 993.3124916402387 3.449761791367979 0.0
vertex 993.8607016475629 3.4856933735979756 0.0
endloop
endfacet
facet normal 0.13052619222003758 -0.9914448613738123 0.0
outer loop
vertex 993.3124916402387 3.449761791367979 0.0
vertex 993.8607016475629 3.4856933735979756 0.9999999999999999
vertex 993.3124916402387 3.449761791367979 0.9999999999999999
endloop
endfacet
facet normal 0.7071067811865575 -0.7071067811865376 0.0
outer loop
vertex 990.8908531665795 2.2555418545814754 0.0
vertex 990.5286176183397 1.8424913754346024 0.9999999999999999
vertex 990.5286176183397 1.8424913754346024 0.0
endloop
endfacet
facet normal 0.7933533402912099 -0.6087614290087539 0.0
outer loop
vertex 990.5286176183397 1.8424913754346024 0.9999999999999999
vertex 990.8908531665795 2.2555418545814754 0.0
vertex 990.8908531665795 2.2555418545814754 0.9999999999999999
endloop
endfacet
facet normal 0.7933533402912099 -0.6087614290087539 0.0
outer loop
vertex 990.5286176183397 1.8424913754346024 0.0
vertex 990.2233949516683 1.3856933735979768 0.9999999999999999
vertex 990.2233949516683 1.3856933735979768 0.0
endloop
endfacet
facet normal 0.8660254037844528 -0.4999999999999758 0.0
outer loop
vertex 990.2233949516683 1.3856933735979768 0.9999999999999999
vertex 990.5286176183397 1.8424913754346024 0.0
vertex 990.5286176183397 1.8424913754346024 0.9999999999999999
endloop
endfacet
facet normal 0.8660254037844528 -0.4999999999999758 0.0
outer loop
vertex 990.2233949516683 1.3856933735979768 0.0
vertex 989.9804076110155 0.8929637895313545 0.9999999999999999
vertex 989.9804076110155 0.8929637895313545 0.0
endloop
endfacet
facet normal 0.9238795325112881 -0.38268343236508695 0.0
outer loop
vertex 989.9804076110155 0.8929637895313545 0.9999999999999999
vertex 990.2233949516683 1.3856933735979768 0.0
vertex 990.2233949516683 1.3856933735979768 0.9999999999999999
endloop
endfacet
facet normal 0.9238795325112881 -0.38268343236508695 0.0
outer loop
vertex 989.9804076110155 0.8929637895313545 0.0
vertex 989.8038131771489 0.3727333630285644 0.9999999999999999
vertex 989.8038131771489 0.3727333630285644 0.0
endloop
endfacet
facet normal 0.9659258262890531 -0.2588190451025782 0.0
outer loop
vertex 989.8038131771489 0.3727333630285644 0.9999999999999999
vertex 989.9804076110155 0.8929637895313545 0.0
vertex 989.9804076110155 0.8929637895313545 0.9999999999999999
endloop
endfacet
facet normal 0.9659258262890531 -0.2588190451025782 0.0
outer loop
vertex 989.8038131771489 0.3727333630285644 0.0
vertex 989.6966332297928 -0.16609661907780454 0.9999999999999999
vertex 989.6966332297928 -0.16609661907780454 0.0
endloop
endfacet
facet normal 0.9914448613738168 -0.13052619222000347 0.0
outer loop
vertex 989.6966332297928 -0.16609661907780454 0.9999999999999999
vertex 989.8038131771489 0.3727333630285644 0.0
vertex 989.8038131771489 0.3727333630285644 0.9999999999999999
endloop
endfacet
facet normal 0.9914448613738168 -0.13052619222000347 0.0
outer loop
vertex 989.6966332297928 -0.16609661907780454 0.0
vertex 989.660701647563 -0.7143066264020208 0.9999999999999999
vertex 989.660701647563 -0.7143066264020208 0.0
endloop
endfacet
facet normal 1.0 0.0 0.0
outer loop
vertex 989.660701647563 -0.7143066264020208 0.9999999999999999
vertex 989.6966332297928 -0.16609661907780454 0.0
vertex 989.6966332297928 -0.16609661907780454 0.9999999999999999
endloop
endfacet
facet normal 1.0 0.0 0.0
outer loop
vertex 989.660701647563 -0.7143066264020208 0.0
vertex 989.6966332297928 -1.262516633726237 0.9999999999999999
vertex 989.6966332297928 -1.262516633726237 0.0
endloop
endfacet
facet normal 0.9914448613738168 0.13052619222000347 0.0
outer loop
vertex 989.6966332297928 -1.262516633726237 0.9999999999999999
vertex 989.660701647563 -0.7143066264020208 0.0
vertex 989.660701647563 -0.7143066264020208 0.9999999999999999
endloop
endfacet
facet normal 0.8673391468651634 0.49771759494236334 0.0
outer loop
vertex 998.8912686993809 2.1724554242637306 0.0
vertex 999.225029559203 1.4911380127580065 0.9999999999999999
vertex 999.225029559203 1.4911380127580065 0.0
endloop
endfacet
facet normal 0.9248841226965725 0.38024907571720873 0.0
outer loop
vertex 999.225029559203 1.4911380127580065 0.9999999999999999
vertex 998.8912686993809 2.1724554242637306 0.0
vertex 998.8912686993809 2.1724554242637306 0.9999999999999999
endloop
endfacet
facet normal -0.6087614290087766 -0.7933533402911924 0.0
outer loop
vertex 996.4174996493996 2.6177774028211616 0.9999999999999999
vertex 995.9607016475629 2.9230000694926175 0.0
vertex 996.4174996493996 2.6177774028211616 0.0
endloop
endfacet
facet normal -0.49999999999998335 -0.8660254037844485 0.0
outer loop
vertex 995.9607016475629 2.9230000694926175 0.0
vertex 996.4174996493996 2.6177774028211616 0.9999999999999999
vertex 995.9607016475629 2.9230000694926175 0.9999999999999999
endloop
endfacet
facet normal 0.3802490757172233 -0.9248841226965665 0.0
outer loop
vertex 996.0661462867229 -6.078634538042136 0.9999999999999999
vertex 995.3470931059763 -6.320610260023402 0.0
vertex 996.0661462867229 -6.078634538042136 0.0
endloop
endfacet
facet normal 0.25627438938164665 -0.9666040747622908 0.0
outer loop
vertex 995.3470931059763 -6.320610260023402 0.0
vertex 996.0661462867229 -6.078634538042136 0.9999999999999999
vertex 995.3470931059763 -6.320610260023402 0.9999999999999999
endloop
endfacet
facet normal 0.25881904510252224 -0.9659258262890679 0.0
outer loop
vertex 992.7736616581323 3.342581844012062 0.9999999999999999
vertex 992.2534312316295 3.165987410145379 0.0
vertex 992.7736616581323 3.342581844012062 0.0
endloop
endfacet
facet normal 0.3826834323650815 -0.9238795325112904 0.0
outer loop
vertex 992.2534312316295 3.165987410145379 0.0
vertex 992.7736616581323 3.342581844012062 0.9999999999999999
vertex 992.2534312316295 3.165987410145379 0.9999999999999999
endloop
endfacet
facet normal 0.25627438938164665 -0.9666040747622908 0.0
outer loop
vertex 995.3470931059763 -6.320610260023402 0.9999999999999999
vertex 994.6026073552708 -6.466660572472383 0.0
vertex 995.3470931059763 -6.320610260023402 0.0
endloop
endfacet
facet normal 0.12791477719103528 -0.991785163115565 0.0
outer loop
vertex 994.6026073552708 -6.466660572472383 0.0
vertex 995.3470931059763 -6.320610260023402 0.9999999999999999
vertex 994.6026073552708 -6.466660572472383 0.9999999999999999
endloop
endfacet
facet normal -0.7949537577590664 -0.6066700281246302 0.0
outer loop
vertex 989.2499698525603 -4.232992789524965 0.9999999999999999
vertex 989.7486960087246 -4.804711206167007 0.0
vertex 989.7486960087246 -4.804711206167007 0.9999999999999999
endloop
endfacet
facet normal -0.7089664894548802 -0.7052421689249894 0.0
outer loop
vertex 989.7486960087246 -4.804711206167007 0.0
vertex 989.2499698525603 -4.232992789524965 0.9999999999999999
vertex 989.2499698525603 -4.232992789524965 0.0
endloop
endfacet
facet normal -0.0026334923019995407 -0.9999965323531353 0.0
outer loop
vertex 993.8454273922114 -6.514286514050285 0.9999999999999999
vertex 993.0885087758957 -6.462673191692301 0.0
vertex 993.8454273922114 -6.514286514050285 0.0
endloop
endfacet
facet normal -0.13313670201159336 -0.991097683670725 0.0
outer loop
vertex 993.0885087758957 -6.462673191692301 0.0
vertex 993.8454273922114 -6.514286514050285 0.9999999999999999
vertex 993.0885087758957 -6.462673191692301 0.9999999999999999
endloop
endfacet
facet normal -0.13313670201159336 -0.991097683670725 0.0
outer loop
vertex 993.0885087758957 -6.462673191692301 0.9999999999999999
vertex 992.3448025937065 -6.312703723653895 0.0
vertex 993.0885087758957 -6.462673191692301 0.0
endloop
endfacet
facet normal -0.2613619058372935 -0.9652408788365202 0.0
outer loop
vertex 992.3448025937065 -6.312703723653895 0.0
vertex 993.0885087758957 -6.462673191692301 0.9999999999999999
vertex 992.3448025937065 -6.312703723653895 0.9999999999999999
endloop
endfacet
facet normal -0.2613619058372935 -0.9652408788365202 0.0
outer loop
vertex 992.3448025937065 -6.312703723653895 0.9999999999999999
vertex 991.6270338646154 -6.066944129112594 0.0
vertex 992.3448025937065 -6.312703723653895 0.0
endloop
endfacet
facet normal -0.3851151349909171 -0.9228685349500914 0.0
outer loop
vertex 991.6270338646154 -6.066944129112594 0.0
vertex 992.3448025937065 -6.312703723653895 0.9999999999999999
vertex 991.6270338646154 -6.066944129112594 0.9999999999999999
endloop
endfacet
facet normal -0.3851151349909171 -0.9228685349500914 0.0
outer loop
vertex 991.6270338646154 -6.066944129112594 0.9999999999999999
vertex 990.9474838105804 -5.729599422868432 0.0
vertex 991.6270338646154 -6.066944129112594 0.0
endloop
endfacet
facet normal -0.5022789374107914 -0.8647056545631504 0.0
outer loop
vertex 990.9474838105804 -5.729599422868432 0.0
vertex 991.6270338646154 -6.066944129112594 0.9999999999999999
vertex 990.9474838105804 -5.729599422868432 0.9999999999999999
endloop
endfacet
facet normal -0.5022789374107914 -0.8647056545631504 0.0
outer loop
vertex 990.9474838105804 -5.729599422868432 0.9999999999999999
vertex 990.3177797214327 -5.306441666374871 0.0
vertex 990.9474838105804 -5.729599422868432 0.0
endloop
endfacet
facet normal -0.610848607953509 -0.7917474206849432 0.0
outer loop
vertex 990.3177797214327 -5.306441666374871 0.0
vertex 990.9474838105804 -5.729599422868432 0.9999999999999999
vertex 990.3177797214327 -5.306441666374871 0.9999999999999999
endloop
endfacet
facet normal -0.610848607953509 -0.7917474206849432 0.0
outer loop
vertex 990.3177797214327 -5.306441666374871 0.9999999999999999
vertex 989.7486960087246 -4.804711206167007 0.0
vertex 990.3177797214327 -5.306441666374871 0.0
endloop
endfacet
facet normal -0.7089664894548802 -0.7052421689249894 0.0
outer loop
vertex 989.7486960087246 -4.804711206167007 0.0
vertex 990.3177797214327 -5.306441666374871 0.9999999999999999
vertex 989.7486960087246 -4.804711206167007 0.9999999999999999
endloop
endfacet
facet normal -0.8673391468651633 -0.49771759494236384 0.0
outer loop
vertex 988.830134595745 -3.6010686770677793 0.9999999999999999
vertex 989.2499698525603 -4.232992789524965 0.0
vertex 989.2499698525603 -4.232992789524965 0.9999999999999999
endloop
endfacet
facet normal -0.7949537577590664 -0.6066700281246302 0.0
outer loop
vertex 989.2499698525603 -4.232992789524965 0.0
vertex 988.830134595745 -3.6010686770677793 0.9999999999999999
vertex 988.830134595745 -3.6010686770677793 0.0
endloop
endfacet
facet normal -0.924884122696572 -0.3802490757172098 0.0
outer loop
vertex 988.4963737359228 -2.9197512655620557 0.9999999999999999
vertex 988.830134595745 -3.6010686770677793 0.0
vertex 988.830134595745 -3.6010686770677793 0.9999999999999999
endloop
endfacet
facet normal -0.8673391468651633 -0.49771759494236384 0.0
outer loop
vertex 988.830134595745 -3.6010686770677793 0.0
vertex 988.4963737359228 -2.9197512655620557 0.9999999999999999
vertex 988.4963737359228 -2.9197512655620557 0.0
endloop
endfacet
facet normal -0.9999965323531352 0.002633492302025654 0.0
outer loop
vertex 988.0607217599146 -0.6990323710504258 0.9999999999999999
vertex 988.1083477014926 -1.4562123341099793 0.0
vertex 988.1083477014926 -1.4562123341099793 0.9999999999999999
endloop
endfacet
facet normal -0.9917851631155544 -0.12791477719111702 0.0
outer loop
vertex 988.1083477014926 -1.4562123341099793 0.0
vertex 988.0607217599146 -0.6990323710504258 0.9999999999999999
vertex 988.0607217599146 -0.6990323710504258 0.0
endloop
endfacet
facet normal 0.606670028124607 -0.7949537577590841 0.0
outer loop
vertex 997.3793878106859 -5.32503842140464 0.9999999999999999
vertex 996.7474636982287 -5.744873678220033 0.0
vertex 997.3793878106859 -5.32503842140464 0.0
endloop
endfacet
facet normal 0.49771759494232065 -0.8673391468651881 0.0
outer loop
vertex 996.7474636982287 -5.744873678220033 0.0
vertex 997.3793878106859 -5.32503842140464 0.9999999999999999
vertex 996.7474636982287 -5.744873678220033 0.9999999999999999
endloop
endfacet
facet normal 0.9914448613738168 0.13052619222000347 0.0
outer loop
vertex 989.6966332297928 -1.262516633726237 0.0
vertex 989.8038131771489 -1.8013466158326066 0.9999999999999999
vertex 989.8038131771489 -1.8013466158326066 0.0
endloop
endfacet
facet normal 0.9659258262890531 0.25881904510257797 0.0
outer loop
vertex 989.8038131771489 -1.8013466158326066 0.9999999999999999
vertex 989.6966332297928 -1.262516633726237 0.0
vertex 989.6966332297928 -1.262516633726237 0.9999999999999999
endloop
endfacet
facet normal 0.9659258262890531 0.25881904510257797 0.0
outer loop
vertex 989.8038131771489 -1.8013466158326066 0.0
vertex 989.9804076110155 -2.321577042335396 0.9999999999999999
vertex 989.9804076110155 -2.321577042335396 0.0
endloop
endfacet
facet normal 0.9238795325112882 0.3826834323650866 0.0
outer loop
vertex 989.9804076110155 -2.321577042335396 0.9999999999999999
vertex 989.8038131771489 -1.8013466158326066 0.0
vertex 989.8038131771489 -1.8013466158326066 0.9999999999999999
endloop
endfacet
facet normal 0.9238795325112882 0.3826834323650866 0.0
outer loop
vertex 989.9804076110155 -2.321577042335396 0.0
vertex 990.2233949516683 -2.814306626402019 0.9999999999999999
vertex 990.2233949516683 -2.814306626402019 0.0
endloop
endfacet
facet normal 0.8660254037844529 0.4999999999999757 0.0
outer loop
vertex 990.2233949516683 -2.814306626402019 0.9999999999999999
vertex 989.9804076110155 -2.321577042335396 0.0
vertex 989.9804076110155 -2.321577042335396 0.9999999999999999
endloop
endfacet
facet normal 0.8660254037844529 0.4999999999999757 0.0
outer loop
vertex 990.2233949516683 -2.814306626402019 0.0
vertex 990.5286176183397 -3.2711046282386453 0.9999999999999999
vertex 990.5286176183397 -3.2711046282386453 0.0
endloop
endfacet
facet normal 0.7933533402912102 0.6087614290087532 0.0
outer loop
vertex 990.5286176183397 -3.2711046282386453 0.9999999999999999
vertex 990.2233949516683 -2.814306626402019 0.0
vertex 990.2233949516683 -2.814306626402019 0.9999999999999999
endloop
endfacet
facet normal 0.7933533402912102 0.6087614290087532 0.0
outer loop
vertex 990.5286176183397 -3.2711046282386453 0.0
vertex 990.8908531665795 -3.6841551073855188 0.9999999999999999
vertex 990.8908531665795 -3.6841551073855188 0.0
endloop
endfacet
facet normal 0.7071067811865586 0.7071067811865366 0.0
outer loop
vertex 990.8908531665795 -3.6841551073855188 0.9999999999999999
vertex 990.5286176183397 -3.2711046282386453 0.0
vertex 990.5286176183397 -3.2711046282386453 0.9999999999999999
endloop
endfacet
facet normal 0.7071067811865586 0.7071067811865366 0.0
outer loop
vertex 990.8908531665795 -3.6841551073855188 0.9999999999999999
vertex 991.3039036457262 -4.046390655625208 0.0
vertex 990.8908531665795 -3.6841551073855188 0.0
endloop
endfacet
facet normal 0.6087614290087769 0.7933533402911921 0.0
outer loop
vertex 991.3039036457262 -4.046390655625208 0.0
vertex 990.8908531665795 -3.6841551073855188 0.9999999999999999
vertex 991.3039036457262 -4.046390655625208 0.9999999999999999
endloop
endfacet
facet normal 0.6087614290087769 0.7933533402911921 0.0
outer loop
vertex 991.3039036457262 -4.046390655625208 0.9999999999999999
vertex 991.7607016475629 -4.351613322296663 0.0
vertex 991.3039036457262 -4.046390655625208 0.0
endloop
endfacet
facet normal 0.49999999999998335 0.8660254037844484 0.0
outer loop
vertex 991.7607016475629 -4.351613322296663 0.0
vertex 991.3039036457262 -4.046390655625208 0.9999999999999999
vertex 991.7607016475629 -4.351613322296663 0.9999999999999999
endloop
endfacet
facet normal 0.49999999999998335 0.8660254037844484 0.0
outer loop
vertex 991.7607016475629 -4.351613322296663 0.9999999999999999
vertex 992.2534312316295 -4.594600662949426 0.0
vertex 991.7607016475629 -4.351613322296663 0.0
endloop
endfacet
facet normal 0.38268343236508257 0.92387953251129 0.0
outer loop
vertex 992.2534312316295 -4.594600662949426 0.0
vertex 991.7607016475629 -4.351613322296663 0.9999999999999999
vertex 992.2534312316295 -4.594600662949426 0.9999999999999999
endloop
endfacet
facet normal -0.9652408788365336 0.26136190583724356 0.0
outer loop
vertex 988.262304550311 0.8015924274543678 0.9999999999999999
vertex 988.1123350822727 0.057886245265241415 0.0
vertex 988.1123350822727 0.057886245265241415 0.9999999999999999
endloop
endfacet
facet normal -0.9910976836707267 0.13313670201158068 0.0
outer loop
vertex 988.1123350822727 0.057886245265241415 0.0
vertex 988.262304550311 0.8015924274543678 0.9999999999999999
vertex 988.262304550311 0.8015924274543678 0.0
endloop
endfacet
facet normal 0.13052619222003758 -0.9914448613738123 0.0
outer loop
vertex 993.3124916402387 3.449761791367979 0.9999999999999999
vertex 992.7736616581323 3.342581844012062 0.0
vertex 993.3124916402387 3.449761791367979 0.0
endloop
endfacet
facet normal 0.25881904510252224 -0.9659258262890679 0.0
outer loop
vertex 992.7736616581323 3.342581844012062 0.0
vertex 993.3124916402387 3.449761791367979 0.9999999999999999
vertex 992.7736616581323 3.342581844012062 0.9999999999999999
endloop
endfacet
facet normal -0.9228685349500606 0.3851151349909908 0.0
outer loop
vertex 988.5080641448524 1.5193611565453924 0.9999999999999999
vertex 988.262304550311 0.8015924274543678 0.0
vertex 988.262304550311 0.8015924274543678 0.9999999999999999
endloop
endfacet
facet normal -0.9652408788365336 0.26136190583724356 0.0
outer loop
vertex 988.262304550311 0.8015924274543678 0.0
vertex 988.5080641448524 1.5193611565453924 0.9999999999999999
vertex 988.5080641448524 1.5193611565453924 0.0
endloop
endfacet
facet normal -0.8647056545631587 0.502278937410777 0.0
outer loop
vertex 988.8454088510965 2.198911210580481 0.9999999999999999
vertex 988.5080641448524 1.5193611565453924 0.0
vertex 988.5080641448524 1.5193611565453924 0.9999999999999999
endloop
endfacet
facet normal -0.9228685349500606 0.3851151349909908 0.0
outer loop
vertex 988.5080641448524 1.5193611565453924 0.0
vertex 988.8454088510965 2.198911210580481 0.9999999999999999
vertex 988.8454088510965 2.198911210580481 0.0
endloop
endfacet
facet normal 0.8647056545631591 -0.5022789374107766 0.0
outer loop
vertex 998.8759944440293 -3.6275244633845345 0.0
vertex 998.4528366875358 -4.257228552532274 0.9999999999999999
vertex 998.4528366875358 -4.257228552532274 0.0
endloop
endfacet
facet normal 0.7917474206849952 -0.6108486079534418 0.0
outer loop
vertex 998.4528366875358 -4.257228552532274 0.9999999999999999
vertex 998.8759944440293 -3.6275244633845345 0.0
vertex 998.8759944440293 -3.6275244633845345 0.9999999999999999
endloop
endfacet
facet normal -0.7917474206849955 0.6108486079534413 0.0
outer loop
vertex 989.2685666075901 2.828615299728223 0.9999999999999999
vertex 988.8454088510965 2.198911210580481 0.0
vertex 988.8454088510965 2.198911210580481 0.9999999999999999
endloop
endfacet
facet normal -0.8647056545631587 0.502278937410777 0.0
outer loop
vertex 988.8454088510965 2.198911210580481 0.0
vertex 989.2685666075901 2.828615299728223 0.9999999999999999
vertex 989.2685666075901 2.828615299728223 0.0
endloop
endfacet
facet normal -0.7052421689250122 0.7089664894548575 0.0
outer loop
vertex 989.7702970677979 3.397699012436342 0.9999999999999999
vertex 989.2685666075901 2.828615299728223 0.0
vertex 989.2685666075901 2.828615299728223 0.9999999999999999
endloop
endfacet
facet normal -0.7917474206849955 0.6108486079534413 0.0
outer loop
vertex 989.2685666075901 2.828615299728223 0.0
vertex 989.7702970677979 3.397699012436342 0.9999999999999999
vertex 989.7702970677979 3.397699012436342 0.0
endloop
endfacet
facet normal -0.7052421689250122 0.7089664894548575 0.0
outer loop
vertex 989.7702970677979 3.397699012436342 0.9999999999999999
vertex 990.3420154844399 3.8964251686005875 0.0
vertex 989.7702970677979 3.397699012436342 0.0
endloop
endfacet
facet normal -0.6066700281246074 0.7949537577590838 0.0
outer loop
vertex 990.3420154844399 3.8964251686005875 0.0
vertex 989.7702970677979 3.397699012436342 0.9999999999999999
vertex 990.3420154844399 3.8964251686005875 0.9999999999999999
endloop
endfacet
facet normal -0.6066700281246074 0.7949537577590838 0.0
outer loop
vertex 990.3420154844399 3.8964251686005875 0.9999999999999999
vertex 990.9739395968971 4.316260425415982 0.0
vertex 990.3420154844399 3.8964251686005875 0.0
endloop
endfacet
facet normal -0.4977175949423214 0.8673391468651875 0.0
outer loop
vertex 990.9739395968971 4.316260425415982 0.0
vertex 990.3420154844399 3.8964251686005875 0.9999999999999999
vertex 990.9739395968971 4.316260425415982 0.9999999999999999
endloop
endfacet
facet normal -0.4977175949423214 0.8673391468651875 0.0
outer loop
vertex 990.9739395968971 4.316260425415982 0.9999999999999999
vertex 991.6552570084029 4.650021285238085 0.0
vertex 990.9739395968971 4.316260425415982 0.0
endloop
endfacet
facet normal -0.3802490757172233 0.9248841226965665 0.0
outer loop
vertex 991.6552570084029 4.650021285238085 0.0
vertex 990.9739395968971 4.316260425415982 0.9999999999999999
vertex 991.6552570084029 4.650021285238085 0.9999999999999999
endloop
endfacet
facet normal -0.3802490757172233 0.9248841226965665 0.0
outer loop
vertex 991.6552570084029 4.650021285238085 0.9999999999999999
vertex 992.3743101891495 4.891997007219351 0.0
vertex 991.6552570084029 4.650021285238085 0.0
endloop
endfacet
facet normal -0.25627438938164754 0.9666040747622905 0.0
outer loop
vertex 992.3743101891495 4.891997007219351 0.0
vertex 991.6552570084029 4.650021285238085 0.9999999999999999
vertex 992.3743101891495 4.891997007219351 0.9999999999999999
endloop
endfacet
facet normal -0.25627438938164754 0.9666040747622905 0.0
outer loop
vertex 992.3743101891495 4.891997007219351 0.9999999999999999
vertex 993.118795939855 5.038047319668333 0.0
vertex 992.3743101891495 4.891997007219351 0.0
endloop
endfacet
facet normal -0.12791477719103572 0.991785163115565 0.0
outer loop
vertex 993.118795939855 5.038047319668333 0.0
vertex 992.3743101891495 4.891997007219351 0.9999999999999999
vertex 993.118795939855 5.038047319668333 0.9999999999999999
endloop
endfacet
facet normal -0.12791477719103572 0.991785163115565 0.0
outer loop
vertex 993.118795939855 5.038047319668333 0.9999999999999999
vertex 993.8759759029145 5.085673261246235 0.0
vertex 993.118795939855 5.038047319668333 0.0
endloop
endfacet
facet normal 0.002633492301999545 0.9999965323531355 0.0
outer loop
vertex 993.8759759029145 5.085673261246235 0.0
vertex 993.118795939855 5.038047319668333 0.9999999999999999
vertex 993.8759759029145 5.085673261246235 0.9999999999999999
endloop
endfacet
facet normal 0.002633492301999545 0.9999965323531355 0.0
outer loop
vertex 993.8759759029145 5.085673261246235 0.9999999999999999
vertex 994.6328945192301 5.034059938888252 0.0
vertex 993.8759759029145 5.085673261246235 0.0
endloop
endfacet
facet normal 0.1331367020115929 0.991097683670725 0.0
outer loop
vertex 994.6328945192301 5.034059938888252 0.0
vertex 993.8759759029145 5.085673261246235 0.9999999999999999
vertex 994.6328945192301 5.034059938888252 0.9999999999999999
endloop
endfacet
facet normal 0.38268343236508257 0.92387953251129 0.0
outer loop
vertex 992.2534312316295 -4.594600662949426 0.9999999999999999
vertex 992.7736616581323 -4.771195096816109 0.0
vertex 992.2534312316295 -4.594600662949426 0.0
endloop
endfacet
facet normal 0.25881904510252407 0.9659258262890675 0.0
outer loop
vertex 992.7736616581323 -4.771195096816109 0.0
vertex 992.2534312316295 -4.594600662949426 0.9999999999999999
vertex 992.7736616581323 -4.771195096816109 0.9999999999999999
endloop
endfacet
facet normal 0.25881904510252407 0.9659258262890675 0.0
outer loop
vertex 992.7736616581323 -4.771195096816109 0.9999999999999999
vertex 993.3124916402387 -4.878375044172028 0.0
vertex 992.7736616581323 -4.771195096816109 0.0
endloop
endfacet
facet normal 0.13052619222004017 0.991444861373812 0.0
outer loop
vertex 993.3124916402387 -4.878375044172028 0.0
vertex 992.7736616581323 -4.771195096816109 0.9999999999999999
vertex 993.3124916402387 -4.878375044172028 0.9999999999999999
endloop
endfacet
facet normal 0.13052619222004017 0.991444861373812 0.0
outer loop
vertex 993.3124916402387 -4.878375044172028 0.9999999999999999
vertex 993.8607016475629 -4.914306626402025 0.0
vertex 993.3124916402387 -4.878375044172028 0.0
endloop
endfacet
facet normal 2.567610945528946e-15 1.0 0.0
outer loop
vertex 993.8607016475629 -4.914306626402025 0.0
vertex 993.3124916402387 -4.878375044172028 0.9999999999999999
vertex 993.8607016475629 -4.914306626402025 0.9999999999999999
endloop
endfacet
facet normal -0.7933533402912093 0.6087614290087546 0.0
outer loop
vertex 997.1927856767861 -3.271104628238665 0.9999999999999999
vertex 996.8305501285464 -3.6841551073855365 0.0
vertex 996.8305501285464 -3.6841551073855365 0.9999999999999999
endloop
endfacet
facet normal -0.7071067811865561 0.707106781186539 0.0
outer loop
vertex 996.8305501285464 -3.6841551073855365 0.0
vertex 997.1927856767861 -3.271104628238665 0.9999999999999999
vertex 997.1927856767861 -3.271104628238665 0.0
endloop
endfacet
facet normal -0.8660254037844524 0.4999999999999766 0.0
outer loop
vertex 997.4980083434575 -2.8143066264020393 0.9999999999999999
vertex 997.1927856767861 -3.271104628238665 0.0
vertex 997.1927856767861 -3.271104628238665 0.9999999999999999
endloop
endfacet
facet normal -0.7933533402912093 0.6087614290087546 0.0
outer loop
vertex 997.1927856767861 -3.271104628238665 0.0
vertex 997.4980083434575 -2.8143066264020393 0.9999999999999999
vertex 997.4980083434575 -2.8143066264020393 0.0
endloop
endfacet
facet normal -0.9238795325112878 0.3826834323650874 0.0
outer loop
vertex 997.7409956841103 -2.3215770423354187 0.9999999999999999
vertex 997.4980083434575 -2.8143066264020393 0.0
vertex 997.4980083434575 -2.8143066264020393 0.9999999999999999
endloop
endfacet
facet normal -0.8660254037844524 0.4999999999999766 0.0
outer loop
vertex 997.4980083434575 -2.8143066264020393 0.0
vertex 997.7409956841103 -2.3215770423354187 0.9999999999999999
vertex 997.7409956841103 -2.3215770423354187 0.0
endloop
endfacet
facet normal -0.9659258262890529 0.2588190451025784 0.0
outer loop
vertex 997.917590117977 -1.80134661583263 0.9999999999999999
vertex 997.7409956841103 -2.3215770423354187 0.0
vertex 997.7409956841103 -2.3215770423354187 0.9999999999999999
endloop
endfacet
facet normal -0.9238795325112878 0.3826834323650874 0.0
outer loop
vertex 997.7409956841103 -2.3215770423354187 0.0
vertex 997.917590117977 -1.80134661583263 0.9999999999999999
vertex 997.917590117977 -1.80134661583263 0.0
endloop
endfacet
facet normal -0.9666040747623014 -0.256274389381607 0.0
outer loop
vertex 988.2543980139416 -2.200698084815528 0.9999999999999999
vertex 988.4963737359228 -2.9197512655620557 0.0
vertex 988.4963737359228 -2.9197512655620557 0.9999999999999999
endloop
endfacet
facet normal -0.924884122696572 -0.3802490757172098 0.0
outer loop
vertex 988.4963737359228 -2.9197512655620557 0.0
vertex 988.2543980139416 -2.200698084815528 0.9999999999999999
vertex 988.2543980139416 -2.200698084815528 0.0
endloop
endfacet
facet normal -0.9917851631155544 -0.12791477719111702 0.0
outer loop
vertex 988.1083477014926 -1.4562123341099793 0.9999999999999999
vertex 988.2543980139416 -2.200698084815528 0.0
vertex 988.2543980139416 -2.200698084815528 0.9999999999999999
endloop
endfacet
facet normal -0.9666040747623014 -0.256274389381607 0.0
outer loop
vertex 988.2543980139416 -2.200698084815528 0.0
vertex 988.1083477014926 -1.4562123341099793 0.9999999999999999
vertex 988.1083477014926 -1.4562123341099793 0.0
endloop
endfacet
facet normal 0.7052421689250123 -0.7089664894548574 0.0
outer loop
vertex 997.951106227328 -4.826312265240393 0.9999999999999999
vertex 997.3793878106859 -5.32503842140464 0.0
vertex 997.951106227328 -4.826312265240393 0.0
endloop
endfacet
facet normal 0.606670028124607 -0.7949537577590841 0.0
outer loop
vertex 997.3793878106859 -5.32503842140464 0.0
vertex 997.951106227328 -4.826312265240393 0.9999999999999999
vertex 997.3793878106859 -5.32503842140464 0.9999999999999999
endloop
endfacet
facet normal 0.3826834323650815 -0.9238795325112904 0.0
outer loop
vertex 992.2534312316295 3.165987410145379 0.9999999999999999
vertex 991.7607016475629 2.9230000694926175 0.0
vertex 992.2534312316295 3.165987410145379 0.0
endloop
endfacet
facet normal 0.49999999999998235 -0.8660254037844488 0.0
outer loop
vertex 991.7607016475629 2.9230000694926175 0.0
vertex 992.2534312316295 3.165987410145379 0.9999999999999999
vertex 991.7607016475629 2.9230000694926175 0.9999999999999999
endloop
endfacet
facet normal 0.49999999999998235 -0.8660254037844488 0.0
outer loop
vertex 991.7607016475629 2.9230000694926175 0.9999999999999999
vertex 991.3039036457262 2.617777402821163 0.0
vertex 991.7607016475629 2.9230000694926175 0.0
endloop
endfacet
facet normal 0.608761429008776 -0.793353340291193 0.0
outer loop
vertex 991.3039036457262 2.617777402821163 0.0
vertex 991.7607016475629 2.9230000694926175 0.9999999999999999
vertex 991.3039036457262 2.617777402821163 0.9999999999999999
endloop
endfacet
facet normal -0.9910976836707267 0.13313670201158068 0.0
outer loop
vertex 988.1123350822727 0.057886245265241415 0.9999999999999999
vertex 988.0607217599146 -0.6990323710504258 0.0
vertex 988.0607217599146 -0.6990323710504258 0.9999999999999999
endloop
endfacet
facet normal -0.9999965323531352 0.002633492302025654 0.0
outer loop
vertex 988.0607217599146 -0.6990323710504258 0.0
vertex 988.1123350822727 0.057886245265241415 0.9999999999999999
vertex 988.1123350822727 0.057886245265241415 0.0
endloop
endfacet
facet normal -0.49999999999998335 -0.8660254037844485 0.0
outer loop
vertex 995.9607016475629 2.9230000694926175 0.9999999999999999
vertex 995.4679720634963 3.165987410145379 0.0
vertex 995.9607016475629 2.9230000694926175 0.0
endloop
endfacet
facet normal -0.3826834323650808 -0.9238795325112905 0.0
outer loop
vertex 995.4679720634963 3.165987410145379 0.0
vertex 995.9607016475629 2.9230000694926175 0.9999999999999999
vertex 995.4679720634963 3.165987410145379 0.9999999999999999
endloop
endfacet
facet normal -0.7071067811865579 -0.7071067811865372 0.0
outer loop
vertex 996.8305501285464 2.2555418545814754 0.9999999999999999
vertex 996.4174996493996 2.6177774028211616 0.0
vertex 996.8305501285464 2.2555418545814754 0.0
endloop
endfacet
facet normal -0.6087614290087766 -0.7933533402911924 0.0
outer loop
vertex 996.4174996493996 2.6177774028211616 0.0
vertex 996.8305501285464 2.2555418545814754 0.9999999999999999
vertex 996.4174996493996 2.6177774028211616 0.9999999999999999
endloop
endfacet
facet normal -0.2588190451025217 -0.9659258262890681 0.0
outer loop
vertex 994.9477416369936 3.342581844012062 0.9999999999999999
vertex 994.4089116548871 3.449761791367979 0.0
vertex 994.9477416369936 3.342581844012062 0.0
endloop
endfacet
facet normal -0.13052619222003758 -0.9914448613738123 0.0
outer loop
vertex 994.4089116548871 3.449761791367979 0.0
vertex 994.9477416369936 3.342581844012062 0.9999999999999999
vertex 994.4089116548871 3.449761791367979 0.9999999999999999
endloop
endfacet
facet normal -0.9238795325112882 -0.38268343236508656 0.0
outer loop
vertex 997.7409956841103 0.8929637895313517 0.9999999999999999
vertex 997.917590117977 0.37273336302856164 0.0
vertex 997.917590117977 0.37273336302856164 0.9999999999999999
endloop
endfacet
facet normal -0.9659258262890531 -0.2588190451025778 0.0
outer loop
vertex 997.917590117977 0.37273336302856164 0.0
vertex 997.7409956841103 0.8929637895313517 0.9999999999999999
vertex 997.7409956841103 0.8929637895313517 0.0
endloop
endfacet
facet normal -0.8660254037844528 -0.4999999999999754 0.0
outer loop
vertex 997.4980083434575 1.385693373597974 0.9999999999999999
vertex 997.7409956841103 0.8929637895313517 0.0
vertex 997.7409956841103 0.8929637895313517 0.9999999999999999
endloop
endfacet
facet normal -0.9238795325112882 -0.38268343236508656 0.0
outer loop
vertex 997.7409956841103 0.8929637895313517 0.0
vertex 997.4980083434575 1.385693373597974 0.9999999999999999
vertex 997.4980083434575 1.385693373597974 0.0
endloop
endfacet
facet normal -0.3826834323650808 -0.9238795325112905 0.0
outer loop
vertex 995.4679720634963 3.165987410145379 0.9999999999999999
vertex 994.9477416369936 3.342581844012062 0.0
vertex 995.4679720634963 3.165987410145379 0.0
endloop
endfacet
facet normal -0.2588190451025217 -0.9659258262890681 0.0
outer loop
vertex 994.9477416369936 3.342581844012062 0.0
vertex 995.4679720634963 3.165987410145379 0.9999999999999999
vertex 994.9477416369936 3.342581844012062 0.9999999999999999
endloop
endfacet
facet normal 0.9666040747623015 0.2562743893816061 0.0
outer loop
vertex 999.4670052811842 0.7720848320114746 0.0
vertex 999.6130555936332 0.027599081305926518 0.9999999999999999
vertex 999.6130555936332 0.027599081305926518 0.0
endloop
endfacet
facet normal 0.9917851631155544 0.12791477719111702 0.0
outer loop
vertex 999.6130555936332 0.027599081305926518 0.9999999999999999
vertex 999.4670052811842 0.7720848320114746 0.0
vertex 999.4670052811842 0.7720848320114746 0.9999999999999999
endloop
endfacet
facet normal 0.9248841226965725 0.38024907571720873 0.0
outer loop
vertex 999.225029559203 1.4911380127580065 0.0
vertex 999.4670052811842 0.7720848320114746 0.9999999999999999
vertex 999.4670052811842 0.7720848320114746 0.0
endloop
endfacet
facet normal 0.9666040747623015 0.2562743893816061 0.0
outer loop
vertex 999.4670052811842 0.7720848320114746 0.9999999999999999
vertex 999.225029559203 1.4911380127580065 0.0
vertex 999.225029559203 1.4911380127580065 0.9999999999999999
endloop
endfacet
facet normal 0.1331367020115929 0.991097683670725 0.0
outer loop
vertex 994.6328945192301 5.034059938888252 0.9999999999999999
vertex 995.3766007014193 4.884090470849846 0.0
vertex 994.6328945192301 5.034059938888252 0.0
endloop
endfacet
facet normal 0.261361905837293 0.9652408788365204 0.0
outer loop
vertex 995.3766007014193 4.884090470849846 0.0
vertex 994.6328945192301 5.034059938888252 0.9999999999999999
vertex 995.3766007014193 4.884090470849846 0.9999999999999999
endloop
endfacet
facet normal 0.261361905837293 0.9652408788365204 0.0
outer loop
vertex 995.3766007014193 4.884090470849846 0.9999999999999999
vertex 996.0943694305104 4.638330876308545 0.0
vertex 995.3766007014193 4.884090470849846 0.0
endloop
endfacet
facet normal 0.38511513499091704 0.9228685349500912 0.0
outer loop
vertex 996.0943694305104 4.638330876308545 0.0
vertex 995.3766007014193 4.884090470849846 0.9999999999999999
vertex 996.0943694305104 4.638330876308545 0.9999999999999999
endloop
endfacet
facet normal 0.38511513499091704 0.9228685349500912 0.0
outer loop
vertex 996.0943694305104 4.638330876308545 0.9999999999999999
vertex 996.7739194845456 4.300986170064383 0.0
vertex 996.0943694305104 4.638330876308545 0.0
endloop
endfacet
facet normal 0.5022789374107922 0.8647056545631499 0.0
outer loop
vertex 996.7739194845456 4.300986170064383 0.0
vertex 996.0943694305104 4.638330876308545 0.9999999999999999
vertex 996.7739194845456 4.300986170064383 0.9999999999999999
endloop
endfacet
facet normal 0.5022789374107922 0.8647056545631499 0.0
outer loop
vertex 996.7739194845456 4.300986170064383 0.9999999999999999
vertex 997.4036235736932 3.8778284135708216 0.0
vertex 996.7739194845456 4.300986170064383 0.0
endloop
endfacet
facet normal 0.6108486079535085 0.7917474206849435 0.0
outer loop
vertex 997.4036235736932 3.8778284135708216 0.0
vertex 996.7739194845456 4.300986170064383 0.9999999999999999
vertex 997.4036235736932 3.8778284135708216 0.9999999999999999
endloop
endfacet
facet normal 0.6108486079535085 0.7917474206849435 0.0
outer loop
vertex 997.4036235736932 3.8778284135708216 0.9999999999999999
vertex 997.9727072864013 3.37609795336296 0.0
vertex 997.4036235736932 3.8778284135708216 0.0
endloop
endfacet
facet normal 0.7089664894548795 0.7052421689249903 0.0
outer loop
vertex 997.9727072864013 3.37609795336296 0.0
vertex 997.4036235736932 3.8778284135708216 0.9999999999999999
vertex 997.9727072864013 3.37609795336296 0.9999999999999999
endloop
endfacet
facet normal 0.7089664894548795 0.7052421689249903 0.0
outer loop
vertex 997.9727072864013 3.37609795336296 0.0
vertex 998.4714334425655 2.8043795367209174 0.9999999999999999
vertex 998.4714334425655 2.8043795367209174 0.0
endloop
endfacet
facet normal 0.7949537577590667 0.6066700281246301 0.0
outer loop
vertex 998.4714334425655 2.8043795367209174 0.9999999999999999
vertex 997.9727072864013 3.37609795336296 0.0
vertex 997.9727072864013 3.37609795336296 0.9999999999999999
endloop
endfacet
facet normal 0.7949537577590667 0.6066700281246301 0.0
outer loop
vertex 998.4714334425655 2.8043795367209174 0.0
vertex 998.8912686993809 2.1724554242637306 0.9999999999999999
vertex 998.8912686993809 2.1724554242637306 0.0
endloop
endfacet
facet normal 0.8673391468651634 0.49771759494236334 0.0
outer loop
vertex 998.8912686993809 2.1724554242637306 0.9999999999999999
vertex 998.4714334425655 2.8043795367209174 0.0
vertex 998.4714334425655 2.8043795367209174 0.9999999999999999
endloop
endfacet
facet normal -0.991444861373817 -0.13052619222000217 0.0
outer loop
vertex 998.024770065333 -0.16609661907780807 0.9999999999999999
vertex 998.0607016475628 -0.7143066264020447 0.0
vertex 998.0607016475628 -0.7143066264020447 0.9999999999999999
endloop
endfacet
facet normal -1.0 1.2085479105679204e-15 0.0
outer loop
vertex 998.0607016475628 -0.7143066264020447 0.0
vertex 998.024770065333 -0.16609661907780807 0.9999999999999999
vertex 998.024770065333 -0.16609661907780807 0.0
endloop
endfacet
facet normal -0.9659258262890531 -0.2588190451025778 0.0
outer loop
vertex 997.917590117977 0.37273336302856164 0.9999999999999999
vertex 998.024770065333 -0.16609661907780807 0.0
vertex 998.024770065333 -0.16609661907780807 0.9999999999999999
endloop
endfacet
facet normal -0.991444861373817 -0.13052619222000217 0.0
outer loop
vertex 998.024770065333 -0.16609661907780807 0.0
vertex 997.917590117977 0.37273336302856164 0.9999999999999999
vertex 997.917590117977 0.37273336302856164 0.0
endloop
endfacet
facet normal 0.9228685349500608 -0.3851151349909899 0.0
outer loop
vertex 999.2133391502736 -2.947974409349443 0.0
vertex 998.8759944440293 -3.6275244633845345 0.9999999999999999
vertex 998.8759944440293 -3.6275244633845345 0.0
endloop
endfacet
facet normal 0.8647056545631591 -0.5022789374107766 0.0
outer loop
vertex 998.8759944440293 -3.6275244633845345 0.9999999999999999
vertex 999.2133391502736 -2.947974409349443 0.0
vertex 999.2133391502736 -2.947974409349443 0.9999999999999999
endloop
endfacet
facet normal 0.9917851631155544 0.12791477719111702 0.0
outer loop
vertex 999.6130555936332 0.027599081305926518 0.0
vertex 999.6606815352112 -0.729580881753627 0.9999999999999999
vertex 999.6606815352112 -0.729580881753627 0.0
endloop
endfacet
facet normal 0.9999965323531352 -0.0026334923020257424 0.0
outer loop
vertex 999.6606815352112 -0.729580881753627 0.9999999999999999
vertex 999.6130555936332 0.027599081305926518 0.0
vertex 999.6130555936332 0.027599081305926518 0.9999999999999999
endloop
endfacet
facet normal 0.9652408788365336 -0.26136190583724356 0.0
outer loop
vertex 999.4590987448149 -2.230205680258418 0.0
vertex 999.2133391502736 -2.947974409349443 0.9999999999999999
vertex 999.2133391502736 -2.947974409349443 0.0
endloop
endfacet
facet normal 0.9228685349500608 -0.3851151349909899 0.0
outer loop
vertex 999.2133391502736 -2.947974409349443 0.9999999999999999
vertex 999.4590987448149 -2.230205680258418 0.0
vertex 999.4590987448149 -2.230205680258418 0.9999999999999999
endloop
endfacet
facet normal 2.567610945528946e-15 1.0 0.0
outer loop
vertex 993.8607016475629 -4.914306626402025 0.9999999999999999
vertex 994.4089116548871 -4.878375044172031 0.0
vertex 993.8607016475629 -4.914306626402025 0.0
endloop
endfacet
facet normal -0.13052619222003448 0.9914448613738128 0.0
outer loop
vertex 994.4089116548871 -4.878375044172031 0.0
vertex 993.8607016475629 -4.914306626402025 0.9999999999999999
vertex 994.4089116548871 -4.878375044172031 0.9999999999999999
endloop
endfacet
facet normal -0.13052619222003448 0.9914448613738128 0.0
outer loop
vertex 994.4089116548871 -4.878375044172031 0.9999999999999999
vertex 994.9477416369936 -4.771195096816116 0.0
vertex 994.4089116548871 -4.878375044172031 0.0
endloop
endfacet
facet normal -0.25881904510251874 0.965925826289069 0.0
outer loop
vertex 994.9477416369936 -4.771195096816116 0.0
vertex 994.4089116548871 -4.878375044172031 0.9999999999999999
vertex 994.9477416369936 -4.771195096816116 0.9999999999999999
endloop
endfacet
facet normal -0.25881904510251874 0.965925826289069 0.0
outer loop
vertex 994.9477416369936 -4.771195096816116 0.9999999999999999
vertex 995.4679720634963 -4.594600662949435 0.0
vertex 994.9477416369936 -4.771195096816116 0.0
endloop
endfacet
facet normal -0.3826834323650781 0.9238795325112916 0.0
outer loop
vertex 995.4679720634963 -4.594600662949435 0.0
vertex 994.9477416369936 -4.771195096816116 0.9999999999999999
vertex 995.4679720634963 -4.594600662949435 0.9999999999999999
endloop
endfacet
facet normal -0.3826834323650781 0.9238795325112916 0.0
outer loop
vertex 995.4679720634963 -4.594600662949435 0.9999999999999999
vertex 995.9607016475629 -4.351613322296674 0.0
vertex 995.4679720634963 -4.594600662949435 0.0
endloop
endfacet
facet normal -0.49999999999997996 0.8660254037844504 0.0
outer loop
vertex 995.9607016475629 -4.351613322296674 0.0
vertex 995.4679720634963 -4.594600662949435 0.9999999999999999
vertex 995.9607016475629 -4.351613322296674 0.9999999999999999
endloop
endfacet
facet normal -0.49999999999997996 0.8660254037844504 0.0
outer loop
vertex 995.9607016475629 -4.351613322296674 0.9999999999999999
vertex 996.4174996493996 -4.046390655625222 0.0
vertex 995.9607016475629 -4.351613322296674 0.0
endloop
endfacet
facet normal -0.6087614290087737 0.7933533402911944 0.0
outer loop
vertex 996.4174996493996 -4.046390655625222 0.0
vertex 995.9607016475629 -4.351613322296674 0.9999999999999999
vertex 996.4174996493996 -4.046390655625222 0.9999999999999999
endloop
endfacet
facet normal -0.6087614290087737 0.7933533402911944 0.0
outer loop
vertex 996.4174996493996 -4.046390655625222 0.9999999999999999
vertex 996.8305501285464 -3.6841551073855365 0.0
vertex 996.4174996493996 -4.046390655625222 0.0
endloop
endfacet
facet normal -0.7071067811865561 0.707106781186539 0.0
outer loop
vertex 996.8305501285464 -3.6841551073855365 0.0
vertex 996.4174996493996 -4.046390655625222 0.9999999999999999
vertex 996.8305501285464 -3.6841551073855365 0.9999999999999999
endloop
endfacet
facet normal 0.12791477719103528 -0.991785163115565 0.0
outer loop
vertex 994.6026073552708 -6.466660572472383 0.9999999999999999
vertex 993.8454273922114 -6.514286514050285 0.0
vertex 994.6026073552708 -6.466660572472383 0.0
endloop
endfacet
facet normal -0.0026334923019995407 -0.9999965323531353 0.0
outer loop
vertex 993.8454273922114 -6.514286514050285 0.0
vertex 994.6026073552708 -6.466660572472383 0.9999999999999999
vertex 993.8454273922114 -6.514286514050285 0.9999999999999999
endloop
endfacet
facet normal -0.7071067811865579 -0.7071067811865372 0.0
outer loop
vertex 996.8305501285464 2.2555418545814754 0.9999999999999999
vertex 997.1927856767861 1.8424913754346008 0.0
vertex 997.1927856767861 1.8424913754346008 0.9999999999999999
endloop
endfacet
facet normal -0.7933533402912104 -0.6087614290087532 0.0
outer loop
vertex 997.1927856767861 1.8424913754346008 0.0
vertex 996.8305501285464 2.2555418545814754 0.9999999999999999
vertex 996.8305501285464 2.2555418545814754 0.0
endloop
endfacet
facet normal 0.7917474206849952 -0.6108486079534418 0.0
outer loop
vertex 998.4528366875358 -4.257228552532274 0.0
vertex 997.951106227328 -4.826312265240393 0.9999999999999999
vertex 997.951106227328 -4.826312265240393 0.0
endloop
endfacet
facet normal 0.7052421689250123 -0.7089664894548574 0.0
outer loop
vertex 997.951106227328 -4.826312265240393 0.9999999999999999
vertex 998.4528366875358 -4.257228552532274 0.0
vertex 998.4528366875358 -4.257228552532274 0.9999999999999999
endloop
endfacet
facet normal 0.608761429008776 -0.793353340291193 0.0
outer loop
vertex 991.3039036457262 2.617777402821163 0.9999999999999999
vertex 990.8908531665795 2.2555418545814754 0.0
vertex 991.3039036457262 2.617777402821163 0.0
endloop
endfacet
facet normal 0.7071067811865575 -0.7071067811865376 0.0
outer loop
vertex 990.8908531665795 2.2555418545814754 0.0
vertex 991.3039036457262 2.617777402821163 0.9999999999999999
vertex 990.8908531665795 2.2555418545814754 0.9999999999999999
endloop
endfacet
facet normal 0.9910976836707267 -0.13313670201158084 0.0
outer loop
vertex 999.6090682128531 -1.4864994980692914 0.0
vertex 999.4590987448149 -2.230205680258418 0.9999999999999999
vertex 999.4590987448149 -2.230205680258418 0.0
endloop
endfacet
facet normal 0.9652408788365336 -0.26136190583724356 0.0
outer loop
vertex 999.4590987448149 -2.230205680258418 0.9999999999999999
vertex 999.6090682128531 -1.4864994980692914 0.0
vertex 999.6090682128531 -1.4864994980692914 0.9999999999999999
endloop
endfacet
facet normal 0.9999965323531352 -0.0026334923020257424 0.0
outer loop
vertex 999.6606815352112 -0.729580881753627 0.0
vertex 999.6090682128531 -1.4864994980692914 0.9999999999999999
vertex 999.6090682128531 -1.4864994980692914 0.0
endloop
endfacet
facet normal 0.9910976836707267 -0.13313670201158084 0.0
outer loop
vertex 999.6090682128531 -1.4864994980692914 0.9999999999999999
vertex 999.6606815352112 -0.729580881753627 0.0
vertex 999.6606815352112 -0.729580881753627 0.9999999999999999
endloop
endfacet
facet normal 0.0 0.0 -1.0
outer loop
vertex 989.7702970677979 3.397699012436342 0.0
vertex 989.660701647563 -0.7143066264020208 0.0
vertex 989.2685666075901 2.828615299728223 0.0
endloop
endfacet
facet normal 0.0 0.0 -1.0
outer loop
vertex 989.660701647563 -0.7143066264020208 0.0
vertex 989.7702970677979 3.397699012436342 0.0
vertex 989.6966332297928 -0.16609661907780454 0.0
endloop
endfacet
facet normal 0.0 0.0 -1.0
outer loop
vertex 989.6966332297928 -0.16609661907780454 0.0
vertex 989.7702970677979 3.397699012436342 0.0
vertex 989.8038131771489 0.3727333630285644 0.0
endloop
endfacet
facet normal 0.0 0.0 -1.0
outer loop
vertex 989.8038131771489 0.3727333630285644 0.0
vertex 989.7702970677979 3.397699012436342 0.0
vertex 990.3420154844399 3.8964251686005875 0.0
endloop
endfacet
facet normal 0.0 0.0 -1.0
outer loop
vertex 989.8038131771489 0.3727333630285644 0.0
vertex 990.3420154844399 3.8964251686005875 0.0
vertex 989.9804076110155 0.8929637895313545 0.0
endloop
endfacet
facet normal 0.0 0.0 -1.0
outer loop
vertex 989.9804076110155 0.8929637895313545 0.0
vertex 990.3420154844399 3.8964251686005875 0.0
vertex 990.2233949516683 1.3856933735979768 0.0
endloop
endfacet
facet normal 0.0 0.0 -1.0
outer loop
vertex 990.2233949516683 1.3856933735979768 0.0
vertex 990.3420154844399 3.8964251686005875 0.0
vertex 990.5286176183397 1.8424913754346024 0.0
endloop
endfacet
facet normal 0.0 0.0 -1.0
outer loop
vertex 990.5286176183397 1.8424913754346024 0.0
vertex 990.3420154844399 3.8964251686005875 0.0
vertex 990.9739395968971 4.316260425415982 0.0
endloop
endfacet
facet normal 0.0 0.0 -1.0
outer loop
vertex 990.5286176183397 1.8424913754346024 0.0
vertex 990.9739395968971 4.316260425415982 0.0
vertex 990.8908531665795 2.2555418545814754 0.0
endloop
endfacet
facet normal 0.0 0.0 -1.0
outer loop
vertex 990.8908531665795 2.2555418545814754 0.0
vertex 990.9739395968971 4.316260425415982 0.0
vertex 991.3039036457262 2.617777402821163 0.0
endloop
endfacet
facet normal 0.0 0.0 -1.0
outer loop
vertex 991.3039036457262 2.617777402821163 0.0
vertex 990.9739395968971 4.316260425415982 0.0
vertex 991.6552570084029 4.650021285238085 0.0
endloop
endfacet
facet normal 0.0 0.0 -1.0
outer loop
vertex 991.3039036457262 2.617777402821163 0.0
vertex 991.6552570084029 4.650021285238085 0.0
vertex 991.7607016475629 2.9230000694926175 0.0
endloop
endfacet
facet normal 0.0 0.0 -1.0
outer loop
vertex 991.7607016475629 2.9230000694926175 0.0
vertex 991.6552570084029 4.650021285238085 0.0
vertex 992.3743101891495 4.891997007219351 0.0
endloop
endfacet
facet normal 0.0 0.0 -1.0
outer loop
vertex 991.7607016475629 2.9230000694926175 0.0
vertex 992.3743101891495 4.891997007219351 0.0
vertex 992.2534312316295 3.165987410145379 0.0
endloop
endfacet
facet normal 0.0 0.0 -1.0
outer loop
vertex 992.2534312316295 3.165987410145379 0.0
vertex 992.3743101891495 4.891997007219351 0.0
vertex 992.7736616581323 3.342581844012062 0.0
endloop
endfacet
facet normal 0.0 0.0 -1.0
outer loop
vertex 992.7736616581323 3.342581844012062 0.0
vertex 992.3743101891495 4.891997007219351 0.0
vertex 993.118795939855 5.038047319668333 0.0
endloop
endfacet
facet normal 0.0 0.0 -1.0
outer loop
vertex 992.7736616581323 3.342581844012062 0.0
vertex 993.118795939855 5.038047319668333 0.0
vertex 993.3124916402387 3.449761791367979 0.0
endloop
endfacet
facet normal 0.0 0.0 -1.0
outer loop
vertex 993.3124916402387 3.449761791367979 0.0
vertex 993.118795939855 5.038047319668333 0.0
vertex 993.8759759029145 5.085673261246235 0.0
endloop
endfacet
facet normal 0.0 0.0 -1.0
outer loop
vertex 993.3124916402387 3.449761791367979 0.0
vertex 993.8759759029145 5.085673261246235 0.0
vertex 993.8607016475629 3.4856933735979756 0.0
endloop
endfacet
facet normal 0.0 0.0 -1.0
outer loop
vertex 993.8607016475629 3.4856933735979756 0.0
vertex 993.8759759029145 5.085673261246235 0.0
vertex 994.4089116548871 3.449761791367979 0.0
endloop
endfacet
facet normal 0.0 0.0 -1.0
outer loop
vertex 994.4089116548871 3.449761791367979 0.0
vertex 993.8759759029145 5.085673261246235 0.0
vertex 994.6328945192301 5.034059938888252 0.0
endloop
endfacet
facet normal 0.0 0.0 -1.0
outer loop
vertex 994.4089116548871 3.449761791367979 0.0
vertex 994.6328945192301 5.034059938888252 0.0
vertex 994.9477416369936 3.342581844012062 0.0
endloop
endfacet
facet normal 0.0 0.0 -1.0
outer loop
vertex 994.9477416369936 3.342581844012062 0.0
vertex 994.6328945192301 5.034059938888252 0.0
vertex 995.3766007014193 4.884090470849846 0.0
endloop
endfacet
facet normal 0.0 0.0 -1.0
outer loop
vertex 994.9477416369936 3.342581844012062 0.0
vertex 995.3766007014193 4.884090470849846 0.0
vertex 995.4679720634963 3.165987410145379 0.0
endloop
endfacet
facet normal 0.0 0.0 -1.0
outer loop
vertex 995.4679720634963 3.165987410145379 0.0
vertex 995.3766007014193 4.884090470849846 0.0
vertex 996.0943694305104 4.638330876308545 0.0
endloop
endfacet
facet normal 0.0 0.0 -1.0
outer loop
vertex 995.4679720634963 3.165987410145379 0.0
vertex 996.0943694305104 4.638330876308545 0.0
vertex 995.9607016475629 2.9230000694926175 0.0
endloop
endfacet
facet normal 0.0 0.0 -1.0
outer loop
vertex 995.9607016475629 2.9230000694926175 0.0
vertex 996.0943694305104 4.638330876308545 0.0
vertex 996.4174996493996 2.6177774028211616 0.0
endloop
endfacet
facet normal 0.0 0.0 -1.0
outer loop
vertex 996.4174996493996 2.6177774028211616 0.0
vertex 996.0943694305104 4.638330876308545 0.0
vertex 996.7739194845456 4.300986170064383 0.0
endloop
endfacet
facet normal 0.0 0.0 -1.0
outer loop
vertex 996.4174996493996 2.6177774028211616 0.0
vertex 996.7739194845456 4.300986170064383 0.0
vertex 996.8305501285464 2.2555418545814754 0.0
endloop
endfacet
facet normal 0.0 0.0 -1.0
outer loop
vertex 996.8305501285464 2.2555418545814754 0.0
vertex 996.7739194845456 4.300986170064383 0.0
vertex 997.4036235736932 3.8778284135708216 0.0
endloop
endfacet
facet normal 0.0 0.0 -1.0
outer loop
vertex 996.8305501285464 2.2555418545814754 0.0
vertex 997.4036235736932 3.8778284135708216 0.0
vertex 997.1927856767861 1.8424913754346008 0.0
endloop
endfacet
facet normal 0.0 0.0 -1.0
outer loop
vertex 997.1927856767861 1.8424913754346008 0.0
vertex 997.4036235736932 3.8778284135708216 0.0
vertex 997.4980083434575 1.385693373597974 0.0
endloop
endfacet
facet normal 0.0 0.0 -1.0
outer loop
vertex 997.4980083434575 1.385693373597974 0.0
vertex 997.4036235736932 3.8778284135708216 0.0
vertex 997.9727072864013 3.37609795336296 0.0
endloop
endfacet
facet normal 0.0 0.0 -1.0
outer loop
vertex 997.4980083434575 1.385693373597974 0.0
vertex 997.9727072864013 3.37609795336296 0.0
vertex 997.7409956841103 0.8929637895313517 0.0
endloop
endfacet
facet normal 0.0 0.0 -1.0
outer loop
vertex 997.7409956841103 0.8929637895313517 0.0
vertex 997.9727072864013 3.37609795336296 0.0
vertex 997.917590117977 0.37273336302856164 0.0
endloop
endfacet
facet normal 0.0 0.0 -1.0
outer loop
vertex 997.917590117977 0.37273336302856164 0.0
vertex 997.9727072864013 3.37609795336296 0.0
vertex 998.024770065333 -0.16609661907780807 0.0
endloop
endfacet
facet normal 0.0 0.0 -1.0
outer loop
vertex 998.024770065333 -0.16609661907780807 0.0
vertex 997.9727072864013 3.37609795336296 0.0
vertex 998.4714334425655 2.8043795367209174 0.0
endloop
endfacet
facet normal 0.0 0.0 -1.0
outer loop
vertex 998.024770065333 -0.16609661907780807 0.0
vertex 998.4714334425655 2.8043795367209174 0.0
vertex 998.0607016475628 -0.7143066264020447 0.0
endloop
endfacet
facet normal 0.0 0.0 -1.0
outer loop
vertex 998.0607016475628 -0.7143066264020447 0.0
vertex 998.4714334425655 2.8043795367209174 0.0
vertex 998.4528366875358 -4.257228552532274 0.0
endloop
endfacet
facet normal 0.0 0.0 -1.0
outer loop
vertex 998.4528366875358 -4.257228552532274 0.0
vertex 998.4714334425655 2.8043795367209174 0.0
vertex 998.8759944440293 -3.6275244633845345 0.0
endloop
endfacet
facet normal 0.0 0.0 -1.0
outer loop
vertex 998.8759944440293 -3.6275244633845345 0.0
vertex 998.4714334425655 2.8043795367209174 0.0
vertex 998.8912686993809 2.1724554242637306 0.0
endloop
endfacet
facet normal 0.0 0.0 -1.0
outer loop
vertex 998.8759944440293 -3.6275244633845345 0.0
vertex 998.8912686993809 2.1724554242637306 0.0
vertex 999.2133391502736 -2.947974409349443 0.0
endloop
endfacet
facet normal 0.0 0.0 -1.0
outer loop
vertex 999.2133391502736 -2.947974409349443 0.0
vertex 998.8912686993809 2.1724554242637306 0.0
vertex 999.225029559203 1.4911380127580065 0.0
endloop
endfacet
facet normal 0.0 0.0 -1.0
outer loop
vertex 999.2133391502736 -2.947974409349443 0.0
vertex 999.225029559203 1.4911380127580065 0.0
vertex 999.4590987448149 -2.230205680258418 0.0
endloop
endfacet
facet normal 0.0 0.0 -1.0
outer loop
vertex 999.4590987448149 -2.230205680258418 0.0
vertex 999.225029559203 1.4911380127580065 0.0
vertex 999.4670052811842 0.7720848320114746 0.0
endloop
endfacet
facet normal 0.0 0.0 -1.0
outer loop
vertex 999.4590987448149 -2.230205680258418 0.0
vertex 999.4670052811842 0.7720848320114746 0.0
vertex 999.6090682128531 -1.4864994980692914 0.0
endloop
endfacet
facet normal 0.0 0.0 -1.0
outer loop
vertex 999.6090682128531 -1.4864994980692914 0.0
vertex 999.4670052811842 0.7720848320114746 0.0
vertex 999.6130555936332 0.027599081305926518 0.0
endloop
endfacet
facet normal 0.0 0.0 -1.0
outer loop
vertex 999.6090682128531 -1.4864994980692914 0.0
vertex 999.6130555936332 0.027599081305926518 0.0
vertex 999.6606815352112 -0.729580881753627 0.0
endloop
endfacet
facet normal 0.0 0.0 -1.0
outer loop
vertex 988.1123350822727 0.057886245265241415 0.0
vertex 988.1083477014926 -1.4562123341099793 0.0
vertex 988.0607217599146 -0.6990323710504258 0.0
endloop
endfacet
facet normal 0.0 0.0 -1.0
outer loop
vertex 988.1083477014926 -1.4562123341099793 0.0
vertex 988.1123350822727 0.057886245265241415 0.0
vertex 988.2543980139416 -2.200698084815528 0.0
endloop
endfacet
facet normal 0.0 0.0 -1.0
outer loop
vertex 988.2543980139416 -2.200698084815528 0.0
vertex 988.1123350822727 0.057886245265241415 0.0
vertex 988.262304550311 0.8015924274543678 0.0
endloop
endfacet
facet normal 0.0 0.0 -1.0
outer loop
vertex 988.2543980139416 -2.200698084815528 0.0
vertex 988.262304550311 0.8015924274543678 0.0
vertex 988.4963737359228 -2.9197512655620557 0.0
endloop
endfacet
facet normal 0.0 0.0 -1.0
outer loop
vertex 988.4963737359228 -2.9197512655620557 0.0
vertex 988.262304550311 0.8015924274543678 0.0
vertex 988.5080641448524 1.5193611565453924 0.0
endloop
endfacet
facet normal 0.0 0.0 -1.0
outer loop
vertex 988.4963737359228 -2.9197512655620557 0.0
vertex 988.5080641448524 1.5193611565453924 0.0
vertex 988.830134595745 -3.6010686770677793 0.0
endloop
endfacet
facet normal 0.0 0.0 -1.0
outer loop
vertex 988.830134595745 -3.6010686770677793 0.0
vertex 988.5080641448524 1.5193611565453924 0.0
vertex 988.8454088510965 2.198911210580481 0.0
endloop
endfacet
facet normal 0.0 0.0 -1.0
outer loop
vertex 988.830134595745 -3.6010686770677793 0.0
vertex 988.8454088510965 2.198911210580481 0.0
vertex 989.2499698525603 -4.232992789524965 0.0
endloop
endfacet
facet normal 0.0 0.0 -1.0
outer loop
vertex 989.2499698525603 -4.232992789524965 0.0
vertex 988.8454088510965 2.198911210580481 0.0
vertex 989.2685666075901 2.828615299728223 0.0
endloop
endfacet
facet normal 0.0 0.0 -1.0
outer loop
vertex 989.2499698525603 -4.232992789524965 0.0
vertex 989.2685666075901 2.828615299728223 0.0
vertex 989.7486960087246 -4.804711206167007 0.0
endloop
endfacet
facet normal 0.0 0.0 -1.0
outer loop
vertex 989.7486960087246 -4.804711206167007 0.0
vertex 989.2685666075901 2.828615299728223 0.0
vertex 989.660701647563 -0.7143066264020208 0.0
endloop
endfacet
facet normal 0.0 0.0 -1.0
outer loop
vertex 989.7486960087246 -4.804711206167007 0.0
vertex 989.660701647563 -0.7143066264020208 0.0
vertex 989.6966332297928 -1.262516633726237 0.0
endloop
endfacet
facet normal 0.0 0.0 -1.0
outer loop
vertex 989.7486960087246 -4.804711206167007 0.0
vertex 989.6966332297928 -1.262516633726237 0.0
vertex 989.8038131771489 -1.8013466158326066 0.0
endloop
endfacet
facet normal 0.0 0.0 -1.0
outer loop
vertex 989.7486960087246 -4.804711206167007 0.0
vertex 989.8038131771489 -1.8013466158326066 0.0
vertex 990.3177797214327 -5.306441666374871 0.0
endloop
endfacet
facet normal 0.0 0.0 -1.0
outer loop
vertex 990.3177797214327 -5.306441666374871 0.0
vertex 989.8038131771489 -1.8013466158326066 0.0
vertex 989.9804076110155 -2.321577042335396 0.0
endloop
endfacet
facet normal 0.0 0.0 -1.0
outer loop
vertex 990.3177797214327 -5.306441666374871 0.0
vertex 989.9804076110155 -2.321577042335396 0.0
vertex 990.2233949516683 -2.814306626402019 0.0
endloop
endfacet
facet normal 0.0 0.0 -1.0
outer loop
vertex 990.3177797214327 -5.306441666374871 0.0
vertex 990.2233949516683 -2.814306626402019 0.0
vertex 990.5286176183397 -3.2711046282386453 0.0
endloop
endfacet
facet normal 0.0 0.0 -1.0
outer loop
vertex 990.3177797214327 -5.306441666374871 0.0
vertex 990.5286176183397 -3.2711046282386453 0.0
vertex 990.9474838105804 -5.729599422868432 0.0
endloop
endfacet
facet normal 0.0 0.0 -1.0
outer loop
vertex 990.9474838105804 -5.729599422868432 0.0
vertex 990.5286176183397 -3.2711046282386453 0.0
vertex 990.8908531665795 -3.6841551073855188 0.0
endloop
endfacet
facet normal 0.0 0.0 -1.0
outer loop
vertex 990.9474838105804 -5.729599422868432 0.0
vertex 990.8908531665795 -3.6841551073855188 0.0
vertex 991.3039036457262 -4.046390655625208 0.0
endloop
endfacet
facet normal 0.0 0.0 -1.0
outer loop
vertex 990.9474838105804 -5.729599422868432 0.0
vertex 991.3039036457262 -4.046390655625208 0.0
vertex 991.6270338646154 -6.066944129112594 0.0
endloop
endfacet
facet normal 0.0 0.0 -1.0
outer loop
vertex 991.6270338646154 -6.066944129112594 0.0
vertex 991.3039036457262 -4.046390655625208 0.0
vertex 991.7607016475629 -4.351613322296663 0.0
endloop
endfacet
facet normal 0.0 0.0 -1.0
outer loop
vertex 991.6270338646154 -6.066944129112594 0.0
vertex 991.7607016475629 -4.351613322296663 0.0
vertex 992.3448025937065 -6.312703723653895 0.0
endloop
endfacet
facet normal 0.0 0.0 -1.0
outer loop
vertex 992.3448025937065 -6.312703723653895 0.0
vertex 991.7607016475629 -4.351613322296663 0.0
vertex 992.2534312316295 -4.594600662949426 0.0
endloop
endfacet
facet normal 0.0 0.0 -1.0
outer loop
vertex 992.3448025937065 -6.312703723653895 0.0
vertex 992.2534312316295 -4.594600662949426 0.0
vertex 992.7736616581323 -4.771195096816109 0.0
endloop
endfacet
facet normal 0.0 0.0 -1.0
outer loop
vertex 992.3448025937065 -6.312703723653895 0.0
vertex 992.7736616581323 -4.771195096816109 0.0
vertex 993.0885087758957 -6.462673191692301 0.0
endloop
endfacet
facet normal 0.0 0.0 -1.0
outer loop
vertex 993.0885087758957 -6.462673191692301 0.0
vertex 992.7736616581323 -4.771195096816109 0.0
vertex 993.3124916402387 -4.878375044172028 0.0
endloop
endfacet
facet normal 0.0 0.0 -1.0
outer loop
vertex 993.0885087758957 -6.462673191692301 0.0
vertex 993.3124916402387 -4.878375044172028 0.0
vertex 993.8454273922114 -6.514286514050285 0.0
endloop
endfacet
facet normal 0.0 0.0 -1.0
outer loop
vertex 993.8454273922114 -6.514286514050285 0.0
vertex 993.3124916402387 -4.878375044172028 0.0
vertex 993.8607016475629 -4.914306626402025 0.0
endloop
endfacet
facet normal 0.0 0.0 -1.0
outer loop
vertex 993.8454273922114 -6.514286514050285 0.0
vertex 993.8607016475629 -4.914306626402025 0.0
vertex 994.6026073552708 -6.466660572472383 0.0
endloop
endfacet
facet normal 0.0 0.0 -1.0
outer loop
vertex 994.6026073552708 -6.466660572472383 0.0
vertex 993.8607016475629 -4.914306626402025 0.0
vertex 994.4089116548871 -4.878375044172031 0.0
endloop
endfacet
facet normal 0.0 0.0 -1.0
outer loop
vertex 994.6026073552708 -6.466660572472383 0.0
vertex 994.4089116548871 -4.878375044172031 0.0
vertex 994.9477416369936 -4.771195096816116 0.0
endloop
endfacet
facet normal 0.0 0.0 -1.0
outer loop
vertex 994.6026073552708 -6.466660572472383 0.0
vertex 994.9477416369936 -4.771195096816116 0.0
vertex 995.3470931059763 -6.320610260023402 0.0
endloop
endfacet
facet normal 0.0 0.0 -1.0
outer loop
vertex 995.3470931059763 -6.320610260023402 0.0
vertex 994.9477416369936 -4.771195096816116 0.0
vertex 995.4679720634963 -4.594600662949435 0.0
endloop
endfacet
facet normal 0.0 0.0 -1.0
outer loop
vertex 995.3470931059763 -6.320610260023402 0.0
vertex 995.4679720634963 -4.594600662949435 0.0
vertex 996.0661462867229 -6.078634538042136 0.0
endloop
endfacet
facet normal 0.0 0.0 -1.0
outer loop
vertex 996.0661462867229 -6.078634538042136 0.0
vertex 995.4679720634963 -4.594600662949435 0.0
vertex 995.9607016475629 -4.351613322296674 0.0
endloop
endfacet
facet normal 0.0 0.0 -1.0
outer loop
vertex 996.0661462867229 -6.078634538042136 0.0
vertex 995.9607016475629 -4.351613322296674 0.0
vertex 996.4174996493996 -4.046390655625222 0.0
endloop
endfacet
facet normal 0.0 0.0 -1.0
outer loop
vertex 996.0661462867229 -6.078634538042136 0.0
vertex 996.4174996493996 -4.046390655625222 0.0
vertex 996.7474636982287 -5.744873678220033 0.0
endloop
endfacet
facet normal 0.0 0.0 -1.0
outer loop
vertex 996.7474636982287 -5.744873678220033 0.0
vertex 996.4174996493996 -4.046390655625222 0.0
vertex 996.8305501285464 -3.6841551073855365 0.0
endloop
endfacet
facet normal 0.0 0.0 -1.0
outer loop
vertex 996.7474636982287 -5.744873678220033 0.0
vertex 996.8305501285464 -3.6841551073855365 0.0
vertex 997.3793878106859 -5.32503842140464 0.0
endloop
endfacet
facet normal 0.0 0.0 -1.0
outer loop
vertex 997.3793878106859 -5.32503842140464 0.0
vertex 996.8305501285464 -3.6841551073855365 0.0
vertex 997.1927856767861 -3.271104628238665 0.0
endloop
endfacet
facet normal 0.0 0.0 -1.0
outer loop
vertex 997.3793878106859 -5.32503842140464 0.0
vertex 997.1927856767861 -3.271104628238665 0.0
vertex 997.4980083434575 -2.8143066264020393 0.0
endloop
endfacet
facet normal 0.0 0.0 -1.0
outer loop
vertex 997.3793878106859 -5.32503842140464 0.0
vertex 997.4980083434575 -2.8143066264020393 0.0
vertex 997.951106227328 -4.826312265240393 0.0
endloop
endfacet
facet normal 0.0 0.0 -1.0
outer loop
vertex 997.951106227328 -4.826312265240393 0.0
vertex 997.4980083434575 -2.8143066264020393 0.0
vertex 997.7409956841103 -2.3215770423354187 0.0
endloop
endfacet
facet normal 0.0 0.0 -1.0
outer loop
vertex 997.951106227328 -4.826312265240393 0.0
vertex 997.7409956841103 -2.3215770423354187 0.0
vertex 997.917590117977 -1.80134661583263 0.0
endloop
endfacet
facet normal 0.0 0.0 -1.0
outer loop
vertex 997.951106227328 -4.826312265240393 0.0
vertex 997.917590117977 -1.80134661583263 0.0
vertex 998.024770065333 -1.262516633726261 0.0
endloop
endfacet
facet normal 0.0 0.0 -1.0
outer loop
vertex 997.951106227328 -4.826312265240393 0.0
vertex 998.024770065333 -1.262516633726261 0.0
vertex 998.4528366875358 -4.257228552532274 0.0
endloop
endfacet
facet normal 0.0 0.0 -1.0
outer loop
vertex 998.4528366875358 -4.257228552532274 0.0
vertex 998.024770065333 -1.262516633726261 0.0
vertex 998.0607016475628 -0.7143066264020447 0.0
endloop
endfacet
endsolid newXgantryHP
