solid newXgantryHP
facet normal -1.0 0.0 0.0
outer loop
vertex 757.5384056362977 41.365800550584375 24.75000000000006
vertex 757.5384056362977 47.365800550584346 30.75
vertex 757.5384056362977 47.36580055058436 24.750000000000025
endloop
endfacet
facet normal -1.0 0.0 0.0
outer loop
vertex 757.5384056362977 47.365800550584346 30.75
vertex 757.5384056362977 41.365800550584375 24.75000000000006
vertex 757.5384056362977 41.36580055058435 30.750000000000046
endloop
endfacet
facet normal 1.0 0.0 0.0
outer loop
vertex 754.5384056362977 47.365800550584346 30.75
vertex 754.5384056362977 41.365800550584375 24.75000000000006
vertex 754.5384056362977 47.36580055058436 24.750000000000025
endloop
endfacet
facet normal 1.0 0.0 0.0
outer loop
vertex 754.5384056362977 41.365800550584375 24.75000000000006
vertex 754.5384056362977 47.365800550584346 30.75
vertex 754.5384056362977 41.36580055058435 30.750000000000046
endloop
endfacet
facet normal 0.6726727939962982 -4.348685258061369e-15 -0.7399400733959567
outer loop
vertex 760.2884056362977 47.365800550584346 27.250000000000018
vertex 757.5384056362977 41.365800550584375 24.75000000000006
vertex 757.5384056362977 47.36580055058436 24.750000000000025
endloop
endfacet
facet normal 0.6726727939962982 -4.348685258061369e-15 -0.7399400733959567
outer loop
vertex 757.5384056362977 41.365800550584375 24.75000000000006
vertex 760.2884056362977 47.365800550584346 27.250000000000018
vertex 760.2884056362977 41.36580055058435 27.250000000000053
endloop
endfacet
facet normal -0.6726727939962982 -4.348685258061369e-15 -0.7399400733959567
outer loop
vertex 754.5384056362977 47.36580055058436 24.750000000000025
vertex 751.7884056362976 41.36580055058435 27.250000000000053
vertex 751.7884056362976 47.365800550584346 27.250000000000018
endloop
endfacet
facet normal -0.6726727939962982 -4.348685258061369e-15 -0.7399400733959567
outer loop
vertex 751.7884056362976 41.36580055058435 27.250000000000053
vertex 754.5384056362977 47.36580055058436 24.750000000000025
vertex 754.5384056362977 41.365800550584375 24.75000000000006
endloop
endfacet
facet normal 0.25881904510251197 -6.005401317586752e-15 -0.9659258262890708
outer loop
vertex 755.5207675460925 53.36580055058437 36.68185165257811
vertex 755.0384056362976 41.36580055058445 36.482050807568974
vertex 755.0384056362976 53.36580055058437 36.482050807568854
endloop
endfacet
facet normal 0.5000000000000174 -5.384295521873918e-15 -0.8660254037844288
outer loop
vertex 755.0384056362976 41.36580055058445 36.482050807568974
vertex 755.5207675460925 53.36580055058437 36.68185165257811
vertex 755.5207675460925 41.36580055058445 36.68185165257823
endloop
endfacet
facet normal 0.5000000000000141 -5.38429552187393e-15 -0.8660254037844307
outer loop
vertex 755.0384056362976 53.36580055058437 36.482050807568854
vertex 754.6241920739245 41.3658005505844 36.16421356237319
vertex 754.6241920739245 53.36580055058435 36.164213562373064
endloop
endfacet
facet normal 0.7071067811865711 -4.3962588843144234e-15 -0.7071067811865239
outer loop
vertex 754.6241920739245 41.3658005505844 36.16421356237319
vertex 755.0384056362976 53.36580055058437 36.482050807568854
vertex 755.0384056362976 41.36580055058445 36.482050807568974
endloop
endfacet
facet normal 1.0 -2.4931164840401513e-30 -4.0099994530408805e-16
outer loop
vertex 754.0384056362976 41.36580055058444 34.7500000000001
vertex 754.1065539837196 53.365800550584346 34.23236190979493
vertex 754.0384056362976 53.36580055058435 34.74999999999998
endloop
endfacet
facet normal 0.9659258262890675 1.6091424332721867e-15 0.258819045102524
outer loop
vertex 754.1065539837196 53.365800550584346 34.23236190979493
vertex 754.0384056362976 41.36580055058444 34.7500000000001
vertex 754.1065539837196 41.365800550584396 34.23236190979505
endloop
endfacet
facet normal -1.0 -3.6454903255520924e-29 -5.863510311335411e-15
outer loop
vertex 758.0384056362976 53.36580055058435 34.74999999999998
vertex 757.9702572888758 41.3658005505844 35.26763809020514
vertex 757.9702572888758 53.36580055058443 35.26763809020501
endloop
endfacet
facet normal -0.9659258262890673 -1.609142433272191e-15 -0.25881904510252474
outer loop
vertex 757.9702572888758 41.3658005505844 35.26763809020514
vertex 758.0384056362976 53.36580055058435 34.74999999999998
vertex 758.0384056362976 41.36580055058444 34.7500000000001
endloop
endfacet
facet normal -0.9659258262890673 -1.609142433272191e-15 -0.25881904510252474
outer loop
vertex 757.9702572888758 41.3658005505844 35.26763809020514
vertex 757.7704564438666 53.36580055058435 35.74999999999997
vertex 757.9702572888758 53.36580055058443 35.26763809020501
endloop
endfacet
facet normal -0.8660254037844294 -3.1086244689505405e-15 -0.5000000000000164
outer loop
vertex 757.7704564438666 53.36580055058435 35.74999999999997
vertex 757.9702572888758 41.3658005505844 35.26763809020514
vertex 757.7704564438666 41.365800550584446 35.7500000000001
endloop
endfacet
facet normal -0.8660254037844258 -3.108624468950577e-15 -0.5000000000000223
outer loop
vertex 757.7704564438666 41.365800550584446 35.7500000000001
vertex 757.4526191986707 53.36580055058435 36.164213562373064
vertex 757.7704564438666 53.36580055058435 35.74999999999997
endloop
endfacet
facet normal -0.7071067811865706 -4.396258884314427e-15 -0.7071067811865246
outer loop
vertex 757.4526191986707 53.36580055058435 36.164213562373064
vertex 757.7704564438666 41.365800550584446 35.7500000000001
vertex 757.4526191986707 41.3658005505844 36.16421356237319
endloop
endfacet
facet normal -0.7071067811865706 -4.396258884314427e-15 -0.7071067811865246
outer loop
vertex 757.4526191986707 53.36580055058435 36.164213562373064
vertex 757.0384056362977 41.36580055058445 36.482050807568974
vertex 757.0384056362977 53.36580055058437 36.482050807568854
endloop
endfacet
facet normal -0.5000000000000169 -5.384295521873919e-15 -0.8660254037844289
outer loop
vertex 757.0384056362977 41.36580055058445 36.482050807568974
vertex 757.4526191986707 53.36580055058435 36.164213562373064
vertex 757.4526191986707 41.3658005505844 36.16421356237319
endloop
endfacet
facet normal 0.0 5.639932965095804e-15 1.0
outer loop
vertex 760.2884056362977 41.36580055058435 27.250000000000053
vertex 759.5384056362976 47.365800550584346 27.250000000000018
vertex 759.5384056362976 41.36580055058435 27.250000000000053
endloop
endfacet
facet normal 0.0 5.639932965095804e-15 1.0
outer loop
vertex 759.5384056362976 47.365800550584346 27.250000000000018
vertex 760.2884056362977 41.36580055058435 27.250000000000053
vertex 760.2884056362977 47.365800550584346 27.250000000000018
endloop
endfacet
facet normal 0.8660254037844227 3.1086244689506103e-15 0.5000000000000276
outer loop
vertex 754.3063548287288 53.365800550584346 33.74999999999998
vertex 754.6241920739245 41.36580055058439 33.335786437627
vertex 754.6241920739245 53.365800550584424 33.33578643762688
endloop
endfacet
facet normal 0.7071067811865714 4.396258884314421e-15 0.7071067811865236
outer loop
vertex 754.6241920739245 41.36580055058439 33.335786437627
vertex 754.3063548287288 53.365800550584346 33.74999999999998
vertex 754.3063548287288 41.36580055058443 33.7500000000001
endloop
endfacet
facet normal 0.500000000000017 5.384295521873918e-15 0.8660254037844288
outer loop
vertex 755.0384056362976 41.36580055058443 33.017949192431225
vertex 754.6241920739245 53.365800550584424 33.33578643762688
vertex 754.6241920739245 41.36580055058439 33.335786437627
endloop
endfacet
facet normal 0.7071067811865706 4.396258884314427e-15 0.7071067811865246
outer loop
vertex 754.6241920739245 53.365800550584424 33.33578643762688
vertex 755.0384056362976 41.36580055058443 33.017949192431225
vertex 755.0384056362976 53.365800550584346 33.0179491924311
endloop
endfacet
facet normal 0.2588190451025087 6.005401317586757e-15 0.9659258262890715
outer loop
vertex 755.5207675460925 41.36580055058443 32.81814834742196
vertex 755.0384056362976 53.365800550584346 33.0179491924311
vertex 755.0384056362976 41.36580055058443 33.017949192431225
endloop
endfacet
facet normal 0.5000000000000188 5.3842955218739134e-15 0.866025403784428
outer loop
vertex 755.0384056362976 53.365800550584346 33.0179491924311
vertex 755.5207675460925 41.36580055058443 32.81814834742196
vertex 755.5207675460925 53.365800550584346 32.81814834742183
endloop
endfacet
facet normal 0.0 6.217248937900877e-15 1.0
outer loop
vertex 756.0384056362976 41.36580055058439 32.7500000000001
vertex 755.5207675460925 53.365800550584346 32.81814834742183
vertex 755.5207675460925 41.36580055058443 32.81814834742196
endloop
endfacet
facet normal 0.258819045102512 6.005401317586751e-15 0.9659258262890706
outer loop
vertex 755.5207675460925 53.365800550584346 32.81814834742183
vertex 756.0384056362976 41.36580055058439 32.7500000000001
vertex 756.0384056362976 53.36580055058433 32.74999999999997
endloop
endfacet
facet normal -0.5000000000000137 -5.384295521873931e-15 -0.8660254037844308
outer loop
vertex 757.0384056362977 53.36580055058437 36.482050807568854
vertex 756.5560437265027 41.36580055058445 36.68185165257823
vertex 756.5560437265027 53.36580055058437 36.68185165257811
endloop
endfacet
facet normal -0.2588190451025081 -6.005401317586759e-15 -0.9659258262890719
outer loop
vertex 756.5560437265027 41.36580055058445 36.68185165257823
vertex 757.0384056362977 53.36580055058437 36.482050807568854
vertex 757.0384056362977 41.36580055058445 36.482050807568974
endloop
endfacet
facet normal 0.9659258262890673 -1.6091424332721918e-15 -0.25881904510252485
outer loop
vertex 754.1065539837196 41.3658005505844 35.26763809020514
vertex 754.0384056362976 53.36580055058435 34.74999999999998
vertex 754.1065539837196 53.36580055058443 35.26763809020501
endloop
endfacet
facet normal 1.0 -3.7950773145945034e-29 -6.104110278517867e-15
outer loop
vertex 754.0384056362976 53.36580055058435 34.74999999999998
vertex 754.1065539837196 41.3658005505844 35.26763809020514
vertex 754.0384056362976 41.36580055058444 34.7500000000001
endloop
endfacet
facet normal 0.7071067811865711 -4.3962588843144234e-15 -0.7071067811865239
outer loop
vertex 754.6241920739245 41.3658005505844 36.16421356237319
vertex 754.3063548287288 53.36580055058435 35.74999999999997
vertex 754.6241920739245 53.36580055058435 36.164213562373064
endloop
endfacet
facet normal 0.8660254037844294 -3.1086244689505393e-15 -0.5000000000000162
outer loop
vertex 754.3063548287288 53.36580055058435 35.74999999999997
vertex 754.6241920739245 41.3658005505844 36.16421356237319
vertex 754.3063548287288 41.365800550584446 35.7500000000001
endloop
endfacet
facet normal 0.9659258262890674 1.6091424332721882e-15 0.2588190451025243
outer loop
vertex 754.1065539837196 41.365800550584396 34.23236190979505
vertex 754.3063548287288 53.365800550584346 33.74999999999998
vertex 754.1065539837196 53.365800550584346 34.23236190979493
endloop
endfacet
facet normal 0.8660254037844227 3.1086244689506103e-15 0.5000000000000276
outer loop
vertex 754.3063548287288 53.365800550584346 33.74999999999998
vertex 754.1065539837196 41.365800550584396 34.23236190979505
vertex 754.3063548287288 41.36580055058443 33.7500000000001
endloop
endfacet
facet normal -0.2588190451025113 -6.005401317586753e-15 -0.965925826289071
outer loop
vertex 756.5560437265027 53.36580055058437 36.68185165257811
vertex 756.0384056362976 41.36580055058441 36.7500000000001
vertex 756.0384056362976 53.36580055058437 36.74999999999997
endloop
endfacet
facet normal 3.386221760345985e-16 -6.217248937900877e-15 -1.0
outer loop
vertex 756.0384056362976 41.36580055058441 36.7500000000001
vertex 756.5560437265027 53.36580055058437 36.68185165257811
vertex 756.5560437265027 41.36580055058445 36.68185165257823
endloop
endfacet
facet normal 3.3862217603458193e-16 -6.217248937900877e-15 -1.0
outer loop
vertex 756.0384056362976 53.36580055058437 36.74999999999997
vertex 755.5207675460925 41.36580055058445 36.68185165257823
vertex 755.5207675460925 53.36580055058437 36.68185165257811
endloop
endfacet
facet normal 0.2588190451025087 -6.005401317586757e-15 -0.9659258262890715
outer loop
vertex 755.5207675460925 41.36580055058445 36.68185165257823
vertex 756.0384056362976 53.36580055058437 36.74999999999997
vertex 756.0384056362976 41.36580055058441 36.7500000000001
endloop
endfacet
facet normal 0.0 5.639932965095804e-15 1.0
outer loop
vertex 752.5384056362977 41.36580055058435 27.250000000000053
vertex 751.7884056362976 47.365800550584346 27.250000000000018
vertex 751.7884056362976 41.36580055058435 27.250000000000053
endloop
endfacet
facet normal 0.0 5.639932965095804e-15 1.0
outer loop
vertex 751.7884056362976 47.365800550584346 27.250000000000018
vertex 752.5384056362977 41.36580055058435 27.250000000000053
vertex 752.5384056362977 47.365800550584346 27.250000000000018
endloop
endfacet
facet normal 0.8660254037844294 -3.1086244689505393e-15 -0.5000000000000162
outer loop
vertex 754.3063548287288 53.36580055058435 35.74999999999997
vertex 754.1065539837196 41.3658005505844 35.26763809020514
vertex 754.1065539837196 53.36580055058443 35.26763809020501
endloop
endfacet
facet normal 0.9659258262890673 -1.6091424332721918e-15 -0.25881904510252485
outer loop
vertex 754.1065539837196 41.3658005505844 35.26763809020514
vertex 754.3063548287288 53.36580055058435 35.74999999999997
vertex 754.3063548287288 41.365800550584446 35.7500000000001
endloop
endfacet
facet normal -0.25881904510250936 6.005401317586756e-15 0.9659258262890714
outer loop
vertex 756.5560437265027 41.36580055058443 32.81814834742196
vertex 756.0384056362976 53.36580055058433 32.74999999999997
vertex 756.0384056362976 41.36580055058439 32.7500000000001
endloop
endfacet
facet normal 0.0 6.217248937900877e-15 1.0
outer loop
vertex 756.0384056362976 53.36580055058433 32.74999999999997
vertex 756.5560437265027 41.36580055058443 32.81814834742196
vertex 756.5560437265027 53.365800550584346 32.81814834742183
endloop
endfacet
facet normal -0.5000000000000175 5.384295521873916e-15 0.8660254037844285
outer loop
vertex 757.0384056362977 41.36580055058443 33.017949192431225
vertex 756.5560437265027 53.365800550584346 32.81814834742183
vertex 756.5560437265027 41.36580055058443 32.81814834742196
endloop
endfacet
facet normal -0.2588190451025127 6.005401317586751e-15 0.9659258262890706
outer loop
vertex 756.5560437265027 53.365800550584346 32.81814834742183
vertex 757.0384056362977 41.36580055058443 33.017949192431225
vertex 757.0384056362977 53.365800550584346 33.0179491924311
endloop
endfacet
facet normal -0.7071067811865718 4.3962588843144195e-15 0.7071067811865233
outer loop
vertex 757.4526191986707 41.36580055058439 33.335786437627
vertex 757.0384056362977 53.365800550584346 33.0179491924311
vertex 757.0384056362977 41.36580055058443 33.017949192431225
endloop
endfacet
facet normal -0.5000000000000193 5.384295521873911e-15 0.8660254037844277
outer loop
vertex 757.0384056362977 53.365800550584346 33.0179491924311
vertex 757.4526191986707 41.36580055058439 33.335786437627
vertex 757.4526191986707 53.365800550584424 33.33578643762688
endloop
endfacet
facet normal -0.7071067811865718 4.3962588843144195e-15 0.7071067811865233
outer loop
vertex 757.4526191986707 41.36580055058439 33.335786437627
vertex 757.7704564438666 53.365800550584346 33.74999999999998
vertex 757.4526191986707 53.365800550584424 33.33578643762688
endloop
endfacet
facet normal -0.8660254037844229 3.108624468950608e-15 0.5000000000000273
outer loop
vertex 757.7704564438666 53.365800550584346 33.74999999999998
vertex 757.4526191986707 41.36580055058439 33.335786437627
vertex 757.7704564438666 41.36580055058443 33.7500000000001
endloop
endfacet
facet normal -0.8660254037844265 3.1086244689505716e-15 0.5000000000000214
outer loop
vertex 757.7704564438666 41.36580055058443 33.7500000000001
vertex 757.9702572888758 53.365800550584346 34.23236190979493
vertex 757.7704564438666 53.365800550584346 33.74999999999998
endloop
endfacet
facet normal -0.9659258262890675 1.6091424332721873e-15 0.2588190451025241
outer loop
vertex 757.9702572888758 53.365800550584346 34.23236190979493
vertex 757.7704564438666 41.36580055058443 33.7500000000001
vertex 757.9702572888758 41.365800550584396 34.23236190979505
endloop
endfacet
facet normal -0.9659258262890675 1.6091424332721873e-15 0.2588190451025241
outer loop
vertex 757.9702572888758 53.365800550584346 34.23236190979493
vertex 758.0384056362976 41.36580055058444 34.7500000000001
vertex 758.0384056362976 53.36580055058435 34.74999999999998
endloop
endfacet
facet normal -1.0 -9.972465936160604e-31 -1.6039997812163522e-16
outer loop
vertex 758.0384056362976 41.36580055058444 34.7500000000001
vertex 757.9702572888758 53.365800550584346 34.23236190979493
vertex 757.9702572888758 41.365800550584396 34.23236190979505
endloop
endfacet
facet normal -1.6736206657798551e-15 1.0 8.291992261257008e-16
outer loop
vertex 754.5384056362977 47.365800550584346 30.75
vertex 752.5384056362977 47.365800550584346 27.250000000000018
vertex 752.5384056362977 47.365800550584346 30.750000000000007
endloop
endfacet
facet normal -1.6736206657798551e-15 1.0 8.291992261257008e-16
outer loop
vertex 752.5384056362977 47.365800550584346 27.250000000000018
vertex 754.5384056362977 47.365800550584346 30.75
vertex 754.5384056362977 47.36580055058436 24.750000000000025
endloop
endfacet
facet normal -1.6736206657798551e-15 1.0 8.291992261257008e-16
outer loop
vertex 752.5384056362977 47.365800550584346 27.250000000000018
vertex 754.5384056362977 47.36580055058436 24.750000000000025
vertex 751.7884056362976 47.365800550584346 27.250000000000018
endloop
endfacet
facet normal 6.806815647529386e-16 -7.125347408577826e-15 -1.0
outer loop
vertex 759.5384056362976 53.36580055058433 30.749999999999964
vertex 752.5384056362977 47.365800550584346 30.750000000000007
vertex 752.5384056362977 53.365800550584346 30.749999999999954
endloop
endfacet
facet normal 6.806815647529386e-16 -7.125347408577826e-15 -1.0
outer loop
vertex 752.5384056362977 47.365800550584346 30.750000000000007
vertex 759.5384056362976 53.36580055058433 30.749999999999964
vertex 754.5384056362977 47.365800550584346 30.75
endloop
endfacet
facet normal 6.806815647529386e-16 -7.125347408577826e-15 -1.0
outer loop
vertex 754.5384056362977 47.365800550584346 30.75
vertex 759.5384056362976 53.36580055058433 30.749999999999964
vertex 754.5384056362977 41.36580055058435 30.750000000000046
endloop
endfacet
facet normal 6.806815647529386e-16 -7.125347408577826e-15 -1.0
outer loop
vertex 754.5384056362977 41.36580055058435 30.750000000000046
vertex 759.5384056362976 53.36580055058433 30.749999999999964
vertex 757.5384056362977 47.365800550584346 30.75
endloop
endfacet
facet normal 6.806815647529386e-16 -7.125347408577826e-15 -1.0
outer loop
vertex 757.5384056362977 47.365800550584346 30.75
vertex 759.5384056362976 53.36580055058433 30.749999999999964
vertex 759.5384056362976 47.36580055058434 30.750000000000007
endloop
endfacet
facet normal 6.806815647529386e-16 -7.125347408577826e-15 -1.0
outer loop
vertex 757.5384056362977 41.36580055058435 30.750000000000046
vertex 754.5384056362977 41.36580055058435 30.750000000000046
vertex 757.5384056362977 47.365800550584346 30.75
endloop
endfacet
facet normal -1.0 7.557230275809606e-16 -1.2595383793017908e-14
outer loop
vertex 752.5384056362977 41.36580055058435 27.250000000000053
vertex 752.5384056362977 47.365800550584346 30.750000000000007
vertex 752.5384056362977 47.365800550584346 27.250000000000018
endloop
endfacet
facet normal -1.0 7.557230275809606e-16 -1.2595383793017908e-14
outer loop
vertex 752.5384056362977 47.365800550584346 30.750000000000007
vertex 752.5384056362977 41.36580055058435 27.250000000000053
vertex 752.5384056362976 41.36580055058444 34.750000000000085
endloop
endfacet
facet normal -1.0 7.557230275809606e-16 -1.2595383793017908e-14
outer loop
vertex 752.5384056362977 53.365800550584346 30.749999999999954
vertex 752.5384056362976 41.36580055058444 34.750000000000085
vertex 752.5384056362976 53.36580055058439 34.749999999999964
endloop
endfacet
facet normal -1.0 7.557230275809606e-16 -1.2595383793017908e-14
outer loop
vertex 752.5384056362976 41.36580055058444 34.750000000000085
vertex 752.5384056362977 53.365800550584346 30.749999999999954
vertex 752.5384056362977 47.365800550584346 30.750000000000007
endloop
endfacet
facet normal 1.0 0.0 0.0
outer loop
vertex 759.5384056362976 41.36580055058444 34.7500000000001
vertex 759.5384056362976 53.36580055058433 30.749999999999964
vertex 759.5384056362976 53.36580055058439 34.74999999999998
endloop
endfacet
facet normal 1.0 0.0 0.0
outer loop
vertex 759.5384056362976 53.36580055058433 30.749999999999964
vertex 759.5384056362976 41.36580055058444 34.7500000000001
vertex 759.5384056362976 47.36580055058434 30.750000000000007
endloop
endfacet
facet normal 1.0 0.0 0.0
outer loop
vertex 759.5384056362976 47.36580055058434 30.750000000000007
vertex 759.5384056362976 41.36580055058435 27.250000000000053
vertex 759.5384056362976 47.365800550584346 27.250000000000018
endloop
endfacet
facet normal 1.0 0.0 0.0
outer loop
vertex 759.5384056362976 41.36580055058435 27.250000000000053
vertex 759.5384056362976 47.36580055058434 30.750000000000007
vertex 759.5384056362976 41.36580055058444 34.7500000000001
endloop
endfacet
facet normal -3.659706610804557e-29 -1.0 6.898168366164661e-15
outer loop
vertex 754.5384056362977 41.365800550584375 24.75000000000006
vertex 752.5384056362977 41.36580055058435 27.250000000000053
vertex 751.7884056362976 41.36580055058435 27.250000000000053
endloop
endfacet
facet normal -3.659706610804557e-29 -1.0 6.898168366164661e-15
outer loop
vertex 753.0073167230521 41.365800550584446 36.49999999999999
vertex 756.0384056362976 41.36580055058441 36.7500000000001
vertex 753.2616689452783 41.36580055058443 36.88066500153052
endloop
endfacet
facet normal -3.659706610804557e-29 -1.0 6.898168366164661e-15
outer loop
vertex 756.0384056362976 41.36580055058441 36.7500000000001
vertex 753.0073167230521 41.365800550584446 36.49999999999999
vertex 755.5207675460925 41.36580055058445 36.68185165257823
endloop
endfacet
facet normal -3.659706610804557e-29 -1.0 6.898168366164661e-15
outer loop
vertex 755.5207675460925 41.36580055058445 36.68185165257823
vertex 753.0073167230521 41.365800550584446 36.49999999999999
vertex 755.0384056362976 41.36580055058445 36.482050807568974
endloop
endfacet
facet normal -3.659706610804557e-29 -1.0 6.898168366164661e-15
outer loop
vertex 755.0384056362976 41.36580055058445 36.482050807568974
vertex 753.0073167230521 41.365800550584446 36.49999999999999
vertex 752.8048272725082 41.36580055058442 36.089392013277795
endloop
endfacet
facet normal -3.659706610804557e-29 -1.0 6.898168366164661e-15
outer loop
vertex 755.0384056362976 41.36580055058445 36.482050807568974
vertex 752.8048272725082 41.36580055058442 36.089392013277795
vertex 754.6241920739245 41.3658005505844 36.16421356237319
endloop
endfacet
facet normal -3.659706610804557e-29 -1.0 6.898168366164661e-15
outer loop
vertex 754.6241920739245 41.3658005505844 36.16421356237319
vertex 752.8048272725082 41.36580055058442 36.089392013277795
vertex 754.3063548287288 41.365800550584446 35.7500000000001
endloop
endfacet
facet normal -3.659706610804557e-29 -1.0 6.898168366164661e-15
outer loop
vertex 754.3063548287288 41.365800550584446 35.7500000000001
vertex 752.8048272725082 41.36580055058442 36.089392013277795
vertex 752.6576652442859 41.365800550584446 35.65586665785881
endloop
endfacet
facet normal -3.659706610804557e-29 -1.0 6.898168366164661e-15
outer loop
vertex 754.3063548287288 41.365800550584446 35.7500000000001
vertex 752.6576652442859 41.365800550584446 35.65586665785881
vertex 754.1065539837196 41.3658005505844 35.26763809020514
endloop
endfacet
facet normal -3.659706610804557e-29 -1.0 6.898168366164661e-15
outer loop
vertex 754.1065539837196 41.3658005505844 35.26763809020514
vertex 752.6576652442859 41.365800550584446 35.65586665785881
vertex 752.5683486214892 41.36580055058442 35.20684167277016
endloop
endfacet
facet normal -3.659706610804557e-29 -1.0 6.898168366164661e-15
outer loop
vertex 754.1065539837196 41.3658005505844 35.26763809020514
vertex 752.5683486214892 41.36580055058442 35.20684167277016
vertex 754.0384056362976 41.36580055058444 34.7500000000001
endloop
endfacet
facet normal -3.659706610804557e-29 -1.0 6.898168366164661e-15
outer loop
vertex 754.0384056362976 41.36580055058444 34.7500000000001
vertex 752.5683486214892 41.36580055058442 35.20684167277016
vertex 752.5384056362976 41.36580055058444 34.750000000000085
endloop
endfacet
facet normal -3.659706610804557e-29 -1.0 6.898168366164661e-15
outer loop
vertex 754.0384056362976 41.36580055058444 34.7500000000001
vertex 752.5384056362976 41.36580055058444 34.750000000000085
vertex 754.1065539837196 41.365800550584396 34.23236190979505
endloop
endfacet
facet normal -3.659706610804557e-29 -1.0 6.898168366164661e-15
outer loop
vertex 754.1065539837196 41.365800550584396 34.23236190979505
vertex 752.5384056362976 41.36580055058444 34.750000000000085
vertex 752.5384056362977 41.36580055058435 27.250000000000053
endloop
endfacet
facet normal -3.659706610804557e-29 -1.0 6.898168366164661e-15
outer loop
vertex 754.1065539837196 41.365800550584396 34.23236190979505
vertex 752.5384056362977 41.36580055058435 27.250000000000053
vertex 754.3063548287288 41.36580055058443 33.7500000000001
endloop
endfacet
facet normal -3.659706610804557e-29 -1.0 6.898168366164661e-15
outer loop
vertex 754.3063548287288 41.36580055058443 33.7500000000001
vertex 752.5384056362977 41.36580055058435 27.250000000000053
vertex 754.6241920739245 41.36580055058439 33.335786437627
endloop
endfacet
facet normal -3.659706610804557e-29 -1.0 6.898168366164661e-15
outer loop
vertex 754.6241920739245 41.36580055058439 33.335786437627
vertex 752.5384056362977 41.36580055058435 27.250000000000053
vertex 755.0384056362976 41.36580055058443 33.017949192431225
endloop
endfacet
facet normal -3.659706610804557e-29 -1.0 6.898168366164661e-15
outer loop
vertex 755.0384056362976 41.36580055058443 33.017949192431225
vertex 752.5384056362977 41.36580055058435 27.250000000000053
vertex 755.5207675460925 41.36580055058443 32.81814834742196
endloop
endfacet
facet normal -3.659706610804557e-29 -1.0 6.898168366164661e-15
outer loop
vertex 755.5207675460925 41.36580055058443 32.81814834742196
vertex 752.5384056362977 41.36580055058435 27.250000000000053
vertex 754.5384056362977 41.36580055058435 30.750000000000046
endloop
endfacet
facet normal -3.659706610804557e-29 -1.0 6.898168366164661e-15
outer loop
vertex 755.5207675460925 41.36580055058443 32.81814834742196
vertex 754.5384056362977 41.36580055058435 30.750000000000046
vertex 756.0384056362976 41.36580055058439 32.7500000000001
endloop
endfacet
facet normal -3.659706610804557e-29 -1.0 6.898168366164661e-15
outer loop
vertex 754.5384056362977 41.36580055058435 30.750000000000046
vertex 752.5384056362977 41.36580055058435 27.250000000000053
vertex 754.5384056362977 41.365800550584375 24.75000000000006
endloop
endfacet
facet normal -3.659706610804557e-29 -1.0 6.898168366164661e-15
outer loop
vertex 755.5815639635275 41.36580055058443 38.22005701480835
vertex 756.4952473090678 41.36580055058443 38.220057014808354
vertex 756.0384056362976 41.36580055058443 38.250000000000014
endloop
endfacet
facet normal -3.659706610804557e-29 -1.0 6.898168366164661e-15
outer loop
vertex 756.4952473090678 41.36580055058443 38.220057014808354
vertex 755.5815639635275 41.36580055058443 38.22005701480835
vertex 756.9442722941566 41.36580055058443 38.13074039201176
endloop
endfacet
facet normal -3.659706610804557e-29 -1.0 6.898168366164661e-15
outer loop
vertex 756.9442722941566 41.36580055058443 38.13074039201176
vertex 755.5815639635275 41.36580055058443 38.22005701480835
vertex 755.1325389784388 41.36580055058443 38.130740392011745
endloop
endfacet
facet normal -3.659706610804557e-29 -1.0 6.898168366164661e-15
outer loop
vertex 756.9442722941566 41.36580055058443 38.13074039201176
vertex 755.1325389784388 41.36580055058443 38.130740392011745
vertex 757.3777976495754 41.36580055058443 37.98357836378953
endloop
endfacet
facet normal -3.659706610804557e-29 -1.0 6.898168366164661e-15
outer loop
vertex 757.3777976495754 41.36580055058443 37.98357836378953
vertex 755.1325389784388 41.36580055058443 38.130740392011745
vertex 754.6990136230199 41.36580055058443 37.983578363789505
endloop
endfacet
facet normal -3.659706610804557e-29 -1.0 6.898168366164661e-15
outer loop
vertex 757.3777976495754 41.36580055058443 37.98357836378953
vertex 754.6990136230199 41.36580055058443 37.983578363789505
vertex 757.7884056362977 41.36580055058443 37.78108891324556
endloop
endfacet
facet normal -3.659706610804557e-29 -1.0 6.898168366164661e-15
outer loop
vertex 757.7884056362977 41.36580055058443 37.78108891324556
vertex 754.6990136230199 41.36580055058443 37.983578363789505
vertex 754.2884056362976 41.36580055058443 37.78108891324554
endloop
endfacet
facet normal -3.659706610804557e-29 -1.0 6.898168366164661e-15
outer loop
vertex 757.7884056362977 41.36580055058443 37.78108891324556
vertex 754.2884056362976 41.36580055058443 37.78108891324554
vertex 758.1690706378282 41.36580055058445 37.526736691019345
endloop
endfacet
facet normal -3.659706610804557e-29 -1.0 6.898168366164661e-15
outer loop
vertex 758.1690706378282 41.36580055058445 37.526736691019345
vertex 754.2884056362976 41.36580055058443 37.78108891324554
vertex 753.9077406347672 41.36580055058445 37.52673669101932
endloop
endfacet
facet normal -3.659706610804557e-29 -1.0 6.898168366164661e-15
outer loop
vertex 758.1690706378282 41.36580055058445 37.526736691019345
vertex 753.9077406347672 41.36580055058445 37.52673669101932
vertex 758.5132793704506 41.36580055058443 37.22487373415294
endloop
endfacet
facet normal -3.659706610804557e-29 -1.0 6.898168366164661e-15
outer loop
vertex 758.5132793704506 41.36580055058443 37.22487373415294
vertex 753.9077406347672 41.36580055058445 37.52673669101932
vertex 753.5635319021447 41.36580055058443 37.22487373415291
endloop
endfacet
facet normal -3.659706610804557e-29 -1.0 6.898168366164661e-15
outer loop
vertex 758.5132793704506 41.36580055058443 37.22487373415294
vertex 753.5635319021447 41.36580055058443 37.22487373415291
vertex 758.815142327317 41.36580055058443 36.880665001530545
endloop
endfacet
facet normal -3.659706610804557e-29 -1.0 6.898168366164661e-15
outer loop
vertex 758.815142327317 41.36580055058443 36.880665001530545
vertex 753.5635319021447 41.36580055058443 37.22487373415291
vertex 753.2616689452783 41.36580055058443 36.88066500153052
endloop
endfacet
facet normal -3.659706610804557e-29 -1.0 6.898168366164661e-15
outer loop
vertex 758.815142327317 41.36580055058443 36.880665001530545
vertex 753.2616689452783 41.36580055058443 36.88066500153052
vertex 756.0384056362976 41.36580055058441 36.7500000000001
endloop
endfacet
facet normal -3.659706610804557e-29 -1.0 6.898168366164661e-15
outer loop
vertex 758.815142327317 41.36580055058443 36.880665001530545
vertex 756.0384056362976 41.36580055058441 36.7500000000001
vertex 759.0694945495432 41.365800550584446 36.50000000000002
endloop
endfacet
facet normal -3.659706610804557e-29 -1.0 6.898168366164661e-15
outer loop
vertex 759.0694945495432 41.365800550584446 36.50000000000002
vertex 756.0384056362976 41.36580055058441 36.7500000000001
vertex 756.5560437265027 41.36580055058445 36.68185165257823
endloop
endfacet
facet normal -3.659706610804557e-29 -1.0 6.898168366164661e-15
outer loop
vertex 759.0694945495432 41.365800550584446 36.50000000000002
vertex 756.5560437265027 41.36580055058445 36.68185165257823
vertex 757.0384056362977 41.36580055058445 36.482050807568974
endloop
endfacet
facet normal -3.659706610804557e-29 -1.0 6.898168366164661e-15
outer loop
vertex 759.0694945495432 41.365800550584446 36.50000000000002
vertex 757.0384056362977 41.36580055058445 36.482050807568974
vertex 759.2719840000872 41.36580055058442 36.089392013277845
endloop
endfacet
facet normal -3.659706610804557e-29 -1.0 6.898168366164661e-15
outer loop
vertex 759.2719840000872 41.36580055058442 36.089392013277845
vertex 757.0384056362977 41.36580055058445 36.482050807568974
vertex 757.4526191986707 41.3658005505844 36.16421356237319
endloop
endfacet
facet normal -3.659706610804557e-29 -1.0 6.898168366164661e-15
outer loop
vertex 759.2719840000872 41.36580055058442 36.089392013277845
vertex 757.4526191986707 41.3658005505844 36.16421356237319
vertex 757.7704564438666 41.365800550584446 35.7500000000001
endloop
endfacet
facet normal -3.659706610804557e-29 -1.0 6.898168366164661e-15
outer loop
vertex 759.2719840000872 41.36580055058442 36.089392013277845
vertex 757.7704564438666 41.365800550584446 35.7500000000001
vertex 759.4191460283095 41.365800550584446 35.655866657858844
endloop
endfacet
facet normal -3.659706610804557e-29 -1.0 6.898168366164661e-15
outer loop
vertex 759.4191460283095 41.365800550584446 35.655866657858844
vertex 757.7704564438666 41.365800550584446 35.7500000000001
vertex 757.9702572888758 41.3658005505844 35.26763809020514
endloop
endfacet
facet normal -3.659706610804557e-29 -1.0 6.898168366164661e-15
outer loop
vertex 759.4191460283095 41.365800550584446 35.655866657858844
vertex 757.9702572888758 41.3658005505844 35.26763809020514
vertex 759.508462651106 41.36580055058442 35.2068416727702
endloop
endfacet
facet normal -3.659706610804557e-29 -1.0 6.898168366164661e-15
outer loop
vertex 759.508462651106 41.36580055058442 35.2068416727702
vertex 757.9702572888758 41.3658005505844 35.26763809020514
vertex 758.0384056362976 41.36580055058444 34.7500000000001
endloop
endfacet
facet normal -3.659706610804557e-29 -1.0 6.898168366164661e-15
outer loop
vertex 759.508462651106 41.36580055058442 35.2068416727702
vertex 758.0384056362976 41.36580055058444 34.7500000000001
vertex 759.5384056362976 41.36580055058444 34.7500000000001
endloop
endfacet
facet normal -3.659706610804557e-29 -1.0 6.898168366164661e-15
outer loop
vertex 759.5384056362976 41.36580055058444 34.7500000000001
vertex 758.0384056362976 41.36580055058444 34.7500000000001
vertex 757.9702572888758 41.365800550584396 34.23236190979505
endloop
endfacet
facet normal -3.659706610804557e-29 -1.0 6.898168366164661e-15
outer loop
vertex 759.5384056362976 41.36580055058444 34.7500000000001
vertex 757.9702572888758 41.365800550584396 34.23236190979505
vertex 759.5384056362976 41.36580055058435 27.250000000000053
endloop
endfacet
facet normal -3.659706610804557e-29 -1.0 6.898168366164661e-15
outer loop
vertex 759.5384056362976 41.36580055058435 27.250000000000053
vertex 757.9702572888758 41.365800550584396 34.23236190979505
vertex 757.7704564438666 41.36580055058443 33.7500000000001
endloop
endfacet
facet normal -3.659706610804557e-29 -1.0 6.898168366164661e-15
outer loop
vertex 759.5384056362976 41.36580055058435 27.250000000000053
vertex 757.7704564438666 41.36580055058443 33.7500000000001
vertex 757.4526191986707 41.36580055058439 33.335786437627
endloop
endfacet
facet normal -3.659706610804557e-29 -1.0 6.898168366164661e-15
outer loop
vertex 759.5384056362976 41.36580055058435 27.250000000000053
vertex 757.4526191986707 41.36580055058439 33.335786437627
vertex 757.0384056362977 41.36580055058443 33.017949192431225
endloop
endfacet
facet normal -3.659706610804557e-29 -1.0 6.898168366164661e-15
outer loop
vertex 759.5384056362976 41.36580055058435 27.250000000000053
vertex 757.0384056362977 41.36580055058443 33.017949192431225
vertex 756.5560437265027 41.36580055058443 32.81814834742196
endloop
endfacet
facet normal -3.659706610804557e-29 -1.0 6.898168366164661e-15
outer loop
vertex 759.5384056362976 41.36580055058435 27.250000000000053
vertex 756.5560437265027 41.36580055058443 32.81814834742196
vertex 757.5384056362977 41.36580055058435 30.750000000000046
endloop
endfacet
facet normal -3.659706610804557e-29 -1.0 6.898168366164661e-15
outer loop
vertex 757.5384056362977 41.36580055058435 30.750000000000046
vertex 756.5560437265027 41.36580055058443 32.81814834742196
vertex 756.0384056362976 41.36580055058439 32.7500000000001
endloop
endfacet
facet normal -3.659706610804557e-29 -1.0 6.898168366164661e-15
outer loop
vertex 757.5384056362977 41.36580055058435 30.750000000000046
vertex 756.0384056362976 41.36580055058439 32.7500000000001
vertex 754.5384056362977 41.36580055058435 30.750000000000046
endloop
endfacet
facet normal -3.659706610804557e-29 -1.0 6.898168366164661e-15
outer loop
vertex 759.5384056362976 41.36580055058435 27.250000000000053
vertex 757.5384056362977 41.36580055058435 30.750000000000046
vertex 757.5384056362977 41.365800550584375 24.75000000000006
endloop
endfacet
facet normal -3.659706610804557e-29 -1.0 6.898168366164661e-15
outer loop
vertex 759.5384056362976 41.36580055058435 27.250000000000053
vertex 757.5384056362977 41.365800550584375 24.75000000000006
vertex 760.2884056362977 41.36580055058435 27.250000000000053
endloop
endfacet
facet normal -0.9978589232386063 2.8504190728171493e-16 0.06540312923010269
outer loop
vertex 752.5384056362976 53.36580055058439 34.749999999999964
vertex 752.5683486214892 41.36580055058442 35.20684167277016
vertex 752.5683486214892 53.365800550584446 35.206841672770125
endloop
endfacet
facet normal -0.9914448613738119 5.736946605632579e-16 0.13052619222004058
outer loop
vertex 752.5683486214892 41.36580055058442 35.20684167277016
vertex 752.5384056362976 53.36580055058439 34.749999999999964
vertex 752.5384056362976 41.36580055058444 34.750000000000085
endloop
endfacet
facet normal -0.9914448613738119 5.736946605632579e-16 0.13052619222004058
outer loop
vertex 752.5683486214892 41.36580055058442 35.20684167277016
vertex 752.6576652442859 53.36580055058439 35.655866657858766
vertex 752.5683486214892 53.365800550584446 35.206841672770125
endloop
endfacet
facet normal -0.9659258262890541 1.1407849679581855e-15 0.2588190451025743
outer loop
vertex 752.6576652442859 53.36580055058439 35.655866657858766
vertex 752.5683486214892 41.36580055058442 35.20684167277016
vertex 752.6576652442859 41.365800550584446 35.65586665785881
endloop
endfacet
facet normal -0.9659258262890534 1.1407849679581965e-15 0.2588190451025768
outer loop
vertex 752.6576652442859 41.365800550584446 35.65586665785881
vertex 752.8048272725082 53.36580055058439 36.08939201327776
vertex 752.6576652442859 53.36580055058439 35.655866657858766
endloop
endfacet
facet normal -0.9238795325112775 1.6867364105904377e-15 0.3826834323651123
outer loop
vertex 752.8048272725082 53.36580055058439 36.08939201327776
vertex 752.6576652442859 41.365800550584446 35.65586665785881
vertex 752.8048272725082 41.36580055058442 36.089392013277795
endloop
endfacet
facet normal -0.9238795325112774 1.6867364105904379e-15 0.3826834323651123
outer loop
vertex 752.8048272725082 41.36580055058442 36.089392013277795
vertex 753.0073167230521 53.36580055058439 36.49999999999995
vertex 752.8048272725082 53.36580055058439 36.08939201327776
endloop
endfacet
facet normal -0.8660254037844409 2.2038273255858273e-15 0.4999999999999961
outer loop
vertex 753.0073167230521 53.36580055058439 36.49999999999995
vertex 752.8048272725082 41.36580055058442 36.089392013277795
vertex 753.0073167230521 41.365800550584446 36.49999999999999
endloop
endfacet
facet normal -0.8660254037844409 2.2038273255858273e-15 0.4999999999999961
outer loop
vertex 753.0073167230521 53.36580055058439 36.49999999999995
vertex 753.2616689452783 41.36580055058443 36.88066500153052
vertex 753.2616689452783 53.36580055058441 36.88066500153047
endloop
endfacet
facet normal -0.7933533402912247 2.683210144024268e-15 0.6087614290087344
outer loop
vertex 753.2616689452783 41.36580055058443 36.88066500153052
vertex 753.0073167230521 53.36580055058439 36.49999999999995
vertex 753.0073167230521 41.365800550584446 36.49999999999999
endloop
endfacet
facet normal -0.7933533402912247 2.683210144024268e-15 0.6087614290087344
outer loop
vertex 753.2616689452783 41.36580055058443 36.88066500153052
vertex 753.5635319021447 53.3658005505844 37.224873734152865
vertex 753.2616689452783 53.36580055058441 36.88066500153047
endloop
endfacet
facet normal -0.7071067811865515 3.1166824929719013e-15 0.7071067811865436
outer loop
vertex 753.5635319021447 53.3658005505844 37.224873734152865
vertex 753.2616689452783 41.36580055058443 36.88066500153052
vertex 753.5635319021447 41.36580055058443 37.22487373415291
endloop
endfacet
facet normal -0.6087614290087605 3.4968275403571096e-15 0.7933533402912047
outer loop
vertex 753.9077406347672 41.36580055058445 37.52673669101932
vertex 753.5635319021447 53.3658005505844 37.224873734152865
vertex 753.5635319021447 41.36580055058443 37.22487373415291
endloop
endfacet
facet normal -0.7071067811865515 3.1166824929719013e-15 0.7071067811865436
outer loop
vertex 753.5635319021447 53.3658005505844 37.224873734152865
vertex 753.9077406347672 41.36580055058445 37.52673669101932
vertex 753.9077406347672 53.3658005505844 37.52673669101927
endloop
endfacet
facet normal -0.5000000000000054 3.8171408990232894e-15 0.8660254037844355
outer loop
vertex 754.2884056362976 41.36580055058443 37.78108891324554
vertex 753.9077406347672 53.3658005505844 37.52673669101927
vertex 753.9077406347672 41.36580055058445 37.52673669101932
endloop
endfacet
facet normal -0.6087614290087606 3.49682754035711e-15 0.7933533402912047
outer loop
vertex 753.9077406347672 53.3658005505844 37.52673669101927
vertex 754.2884056362976 41.36580055058443 37.78108891324554
vertex 754.2884056362976 53.3658005505844 37.78108891324549
endloop
endfacet
facet normal -0.3826834323650799 4.0721419185956954e-15 0.9238795325112908
outer loop
vertex 754.6990136230199 41.36580055058443 37.983578363789505
vertex 754.2884056362976 53.3658005505844 37.78108891324549
vertex 754.2884056362976 41.36580055058443 37.78108891324554
endloop
endfacet
facet normal -0.5000000000000066 3.817140899023286e-15 0.8660254037844349
outer loop
vertex 754.2884056362976 53.3658005505844 37.78108891324549
vertex 754.6990136230199 41.36580055058443 37.983578363789505
vertex 754.6990136230199 53.3658005505844 37.98357836378946
endloop
endfacet
facet normal -0.25881904510254355 4.257467460929817e-15 0.9659258262890622
outer loop
vertex 755.1325389784388 41.36580055058443 38.130740392011745
vertex 754.6990136230199 53.3658005505844 37.98357836378946
vertex 754.6990136230199 41.36580055058443 37.983578363789505
endloop
endfacet
facet normal -0.38268343236507985 4.0721419185956954e-15 0.923879532511291
outer loop
vertex 754.6990136230199 53.3658005505844 37.98357836378946
vertex 755.1325389784388 41.36580055058443 38.130740392011745
vertex 755.1325389784388 53.3658005505844 38.1307403920117
endloop
endfacet
facet normal -0.13052619222005135 4.369946554614519e-15 0.9914448613738106
outer loop
vertex 755.5815639635275 41.36580055058443 38.22005701480835
vertex 755.1325389784388 53.3658005505844 38.1307403920117
vertex 755.1325389784388 41.36580055058443 38.130740392011745
endloop
endfacet
facet normal -0.2588190451025432 4.2574674609298175e-15 0.9659258262890624
outer loop
vertex 755.1325389784388 53.3658005505844 38.1307403920117
vertex 755.5815639635275 41.36580055058443 38.22005701480835
vertex 755.5815639635275 53.3658005505844 38.2200570148083
endloop
endfacet
facet normal -1.2284690299729005e-14 4.4076546511716585e-15 1.0
outer loop
vertex 756.0384056362976 41.36580055058443 38.250000000000014
vertex 755.5815639635275 53.3658005505844 38.2200570148083
vertex 755.5815639635275 41.36580055058443 38.22005701480835
endloop
endfacet
facet normal -0.13052619222005105 4.369946554614519e-15 0.9914448613738106
outer loop
vertex 755.5815639635275 53.3658005505844 38.2200570148083
vertex 756.0384056362976 41.36580055058443 38.250000000000014
vertex 756.0384056362976 53.3658005505844 38.24999999999997
endloop
endfacet
facet normal 0.1305261922200391 4.369946554614521e-15 0.991444861373812
outer loop
vertex 756.4952473090678 41.36580055058443 38.220057014808354
vertex 756.0384056362976 53.3658005505844 38.24999999999997
vertex 756.0384056362976 41.36580055058443 38.250000000000014
endloop
endfacet
facet normal -1.2289117215152333e-14 4.4076546511716585e-15 1.0
outer loop
vertex 756.0384056362976 53.3658005505844 38.24999999999997
vertex 756.4952473090678 41.36580055058443 38.220057014808354
vertex 756.4952473090678 53.3658005505844 38.22005701480831
endloop
endfacet
facet normal 0.25881904510253223 4.2574674609298215e-15 0.9659258262890652
outer loop
vertex 756.9442722941566 41.36580055058443 38.13074039201176
vertex 756.4952473090678 53.3658005505844 38.22005701480831
vertex 756.4952473090678 41.36580055058443 38.220057014808354
endloop
endfacet
facet normal 0.13052619222003883 4.3699465546145205e-15 0.991444861373812
outer loop
vertex 756.4952473090678 53.3658005505844 38.22005701480831
vertex 756.9442722941566 41.36580055058443 38.13074039201176
vertex 756.9442722941566 53.3658005505844 38.13074039201171
endloop
endfacet
facet normal 0.38268343236506913 4.072141918595703e-15 0.9238795325112955
outer loop
vertex 757.3777976495754 41.36580055058443 37.98357836378953
vertex 756.9442722941566 53.3658005505844 38.13074039201171
vertex 756.9442722941566 41.36580055058443 38.13074039201176
endloop
endfacet
facet normal 0.25881904510253195 4.2574674609298215e-15 0.9659258262890654
outer loop
vertex 756.9442722941566 53.3658005505844 38.13074039201171
vertex 757.3777976495754 41.36580055058443 37.98357836378953
vertex 757.3777976495754 53.3658005505844 37.98357836378948
endloop
endfacet
facet normal 0.5000000000000054 3.817140899023272e-15 0.8660254037844355
outer loop
vertex 757.7884056362977 41.36580055058443 37.78108891324556
vertex 757.3777976495754 53.3658005505844 37.98357836378948
vertex 757.3777976495754 41.36580055058443 37.98357836378953
endloop
endfacet
facet normal 0.382683432365069 4.0721419185957025e-15 0.9238795325112954
outer loop
vertex 757.3777976495754 53.3658005505844 37.98357836378948
vertex 757.7884056362977 41.36580055058443 37.78108891324556
vertex 757.7884056362977 53.3658005505844 37.78108891324552
endloop
endfacet
facet normal 0.6087614290087532 3.496827540357113e-15 0.7933533402912103
outer loop
vertex 758.1690706378282 41.36580055058445 37.526736691019345
vertex 757.7884056362977 53.3658005505844 37.78108891324552
vertex 757.7884056362977 41.36580055058443 37.78108891324556
endloop
endfacet
facet normal 0.5000000000000066 3.81714089902327e-15 0.8660254037844349
outer loop
vertex 757.7884056362977 53.3658005505844 37.78108891324552
vertex 758.1690706378282 41.36580055058445 37.526736691019345
vertex 758.1690706378282 53.3658005505844 37.5267366910193
endloop
endfacet
facet normal 0.707106781186545 3.1166824929719052e-15 0.70710678118655
outer loop
vertex 758.5132793704506 41.36580055058443 37.22487373415294
vertex 758.1690706378282 53.3658005505844 37.5267366910193
vertex 758.1690706378282 41.36580055058445 37.526736691019345
endloop
endfacet
facet normal 0.6087614290087532 3.4968275403571135e-15 0.7933533402912102
outer loop
vertex 758.1690706378282 53.3658005505844 37.5267366910193
vertex 758.5132793704506 41.36580055058443 37.22487373415294
vertex 758.5132793704506 53.3658005505844 37.2248737341529
endloop
endfacet
facet normal 0.7071067811865449 3.116682492971906e-15 0.7071067811865501
outer loop
vertex 758.5132793704506 53.3658005505844 37.2248737341529
vertex 758.815142327317 41.36580055058443 36.880665001530545
vertex 758.815142327317 53.36580055058441 36.8806650015305
endloop
endfacet
facet normal 0.7933533402912247 2.6832101440242402e-15 0.6087614290087344
outer loop
vertex 758.815142327317 41.36580055058443 36.880665001530545
vertex 758.5132793704506 53.3658005505844 37.2248737341529
vertex 758.5132793704506 41.36580055058443 37.22487373415294
endloop
endfacet
facet normal 0.7933533402912247 2.6832101440242402e-15 0.6087614290087344
outer loop
vertex 758.815142327317 41.36580055058443 36.880665001530545
vertex 759.0694945495432 53.36580055058439 36.499999999999986
vertex 758.815142327317 53.36580055058441 36.8806650015305
endloop
endfacet
facet normal 0.8660254037844383 2.2038273255858186e-15 0.500000000000001
outer loop
vertex 759.0694945495432 53.36580055058439 36.499999999999986
vertex 758.815142327317 41.36580055058443 36.880665001530545
vertex 759.0694945495432 41.365800550584446 36.50000000000002
endloop
endfacet
facet normal 0.8660254037844389 2.203827325585812e-15 0.4999999999999995
outer loop
vertex 759.0694945495432 41.365800550584446 36.50000000000002
vertex 759.2719840000872 53.36580055058439 36.0893920132778
vertex 759.0694945495432 53.36580055058439 36.499999999999986
endloop
endfacet
facet normal 0.9238795325112762 1.6867364105904197e-15 0.3826834323651155
outer loop
vertex 759.2719840000872 53.36580055058439 36.0893920132778
vertex 759.0694945495432 41.365800550584446 36.50000000000002
vertex 759.2719840000872 41.36580055058442 36.089392013277845
endloop
endfacet
facet normal 0.9238795325112762 1.6867364105904197e-15 0.3826834323651155
outer loop
vertex 759.2719840000872 41.36580055058442 36.089392013277845
vertex 759.4191460283095 53.36580055058439 35.6558666578588
vertex 759.2719840000872 53.36580055058439 36.0893920132778
endloop
endfacet
facet normal 0.9659258262890545 1.1407849679581439e-15 0.25881904510257236
outer loop
vertex 759.4191460283095 53.36580055058439 35.6558666578588
vertex 759.2719840000872 41.36580055058442 36.089392013277845
vertex 759.4191460283095 41.365800550584446 35.655866657858844
endloop
endfacet
facet normal 0.9659258262890545 1.1407849679581439e-15 0.25881904510257236
outer loop
vertex 759.4191460283095 53.36580055058439 35.6558666578588
vertex 759.508462651106 41.36580055058442 35.2068416727702
vertex 759.508462651106 53.365800550584446 35.20684167277015
endloop
endfacet
facet normal 0.991444861373812 5.821061846521072e-16 0.13052619222003878
outer loop
vertex 759.508462651106 41.36580055058442 35.2068416727702
vertex 759.4191460283095 53.36580055058439 35.6558666578588
vertex 759.4191460283095 41.365800550584446 35.655866657858844
endloop
endfacet
facet normal 0.991444861373812 5.821061846521072e-16 0.13052619222003878
outer loop
vertex 759.508462651106 41.36580055058442 35.2068416727702
vertex 759.5384056362976 53.36580055058439 34.74999999999998
vertex 759.508462651106 53.365800550584446 35.20684167277015
endloop
endfacet
facet normal 0.9978589232386065 3.018289360219381e-16 0.06540312923009906
outer loop
vertex 759.5384056362976 53.36580055058439 34.74999999999998
vertex 759.508462651106 41.36580055058442 35.2068416727702
vertex 759.5384056362976 41.36580055058444 34.7500000000001
endloop
endfacet
facet normal 2.1485458914654716e-16 1.0 -7.735862839926588e-15
outer loop
vertex 756.4952473090678 53.3658005505844 38.22005701480831
vertex 755.5815639635275 53.3658005505844 38.2200570148083
vertex 756.0384056362976 53.3658005505844 38.24999999999997
endloop
endfacet
facet normal 2.1485458914654716e-16 1.0 -7.735862839926588e-15
outer loop
vertex 755.5815639635275 53.3658005505844 38.2200570148083
vertex 756.4952473090678 53.3658005505844 38.22005701480831
vertex 756.9442722941566 53.3658005505844 38.13074039201171
endloop
endfacet
facet normal 2.1485458914654716e-16 1.0 -7.735862839926588e-15
outer loop
vertex 755.5815639635275 53.3658005505844 38.2200570148083
vertex 756.9442722941566 53.3658005505844 38.13074039201171
vertex 755.1325389784388 53.3658005505844 38.1307403920117
endloop
endfacet
facet normal 2.1485458914654716e-16 1.0 -7.735862839926588e-15
outer loop
vertex 755.1325389784388 53.3658005505844 38.1307403920117
vertex 756.9442722941566 53.3658005505844 38.13074039201171
vertex 757.3777976495754 53.3658005505844 37.98357836378948
endloop
endfacet
facet normal 2.1485458914654716e-16 1.0 -7.735862839926588e-15
outer loop
vertex 755.1325389784388 53.3658005505844 38.1307403920117
vertex 757.3777976495754 53.3658005505844 37.98357836378948
vertex 754.6990136230199 53.3658005505844 37.98357836378946
endloop
endfacet
facet normal 2.1485458914654716e-16 1.0 -7.735862839926588e-15
outer loop
vertex 754.6990136230199 53.3658005505844 37.98357836378946
vertex 757.3777976495754 53.3658005505844 37.98357836378948
vertex 757.7884056362977 53.3658005505844 37.78108891324552
endloop
endfacet
facet normal 2.1485458914654716e-16 1.0 -7.735862839926588e-15
outer loop
vertex 754.6990136230199 53.3658005505844 37.98357836378946
vertex 757.7884056362977 53.3658005505844 37.78108891324552
vertex 754.2884056362976 53.3658005505844 37.78108891324549
endloop
endfacet
facet normal 2.1485458914654716e-16 1.0 -7.735862839926588e-15
outer loop
vertex 754.2884056362976 53.3658005505844 37.78108891324549
vertex 757.7884056362977 53.3658005505844 37.78108891324552
vertex 758.1690706378282 53.3658005505844 37.5267366910193
endloop
endfacet
facet normal 2.1485458914654716e-16 1.0 -7.735862839926588e-15
outer loop
vertex 754.2884056362976 53.3658005505844 37.78108891324549
vertex 758.1690706378282 53.3658005505844 37.5267366910193
vertex 753.9077406347672 53.3658005505844 37.52673669101927
endloop
endfacet
facet normal 2.1485458914654716e-16 1.0 -7.735862839926588e-15
outer loop
vertex 753.9077406347672 53.3658005505844 37.52673669101927
vertex 758.1690706378282 53.3658005505844 37.5267366910193
vertex 758.5132793704506 53.3658005505844 37.2248737341529
endloop
endfacet
facet normal 2.1485458914654716e-16 1.0 -7.735862839926588e-15
outer loop
vertex 753.9077406347672 53.3658005505844 37.52673669101927
vertex 758.5132793704506 53.3658005505844 37.2248737341529
vertex 753.5635319021447 53.3658005505844 37.224873734152865
endloop
endfacet
facet normal 2.1485458914654716e-16 1.0 -7.735862839926588e-15
outer loop
vertex 753.5635319021447 53.3658005505844 37.224873734152865
vertex 758.5132793704506 53.3658005505844 37.2248737341529
vertex 758.815142327317 53.36580055058441 36.8806650015305
endloop
endfacet
facet normal 2.1485458914654716e-16 1.0 -7.735862839926588e-15
outer loop
vertex 753.5635319021447 53.3658005505844 37.224873734152865
vertex 758.815142327317 53.36580055058441 36.8806650015305
vertex 753.2616689452783 53.36580055058441 36.88066500153047
endloop
endfacet
facet normal 2.1485458914654716e-16 1.0 -7.735862839926588e-15
outer loop
vertex 753.2616689452783 53.36580055058441 36.88066500153047
vertex 758.815142327317 53.36580055058441 36.8806650015305
vertex 756.0384056362976 53.36580055058437 36.74999999999997
endloop
endfacet
facet normal 2.1485458914654716e-16 1.0 -7.735862839926588e-15
outer loop
vertex 756.0384056362976 53.36580055058437 36.74999999999997
vertex 758.815142327317 53.36580055058441 36.8806650015305
vertex 759.0694945495432 53.36580055058439 36.499999999999986
endloop
endfacet
facet normal 2.1485458914654716e-16 1.0 -7.735862839926588e-15
outer loop
vertex 756.0384056362976 53.36580055058437 36.74999999999997
vertex 759.0694945495432 53.36580055058439 36.499999999999986
vertex 756.5560437265027 53.36580055058437 36.68185165257811
endloop
endfacet
facet normal 2.1485458914654716e-16 1.0 -7.735862839926588e-15
outer loop
vertex 756.5560437265027 53.36580055058437 36.68185165257811
vertex 759.0694945495432 53.36580055058439 36.499999999999986
vertex 757.0384056362977 53.36580055058437 36.482050807568854
endloop
endfacet
facet normal 2.1485458914654716e-16 1.0 -7.735862839926588e-15
outer loop
vertex 757.0384056362977 53.36580055058437 36.482050807568854
vertex 759.0694945495432 53.36580055058439 36.499999999999986
vertex 759.2719840000872 53.36580055058439 36.0893920132778
endloop
endfacet
facet normal 2.1485458914654716e-16 1.0 -7.735862839926588e-15
outer loop
vertex 757.0384056362977 53.36580055058437 36.482050807568854
vertex 759.2719840000872 53.36580055058439 36.0893920132778
vertex 757.4526191986707 53.36580055058435 36.164213562373064
endloop
endfacet
facet normal 2.1485458914654716e-16 1.0 -7.735862839926588e-15
outer loop
vertex 757.4526191986707 53.36580055058435 36.164213562373064
vertex 759.2719840000872 53.36580055058439 36.0893920132778
vertex 757.7704564438666 53.36580055058435 35.74999999999997
endloop
endfacet
facet normal 2.1485458914654716e-16 1.0 -7.735862839926588e-15
outer loop
vertex 757.7704564438666 53.36580055058435 35.74999999999997
vertex 759.2719840000872 53.36580055058439 36.0893920132778
vertex 759.4191460283095 53.36580055058439 35.6558666578588
endloop
endfacet
facet normal 2.1485458914654716e-16 1.0 -7.735862839926588e-15
outer loop
vertex 757.7704564438666 53.36580055058435 35.74999999999997
vertex 759.4191460283095 53.36580055058439 35.6558666578588
vertex 757.9702572888758 53.36580055058443 35.26763809020501
endloop
endfacet
facet normal 2.1485458914654716e-16 1.0 -7.735862839926588e-15
outer loop
vertex 757.9702572888758 53.36580055058443 35.26763809020501
vertex 759.4191460283095 53.36580055058439 35.6558666578588
vertex 759.508462651106 53.365800550584446 35.20684167277015
endloop
endfacet
facet normal 2.1485458914654716e-16 1.0 -7.735862839926588e-15
outer loop
vertex 757.9702572888758 53.36580055058443 35.26763809020501
vertex 759.508462651106 53.365800550584446 35.20684167277015
vertex 758.0384056362976 53.36580055058435 34.74999999999998
endloop
endfacet
facet normal 2.1485458914654716e-16 1.0 -7.735862839926588e-15
outer loop
vertex 758.0384056362976 53.36580055058435 34.74999999999998
vertex 759.508462651106 53.365800550584446 35.20684167277015
vertex 759.5384056362976 53.36580055058439 34.74999999999998
endloop
endfacet
facet normal 2.1485458914654716e-16 1.0 -7.735862839926588e-15
outer loop
vertex 758.0384056362976 53.36580055058435 34.74999999999998
vertex 759.5384056362976 53.36580055058439 34.74999999999998
vertex 759.5384056362976 53.36580055058433 30.749999999999964
endloop
endfacet
facet normal 2.1485458914654716e-16 1.0 -7.735862839926588e-15
outer loop
vertex 758.0384056362976 53.36580055058435 34.74999999999998
vertex 759.5384056362976 53.36580055058433 30.749999999999964
vertex 757.9702572888758 53.365800550584346 34.23236190979493
endloop
endfacet
facet normal 2.1485458914654716e-16 1.0 -7.735862839926588e-15
outer loop
vertex 757.9702572888758 53.365800550584346 34.23236190979493
vertex 759.5384056362976 53.36580055058433 30.749999999999964
vertex 757.7704564438666 53.365800550584346 33.74999999999998
endloop
endfacet
facet normal 2.1485458914654716e-16 1.0 -7.735862839926588e-15
outer loop
vertex 757.7704564438666 53.365800550584346 33.74999999999998
vertex 759.5384056362976 53.36580055058433 30.749999999999964
vertex 757.4526191986707 53.365800550584424 33.33578643762688
endloop
endfacet
facet normal 2.1485458914654716e-16 1.0 -7.735862839926588e-15
outer loop
vertex 757.4526191986707 53.365800550584424 33.33578643762688
vertex 759.5384056362976 53.36580055058433 30.749999999999964
vertex 757.0384056362977 53.365800550584346 33.0179491924311
endloop
endfacet
facet normal 2.1485458914654716e-16 1.0 -7.735862839926588e-15
outer loop
vertex 757.0384056362977 53.365800550584346 33.0179491924311
vertex 759.5384056362976 53.36580055058433 30.749999999999964
vertex 756.5560437265027 53.365800550584346 32.81814834742183
endloop
endfacet
facet normal 2.1485458914654716e-16 1.0 -7.735862839926588e-15
outer loop
vertex 756.5560437265027 53.365800550584346 32.81814834742183
vertex 759.5384056362976 53.36580055058433 30.749999999999964
vertex 756.0384056362976 53.36580055058433 32.74999999999997
endloop
endfacet
facet normal 2.1485458914654716e-16 1.0 -7.735862839926588e-15
outer loop
vertex 756.0384056362976 53.36580055058437 36.74999999999997
vertex 753.0073167230521 53.36580055058439 36.49999999999995
vertex 753.2616689452783 53.36580055058441 36.88066500153047
endloop
endfacet
facet normal 2.1485458914654716e-16 1.0 -7.735862839926588e-15
outer loop
vertex 753.0073167230521 53.36580055058439 36.49999999999995
vertex 756.0384056362976 53.36580055058437 36.74999999999997
vertex 755.5207675460925 53.36580055058437 36.68185165257811
endloop
endfacet
facet normal 2.1485458914654716e-16 1.0 -7.735862839926588e-15
outer loop
vertex 753.0073167230521 53.36580055058439 36.49999999999995
vertex 755.5207675460925 53.36580055058437 36.68185165257811
vertex 755.0384056362976 53.36580055058437 36.482050807568854
endloop
endfacet
facet normal 2.1485458914654716e-16 1.0 -7.735862839926588e-15
outer loop
vertex 753.0073167230521 53.36580055058439 36.49999999999995
vertex 755.0384056362976 53.36580055058437 36.482050807568854
vertex 752.8048272725082 53.36580055058439 36.08939201327776
endloop
endfacet
facet normal 2.1485458914654716e-16 1.0 -7.735862839926588e-15
outer loop
vertex 752.8048272725082 53.36580055058439 36.08939201327776
vertex 755.0384056362976 53.36580055058437 36.482050807568854
vertex 754.6241920739245 53.36580055058435 36.164213562373064
endloop
endfacet
facet normal 2.1485458914654716e-16 1.0 -7.735862839926588e-15
outer loop
vertex 752.8048272725082 53.36580055058439 36.08939201327776
vertex 754.6241920739245 53.36580055058435 36.164213562373064
vertex 754.3063548287288 53.36580055058435 35.74999999999997
endloop
endfacet
facet normal 2.1485458914654716e-16 1.0 -7.735862839926588e-15
outer loop
vertex 752.8048272725082 53.36580055058439 36.08939201327776
vertex 754.3063548287288 53.36580055058435 35.74999999999997
vertex 752.6576652442859 53.36580055058439 35.655866657858766
endloop
endfacet
facet normal 2.1485458914654716e-16 1.0 -7.735862839926588e-15
outer loop
vertex 752.6576652442859 53.36580055058439 35.655866657858766
vertex 754.3063548287288 53.36580055058435 35.74999999999997
vertex 754.1065539837196 53.36580055058443 35.26763809020501
endloop
endfacet
facet normal 2.1485458914654716e-16 1.0 -7.735862839926588e-15
outer loop
vertex 752.6576652442859 53.36580055058439 35.655866657858766
vertex 754.1065539837196 53.36580055058443 35.26763809020501
vertex 752.5683486214892 53.365800550584446 35.206841672770125
endloop
endfacet
facet normal 2.1485458914654716e-16 1.0 -7.735862839926588e-15
outer loop
vertex 752.5683486214892 53.365800550584446 35.206841672770125
vertex 754.1065539837196 53.36580055058443 35.26763809020501
vertex 754.0384056362976 53.36580055058435 34.74999999999998
endloop
endfacet
facet normal 2.1485458914654716e-16 1.0 -7.735862839926588e-15
outer loop
vertex 752.5683486214892 53.365800550584446 35.206841672770125
vertex 754.0384056362976 53.36580055058435 34.74999999999998
vertex 752.5384056362976 53.36580055058439 34.749999999999964
endloop
endfacet
facet normal 2.1485458914654716e-16 1.0 -7.735862839926588e-15
outer loop
vertex 752.5384056362976 53.36580055058439 34.749999999999964
vertex 754.0384056362976 53.36580055058435 34.74999999999998
vertex 754.1065539837196 53.365800550584346 34.23236190979493
endloop
endfacet
facet normal 2.1485458914654716e-16 1.0 -7.735862839926588e-15
outer loop
vertex 752.5384056362976 53.36580055058439 34.749999999999964
vertex 754.1065539837196 53.365800550584346 34.23236190979493
vertex 752.5384056362977 53.365800550584346 30.749999999999954
endloop
endfacet
facet normal 2.1485458914654716e-16 1.0 -7.735862839926588e-15
outer loop
vertex 752.5384056362977 53.365800550584346 30.749999999999954
vertex 754.1065539837196 53.365800550584346 34.23236190979493
vertex 754.3063548287288 53.365800550584346 33.74999999999998
endloop
endfacet
facet normal 2.1485458914654716e-16 1.0 -7.735862839926588e-15
outer loop
vertex 752.5384056362977 53.365800550584346 30.749999999999954
vertex 754.3063548287288 53.365800550584346 33.74999999999998
vertex 754.6241920739245 53.365800550584424 33.33578643762688
endloop
endfacet
facet normal 2.1485458914654716e-16 1.0 -7.735862839926588e-15
outer loop
vertex 752.5384056362977 53.365800550584346 30.749999999999954
vertex 754.6241920739245 53.365800550584424 33.33578643762688
vertex 755.0384056362976 53.365800550584346 33.0179491924311
endloop
endfacet
facet normal 2.1485458914654716e-16 1.0 -7.735862839926588e-15
outer loop
vertex 752.5384056362977 53.365800550584346 30.749999999999954
vertex 755.0384056362976 53.365800550584346 33.0179491924311
vertex 755.5207675460925 53.365800550584346 32.81814834742183
endloop
endfacet
facet normal 2.1485458914654716e-16 1.0 -7.735862839926588e-15
outer loop
vertex 752.5384056362977 53.365800550584346 30.749999999999954
vertex 755.5207675460925 53.365800550584346 32.81814834742183
vertex 756.0384056362976 53.36580055058433 32.74999999999997
endloop
endfacet
facet normal 2.1485458914654716e-16 1.0 -7.735862839926588e-15
outer loop
vertex 752.5384056362977 53.365800550584346 30.749999999999954
vertex 756.0384056362976 53.36580055058433 32.74999999999997
vertex 759.5384056362976 53.36580055058433 30.749999999999964
endloop
endfacet
facet normal 2.6577161998371724e-15 1.0 1.8935199395899446e-15
outer loop
vertex 757.5384056362977 47.36580055058436 24.750000000000025
vertex 759.5384056362976 47.365800550584346 27.250000000000018
vertex 760.2884056362977 47.365800550584346 27.250000000000018
endloop
endfacet
facet normal 2.6577161998371724e-15 1.0 1.8935199395899446e-15
outer loop
vertex 759.5384056362976 47.365800550584346 27.250000000000018
vertex 757.5384056362977 47.365800550584346 30.75
vertex 759.5384056362976 47.36580055058434 30.750000000000007
endloop
endfacet
facet normal 2.6577161998371724e-15 1.0 1.8935199395899446e-15
outer loop
vertex 757.5384056362977 47.365800550584346 30.75
vertex 759.5384056362976 47.365800550584346 27.250000000000018
vertex 757.5384056362977 47.36580055058436 24.750000000000025
endloop
endfacet
endsolid newXgantryHP
