solid newXgantryHP
facet normal -0.9260922474600373 -0.37729716298220034 0.0
outer loop
vertex 1062.7457431734033 87.2069817797894 16.5
vertex 1063.2625732516242 86.29964489141996 2.500000000000001
vertex 1063.2625732516242 86.29964489141996 16.5
endloop
endfacet
facet normal -0.7968847279047974 -0.6041313850745523 0.0
outer loop
vertex 1063.2625732516242 86.29964489141996 2.500000000000001
vertex 1062.7457431734033 87.2069817797894 16.5
vertex 1062.7457431734033 87.2069817797894 2.500000000000001
endloop
endfacet
facet normal -0.7968847279047974 -0.6041313850745523 0.0
outer loop
vertex 1063.2625732516242 86.29964489141996 16.5
vertex 1063.996628839015 85.55699022512455 2.500000000000001
vertex 1063.996628839015 85.55699022512455 16.5
endloop
endfacet
facet normal -0.6133708310571312 -0.7897950516483908 0.0
outer loop
vertex 1063.996628839015 85.55699022512455 2.500000000000001
vertex 1063.2625732516242 86.29964489141996 16.5
vertex 1063.2625732516242 86.29964489141996 2.500000000000001
endloop
endfacet
facet normal 0.0 0.0 1.0
outer loop
vertex 1062.7457431734033 87.2069817797894 16.5
vertex 1062.4874401870861 89.26135921496476 16.5
vertex 1062.4813597200807 88.21716738073562 16.5
endloop
endfacet
facet normal 0.0 0.0 1.0
outer loop
vertex 1062.4874401870861 89.26135921496476 16.5
vertex 1062.7457431734033 87.2069817797894 16.5
vertex 1062.7635702006419 90.2683973345827 16.5
endloop
endfacet
facet normal 0.0 0.0 1.0
outer loop
vertex 1062.7635702006419 90.2683973345827 16.5
vertex 1062.7457431734033 87.2069817797894 16.5
vertex 1063.2625732516242 86.29964489141996 16.5
endloop
endfacet
facet normal 0.0 0.0 1.0
outer loop
vertex 1062.7635702006419 90.2683973345827 16.5
vertex 1063.2625732516242 86.29964489141996 16.5
vertex 1063.29093195665 91.16965375594668 16.5
endloop
endfacet
facet normal 0.0 0.0 1.0
outer loop
vertex 1063.29093195665 91.16965375594668 16.5
vertex 1063.2625732516242 86.29964489141996 16.5
vertex 1063.996628839015 85.55699022512455 16.5
endloop
endfacet
facet normal 0.0 0.0 1.0
outer loop
vertex 1063.29093195665 91.16965375594668 16.5
vertex 1063.996628839015 85.55699022512455 16.5
vertex 1064.0335866229454 91.90370934333738 16.5
endloop
endfacet
facet normal 0.0 0.0 1.0
outer loop
vertex 1064.0335866229454 91.90370934333738 16.5
vertex 1063.996628839015 85.55699022512455 16.5
vertex 1064.8978852603789 85.02962846911637 16.5
endloop
endfacet
facet normal 0.0 0.0 1.0
outer loop
vertex 1064.0335866229454 91.90370934333738 16.5
vertex 1064.8978852603789 85.02962846911637 16.5
vertex 1064.9409235113148 92.42053942155833 16.5
endloop
endfacet
facet normal 0.0 0.0 1.0
outer loop
vertex 1064.9409235113148 92.42053942155833 16.5
vertex 1064.8978852603789 85.02962846911637 16.5
vertex 1065.904923379997 84.75349845556084 16.5
endloop
endfacet
facet normal 0.0 0.0 1.0
outer loop
vertex 1064.9409235113148 92.42053942155833 16.5
vertex 1065.904923379997 84.75349845556084 16.5
vertex 1065.951109112261 92.68492287488088 16.5
endloop
endfacet
facet normal 0.0 0.0 1.0
outer loop
vertex 1065.951109112261 92.68492287488088 16.5
vertex 1065.904923379997 84.75349845556084 16.5
vertex 1066.9491152142261 84.74741798855537 16.5
endloop
endfacet
facet normal 0.0 0.0 1.0
outer loop
vertex 1065.951109112261 92.68492287488088 16.5
vertex 1066.9491152142261 84.74741798855537 16.5
vertex 1066.9953009464903 92.67884240787541 16.5
endloop
endfacet
facet normal 0.0 0.0 1.0
outer loop
vertex 1066.9953009464903 92.67884240787541 16.5
vertex 1066.9491152142261 84.74741798855537 16.5
vertex 1067.9593008151721 85.01180144187792 16.5
endloop
endfacet
facet normal 0.0 0.0 1.0
outer loop
vertex 1066.9953009464903 92.67884240787541 16.5
vertex 1067.9593008151721 85.01180144187792 16.5
vertex 1068.002339066108 92.40271239431989 16.5
endloop
endfacet
facet normal 0.0 0.0 1.0
outer loop
vertex 1068.002339066108 92.40271239431989 16.5
vertex 1067.9593008151721 85.01180144187792 16.5
vertex 1068.8666377035418 85.52863152009888 16.5
endloop
endfacet
facet normal 0.0 0.0 1.0
outer loop
vertex 1068.002339066108 92.40271239431989 16.5
vertex 1068.8666377035418 85.52863152009888 16.5
vertex 1068.903595487472 91.8753506383117 16.5
endloop
endfacet
facet normal 0.0 0.0 1.0
outer loop
vertex 1068.903595487472 91.8753506383117 16.5
vertex 1068.8666377035418 85.52863152009888 16.5
vertex 1069.609292369837 86.26268710748958 16.5
endloop
endfacet
facet normal 0.0 0.0 1.0
outer loop
vertex 1068.903595487472 91.8753506383117 16.5
vertex 1069.609292369837 86.26268710748958 16.5
vertex 1069.6376510748628 91.13269597201631 16.5
endloop
endfacet
facet normal 0.0 0.0 1.0
outer loop
vertex 1069.6376510748628 91.13269597201631 16.5
vertex 1069.609292369837 86.26268710748958 16.5
vertex 1070.1366541258453 87.16394352885355 16.5
endloop
endfacet
facet normal 0.0 0.0 1.0
outer loop
vertex 1069.6376510748628 91.13269597201631 16.5
vertex 1070.1366541258453 87.16394352885355 16.5
vertex 1070.1544811530837 90.22535908364686 16.5
endloop
endfacet
facet normal 0.0 0.0 1.0
outer loop
vertex 1070.1544811530837 90.22535908364686 16.5
vertex 1070.1366541258453 87.16394352885355 16.5
vertex 1070.4127841394009 88.1709816484715 16.5
endloop
endfacet
facet normal 0.0 0.0 1.0
outer loop
vertex 1070.1544811530837 90.22535908364686 16.5
vertex 1070.4127841394009 88.1709816484715 16.5
vertex 1070.4188646064063 89.21517348270064 16.5
endloop
endfacet
facet normal -0.3880567257161659 -0.9216354906504245 0.0
outer loop
vertex 1064.8978852603789 85.02962846911637 16.5
vertex 1063.996628839015 85.55699022512455 2.500000000000001
vertex 1064.8978852603789 85.02962846911637 2.500000000000001
endloop
endfacet
facet normal -0.6133708310571312 -0.7897950516483908 0.0
outer loop
vertex 1063.996628839015 85.55699022512455 2.500000000000001
vertex 1064.8978852603789 85.02962846911637 16.5
vertex 1063.996628839015 85.55699022512455 16.5
endloop
endfacet
facet normal -0.0 -0.0 -1.0
outer loop
vertex 1062.4874401870861 89.26135921496476 2.500000000000001
vertex 1062.7457431734033 87.2069817797894 2.500000000000001
vertex 1062.4813597200807 88.21716738073562 2.500000000000001
endloop
endfacet
facet normal -0.0 -0.0 -1.0
outer loop
vertex 1062.7457431734033 87.2069817797894 2.500000000000001
vertex 1062.4874401870861 89.26135921496476 2.500000000000001
vertex 1062.7635702006419 90.2683973345827 2.500000000000001
endloop
endfacet
facet normal -0.0 -0.0 -1.0
outer loop
vertex 1062.7457431734033 87.2069817797894 2.500000000000001
vertex 1062.7635702006419 90.2683973345827 2.500000000000001
vertex 1063.2625732516242 86.29964489141996 2.500000000000001
endloop
endfacet
facet normal -0.0 -0.0 -1.0
outer loop
vertex 1063.2625732516242 86.29964489141996 2.500000000000001
vertex 1062.7635702006419 90.2683973345827 2.500000000000001
vertex 1063.29093195665 91.16965375594668 2.500000000000001
endloop
endfacet
facet normal -0.0 -0.0 -1.0
outer loop
vertex 1063.2625732516242 86.29964489141996 2.500000000000001
vertex 1063.29093195665 91.16965375594668 2.500000000000001
vertex 1063.996628839015 85.55699022512455 2.500000000000001
endloop
endfacet
facet normal -0.0 -0.0 -1.0
outer loop
vertex 1063.996628839015 85.55699022512455 2.500000000000001
vertex 1063.29093195665 91.16965375594668 2.500000000000001
vertex 1064.0335866229454 91.90370934333738 2.500000000000001
endloop
endfacet
facet normal -0.0 -0.0 -1.0
outer loop
vertex 1063.996628839015 85.55699022512455 2.500000000000001
vertex 1064.0335866229454 91.90370934333738 2.500000000000001
vertex 1064.8978852603789 85.02962846911637 2.500000000000001
endloop
endfacet
facet normal -0.0 -0.0 -1.0
outer loop
vertex 1064.8978852603789 85.02962846911637 2.500000000000001
vertex 1064.0335866229454 91.90370934333738 2.500000000000001
vertex 1064.9409235113148 92.42053942155833 2.500000000000001
endloop
endfacet
facet normal -0.0 -0.0 -1.0
outer loop
vertex 1064.8978852603789 85.02962846911637 2.500000000000001
vertex 1064.9409235113148 92.42053942155833 2.500000000000001
vertex 1065.904923379997 84.75349845556084 2.500000000000001
endloop
endfacet
facet normal -0.0 -0.0 -1.0
outer loop
vertex 1065.904923379997 84.75349845556084 2.500000000000001
vertex 1064.9409235113148 92.42053942155833 2.500000000000001
vertex 1065.951109112261 92.68492287488088 2.500000000000001
endloop
endfacet
facet normal -0.0 -0.0 -1.0
outer loop
vertex 1065.904923379997 84.75349845556084 2.500000000000001
vertex 1065.951109112261 92.68492287488088 2.500000000000001
vertex 1066.9491152142261 84.74741798855537 2.500000000000001
endloop
endfacet
facet normal -0.0 -0.0 -1.0
outer loop
vertex 1066.9491152142261 84.74741798855537 2.500000000000001
vertex 1065.951109112261 92.68492287488088 2.500000000000001
vertex 1066.9953009464903 92.67884240787541 2.500000000000001
endloop
endfacet
facet normal -0.0 -0.0 -1.0
outer loop
vertex 1066.9491152142261 84.74741798855537 2.500000000000001
vertex 1066.9953009464903 92.67884240787541 2.500000000000001
vertex 1067.9593008151721 85.01180144187792 2.500000000000001
endloop
endfacet
facet normal -0.0 -0.0 -1.0
outer loop
vertex 1067.9593008151721 85.01180144187792 2.500000000000001
vertex 1066.9953009464903 92.67884240787541 2.500000000000001
vertex 1068.002339066108 92.40271239431989 2.500000000000001
endloop
endfacet
facet normal -0.0 -0.0 -1.0
outer loop
vertex 1067.9593008151721 85.01180144187792 2.500000000000001
vertex 1068.002339066108 92.40271239431989 2.500000000000001
vertex 1068.8666377035418 85.52863152009888 2.500000000000001
endloop
endfacet
facet normal -0.0 -0.0 -1.0
outer loop
vertex 1068.8666377035418 85.52863152009888 2.500000000000001
vertex 1068.002339066108 92.40271239431989 2.500000000000001
vertex 1068.903595487472 91.8753506383117 2.500000000000001
endloop
endfacet
facet normal -0.0 -0.0 -1.0
outer loop
vertex 1068.8666377035418 85.52863152009888 2.500000000000001
vertex 1068.903595487472 91.8753506383117 2.500000000000001
vertex 1069.609292369837 86.26268710748958 2.500000000000001
endloop
endfacet
facet normal -0.0 -0.0 -1.0
outer loop
vertex 1069.609292369837 86.26268710748958 2.500000000000001
vertex 1068.903595487472 91.8753506383117 2.500000000000001
vertex 1069.6376510748628 91.13269597201631 2.500000000000001
endloop
endfacet
facet normal -0.0 -0.0 -1.0
outer loop
vertex 1069.609292369837 86.26268710748958 2.500000000000001
vertex 1069.6376510748628 91.13269597201631 2.500000000000001
vertex 1070.1366541258453 87.16394352885355 2.500000000000001
endloop
endfacet
facet normal -0.0 -0.0 -1.0
outer loop
vertex 1070.1366541258453 87.16394352885355 2.500000000000001
vertex 1069.6376510748628 91.13269597201631 2.500000000000001
vertex 1070.1544811530837 90.22535908364686 2.500000000000001
endloop
endfacet
facet normal -0.0 -0.0 -1.0
outer loop
vertex 1070.1366541258453 87.16394352885355 2.500000000000001
vertex 1070.1544811530837 90.22535908364686 2.500000000000001
vertex 1070.4127841394009 88.1709816484715 2.500000000000001
endloop
endfacet
facet normal -0.0 -0.0 -1.0
outer loop
vertex 1070.4127841394009 88.1709816484715 2.500000000000001
vertex 1070.1544811530837 90.22535908364686 2.500000000000001
vertex 1070.4188646064063 89.21517348270064 2.500000000000001
endloop
endfacet
facet normal -0.9216354906504282 0.38805672571615674 0.0
outer loop
vertex 1062.7635702006419 90.2683973345827 16.5
vertex 1062.4874401870861 89.26135921496476 2.500000000000001
vertex 1062.4874401870861 89.26135921496476 16.5
endloop
endfacet
facet normal -0.9906679940393045 0.13629719581172925 0.0
outer loop
vertex 1062.4874401870861 89.26135921496476 2.500000000000001
vertex 1062.7635702006419 90.2683973345827 16.5
vertex 1062.7635702006419 90.2683973345827 2.500000000000001
endloop
endfacet
facet normal -0.9906679940393045 0.13629719581172925 0.0
outer loop
vertex 1062.4874401870861 89.26135921496476 16.5
vertex 1062.4813597200807 88.21716738073562 2.500000000000001
vertex 1062.4813597200807 88.21716738073562 16.5
endloop
endfacet
facet normal -0.9921881107906804 -0.1247507627456476 0.0
outer loop
vertex 1062.4813597200807 88.21716738073562 2.500000000000001
vertex 1062.4874401870861 89.26135921496476 16.5
vertex 1062.4874401870861 89.26135921496476 2.500000000000001
endloop
endfacet
facet normal -0.9921881107906804 -0.1247507627456476 0.0
outer loop
vertex 1062.4813597200807 88.21716738073562 16.5
vertex 1062.7457431734033 87.2069817797894 2.500000000000001
vertex 1062.7457431734033 87.2069817797894 16.5
endloop
endfacet
facet normal -0.9260922474600373 -0.37729716298220034 0.0
outer loop
vertex 1062.7457431734033 87.2069817797894 2.500000000000001
vertex 1062.4813597200807 88.21716738073562 16.5
vertex 1062.4813597200807 88.21716738073562 2.500000000000001
endloop
endfacet
facet normal 0.6041313850745264 -0.7968847279048171 0.0
outer loop
vertex 1068.8666377035418 85.52863152009888 16.5
vertex 1067.9593008151721 85.01180144187792 2.500000000000001
vertex 1068.8666377035418 85.52863152009888 2.500000000000001
endloop
endfacet
facet normal 0.3772971629821752 -0.9260922474600476 0.0
outer loop
vertex 1067.9593008151721 85.01180144187792 2.500000000000001
vertex 1068.8666377035418 85.52863152009888 16.5
vertex 1067.9593008151721 85.01180144187792 16.5
endloop
endfacet
facet normal 0.7897950516484114 -0.6133708310571048 0.0
outer loop
vertex 1069.609292369837 86.26268710748958 16.5
vertex 1068.8666377035418 85.52863152009888 2.500000000000001
vertex 1069.609292369837 86.26268710748958 2.500000000000001
endloop
endfacet
facet normal 0.6041313850745264 -0.7968847279048171 0.0
outer loop
vertex 1068.8666377035418 85.52863152009888 2.500000000000001
vertex 1069.609292369837 86.26268710748958 16.5
vertex 1068.8666377035418 85.52863152009888 16.5
endloop
endfacet
facet normal 0.9216354906504282 -0.38805672571615674 0.0
outer loop
vertex 1070.1366541258453 87.16394352885355 2.500000000000001
vertex 1069.609292369837 86.26268710748958 16.5
vertex 1069.609292369837 86.26268710748958 2.500000000000001
endloop
endfacet
facet normal 0.7897950516484114 -0.6133708310571048 0.0
outer loop
vertex 1069.609292369837 86.26268710748958 16.5
vertex 1070.1366541258453 87.16394352885355 2.500000000000001
vertex 1070.1366541258453 87.16394352885355 16.5
endloop
endfacet
facet normal -0.7897950516484114 0.6133708310571048 0.0
outer loop
vertex 1063.29093195665 91.16965375594668 16.5
vertex 1064.0335866229454 91.90370934333738 2.500000000000001
vertex 1063.29093195665 91.16965375594668 2.500000000000001
endloop
endfacet
facet normal -0.6041313850745264 0.7968847279048171 0.0
outer loop
vertex 1064.0335866229454 91.90370934333738 2.500000000000001
vertex 1063.29093195665 91.16965375594668 16.5
vertex 1064.0335866229454 91.90370934333738 16.5
endloop
endfacet
facet normal 0.9906679940393045 -0.13629719581172925 0.0
outer loop
vertex 1070.4127841394009 88.1709816484715 2.500000000000001
vertex 1070.1366541258453 87.16394352885355 16.5
vertex 1070.1366541258453 87.16394352885355 2.500000000000001
endloop
endfacet
facet normal 0.9216354906504282 -0.38805672571615674 0.0
outer loop
vertex 1070.1366541258453 87.16394352885355 16.5
vertex 1070.4127841394009 88.1709816484715 2.500000000000001
vertex 1070.4127841394009 88.1709816484715 16.5
endloop
endfacet
facet normal -0.13629719581164457 -0.990667994039316 0.0
outer loop
vertex 1065.904923379997 84.75349845556084 16.5
vertex 1064.8978852603789 85.02962846911637 2.500000000000001
vertex 1065.904923379997 84.75349845556084 2.500000000000001
endloop
endfacet
facet normal -0.3880567257161659 -0.9216354906504245 0.0
outer loop
vertex 1064.8978852603789 85.02962846911637 2.500000000000001
vertex 1065.904923379997 84.75349845556084 16.5
vertex 1064.8978852603789 85.02962846911637 16.5
endloop
endfacet
facet normal 0.12475076274564545 -0.9921881107906805 0.0
outer loop
vertex 1066.9491152142261 84.74741798855537 16.5
vertex 1065.904923379997 84.75349845556084 2.500000000000001
vertex 1066.9491152142261 84.74741798855537 2.500000000000001
endloop
endfacet
facet normal -0.13629719581164457 -0.990667994039316 0.0
outer loop
vertex 1065.904923379997 84.75349845556084 2.500000000000001
vertex 1066.9491152142261 84.74741798855537 16.5
vertex 1065.904923379997 84.75349845556084 16.5
endloop
endfacet
facet normal 0.3772971629821752 -0.9260922474600476 0.0
outer loop
vertex 1067.9593008151721 85.01180144187792 16.5
vertex 1066.9491152142261 84.74741798855537 2.500000000000001
vertex 1067.9593008151721 85.01180144187792 2.500000000000001
endloop
endfacet
facet normal 0.12475076274564545 -0.9921881107906805 0.0
outer loop
vertex 1066.9491152142261 84.74741798855537 2.500000000000001
vertex 1067.9593008151721 85.01180144187792 16.5
vertex 1066.9491152142261 84.74741798855537 16.5
endloop
endfacet
facet normal 0.9921881107906804 0.1247507627456476 0.0
outer loop
vertex 1070.4188646064063 89.21517348270064 2.500000000000001
vertex 1070.4127841394009 88.1709816484715 16.5
vertex 1070.4127841394009 88.1709816484715 2.500000000000001
endloop
endfacet
facet normal 0.9906679940393045 -0.13629719581172925 0.0
outer loop
vertex 1070.4127841394009 88.1709816484715 16.5
vertex 1070.4188646064063 89.21517348270064 2.500000000000001
vertex 1070.4188646064063 89.21517348270064 16.5
endloop
endfacet
facet normal 0.9260922474600373 0.37729716298220034 0.0
outer loop
vertex 1070.1544811530837 90.22535908364686 2.500000000000001
vertex 1070.4188646064063 89.21517348270064 16.5
vertex 1070.4188646064063 89.21517348270064 2.500000000000001
endloop
endfacet
facet normal 0.9921881107906804 0.1247507627456476 0.0
outer loop
vertex 1070.4188646064063 89.21517348270064 16.5
vertex 1070.1544811530837 90.22535908364686 2.500000000000001
vertex 1070.1544811530837 90.22535908364686 16.5
endloop
endfacet
facet normal 0.7968847279047974 0.6041313850745523 0.0
outer loop
vertex 1069.6376510748628 91.13269597201631 2.500000000000001
vertex 1070.1544811530837 90.22535908364686 16.5
vertex 1070.1544811530837 90.22535908364686 2.500000000000001
endloop
endfacet
facet normal 0.9260922474600373 0.37729716298220034 0.0
outer loop
vertex 1070.1544811530837 90.22535908364686 16.5
vertex 1069.6376510748628 91.13269597201631 2.500000000000001
vertex 1069.6376510748628 91.13269597201631 16.5
endloop
endfacet
facet normal 0.6133708310571312 0.7897950516483908 0.0
outer loop
vertex 1068.903595487472 91.8753506383117 2.500000000000001
vertex 1069.6376510748628 91.13269597201631 16.5
vertex 1069.6376510748628 91.13269597201631 2.500000000000001
endloop
endfacet
facet normal 0.7968847279047974 0.6041313850745523 0.0
outer loop
vertex 1069.6376510748628 91.13269597201631 16.5
vertex 1068.903595487472 91.8753506383117 2.500000000000001
vertex 1068.903595487472 91.8753506383117 16.5
endloop
endfacet
facet normal 0.3880567257161659 0.9216354906504245 0.0
outer loop
vertex 1068.002339066108 92.40271239431989 16.5
vertex 1068.903595487472 91.8753506383117 2.500000000000001
vertex 1068.002339066108 92.40271239431989 2.500000000000001
endloop
endfacet
facet normal 0.6133708310571312 0.7897950516483908 0.0
outer loop
vertex 1068.903595487472 91.8753506383117 2.500000000000001
vertex 1068.002339066108 92.40271239431989 16.5
vertex 1068.903595487472 91.8753506383117 16.5
endloop
endfacet
facet normal 0.13629719581164457 0.990667994039316 0.0
outer loop
vertex 1066.9953009464903 92.67884240787541 16.5
vertex 1068.002339066108 92.40271239431989 2.500000000000001
vertex 1066.9953009464903 92.67884240787541 2.500000000000001
endloop
endfacet
facet normal 0.3880567257161659 0.9216354906504245 0.0
outer loop
vertex 1068.002339066108 92.40271239431989 2.500000000000001
vertex 1066.9953009464903 92.67884240787541 16.5
vertex 1068.002339066108 92.40271239431989 16.5
endloop
endfacet
facet normal -0.12475076274564545 0.9921881107906805 0.0
outer loop
vertex 1065.951109112261 92.68492287488088 16.5
vertex 1066.9953009464903 92.67884240787541 2.500000000000001
vertex 1065.951109112261 92.68492287488088 2.500000000000001
endloop
endfacet
facet normal 0.13629719581164457 0.990667994039316 0.0
outer loop
vertex 1066.9953009464903 92.67884240787541 2.500000000000001
vertex 1065.951109112261 92.68492287488088 16.5
vertex 1066.9953009464903 92.67884240787541 16.5
endloop
endfacet
facet normal -0.3772971629821752 0.9260922474600476 0.0
outer loop
vertex 1064.9409235113148 92.42053942155833 16.5
vertex 1065.951109112261 92.68492287488088 2.500000000000001
vertex 1064.9409235113148 92.42053942155833 2.500000000000001
endloop
endfacet
facet normal -0.12475076274564545 0.9921881107906805 0.0
outer loop
vertex 1065.951109112261 92.68492287488088 2.500000000000001
vertex 1064.9409235113148 92.42053942155833 16.5
vertex 1065.951109112261 92.68492287488088 16.5
endloop
endfacet
facet normal -0.6041313850745264 0.7968847279048171 0.0
outer loop
vertex 1064.0335866229454 91.90370934333738 16.5
vertex 1064.9409235113148 92.42053942155833 2.500000000000001
vertex 1064.0335866229454 91.90370934333738 2.500000000000001
endloop
endfacet
facet normal -0.3772971629821752 0.9260922474600476 0.0
outer loop
vertex 1064.9409235113148 92.42053942155833 2.500000000000001
vertex 1064.0335866229454 91.90370934333738 16.5
vertex 1064.9409235113148 92.42053942155833 16.5
endloop
endfacet
facet normal -0.7897950516484114 0.6133708310571048 0.0
outer loop
vertex 1063.29093195665 91.16965375594668 16.5
vertex 1062.7635702006419 90.2683973345827 2.500000000000001
vertex 1062.7635702006419 90.2683973345827 16.5
endloop
endfacet
facet normal -0.9216354906504282 0.38805672571615674 0.0
outer loop
vertex 1062.7635702006419 90.2683973345827 2.500000000000001
vertex 1063.29093195665 91.16965375594668 16.5
vertex 1063.29093195665 91.16965375594668 2.500000000000001
endloop
endfacet
endsolid newXgantryHP
