solid newXgantryHP
facet normal -0.8014490265638792 -0.5980630884946928 -5.4177313976943235e-45
outer loop
vertex 945.4650001867881 4.453466602319528 3.5
vertex 945.803872276413 3.9505497992238876 1.0153500342437987e-30
vertex 945.803872276413 3.9505497992238876 3.5
endloop
endfacet
facet normal -0.8552382471391506 -0.5182350245114213 -5.506261809809113e-45
outer loop
vertex 945.803872276413 3.9505497992238876 1.0153500342437987e-30
vertex 945.4650001867881 4.453466602319528 3.5
vertex 945.4650001867881 4.453466602319528 1.0969995136786906e-30
endloop
endfacet
facet normal -0.7402337395585026 -0.6723496194832231 -5.279001369726651e-45
outer loop
vertex 945.0793438786545 4.921471747546985 3.5
vertex 945.4650001867881 4.453466602319528 1.0969995136786906e-30
vertex 945.4650001867881 4.453466602319528 3.5
endloop
endfacet
facet normal -0.8014490265638792 -0.5980630884946928 -5.4177313976943235e-45
outer loop
vertex 945.4650001867881 4.453466602319528 1.0969995136786906e-30
vertex 945.0793438786545 4.921471747546985 3.5
vertex 945.0793438786545 4.921471747546985 1.1830149318646048e-30
endloop
endfacet
facet normal -0.8989910730698825 0.4379669514251748 -3.534623941493334e-45
outer loop
vertex 931.0287185634024 5.601828651540622 3.5
vertex 930.4993342953993 4.306179030919487 1.878475030557491e-30
vertex 930.4993342953993 4.306179030919487 3.5
endloop
endfacet
facet normal -0.9484662383038023 0.316878201834451 -4.062068886127383e-45
outer loop
vertex 930.4993342953993 4.306179030919487 1.878475030557491e-30
vertex 931.0287185634024 5.601828651540622 3.5
vertex 931.0287185634024 5.601828651540622 1.8784750305574966e-30
endloop
endfacet
facet normal -0.801602510515911 0.5978573535004725 -2.6763007394740274e-45
outer loop
vertex 945.4681057350115 -2.6188673299483662 3.5
vertex 945.0825695667671 -3.0869714497104535 1.755766045858045e-30
vertex 945.0825695667671 -3.0869714497104535 3.5
endloop
endfacet
facet normal -0.7404062933342436 0.672159594732565 -2.196957907068216e-45
outer loop
vertex 945.0825695667671 -3.0869714497104535 1.755766045858045e-30
vertex 945.4681057350115 -2.6188673299483662 3.5
vertex 945.4681057350115 -2.6188673299483662 1.9498201279773695e-30
endloop
endfacet
facet normal -0.855371239115984 0.518015485572764 -3.1308455043555634e-45
outer loop
vertex 945.806848725192 -2.115863562003802 3.5
vertex 945.4681057350115 -2.6188673299483662 1.9498201279773695e-30
vertex 945.4681057350115 -2.6188673299483662 3.5
endloop
endfacet
facet normal -0.801602510515911 0.5978573535004725 -2.6763007394740274e-45
outer loop
vertex 945.4681057350115 -2.6188673299483662 1.9498201279773695e-30
vertex 945.806848725192 -2.115863562003802 3.5
vertex 945.806848725192 -2.115863562003802 2.136163255940615e-30
endloop
endfacet
facet normal -0.5980630884947091 0.801449026563867 -1.181832638977426e-45
outer loop
vertex 944.1858073762779 -3.9014948702477565 3.5
vertex 944.6538125215054 -3.515838562114023 1.5557990759063389e-30
vertex 944.1858073762779 -3.9014948702477565 1.3517720720823192e-30
endloop
endfacet
facet normal -0.6723496194832028 0.7402337395585211 -1.6972585019785925e-45
outer loop
vertex 944.6538125215054 -3.515838562114023 1.5557990759063389e-30
vertex 944.1858073762779 -3.9014948702477565 3.5
vertex 944.6538125215054 -3.515838562114023 3.5
endloop
endfacet
facet normal -0.7404062933342436 0.672159594732565 -2.196957907068216e-45
outer loop
vertex 945.0825695667671 -3.0869714497104535 3.5
vertex 944.6538125215054 -3.515838562114023 1.5557990759063389e-30
vertex 944.6538125215054 -3.515838562114023 3.5
endloop
endfacet
facet normal -0.6723496194832028 0.7402337395585211 -1.6972585019785925e-45
outer loop
vertex 944.6538125215054 -3.515838562114023 1.5557990759063389e-30
vertex 945.0825695667671 -3.0869714497104535 3.5
vertex 945.0825695667671 -3.0869714497104535 1.755766045858045e-30
endloop
endfacet
facet normal -0.5182350245111919 0.8552382471392894 -6.554561510511025e-46
outer loop
vertex 943.6828905731821 -4.240366959872676 3.5
vertex 944.1858073762779 -3.9014948702477565 1.3517720720823192e-30
vertex 943.6828905731821 -4.240366959872676 1.145575507808108e-30
endloop
endfacet
facet normal -0.5980630884947091 0.801449026563867 -1.181832638977426e-45
outer loop
vertex 944.1858073762779 -3.9014948702477565 1.3517720720823192e-30
vertex 943.6828905731821 -4.240366959872676 3.5
vertex 944.1858073762779 -3.9014948702477565 3.5
endloop
endfacet
facet normal 5.048846033017286e-45 2.2929665542699454e-45 -1.0
outer loop
vertex 938.1497198957442 -4.532154495952324 2.2064305594735606e-30
vertex 938.1479230452496 -7.184417728709528 0.0
vertex 937.6164772119553 -4.243343408651063 2.041006287084644e-30
endloop
endfacet
facet normal 5.048846033017286e-45 2.2929665542699454e-45 -1.0
outer loop
vertex 930.1435951946265 2.952515359690088 1.8784750305574857e-30
vertex 929.974324409648 0.16438844405624287 1.8784750305574787e-30
vertex 929.9675880557278 1.5639991985736368 1.8784750305574815e-30
endloop
endfacet
facet normal 5.048846033017286e-45 2.2929665542699454e-45 -1.0
outer loop
vertex 929.974324409648 0.16438844405624287 1.8784750305574787e-30
vertex 930.1435951946265 2.952515359690088 1.8784750305574857e-30
vertex 930.1636889955039 -1.222369175806888 1.8784750305574763e-30
endloop
endfacet
facet normal 5.048846033017286e-45 2.2929665542699454e-45 -1.0
outer loop
vertex 930.1636889955039 -1.222369175806888 1.8784750305574763e-30
vertex 930.1435951946265 2.952515359690088 1.8784750305574857e-30
vertex 930.4993342953993 4.306179030919487 1.878475030557491e-30
endloop
endfacet
facet normal 5.048846033017286e-45 2.2929665542699454e-45 -1.0
outer loop
vertex 930.1636889955039 -1.222369175806888 1.8784750305574763e-30
vertex 930.4993342953993 4.306179030919487 1.878475030557491e-30
vertex 930.53244173273 -2.57254585365805 1.8784750305574752e-30
endloop
endfacet
facet normal 5.048846033017286e-45 2.2929665542699454e-45 -1.0
outer loop
vertex 930.53244173273 -2.57254585365805 1.8784750305574752e-30
vertex 930.4993342953993 4.306179030919487 1.878475030557491e-30
vertex 931.0287185634024 5.601828651540622 1.8784750305574966e-30
endloop
endfacet
facet normal 5.048846033017286e-45 2.2929665542699454e-45 -1.0
outer loop
vertex 930.53244173273 -2.57254585365805 1.8784750305574752e-30
vertex 931.0287185634024 5.601828651540622 1.8784750305574966e-30
vertex 931.0742731597545 -3.863039692199513 1.878475030557475e-30
endloop
endfacet
facet normal 5.048846033017286e-45 2.2929665542699454e-45 -1.0
outer loop
vertex 931.0742731597545 -3.863039692199513 1.878475030557475e-30
vertex 931.0287185634024 5.601828651540622 1.8784750305574966e-30
vertex 931.7226900870372 6.817295297322725 1.878475030557503e-30
endloop
endfacet
facet normal 5.048846033017286e-45 2.2929665542699454e-45 -1.0
outer loop
vertex 931.0742731597545 -3.863039692199513 1.878475030557475e-30
vertex 931.7226900870372 6.817295297322725 1.878475030557503e-30
vertex 931.779912390637 -5.071769984061345 1.878475030557476e-30
endloop
endfacet
facet normal 5.048846033017286e-45 2.2929665542699454e-45 -1.0
outer loop
vertex 931.779912390637 -5.071769984061345 1.878475030557476e-30
vertex 931.7226900870372 6.817295297322725 1.878475030557503e-30
vertex 932.5693748211291 7.931781996965453 1.8784750305575096e-30
endloop
endfacet
facet normal 5.048846033017286e-45 2.2929665542699454e-45 -1.0
outer loop
vertex 931.779912390637 -5.071769984061345 1.878475030557476e-30
vertex 932.5693748211291 7.931781996965453 1.8784750305575096e-30
vertex 932.5479230452495 3.4155822712909676 0.0
endloop
endfacet
facet normal 5.048846033017286e-45 2.2929665542699454e-45 -1.0
outer loop
vertex 932.5479230452495 3.4155822712909676 0.0
vertex 932.5693748211291 7.931781996965453 1.8784750305575096e-30
vertex 935.2001862780064 3.4137854207966702 1.9907142710304422e-30
endloop
endfacet
facet normal 5.048846033017286e-45 2.2929665542699454e-45 -1.0
outer loop
vertex 935.2001862780064 3.4137854207966702 1.9907142710304422e-30
vertex 932.5693748211291 7.931781996965453 1.8784750305575096e-30
vertex 933.5542857551326 8.92621957404382 1.8784750305575166e-30
endloop
endfacet
facet normal 5.048846033017286e-45 2.2929665542699454e-45 -1.0
outer loop
vertex 935.2001862780064 3.4137854207966702 1.9907142710304422e-30
vertex 933.5542857551326 8.92621957404382 1.8784750305575166e-30
vertex 934.6605707898975 9.783592925903834 1.8784750305575243e-30
endloop
endfacet
facet normal 5.048846033017286e-45 2.2929665542699454e-45 -1.0
outer loop
vertex 935.2001862780064 3.4137854207966702 1.9907142710304422e-30
vertex 934.6605707898975 9.783592925903834 1.8784750305575243e-30
vertex 935.8693010817594 10.489232156786374 1.878475030557532e-30
endloop
endfacet
facet normal 5.048846033017286e-45 2.2929665542699454e-45 -1.0
outer loop
vertex 935.2001862780064 3.4137854207966702 1.9907142710304422e-30
vertex 935.8693010817594 10.489232156786374 1.878475030557532e-30
vertex 935.4889973653077 3.9470281045857534 1.8485152462530182e-30
endloop
endfacet
facet normal 5.048846033017286e-45 2.2929665542699454e-45 -1.0
outer loop
vertex 935.4889973653077 3.9470281045857534 1.8485152462530182e-30
vertex 935.8693010817594 10.489232156786374 1.878475030557532e-30
vertex 935.8277403554882 4.450031872530262 1.7013176756998434e-30
endloop
endfacet
facet normal 5.048846033017286e-45 2.2929665542699454e-45 -1.0
outer loop
vertex 935.8277403554882 4.450031872530262 1.7013176756998434e-30
vertex 935.8693010817594 10.489232156786374 1.878475030557532e-30
vertex 936.2132765237326 4.918135992292306 1.5504854626274284e-30
endloop
endfacet
facet normal 5.048846033017286e-45 2.2929665542699454e-45 -1.0
outer loop
vertex 936.2132765237326 4.918135992292306 1.5504854626274284e-30
vertex 935.8693010817594 10.489232156786374 1.878475030557532e-30
vertex 937.1597949203009 11.031063583810875 1.8784750305575397e-30
endloop
endfacet
facet normal 5.048846033017286e-45 2.2929665542699454e-45 -1.0
outer loop
vertex 936.2132765237326 4.918135992292306 1.5504854626274284e-30
vertex 937.1597949203009 11.031063583810875 1.8784750305575397e-30
vertex 936.6420335689941 5.34700310469584 1.3974161881631188e-30
endloop
endfacet
facet normal 5.048846033017286e-45 2.2929665542699454e-45 -1.0
outer loop
vertex 936.6420335689941 5.34700310469584 1.3974161881631188e-30
vertex 937.1597949203009 11.031063583810875 1.8784750305575397e-30
vertex 937.1100387142216 5.732659412829548 1.243528161597815e-30
endloop
endfacet
facet normal 5.048846033017286e-45 2.2929665542699454e-45 -1.0
outer loop
vertex 937.1100387142216 5.732659412829548 1.243528161597815e-30
vertex 937.1597949203009 11.031063583810875 1.8784750305575397e-30
vertex 937.6129555173172 6.071531502454457 1.0902472786156764e-30
endloop
endfacet
facet normal 5.048846033017286e-45 2.2929665542699454e-45 -1.0
outer loop
vertex 937.6129555173172 6.071531502454457 1.0902472786156764e-30
vertex 937.1597949203009 11.031063583810875 1.8784750305575397e-30
vertex 938.5099715981521 11.399816321036903 1.8784750305575477e-30
endloop
endfacet
facet normal 5.048846033017286e-45 2.2929665542699454e-45 -1.0
outer loop
vertex 937.6129555173172 6.071531502454457 1.0902472786156764e-30
vertex 938.5099715981521 11.399816321036903 1.8784750305575477e-30
vertex 938.1479230452505 9.015582271289926 0.0
endloop
endfacet
facet normal 5.048846033017286e-45 2.2929665542699454e-45 -1.0
outer loop
vertex 937.6129555173172 6.071531502454457 1.0902472786156764e-30
vertex 938.1479230452505 9.015582271289926 0.0
vertex 938.1461240517423 6.360479452545759 9.38993809229819e-31
endloop
endfacet
facet normal 5.048846033017286e-45 2.2929665542699454e-45 -1.0
outer loop
vertex 938.1479230452505 9.015582271289926 0.0
vertex 938.5099715981521 11.399816321036903 1.8784750305575477e-30
vertex 943.1479230452497 9.015582271290986 0.0
endloop
endfacet
facet normal 5.048846033017286e-45 2.2929665542699454e-45 -1.0
outer loop
vertex 943.1479230452497 9.015582271290986 0.0
vertex 938.5099715981521 11.399816321036903 1.8784750305575477e-30
vertex 939.8967292180153 11.589180906892944 1.8784750305575548e-30
endloop
endfacet
facet normal 5.048846033017286e-45 2.2929665542699454e-45 -1.0
outer loop
vertex 943.1479230452497 9.015582271290986 0.0
vertex 939.8967292180153 11.589180906892944 1.8784750305575548e-30
vertex 941.2963399725326 11.595917260813218 1.878475030557562e-30
endloop
endfacet
facet normal 5.048846033017286e-45 2.2929665542699454e-45 -1.0
outer loop
vertex 943.1479230452497 9.015582271290986 0.0
vertex 941.2963399725326 11.595917260813218 1.878475030557562e-30
vertex 942.6848561336492 11.419910121914484 1.8784750305575688e-30
endloop
endfacet
facet normal 5.048846033017286e-45 2.2929665542699454e-45 -1.0
outer loop
vertex 943.1479230452497 9.015582271290986 0.0
vertex 942.6848561336492 11.419910121914484 1.8784750305575688e-30
vertex 944.0385198048785 11.064171021141684 1.8784750305575747e-30
endloop
endfacet
facet normal 5.048846033017286e-45 2.2929665542699454e-45 -1.0
outer loop
vertex 943.1479230452497 9.015582271290986 0.0
vertex 944.0385198048785 11.064171021141684 1.8784750305575747e-30
vertex 943.6793688785444 6.074507951233169 1.459129148249934e-30
endloop
endfacet
facet normal 5.048846033017286e-45 2.2929665542699454e-45 -1.0
outer loop
vertex 943.6793688785444 6.074507951233169 1.459129148249934e-30
vertex 944.0385198048785 11.064171021141684 1.8784750305575747e-30
vertex 944.1823726464891 5.73576496105279 1.3649225087677588e-30
endloop
endfacet
facet normal 5.048846033017286e-45 2.2929665542699454e-45 -1.0
outer loop
vertex 944.1823726464891 5.73576496105279 1.3649225087677588e-30
vertex 944.0385198048785 11.064171021141684 1.8784750305575747e-30
vertex 945.3341694254996 10.53478675313857 1.87847503055758e-30
endloop
endfacet
facet normal 5.048846033017286e-45 2.2929665542699454e-45 -1.0
outer loop
vertex 944.1823726464891 5.73576496105279 1.3649225087677588e-30
vertex 945.3341694254996 10.53478675313857 1.87847503055758e-30
vertex 944.6504767662509 5.350228792808466 1.2725992871354603e-30
endloop
endfacet
facet normal 5.048846033017286e-45 2.2929665542699454e-45 -1.0
outer loop
vertex 944.6504767662509 5.350228792808466 1.2725992871354603e-30
vertex 945.3341694254996 10.53478675313857 1.87847503055758e-30
vertex 945.0793438786545 4.921471747546985 1.1830149318646048e-30
endloop
endfacet
facet normal 5.048846033017286e-45 2.2929665542699454e-45 -1.0
outer loop
vertex 945.0793438786545 4.921471747546985 1.1830149318646048e-30
vertex 945.3341694254996 10.53478675313857 1.87847503055758e-30
vertex 945.4650001867881 4.453466602319528 1.0969995136786906e-30
endloop
endfacet
facet normal 5.048846033017286e-45 2.2929665542699454e-45 -1.0
outer loop
vertex 945.4650001867881 4.453466602319528 1.0969995136786906e-30
vertex 945.3341694254996 10.53478675313857 1.87847503055758e-30
vertex 946.5496360712816 9.840815229503711 1.8784750305575845e-30
endloop
endfacet
facet normal 5.048846033017286e-45 2.2929665542699454e-45 -1.0
outer loop
vertex 945.4650001867881 4.453466602319528 1.0969995136786906e-30
vertex 946.5496360712816 9.840815229503711 1.8784750305575845e-30
vertex 945.803872276413 3.9505497992238876 1.0153500342437987e-30
endloop
endfacet
facet normal 5.048846033017286e-45 2.2929665542699454e-45 -1.0
outer loop
vertex 945.803872276413 3.9505497992238876 1.0153500342437987e-30
vertex 946.5496360712816 9.840815229503711 1.8784750305575845e-30
vertex 946.0928202265044 3.417381264799062 9.388230413105144e-31
endloop
endfacet
facet normal 5.048846033017286e-45 2.2929665542699454e-45 -1.0
outer loop
vertex 946.0928202265044 3.417381264799062 9.388230413105144e-31
vertex 946.5496360712816 9.840815229503711 1.8784750305575845e-30
vertex 948.7479230452494 3.4155822712909676 0.0
endloop
endfacet
facet normal 5.048846033017286e-45 2.2929665542699454e-45 -1.0
outer loop
vertex 948.7479230452494 3.4155822712909676 0.0
vertex 946.5496360712816 9.840815229503711 1.8784750305575845e-30
vertex 947.6641227709245 8.994130495411762 1.878475030557588e-30
endloop
endfacet
facet normal 5.048846033017286e-45 2.2929665542699454e-45 -1.0
outer loop
vertex 948.7479230452494 3.4155822712909676 0.0
vertex 947.6641227709245 8.994130495411762 1.878475030557588e-30
vertex 948.6585603480028 8.009219561408388 1.878475030557591e-30
endloop
endfacet
facet normal 5.048846033017286e-45 2.2929665542699454e-45 -1.0
outer loop
vertex 948.7479230452494 3.4155822712909676 0.0
vertex 948.6585603480028 8.009219561408388 1.878475030557591e-30
vertex 949.5159336998629 6.902934526643293 1.8784750305575926e-30
endloop
endfacet
facet normal 5.048846033017286e-45 2.2929665542699454e-45 -1.0
outer loop
vertex 948.7479230452494 3.4155822712909676 0.0
vertex 949.5159336998629 6.902934526643293 1.8784750305575926e-30
vertex 948.7479230452494 -1.5844177287090317 0.0
endloop
endfacet
facet normal 5.048846033017286e-45 2.2929665542699454e-45 -1.0
outer loop
vertex 931.779912390637 -5.071769984061345 1.878475030557476e-30
vertex 932.5479230452495 -1.5844177287090317 0.0
vertex 932.6372857424969 -6.178055018826442 1.8784750305574777e-30
endloop
endfacet
facet normal 5.048846033017286e-45 2.2929665542699454e-45 -1.0
outer loop
vertex 932.5479230452495 -1.5844177287090317 0.0
vertex 931.779912390637 -5.071769984061345 1.878475030557476e-30
vertex 932.5479230452495 3.4155822712909676 0.0
endloop
endfacet
facet normal 5.048846033017286e-45 2.2929665542699454e-45 -1.0
outer loop
vertex 932.6372857424969 -6.178055018826442 1.8784750305574777e-30
vertex 932.5479230452495 -1.5844177287090317 0.0
vertex 935.2030258639953 -1.5862167222171786 9.390782274838311e-31
endloop
endfacet
facet normal 5.048846033017286e-45 2.2929665542699454e-45 -1.0
outer loop
vertex 932.6372857424969 -6.178055018826442 1.8784750305574777e-30
vertex 935.2030258639953 -1.5862167222171786 9.390782274838311e-31
vertex 933.6317233195755 -7.162965952829815 1.8784750305574805e-30
endloop
endfacet
facet normal 5.048846033017286e-45 2.2929665542699454e-45 -1.0
outer loop
vertex 933.6317233195755 -7.162965952829815 1.8784750305574805e-30
vertex 935.2030258639953 -1.5862167222171786 9.390782274838311e-31
vertex 934.7462100192182 -8.009650686921766 1.878475030557484e-30
endloop
endfacet
facet normal 5.048846033017286e-45 2.2929665542699454e-45 -1.0
outer loop
vertex 934.7462100192182 -8.009650686921766 1.878475030557484e-30
vertex 935.2030258639953 -1.5862167222171786 9.390782274838311e-31
vertex 935.9616766650003 -8.703622210556627 1.8784750305574885e-30
endloop
endfacet
facet normal 5.048846033017286e-45 2.2929665542699454e-45 -1.0
outer loop
vertex 935.9616766650003 -8.703622210556627 1.8784750305574885e-30
vertex 935.2030258639953 -1.5862167222171786 9.390782274838311e-31
vertex 935.4919738140867 -2.1193852566419547 1.127272351155505e-30
endloop
endfacet
facet normal 5.048846033017286e-45 2.2929665542699454e-45 -1.0
outer loop
vertex 935.9616766650003 -8.703622210556627 1.8784750305574885e-30
vertex 935.4919738140867 -2.1193852566419547 1.127272351155505e-30
vertex 935.8308459037114 -2.6223020597375455 1.3159638548448305e-30
endloop
endfacet
facet normal 5.048846033017286e-45 2.2929665542699454e-45 -1.0
outer loop
vertex 935.9616766650003 -8.703622210556627 1.8784750305574885e-30
vertex 935.8308459037114 -2.6223020597375455 1.3159638548448305e-30
vertex 936.2165022118452 -3.0903072049649603 1.503404360807592e-30
endloop
endfacet
facet normal 5.048846033017286e-45 2.2929665542699454e-45 -1.0
outer loop
vertex 935.9616766650003 -8.703622210556627 1.8784750305574885e-30
vertex 936.2165022118452 -3.0903072049649603 1.503404360807592e-30
vertex 937.2573262856213 -9.233006478559743 1.8784750305574938e-30
endloop
endfacet
facet normal 5.048846033017286e-45 2.2929665542699454e-45 -1.0
outer loop
vertex 937.2573262856213 -9.233006478559743 1.8784750305574938e-30
vertex 936.2165022118452 -3.0903072049649603 1.503404360807592e-30
vertex 936.6453693242488 -3.519064250226407 1.6878570827943715e-30
endloop
endfacet
facet normal 5.048846033017286e-45 2.2929665542699454e-45 -1.0
outer loop
vertex 937.2573262856213 -9.233006478559743 1.8784750305574938e-30
vertex 936.6453693242488 -3.519064250226407 1.6878570827943715e-30
vertex 937.1134734440107 -3.904600418470702 1.8676129187646626e-30
endloop
endfacet
facet normal 5.048846033017286e-45 2.2929665542699454e-45 -1.0
outer loop
vertex 937.2573262856213 -9.233006478559743 1.8784750305574938e-30
vertex 937.1134734440107 -3.904600418470702 1.8676129187646626e-30
vertex 937.6164772119553 -4.243343408651063 2.041006287084644e-30
endloop
endfacet
facet normal 5.048846033017286e-45 2.2929665542699454e-45 -1.0
outer loop
vertex 937.2573262856213 -9.233006478559743 1.8784750305574938e-30
vertex 937.6164772119553 -4.243343408651063 2.041006287084644e-30
vertex 938.1479230452496 -7.184417728709528 0.0
endloop
endfacet
facet normal 5.048846033017286e-45 2.2929665542699454e-45 -1.0
outer loop
vertex 937.2573262856213 -9.233006478559743 1.8784750305574938e-30
vertex 938.1479230452496 -7.184417728709528 0.0
vertex 938.6109899568507 -9.588745579332542 1.8784750305574997e-30
endloop
endfacet
facet normal 5.048846033017286e-45 2.2929665542699454e-45 -1.0
outer loop
vertex 938.6109899568507 -9.588745579332542 1.8784750305574997e-30
vertex 938.1479230452496 -7.184417728709528 0.0
vertex 943.1479230452491 -7.184417728709054 0.0
endloop
endfacet
facet normal 5.048846033017286e-45 2.2929665542699454e-45 -1.0
outer loop
vertex 938.6109899568507 -9.588745579332542 1.8784750305574997e-30
vertex 943.1479230452491 -7.184417728709054 0.0
vertex 939.9995061179673 -9.764752718231284 1.8784750305575064e-30
endloop
endfacet
facet normal 5.048846033017286e-45 2.2929665542699454e-45 -1.0
outer loop
vertex 939.9995061179673 -9.764752718231284 1.8784750305575064e-30
vertex 943.1479230452491 -7.184417728709054 0.0
vertex 941.3991168724847 -9.758016364311013 1.8784750305575138e-30
endloop
endfacet
facet normal 5.048846033017286e-45 2.2929665542699454e-45 -1.0
outer loop
vertex 941.3991168724847 -9.758016364311013 1.8784750305575138e-30
vertex 943.1479230452491 -7.184417728709054 0.0
vertex 942.7858744923477 -9.568651778454976 1.8784750305575208e-30
endloop
endfacet
facet normal 5.048846033017286e-45 2.2929665542699454e-45 -1.0
outer loop
vertex 942.7858744923477 -9.568651778454976 1.8784750305575208e-30
vertex 943.1479230452491 -7.184417728709054 0.0
vertex 944.136051170199 -9.199899041228953 1.878475030557529e-30
endloop
endfacet
facet normal 5.048846033017286e-45 2.2929665542699454e-45 -1.0
outer loop
vertex 944.136051170199 -9.199899041228953 1.878475030557529e-30
vertex 943.1479230452491 -7.184417728709054 0.0
vertex 943.1497220387571 -4.529314909963977 9.391199592191554e-31
endloop
endfacet
facet normal 5.048846033017286e-45 2.2929665542699454e-45 -1.0
outer loop
vertex 944.136051170199 -9.199899041228953 1.878475030557529e-30
vertex 943.1497220387571 -4.529314909963977 9.391199592191554e-31
vertex 943.6828905731821 -4.240366959872676 1.145575507808108e-30
endloop
endfacet
facet normal 5.048846033017286e-45 2.2929665542699454e-45 -1.0
outer loop
vertex 944.136051170199 -9.199899041228953 1.878475030557529e-30
vertex 943.6828905731821 -4.240366959872676 1.145575507808108e-30
vertex 944.1858073762779 -3.9014948702477565 1.3517720720823192e-30
endloop
endfacet
facet normal 5.048846033017286e-45 2.2929665542699454e-45 -1.0
outer loop
vertex 944.136051170199 -9.199899041228953 1.878475030557529e-30
vertex 944.1858073762779 -3.9014948702477565 1.3517720720823192e-30
vertex 945.4265450087404 -8.658067614204457 1.8784750305575365e-30
endloop
endfacet
facet normal 5.048846033017286e-45 2.2929665542699454e-45 -1.0
outer loop
vertex 945.4265450087404 -8.658067614204457 1.8784750305575365e-30
vertex 944.1858073762779 -3.9014948702477565 1.3517720720823192e-30
vertex 944.6538125215054 -3.515838562114023 1.5557990759063389e-30
endloop
endfacet
facet normal 5.048846033017286e-45 2.2929665542699454e-45 -1.0
outer loop
vertex 945.4265450087404 -8.658067614204457 1.8784750305575365e-30
vertex 944.6538125215054 -3.515838562114023 1.5557990759063389e-30
vertex 945.0825695667671 -3.0869714497104535 1.755766045858045e-30
endloop
endfacet
facet normal 5.048846033017286e-45 2.2929665542699454e-45 -1.0
outer loop
vertex 945.4265450087404 -8.658067614204457 1.8784750305575365e-30
vertex 945.0825695667671 -3.0869714497104535 1.755766045858045e-30
vertex 945.4681057350115 -2.6188673299483662 1.9498201279773695e-30
endloop
endfacet
facet normal 5.048846033017286e-45 2.2929665542699454e-45 -1.0
outer loop
vertex 945.4265450087404 -8.658067614204457 1.8784750305575365e-30
vertex 945.4681057350115 -2.6188673299483662 1.9498201279773695e-30
vertex 946.6352753006022 -7.952428383321922 1.8784750305575442e-30
endloop
endfacet
facet normal 5.048846033017286e-45 2.2929665542699454e-45 -1.0
outer loop
vertex 946.6352753006022 -7.952428383321922 1.8784750305575442e-30
vertex 945.4681057350115 -2.6188673299483662 1.9498201279773695e-30
vertex 945.806848725192 -2.115863562003802 2.136163255940615e-30
endloop
endfacet
facet normal 5.048846033017286e-45 2.2929665542699454e-45 -1.0
outer loop
vertex 946.6352753006022 -7.952428383321922 1.8784750305575442e-30
vertex 945.806848725192 -2.115863562003802 2.136163255940615e-30
vertex 946.0956598124933 -1.5826208782146596 2.313068811583484e-30
endloop
endfacet
facet normal 5.048846033017286e-45 2.2929665542699454e-45 -1.0
outer loop
vertex 946.6352753006022 -7.952428383321922 1.8784750305575442e-30
vertex 946.0956598124933 -1.5826208782146596 2.313068811583484e-30
vertex 948.7479230452494 -1.5844177287090317 0.0
endloop
endfacet
facet normal 5.048846033017286e-45 2.2929665542699454e-45 -1.0
outer loop
vertex 946.6352753006022 -7.952428383321922 1.8784750305575442e-30
vertex 948.7479230452494 -1.5844177287090317 0.0
vertex 947.7415603353674 -7.095055031461912 1.878475030557552e-30
endloop
endfacet
facet normal 5.048846033017286e-45 2.2929665542699454e-45 -1.0
outer loop
vertex 947.7415603353674 -7.095055031461912 1.878475030557552e-30
vertex 948.7479230452494 -1.5844177287090317 0.0
vertex 948.7264712693708 -6.1006174543835465 1.878475030557559e-30
endloop
endfacet
facet normal 5.048846033017286e-45 2.2929665542699454e-45 -1.0
outer loop
vertex 948.7264712693708 -6.1006174543835465 1.878475030557559e-30
vertex 948.7479230452494 -1.5844177287090317 0.0
vertex 949.5731560034627 -4.986130754740825 1.8784750305575656e-30
endloop
endfacet
facet normal 5.048846033017286e-45 2.2929665542699454e-45 -1.0
outer loop
vertex 949.5731560034627 -4.986130754740825 1.8784750305575656e-30
vertex 948.7479230452494 -1.5844177287090317 0.0
vertex 949.5159336998629 6.902934526643293 1.8784750305575926e-30
endloop
endfacet
facet normal 5.048846033017286e-45 2.2929665542699454e-45 -1.0
outer loop
vertex 949.5731560034627 -4.986130754740825 1.8784750305575656e-30
vertex 949.5159336998629 6.902934526643293 1.8784750305575926e-30
vertex 950.2215729307453 5.69420423478146 1.8784750305575936e-30
endloop
endfacet
facet normal 5.048846033017286e-45 2.2929665542699454e-45 -1.0
outer loop
vertex 949.5731560034627 -4.986130754740825 1.8784750305575656e-30
vertex 950.2215729307453 5.69420423478146 1.8784750305575936e-30
vertex 950.2671275270974 -3.770664108958722 1.878475030557572e-30
endloop
endfacet
facet normal 5.048846033017286e-45 2.2929665542699454e-45 -1.0
outer loop
vertex 950.2671275270974 -3.770664108958722 1.878475030557572e-30
vertex 950.2215729307453 5.69420423478146 1.8784750305575936e-30
vertex 950.7634043577698 4.403710396239997 1.8784750305575933e-30
endloop
endfacet
facet normal 5.048846033017286e-45 2.2929665542699454e-45 -1.0
outer loop
vertex 950.2671275270974 -3.770664108958722 1.878475030557572e-30
vertex 950.7634043577698 4.403710396239997 1.8784750305575933e-30
vertex 950.7965117951005 -2.475014488337589 1.8784750305575775e-30
endloop
endfacet
facet normal 5.048846033017286e-45 2.2929665542699454e-45 -1.0
outer loop
vertex 950.7965117951005 -2.475014488337589 1.8784750305575775e-30
vertex 950.7634043577698 4.403710396239997 1.8784750305575933e-30
vertex 951.1321570949959 3.0535337183887856 1.8784750305575922e-30
endloop
endfacet
facet normal 5.048846033017286e-45 2.2929665542699454e-45 -1.0
outer loop
vertex 950.7965117951005 -2.475014488337589 1.8784750305575775e-30
vertex 951.1321570949959 3.0535337183887856 1.8784750305575922e-30
vertex 951.1522508958735 -1.1213508171081918 1.8784750305575828e-30
endloop
endfacet
facet normal 5.048846033017286e-45 2.2929665542699454e-45 -1.0
outer loop
vertex 951.1522508958735 -1.1213508171081918 1.8784750305575828e-30
vertex 951.1321570949959 3.0535337183887856 1.8784750305575922e-30
vertex 951.3215216808518 1.666776098525652 1.8784750305575898e-30
endloop
endfacet
facet normal 5.048846033017286e-45 2.2929665542699454e-45 -1.0
outer loop
vertex 951.1522508958735 -1.1213508171081918 1.8784750305575828e-30
vertex 951.3215216808518 1.666776098525652 1.8784750305575898e-30
vertex 951.3282580347721 0.26716534400825803 1.878475030557587e-30
endloop
endfacet
facet normal 5.048846033017286e-45 2.2929665542699454e-45 -1.0
outer loop
vertex 943.6793688785444 6.074507951233169 1.459129148249934e-30
vertex 943.1461261947555 6.36331903853444 1.5543463056972138e-30
vertex 943.1479230452497 9.015582271290986 0.0
endloop
endfacet
facet normal -5.048846033017286e-45 -2.2929665542699454e-45 1.0
outer loop
vertex 943.6793688785444 6.074507951233169 3.5
vertex 943.1479230452497 9.015582271290986 3.5
vertex 943.1461261947555 6.36331903853444 3.5
endloop
endfacet
facet normal -5.048846033017286e-45 -2.2929665542699454e-45 1.0
outer loop
vertex 932.6372857424969 -6.178055018826442 3.5
vertex 932.5479230452495 -1.5844177287090317 3.5
vertex 931.779912390637 -5.071769984061345 3.5
endloop
endfacet
facet normal -5.048846033017286e-45 -2.2929665542699454e-45 1.0
outer loop
vertex 932.5479230452495 -1.5844177287090317 3.5
vertex 932.6372857424969 -6.178055018826442 3.5
vertex 935.2030258639953 -1.5862167222171786 3.5
endloop
endfacet
facet normal -5.048846033017286e-45 -2.2929665542699454e-45 1.0
outer loop
vertex 935.2030258639953 -1.5862167222171786 3.5
vertex 932.6372857424969 -6.178055018826442 3.5
vertex 933.6317233195755 -7.162965952829815 3.5
endloop
endfacet
facet normal -5.048846033017286e-45 -2.2929665542699454e-45 1.0
outer loop
vertex 935.2030258639953 -1.5862167222171786 3.5
vertex 933.6317233195755 -7.162965952829815 3.5
vertex 934.7462100192182 -8.009650686921766 3.5
endloop
endfacet
facet normal -5.048846033017286e-45 -2.2929665542699454e-45 1.0
outer loop
vertex 935.2030258639953 -1.5862167222171786 3.5
vertex 934.7462100192182 -8.009650686921766 3.5
vertex 935.9616766650003 -8.703622210556627 3.5
endloop
endfacet
facet normal -5.048846033017286e-45 -2.2929665542699454e-45 1.0
outer loop
vertex 935.2030258639953 -1.5862167222171786 3.5
vertex 935.9616766650003 -8.703622210556627 3.5
vertex 935.4919738140867 -2.1193852566419547 3.5
endloop
endfacet
facet normal -5.048846033017286e-45 -2.2929665542699454e-45 1.0
outer loop
vertex 935.4919738140867 -2.1193852566419547 3.5
vertex 935.9616766650003 -8.703622210556627 3.5
vertex 935.8308459037114 -2.6223020597375455 3.5
endloop
endfacet
facet normal -5.048846033017286e-45 -2.2929665542699454e-45 1.0
outer loop
vertex 935.8308459037114 -2.6223020597375455 3.5
vertex 935.9616766650003 -8.703622210556627 3.5
vertex 936.2165022118452 -3.0903072049649603 3.5
endloop
endfacet
facet normal -5.048846033017286e-45 -2.2929665542699454e-45 1.0
outer loop
vertex 936.2165022118452 -3.0903072049649603 3.5
vertex 935.9616766650003 -8.703622210556627 3.5
vertex 937.2573262856213 -9.233006478559743 3.5
endloop
endfacet
facet normal -5.048846033017286e-45 -2.2929665542699454e-45 1.0
outer loop
vertex 936.2165022118452 -3.0903072049649603 3.5
vertex 937.2573262856213 -9.233006478559743 3.5
vertex 936.6453693242488 -3.519064250226407 3.5
endloop
endfacet
facet normal -5.048846033017286e-45 -2.2929665542699454e-45 1.0
outer loop
vertex 936.6453693242488 -3.519064250226407 3.5
vertex 937.2573262856213 -9.233006478559743 3.5
vertex 937.1134734440107 -3.904600418470702 3.5
endloop
endfacet
facet normal -5.048846033017286e-45 -2.2929665542699454e-45 1.0
outer loop
vertex 937.1134734440107 -3.904600418470702 3.5
vertex 937.2573262856213 -9.233006478559743 3.5
vertex 937.6164772119553 -4.243343408651063 3.5
endloop
endfacet
facet normal -5.048846033017286e-45 -2.2929665542699454e-45 1.0
outer loop
vertex 937.6164772119553 -4.243343408651063 3.5
vertex 937.2573262856213 -9.233006478559743 3.5
vertex 938.1479230452496 -7.184417728709528 3.5
endloop
endfacet
facet normal -5.048846033017286e-45 -2.2929665542699454e-45 1.0
outer loop
vertex 938.1479230452496 -7.184417728709528 3.5
vertex 937.2573262856213 -9.233006478559743 3.5
vertex 938.6109899568507 -9.588745579332542 3.5
endloop
endfacet
facet normal -5.048846033017286e-45 -2.2929665542699454e-45 1.0
outer loop
vertex 938.1479230452496 -7.184417728709528 3.5
vertex 938.6109899568507 -9.588745579332542 3.5
vertex 943.1479230452491 -7.184417728709054 3.5
endloop
endfacet
facet normal -5.048846033017286e-45 -2.2929665542699454e-45 1.0
outer loop
vertex 943.1479230452491 -7.184417728709054 3.5
vertex 938.6109899568507 -9.588745579332542 3.5
vertex 939.9995061179673 -9.764752718231284 3.5
endloop
endfacet
facet normal -5.048846033017286e-45 -2.2929665542699454e-45 1.0
outer loop
vertex 943.1479230452491 -7.184417728709054 3.5
vertex 939.9995061179673 -9.764752718231284 3.5
vertex 941.3991168724847 -9.758016364311013 3.5
endloop
endfacet
facet normal -5.048846033017286e-45 -2.2929665542699454e-45 1.0
outer loop
vertex 943.1479230452491 -7.184417728709054 3.5
vertex 941.3991168724847 -9.758016364311013 3.5
vertex 942.7858744923477 -9.568651778454976 3.5
endloop
endfacet
facet normal -5.048846033017286e-45 -2.2929665542699454e-45 1.0
outer loop
vertex 943.1479230452491 -7.184417728709054 3.5
vertex 942.7858744923477 -9.568651778454976 3.5
vertex 944.136051170199 -9.199899041228953 3.5
endloop
endfacet
facet normal -5.048846033017286e-45 -2.2929665542699454e-45 1.0
outer loop
vertex 943.1479230452491 -7.184417728709054 3.5
vertex 944.136051170199 -9.199899041228953 3.5
vertex 943.1497220387571 -4.529314909963977 3.5
endloop
endfacet
facet normal -5.048846033017286e-45 -2.2929665542699454e-45 1.0
outer loop
vertex 943.1497220387571 -4.529314909963977 3.5
vertex 944.136051170199 -9.199899041228953 3.5
vertex 943.6828905731821 -4.240366959872676 3.5
endloop
endfacet
facet normal -5.048846033017286e-45 -2.2929665542699454e-45 1.0
outer loop
vertex 943.6828905731821 -4.240366959872676 3.5
vertex 944.136051170199 -9.199899041228953 3.5
vertex 944.1858073762779 -3.9014948702477565 3.5
endloop
endfacet
facet normal -5.048846033017286e-45 -2.2929665542699454e-45 1.0
outer loop
vertex 944.1858073762779 -3.9014948702477565 3.5
vertex 944.136051170199 -9.199899041228953 3.5
vertex 945.4265450087404 -8.658067614204457 3.5
endloop
endfacet
facet normal -5.048846033017286e-45 -2.2929665542699454e-45 1.0
outer loop
vertex 944.1858073762779 -3.9014948702477565 3.5
vertex 945.4265450087404 -8.658067614204457 3.5
vertex 944.6538125215054 -3.515838562114023 3.5
endloop
endfacet
facet normal -5.048846033017286e-45 -2.2929665542699454e-45 1.0
outer loop
vertex 944.6538125215054 -3.515838562114023 3.5
vertex 945.4265450087404 -8.658067614204457 3.5
vertex 945.0825695667671 -3.0869714497104535 3.5
endloop
endfacet
facet normal -5.048846033017286e-45 -2.2929665542699454e-45 1.0
outer loop
vertex 945.0825695667671 -3.0869714497104535 3.5
vertex 945.4265450087404 -8.658067614204457 3.5
vertex 945.4681057350115 -2.6188673299483662 3.5
endloop
endfacet
facet normal -5.048846033017286e-45 -2.2929665542699454e-45 1.0
outer loop
vertex 945.4681057350115 -2.6188673299483662 3.5
vertex 945.4265450087404 -8.658067614204457 3.5
vertex 946.6352753006022 -7.952428383321922 3.5
endloop
endfacet
facet normal -5.048846033017286e-45 -2.2929665542699454e-45 1.0
outer loop
vertex 945.4681057350115 -2.6188673299483662 3.5
vertex 946.6352753006022 -7.952428383321922 3.5
vertex 945.806848725192 -2.115863562003802 3.5
endloop
endfacet
facet normal -5.048846033017286e-45 -2.2929665542699454e-45 1.0
outer loop
vertex 945.806848725192 -2.115863562003802 3.5
vertex 946.6352753006022 -7.952428383321922 3.5
vertex 946.0956598124933 -1.5826208782146596 3.5
endloop
endfacet
facet normal -5.048846033017286e-45 -2.2929665542699454e-45 1.0
outer loop
vertex 946.0956598124933 -1.5826208782146596 3.5
vertex 946.6352753006022 -7.952428383321922 3.5
vertex 948.7479230452494 -1.5844177287090317 3.5
endloop
endfacet
facet normal -5.048846033017286e-45 -2.2929665542699454e-45 1.0
outer loop
vertex 948.7479230452494 -1.5844177287090317 3.5
vertex 946.6352753006022 -7.952428383321922 3.5
vertex 947.7415603353674 -7.095055031461912 3.5
endloop
endfacet
facet normal -5.048846033017286e-45 -2.2929665542699454e-45 1.0
outer loop
vertex 948.7479230452494 -1.5844177287090317 3.5
vertex 947.7415603353674 -7.095055031461912 3.5
vertex 948.7264712693708 -6.1006174543835465 3.5
endloop
endfacet
facet normal -5.048846033017286e-45 -2.2929665542699454e-45 1.0
outer loop
vertex 948.7479230452494 -1.5844177287090317 3.5
vertex 948.7264712693708 -6.1006174543835465 3.5
vertex 949.5731560034627 -4.986130754740825 3.5
endloop
endfacet
facet normal -5.048846033017286e-45 -2.2929665542699454e-45 1.0
outer loop
vertex 948.7479230452494 -1.5844177287090317 3.5
vertex 949.5731560034627 -4.986130754740825 3.5
vertex 948.7479230452494 3.4155822712909676 3.5
endloop
endfacet
facet normal -5.048846033017286e-45 -2.2929665542699454e-45 1.0
outer loop
vertex 948.7479230452494 3.4155822712909676 3.5
vertex 949.5731560034627 -4.986130754740825 3.5
vertex 949.5159336998629 6.902934526643293 3.5
endloop
endfacet
facet normal -5.048846033017286e-45 -2.2929665542699454e-45 1.0
outer loop
vertex 949.5159336998629 6.902934526643293 3.5
vertex 949.5731560034627 -4.986130754740825 3.5
vertex 950.2215729307453 5.69420423478146 3.5
endloop
endfacet
facet normal -5.048846033017286e-45 -2.2929665542699454e-45 1.0
outer loop
vertex 950.2215729307453 5.69420423478146 3.5
vertex 949.5731560034627 -4.986130754740825 3.5
vertex 950.2671275270974 -3.770664108958722 3.5
endloop
endfacet
facet normal -5.048846033017286e-45 -2.2929665542699454e-45 1.0
outer loop
vertex 950.2215729307453 5.69420423478146 3.5
vertex 950.2671275270974 -3.770664108958722 3.5
vertex 950.7634043577698 4.403710396239997 3.5
endloop
endfacet
facet normal -5.048846033017286e-45 -2.2929665542699454e-45 1.0
outer loop
vertex 950.7634043577698 4.403710396239997 3.5
vertex 950.2671275270974 -3.770664108958722 3.5
vertex 950.7965117951005 -2.475014488337589 3.5
endloop
endfacet
facet normal -5.048846033017286e-45 -2.2929665542699454e-45 1.0
outer loop
vertex 950.7634043577698 4.403710396239997 3.5
vertex 950.7965117951005 -2.475014488337589 3.5
vertex 951.1321570949959 3.0535337183887856 3.5
endloop
endfacet
facet normal -5.048846033017286e-45 -2.2929665542699454e-45 1.0
outer loop
vertex 951.1321570949959 3.0535337183887856 3.5
vertex 950.7965117951005 -2.475014488337589 3.5
vertex 951.1522508958735 -1.1213508171081918 3.5
endloop
endfacet
facet normal -5.048846033017286e-45 -2.2929665542699454e-45 1.0
outer loop
vertex 951.1321570949959 3.0535337183887856 3.5
vertex 951.1522508958735 -1.1213508171081918 3.5
vertex 951.3215216808518 1.666776098525652 3.5
endloop
endfacet
facet normal -5.048846033017286e-45 -2.2929665542699454e-45 1.0
outer loop
vertex 951.3215216808518 1.666776098525652 3.5
vertex 951.1522508958735 -1.1213508171081918 3.5
vertex 951.3282580347721 0.26716534400825803 3.5
endloop
endfacet
facet normal -5.048846033017286e-45 -2.2929665542699454e-45 1.0
outer loop
vertex 929.974324409648 0.16438844405624287 3.5
vertex 930.1435951946265 2.952515359690088 3.5
vertex 929.9675880557278 1.5639991985736368 3.5
endloop
endfacet
facet normal -5.048846033017286e-45 -2.2929665542699454e-45 1.0
outer loop
vertex 930.1435951946265 2.952515359690088 3.5
vertex 929.974324409648 0.16438844405624287 3.5
vertex 930.1636889955039 -1.222369175806888 3.5
endloop
endfacet
facet normal -5.048846033017286e-45 -2.2929665542699454e-45 1.0
outer loop
vertex 930.1435951946265 2.952515359690088 3.5
vertex 930.1636889955039 -1.222369175806888 3.5
vertex 930.4993342953993 4.306179030919487 3.5
endloop
endfacet
facet normal -5.048846033017286e-45 -2.2929665542699454e-45 1.0
outer loop
vertex 930.4993342953993 4.306179030919487 3.5
vertex 930.1636889955039 -1.222369175806888 3.5
vertex 930.53244173273 -2.57254585365805 3.5
endloop
endfacet
facet normal -5.048846033017286e-45 -2.2929665542699454e-45 1.0
outer loop
vertex 930.4993342953993 4.306179030919487 3.5
vertex 930.53244173273 -2.57254585365805 3.5
vertex 931.0287185634024 5.601828651540622 3.5
endloop
endfacet
facet normal -5.048846033017286e-45 -2.2929665542699454e-45 1.0
outer loop
vertex 931.0287185634024 5.601828651540622 3.5
vertex 930.53244173273 -2.57254585365805 3.5
vertex 931.0742731597545 -3.863039692199513 3.5
endloop
endfacet
facet normal -5.048846033017286e-45 -2.2929665542699454e-45 1.0
outer loop
vertex 931.0287185634024 5.601828651540622 3.5
vertex 931.0742731597545 -3.863039692199513 3.5
vertex 931.7226900870372 6.817295297322725 3.5
endloop
endfacet
facet normal -5.048846033017286e-45 -2.2929665542699454e-45 1.0
outer loop
vertex 931.7226900870372 6.817295297322725 3.5
vertex 931.0742731597545 -3.863039692199513 3.5
vertex 931.779912390637 -5.071769984061345 3.5
endloop
endfacet
facet normal -5.048846033017286e-45 -2.2929665542699454e-45 1.0
outer loop
vertex 931.7226900870372 6.817295297322725 3.5
vertex 931.779912390637 -5.071769984061345 3.5
vertex 932.5693748211291 7.931781996965453 3.5
endloop
endfacet
facet normal -5.048846033017286e-45 -2.2929665542699454e-45 1.0
outer loop
vertex 932.5693748211291 7.931781996965453 3.5
vertex 931.779912390637 -5.071769984061345 3.5
vertex 932.5479230452495 3.4155822712909676 3.5
endloop
endfacet
facet normal -5.048846033017286e-45 -2.2929665542699454e-45 1.0
outer loop
vertex 932.5479230452495 3.4155822712909676 3.5
vertex 931.779912390637 -5.071769984061345 3.5
vertex 932.5479230452495 -1.5844177287090317 3.5
endloop
endfacet
facet normal -5.048846033017286e-45 -2.2929665542699454e-45 1.0
outer loop
vertex 932.5693748211291 7.931781996965453 3.5
vertex 932.5479230452495 3.4155822712909676 3.5
vertex 935.2001862780064 3.4137854207966702 3.5
endloop
endfacet
facet normal -5.048846033017286e-45 -2.2929665542699454e-45 1.0
outer loop
vertex 932.5693748211291 7.931781996965453 3.5
vertex 935.2001862780064 3.4137854207966702 3.5
vertex 933.5542857551326 8.92621957404382 3.5
endloop
endfacet
facet normal -5.048846033017286e-45 -2.2929665542699454e-45 1.0
outer loop
vertex 933.5542857551326 8.92621957404382 3.5
vertex 935.2001862780064 3.4137854207966702 3.5
vertex 934.6605707898975 9.783592925903834 3.5
endloop
endfacet
facet normal -5.048846033017286e-45 -2.2929665542699454e-45 1.0
outer loop
vertex 934.6605707898975 9.783592925903834 3.5
vertex 935.2001862780064 3.4137854207966702 3.5
vertex 935.8693010817594 10.489232156786374 3.5
endloop
endfacet
facet normal -5.048846033017286e-45 -2.2929665542699454e-45 1.0
outer loop
vertex 935.8693010817594 10.489232156786374 3.5
vertex 935.2001862780064 3.4137854207966702 3.5
vertex 935.4889973653077 3.9470281045857534 3.5
endloop
endfacet
facet normal -5.048846033017286e-45 -2.2929665542699454e-45 1.0
outer loop
vertex 935.8693010817594 10.489232156786374 3.5
vertex 935.4889973653077 3.9470281045857534 3.5
vertex 935.8277403554882 4.450031872530262 3.5
endloop
endfacet
facet normal -5.048846033017286e-45 -2.2929665542699454e-45 1.0
outer loop
vertex 935.8693010817594 10.489232156786374 3.5
vertex 935.8277403554882 4.450031872530262 3.5
vertex 936.2132765237326 4.918135992292306 3.5
endloop
endfacet
facet normal -5.048846033017286e-45 -2.2929665542699454e-45 1.0
outer loop
vertex 935.8693010817594 10.489232156786374 3.5
vertex 936.2132765237326 4.918135992292306 3.5
vertex 937.1597949203009 11.031063583810875 3.5
endloop
endfacet
facet normal -5.048846033017286e-45 -2.2929665542699454e-45 1.0
outer loop
vertex 937.1597949203009 11.031063583810875 3.5
vertex 936.2132765237326 4.918135992292306 3.5
vertex 936.6420335689941 5.34700310469584 3.5
endloop
endfacet
facet normal -5.048846033017286e-45 -2.2929665542699454e-45 1.0
outer loop
vertex 937.1597949203009 11.031063583810875 3.5
vertex 936.6420335689941 5.34700310469584 3.5
vertex 937.1100387142216 5.732659412829548 3.5
endloop
endfacet
facet normal -5.048846033017286e-45 -2.2929665542699454e-45 1.0
outer loop
vertex 937.1597949203009 11.031063583810875 3.5
vertex 937.1100387142216 5.732659412829548 3.5
vertex 937.6129555173172 6.071531502454457 3.5
endloop
endfacet
facet normal -5.048846033017286e-45 -2.2929665542699454e-45 1.0
outer loop
vertex 937.1597949203009 11.031063583810875 3.5
vertex 937.6129555173172 6.071531502454457 3.5
vertex 938.5099715981521 11.399816321036903 3.5
endloop
endfacet
facet normal -5.048846033017286e-45 -2.2929665542699454e-45 1.0
outer loop
vertex 938.5099715981521 11.399816321036903 3.5
vertex 937.6129555173172 6.071531502454457 3.5
vertex 938.1479230452505 9.015582271289926 3.5
endloop
endfacet
facet normal -5.048846033017286e-45 -2.2929665542699454e-45 1.0
outer loop
vertex 938.1479230452505 9.015582271289926 3.5
vertex 937.6129555173172 6.071531502454457 3.5
vertex 938.1461240517423 6.360479452545759 3.5
endloop
endfacet
facet normal -5.048846033017286e-45 -2.2929665542699454e-45 1.0
outer loop
vertex 938.5099715981521 11.399816321036903 3.5
vertex 938.1479230452505 9.015582271289926 3.5
vertex 943.1479230452497 9.015582271290986 3.5
endloop
endfacet
facet normal -5.048846033017286e-45 -2.2929665542699454e-45 1.0
outer loop
vertex 938.5099715981521 11.399816321036903 3.5
vertex 943.1479230452497 9.015582271290986 3.5
vertex 939.8967292180153 11.589180906892944 3.5
endloop
endfacet
facet normal -5.048846033017286e-45 -2.2929665542699454e-45 1.0
outer loop
vertex 939.8967292180153 11.589180906892944 3.5
vertex 943.1479230452497 9.015582271290986 3.5
vertex 941.2963399725326 11.595917260813218 3.5
endloop
endfacet
facet normal -5.048846033017286e-45 -2.2929665542699454e-45 1.0
outer loop
vertex 941.2963399725326 11.595917260813218 3.5
vertex 943.1479230452497 9.015582271290986 3.5
vertex 942.6848561336492 11.419910121914484 3.5
endloop
endfacet
facet normal -5.048846033017286e-45 -2.2929665542699454e-45 1.0
outer loop
vertex 942.6848561336492 11.419910121914484 3.5
vertex 943.1479230452497 9.015582271290986 3.5
vertex 944.0385198048785 11.064171021141684 3.5
endloop
endfacet
facet normal -5.048846033017286e-45 -2.2929665542699454e-45 1.0
outer loop
vertex 944.0385198048785 11.064171021141684 3.5
vertex 943.1479230452497 9.015582271290986 3.5
vertex 943.6793688785444 6.074507951233169 3.5
endloop
endfacet
facet normal -5.048846033017286e-45 -2.2929665542699454e-45 1.0
outer loop
vertex 944.0385198048785 11.064171021141684 3.5
vertex 943.6793688785444 6.074507951233169 3.5
vertex 944.1823726464891 5.73576496105279 3.5
endloop
endfacet
facet normal -5.048846033017286e-45 -2.2929665542699454e-45 1.0
outer loop
vertex 944.0385198048785 11.064171021141684 3.5
vertex 944.1823726464891 5.73576496105279 3.5
vertex 945.3341694254996 10.53478675313857 3.5
endloop
endfacet
facet normal -5.048846033017286e-45 -2.2929665542699454e-45 1.0
outer loop
vertex 945.3341694254996 10.53478675313857 3.5
vertex 944.1823726464891 5.73576496105279 3.5
vertex 944.6504767662509 5.350228792808466 3.5
endloop
endfacet
facet normal -5.048846033017286e-45 -2.2929665542699454e-45 1.0
outer loop
vertex 945.3341694254996 10.53478675313857 3.5
vertex 944.6504767662509 5.350228792808466 3.5
vertex 945.0793438786545 4.921471747546985 3.5
endloop
endfacet
facet normal -5.048846033017286e-45 -2.2929665542699454e-45 1.0
outer loop
vertex 945.3341694254996 10.53478675313857 3.5
vertex 945.0793438786545 4.921471747546985 3.5
vertex 945.4650001867881 4.453466602319528 3.5
endloop
endfacet
facet normal -5.048846033017286e-45 -2.2929665542699454e-45 1.0
outer loop
vertex 945.3341694254996 10.53478675313857 3.5
vertex 945.4650001867881 4.453466602319528 3.5
vertex 946.5496360712816 9.840815229503711 3.5
endloop
endfacet
facet normal -5.048846033017286e-45 -2.2929665542699454e-45 1.0
outer loop
vertex 946.5496360712816 9.840815229503711 3.5
vertex 945.4650001867881 4.453466602319528 3.5
vertex 945.803872276413 3.9505497992238876 3.5
endloop
endfacet
facet normal -5.048846033017286e-45 -2.2929665542699454e-45 1.0
outer loop
vertex 946.5496360712816 9.840815229503711 3.5
vertex 945.803872276413 3.9505497992238876 3.5
vertex 946.0928202265044 3.417381264799062 3.5
endloop
endfacet
facet normal -5.048846033017286e-45 -2.2929665542699454e-45 1.0
outer loop
vertex 946.5496360712816 9.840815229503711 3.5
vertex 946.0928202265044 3.417381264799062 3.5
vertex 948.7479230452494 3.4155822712909676 3.5
endloop
endfacet
facet normal -5.048846033017286e-45 -2.2929665542699454e-45 1.0
outer loop
vertex 946.5496360712816 9.840815229503711 3.5
vertex 948.7479230452494 3.4155822712909676 3.5
vertex 947.6641227709245 8.994130495411762 3.5
endloop
endfacet
facet normal -5.048846033017286e-45 -2.2929665542699454e-45 1.0
outer loop
vertex 947.6641227709245 8.994130495411762 3.5
vertex 948.7479230452494 3.4155822712909676 3.5
vertex 948.6585603480028 8.009219561408388 3.5
endloop
endfacet
facet normal -5.048846033017286e-45 -2.2929665542699454e-45 1.0
outer loop
vertex 948.6585603480028 8.009219561408388 3.5
vertex 948.7479230452494 3.4155822712909676 3.5
vertex 949.5159336998629 6.902934526643293 3.5
endloop
endfacet
facet normal -5.048846033017286e-45 -2.2929665542699454e-45 1.0
outer loop
vertex 938.1497198957442 -4.532154495952324 3.5
vertex 937.6164772119553 -4.243343408651063 3.5
vertex 938.1479230452496 -7.184417728709528 3.5
endloop
endfacet
facet normal -0.8552382471391506 -0.5182350245114213 -5.506261809809113e-45
outer loop
vertex 945.803872276413 3.9505497992238876 3.5
vertex 946.0928202265044 3.417381264799062 9.388230413105144e-31
vertex 946.0928202265044 3.417381264799062 3.5
endloop
endfacet
facet normal -0.8791895138044176 -0.47647224348995587 -5.531427407402265e-45
outer loop
vertex 946.0928202265044 3.417381264799062 9.388230413105144e-31
vertex 945.803872276413 3.9505497992238876 3.5
vertex 945.803872276413 3.9505497992238876 1.0153500342437987e-30
endloop
endfacet
facet normal -0.43796695142522635 -0.8989910730698574 -4.27258416843236e-45
outer loop
vertex 935.9616766650003 -8.703622210556627 1.8784750305574885e-30
vertex 934.7462100192182 -8.009650686921766 3.5
vertex 934.7462100192182 -8.009650686921766 1.878475030557484e-30
endloop
endfacet
facet normal -0.551561965049696 -0.8341339213282949 -4.697392622592195e-45
outer loop
vertex 934.7462100192182 -8.009650686921766 3.5
vertex 935.9616766650003 -8.703622210556627 1.8784750305574885e-30
vertex 935.9616766650003 -8.703622210556627 3.5
endloop
endfacet
facet normal 0.9453720852822244 0.32599328270554717 5.520529796662925e-45
outer loop
vertex 950.7634043577698 4.403710396239997 1.8784750305575933e-30
vertex 951.1321570949959 3.0535337183887856 3.5
vertex 951.1321570949959 3.0535337183887856 1.8784750305575922e-30
endloop
endfacet
facet normal 0.9798349579201875 0.1998085464577142 5.405190154591829e-45
outer loop
vertex 951.1321570949959 3.0535337183887856 3.5
vertex 950.7634043577698 4.403710396239997 1.8784750305575933e-30
vertex 950.7634043577698 4.403710396239997 3.5
endloop
endfacet
facet normal 0.8947336341584651 0.44660018350375325 5.541411643333032e-45
outer loop
vertex 950.2215729307453 5.69420423478146 1.8784750305575936e-30
vertex 950.7634043577698 4.403710396239997 3.5
vertex 950.7634043577698 4.403710396239997 1.8784750305575933e-30
endloop
endfacet
facet normal 0.9453720852822244 0.32599328270554717 5.520529796662925e-45
outer loop
vertex 950.7634043577698 4.403710396239997 3.5
vertex 950.2215729307453 5.69420423478146 1.8784750305575936e-30
vertex 950.2215729307453 5.69420423478146 3.5
endloop
endfacet
facet normal -0.47647224348968886 0.8791895138045623 -3.896828463670466e-46
outer loop
vertex 943.1497220387571 -4.529314909963977 3.5
vertex 943.6828905731821 -4.240366959872676 1.145575507808108e-30
vertex 943.1497220387571 -4.529314909963977 9.391199592191554e-31
endloop
endfacet
facet normal -0.5182350245111919 0.8552382471392894 -6.554561510511025e-46
outer loop
vertex 943.6828905731821 -4.240366959872676 1.145575507808108e-30
vertex 943.1497220387571 -4.529314909963977 3.5
vertex 943.6828905731821 -4.240366959872676 3.5
endloop
endfacet
facet normal -0.999999770455781 0.00067756061362716 -5.047291250258329e-45
outer loop
vertex 943.1497220387571 -4.529314909963977 3.5
vertex 943.1479230452491 -7.184417728709054 0.0
vertex 943.1479230452491 -7.184417728709054 3.5
endloop
endfacet
facet normal -0.999999770455781 0.00067756061362716 -5.047291250258329e-45
outer loop
vertex 943.1479230452491 -7.184417728709054 0.0
vertex 943.1497220387571 -4.529314909963977 3.5
vertex 943.1497220387571 -4.529314909963977 9.391199592191554e-31
endloop
endfacet
facet normal -1.0 0.0 -5.0488460330172866e-45
outer loop
vertex 948.7479230452494 3.4155822712909676 3.5
vertex 948.7479230452494 -1.5844177287090317 0.0
vertex 948.7479230452494 -1.5844177287090317 3.5
endloop
endfacet
facet normal -1.0 0.0 -5.0488460330172866e-45
outer loop
vertex 948.7479230452494 -1.5844177287090317 0.0
vertex 948.7479230452494 3.4155822712909676 3.5
vertex 948.7479230452494 3.4155822712909676 0.0
endloop
endfacet
facet normal 0.0006774780345425572 0.9999997705117302 2.2963865103481748e-45
outer loop
vertex 946.0956598124933 -1.5826208782146596 2.313068811583484e-30
vertex 948.7479230452494 -1.5844177287090317 3.5
vertex 948.7479230452494 -1.5844177287090317 0.0
endloop
endfacet
facet normal 0.0006774780345425572 0.9999997705117302 2.2963865103481748e-45
outer loop
vertex 948.7479230452494 -1.5844177287090317 3.5
vertex 946.0956598124933 -1.5826208782146596 2.313068811583484e-30
vertex 946.0956598124933 -1.5826208782146596 3.5
endloop
endfacet
facet normal -0.894733634158465 -0.4466001835037537 -5.541411643333032e-45
outer loop
vertex 931.0742731597545 -3.863039692199513 3.5
vertex 931.779912390637 -5.071769984061345 1.878475030557476e-30
vertex 931.779912390637 -5.071769984061345 3.5
endloop
endfacet
facet normal -0.8287860424872091 -0.5595656313413023 -5.4674784004161957e-45
outer loop
vertex 931.779912390637 -5.071769984061345 1.878475030557476e-30
vertex 931.0742731597545 -3.863039692199513 3.5
vertex 931.0742731597545 -3.863039692199513 1.878475030557475e-30
endloop
endfacet
facet normal -0.9453720852822227 -0.3259932827055519 -5.520529796662928e-45
outer loop
vertex 930.53244173273 -2.57254585365805 3.5
vertex 931.0742731597545 -3.863039692199513 1.878475030557475e-30
vertex 931.0742731597545 -3.863039692199513 3.5
endloop
endfacet
facet normal -0.894733634158465 -0.4466001835037537 -5.541411643333032e-45
outer loop
vertex 931.0742731597545 -3.863039692199513 1.878475030557475e-30
vertex 930.53244173273 -2.57254585365805 3.5
vertex 930.53244173273 -2.57254585365805 1.8784750305574752e-30
endloop
endfacet
facet normal -0.6557196005302913 -0.7550045069272071 -5.0418273866161985e-45
outer loop
vertex 933.6317233195755 -7.162965952829815 1.8784750305574805e-30
vertex 932.6372857424969 -6.178055018826442 3.5
vertex 932.6372857424969 -6.178055018826442 1.8784750305574777e-30
endloop
endfacet
facet normal -0.7486576918460527 -0.6629567560857502 -5.2999950861967444e-45
outer loop
vertex 932.6372857424969 -6.178055018826442 3.5
vertex 933.6317233195755 -7.162965952829815 1.8784750305574805e-30
vertex 933.6317233195755 -7.162965952829815 3.5
endloop
endfacet
facet normal -0.8287860424872091 -0.5595656313413023 -5.4674784004161957e-45
outer loop
vertex 931.779912390637 -5.071769984061345 3.5
vertex 932.6372857424969 -6.178055018826442 1.8784750305574777e-30
vertex 932.6372857424969 -6.178055018826442 3.5
endloop
endfacet
facet normal -0.7486576918460527 -0.6629567560857502 -5.2999950861967444e-45
outer loop
vertex 932.6372857424969 -6.178055018826442 1.8784750305574777e-30
vertex 931.779912390637 -5.071769984061345 3.5
vertex 931.779912390637 -5.071769984061345 1.878475030557476e-30
endloop
endfacet
facet normal -0.9484662383038023 0.316878201834451 -4.062068886127383e-45
outer loop
vertex 930.4993342953993 4.306179030919487 3.5
vertex 930.1435951946265 2.952515359690088 1.8784750305574857e-30
vertex 930.1435951946265 2.952515359690088 3.5
endloop
endfacet
facet normal -0.9817128832358407 0.1903675783550671 -4.520010705901704e-45
outer loop
vertex 930.1435951946265 2.952515359690088 1.8784750305574857e-30
vertex 930.4993342953993 4.306179030919487 3.5
vertex 930.4993342953993 4.306179030919487 1.878475030557491e-30
endloop
endfacet
facet normal -9.475087381362064e-14 1.0 2.2929665542694666e-45
outer loop
vertex 938.1479230452496 -7.184417728709528 3.5
vertex 943.1479230452491 -7.184417728709054 0.0
vertex 938.1479230452496 -7.184417728709528 0.0
endloop
endfacet
facet normal -9.475087381362064e-14 1.0 2.2929665542694666e-45
outer loop
vertex 943.1479230452491 -7.184417728709054 0.0
vertex 938.1479230452496 -7.184417728709528 3.5
vertex 943.1479230452491 -7.184417728709054 3.5
endloop
endfacet
facet normal 0.5978573535004266 0.8016025105159453 4.856537473962727e-45
outer loop
vertex 937.1134734440107 -3.904600418470702 3.5
vertex 937.6164772119553 -4.243343408651063 2.041006287084644e-30
vertex 937.1134734440107 -3.904600418470702 1.8676129187646626e-30
endloop
endfacet
facet normal 0.518015485572746 0.8553712391159949 4.5767180721528985e-45
outer loop
vertex 937.6164772119553 -4.243343408651063 2.041006287084644e-30
vertex 937.1134734440107 -3.904600418470702 3.5
vertex 937.6164772119553 -4.243343408651063 3.5
endloop
endfacet
facet normal 0.518015485572746 0.8553712391159949 4.5767180721528985e-45
outer loop
vertex 937.6164772119553 -4.243343408651063 3.5
vertex 938.1497198957442 -4.532154495952324 2.2064305594735606e-30
vertex 937.6164772119553 -4.243343408651063 2.041006287084644e-30
endloop
endfacet
facet normal 0.4762465581351903 0.8793117853551065 4.4207280603736434e-45
outer loop
vertex 938.1497198957442 -4.532154495952324 2.2064305594735606e-30
vertex 937.6164772119553 -4.243343408651063 3.5
vertex 938.1497198957442 -4.532154495952324 3.5
endloop
endfacet
facet normal 0.6557196005303255 0.7550045069271776 5.041827386616304e-45
outer loop
vertex 947.6641227709245 8.994130495411762 3.5
vertex 948.6585603480028 8.009219561408388 1.878475030557591e-30
vertex 947.6641227709245 8.994130495411762 1.878475030557588e-30
endloop
endfacet
facet normal 0.7486576918460488 0.6629567560857546 5.2999950861967344e-45
outer loop
vertex 948.6585603480028 8.009219561408388 1.878475030557591e-30
vertex 947.6641227709245 8.994130495411762 3.5
vertex 948.6585603480028 8.009219561408388 3.5
endloop
endfacet
facet normal 0.5515619650496946 0.8341339213282958 4.69739262259219e-45
outer loop
vertex 946.5496360712816 9.840815229503711 3.5
vertex 947.6641227709245 8.994130495411762 1.878475030557588e-30
vertex 946.5496360712816 9.840815229503711 1.8784750305575845e-30
endloop
endfacet
facet normal 0.6557196005303255 0.7550045069271776 5.041827386616304e-45
outer loop
vertex 947.6641227709245 8.994130495411762 1.878475030557588e-30
vertex 946.5496360712816 9.840815229503711 3.5
vertex 947.6641227709245 8.994130495411762 3.5
endloop
endfacet
facet normal 0.4379669514252255 0.8989910730698578 4.272584168432357e-45
outer loop
vertex 945.3341694254996 10.53478675313857 3.5
vertex 946.5496360712816 9.840815229503711 1.8784750305575845e-30
vertex 945.3341694254996 10.53478675313857 1.87847503055758e-30
endloop
endfacet
facet normal 0.5515619650496946 0.8341339213282958 4.69739262259219e-45
outer loop
vertex 946.5496360712816 9.840815229503711 1.8784750305575845e-30
vertex 945.3341694254996 10.53478675313857 3.5
vertex 946.5496360712816 9.840815229503711 3.5
endloop
endfacet
facet normal 0.3168782018344513 0.9484662383038022 3.7746706145663666e-45
outer loop
vertex 944.0385198048785 11.064171021141684 3.5
vertex 945.3341694254996 10.53478675313857 1.87847503055758e-30
vertex 944.0385198048785 11.064171021141684 1.8784750305575747e-30
endloop
endfacet
facet normal 0.4379669514252255 0.8989910730698578 4.272584168432357e-45
outer loop
vertex 945.3341694254996 10.53478675313857 1.87847503055758e-30
vertex 944.0385198048785 11.064171021141684 3.5
vertex 945.3341694254996 10.53478675313857 3.5
endloop
endfacet
facet normal 0.19036757835505289 0.9817128832358435 3.212171399948721e-45
outer loop
vertex 942.6848561336492 11.419910121914484 3.5
vertex 944.0385198048785 11.064171021141684 1.8784750305575747e-30
vertex 942.6848561336492 11.419910121914484 1.8784750305575688e-30
endloop
endfacet
facet normal 0.3168782018344513 0.9484662383038022 3.7746706145663666e-45
outer loop
vertex 944.0385198048785 11.064171021141684 1.8784750305575747e-30
vertex 942.6848561336492 11.419910121914484 3.5
vertex 944.0385198048785 11.064171021141684 3.5
endloop
endfacet
facet normal -0.8341339213283219 0.551561965049655 -2.9467006012373836e-45
outer loop
vertex 931.7226900870372 6.817295297322725 3.5
vertex 931.0287185634024 5.601828651540622 1.8784750305574966e-30
vertex 931.0287185634024 5.601828651540622 3.5
endloop
endfacet
facet normal -0.8989910730698825 0.4379669514251748 -3.534623941493334e-45
outer loop
vertex 931.0287185634024 5.601828651540622 1.8784750305574966e-30
vertex 931.7226900870372 6.817295297322725 3.5
vertex 931.7226900870372 6.817295297322725 1.878475030557503e-30
endloop
endfacet
facet normal 0.7550045069271771 -0.6557196005303262 2.308358396714164e-45
outer loop
vertex 948.7264712693708 -6.1006174543835465 1.878475030557559e-30
vertex 947.7415603353674 -7.095055031461912 3.5
vertex 947.7415603353674 -7.095055031461912 1.878475030557552e-30
endloop
endfacet
facet normal 0.6629567560857081 -0.74865769184609 1.630519540025317e-45
outer loop
vertex 947.7415603353674 -7.095055031461912 3.5
vertex 948.7264712693708 -6.1006174543835465 1.878475030557559e-30
vertex 948.7264712693708 -6.1006174543835465 3.5
endloop
endfacet
facet normal -0.9981621485534821 0.060599712830150365 -4.90061388931436e-45
outer loop
vertex 929.9675880557278 1.5639991985736368 3.5
vertex 929.974324409648 0.16438844405624287 1.8784750305574787e-30
vertex 929.974324409648 0.16438844405624287 3.5
endloop
endfacet
facet normal -0.9975325827665443 -0.0702050305826256 -5.197366210373815e-45
outer loop
vertex 929.974324409648 0.16438844405624287 1.8784750305574787e-30
vertex 929.9675880557278 1.5639991985736368 3.5
vertex 929.9675880557278 1.5639991985736368 1.8784750305574815e-30
endloop
endfacet
facet normal -0.9817128832358407 0.1903675783550671 -4.520010705901704e-45
outer loop
vertex 930.1435951946265 2.952515359690088 3.5
vertex 929.9675880557278 1.5639991985736368 1.8784750305574815e-30
vertex 929.9675880557278 1.5639991985736368 3.5
endloop
endfacet
facet normal -0.9981621485534821 0.060599712830150365 -4.90061388931436e-45
outer loop
vertex 929.9675880557278 1.5639991985736368 1.8784750305574815e-30
vertex 930.1435951946265 2.952515359690088 3.5
vertex 930.1435951946265 2.952515359690088 1.8784750305574857e-30
endloop
endfacet
facet normal -0.9975325827665443 -0.0702050305826256 -5.197366210373815e-45
outer loop
vertex 929.974324409648 0.16438844405624287 3.5
vertex 930.1636889955039 -1.222369175806888 1.8784750305574763e-30
vertex 930.1636889955039 -1.222369175806888 3.5
endloop
endfacet
facet normal -0.9798349579201865 -0.1998085464577189 -5.405190154591835e-45
outer loop
vertex 930.1636889955039 -1.222369175806888 1.8784750305574763e-30
vertex 929.974324409648 0.16438844405624287 3.5
vertex 929.974324409648 0.16438844405624287 1.8784750305574787e-30
endloop
endfacet
facet normal -0.551561965049696 -0.8341339213282949 -4.697392622592195e-45
outer loop
vertex 934.7462100192182 -8.009650686921766 1.878475030557484e-30
vertex 933.6317233195755 -7.162965952829815 3.5
vertex 933.6317233195755 -7.162965952829815 1.8784750305574805e-30
endloop
endfacet
facet normal -0.6557196005302913 -0.7550045069272071 -5.0418273866161985e-45
outer loop
vertex 933.6317233195755 -7.162965952829815 3.5
vertex 934.7462100192182 -8.009650686921766 1.878475030557484e-30
vertex 934.7462100192182 -8.009650686921766 3.5
endloop
endfacet
facet normal -0.3168782018344518 -0.9484662383038021 -3.774670614566368e-45
outer loop
vertex 937.2573262856213 -9.233006478559743 1.8784750305574938e-30
vertex 935.9616766650003 -8.703622210556627 3.5
vertex 935.9616766650003 -8.703622210556627 1.8784750305574885e-30
endloop
endfacet
facet normal -0.43796695142522635 -0.8989910730698574 -4.27258416843236e-45
outer loop
vertex 935.9616766650003 -8.703622210556627 3.5
vertex 937.2573262856213 -9.233006478559743 1.8784750305574938e-30
vertex 937.2573262856213 -9.233006478559743 3.5
endloop
endfacet
facet normal 0.9798349579201875 0.1998085464577142 5.405190154591829e-45
outer loop
vertex 951.1321570949959 3.0535337183887856 1.8784750305575922e-30
vertex 951.3215216808518 1.666776098525652 3.5
vertex 951.3215216808518 1.666776098525652 1.8784750305575898e-30
endloop
endfacet
facet normal 0.9975325827665443 0.07020503058262553 5.197366210373815e-45
outer loop
vertex 951.3215216808518 1.666776098525652 3.5
vertex 951.1321570949959 3.0535337183887856 1.8784750305575922e-30
vertex 951.1321570949959 3.0535337183887856 3.5
endloop
endfacet
facet normal 0.5595656313413333 -0.828786042487188 9.247820419416318e-46
outer loop
vertex 946.6352753006022 -7.952428383321922 1.8784750305575442e-30
vertex 945.4265450087404 -8.658067614204457 3.5
vertex 945.4265450087404 -8.658067614204457 1.8784750305575365e-30
endloop
endfacet
facet normal 0.4466001835038108 -0.8947336341584363 2.0322126672231116e-46
outer loop
vertex 945.4265450087404 -8.658067614204457 3.5
vertex 946.6352753006022 -7.952428383321922 1.8784750305575442e-30
vertex 946.6352753006022 -7.952428383321922 3.5
endloop
endfacet
facet normal 0.6629567560857081 -0.74865769184609 1.630519540025317e-45
outer loop
vertex 947.7415603353674 -7.095055031461912 1.878475030557552e-30
vertex 946.6352753006022 -7.952428383321922 3.5
vertex 946.6352753006022 -7.952428383321922 1.8784750305575442e-30
endloop
endfacet
facet normal 0.5595656313413333 -0.828786042487188 9.247820419416318e-46
outer loop
vertex 946.6352753006022 -7.952428383321922 3.5
vertex 947.7415603353674 -7.095055031461912 1.878475030557552e-30
vertex 947.7415603353674 -7.095055031461912 3.5
endloop
endfacet
facet normal 0.8989910730698821 -0.43796695142517544 3.5346239414933304e-45
outer loop
vertex 950.2671275270974 -3.770664108958722 1.878475030557572e-30
vertex 949.5731560034627 -4.986130754740825 3.5
vertex 949.5731560034627 -4.986130754740825 1.8784750305575656e-30
endloop
endfacet
facet normal 0.8341339213283213 -0.5515619650496563 2.9467006012373774e-45
outer loop
vertex 949.5731560034627 -4.986130754740825 3.5
vertex 950.2671275270974 -3.770664108958722 1.878475030557572e-30
vertex 950.2671275270974 -3.770664108958722 3.5
endloop
endfacet
facet normal 0.9484662383037825 -0.3168782018345105 4.062068886127146e-45
outer loop
vertex 950.7965117951005 -2.475014488337589 1.8784750305575775e-30
vertex 950.2671275270974 -3.770664108958722 3.5
vertex 950.2671275270974 -3.770664108958722 1.878475030557572e-30
endloop
endfacet
facet normal 0.8989910730698821 -0.43796695142517544 3.5346239414933304e-45
outer loop
vertex 950.2671275270974 -3.770664108958722 3.5
vertex 950.7965117951005 -2.475014488337589 1.8784750305575775e-30
vertex 950.7965117951005 -2.475014488337589 3.5
endloop
endfacet
facet normal 0.06059971283015004 0.998162148553482 2.594711042095853e-45
outer loop
vertex 941.2963399725326 11.595917260813218 3.5
vertex 942.6848561336492 11.419910121914484 1.8784750305575688e-30
vertex 941.2963399725326 11.595917260813218 1.878475030557562e-30
endloop
endfacet
facet normal 0.19036757835505289 0.9817128832358435 3.212171399948721e-45
outer loop
vertex 942.6848561336492 11.419910121914484 1.8784750305575688e-30
vertex 941.2963399725326 11.595917260813218 3.5
vertex 942.6848561336492 11.419910121914484 3.5
endloop
endfacet
facet normal -0.07020503058268764 0.9975325827665401 1.9328544589229334e-45
outer loop
vertex 939.8967292180153 11.589180906892944 3.5
vertex 941.2963399725326 11.595917260813218 1.878475030557562e-30
vertex 939.8967292180153 11.589180906892944 1.8784750305575548e-30
endloop
endfacet
facet normal 0.06059971283015004 0.998162148553482 2.594711042095853e-45
outer loop
vertex 941.2963399725326 11.595917260813218 1.878475030557562e-30
vertex 939.8967292180153 11.589180906892944 3.5
vertex 941.2963399725326 11.595917260813218 3.5
endloop
endfacet
facet normal -0.1998085464577349 0.9798349579201834 1.2379262000693951e-45
outer loop
vertex 938.5099715981521 11.399816321036903 3.5
vertex 939.8967292180153 11.589180906892944 1.8784750305575548e-30
vertex 938.5099715981521 11.399816321036903 1.8784750305575477e-30
endloop
endfacet
facet normal -0.07020503058268764 0.9975325827665401 1.9328544589229334e-45
outer loop
vertex 939.8967292180153 11.589180906892944 1.8784750305575548e-30
vertex 938.5099715981521 11.399816321036903 3.5
vertex 939.8967292180153 11.589180906892944 3.5
endloop
endfacet
facet normal -0.3259932827055172 0.9453720852822346 5.218166807145654e-46
outer loop
vertex 937.1597949203009 11.031063583810875 3.5
vertex 938.5099715981521 11.399816321036903 1.8784750305575477e-30
vertex 937.1597949203009 11.031063583810875 1.8784750305575397e-30
endloop
endfacet
facet normal -0.1998085464577349 0.9798349579201834 1.2379262000693951e-45
outer loop
vertex 938.5099715981521 11.399816321036903 1.8784750305575477e-30
vertex 937.1597949203009 11.031063583810875 3.5
vertex 938.5099715981521 11.399816321036903 3.5
endloop
endfacet
facet normal -0.44660018350378455 0.8947336341584495 -2.032212667221485e-46
outer loop
vertex 935.8693010817594 10.489232156786374 3.5
vertex 937.1597949203009 11.031063583810875 1.8784750305575397e-30
vertex 935.8693010817594 10.489232156786374 1.878475030557532e-30
endloop
endfacet
facet normal -0.3259932827055172 0.9453720852822346 5.218166807145654e-46
outer loop
vertex 937.1597949203009 11.031063583810875 1.8784750305575397e-30
vertex 935.8693010817594 10.489232156786374 3.5
vertex 937.1597949203009 11.031063583810875 3.5
endloop
endfacet
facet normal -0.5595656313413411 0.8287860424871827 -9.247820419416831e-46
outer loop
vertex 934.6605707898975 9.783592925903834 3.5
vertex 935.8693010817594 10.489232156786374 1.878475030557532e-30
vertex 934.6605707898975 9.783592925903834 1.8784750305575243e-30
endloop
endfacet
facet normal -0.44660018350378455 0.8947336341584495 -2.032212667221485e-46
outer loop
vertex 935.8693010817594 10.489232156786374 1.878475030557532e-30
vertex 934.6605707898975 9.783592925903834 3.5
vertex 935.8693010817594 10.489232156786374 3.5
endloop
endfacet
facet normal -0.6629567560857393 0.7486576918460625 -1.6305195400255377e-45
outer loop
vertex 933.5542857551326 8.92621957404382 3.5
vertex 934.6605707898975 9.783592925903834 1.8784750305575243e-30
vertex 933.5542857551326 8.92621957404382 1.8784750305575166e-30
endloop
endfacet
facet normal -0.5595656313413411 0.8287860424871827 -9.247820419416831e-46
outer loop
vertex 934.6605707898975 9.783592925903834 1.8784750305575243e-30
vertex 933.5542857551326 8.92621957404382 3.5
vertex 934.6605707898975 9.783592925903834 3.5
endloop
endfacet
facet normal -0.9798349579201865 -0.1998085464577189 -5.405190154591835e-45
outer loop
vertex 930.1636889955039 -1.222369175806888 3.5
vertex 930.53244173273 -2.57254585365805 1.8784750305574752e-30
vertex 930.53244173273 -2.57254585365805 3.5
endloop
endfacet
facet normal -0.9453720852822227 -0.3259932827055519 -5.520529796662928e-45
outer loop
vertex 930.53244173273 -2.57254585365805 1.8784750305574752e-30
vertex 930.1636889955039 -1.222369175806888 3.5
vertex 930.1636889955039 -1.222369175806888 1.8784750305574763e-30
endloop
endfacet
facet normal 0.07020503058268461 -0.9975325827665402 -1.9328544589229484e-45
outer loop
vertex 941.3991168724847 -9.758016364311013 1.8784750305575138e-30
vertex 939.9995061179673 -9.764752718231284 3.5
vertex 939.9995061179673 -9.764752718231284 1.8784750305575064e-30
endloop
endfacet
facet normal -0.06059971283015306 -0.9981621485534818 -2.5947110420958682e-45
outer loop
vertex 939.9995061179673 -9.764752718231284 3.5
vertex 941.3991168724847 -9.758016364311013 1.8784750305575138e-30
vertex 941.3991168724847 -9.758016364311013 3.5
endloop
endfacet
facet normal 0.9975325827665443 0.07020503058262553 5.197366210373815e-45
outer loop
vertex 951.3215216808518 1.666776098525652 1.8784750305575898e-30
vertex 951.3282580347721 0.26716534400825803 3.5
vertex 951.3282580347721 0.26716534400825803 1.878475030557587e-30
endloop
endfacet
facet normal 0.9981621485534858 -0.06059971283008651 4.900613889314526e-45
outer loop
vertex 951.3282580347721 0.26716534400825803 3.5
vertex 951.3215216808518 1.666776098525652 1.8784750305575898e-30
vertex 951.3215216808518 1.666776098525652 3.5
endloop
endfacet
facet normal 0.9981621485534858 -0.06059971283008651 4.900613889314526e-45
outer loop
vertex 951.3282580347721 0.26716534400825803 1.878475030557587e-30
vertex 951.1522508958735 -1.1213508171081918 3.5
vertex 951.1522508958735 -1.1213508171081918 1.8784750305575828e-30
endloop
endfacet
facet normal 0.981712883235841 -0.1903675783550656 4.5200107059017094e-45
outer loop
vertex 951.1522508958735 -1.1213508171081918 3.5
vertex 951.3282580347721 0.26716534400825803 1.878475030557587e-30
vertex 951.3282580347721 0.26716534400825803 3.5
endloop
endfacet
facet normal 0.981712883235841 -0.1903675783550656 4.5200107059017094e-45
outer loop
vertex 951.1522508958735 -1.1213508171081918 1.8784750305575828e-30
vertex 950.7965117951005 -2.475014488337589 3.5
vertex 950.7965117951005 -2.475014488337589 1.8784750305575775e-30
endloop
endfacet
facet normal 0.9484662383037825 -0.3168782018345105 4.062068886127146e-45
outer loop
vertex 950.7965117951005 -2.475014488337589 3.5
vertex 951.1522508958735 -1.1213508171081918 1.8784750305575828e-30
vertex 951.1522508958735 -1.1213508171081918 3.5
endloop
endfacet
facet normal -0.7550045069271781 0.6557196005303249 -2.308358396714171e-45
outer loop
vertex 932.5693748211291 7.931781996965453 3.5
vertex 931.7226900870372 6.817295297322725 1.878475030557503e-30
vertex 931.7226900870372 6.817295297322725 3.5
endloop
endfacet
facet normal -0.8341339213283219 0.551561965049655 -2.9467006012373836e-45
outer loop
vertex 931.7226900870372 6.817295297322725 1.878475030557503e-30
vertex 932.5693748211291 7.931781996965453 3.5
vertex 932.5693748211291 7.931781996965453 1.8784750305575096e-30
endloop
endfacet
facet normal 0.4466001835038108 -0.8947336341584363 2.0322126672231116e-46
outer loop
vertex 945.4265450087404 -8.658067614204457 1.8784750305575365e-30
vertex 944.136051170199 -9.199899041228953 3.5
vertex 944.136051170199 -9.199899041228953 1.878475030557529e-30
endloop
endfacet
facet normal 0.3259932827055137 -0.9453720852822359 -5.2181668071458636e-46
outer loop
vertex 944.136051170199 -9.199899041228953 3.5
vertex 945.4265450087404 -8.658067614204457 1.8784750305575365e-30
vertex 945.4265450087404 -8.658067614204457 3.5
endloop
endfacet
facet normal 1.0 0.0 5.0488460330172866e-45
outer loop
vertex 932.5479230452495 3.4155822712909676 0.0
vertex 932.5479230452495 -1.5844177287090317 3.5
vertex 932.5479230452495 -1.5844177287090317 0.0
endloop
endfacet
facet normal 1.0 0.0 5.0488460330172866e-45
outer loop
vertex 932.5479230452495 -1.5844177287090317 3.5
vertex 932.5479230452495 3.4155822712909676 0.0
vertex 932.5479230452495 3.4155822712909676 3.5
endloop
endfacet
facet normal 0.0006775606136590923 0.9999997704557811 2.2963869271491304e-45
outer loop
vertex 932.5479230452495 -1.5844177287090317 3.5
vertex 935.2030258639953 -1.5862167222171786 9.390782274838311e-31
vertex 932.5479230452495 -1.5844177287090317 0.0
endloop
endfacet
facet normal 0.0006775606136590923 0.9999997704557811 2.2963869271491304e-45
outer loop
vertex 935.2030258639953 -1.5862167222171786 9.390782274838311e-31
vertex 932.5479230452495 -1.5844177287090317 3.5
vertex 935.2030258639953 -1.5862167222171786 3.5
endloop
endfacet
facet normal 0.8791895138043985 0.47647224348999123 5.53142740740225e-45
outer loop
vertex 935.2030258639953 -1.5862167222171786 9.390782274838311e-31
vertex 935.4919738140867 -2.1193852566419547 3.5
vertex 935.4919738140867 -2.1193852566419547 1.127272351155505e-30
endloop
endfacet
facet normal 0.8552382471391926 0.5182350245113521 5.506261809809166e-45
outer loop
vertex 935.4919738140867 -2.1193852566419547 3.5
vertex 935.2030258639953 -1.5862167222171786 9.390782274838311e-31
vertex 935.2030258639953 -1.5862167222171786 3.5
endloop
endfacet
facet normal 0.8552382471391926 0.5182350245113521 5.506261809809166e-45
outer loop
vertex 935.4919738140867 -2.1193852566419547 1.127272351155505e-30
vertex 935.8308459037114 -2.6223020597375455 3.5
vertex 935.8308459037114 -2.6223020597375455 1.3159638548448305e-30
endloop
endfacet
facet normal 0.8014490265638579 0.5980630884947212 5.417731397694281e-45
outer loop
vertex 935.8308459037114 -2.6223020597375455 3.5
vertex 935.4919738140867 -2.1193852566419547 1.127272351155505e-30
vertex 935.4919738140867 -2.1193852566419547 3.5
endloop
endfacet
facet normal 0.8014490265638579 0.5980630884947212 5.417731397694281e-45
outer loop
vertex 935.8308459037114 -2.6223020597375455 1.3159638548448305e-30
vertex 936.2165022118452 -3.0903072049649603 3.5
vertex 936.2165022118452 -3.0903072049649603 1.503404360807592e-30
endloop
endfacet
facet normal 0.7402337395583963 0.67234961948334 5.279001369726383e-45
outer loop
vertex 936.2165022118452 -3.0903072049649603 3.5
vertex 935.8308459037114 -2.6223020597375455 1.3159638548448305e-30
vertex 935.8308459037114 -2.6223020597375455 3.5
endloop
endfacet
facet normal 0.7402337395583963 0.67234961948334 5.279001369726383e-45
outer loop
vertex 936.2165022118452 -3.0903072049649603 3.5
vertex 936.6453693242488 -3.519064250226407 1.6878570827943715e-30
vertex 936.2165022118452 -3.0903072049649603 1.503404360807592e-30
endloop
endfacet
facet normal 0.6721595947324702 0.7404062933343297 5.0913571706061394e-45
outer loop
vertex 936.6453693242488 -3.519064250226407 1.6878570827943715e-30
vertex 936.2165022118452 -3.0903072049649603 3.5
vertex 936.6453693242488 -3.519064250226407 3.5
endloop
endfacet
facet normal 0.6721595947324702 0.7404062933343297 5.0913571706061394e-45
outer loop
vertex 936.6453693242488 -3.519064250226407 3.5
vertex 937.1134734440107 -3.904600418470702 1.8676129187646626e-30
vertex 936.6453693242488 -3.519064250226407 1.6878570827943715e-30
endloop
endfacet
facet normal 0.5978573535004266 0.8016025105159453 4.856537473962727e-45
outer loop
vertex 937.1134734440107 -3.904600418470702 1.8676129187646626e-30
vertex 936.6453693242488 -3.519064250226407 3.5
vertex 937.1134734440107 -3.904600418470702 3.5
endloop
endfacet
facet normal 0.8341339213283213 -0.5515619650496563 2.9467006012373774e-45
outer loop
vertex 949.5731560034627 -4.986130754740825 1.8784750305575656e-30
vertex 948.7264712693708 -6.1006174543835465 3.5
vertex 948.7264712693708 -6.1006174543835465 1.878475030557559e-30
endloop
endfacet
facet normal 0.7550045069271771 -0.6557196005303262 2.308358396714164e-45
outer loop
vertex 948.7264712693708 -6.1006174543835465 3.5
vertex 949.5731560034627 -4.986130754740825 1.8784750305575656e-30
vertex 949.5731560034627 -4.986130754740825 3.5
endloop
endfacet
facet normal 0.7486576918460488 0.6629567560857546 5.2999950861967344e-45
outer loop
vertex 948.6585603480028 8.009219561408388 1.878475030557591e-30
vertex 949.5159336998629 6.902934526643293 3.5
vertex 949.5159336998629 6.902934526643293 1.8784750305575926e-30
endloop
endfacet
facet normal 0.8287860424871805 0.5595656313413445 5.467478400416145e-45
outer loop
vertex 949.5159336998629 6.902934526643293 3.5
vertex 948.6585603480028 8.009219561408388 1.878475030557591e-30
vertex 948.6585603480028 8.009219561408388 3.5
endloop
endfacet
facet normal 0.9999997705117301 -0.0006774780345976931 5.047291439891759e-45
outer loop
vertex 938.1497198957442 -4.532154495952324 2.2064305594735606e-30
vertex 938.1479230452496 -7.184417728709528 3.5
vertex 938.1479230452496 -7.184417728709528 0.0
endloop
endfacet
facet normal 0.9999997705117301 -0.0006774780345976931 5.047291439891759e-45
outer loop
vertex 938.1479230452496 -7.184417728709528 3.5
vertex 938.1497198957442 -4.532154495952324 2.2064305594735606e-30
vertex 938.1497198957442 -4.532154495952324 3.5
endloop
endfacet
facet normal 0.8287860424871805 0.5595656313413445 5.467478400416145e-45
outer loop
vertex 949.5159336998629 6.902934526643293 1.8784750305575926e-30
vertex 950.2215729307453 5.69420423478146 3.5
vertex 950.2215729307453 5.69420423478146 1.8784750305575936e-30
endloop
endfacet
facet normal 0.8947336341584651 0.44660018350375325 5.541411643333032e-45
outer loop
vertex 950.2215729307453 5.69420423478146 3.5
vertex 949.5159336998629 6.902934526643293 1.8784750305575926e-30
vertex 949.5159336998629 6.902934526643293 3.5
endloop
endfacet
facet normal -0.06059971283015306 -0.9981621485534818 -2.5947110420958682e-45
outer loop
vertex 939.9995061179673 -9.764752718231284 1.8784750305575064e-30
vertex 938.6109899568507 -9.588745579332542 3.5
vertex 938.6109899568507 -9.588745579332542 1.8784750305574997e-30
endloop
endfacet
facet normal -0.19036757835505533 -0.9817128832358432 -3.212171399948733e-45
outer loop
vertex 938.6109899568507 -9.588745579332542 3.5
vertex 939.9995061179673 -9.764752718231284 1.8784750305575064e-30
vertex 939.9995061179673 -9.764752718231284 3.5
endloop
endfacet
facet normal -0.19036757835505533 -0.9817128832358432 -3.212171399948733e-45
outer loop
vertex 938.6109899568507 -9.588745579332542 1.8784750305574997e-30
vertex 937.2573262856213 -9.233006478559743 3.5
vertex 937.2573262856213 -9.233006478559743 1.8784750305574938e-30
endloop
endfacet
facet normal -0.3168782018344518 -0.9484662383038021 -3.774670614566368e-45
outer loop
vertex 937.2573262856213 -9.233006478559743 3.5
vertex 938.6109899568507 -9.588745579332542 1.8784750305574997e-30
vertex 938.6109899568507 -9.588745579332542 3.5
endloop
endfacet
facet normal 0.3259932827055137 -0.9453720852822359 -5.2181668071458636e-46
outer loop
vertex 944.136051170199 -9.199899041228953 1.878475030557529e-30
vertex 942.7858744923477 -9.568651778454976 3.5
vertex 942.7858744923477 -9.568651778454976 1.8784750305575208e-30
endloop
endfacet
facet normal 0.19980854645773202 -0.9798349579201839 -1.2379262000694111e-45
outer loop
vertex 942.7858744923477 -9.568651778454976 3.5
vertex 944.136051170199 -9.199899041228953 1.878475030557529e-30
vertex 944.136051170199 -9.199899041228953 3.5
endloop
endfacet
facet normal 0.19980854645773202 -0.9798349579201839 -1.2379262000694111e-45
outer loop
vertex 942.7858744923477 -9.568651778454976 1.8784750305575208e-30
vertex 941.3991168724847 -9.758016364311013 3.5
vertex 941.3991168724847 -9.758016364311013 1.8784750305575138e-30
endloop
endfacet
facet normal 0.07020503058268461 -0.9975325827665402 -1.9328544589229484e-45
outer loop
vertex 941.3991168724847 -9.758016364311013 3.5
vertex 942.7858744923477 -9.568651778454976 1.8784750305575208e-30
vertex 942.7858744923477 -9.568651778454976 3.5
endloop
endfacet
facet normal -0.6629567560857393 0.7486576918460625 -1.6305195400255377e-45
outer loop
vertex 933.5542857551326 8.92621957404382 3.5
vertex 932.5693748211291 7.931781996965453 1.8784750305575096e-30
vertex 932.5693748211291 7.931781996965453 3.5
endloop
endfacet
facet normal -0.7550045069271781 0.6557196005303249 -2.308358396714171e-45
outer loop
vertex 932.5693748211291 7.931781996965453 1.8784750305575096e-30
vertex 933.5542857551326 8.92621957404382 3.5
vertex 933.5542857551326 8.92621957404382 1.8784750305575166e-30
endloop
endfacet
facet normal -0.0006775606136394083 -0.999999770455781 -2.2963869271490305e-45
outer loop
vertex 948.7479230452494 3.4155822712909676 3.5
vertex 946.0928202265044 3.417381264799062 9.388230413105144e-31
vertex 948.7479230452494 3.4155822712909676 0.0
endloop
endfacet
facet normal -0.0006775606136394083 -0.999999770455781 -2.2963869271490305e-45
outer loop
vertex 946.0928202265044 3.417381264799062 9.388230413105144e-31
vertex 948.7479230452494 3.4155822712909676 3.5
vertex 946.0928202265044 3.417381264799062 3.5
endloop
endfacet
facet normal -0.7402337395585026 -0.6723496194832231 -5.279001369726651e-45
outer loop
vertex 945.0793438786545 4.921471747546985 3.5
vertex 944.6504767662509 5.350228792808466 1.2725992871354603e-30
vertex 945.0793438786545 4.921471747546985 1.1830149318646048e-30
endloop
endfacet
facet normal -0.6721595947324986 -0.7404062933343039 -5.091357170606224e-45
outer loop
vertex 944.6504767662509 5.350228792808466 1.2725992871354603e-30
vertex 945.0793438786545 4.921471747546985 3.5
vertex 944.6504767662509 5.350228792808466 3.5
endloop
endfacet
facet normal -0.6721595947324986 -0.7404062933343039 -5.091357170606224e-45
outer loop
vertex 944.6504767662509 5.350228792808466 3.5
vertex 944.1823726464891 5.73576496105279 1.3649225087677588e-30
vertex 944.6504767662509 5.350228792808466 1.2725992871354603e-30
endloop
endfacet
facet normal -0.5978573535004511 -0.8016025105159269 -4.856537473962808e-45
outer loop
vertex 944.1823726464891 5.73576496105279 1.3649225087677588e-30
vertex 944.6504767662509 5.350228792808466 3.5
vertex 944.1823726464891 5.73576496105279 3.5
endloop
endfacet
facet normal -0.5978573535004511 -0.8016025105159269 -4.856537473962808e-45
outer loop
vertex 944.1823726464891 5.73576496105279 3.5
vertex 943.6793688785444 6.074507951233169 1.459129148249934e-30
vertex 944.1823726464891 5.73576496105279 1.3649225087677588e-30
endloop
endfacet
facet normal -0.5180154855727646 -0.8553712391159837 -4.5767180721529657e-45
outer loop
vertex 943.6793688785444 6.074507951233169 1.459129148249934e-30
vertex 944.1823726464891 5.73576496105279 3.5
vertex 943.6793688785444 6.074507951233169 3.5
endloop
endfacet
facet normal -0.5180154855727646 -0.8553712391159837 -4.5767180721529657e-45
outer loop
vertex 943.6793688785444 6.074507951233169 3.5
vertex 943.1461261947555 6.36331903853444 1.5543463056972138e-30
vertex 943.6793688785444 6.074507951233169 1.459129148249934e-30
endloop
endfacet
facet normal -0.47624655813520467 -0.8793117853550987 -4.4207280603736994e-45
outer loop
vertex 943.1461261947555 6.36331903853444 1.5543463056972138e-30
vertex 943.6793688785444 6.074507951233169 3.5
vertex 943.1461261947555 6.36331903853444 3.5
endloop
endfacet
facet normal -0.9999997705117302 0.0006774780344617686 -5.0472914398920725e-45
outer loop
vertex 943.1479230452497 9.015582271290986 3.5
vertex 943.1461261947555 6.36331903853444 1.5543463056972138e-30
vertex 943.1461261947555 6.36331903853444 3.5
endloop
endfacet
facet normal -0.9999997705117302 0.0006774780344617686 -5.0472914398920725e-45
outer loop
vertex 943.1461261947555 6.36331903853444 1.5543463056972138e-30
vertex 943.1479230452497 9.015582271290986 3.5
vertex 943.1479230452497 9.015582271290986 0.0
endloop
endfacet
facet normal 2.1206147948763484e-13 -1.0 -2.2929665542688754e-45
outer loop
vertex 943.1479230452497 9.015582271290986 3.5
vertex 938.1479230452505 9.015582271289926 0.0
vertex 943.1479230452497 9.015582271290986 0.0
endloop
endfacet
facet normal 2.1206147948763484e-13 -1.0 -2.2929665542688754e-45
outer loop
vertex 938.1479230452505 9.015582271289926 0.0
vertex 943.1479230452497 9.015582271290986 3.5
vertex 938.1479230452505 9.015582271289926 3.5
endloop
endfacet
facet normal 0.9999997704557811 -0.0006775606136953665 5.047291250258173e-45
outer loop
vertex 938.1479230452505 9.015582271289926 0.0
vertex 938.1461240517423 6.360479452545759 3.5
vertex 938.1461240517423 6.360479452545759 9.38993809229819e-31
endloop
endfacet
facet normal 0.9999997704557811 -0.0006775606136953665 5.047291250258173e-45
outer loop
vertex 938.1461240517423 6.360479452545759 3.5
vertex 938.1479230452505 9.015582271289926 0.0
vertex 938.1479230452505 9.015582271289926 3.5
endloop
endfacet
facet normal 0.47647224348969075 -0.8791895138045615 3.896828463670576e-46
outer loop
vertex 938.1461240517423 6.360479452545759 3.5
vertex 937.6129555173172 6.071531502454457 1.0902472786156764e-30
vertex 938.1461240517423 6.360479452545759 9.38993809229819e-31
endloop
endfacet
facet normal 0.5182350245112568 -0.8552382471392501 6.554561510515207e-46
outer loop
vertex 937.6129555173172 6.071531502454457 1.0902472786156764e-30
vertex 938.1461240517423 6.360479452545759 3.5
vertex 937.6129555173172 6.071531502454457 3.5
endloop
endfacet
facet normal 0.5182350245112568 -0.8552382471392501 6.554561510515207e-46
outer loop
vertex 937.6129555173172 6.071531502454457 3.5
vertex 937.1100387142216 5.732659412829548 1.243528161597815e-30
vertex 937.6129555173172 6.071531502454457 1.0902472786156764e-30
endloop
endfacet
facet normal 0.598063088494757 -0.8014490265638312 1.1818326389777493e-45
outer loop
vertex 937.1100387142216 5.732659412829548 1.243528161597815e-30
vertex 937.6129555173172 6.071531502454457 3.5
vertex 937.1100387142216 5.732659412829548 3.5
endloop
endfacet
facet normal 0.598063088494757 -0.8014490265638312 1.1818326389777493e-45
outer loop
vertex 937.1100387142216 5.732659412829548 3.5
vertex 936.6420335689941 5.34700310469584 1.3974161881631188e-30
vertex 937.1100387142216 5.732659412829548 1.243528161597815e-30
endloop
endfacet
facet normal 0.6723496194832542 -0.7402337395584745 1.697258501978958e-45
outer loop
vertex 936.6420335689941 5.34700310469584 1.3974161881631188e-30
vertex 937.1100387142216 5.732659412829548 3.5
vertex 936.6420335689941 5.34700310469584 3.5
endloop
endfacet
facet normal 0.6723496194832542 -0.7402337395584745 1.697258501978958e-45
outer loop
vertex 936.6420335689941 5.34700310469584 1.3974161881631188e-30
vertex 936.2132765237326 4.918135992292306 3.5
vertex 936.2132765237326 4.918135992292306 1.5504854626274284e-30
endloop
endfacet
facet normal 0.7404062933342846 -0.6721595947325198 2.1969579070685265e-45
outer loop
vertex 936.2132765237326 4.918135992292306 3.5
vertex 936.6420335689941 5.34700310469584 1.3974161881631188e-30
vertex 936.6420335689941 5.34700310469584 3.5
endloop
endfacet
facet normal 0.7404062933342846 -0.6721595947325198 2.1969579070685265e-45
outer loop
vertex 936.2132765237326 4.918135992292306 1.5504854626274284e-30
vertex 935.8277403554882 4.450031872530262 3.5
vertex 935.8277403554882 4.450031872530262 1.7013176756998434e-30
endloop
endfacet
facet normal 0.8016025105158822 -0.5978573535005113 2.6763007394737934e-45
outer loop
vertex 935.8277403554882 4.450031872530262 3.5
vertex 936.2132765237326 4.918135992292306 1.5504854626274284e-30
vertex 936.2132765237326 4.918135992292306 3.5
endloop
endfacet
facet normal 0.8016025105158822 -0.5978573535005113 2.6763007394737934e-45
outer loop
vertex 935.8277403554882 4.450031872530262 1.7013176756998434e-30
vertex 935.4889973653077 3.9470281045857534 3.5
vertex 935.4889973653077 3.9470281045857534 1.8485152462530182e-30
endloop
endfacet
facet normal 0.8553712391159589 -0.5180154855728055 3.1308455043553406e-45
outer loop
vertex 935.4889973653077 3.9470281045857534 3.5
vertex 935.8277403554882 4.450031872530262 1.7013176756998434e-30
vertex 935.8277403554882 4.450031872530262 3.5
endloop
endfacet
facet normal 0.8553712391159589 -0.5180154855728055 3.1308455043553406e-45
outer loop
vertex 935.4889973653077 3.9470281045857534 1.8485152462530182e-30
vertex 935.2001862780064 3.4137854207966702 3.5
vertex 935.2001862780064 3.4137854207966702 1.9907142710304422e-30
endloop
endfacet
facet normal 0.8793117853551731 -0.4762465581350671 3.3474923898859264e-45
outer loop
vertex 935.2001862780064 3.4137854207966702 3.5
vertex 935.4889973653077 3.9470281045857534 1.8485152462530182e-30
vertex 935.4889973653077 3.9470281045857534 3.5
endloop
endfacet
facet normal -0.0006774780345137523 -0.9999997705117301 -2.2963865103480288e-45
outer loop
vertex 935.2001862780064 3.4137854207966702 1.9907142710304422e-30
vertex 932.5479230452495 3.4155822712909676 3.5
vertex 932.5479230452495 3.4155822712909676 0.0
endloop
endfacet
facet normal -0.0006774780345137523 -0.9999997705117301 -2.2963865103480288e-45
outer loop
vertex 932.5479230452495 3.4155822712909676 3.5
vertex 935.2001862780064 3.4137854207966702 1.9907142710304422e-30
vertex 935.2001862780064 3.4137854207966702 3.5
endloop
endfacet
facet normal -0.8793117853551958 0.47624655813502537 -3.347492389886138e-45
outer loop
vertex 946.0956598124933 -1.5826208782146596 3.5
vertex 945.806848725192 -2.115863562003802 2.136163255940615e-30
vertex 945.806848725192 -2.115863562003802 3.5
endloop
endfacet
facet normal -0.855371239115984 0.518015485572764 -3.1308455043555634e-45
outer loop
vertex 945.806848725192 -2.115863562003802 2.136163255940615e-30
vertex 946.0956598124933 -1.5826208782146596 3.5
vertex 946.0956598124933 -1.5826208782146596 2.313068811583484e-30
endloop
endfacet
endsolid newXgantryHP
