solid newXgantryHP
facet normal 0.9484662383037826 -0.31687820183450943 0.0
outer loop
vertex 1148.8342346864492 -3.409703214053103 0.0
vertex 1148.3048504184462 -4.705352834674241 12.0
vertex 1148.3048504184462 -4.705352834674241 0.0
endloop
endfacet
facet normal 0.8989910730698826 -0.4379669514251746 0.0
outer loop
vertex 1148.3048504184462 -4.705352834674241 12.0
vertex 1148.8342346864492 -3.409703214053103 0.0
vertex 1148.8342346864492 -3.409703214053103 12.0
endloop
endfacet
facet normal -3.1551934240950187e-46 2.9533084333552396e-31 1.0
outer loop
vertex 1131.6694462109242 -8.097654678545329 12.0
vertex 1131.317697662412 0.2108066720641368 12.0
vertex 1130.6750086338457 -7.11274374454196 12.0
endloop
endfacet
facet normal -3.1551934240950187e-46 2.9533084333552396e-31 1.0
outer loop
vertex 1131.317697662412 0.2108066720641368 12.0
vertex 1131.6694462109242 -8.097654678545329 12.0
vertex 1132.8947170261258 -2.520670990408078 12.0
endloop
endfacet
facet normal -3.1551934240950187e-46 2.9533084333552396e-31 1.0
outer loop
vertex 1132.8947170261258 -2.520670990408078 12.0
vertex 1131.6694462109242 -8.097654678545329 12.0
vertex 1132.783932910567 -8.944339412637284 12.0
endloop
endfacet
facet normal -3.1551934240950187e-46 2.9533084333552396e-31 1.0
outer loop
vertex 1132.8947170261258 -2.520670990408078 12.0
vertex 1132.783932910567 -8.944339412637284 12.0
vertex 1133.9993995563489 -9.638310936272147 12.0
endloop
endfacet
facet normal -3.1551934240950187e-46 2.9533084333552396e-31 1.0
outer loop
vertex 1132.8947170261258 -2.520670990408078 12.0
vertex 1133.9993995563489 -9.638310936272147 12.0
vertex 1135.1176976624122 -6.370986396697662 12.0
endloop
endfacet
facet normal -3.1551934240950187e-46 2.9533084333552396e-31 1.0
outer loop
vertex 1135.1176976624122 -6.370986396697662 12.0
vertex 1133.9993995563489 -9.638310936272147 12.0
vertex 1135.29504917697 -10.167695204275262 12.0
endloop
endfacet
facet normal -3.1551934240950187e-46 2.9533084333552396e-31 1.0
outer loop
vertex 1135.1176976624122 -6.370986396697662 12.0
vertex 1135.29504917697 -10.167695204275262 12.0
vertex 1136.186830249811 -6.3709863966976625 12.0
endloop
endfacet
facet normal -3.1551934240950187e-46 2.9533084333552396e-31 1.0
outer loop
vertex 1136.186830249811 -6.3709863966976625 12.0
vertex 1135.29504917697 -10.167695204275262 12.0
vertex 1136.6487128481995 -10.523434305048054 12.0
endloop
endfacet
facet normal -3.1551934240950187e-46 2.9533084333552396e-31 1.0
outer loop
vertex 1136.186830249811 -6.3709863966976625 12.0
vertex 1136.6487128481995 -10.523434305048054 12.0
vertex 1141.1868303941687 -6.370986396697665 12.0
endloop
endfacet
facet normal -3.1551934240950187e-46 2.9533084333552396e-31 1.0
outer loop
vertex 1141.1868303941687 -6.370986396697665 12.0
vertex 1136.6487128481995 -10.523434305048054 12.0
vertex 1138.037229009316 -10.6994414439468 12.0
endloop
endfacet
facet normal -3.1551934240950187e-46 2.9533084333552396e-31 1.0
outer loop
vertex 1141.1868303941687 -6.370986396697665 12.0
vertex 1138.037229009316 -10.6994414439468 12.0
vertex 1139.4368397638334 -10.692705090026527 12.0
endloop
endfacet
facet normal -3.1551934240950187e-46 2.9533084333552396e-31 1.0
outer loop
vertex 1141.1868303941687 -6.370986396697665 12.0
vertex 1139.4368397638334 -10.692705090026527 12.0
vertex 1140.8235973836966 -10.503340504170497 12.0
endloop
endfacet
facet normal -3.1551934240950187e-46 2.9533084333552396e-31 1.0
outer loop
vertex 1141.1868303941687 -6.370986396697665 12.0
vertex 1140.8235973836966 -10.503340504170497 12.0
vertex 1142.1737740615476 -10.134587766944476 12.0
endloop
endfacet
facet normal -3.1551934240950187e-46 2.9533084333552396e-31 1.0
outer loop
vertex 1141.1868303941687 -6.370986396697665 12.0
vertex 1142.1737740615476 -10.134587766944476 12.0
vertex 1142.7176976624123 -6.370986396697667 12.0
endloop
endfacet
facet normal -3.1551934240950187e-46 2.9533084333552396e-31 1.0
outer loop
vertex 1142.7176976624123 -6.370986396697667 12.0
vertex 1142.1737740615476 -10.134587766944476 12.0
vertex 1143.4642679000892 -9.592756339919973 12.0
endloop
endfacet
facet normal -3.1551934240950187e-46 2.9533084333552396e-31 1.0
outer loop
vertex 1142.7176976624123 -6.370986396697667 12.0
vertex 1143.4642679000892 -9.592756339919973 12.0
vertex 1144.9423025933688 -2.517857629512801 12.0
endloop
endfacet
facet normal -3.1551934240950187e-46 2.9533084333552396e-31 1.0
outer loop
vertex 1144.9423025933688 -2.517857629512801 12.0
vertex 1143.4642679000892 -9.592756339919973 12.0
vertex 1144.672998191951 -8.887117109037433 12.0
endloop
endfacet
facet normal -3.1551934240950187e-46 2.9533084333552396e-31 1.0
outer loop
vertex 1144.9423025933688 -2.517857629512801 12.0
vertex 1144.672998191951 -8.887117109037433 12.0
vertex 1145.779283226716 -8.029743757177432 12.0
endloop
endfacet
facet normal -3.1551934240950187e-46 2.9533084333552396e-31 1.0
outer loop
vertex 1144.9423025933688 -2.517857629512801 12.0
vertex 1145.779283226716 -8.029743757177432 12.0
vertex 1146.5176976624123 0.2108066720641359 11.999999999999995
endloop
endfacet
facet normal -3.1551934240950187e-46 2.9533084333552396e-31 1.0
outer loop
vertex 1146.5176976624123 0.2108066720641359 11.999999999999995
vertex 1145.779283226716 -8.029743757177432 12.0
vertex 1146.7641941607194 -7.035306180099059 12.0
endloop
endfacet
facet normal -3.1551934240950187e-46 2.9533084333552396e-31 1.0
outer loop
vertex 1146.5176976624123 0.2108066720641359 11.999999999999995
vertex 1146.7641941607194 -7.035306180099059 12.0
vertex 1146.6962832393515 7.074530835692872 12.0
endloop
endfacet
facet normal -3.1551934240950187e-46 2.9533084333552396e-31 1.0
outer loop
vertex 1146.6962832393515 7.074530835692872 12.0
vertex 1146.7641941607194 -7.035306180099059 12.0
vertex 1147.5536565912116 5.968245800927776 12.0
endloop
endfacet
facet normal -3.1551934240950187e-46 2.9533084333552396e-31 1.0
outer loop
vertex 1147.5536565912116 5.968245800927776 12.0
vertex 1146.7641941607194 -7.035306180099059 12.0
vertex 1147.6108788948113 -5.920819480456346 12.0
endloop
endfacet
facet normal -3.1551934240950187e-46 2.9533084333552396e-31 1.0
outer loop
vertex 1147.5536565912116 5.968245800927776 12.0
vertex 1147.6108788948113 -5.920819480456346 12.0
vertex 1148.259295822094 4.7595155090659444 12.0
endloop
endfacet
facet normal -3.1551934240950187e-46 2.9533084333552396e-31 1.0
outer loop
vertex 1148.259295822094 4.7595155090659444 12.0
vertex 1147.6108788948113 -5.920819480456346 12.0
vertex 1148.3048504184462 -4.705352834674241 12.0
endloop
endfacet
facet normal -3.1551934240950187e-46 2.9533084333552396e-31 1.0
outer loop
vertex 1148.259295822094 4.7595155090659444 12.0
vertex 1148.3048504184462 -4.705352834674241 12.0
vertex 1148.8011272491185 3.469021670524475 12.0
endloop
endfacet
facet normal -3.1551934240950187e-46 2.9533084333552396e-31 1.0
outer loop
vertex 1148.8011272491185 3.469021670524475 12.0
vertex 1148.3048504184462 -4.705352834674241 12.0
vertex 1148.8342346864492 -3.409703214053103 12.0
endloop
endfacet
facet normal -3.1551934240950187e-46 2.9533084333552396e-31 1.0
outer loop
vertex 1148.8011272491185 3.469021670524475 12.0
vertex 1148.8342346864492 -3.409703214053103 12.0
vertex 1149.1698799863448 2.1188449926732753 12.0
endloop
endfacet
facet normal -3.1551934240950187e-46 2.9533084333552396e-31 1.0
outer loop
vertex 1149.1698799863448 2.1188449926732753 12.0
vertex 1148.8342346864492 -3.409703214053103 12.0
vertex 1149.1899737872222 -2.056039542823702 12.0
endloop
endfacet
facet normal -3.1551934240950187e-46 2.9533084333552396e-31 1.0
outer loop
vertex 1149.1698799863448 2.1188449926732753 12.0
vertex 1149.1899737872222 -2.056039542823702 12.0
vertex 1149.3592445722004 0.732087372810136 12.0
endloop
endfacet
facet normal -3.1551934240950187e-46 2.9533084333552396e-31 1.0
outer loop
vertex 1149.3592445722004 0.732087372810136 12.0
vertex 1149.1899737872222 -2.056039542823702 12.0
vertex 1149.3659809261208 -0.6675233817072564 12.0
endloop
endfacet
facet normal -3.1551934240950187e-46 2.9533084333552396e-31 1.0
outer loop
vertex 1128.0120473009968 -0.7703002816592688 12.0
vertex 1128.1813180859751 2.0178266339745696 12.0
vertex 1128.0053109470764 0.6293104728581237 12.0
endloop
endfacet
facet normal -3.1551934240950187e-46 2.9533084333552396e-31 1.0
outer loop
vertex 1128.1813180859751 2.0178266339745696 12.0
vertex 1128.0120473009968 -0.7703002816592688 12.0
vertex 1128.2014118868526 -2.1570579015224083 12.0
endloop
endfacet
facet normal -3.1551934240950187e-46 2.9533084333552396e-31 1.0
outer loop
vertex 1128.1813180859751 2.0178266339745696 12.0
vertex 1128.2014118868526 -2.1570579015224083 12.0
vertex 1128.5370571867481 3.3714903052039706 12.0
endloop
endfacet
facet normal -3.1551934240950187e-46 2.9533084333552396e-31 1.0
outer loop
vertex 1128.5370571867481 3.3714903052039706 12.0
vertex 1128.2014118868526 -2.1570579015224083 12.0
vertex 1128.5701646240789 -3.507234579373563 12.0
endloop
endfacet
facet normal -3.1551934240950187e-46 2.9533084333552396e-31 1.0
outer loop
vertex 1128.5370571867481 3.3714903052039706 12.0
vertex 1128.5701646240789 -3.507234579373563 12.0
vertex 1129.0664414547512 4.667139925825108 12.0
endloop
endfacet
facet normal -3.1551934240950187e-46 2.9533084333552396e-31 1.0
outer loop
vertex 1129.0664414547512 4.667139925825108 12.0
vertex 1128.5701646240789 -3.507234579373563 12.0
vertex 1129.1119960511032 -4.797728417915032 12.0
endloop
endfacet
facet normal -3.1551934240950187e-46 2.9533084333552396e-31 1.0
outer loop
vertex 1129.0664414547512 4.667139925825108 12.0
vertex 1129.1119960511032 -4.797728417915032 12.0
vertex 1129.7604129783858 5.882606571607212 12.0
endloop
endfacet
facet normal -3.1551934240950187e-46 2.9533084333552396e-31 1.0
outer loop
vertex 1129.7604129783858 5.882606571607212 12.0
vertex 1129.1119960511032 -4.797728417915032 12.0
vertex 1129.8176352819858 -6.006458709776864 12.0
endloop
endfacet
facet normal -3.1551934240950187e-46 2.9533084333552396e-31 1.0
outer loop
vertex 1129.7604129783858 5.882606571607212 12.0
vertex 1129.8176352819858 -6.006458709776864 12.0
vertex 1130.6070977124778 6.997093271249937 12.0
endloop
endfacet
facet normal -3.1551934240950187e-46 2.9533084333552396e-31 1.0
outer loop
vertex 1130.6070977124778 6.997093271249937 12.0
vertex 1129.8176352819858 -6.006458709776864 12.0
vertex 1130.6750086338457 -7.11274374454196 12.0
endloop
endfacet
facet normal -3.1551934240950187e-46 2.9533084333552396e-31 1.0
outer loop
vertex 1130.6070977124778 6.997093271249937 12.0
vertex 1130.6750086338457 -7.11274374454196 12.0
vertex 1131.5920086464812 7.99153084832831 12.0
endloop
endfacet
facet normal -3.1551934240950187e-46 2.9533084333552396e-31 1.0
outer loop
vertex 1131.5920086464812 7.99153084832831 12.0
vertex 1130.6750086338457 -7.11274374454196 12.0
vertex 1131.317697662412 0.2108066720641368 12.0
endloop
endfacet
facet normal -3.1551934240950187e-46 2.9533084333552396e-31 1.0
outer loop
vertex 1131.5920086464812 7.99153084832831 12.0
vertex 1131.317697662412 0.2108066720641368 12.0
vertex 1132.627534261195 2.47951021076915 12.0
endloop
endfacet
facet normal -3.1551934240950187e-46 2.9533084333552396e-31 1.0
outer loop
vertex 1131.5920086464812 7.99153084832831 12.0
vertex 1132.627534261195 2.47951021076915 12.0
vertex 1132.6982936812462 8.848904200188324 12.0
endloop
endfacet
facet normal -3.1551934240950187e-46 2.9533084333552396e-31 1.0
outer loop
vertex 1132.6982936812462 8.848904200188324 12.0
vertex 1132.627534261195 2.47951021076915 12.0
vertex 1135.1176976624122 6.792599740825936 12.0
endloop
endfacet
facet normal -3.1551934240950187e-46 2.9533084333552396e-31 1.0
outer loop
vertex 1132.6982936812462 8.848904200188324 12.0
vertex 1135.1176976624122 6.792599740825936 12.0
vertex 1133.9070239731082 9.554543431070853 12.0
endloop
endfacet
facet normal -3.1551934240950187e-46 2.9533084333552396e-31 1.0
outer loop
vertex 1133.9070239731082 9.554543431070853 12.0
vertex 1135.1176976624122 6.792599740825936 12.0
vertex 1135.1975178116495 10.096374858095365 12.0
endloop
endfacet
facet normal -3.1551934240950187e-46 2.9533084333552396e-31 1.0
outer loop
vertex 1135.1975178116495 10.096374858095365 12.0
vertex 1135.1176976624122 6.792599740825936 12.0
vertex 1136.1847730392578 6.792599740825936 12.0
endloop
endfacet
facet normal -3.1551934240950187e-46 2.9533084333552396e-31 1.0
outer loop
vertex 1135.1975178116495 10.096374858095365 12.0
vertex 1136.1847730392578 6.792599740825936 12.0
vertex 1136.5476944895008 10.465127595321388 12.0
endloop
endfacet
facet normal -3.1551934240950187e-46 2.9533084333552396e-31 1.0
outer loop
vertex 1136.5476944895008 10.465127595321388 12.0
vertex 1136.1847730392578 6.792599740825936 12.0
vertex 1141.1847731456435 6.792599740825936 12.0
endloop
endfacet
facet normal -3.1551934240950187e-46 2.9533084333552396e-31 1.0
outer loop
vertex 1136.5476944895008 10.465127595321388 12.0
vertex 1141.1847731456435 6.792599740825936 12.0
vertex 1137.934452109364 10.654492181177428 12.0
endloop
endfacet
facet normal -3.1551934240950187e-46 2.9533084333552396e-31 1.0
outer loop
vertex 1137.934452109364 10.654492181177428 12.0
vertex 1141.1847731456435 6.792599740825936 12.0
vertex 1139.3340628638814 10.6612285350977 12.0
endloop
endfacet
facet normal -3.1551934240950187e-46 2.9533084333552396e-31 1.0
outer loop
vertex 1139.3340628638814 10.6612285350977 12.0
vertex 1141.1847731456435 6.792599740825936 12.0
vertex 1140.722579024998 10.485221396198968 12.0
endloop
endfacet
facet normal -3.1551934240950187e-46 2.9533084333552396e-31 1.0
outer loop
vertex 1140.722579024998 10.485221396198968 12.0
vertex 1141.1847731456435 6.792599740825936 12.0
vertex 1142.0762426962272 10.129482295426163 12.0
endloop
endfacet
facet normal -3.1551934240950187e-46 2.9533084333552396e-31 1.0
outer loop
vertex 1142.0762426962272 10.129482295426163 12.0
vertex 1141.1847731456435 6.792599740825936 12.0
vertex 1142.7176976624123 6.792599740825936 12.0
endloop
endfacet
facet normal -3.1551934240950187e-46 2.9533084333552396e-31 1.0
outer loop
vertex 1142.0762426962272 10.129482295426163 12.0
vertex 1142.7176976624123 6.792599740825936 12.0
vertex 1143.3718923168483 9.60009802742306 12.0
endloop
endfacet
facet normal -3.1551934240950187e-46 2.9533084333552396e-31 1.0
outer loop
vertex 1143.3718923168483 9.60009802742306 12.0
vertex 1142.7176976624123 6.792599740825936 12.0
vertex 1145.2064446273164 2.481963550429243 12.0
endloop
endfacet
facet normal -3.1551934240950187e-46 2.9533084333552396e-31 1.0
outer loop
vertex 1143.3718923168483 9.60009802742306 12.0
vertex 1145.2064446273164 2.481963550429243 12.0
vertex 1144.5873589626303 8.906126503788196 12.0
endloop
endfacet
facet normal -3.1551934240950187e-46 2.9533084333552396e-31 1.0
outer loop
vertex 1144.5873589626303 8.906126503788196 12.0
vertex 1145.2064446273164 2.481963550429243 12.0
vertex 1145.7018456622732 8.05944176969624 12.0
endloop
endfacet
facet normal -3.1551934240950187e-46 2.9533084333552396e-31 1.0
outer loop
vertex 1145.7018456622732 8.05944176969624 12.0
vertex 1145.2064446273164 2.481963550429243 12.0
vertex 1146.5176976624123 0.2108066720641359 11.999999999999995
endloop
endfacet
facet normal -3.1551934240950187e-46 2.9533084333552396e-31 1.0
outer loop
vertex 1145.7018456622732 8.05944176969624 12.0
vertex 1146.5176976624123 0.2108066720641359 11.999999999999995
vertex 1146.6962832393515 7.074530835692872 12.0
endloop
endfacet
facet normal 0.9975325827665443 0.07020503058262523 0.0
outer loop
vertex 1149.3592445722004 0.732087372810136 0.0
vertex 1149.3659809261208 -0.6675233817072564 12.0
vertex 1149.3659809261208 -0.6675233817072564 0.0
endloop
endfacet
facet normal 0.9981621485534856 -0.06059971283008672 0.0
outer loop
vertex 1149.3659809261208 -0.6675233817072564 12.0
vertex 1149.3592445722004 0.732087372810136 0.0
vertex 1149.3592445722004 0.732087372810136 12.0
endloop
endfacet
facet normal 0.8660254037844395 -0.49999999999999867 -1.0362724053344388e-17
outer loop
vertex 1132.627534261195 2.47951021076915 6.0
vertex 1131.317697662412 0.2108066720641368 12.0
vertex 1131.317697662412 0.2108066720641368 6.0
endloop
endfacet
facet normal 0.8660254037844395 -0.49999999999999867 -1.0362724053344388e-17
outer loop
vertex 1131.317697662412 0.2108066720641368 12.0
vertex 1132.627534261195 2.47951021076915 6.0
vertex 1132.627534261195 2.47951021076915 12.0
endloop
endfacet
facet normal 0.8660254037844395 -0.49999999999999867 -1.0362724053344388e-17
outer loop
vertex 1132.627534261195 2.47951021076915 12.0
vertex 1132.627534261195 2.47951021076915 6.0
vertex 1135.1176976624122 6.792599740825936 6.0
endloop
endfacet
facet normal 0.8660254037844395 -0.49999999999999867 -1.0362724053344388e-17
outer loop
vertex 1132.627534261195 2.47951021076915 12.0
vertex 1135.1176976624122 6.792599740825936 6.0
vertex 1135.1176976624122 6.792599740825936 12.0
endloop
endfacet
facet normal 0.0 0.0 -1.0
outer loop
vertex 1136.1874427870928 -5.466843221667843 0.0
vertex 1136.1856459365983 -8.119106454425047 0.0
vertex 1135.654200103304 -5.178032134366575 0.0
endloop
endfacet
facet normal 0.0 0.0 -1.0
outer loop
vertex 1128.1813180859751 2.0178266339745696 0.0
vertex 1128.0120473009968 -0.7703002816592688 0.0
vertex 1128.0053109470764 0.6293104728581237 0.0
endloop
endfacet
facet normal 0.0 0.0 -1.0
outer loop
vertex 1128.0120473009968 -0.7703002816592688 0.0
vertex 1128.1813180859751 2.0178266339745696 0.0
vertex 1128.2014118868526 -2.1570579015224083 0.0
endloop
endfacet
facet normal 0.0 0.0 -1.0
outer loop
vertex 1128.2014118868526 -2.1570579015224083 0.0
vertex 1128.1813180859751 2.0178266339745696 0.0
vertex 1128.5370571867481 3.3714903052039706 0.0
endloop
endfacet
facet normal 0.0 0.0 -1.0
outer loop
vertex 1128.2014118868526 -2.1570579015224083 0.0
vertex 1128.5370571867481 3.3714903052039706 0.0
vertex 1128.5701646240789 -3.507234579373563 0.0
endloop
endfacet
facet normal 0.0 0.0 -1.0
outer loop
vertex 1128.5701646240789 -3.507234579373563 0.0
vertex 1128.5370571867481 3.3714903052039706 0.0
vertex 1129.0664414547512 4.667139925825108 0.0
endloop
endfacet
facet normal 0.0 0.0 -1.0
outer loop
vertex 1128.5701646240789 -3.507234579373563 0.0
vertex 1129.0664414547512 4.667139925825108 0.0
vertex 1129.1119960511032 -4.797728417915032 0.0
endloop
endfacet
facet normal 0.0 0.0 -1.0
outer loop
vertex 1129.1119960511032 -4.797728417915032 0.0
vertex 1129.0664414547512 4.667139925825108 0.0
vertex 1129.7604129783858 5.882606571607212 0.0
endloop
endfacet
facet normal 0.0 0.0 -1.0
outer loop
vertex 1129.1119960511032 -4.797728417915032 0.0
vertex 1129.7604129783858 5.882606571607212 0.0
vertex 1129.8176352819858 -6.006458709776864 0.0
endloop
endfacet
facet normal 0.0 0.0 -1.0
outer loop
vertex 1129.8176352819858 -6.006458709776864 0.0
vertex 1129.7604129783858 5.882606571607212 0.0
vertex 1130.6070977124778 6.997093271249937 0.0
endloop
endfacet
facet normal 0.0 0.0 -1.0
outer loop
vertex 1129.8176352819858 -6.006458709776864 0.0
vertex 1130.6070977124778 6.997093271249937 0.0
vertex 1130.5856459365982 2.4808935455754515 0.0
endloop
endfacet
facet normal 0.0 0.0 -1.0
outer loop
vertex 1130.5856459365982 2.4808935455754515 0.0
vertex 1130.6070977124778 6.997093271249937 0.0
vertex 1133.2379091693551 2.479096695081157 0.0
endloop
endfacet
facet normal 0.0 0.0 -1.0
outer loop
vertex 1133.2379091693551 2.479096695081157 0.0
vertex 1130.6070977124778 6.997093271249937 0.0
vertex 1131.5920086464812 7.99153084832831 0.0
endloop
endfacet
facet normal 0.0 0.0 -1.0
outer loop
vertex 1133.2379091693551 2.479096695081157 0.0
vertex 1131.5920086464812 7.99153084832831 0.0
vertex 1132.6982936812462 8.848904200188324 0.0
endloop
endfacet
facet normal 0.0 0.0 -1.0
outer loop
vertex 1133.2379091693551 2.479096695081157 0.0
vertex 1132.6982936812462 8.848904200188324 0.0
vertex 1133.9070239731082 9.554543431070853 0.0
endloop
endfacet
facet normal 0.0 0.0 -1.0
outer loop
vertex 1133.2379091693551 2.479096695081157 0.0
vertex 1133.9070239731082 9.554543431070853 0.0
vertex 1133.5267202566565 3.012339378870243 0.0
endloop
endfacet
facet normal 0.0 0.0 -1.0
outer loop
vertex 1133.5267202566565 3.012339378870243 0.0
vertex 1133.9070239731082 9.554543431070853 0.0
vertex 1133.865463246837 3.515343146814744 0.0
endloop
endfacet
facet normal 0.0 0.0 -1.0
outer loop
vertex 1133.865463246837 3.515343146814744 0.0
vertex 1133.9070239731082 9.554543431070853 0.0
vertex 1134.2509994150812 3.9834472665767957 0.0
endloop
endfacet
facet normal 0.0 0.0 -1.0
outer loop
vertex 1134.2509994150812 3.9834472665767957 0.0
vertex 1133.9070239731082 9.554543431070853 0.0
vertex 1135.1975178116495 10.096374858095365 0.0
endloop
endfacet
facet normal 0.0 0.0 -1.0
outer loop
vertex 1134.2509994150812 3.9834472665767957 0.0
vertex 1135.1975178116495 10.096374858095365 0.0
vertex 1134.6797564603428 4.412314378980324 0.0
endloop
endfacet
facet normal 0.0 0.0 -1.0
outer loop
vertex 1134.6797564603428 4.412314378980324 0.0
vertex 1135.1975178116495 10.096374858095365 0.0
vertex 1135.1477616055702 4.797970687114026 0.0
endloop
endfacet
facet normal 0.0 0.0 -1.0
outer loop
vertex 1135.1477616055702 4.797970687114026 0.0
vertex 1135.1975178116495 10.096374858095365 0.0
vertex 1135.650678408666 5.136842776738944 0.0
endloop
endfacet
facet normal 0.0 0.0 -1.0
outer loop
vertex 1135.650678408666 5.136842776738944 0.0
vertex 1135.1975178116495 10.096374858095365 0.0
vertex 1136.5476944895008 10.465127595321388 0.0
endloop
endfacet
facet normal 0.0 0.0 -1.0
outer loop
vertex 1135.650678408666 5.136842776738944 0.0
vertex 1136.5476944895008 10.465127595321388 0.0
vertex 1136.1856459365993 8.080893545574416 0.0
endloop
endfacet
facet normal 0.0 0.0 -1.0
outer loop
vertex 1135.650678408666 5.136842776738944 0.0
vertex 1136.1856459365993 8.080893545574416 0.0
vertex 1136.1838469430909 5.4257907268302406 0.0
endloop
endfacet
facet normal 0.0 0.0 -1.0
outer loop
vertex 1136.1856459365993 8.080893545574416 0.0
vertex 1136.5476944895008 10.465127595321388 0.0
vertex 1141.1856459365983 8.080893545575476 0.0
endloop
endfacet
facet normal 0.0 0.0 -1.0
outer loop
vertex 1141.1856459365983 8.080893545575476 0.0
vertex 1136.5476944895008 10.465127595321388 0.0
vertex 1137.934452109364 10.654492181177428 0.0
endloop
endfacet
facet normal 0.0 0.0 -1.0
outer loop
vertex 1141.1856459365983 8.080893545575476 0.0
vertex 1137.934452109364 10.654492181177428 0.0
vertex 1139.3340628638814 10.6612285350977 0.0
endloop
endfacet
facet normal 0.0 0.0 -1.0
outer loop
vertex 1141.1856459365983 8.080893545575476 0.0
vertex 1139.3340628638814 10.6612285350977 0.0
vertex 1140.722579024998 10.485221396198968 0.0
endloop
endfacet
facet normal 0.0 0.0 -1.0
outer loop
vertex 1141.1856459365983 8.080893545575476 0.0
vertex 1140.722579024998 10.485221396198968 0.0
vertex 1142.0762426962272 10.129482295426163 0.0
endloop
endfacet
facet normal 0.0 0.0 -1.0
outer loop
vertex 1141.1856459365983 8.080893545575476 0.0
vertex 1142.0762426962272 10.129482295426163 0.0
vertex 1141.7170917698932 5.139819225517656 0.0
endloop
endfacet
facet normal 0.0 0.0 -1.0
outer loop
vertex 1141.7170917698932 5.139819225517656 0.0
vertex 1142.0762426962272 10.129482295426163 0.0
vertex 1142.2200955378378 4.801076235337274 0.0
endloop
endfacet
facet normal 0.0 0.0 -1.0
outer loop
vertex 1142.2200955378378 4.801076235337274 0.0
vertex 1142.0762426962272 10.129482295426163 0.0
vertex 1143.3718923168483 9.60009802742306 0.0
endloop
endfacet
facet normal 0.0 0.0 -1.0
outer loop
vertex 1142.2200955378378 4.801076235337274 0.0
vertex 1143.3718923168483 9.60009802742306 0.0
vertex 1142.6881996575996 4.415540067092953 0.0
endloop
endfacet
facet normal 0.0 0.0 -1.0
outer loop
vertex 1142.6881996575996 4.415540067092953 0.0
vertex 1143.3718923168483 9.60009802742306 0.0
vertex 1143.1170667700032 3.986783021831475 0.0
endloop
endfacet
facet normal 0.0 0.0 -1.0
outer loop
vertex 1143.1170667700032 3.986783021831475 0.0
vertex 1143.3718923168483 9.60009802742306 0.0
vertex 1143.5027230781368 3.518777876604018 0.0
endloop
endfacet
facet normal 0.0 0.0 -1.0
outer loop
vertex 1143.5027230781368 3.518777876604018 0.0
vertex 1143.3718923168483 9.60009802742306 0.0
vertex 1144.5873589626303 8.906126503788196 0.0
endloop
endfacet
facet normal 0.0 0.0 -1.0
outer loop
vertex 1143.5027230781368 3.518777876604018 0.0
vertex 1144.5873589626303 8.906126503788196 0.0
vertex 1143.8415951677616 3.015861073508369 0.0
endloop
endfacet
facet normal 0.0 0.0 -1.0
outer loop
vertex 1143.8415951677616 3.015861073508369 0.0
vertex 1144.5873589626303 8.906126503788196 0.0
vertex 1144.1305431178532 2.482692539083546 0.0
endloop
endfacet
facet normal 0.0 0.0 -1.0
outer loop
vertex 1144.1305431178532 2.482692539083546 0.0
vertex 1144.5873589626303 8.906126503788196 0.0
vertex 1146.785645936598 2.4808935455754515 0.0
endloop
endfacet
facet normal 0.0 0.0 -1.0
outer loop
vertex 1146.785645936598 2.4808935455754515 0.0
vertex 1144.5873589626303 8.906126503788196 0.0
vertex 1145.7018456622732 8.05944176969624 0.0
endloop
endfacet
facet normal 0.0 0.0 -1.0
outer loop
vertex 1146.785645936598 2.4808935455754515 0.0
vertex 1145.7018456622732 8.05944176969624 0.0
vertex 1146.6962832393515 7.074530835692872 0.0
endloop
endfacet
facet normal 0.0 0.0 -1.0
outer loop
vertex 1146.785645936598 2.4808935455754515 0.0
vertex 1146.6962832393515 7.074530835692872 0.0
vertex 1147.5536565912116 5.968245800927776 0.0
endloop
endfacet
facet normal 0.0 0.0 -1.0
outer loop
vertex 1146.785645936598 2.4808935455754515 0.0
vertex 1147.5536565912116 5.968245800927776 0.0
vertex 1146.785645936598 -2.5191064544245503 0.0
endloop
endfacet
facet normal 0.0 0.0 -1.0
outer loop
vertex 1129.8176352819858 -6.006458709776864 0.0
vertex 1130.5856459365982 -2.5191064544245503 0.0
vertex 1130.6750086338457 -7.11274374454196 0.0
endloop
endfacet
facet normal 0.0 0.0 -1.0
outer loop
vertex 1130.5856459365982 -2.5191064544245503 0.0
vertex 1129.8176352819858 -6.006458709776864 0.0
vertex 1130.5856459365982 2.4808935455754515 0.0
endloop
endfacet
facet normal 0.0 0.0 -1.0
outer loop
vertex 1130.6750086338457 -7.11274374454196 0.0
vertex 1130.5856459365982 -2.5191064544245503 0.0
vertex 1133.240748755344 -2.52090544793269 0.0
endloop
endfacet
facet normal 0.0 0.0 -1.0
outer loop
vertex 1130.6750086338457 -7.11274374454196 0.0
vertex 1133.240748755344 -2.52090544793269 0.0
vertex 1131.6694462109242 -8.097654678545329 0.0
endloop
endfacet
facet normal 0.0 0.0 -1.0
outer loop
vertex 1131.6694462109242 -8.097654678545329 0.0
vertex 1133.240748755344 -2.52090544793269 0.0
vertex 1132.783932910567 -8.944339412637284 0.0
endloop
endfacet
facet normal 0.0 0.0 -1.0
outer loop
vertex 1132.783932910567 -8.944339412637284 0.0
vertex 1133.240748755344 -2.52090544793269 0.0
vertex 1133.9993995563489 -9.638310936272147 0.0
endloop
endfacet
facet normal 0.0 0.0 -1.0
outer loop
vertex 1133.9993995563489 -9.638310936272147 0.0
vertex 1133.240748755344 -2.52090544793269 0.0
vertex 1133.5296967054353 -3.054073982357468 0.0
endloop
endfacet
facet normal 0.0 0.0 -1.0
outer loop
vertex 1133.9993995563489 -9.638310936272147 0.0
vertex 1133.5296967054353 -3.054073982357468 0.0
vertex 1133.8685687950601 -3.5569907854530602 0.0
endloop
endfacet
facet normal 0.0 0.0 -1.0
outer loop
vertex 1133.9993995563489 -9.638310936272147 0.0
vertex 1133.8685687950601 -3.5569907854530602 0.0
vertex 1134.254225103194 -4.024995930680472 0.0
endloop
endfacet
facet normal 0.0 0.0 -1.0
outer loop
vertex 1133.9993995563489 -9.638310936272147 0.0
vertex 1134.254225103194 -4.024995930680472 0.0
vertex 1135.29504917697 -10.167695204275262 0.0
endloop
endfacet
facet normal 0.0 0.0 -1.0
outer loop
vertex 1135.29504917697 -10.167695204275262 0.0
vertex 1134.254225103194 -4.024995930680472 0.0
vertex 1134.6830922155975 -4.453752975941917 0.0
endloop
endfacet
facet normal 0.0 0.0 -1.0
outer loop
vertex 1135.29504917697 -10.167695204275262 0.0
vertex 1134.6830922155975 -4.453752975941917 0.0
vertex 1135.1511963353594 -4.839289144186215 0.0
endloop
endfacet
facet normal 0.0 0.0 -1.0
outer loop
vertex 1135.29504917697 -10.167695204275262 0.0
vertex 1135.1511963353594 -4.839289144186215 0.0
vertex 1135.654200103304 -5.178032134366575 0.0
endloop
endfacet
facet normal 0.0 0.0 -1.0
outer loop
vertex 1135.29504917697 -10.167695204275262 0.0
vertex 1135.654200103304 -5.178032134366575 0.0
vertex 1136.1856459365983 -8.119106454425047 0.0
endloop
endfacet
facet normal 0.0 0.0 -1.0
outer loop
vertex 1135.29504917697 -10.167695204275262 0.0
vertex 1136.1856459365983 -8.119106454425047 0.0
vertex 1136.6487128481995 -10.523434305048054 0.0
endloop
endfacet
facet normal 0.0 0.0 -1.0
outer loop
vertex 1136.6487128481995 -10.523434305048054 0.0
vertex 1136.1856459365983 -8.119106454425047 0.0
vertex 1141.1856459365977 -8.119106454424575 0.0
endloop
endfacet
facet normal 0.0 0.0 -1.0
outer loop
vertex 1136.6487128481995 -10.523434305048054 0.0
vertex 1141.1856459365977 -8.119106454424575 0.0
vertex 1138.037229009316 -10.6994414439468 0.0
endloop
endfacet
facet normal 0.0 0.0 -1.0
outer loop
vertex 1138.037229009316 -10.6994414439468 0.0
vertex 1141.1856459365977 -8.119106454424575 0.0
vertex 1139.4368397638334 -10.692705090026527 0.0
endloop
endfacet
facet normal 0.0 0.0 -1.0
outer loop
vertex 1139.4368397638334 -10.692705090026527 0.0
vertex 1141.1856459365977 -8.119106454424575 0.0
vertex 1140.8235973836966 -10.503340504170497 0.0
endloop
endfacet
facet normal 0.0 0.0 -1.0
outer loop
vertex 1140.8235973836966 -10.503340504170497 0.0
vertex 1141.1856459365977 -8.119106454424575 0.0
vertex 1142.1737740615476 -10.134587766944476 0.0
endloop
endfacet
facet normal 0.0 0.0 -1.0
outer loop
vertex 1142.1737740615476 -10.134587766944476 0.0
vertex 1141.1856459365977 -8.119106454424575 0.0
vertex 1141.1874449301058 -5.464003635679497 0.0
endloop
endfacet
facet normal 0.0 0.0 -1.0
outer loop
vertex 1142.1737740615476 -10.134587766944476 0.0
vertex 1141.1874449301058 -5.464003635679497 0.0
vertex 1141.7206134645307 -5.175055685588189 0.0
endloop
endfacet
facet normal 0.0 0.0 -1.0
outer loop
vertex 1142.1737740615476 -10.134587766944476 0.0
vertex 1141.7206134645307 -5.175055685588189 0.0
vertex 1142.2235302676268 -4.836183595963273 0.0
endloop
endfacet
facet normal 0.0 0.0 -1.0
outer loop
vertex 1142.1737740615476 -10.134587766944476 0.0
vertex 1142.2235302676268 -4.836183595963273 0.0
vertex 1143.4642679000892 -9.592756339919973 0.0
endloop
endfacet
facet normal 0.0 0.0 -1.0
outer loop
vertex 1143.4642679000892 -9.592756339919973 0.0
vertex 1142.2235302676268 -4.836183595963273 0.0
vertex 1142.6915354128541 -4.450527287829535 0.0
endloop
endfacet
facet normal 0.0 0.0 -1.0
outer loop
vertex 1143.4642679000892 -9.592756339919973 0.0
vertex 1142.6915354128541 -4.450527287829535 0.0
vertex 1143.1202924581157 -4.021660175425974 0.0
endloop
endfacet
facet normal 0.0 0.0 -1.0
outer loop
vertex 1143.4642679000892 -9.592756339919973 0.0
vertex 1143.1202924581157 -4.021660175425974 0.0
vertex 1143.5058286263602 -3.553556055663888 0.0
endloop
endfacet
facet normal 0.0 0.0 -1.0
outer loop
vertex 1143.4642679000892 -9.592756339919973 0.0
vertex 1143.5058286263602 -3.553556055663888 0.0
vertex 1144.672998191951 -8.887117109037433 0.0
endloop
endfacet
facet normal 0.0 0.0 -1.0
outer loop
vertex 1144.672998191951 -8.887117109037433 0.0
vertex 1143.5058286263602 -3.553556055663888 0.0
vertex 1143.8445716165406 -3.0505522877193196 0.0
endloop
endfacet
facet normal 0.0 0.0 -1.0
outer loop
vertex 1144.672998191951 -8.887117109037433 0.0
vertex 1143.8445716165406 -3.0505522877193196 0.0
vertex 1144.133382703842 -2.517309603930177 0.0
endloop
endfacet
facet normal 0.0 0.0 -1.0
outer loop
vertex 1144.672998191951 -8.887117109037433 0.0
vertex 1144.133382703842 -2.517309603930177 0.0
vertex 1146.785645936598 -2.5191064544245503 0.0
endloop
endfacet
facet normal 0.0 0.0 -1.0
outer loop
vertex 1144.672998191951 -8.887117109037433 0.0
vertex 1146.785645936598 -2.5191064544245503 0.0
vertex 1145.779283226716 -8.029743757177432 0.0
endloop
endfacet
facet normal 0.0 0.0 -1.0
outer loop
vertex 1145.779283226716 -8.029743757177432 0.0
vertex 1146.785645936598 -2.5191064544245503 0.0
vertex 1146.7641941607194 -7.035306180099059 0.0
endloop
endfacet
facet normal 0.0 0.0 -1.0
outer loop
vertex 1146.7641941607194 -7.035306180099059 0.0
vertex 1146.785645936598 -2.5191064544245503 0.0
vertex 1147.6108788948113 -5.920819480456346 0.0
endloop
endfacet
facet normal 0.0 0.0 -1.0
outer loop
vertex 1147.6108788948113 -5.920819480456346 0.0
vertex 1146.785645936598 -2.5191064544245503 0.0
vertex 1147.5536565912116 5.968245800927776 0.0
endloop
endfacet
facet normal 0.0 0.0 -1.0
outer loop
vertex 1147.6108788948113 -5.920819480456346 0.0
vertex 1147.5536565912116 5.968245800927776 0.0
vertex 1148.259295822094 4.7595155090659444 0.0
endloop
endfacet
facet normal 0.0 0.0 -1.0
outer loop
vertex 1147.6108788948113 -5.920819480456346 0.0
vertex 1148.259295822094 4.7595155090659444 0.0
vertex 1148.3048504184462 -4.705352834674241 0.0
endloop
endfacet
facet normal 0.0 0.0 -1.0
outer loop
vertex 1148.3048504184462 -4.705352834674241 0.0
vertex 1148.259295822094 4.7595155090659444 0.0
vertex 1148.8011272491185 3.469021670524475 0.0
endloop
endfacet
facet normal 0.0 0.0 -1.0
outer loop
vertex 1148.3048504184462 -4.705352834674241 0.0
vertex 1148.8011272491185 3.469021670524475 0.0
vertex 1148.8342346864492 -3.409703214053103 0.0
endloop
endfacet
facet normal 0.0 0.0 -1.0
outer loop
vertex 1148.8342346864492 -3.409703214053103 0.0
vertex 1148.8011272491185 3.469021670524475 0.0
vertex 1149.1698799863448 2.1188449926732753 0.0
endloop
endfacet
facet normal 0.0 0.0 -1.0
outer loop
vertex 1148.8342346864492 -3.409703214053103 0.0
vertex 1149.1698799863448 2.1188449926732753 0.0
vertex 1149.1899737872222 -2.056039542823702 0.0
endloop
endfacet
facet normal 0.0 0.0 -1.0
outer loop
vertex 1149.1899737872222 -2.056039542823702 0.0
vertex 1149.1698799863448 2.1188449926732753 0.0
vertex 1149.3592445722004 0.732087372810136 0.0
endloop
endfacet
facet normal 0.0 0.0 -1.0
outer loop
vertex 1149.1899737872222 -2.056039542823702 0.0
vertex 1149.3592445722004 0.732087372810136 0.0
vertex 1149.3659809261208 -0.6675233817072564 0.0
endloop
endfacet
facet normal 0.0 0.0 -1.0
outer loop
vertex 1141.7170917698932 5.139819225517656 0.0
vertex 1141.1838490861044 5.428630312818925 0.0
vertex 1141.1856459365983 8.080893545575476 0.0
endloop
endfacet
facet normal -0.5980630884947089 0.801449026563867 0.0
outer loop
vertex 1142.2235302676268 -4.836183595963273 6.0
vertex 1142.6915354128541 -4.450527287829535 0.0
vertex 1142.2235302676268 -4.836183595963273 0.0
endloop
endfacet
facet normal -0.6723496194832009 0.7402337395585227 0.0
outer loop
vertex 1142.6915354128541 -4.450527287829535 0.0
vertex 1142.2235302676268 -4.836183595963273 6.0
vertex 1142.6915354128541 -4.450527287829535 6.0
endloop
endfacet
facet normal -0.7404062933342404 0.6721595947325687 0.0
outer loop
vertex 1143.1202924581157 -4.021660175425974 6.0
vertex 1142.6915354128541 -4.450527287829535 0.0
vertex 1142.6915354128541 -4.450527287829535 6.0
endloop
endfacet
facet normal -0.6723496194832009 0.7402337395585227 0.0
outer loop
vertex 1142.6915354128541 -4.450527287829535 0.0
vertex 1143.1202924581157 -4.021660175425974 6.0
vertex 1143.1202924581157 -4.021660175425974 0.0
endloop
endfacet
facet normal 6.874099182900197e-16 1.0 -0.0
outer loop
vertex 1135.1176976624122 -6.370986396697662 12.0
vertex 1136.186830249811 -6.3709863966976625 6.0
vertex 1135.1176976624122 -6.370986396697662 6.0
endloop
endfacet
facet normal 6.874099182900197e-16 1.0 -0.0
outer loop
vertex 1136.186830249811 -6.3709863966976625 6.0
vertex 1135.1176976624122 -6.370986396697662 12.0
vertex 1141.1868303941687 -6.370986396697665 6.0
endloop
endfacet
facet normal 6.874099182900197e-16 1.0 -0.0
outer loop
vertex 1141.1868303941687 -6.370986396697665 6.0
vertex 1135.1176976624122 -6.370986396697662 12.0
vertex 1142.7176976624123 -6.370986396697667 6.0
endloop
endfacet
facet normal 6.874099182900197e-16 1.0 -0.0
outer loop
vertex 1142.7176976624123 -6.370986396697667 6.0
vertex 1135.1176976624122 -6.370986396697662 12.0
vertex 1142.7176976624123 -6.370986396697667 12.0
endloop
endfacet
facet normal 6.874099182900197e-16 1.0 -0.0
outer loop
vertex 1142.7176976624123 -6.370986396697667 12.0
vertex 1135.1176976624122 -6.370986396697662 12.0
vertex 1136.186830249811 -6.3709863966976625 12.0
endloop
endfacet
facet normal 6.874099182900197e-16 1.0 -0.0
outer loop
vertex 1142.7176976624123 -6.370986396697667 12.0
vertex 1136.186830249811 -6.3709863966976625 12.0
vertex 1141.1868303941687 -6.370986396697665 12.0
endloop
endfacet
facet normal -0.5182350245111941 0.8552382471392882 0.0
outer loop
vertex 1141.7206134645307 -5.175055685588189 6.0
vertex 1142.2235302676268 -4.836183595963273 0.0
vertex 1141.7206134645307 -5.175055685588189 0.0
endloop
endfacet
facet normal -0.5980630884947089 0.801449026563867 0.0
outer loop
vertex 1142.2235302676268 -4.836183595963273 0.0
vertex 1141.7206134645307 -5.175055685588189 6.0
vertex 1142.2235302676268 -4.836183595963273 6.0
endloop
endfacet
facet normal 0.9817128832358412 -0.19036757835506546 0.0
outer loop
vertex 1149.1899737872222 -2.056039542823702 0.0
vertex 1148.8342346864492 -3.409703214053103 12.0
vertex 1148.8342346864492 -3.409703214053103 0.0
endloop
endfacet
facet normal 0.9484662383037826 -0.31687820183450943 0.0
outer loop
vertex 1148.8342346864492 -3.409703214053103 12.0
vertex 1149.1899737872222 -2.056039542823702 0.0
vertex 1149.1899737872222 -2.056039542823702 12.0
endloop
endfacet
facet normal -0.8660254037844387 0.5 -3.440950890528622e-17
outer loop
vertex 1144.9423025933688 -2.517857629512801 12.0
vertex 1142.7176976624123 -6.370986396697667 6.0
vertex 1142.7176976624123 -6.370986396697667 12.0
endloop
endfacet
facet normal -0.8660254037844387 0.5 -3.440950890528622e-17
outer loop
vertex 1142.7176976624123 -6.370986396697667 6.0
vertex 1144.9423025933688 -2.517857629512801 12.0
vertex 1144.9423025933688 -2.517857629512801 6.0
endloop
endfacet
facet normal -0.8660254037844387 0.5 -3.440950890528622e-17
outer loop
vertex 1144.9423025933688 -2.517857629512801 6.0
vertex 1144.9423025933688 -2.517857629512801 12.0
vertex 1146.5176976624123 0.2108066720641359 11.999999999999995
endloop
endfacet
facet normal -0.8660254037844387 0.5 -3.440950890528622e-17
outer loop
vertex 1144.9423025933688 -2.517857629512801 6.0
vertex 1146.5176976624123 0.2108066720641359 11.999999999999995
vertex 1146.5176976624123 0.2108066720641359 6.0
endloop
endfacet
facet normal -0.0006774780345127089 -0.9999997705117301 -1.6173050950960314e-17
outer loop
vertex 1133.2379091693551 2.479096695081157 6.0
vertex 1130.5856459365982 2.4808935455754515 0.0
vertex 1133.2379091693551 2.479096695081157 0.0
endloop
endfacet
facet normal -0.0006774780345127089 -0.9999997705117301 -1.6173050950960314e-17
outer loop
vertex 1130.5856459365982 2.4808935455754515 0.0
vertex 1133.2379091693551 2.479096695081157 6.0
vertex 1130.5856459365982 2.4808935455754515 6.0
endloop
endfacet
facet normal -0.0006774780345127089 -0.9999997705117301 -1.6173050950960314e-17
outer loop
vertex 1130.5856459365982 2.4808935455754515 6.0
vertex 1133.2379091693551 2.479096695081157 6.0
vertex 1132.627534261195 2.47951021076915 6.0
endloop
endfacet
facet normal 1.0 -0.0 -0.0
outer loop
vertex 1130.5856459365982 2.4808935455754515 0.0
vertex 1130.5856459365982 -2.5191064544245503 6.0
vertex 1130.5856459365982 -2.5191064544245503 0.0
endloop
endfacet
facet normal 1.0 -0.0 -0.0
outer loop
vertex 1130.5856459365982 -2.5191064544245503 6.0
vertex 1130.5856459365982 2.4808935455754515 0.0
vertex 1130.5856459365982 2.4808935455754515 6.0
endloop
endfacet
facet normal 0.0006775606136567138 0.9999997704557811 6.6562175813920104e-18
outer loop
vertex 1130.5856459365982 -2.5191064544245503 6.0
vertex 1133.240748755344 -2.52090544793269 0.0
vertex 1130.5856459365982 -2.5191064544245503 0.0
endloop
endfacet
facet normal 0.0006775606136567138 0.9999997704557811 6.6562175813920104e-18
outer loop
vertex 1133.240748755344 -2.52090544793269 0.0
vertex 1130.5856459365982 -2.5191064544245503 6.0
vertex 1133.240748755344 -2.52090544793269 6.0
endloop
endfacet
facet normal 0.0006775606136567138 0.9999997704557811 6.6562175813920104e-18
outer loop
vertex 1133.240748755344 -2.52090544793269 6.0
vertex 1130.5856459365982 -2.5191064544245503 6.0
vertex 1132.8947170261258 -2.520670990408078 6.0
endloop
endfacet
facet normal 0.8791895138043991 0.47647224348999 0.0
outer loop
vertex 1133.240748755344 -2.52090544793269 0.0
vertex 1133.5296967054353 -3.054073982357468 6.0
vertex 1133.5296967054353 -3.054073982357468 0.0
endloop
endfacet
facet normal 0.855238247139193 0.518235024511351 0.0
outer loop
vertex 1133.5296967054353 -3.054073982357468 6.0
vertex 1133.240748755344 -2.52090544793269 0.0
vertex 1133.240748755344 -2.52090544793269 6.0
endloop
endfacet
facet normal 0.855238247139193 0.518235024511351 0.0
outer loop
vertex 1133.5296967054353 -3.054073982357468 0.0
vertex 1133.8685687950601 -3.5569907854530602 6.0
vertex 1133.8685687950601 -3.5569907854530602 0.0
endloop
endfacet
facet normal 0.8014490265638573 0.5980630884947219 0.0
outer loop
vertex 1133.8685687950601 -3.5569907854530602 6.0
vertex 1133.5296967054353 -3.054073982357468 0.0
vertex 1133.5296967054353 -3.054073982357468 6.0
endloop
endfacet
facet normal 0.8014490265638573 0.5980630884947219 0.0
outer loop
vertex 1133.8685687950601 -3.5569907854530602 0.0
vertex 1134.254225103194 -4.024995930680472 6.0
vertex 1134.254225103194 -4.024995930680472 0.0
endloop
endfacet
facet normal 0.7402337395583948 0.6723496194833419 0.0
outer loop
vertex 1134.254225103194 -4.024995930680472 6.0
vertex 1133.8685687950601 -3.5569907854530602 0.0
vertex 1133.8685687950601 -3.5569907854530602 6.0
endloop
endfacet
facet normal 0.7402337395583948 0.6723496194833419 0.0
outer loop
vertex 1134.254225103194 -4.024995930680472 6.0
vertex 1134.6830922155975 -4.453752975941917 0.0
vertex 1134.254225103194 -4.024995930680472 0.0
endloop
endfacet
facet normal 0.6721595947324708 0.7404062933343291 0.0
outer loop
vertex 1134.6830922155975 -4.453752975941917 0.0
vertex 1134.254225103194 -4.024995930680472 6.0
vertex 1134.6830922155975 -4.453752975941917 6.0
endloop
endfacet
facet normal 0.6721595947324708 0.7404062933343291 0.0
outer loop
vertex 1134.6830922155975 -4.453752975941917 6.0
vertex 1135.1511963353594 -4.839289144186215 0.0
vertex 1134.6830922155975 -4.453752975941917 0.0
endloop
endfacet
facet normal 0.5978573535004276 0.8016025105159443 0.0
outer loop
vertex 1135.1511963353594 -4.839289144186215 0.0
vertex 1134.6830922155975 -4.453752975941917 6.0
vertex 1135.1511963353594 -4.839289144186215 6.0
endloop
endfacet
facet normal 0.5978573535004276 0.8016025105159443 0.0
outer loop
vertex 1135.1511963353594 -4.839289144186215 6.0
vertex 1135.654200103304 -5.178032134366575 0.0
vertex 1135.1511963353594 -4.839289144186215 0.0
endloop
endfacet
facet normal 0.5180154855727495 0.8553712391159927 0.0
outer loop
vertex 1135.654200103304 -5.178032134366575 0.0
vertex 1135.1511963353594 -4.839289144186215 6.0
vertex 1135.654200103304 -5.178032134366575 6.0
endloop
endfacet
facet normal 0.5180154855727495 0.8553712391159927 0.0
outer loop
vertex 1135.654200103304 -5.178032134366575 6.0
vertex 1136.1874427870928 -5.466843221667843 0.0
vertex 1135.654200103304 -5.178032134366575 0.0
endloop
endfacet
facet normal 0.4762465581351984 0.8793117853551021 0.0
outer loop
vertex 1136.1874427870928 -5.466843221667843 0.0
vertex 1135.654200103304 -5.178032134366575 6.0
vertex 1136.1874427870928 -5.466843221667843 6.0
endloop
endfacet
facet normal 0.7550045069271771 -0.6557196005303259 0.0
outer loop
vertex 1146.7641941607194 -7.035306180099059 0.0
vertex 1145.779283226716 -8.029743757177432 12.0
vertex 1145.779283226716 -8.029743757177432 0.0
endloop
endfacet
facet normal 0.6629567560857077 -0.7486576918460901 0.0
outer loop
vertex 1145.779283226716 -8.029743757177432 12.0
vertex 1146.7641941607194 -7.035306180099059 0.0
vertex 1146.7641941607194 -7.035306180099059 12.0
endloop
endfacet
facet normal -0.06059971283015356 -0.9981621485534817 0.0
outer loop
vertex 1138.037229009316 -10.6994414439468 12.0
vertex 1136.6487128481995 -10.523434305048054 0.0
vertex 1138.037229009316 -10.6994414439468 0.0
endloop
endfacet
facet normal -0.19036757835505438 -0.9817128832358433 0.0
outer loop
vertex 1136.6487128481995 -10.523434305048054 0.0
vertex 1138.037229009316 -10.6994414439468 12.0
vertex 1136.6487128481995 -10.523434305048054 12.0
endloop
endfacet
facet normal 0.6629567560857077 -0.7486576918460901 0.0
outer loop
vertex 1145.779283226716 -8.029743757177432 12.0
vertex 1144.672998191951 -8.887117109037433 0.0
vertex 1145.779283226716 -8.029743757177432 0.0
endloop
endfacet
facet normal 0.5595656313413329 -0.8287860424871885 0.0
outer loop
vertex 1144.672998191951 -8.887117109037433 0.0
vertex 1145.779283226716 -8.029743757177432 12.0
vertex 1144.672998191951 -8.887117109037433 12.0
endloop
endfacet
facet normal 0.5595656313413329 -0.8287860424871885 0.0
outer loop
vertex 1144.672998191951 -8.887117109037433 12.0
vertex 1143.4642679000892 -9.592756339919973 0.0
vertex 1144.672998191951 -8.887117109037433 0.0
endloop
endfacet
facet normal 0.44660018350381353 -0.894733634158435 0.0
outer loop
vertex 1143.4642679000892 -9.592756339919973 0.0
vertex 1144.672998191951 -8.887117109037433 12.0
vertex 1143.4642679000892 -9.592756339919973 12.0
endloop
endfacet
facet normal 0.8341339213283204 -0.5515619650496575 0.0
outer loop
vertex 1147.6108788948113 -5.920819480456346 0.0
vertex 1146.7641941607194 -7.035306180099059 12.0
vertex 1146.7641941607194 -7.035306180099059 0.0
endloop
endfacet
facet normal 0.7550045069271771 -0.6557196005303259 0.0
outer loop
vertex 1146.7641941607194 -7.035306180099059 12.0
vertex 1147.6108788948113 -5.920819480456346 0.0
vertex 1147.6108788948113 -5.920819480456346 12.0
endloop
endfacet
facet normal -0.8014490265638817 -0.598063088494689 0.0
outer loop
vertex 1143.5027230781368 3.518777876604018 6.0
vertex 1143.8415951677616 3.015861073508369 0.0
vertex 1143.8415951677616 3.015861073508369 6.0
endloop
endfacet
facet normal -0.8552382471391519 -0.5182350245114191 0.0
outer loop
vertex 1143.8415951677616 3.015861073508369 0.0
vertex 1143.5027230781368 3.518777876604018 6.0
vertex 1143.5027230781368 3.518777876604018 0.0
endloop
endfacet
facet normal -0.7402337395585012 -0.6723496194832248 0.0
outer loop
vertex 1143.1170667700032 3.986783021831475 6.0
vertex 1143.5027230781368 3.518777876604018 0.0
vertex 1143.5027230781368 3.518777876604018 6.0
endloop
endfacet
facet normal -0.8014490265638817 -0.598063088494689 0.0
outer loop
vertex 1143.5027230781368 3.518777876604018 0.0
vertex 1143.1170667700032 3.986783021831475 6.0
vertex 1143.1170667700032 3.986783021831475 0.0
endloop
endfacet
facet normal -0.8553712391159848 0.5180154855727623 0.0
outer loop
vertex 1143.8445716165406 -3.0505522877193196 6.0
vertex 1143.5058286263602 -3.553556055663888 0.0
vertex 1143.5058286263602 -3.553556055663888 6.0
endloop
endfacet
facet normal -0.8016025105159118 0.5978573535004713 0.0
outer loop
vertex 1143.5058286263602 -3.553556055663888 0.0
vertex 1143.8445716165406 -3.0505522877193196 6.0
vertex 1143.8445716165406 -3.0505522877193196 0.0
endloop
endfacet
facet normal -0.8793117853551956 0.47624655813502587 0.0
outer loop
vertex 1144.133382703842 -2.517309603930177 6.0
vertex 1143.8445716165406 -3.0505522877193196 0.0
vertex 1143.8445716165406 -3.0505522877193196 6.0
endloop
endfacet
facet normal -0.8553712391159848 0.5180154855727623 0.0
outer loop
vertex 1143.8445716165406 -3.0505522877193196 0.0
vertex 1144.133382703842 -2.517309603930177 6.0
vertex 1144.133382703842 -2.517309603930177 0.0
endloop
endfacet
facet normal 0.0006774780345427144 0.9999997705117301 -2.7632749189187265e-17
outer loop
vertex 1144.133382703842 -2.517309603930177 6.0
vertex 1146.785645936598 -2.5191064544245503 0.0
vertex 1144.133382703842 -2.517309603930177 0.0
endloop
endfacet
facet normal 0.0006774780345427144 0.9999997705117301 -2.7632749189187265e-17
outer loop
vertex 1146.785645936598 -2.5191064544245503 0.0
vertex 1144.133382703842 -2.517309603930177 6.0
vertex 1146.785645936598 -2.5191064544245503 6.0
endloop
endfacet
facet normal 0.0006774780345427144 0.9999997705117301 -2.7632749189187265e-17
outer loop
vertex 1146.785645936598 -2.5191064544245503 6.0
vertex 1144.133382703842 -2.517309603930177 6.0
vertex 1144.9423025933688 -2.517857629512801 6.0
endloop
endfacet
facet normal -1.0 0.0 0.0
outer loop
vertex 1146.785645936598 2.4808935455754515 6.0
vertex 1146.785645936598 -2.5191064544245503 0.0
vertex 1146.785645936598 -2.5191064544245503 6.0
endloop
endfacet
facet normal -1.0 0.0 0.0
outer loop
vertex 1146.785645936598 -2.5191064544245503 0.0
vertex 1146.785645936598 2.4808935455754515 6.0
vertex 1146.785645936598 2.4808935455754515 0.0
endloop
endfacet
facet normal -0.0006775606136399391 -0.9999997704557811 -5.731465877660653e-20
outer loop
vertex 1146.785645936598 2.4808935455754515 6.0
vertex 1144.1305431178532 2.482692539083546 0.0
vertex 1146.785645936598 2.4808935455754515 0.0
endloop
endfacet
facet normal -0.0006775606136399391 -0.9999997704557811 -5.731465877660653e-20
outer loop
vertex 1144.1305431178532 2.482692539083546 0.0
vertex 1146.785645936598 2.4808935455754515 6.0
vertex 1144.1305431178532 2.482692539083546 6.0
endloop
endfacet
facet normal -0.0006775606136399391 -0.9999997704557811 -5.731465877660653e-20
outer loop
vertex 1144.1305431178532 2.482692539083546 6.0
vertex 1146.785645936598 2.4808935455754515 6.0
vertex 1145.2064446273164 2.481963550429243 6.0
endloop
endfacet
facet normal -0.7402337395585012 -0.6723496194832248 0.0
outer loop
vertex 1143.1170667700032 3.986783021831475 6.0
vertex 1142.6881996575996 4.415540067092953 0.0
vertex 1143.1170667700032 3.986783021831475 0.0
endloop
endfacet
facet normal -0.6721595947324961 -0.7404062933343062 0.0
outer loop
vertex 1142.6881996575996 4.415540067092953 0.0
vertex 1143.1170667700032 3.986783021831475 6.0
vertex 1142.6881996575996 4.415540067092953 6.0
endloop
endfacet
facet normal -0.6721595947324961 -0.7404062933343062 0.0
outer loop
vertex 1142.6881996575996 4.415540067092953 6.0
vertex 1142.2200955378378 4.801076235337274 0.0
vertex 1142.6881996575996 4.415540067092953 0.0
endloop
endfacet
facet normal -0.5978573535004515 -0.8016025105159267 0.0
outer loop
vertex 1142.2200955378378 4.801076235337274 0.0
vertex 1142.6881996575996 4.415540067092953 6.0
vertex 1142.2200955378378 4.801076235337274 6.0
endloop
endfacet
facet normal -0.5978573535004515 -0.8016025105159267 0.0
outer loop
vertex 1142.2200955378378 4.801076235337274 6.0
vertex 1141.7170917698932 5.139819225517656 0.0
vertex 1142.2200955378378 4.801076235337274 0.0
endloop
endfacet
facet normal -0.5180154855727627 -0.8553712391159846 0.0
outer loop
vertex 1141.7170917698932 5.139819225517656 0.0
vertex 1142.2200955378378 4.801076235337274 6.0
vertex 1141.7170917698932 5.139819225517656 6.0
endloop
endfacet
facet normal -0.5180154855727627 -0.8553712391159846 0.0
outer loop
vertex 1141.7170917698932 5.139819225517656 6.0
vertex 1141.1838490861044 5.428630312818925 0.0
vertex 1141.7170917698932 5.139819225517656 0.0
endloop
endfacet
facet normal -0.4762465581351984 -0.8793117853551021 -0.0
outer loop
vertex 1141.1838490861044 5.428630312818925 0.0
vertex 1141.7170917698932 5.139819225517656 6.0
vertex 1141.1838490861044 5.428630312818925 6.0
endloop
endfacet
facet normal -0.9999997705117301 0.0006774780344617762 1.527420492537985e-16
outer loop
vertex 1141.1847731456435 6.792599740825936 6.0
vertex 1141.1838490861044 5.428630312818925 0.0
vertex 1141.1838490861044 5.428630312818925 6.0
endloop
endfacet
facet normal -0.9999997705117301 0.0006774780344617762 1.527420492537985e-16
outer loop
vertex 1141.1838490861044 5.428630312818925 0.0
vertex 1141.1847731456435 6.792599740825936 6.0
vertex 1141.1856459365983 8.080893545575476 0.0
endloop
endfacet
facet normal -0.9999997705117301 0.0006774780344617762 1.527420492537985e-16
outer loop
vertex 1141.1856459365983 8.080893545575476 0.0
vertex 1141.1847731456435 6.792599740825936 6.0
vertex 1141.1856459365983 8.080893545575476 6.0
endloop
endfacet
facet normal 2.1206147948763478e-13 -1.0 0.0
outer loop
vertex 1141.1856459365983 8.080893545575476 6.0
vertex 1136.1856459365993 8.080893545574416 0.0
vertex 1141.1856459365983 8.080893545575476 0.0
endloop
endfacet
facet normal 2.1206147948763478e-13 -1.0 0.0
outer loop
vertex 1136.1856459365993 8.080893545574416 0.0
vertex 1141.1856459365983 8.080893545575476 6.0
vertex 1136.1856459365993 8.080893545574416 6.0
endloop
endfacet
facet normal 0.9999997704557811 -0.0006775606136950994 3.95875403371599e-15
outer loop
vertex 1136.1856459365993 8.080893545574416 0.0
vertex 1136.1838469430909 5.4257907268302406 6.0
vertex 1136.1838469430909 5.4257907268302406 0.0
endloop
endfacet
facet normal 0.9999997704557811 -0.0006775606136950994 3.95875403371599e-15
outer loop
vertex 1136.1838469430909 5.4257907268302406 6.0
vertex 1136.1856459365993 8.080893545574416 0.0
vertex 1136.1847730392578 6.792599740825936 6.0
endloop
endfacet
facet normal 0.9999997704557811 -0.0006775606136950994 3.95875403371599e-15
outer loop
vertex 1136.1847730392578 6.792599740825936 6.0
vertex 1136.1856459365993 8.080893545574416 0.0
vertex 1136.1856459365993 8.080893545574416 6.0
endloop
endfacet
facet normal -0.47647224348969697 0.879189513804558 0.0
outer loop
vertex 1141.1874449301058 -5.464003635679497 6.0
vertex 1141.7206134645307 -5.175055685588189 0.0
vertex 1141.1874449301058 -5.464003635679497 0.0
endloop
endfacet
facet normal -0.5182350245111941 0.8552382471392882 0.0
outer loop
vertex 1141.7206134645307 -5.175055685588189 0.0
vertex 1141.1874449301058 -5.464003635679497 6.0
vertex 1141.7206134645307 -5.175055685588189 6.0
endloop
endfacet
facet normal -0.8552382471391519 -0.5182350245114191 0.0
outer loop
vertex 1143.8415951677616 3.015861073508369 6.0
vertex 1144.1305431178532 2.482692539083546 0.0
vertex 1144.1305431178532 2.482692539083546 6.0
endloop
endfacet
facet normal -0.879189513804416 -0.4764722434899588 -0.0
outer loop
vertex 1144.1305431178532 2.482692539083546 0.0
vertex 1143.8415951677616 3.015861073508369 6.0
vertex 1143.8415951677616 3.015861073508369 0.0
endloop
endfacet
facet normal -0.9484662383038025 0.3168782018344503 0.0
outer loop
vertex 1128.5370571867481 3.3714903052039706 12.0
vertex 1128.1813180859751 2.0178266339745696 0.0
vertex 1128.1813180859751 2.0178266339745696 12.0
endloop
endfacet
facet normal -0.9817128832358407 0.19036757835506696 0.0
outer loop
vertex 1128.1813180859751 2.0178266339745696 0.0
vertex 1128.5370571867481 3.3714903052039706 12.0
vertex 1128.5370571867481 3.3714903052039706 0.0
endloop
endfacet
facet normal -0.8989910730698826 0.4379669514251746 0.0
outer loop
vertex 1129.0664414547512 4.667139925825108 12.0
vertex 1128.5370571867481 3.3714903052039706 0.0
vertex 1128.5370571867481 3.3714903052039706 12.0
endloop
endfacet
facet normal -0.9484662383038025 0.3168782018344503 0.0
outer loop
vertex 1128.5370571867481 3.3714903052039706 0.0
vertex 1129.0664414547512 4.667139925825108 12.0
vertex 1129.0664414547512 4.667139925825108 0.0
endloop
endfacet
facet normal -0.8341339213283216 0.5515619650496554 0.0
outer loop
vertex 1129.7604129783858 5.882606571607212 12.0
vertex 1129.0664414547512 4.667139925825108 0.0
vertex 1129.0664414547512 4.667139925825108 12.0
endloop
endfacet
facet normal -0.8989910730698826 0.4379669514251746 0.0
outer loop
vertex 1129.0664414547512 4.667139925825108 0.0
vertex 1129.7604129783858 5.882606571607212 12.0
vertex 1129.7604129783858 5.882606571607212 0.0
endloop
endfacet
facet normal -0.8287860424872089 -0.5595656313413025 0.0
outer loop
vertex 1129.8176352819858 -6.006458709776864 12.0
vertex 1130.6750086338457 -7.11274374454196 0.0
vertex 1130.6750086338457 -7.11274374454196 12.0
endloop
endfacet
facet normal -0.7486576918460519 -0.6629567560857511 0.0
outer loop
vertex 1130.6750086338457 -7.11274374454196 0.0
vertex 1129.8176352819858 -6.006458709776864 12.0
vertex 1129.8176352819858 -6.006458709776864 0.0
endloop
endfacet
facet normal -0.9798349579201865 -0.19980854645771917 0.0
outer loop
vertex 1128.2014118868526 -2.1570579015224083 12.0
vertex 1128.5701646240789 -3.507234579373563 0.0
vertex 1128.5701646240789 -3.507234579373563 12.0
endloop
endfacet
facet normal -0.9453720852822228 -0.3259932827055516 0.0
outer loop
vertex 1128.5701646240789 -3.507234579373563 0.0
vertex 1128.2014118868526 -2.1570579015224083 12.0
vertex 1128.2014118868526 -2.1570579015224083 0.0
endloop
endfacet
facet normal -0.9453720852822228 -0.3259932827055516 0.0
outer loop
vertex 1128.5701646240789 -3.507234579373563 12.0
vertex 1129.1119960511032 -4.797728417915032 0.0
vertex 1129.1119960511032 -4.797728417915032 12.0
endloop
endfacet
facet normal -0.8947336341584652 -0.4466001835037528 0.0
outer loop
vertex 1129.1119960511032 -4.797728417915032 0.0
vertex 1128.5701646240789 -3.507234579373563 12.0
vertex 1128.5701646240789 -3.507234579373563 0.0
endloop
endfacet
facet normal -0.8947336341584652 -0.4466001835037528 0.0
outer loop
vertex 1129.1119960511032 -4.797728417915032 12.0
vertex 1129.8176352819858 -6.006458709776864 0.0
vertex 1129.8176352819858 -6.006458709776864 12.0
endloop
endfacet
facet normal -0.8287860424872089 -0.5595656313413025 0.0
outer loop
vertex 1129.8176352819858 -6.006458709776864 0.0
vertex 1129.1119960511032 -4.797728417915032 12.0
vertex 1129.1119960511032 -4.797728417915032 0.0
endloop
endfacet
facet normal 0.9798349579201874 0.199808546457715 0.0
outer loop
vertex 1149.1698799863448 2.1188449926732753 0.0
vertex 1149.3592445722004 0.732087372810136 12.0
vertex 1149.3592445722004 0.732087372810136 0.0
endloop
endfacet
facet normal 0.9975325827665443 0.07020503058262523 0.0
outer loop
vertex 1149.3592445722004 0.732087372810136 12.0
vertex 1149.1698799863448 2.1188449926732753 0.0
vertex 1149.1698799863448 2.1188449926732753 12.0
endloop
endfacet
facet normal -0.31687820183444954 -0.9484662383038027 0.0
outer loop
vertex 1135.29504917697 -10.167695204275262 12.0
vertex 1133.9993995563489 -9.638310936272147 0.0
vertex 1135.29504917697 -10.167695204275262 0.0
endloop
endfacet
facet normal -0.4379669514252268 -0.898991073069857 0.0
outer loop
vertex 1133.9993995563489 -9.638310936272147 0.0
vertex 1135.29504917697 -10.167695204275262 12.0
vertex 1133.9993995563489 -9.638310936272147 12.0
endloop
endfacet
facet normal 0.44660018350381353 -0.894733634158435 0.0
outer loop
vertex 1143.4642679000892 -9.592756339919973 12.0
vertex 1142.1737740615476 -10.134587766944476 0.0
vertex 1143.4642679000892 -9.592756339919973 0.0
endloop
endfacet
facet normal 0.3259932827055145 -0.9453720852822355 0.0
outer loop
vertex 1142.1737740615476 -10.134587766944476 0.0
vertex 1143.4642679000892 -9.592756339919973 12.0
vertex 1142.1737740615476 -10.134587766944476 12.0
endloop
endfacet
facet normal 0.3259932827055145 -0.9453720852822355 0.0
outer loop
vertex 1142.1737740615476 -10.134587766944476 12.0
vertex 1140.8235973836966 -10.503340504170497 0.0
vertex 1142.1737740615476 -10.134587766944476 0.0
endloop
endfacet
facet normal 0.1998085464577295 -0.9798349579201843 0.0
outer loop
vertex 1140.8235973836966 -10.503340504170497 0.0
vertex 1142.1737740615476 -10.134587766944476 12.0
vertex 1140.8235973836966 -10.503340504170497 12.0
endloop
endfacet
facet normal 0.1998085464577295 -0.9798349579201843 0.0
outer loop
vertex 1140.8235973836966 -10.503340504170497 12.0
vertex 1139.4368397638334 -10.692705090026527 0.0
vertex 1140.8235973836966 -10.503340504170497 0.0
endloop
endfacet
facet normal 0.07020503058268314 -0.9975325827665402 0.0
outer loop
vertex 1139.4368397638334 -10.692705090026527 0.0
vertex 1140.8235973836966 -10.503340504170497 12.0
vertex 1139.4368397638334 -10.692705090026527 12.0
endloop
endfacet
facet normal 0.07020503058268314 -0.9975325827665402 0.0
outer loop
vertex 1139.4368397638334 -10.692705090026527 12.0
vertex 1138.037229009316 -10.6994414439468 0.0
vertex 1139.4368397638334 -10.692705090026527 0.0
endloop
endfacet
facet normal -0.06059971283015356 -0.9981621485534817 0.0
outer loop
vertex 1138.037229009316 -10.6994414439468 0.0
vertex 1139.4368397638334 -10.692705090026527 12.0
vertex 1138.037229009316 -10.6994414439468 12.0
endloop
endfacet
facet normal 0.9981621485534856 -0.06059971283008672 0.0
outer loop
vertex 1149.3659809261208 -0.6675233817072564 0.0
vertex 1149.1899737872222 -2.056039542823702 12.0
vertex 1149.1899737872222 -2.056039542823702 0.0
endloop
endfacet
facet normal 0.9817128832358412 -0.19036757835506546 0.0
outer loop
vertex 1149.1899737872222 -2.056039542823702 12.0
vertex 1149.3659809261208 -0.6675233817072564 0.0
vertex 1149.3659809261208 -0.6675233817072564 12.0
endloop
endfacet
facet normal 0.8989910730698826 -0.4379669514251746 0.0
outer loop
vertex 1148.3048504184462 -4.705352834674241 0.0
vertex 1147.6108788948113 -5.920819480456346 12.0
vertex 1147.6108788948113 -5.920819480456346 0.0
endloop
endfacet
facet normal 0.8341339213283204 -0.5515619650496575 0.0
outer loop
vertex 1147.6108788948113 -5.920819480456346 12.0
vertex 1148.3048504184462 -4.705352834674241 0.0
vertex 1148.3048504184462 -4.705352834674241 12.0
endloop
endfacet
facet normal 0.19036757835505422 0.9817128832358432 0.0
outer loop
vertex 1140.722579024998 10.485221396198968 12.0
vertex 1142.0762426962272 10.129482295426163 0.0
vertex 1140.722579024998 10.485221396198968 0.0
endloop
endfacet
facet normal 0.3168782018344496 0.9484662383038027 0.0
outer loop
vertex 1142.0762426962272 10.129482295426163 0.0
vertex 1140.722579024998 10.485221396198968 12.0
vertex 1142.0762426962272 10.129482295426163 12.0
endloop
endfacet
facet normal -0.7550045069271788 0.655719600530324 0.0
outer loop
vertex 1130.6070977124778 6.997093271249937 12.0
vertex 1129.7604129783858 5.882606571607212 0.0
vertex 1129.7604129783858 5.882606571607212 12.0
endloop
endfacet
facet normal -0.8341339213283216 0.5515619650496554 0.0
outer loop
vertex 1129.7604129783858 5.882606571607212 0.0
vertex 1130.6070977124778 6.997093271249937 12.0
vertex 1130.6070977124778 6.997093271249937 0.0
endloop
endfacet
facet normal -0.6629567560857399 0.748657691846062 0.0
outer loop
vertex 1131.5920086464812 7.99153084832831 12.0
vertex 1130.6070977124778 6.997093271249937 0.0
vertex 1130.6070977124778 6.997093271249937 12.0
endloop
endfacet
facet normal -0.7550045069271788 0.655719600530324 0.0
outer loop
vertex 1130.6070977124778 6.997093271249937 0.0
vertex 1131.5920086464812 7.99153084832831 12.0
vertex 1131.5920086464812 7.99153084832831 0.0
endloop
endfacet
facet normal 0.9999997705117301 -0.0006774780345944831 4.458808690331321e-15
outer loop
vertex 1136.1874427870928 -5.466843221667843 0.0
vertex 1136.1856459365983 -8.119106454425047 6.0
vertex 1136.1856459365983 -8.119106454425047 0.0
endloop
endfacet
facet normal 0.9999997705117301 -0.0006774780345944831 4.458808690331321e-15
outer loop
vertex 1136.1856459365983 -8.119106454425047 6.0
vertex 1136.1874427870928 -5.466843221667843 0.0
vertex 1136.186830249811 -6.3709863966976625 6.0
endloop
endfacet
facet normal 0.9999997705117301 -0.0006774780345944831 4.458808690331321e-15
outer loop
vertex 1136.186830249811 -6.3709863966976625 6.0
vertex 1136.1874427870928 -5.466843221667843 0.0
vertex 1136.1874427870928 -5.466843221667843 6.0
endloop
endfacet
facet normal -0.9975325827665443 -0.07020503058262523 0.0
outer loop
vertex 1128.0120473009968 -0.7703002816592688 12.0
vertex 1128.2014118868526 -2.1570579015224083 0.0
vertex 1128.2014118868526 -2.1570579015224083 12.0
endloop
endfacet
facet normal -0.9798349579201865 -0.19980854645771917 0.0
outer loop
vertex 1128.2014118868526 -2.1570579015224083 0.0
vertex 1128.0120473009968 -0.7703002816592688 12.0
vertex 1128.0120473009968 -0.7703002816592688 0.0
endloop
endfacet
facet normal -0.9817128832358407 0.19036757835506696 0.0
outer loop
vertex 1128.1813180859751 2.0178266339745696 12.0
vertex 1128.0053109470764 0.6293104728581237 0.0
vertex 1128.0053109470764 0.6293104728581237 12.0
endloop
endfacet
facet normal -0.9981621485534818 0.06059971283015059 0.0
outer loop
vertex 1128.0053109470764 0.6293104728581237 0.0
vertex 1128.1813180859751 2.0178266339745696 12.0
vertex 1128.1813180859751 2.0178266339745696 0.0
endloop
endfacet
facet normal 0.3168782018344496 0.9484662383038027 0.0
outer loop
vertex 1142.0762426962272 10.129482295426163 12.0
vertex 1143.3718923168483 9.60009802742306 0.0
vertex 1142.0762426962272 10.129482295426163 0.0
endloop
endfacet
facet normal 0.43796695142522335 0.8989910730698587 0.0
outer loop
vertex 1143.3718923168483 9.60009802742306 0.0
vertex 1142.0762426962272 10.129482295426163 12.0
vertex 1143.3718923168483 9.60009802742306 12.0
endloop
endfacet
facet normal -0.4379669514252268 -0.898991073069857 0.0
outer loop
vertex 1133.9993995563489 -9.638310936272147 12.0
vertex 1132.783932910567 -8.944339412637284 0.0
vertex 1133.9993995563489 -9.638310936272147 0.0
endloop
endfacet
facet normal -0.5515619650496978 -0.8341339213282937 0.0
outer loop
vertex 1132.783932910567 -8.944339412637284 0.0
vertex 1133.9993995563489 -9.638310936272147 12.0
vertex 1132.783932910567 -8.944339412637284 12.0
endloop
endfacet
facet normal -0.44660018350378466 0.8947336341584493 0.0
outer loop
vertex 1133.9070239731082 9.554543431070853 12.0
vertex 1135.1975178116495 10.096374858095365 0.0
vertex 1133.9070239731082 9.554543431070853 0.0
endloop
endfacet
facet normal -0.3259932827055179 0.9453720852822343 0.0
outer loop
vertex 1135.1975178116495 10.096374858095365 0.0
vertex 1133.9070239731082 9.554543431070853 12.0
vertex 1135.1975178116495 10.096374858095365 12.0
endloop
endfacet
facet normal 0.4764722434896826 -0.8791895138045657 0.0
outer loop
vertex 1136.1838469430909 5.4257907268302406 6.0
vertex 1135.650678408666 5.136842776738944 0.0
vertex 1136.1838469430909 5.4257907268302406 0.0
endloop
endfacet
facet normal 0.5182350245112582 -0.8552382471392492 0.0
outer loop
vertex 1135.650678408666 5.136842776738944 0.0
vertex 1136.1838469430909 5.4257907268302406 6.0
vertex 1135.650678408666 5.136842776738944 6.0
endloop
endfacet
facet normal 0.5182350245112582 -0.8552382471392492 0.0
outer loop
vertex 1135.650678408666 5.136842776738944 6.0
vertex 1135.1477616055702 4.797970687114026 0.0
vertex 1135.650678408666 5.136842776738944 0.0
endloop
endfacet
facet normal 0.5980630884947583 -0.8014490265638301 0.0
outer loop
vertex 1135.1477616055702 4.797970687114026 0.0
vertex 1135.650678408666 5.136842776738944 6.0
vertex 1135.1477616055702 4.797970687114026 6.0
endloop
endfacet
facet normal 0.5980630884947583 -0.8014490265638301 0.0
outer loop
vertex 1135.1477616055702 4.797970687114026 6.0
vertex 1134.6797564603428 4.412314378980324 0.0
vertex 1135.1477616055702 4.797970687114026 0.0
endloop
endfacet
facet normal 0.6723496194832483 -0.7402337395584798 0.0
outer loop
vertex 1134.6797564603428 4.412314378980324 0.0
vertex 1135.1477616055702 4.797970687114026 6.0
vertex 1134.6797564603428 4.412314378980324 6.0
endloop
endfacet
facet normal 0.6723496194832483 -0.7402337395584798 0.0
outer loop
vertex 1134.6797564603428 4.412314378980324 0.0
vertex 1134.2509994150812 3.9834472665767957 6.0
vertex 1134.2509994150812 3.9834472665767957 0.0
endloop
endfacet
facet normal 0.7404062933342859 -0.6721595947325186 0.0
outer loop
vertex 1134.2509994150812 3.9834472665767957 6.0
vertex 1134.6797564603428 4.412314378980324 0.0
vertex 1134.6797564603428 4.412314378980324 6.0
endloop
endfacet
facet normal 0.7404062933342859 -0.6721595947325186 0.0
outer loop
vertex 1134.2509994150812 3.9834472665767957 0.0
vertex 1133.865463246837 3.515343146814744 6.0
vertex 1133.865463246837 3.515343146814744 0.0
endloop
endfacet
facet normal 0.8016025105158827 -0.5978573535005105 0.0
outer loop
vertex 1133.865463246837 3.515343146814744 6.0
vertex 1134.2509994150812 3.9834472665767957 0.0
vertex 1134.2509994150812 3.9834472665767957 6.0
endloop
endfacet
facet normal 0.8016025105158827 -0.5978573535005105 0.0
outer loop
vertex 1133.865463246837 3.515343146814744 0.0
vertex 1133.5267202566565 3.012339378870243 6.0
vertex 1133.5267202566565 3.012339378870243 0.0
endloop
endfacet
facet normal 0.8553712391159571 -0.5180154855728079 0.0
outer loop
vertex 1133.5267202566565 3.012339378870243 6.0
vertex 1133.865463246837 3.515343146814744 0.0
vertex 1133.865463246837 3.515343146814744 6.0
endloop
endfacet
facet normal 0.8553712391159571 -0.5180154855728079 0.0
outer loop
vertex 1133.5267202566565 3.012339378870243 0.0
vertex 1133.2379091693551 2.479096695081157 6.0
vertex 1133.2379091693551 2.479096695081157 0.0
endloop
endfacet
facet normal 0.8793117853551744 -0.4762465581350647 0.0
outer loop
vertex 1133.2379091693551 2.479096695081157 6.0
vertex 1133.5267202566565 3.012339378870243 0.0
vertex 1133.5267202566565 3.012339378870243 6.0
endloop
endfacet
facet normal -0.6629567560857399 0.748657691846062 0.0
outer loop
vertex 1131.5920086464812 7.99153084832831 12.0
vertex 1132.6982936812462 8.848904200188324 0.0
vertex 1131.5920086464812 7.99153084832831 0.0
endloop
endfacet
facet normal -0.5595656313413383 0.8287860424871847 0.0
outer loop
vertex 1132.6982936812462 8.848904200188324 0.0
vertex 1131.5920086464812 7.99153084832831 12.0
vertex 1132.6982936812462 8.848904200188324 12.0
endloop
endfacet
facet normal -0.5595656313413383 0.8287860424871847 0.0
outer loop
vertex 1132.6982936812462 8.848904200188324 12.0
vertex 1133.9070239731082 9.554543431070853 0.0
vertex 1132.6982936812462 8.848904200188324 0.0
endloop
endfacet
facet normal -0.44660018350378466 0.8947336341584493 0.0
outer loop
vertex 1133.9070239731082 9.554543431070853 0.0
vertex 1132.6982936812462 8.848904200188324 12.0
vertex 1133.9070239731082 9.554543431070853 12.0
endloop
endfacet
facet normal -0.5515619650496978 -0.8341339213282937 0.0
outer loop
vertex 1132.783932910567 -8.944339412637284 12.0
vertex 1131.6694462109242 -8.097654678545329 0.0
vertex 1132.783932910567 -8.944339412637284 0.0
endloop
endfacet
facet normal -0.6557196005302917 -0.7550045069272069 0.0
outer loop
vertex 1131.6694462109242 -8.097654678545329 0.0
vertex 1132.783932910567 -8.944339412637284 12.0
vertex 1131.6694462109242 -8.097654678545329 12.0
endloop
endfacet
facet normal 0.06059971283014956 0.9981621485534821 0.0
outer loop
vertex 1139.3340628638814 10.6612285350977 12.0
vertex 1140.722579024998 10.485221396198968 0.0
vertex 1139.3340628638814 10.6612285350977 0.0
endloop
endfacet
facet normal 0.19036757835505422 0.9817128832358432 0.0
outer loop
vertex 1140.722579024998 10.485221396198968 0.0
vertex 1139.3340628638814 10.6612285350977 12.0
vertex 1140.722579024998 10.485221396198968 12.0
endloop
endfacet
facet normal -0.9981621485534818 0.06059971283015059 0.0
outer loop
vertex 1128.0053109470764 0.6293104728581237 12.0
vertex 1128.0120473009968 -0.7703002816592688 0.0
vertex 1128.0120473009968 -0.7703002816592688 12.0
endloop
endfacet
facet normal -0.9975325827665443 -0.07020503058262523 0.0
outer loop
vertex 1128.0120473009968 -0.7703002816592688 0.0
vertex 1128.0053109470764 0.6293104728581237 12.0
vertex 1128.0053109470764 0.6293104728581237 0.0
endloop
endfacet
facet normal -0.6557196005302917 -0.7550045069272069 0.0
outer loop
vertex 1131.6694462109242 -8.097654678545329 12.0
vertex 1130.6750086338457 -7.11274374454196 0.0
vertex 1131.6694462109242 -8.097654678545329 0.0
endloop
endfacet
facet normal -0.7486576918460519 -0.6629567560857511 0.0
outer loop
vertex 1130.6750086338457 -7.11274374454196 0.0
vertex 1131.6694462109242 -8.097654678545329 12.0
vertex 1130.6750086338457 -7.11274374454196 12.0
endloop
endfacet
facet normal 0.43796695142522335 0.8989910730698587 0.0
outer loop
vertex 1143.3718923168483 9.60009802742306 12.0
vertex 1144.5873589626303 8.906126503788196 0.0
vertex 1143.3718923168483 9.60009802742306 0.0
endloop
endfacet
facet normal 0.5515619650496978 0.8341339213282937 0.0
outer loop
vertex 1144.5873589626303 8.906126503788196 0.0
vertex 1143.3718923168483 9.60009802742306 12.0
vertex 1144.5873589626303 8.906126503788196 12.0
endloop
endfacet
facet normal 0.5515619650496978 0.8341339213282937 0.0
outer loop
vertex 1144.5873589626303 8.906126503788196 12.0
vertex 1145.7018456622732 8.05944176969624 0.0
vertex 1144.5873589626303 8.906126503788196 0.0
endloop
endfacet
facet normal 0.6557196005303257 0.7550045069271772 0.0
outer loop
vertex 1145.7018456622732 8.05944176969624 0.0
vertex 1144.5873589626303 8.906126503788196 12.0
vertex 1145.7018456622732 8.05944176969624 12.0
endloop
endfacet
facet normal 0.6557196005303257 0.7550045069271772 0.0
outer loop
vertex 1145.7018456622732 8.05944176969624 12.0
vertex 1146.6962832393515 7.074530835692872 0.0
vertex 1145.7018456622732 8.05944176969624 0.0
endloop
endfacet
facet normal 0.748657691846048 0.6629567560857553 0.0
outer loop
vertex 1146.6962832393515 7.074530835692872 0.0
vertex 1145.7018456622732 8.05944176969624 12.0
vertex 1146.6962832393515 7.074530835692872 12.0
endloop
endfacet
facet normal 0.748657691846048 0.6629567560857553 0.0
outer loop
vertex 1146.6962832393515 7.074530835692872 0.0
vertex 1147.5536565912116 5.968245800927776 12.0
vertex 1147.5536565912116 5.968245800927776 0.0
endloop
endfacet
facet normal 0.8287860424871801 0.5595656313413446 0.0
outer loop
vertex 1147.5536565912116 5.968245800927776 12.0
vertex 1146.6962832393515 7.074530835692872 0.0
vertex 1146.6962832393515 7.074530835692872 12.0
endloop
endfacet
facet normal 0.8287860424871801 0.5595656313413446 0.0
outer loop
vertex 1147.5536565912116 5.968245800927776 0.0
vertex 1148.259295822094 4.7595155090659444 12.0
vertex 1148.259295822094 4.7595155090659444 0.0
endloop
endfacet
facet normal 0.8947336341584652 0.4466001835037528 0.0
outer loop
vertex 1148.259295822094 4.7595155090659444 12.0
vertex 1147.5536565912116 5.968245800927776 0.0
vertex 1147.5536565912116 5.968245800927776 12.0
endloop
endfacet
facet normal 0.8947336341584652 0.4466001835037528 0.0
outer loop
vertex 1148.259295822094 4.7595155090659444 0.0
vertex 1148.8011272491185 3.469021670524475 12.0
vertex 1148.8011272491185 3.469021670524475 0.0
endloop
endfacet
facet normal 0.9453720852822242 0.32599328270554756 0.0
outer loop
vertex 1148.8011272491185 3.469021670524475 12.0
vertex 1148.259295822094 4.7595155090659444 0.0
vertex 1148.259295822094 4.7595155090659444 12.0
endloop
endfacet
facet normal 0.9453720852822242 0.32599328270554756 0.0
outer loop
vertex 1148.8011272491185 3.469021670524475 0.0
vertex 1149.1698799863448 2.1188449926732753 12.0
vertex 1149.1698799863448 2.1188449926732753 0.0
endloop
endfacet
facet normal 0.9798349579201874 0.199808546457715 0.0
outer loop
vertex 1149.1698799863448 2.1188449926732753 12.0
vertex 1148.8011272491185 3.469021670524475 0.0
vertex 1148.8011272491185 3.469021670524475 12.0
endloop
endfacet
facet normal -0.07020503058268712 0.99753258276654 0.0
outer loop
vertex 1137.934452109364 10.654492181177428 12.0
vertex 1139.3340628638814 10.6612285350977 0.0
vertex 1137.934452109364 10.654492181177428 0.0
endloop
endfacet
facet normal 0.06059971283014956 0.9981621485534821 0.0
outer loop
vertex 1139.3340628638814 10.6612285350977 0.0
vertex 1137.934452109364 10.654492181177428 12.0
vertex 1139.3340628638814 10.6612285350977 12.0
endloop
endfacet
facet normal -0.3259932827055179 0.9453720852822343 0.0
outer loop
vertex 1135.1975178116495 10.096374858095365 12.0
vertex 1136.5476944895008 10.465127595321388 0.0
vertex 1135.1975178116495 10.096374858095365 0.0
endloop
endfacet
facet normal -0.19980854645773344 0.9798349579201835 0.0
outer loop
vertex 1136.5476944895008 10.465127595321388 0.0
vertex 1135.1975178116495 10.096374858095365 12.0
vertex 1136.5476944895008 10.465127595321388 12.0
endloop
endfacet
facet normal -0.19980854645773344 0.9798349579201835 0.0
outer loop
vertex 1136.5476944895008 10.465127595321388 12.0
vertex 1137.934452109364 10.654492181177428 0.0
vertex 1136.5476944895008 10.465127595321388 0.0
endloop
endfacet
facet normal -0.07020503058268712 0.99753258276654 0.0
outer loop
vertex 1137.934452109364 10.654492181177428 0.0
vertex 1136.5476944895008 10.465127595321388 12.0
vertex 1137.934452109364 10.654492181177428 12.0
endloop
endfacet
facet normal -9.475087381362064e-14 1.0 -0.0
outer loop
vertex 1136.1856459365983 -8.119106454425047 6.0
vertex 1141.1856459365977 -8.119106454424575 0.0
vertex 1136.1856459365983 -8.119106454425047 0.0
endloop
endfacet
facet normal -9.475087381362064e-14 1.0 -0.0
outer loop
vertex 1141.1856459365977 -8.119106454424575 0.0
vertex 1136.1856459365983 -8.119106454425047 6.0
vertex 1141.1856459365977 -8.119106454424575 6.0
endloop
endfacet
facet normal -0.9999997704557811 0.0006775606136287992 2.2897290186162907e-15
outer loop
vertex 1141.1868303941687 -6.370986396697665 6.0
vertex 1141.1856459365977 -8.119106454424575 0.0
vertex 1141.1856459365977 -8.119106454424575 6.0
endloop
endfacet
facet normal -0.9999997704557811 0.0006775606136287992 2.2897290186162907e-15
outer loop
vertex 1141.1856459365977 -8.119106454424575 0.0
vertex 1141.1868303941687 -6.370986396697665 6.0
vertex 1141.1874449301058 -5.464003635679497 0.0
endloop
endfacet
facet normal -0.9999997704557811 0.0006775606136287992 2.2897290186162907e-15
outer loop
vertex 1141.1874449301058 -5.464003635679497 0.0
vertex 1141.1868303941687 -6.370986396697665 6.0
vertex 1141.1874449301058 -5.464003635679497 6.0
endloop
endfacet
facet normal -0.19036757835505438 -0.9817128832358433 0.0
outer loop
vertex 1136.6487128481995 -10.523434305048054 12.0
vertex 1135.29504917697 -10.167695204275262 0.0
vertex 1136.6487128481995 -10.523434305048054 0.0
endloop
endfacet
facet normal -0.31687820183444954 -0.9484662383038027 0.0
outer loop
vertex 1135.29504917697 -10.167695204275262 0.0
vertex 1136.6487128481995 -10.523434305048054 12.0
vertex 1135.29504917697 -10.167695204275262 12.0
endloop
endfacet
facet normal -0.8016025105159118 0.5978573535004713 0.0
outer loop
vertex 1143.5058286263602 -3.553556055663888 6.0
vertex 1143.1202924581157 -4.021660175425974 0.0
vertex 1143.1202924581157 -4.021660175425974 6.0
endloop
endfacet
facet normal -0.7404062933342404 0.6721595947325687 0.0
outer loop
vertex 1143.1202924581157 -4.021660175425974 0.0
vertex 1143.5058286263602 -3.553556055663888 6.0
vertex 1143.5058286263602 -3.553556055663888 0.0
endloop
endfacet
facet normal -0.0 -0.0 1.0
outer loop
vertex 1135.1176976624122 -6.370986396697662 6.0
vertex 1133.240748755344 -2.52090544793269 6.0
vertex 1132.8947170261258 -2.520670990408078 6.0
endloop
endfacet
facet normal -0.0 -0.0 1.0
outer loop
vertex 1133.240748755344 -2.52090544793269 6.0
vertex 1135.1176976624122 -6.370986396697662 6.0
vertex 1133.5296967054353 -3.054073982357468 6.0
endloop
endfacet
facet normal -0.0 -0.0 1.0
outer loop
vertex 1133.5296967054353 -3.054073982357468 6.0
vertex 1135.1176976624122 -6.370986396697662 6.0
vertex 1133.8685687950601 -3.5569907854530602 6.0
endloop
endfacet
facet normal -0.0 -0.0 1.0
outer loop
vertex 1133.8685687950601 -3.5569907854530602 6.0
vertex 1135.1176976624122 -6.370986396697662 6.0
vertex 1134.254225103194 -4.024995930680472 6.0
endloop
endfacet
facet normal -0.0 -0.0 1.0
outer loop
vertex 1134.254225103194 -4.024995930680472 6.0
vertex 1135.1176976624122 -6.370986396697662 6.0
vertex 1134.6830922155975 -4.453752975941917 6.0
endloop
endfacet
facet normal -0.0 -0.0 1.0
outer loop
vertex 1134.6830922155975 -4.453752975941917 6.0
vertex 1135.1176976624122 -6.370986396697662 6.0
vertex 1135.1511963353594 -4.839289144186215 6.0
endloop
endfacet
facet normal -0.0 -0.0 1.0
outer loop
vertex 1135.1511963353594 -4.839289144186215 6.0
vertex 1135.1176976624122 -6.370986396697662 6.0
vertex 1136.186830249811 -6.3709863966976625 6.0
endloop
endfacet
facet normal -0.0 -0.0 1.0
outer loop
vertex 1135.1511963353594 -4.839289144186215 6.0
vertex 1136.186830249811 -6.3709863966976625 6.0
vertex 1135.654200103304 -5.178032134366575 6.0
endloop
endfacet
facet normal -0.0 -0.0 1.0
outer loop
vertex 1135.654200103304 -5.178032134366575 6.0
vertex 1136.186830249811 -6.3709863966976625 6.0
vertex 1136.1874427870928 -5.466843221667843 6.0
endloop
endfacet
facet normal -0.0 -0.0 1.0
outer loop
vertex 1133.2379091693551 2.479096695081157 6.0
vertex 1135.1176976624122 6.792599740825936 6.0
vertex 1132.627534261195 2.47951021076915 6.0
endloop
endfacet
facet normal -0.0 -0.0 1.0
outer loop
vertex 1135.1176976624122 6.792599740825936 6.0
vertex 1133.2379091693551 2.479096695081157 6.0
vertex 1133.5267202566565 3.012339378870243 6.0
endloop
endfacet
facet normal -0.0 -0.0 1.0
outer loop
vertex 1135.1176976624122 6.792599740825936 6.0
vertex 1133.5267202566565 3.012339378870243 6.0
vertex 1133.865463246837 3.515343146814744 6.0
endloop
endfacet
facet normal -0.0 -0.0 1.0
outer loop
vertex 1135.1176976624122 6.792599740825936 6.0
vertex 1133.865463246837 3.515343146814744 6.0
vertex 1134.2509994150812 3.9834472665767957 6.0
endloop
endfacet
facet normal -0.0 -0.0 1.0
outer loop
vertex 1135.1176976624122 6.792599740825936 6.0
vertex 1134.2509994150812 3.9834472665767957 6.0
vertex 1134.6797564603428 4.412314378980324 6.0
endloop
endfacet
facet normal -0.0 -0.0 1.0
outer loop
vertex 1135.1176976624122 6.792599740825936 6.0
vertex 1134.6797564603428 4.412314378980324 6.0
vertex 1135.1477616055702 4.797970687114026 6.0
endloop
endfacet
facet normal -0.0 -0.0 1.0
outer loop
vertex 1135.1176976624122 6.792599740825936 6.0
vertex 1135.1477616055702 4.797970687114026 6.0
vertex 1136.1847730392578 6.792599740825936 6.0
endloop
endfacet
facet normal -0.0 -0.0 1.0
outer loop
vertex 1136.1847730392578 6.792599740825936 6.0
vertex 1135.1477616055702 4.797970687114026 6.0
vertex 1135.650678408666 5.136842776738944 6.0
endloop
endfacet
facet normal -0.0 -0.0 1.0
outer loop
vertex 1136.1847730392578 6.792599740825936 6.0
vertex 1135.650678408666 5.136842776738944 6.0
vertex 1136.1838469430909 5.4257907268302406 6.0
endloop
endfacet
facet normal -0.0 -0.0 1.0
outer loop
vertex 1141.7170917698932 5.139819225517656 6.0
vertex 1141.1847731456435 6.792599740825936 6.0
vertex 1141.1838490861044 5.428630312818925 6.0
endloop
endfacet
facet normal -0.0 -0.0 1.0
outer loop
vertex 1141.1847731456435 6.792599740825936 6.0
vertex 1141.7170917698932 5.139819225517656 6.0
vertex 1142.7176976624123 6.792599740825936 6.0
endloop
endfacet
facet normal -0.0 -0.0 1.0
outer loop
vertex 1142.7176976624123 6.792599740825936 6.0
vertex 1141.7170917698932 5.139819225517656 6.0
vertex 1142.2200955378378 4.801076235337274 6.0
endloop
endfacet
facet normal -0.0 -0.0 1.0
outer loop
vertex 1142.7176976624123 6.792599740825936 6.0
vertex 1142.2200955378378 4.801076235337274 6.0
vertex 1142.6881996575996 4.415540067092953 6.0
endloop
endfacet
facet normal -0.0 -0.0 1.0
outer loop
vertex 1142.7176976624123 6.792599740825936 6.0
vertex 1142.6881996575996 4.415540067092953 6.0
vertex 1143.1170667700032 3.986783021831475 6.0
endloop
endfacet
facet normal -0.0 -0.0 1.0
outer loop
vertex 1142.7176976624123 6.792599740825936 6.0
vertex 1143.1170667700032 3.986783021831475 6.0
vertex 1145.2064446273164 2.481963550429243 6.0
endloop
endfacet
facet normal -0.0 -0.0 1.0
outer loop
vertex 1145.2064446273164 2.481963550429243 6.0
vertex 1143.1170667700032 3.986783021831475 6.0
vertex 1143.5027230781368 3.518777876604018 6.0
endloop
endfacet
facet normal -0.0 -0.0 1.0
outer loop
vertex 1145.2064446273164 2.481963550429243 6.0
vertex 1143.5027230781368 3.518777876604018 6.0
vertex 1143.8415951677616 3.015861073508369 6.0
endloop
endfacet
facet normal -0.0 -0.0 1.0
outer loop
vertex 1145.2064446273164 2.481963550429243 6.0
vertex 1143.8415951677616 3.015861073508369 6.0
vertex 1144.1305431178532 2.482692539083546 6.0
endloop
endfacet
facet normal 0.0 0.0 -1.0
outer loop
vertex 1146.785645936598 2.4808935455754515 6.0
vertex 1146.5176976624123 0.2108066720641359 6.0
vertex 1145.2064446273164 2.481963550429243 6.0
endloop
endfacet
facet normal 0.0 0.0 -1.0
outer loop
vertex 1146.5176976624123 0.2108066720641359 6.0
vertex 1146.785645936598 -2.5191064544245503 6.0
vertex 1144.9423025933688 -2.517857629512801 6.0
endloop
endfacet
facet normal 0.0 0.0 -1.0
outer loop
vertex 1146.785645936598 -2.5191064544245503 6.0
vertex 1146.5176976624123 0.2108066720641359 6.0
vertex 1146.785645936598 2.4808935455754515 6.0
endloop
endfacet
facet normal 0.0 0.0 -1.0
outer loop
vertex 1132.8947170261258 -2.520670990408078 6.0
vertex 1130.5856459365982 -2.5191064544245503 6.0
vertex 1131.317697662412 0.2108066720641368 6.0
endloop
endfacet
facet normal 0.0 0.0 -1.0
outer loop
vertex 1130.5856459365982 2.4808935455754515 6.0
vertex 1131.317697662412 0.2108066720641368 6.0
vertex 1130.5856459365982 -2.5191064544245503 6.0
endloop
endfacet
facet normal 0.0 0.0 -1.0
outer loop
vertex 1131.317697662412 0.2108066720641368 6.0
vertex 1130.5856459365982 2.4808935455754515 6.0
vertex 1132.627534261195 2.47951021076915 6.0
endloop
endfacet
facet normal 0.0 0.0 -1.0
outer loop
vertex 1136.1856459365993 8.080893545574416 6.0
vertex 1141.1847731456435 6.792599740825936 6.0
vertex 1136.1847730392578 6.792599740825936 6.0
endloop
endfacet
facet normal 0.0 0.0 -1.0
outer loop
vertex 1141.1847731456435 6.792599740825936 6.0
vertex 1136.1856459365993 8.080893545574416 6.0
vertex 1141.1856459365983 8.080893545575476 6.0
endloop
endfacet
facet normal 0.0 0.0 -1.0
outer loop
vertex 1136.186830249811 -6.3709863966976625 6.0
vertex 1141.1856459365977 -8.119106454424575 6.0
vertex 1136.1856459365983 -8.119106454425047 6.0
endloop
endfacet
facet normal 0.0 0.0 -1.0
outer loop
vertex 1141.1856459365977 -8.119106454424575 6.0
vertex 1136.186830249811 -6.3709863966976625 6.0
vertex 1141.1868303941687 -6.370986396697665 6.0
endloop
endfacet
facet normal -0.0 -0.0 1.0
outer loop
vertex 1142.7176976624123 -6.370986396697667 6.0
vertex 1141.1874449301058 -5.464003635679497 6.0
vertex 1141.1868303941687 -6.370986396697665 6.0
endloop
endfacet
facet normal -0.0 -0.0 1.0
outer loop
vertex 1141.1874449301058 -5.464003635679497 6.0
vertex 1142.7176976624123 -6.370986396697667 6.0
vertex 1141.7206134645307 -5.175055685588189 6.0
endloop
endfacet
facet normal -0.0 -0.0 1.0
outer loop
vertex 1141.7206134645307 -5.175055685588189 6.0
vertex 1142.7176976624123 -6.370986396697667 6.0
vertex 1142.2235302676268 -4.836183595963273 6.0
endloop
endfacet
facet normal -0.0 -0.0 1.0
outer loop
vertex 1142.2235302676268 -4.836183595963273 6.0
vertex 1142.7176976624123 -6.370986396697667 6.0
vertex 1142.6915354128541 -4.450527287829535 6.0
endloop
endfacet
facet normal -0.0 -0.0 1.0
outer loop
vertex 1142.6915354128541 -4.450527287829535 6.0
vertex 1142.7176976624123 -6.370986396697667 6.0
vertex 1143.1202924581157 -4.021660175425974 6.0
endloop
endfacet
facet normal -0.0 -0.0 1.0
outer loop
vertex 1143.1202924581157 -4.021660175425974 6.0
vertex 1142.7176976624123 -6.370986396697667 6.0
vertex 1144.9423025933688 -2.517857629512801 6.0
endloop
endfacet
facet normal -0.0 -0.0 1.0
outer loop
vertex 1143.1202924581157 -4.021660175425974 6.0
vertex 1144.9423025933688 -2.517857629512801 6.0
vertex 1143.5058286263602 -3.553556055663888 6.0
endloop
endfacet
facet normal -0.0 -0.0 1.0
outer loop
vertex 1143.5058286263602 -3.553556055663888 6.0
vertex 1144.9423025933688 -2.517857629512801 6.0
vertex 1143.8445716165406 -3.0505522877193196 6.0
endloop
endfacet
facet normal -0.0 -0.0 1.0
outer loop
vertex 1143.8445716165406 -3.0505522877193196 6.0
vertex 1144.9423025933688 -2.517857629512801 6.0
vertex 1144.133382703842 -2.517309603930177 6.0
endloop
endfacet
facet normal -0.8660254037844384 -0.5000000000000006 -1.646074434005558e-17
outer loop
vertex 1145.2064446273164 2.481963550429243 12.0
vertex 1146.5176976624123 0.2108066720641359 6.0
vertex 1146.5176976624123 0.2108066720641359 11.999999999999995
endloop
endfacet
facet normal -0.8660254037844384 -0.5000000000000006 -1.646074434005558e-17
outer loop
vertex 1146.5176976624123 0.2108066720641359 6.0
vertex 1145.2064446273164 2.481963550429243 12.0
vertex 1145.2064446273164 2.481963550429243 6.0
endloop
endfacet
facet normal -0.8660254037844384 -0.5000000000000006 -1.646074434005558e-17
outer loop
vertex 1145.2064446273164 2.481963550429243 6.0
vertex 1145.2064446273164 2.481963550429243 12.0
vertex 1142.7176976624123 6.792599740825936 12.0
endloop
endfacet
facet normal -0.8660254037844384 -0.5000000000000006 -1.646074434005558e-17
outer loop
vertex 1145.2064446273164 2.481963550429243 6.0
vertex 1142.7176976624123 6.792599740825936 12.0
vertex 1142.7176976624123 6.792599740825936 6.0
endloop
endfacet
facet normal 0.0 -1.0 0.0
outer loop
vertex 1142.7176976624123 6.792599740825936 12.0
vertex 1141.1847731456435 6.792599740825936 6.0
vertex 1142.7176976624123 6.792599740825936 6.0
endloop
endfacet
facet normal 0.0 -1.0 0.0
outer loop
vertex 1141.1847731456435 6.792599740825936 6.0
vertex 1142.7176976624123 6.792599740825936 12.0
vertex 1136.1847730392578 6.792599740825936 6.0
endloop
endfacet
facet normal 0.0 -1.0 0.0
outer loop
vertex 1136.1847730392578 6.792599740825936 6.0
vertex 1142.7176976624123 6.792599740825936 12.0
vertex 1135.1176976624122 6.792599740825936 6.0
endloop
endfacet
facet normal 0.0 -1.0 0.0
outer loop
vertex 1135.1176976624122 6.792599740825936 6.0
vertex 1142.7176976624123 6.792599740825936 12.0
vertex 1135.1176976624122 6.792599740825936 12.0
endloop
endfacet
facet normal 0.0 -1.0 0.0
outer loop
vertex 1135.1176976624122 6.792599740825936 12.0
vertex 1142.7176976624123 6.792599740825936 12.0
vertex 1141.1847731456435 6.792599740825936 12.0
endloop
endfacet
facet normal 0.0 -1.0 0.0
outer loop
vertex 1135.1176976624122 6.792599740825936 12.0
vertex 1141.1847731456435 6.792599740825936 12.0
vertex 1136.1847730392578 6.792599740825936 12.0
endloop
endfacet
facet normal 0.866025403784438 0.5000000000000011 -0.0
outer loop
vertex 1132.8947170261258 -2.520670990408078 6.0
vertex 1135.1176976624122 -6.370986396697662 12.0
vertex 1135.1176976624122 -6.370986396697662 6.0
endloop
endfacet
facet normal 0.866025403784438 0.5000000000000011 -0.0
outer loop
vertex 1135.1176976624122 -6.370986396697662 12.0
vertex 1132.8947170261258 -2.520670990408078 6.0
vertex 1132.8947170261258 -2.520670990408078 12.0
endloop
endfacet
facet normal 0.866025403784438 0.5000000000000011 -0.0
outer loop
vertex 1132.8947170261258 -2.520670990408078 12.0
vertex 1132.8947170261258 -2.520670990408078 6.0
vertex 1131.317697662412 0.2108066720641368 6.0
endloop
endfacet
facet normal 0.866025403784438 0.5000000000000011 -0.0
outer loop
vertex 1132.8947170261258 -2.520670990408078 12.0
vertex 1131.317697662412 0.2108066720641368 6.0
vertex 1131.317697662412 0.2108066720641368 12.0
endloop
endfacet
endsolid newXgantryHP
