solid newXgantryHP
facet normal 1.0 2.3120394487818885e-14 -1.4374524807324124e-28
outer loop
vertex 754.0384056362976 47.02040660185004 24.750000000000007
vertex 754.0384056362979 41.02040660185014 30.750000000000018
vertex 754.0384056362979 41.02040660185005 24.750000000000043
endloop
endfacet
facet normal 1.0 2.3120394487818885e-14 -1.4374524807324124e-28
outer loop
vertex 754.0384056362979 41.02040660185014 30.750000000000018
vertex 754.0384056362976 47.02040660185004 24.750000000000007
vertex 754.0384056362976 47.02040660185013 30.74999999999999
endloop
endfacet
facet normal -1.0 -2.3120394487818885e-14 1.4374524807324124e-28
outer loop
vertex 757.0384056362979 41.020406601850205 30.750000000000018
vertex 757.0384056362975 47.020406601850105 24.750000000000007
vertex 757.0384056362979 41.02040660185012 24.750000000000043
endloop
endfacet
facet normal -1.0 -2.3120394487818885e-14 1.4374524807324124e-28
outer loop
vertex 757.0384056362975 47.020406601850105 24.750000000000007
vertex 757.0384056362979 41.020406601850205 30.750000000000018
vertex 757.0384056362975 47.0204066018502 30.74999999999999
endloop
endfacet
facet normal -0.6726727939962982 -2.0404558371218987e-14 -0.7399400733959567
outer loop
vertex 751.2884056362977 41.020406601850034 27.250000000000036
vertex 754.0384056362976 47.02040660185004 24.750000000000007
vertex 754.0384056362979 41.02040660185005 24.750000000000043
endloop
endfacet
facet normal -0.6726727939962982 -2.0404558371218987e-14 -0.7399400733959567
outer loop
vertex 754.0384056362976 47.02040660185004 24.750000000000007
vertex 751.2884056362977 41.020406601850034 27.250000000000036
vertex 751.2884056362975 47.02040660185001 27.249999999999996
endloop
endfacet
facet normal 0.6726727939962982 1.0700362345616493e-14 -0.7399400733959567
outer loop
vertex 757.0384056362979 41.02040660185012 24.750000000000043
vertex 759.7884056362976 47.020406601850205 27.249999999999996
vertex 759.7884056362979 41.02040660185022 27.250000000000036
endloop
endfacet
facet normal 0.6726727939962982 1.0700362345616493e-14 -0.7399400733959567
outer loop
vertex 759.7884056362976 47.020406601850205 27.249999999999996
vertex 757.0384056362979 41.02040660185012 24.750000000000043
vertex 757.0384056362975 47.020406601850105 24.750000000000007
endloop
endfacet
facet normal -0.258819045102512 -1.1989399741317419e-14 -0.9659258262890706
outer loop
vertex 756.0560437265032 35.02040660185023 36.68185165257821
vertex 756.5384056362976 47.02040660185016 36.48205080756891
vertex 756.5384056362981 35.02040660185024 36.48205080756895
endloop
endfacet
facet normal -0.5000000000000169 -1.6944492765783752e-14 -0.8660254037844289
outer loop
vertex 756.5384056362976 47.02040660185016 36.48205080756891
vertex 756.0560437265032 35.02040660185023 36.68185165257821
vertex 756.0560437265027 47.020406601850155 36.68185165257817
endloop
endfacet
facet normal -0.5000000000000144 -1.6944492765783708e-14 -0.8660254037844304
outer loop
vertex 756.5384056362981 35.02040660185024 36.48205080756895
vertex 756.9526191986707 47.02040660185021 36.16421356237313
vertex 756.9526191986712 35.02040660185026 36.16421356237316
endloop
endfacet
facet normal -0.7071067811865709 -2.0744846610359773e-14 -0.7071067811865243
outer loop
vertex 756.9526191986707 47.02040660185021 36.16421356237313
vertex 756.5384056362981 35.02040660185024 36.48205080756895
vertex 756.5384056362976 47.02040660185016 36.48205080756891
endloop
endfacet
facet normal -1.0 -2.312039448781889e-14 -3.6535550572135843e-16
outer loop
vertex 757.5384056362976 47.02040660185018 34.750000000000036
vertex 757.4702572888763 35.02040660185026 34.23236190979503
vertex 757.5384056362981 35.02040660185026 34.75000000000008
endloop
endfacet
facet normal -0.9659258262890676 -2.0723443716503473e-14 0.2588190451025238
outer loop
vertex 757.4702572888763 35.02040660185026 34.23236190979503
vertex 757.5384056362976 47.02040660185018 34.750000000000036
vertex 757.4702572888758 47.02040660185021 34.232361909794996
endloop
endfacet
facet normal 1.0 2.312039448781885e-14 -5.8991547509181374e-15
outer loop
vertex 753.5384056362981 35.02040660185016 34.75000000000008
vertex 753.6065539837194 47.02040660185013 35.267638090205075
vertex 753.6065539837199 35.0204066018501 35.26763809020511
endloop
endfacet
facet normal 0.9659258262890674 2.0723443716503466e-14 -0.25881904510252457
outer loop
vertex 753.6065539837194 47.02040660185013 35.267638090205075
vertex 753.5384056362981 35.02040660185016 34.75000000000008
vertex 753.5384056362976 47.020406601850084 34.750000000000036
endloop
endfacet
facet normal 0.9659258262890674 2.0723443716503466e-14 -0.25881904510252457
outer loop
vertex 753.6065539837194 47.02040660185013 35.267638090205075
vertex 753.8063548287291 35.02040660185018 35.75000000000008
vertex 753.6065539837199 35.0204066018501 35.26763809020511
endloop
endfacet
facet normal 0.8660254037844292 1.6914224503018097e-14 -0.5000000000000168
outer loop
vertex 753.8063548287291 35.02040660185018 35.75000000000008
vertex 753.6065539837194 47.02040660185013 35.267638090205075
vertex 753.8063548287288 47.0204066018501 35.750000000000036
endloop
endfacet
facet normal 0.866025403784426 1.6914224503017993e-14 -0.5000000000000221
outer loop
vertex 753.8063548287288 47.0204066018501 35.750000000000036
vertex 754.124192073925 35.0204066018502 36.16421356237316
vertex 753.8063548287291 35.02040660185018 35.75000000000008
endloop
endfacet
facet normal 0.7071067811865702 1.1952328841730902e-14 -0.7071067811865248
outer loop
vertex 754.124192073925 35.0204066018502 36.16421356237316
vertex 753.8063548287288 47.0204066018501 35.750000000000036
vertex 754.1241920739245 47.02040660185015 36.16421356237313
endloop
endfacet
facet normal 0.7071067811865702 1.1952328841730902e-14 -0.7071067811865248
outer loop
vertex 754.124192073925 35.0204066018502 36.16421356237316
vertex 754.5384056362975 47.02040660185012 36.48205080756891
vertex 754.538405636298 35.0204066018502 36.48205080756895
endloop
endfacet
facet normal 0.5000000000000174 6.175901722035928e-15 -0.8660254037844286
outer loop
vertex 754.5384056362975 47.02040660185012 36.48205080756891
vertex 754.124192073925 35.0204066018502 36.16421356237316
vertex 754.1241920739245 47.02040660185015 36.16421356237313
endloop
endfacet
facet normal -1.334777303537219e-29 6.794564910705949e-15 1.0
outer loop
vertex 752.6384056362976 47.02040660185005 27.249999999999996
vertex 751.2884056362977 41.020406601850034 27.250000000000036
vertex 752.6384056362979 41.02040660185006 27.25000000000003
endloop
endfacet
facet normal -1.334777303537219e-29 6.794564910705949e-15 1.0
outer loop
vertex 751.2884056362977 41.020406601850034 27.250000000000036
vertex 752.6384056362976 47.02040660185005 27.249999999999996
vertex 751.2884056362975 47.02040660185001 27.249999999999996
endloop
endfacet
facet normal -0.8660254037844228 -1.6914224503017883e-14 0.5000000000000278
outer loop
vertex 757.2704564438669 35.020406601850254 33.75000000000008
vertex 756.9526191986707 47.02040660185019 33.335786437626936
vertex 756.9526191986712 35.020406601850155 33.33578643762698
endloop
endfacet
facet normal -0.7071067811865711 -1.1952328841730929e-14 0.7071067811865239
outer loop
vertex 756.9526191986707 47.02040660185019 33.335786437626936
vertex 757.2704564438669 35.020406601850254 33.75000000000008
vertex 757.2704564438665 47.02040660185016 33.750000000000036
endloop
endfacet
facet normal -0.7071067811865711 -1.1952328841730929e-14 0.7071067811865239
outer loop
vertex 756.9526191986707 47.02040660185019 33.335786437626936
vertex 756.5384056362981 35.02040660185022 33.017949192431196
vertex 756.9526191986712 35.020406601850155 33.33578643762698
endloop
endfacet
facet normal -0.5000000000000197 -6.175901722035987e-15 0.8660254037844275
outer loop
vertex 756.5384056362981 35.02040660185022 33.017949192431196
vertex 756.9526191986707 47.02040660185019 33.335786437626936
vertex 756.5384056362976 47.02040660185014 33.01794919243116
endloop
endfacet
facet normal -0.5000000000000165 -6.1759017220359046e-15 0.8660254037844293
outer loop
vertex 756.5384056362976 47.02040660185014 33.01794919243116
vertex 756.0560437265032 35.020406601850205 32.81814834742193
vertex 756.5384056362981 35.02040660185022 33.017949192431196
endloop
endfacet
facet normal -0.2588190451025127 2.1402893856069045e-17 0.9659258262890706
outer loop
vertex 756.0560437265032 35.020406601850205 32.81814834742193
vertex 756.5384056362976 47.02040660185014 33.01794919243116
vertex 756.0560437265027 47.02040660185013 32.8181483474219
endloop
endfacet
facet normal -0.2588190451025081 2.1402893856182635e-17 0.9659258262890716
outer loop
vertex 756.0560437265027 47.02040660185013 32.8181483474219
vertex 755.5384056362981 35.020406601850205 32.75000000000007
vertex 756.0560437265032 35.020406601850205 32.81814834742193
endloop
endfacet
facet normal -6.237776926952744e-16 6.217248937900862e-15 1.0
outer loop
vertex 755.5384056362981 35.020406601850205 32.75000000000007
vertex 756.0560437265027 47.02040660185013 32.8181483474219
vertex 755.5384056362976 47.020406601850155 32.750000000000036
endloop
endfacet
facet normal 0.5000000000000131 6.175901722035813e-15 -0.8660254037844312
outer loop
vertex 754.538405636298 35.0204066018502 36.48205080756895
vertex 755.0207675460925 47.02040660185013 36.68185165257817
vertex 755.020767546093 35.020406601850205 36.68185165257821
endloop
endfacet
facet normal 0.2588190451025092 -2.140289385615582e-17 -0.9659258262890715
outer loop
vertex 755.0207675460925 47.02040660185013 36.68185165257817
vertex 754.538405636298 35.0204066018502 36.48205080756895
vertex 754.5384056362975 47.02040660185012 36.48205080756891
endloop
endfacet
facet normal -0.9659258262890672 -2.3941728583047844e-14 -0.25881904510252496
outer loop
vertex 757.4702572888758 47.02040660185022 35.267638090205075
vertex 757.5384056362981 35.02040660185026 34.75000000000008
vertex 757.4702572888763 35.02040660185019 35.26763809020511
endloop
endfacet
facet normal -1.0 -2.3120394487818926e-14 -6.166488047787254e-15
outer loop
vertex 757.5384056362981 35.02040660185026 34.75000000000008
vertex 757.4702572888758 47.02040660185022 35.267638090205075
vertex 757.5384056362976 47.02040660185018 34.750000000000036
endloop
endfacet
facet normal -0.7071067811865709 -2.0744846610359773e-14 -0.7071067811865243
outer loop
vertex 756.9526191986707 47.02040660185021 36.16421356237313
vertex 757.2704564438669 35.02040660185026 35.75000000000008
vertex 756.9526191986712 35.02040660185026 36.16421356237316
endloop
endfacet
facet normal -0.8660254037844296 -2.3131473440919188e-14 -0.500000000000016
outer loop
vertex 757.2704564438669 35.02040660185026 35.75000000000008
vertex 756.9526191986707 47.02040660185021 36.16421356237313
vertex 757.2704564438665 47.020406601850176 35.750000000000036
endloop
endfacet
facet normal -0.9659258262890673 -2.0723443716503466e-14 0.25881904510252446
outer loop
vertex 757.4702572888758 47.02040660185021 34.232361909794996
vertex 757.2704564438669 35.020406601850254 33.75000000000008
vertex 757.4702572888763 35.02040660185026 34.23236190979503
endloop
endfacet
facet normal -0.8660254037844228 -1.6914224503017883e-14 0.5000000000000278
outer loop
vertex 757.2704564438669 35.020406601850254 33.75000000000008
vertex 757.4702572888758 47.02040660185021 34.232361909794996
vertex 757.2704564438665 47.02040660185016 33.750000000000036
endloop
endfacet
facet normal 0.25881904510251025 -2.1402893856128203e-17 -0.9659258262890711
outer loop
vertex 755.020767546093 35.020406601850205 36.68185165257821
vertex 755.5384056362976 47.020406601850176 36.750000000000036
vertex 755.5384056362981 35.02040660185021 36.75000000000007
endloop
endfacet
facet normal 2.940666265563598e-16 -6.2172489379008695e-15 -1.0
outer loop
vertex 755.5384056362976 47.020406601850176 36.750000000000036
vertex 755.020767546093 35.020406601850205 36.68185165257821
vertex 755.0207675460925 47.02040660185013 36.68185165257817
endloop
endfacet
facet normal -9.62399868729871e-16 -6.217248937900899e-15 -1.0
outer loop
vertex 755.5384056362981 35.02040660185021 36.75000000000007
vertex 756.0560437265027 47.020406601850155 36.68185165257817
vertex 756.0560437265032 35.02040660185023 36.68185165257821
endloop
endfacet
facet normal -0.2588190451025085 -1.1989399741317343e-14 -0.9659258262890715
outer loop
vertex 756.0560437265027 47.020406601850155 36.68185165257817
vertex 755.5384056362981 35.02040660185021 36.75000000000007
vertex 755.5384056362976 47.020406601850176 36.750000000000036
endloop
endfacet
facet normal -1.334777303537219e-29 6.794564910705949e-15 1.0
outer loop
vertex 759.7884056362976 47.020406601850205 27.249999999999996
vertex 758.4384056362977 41.02040660185018 27.250000000000036
vertex 759.7884056362979 41.02040660185022 27.250000000000036
endloop
endfacet
facet normal -1.334777303537219e-29 6.794564910705949e-15 1.0
outer loop
vertex 758.4384056362977 41.02040660185018 27.250000000000036
vertex 759.7884056362976 47.020406601850205 27.249999999999996
vertex 758.4384056362975 47.020406601850176 27.249999999999996
endloop
endfacet
facet normal -0.8660254037844296 -2.3131473440919188e-14 -0.500000000000016
outer loop
vertex 757.2704564438669 35.02040660185026 35.75000000000008
vertex 757.4702572888758 47.02040660185022 35.267638090205075
vertex 757.4702572888763 35.02040660185019 35.26763809020511
endloop
endfacet
facet normal -0.9659258262890672 -2.3941728583047844e-14 -0.25881904510252496
outer loop
vertex 757.4702572888758 47.02040660185022 35.267638090205075
vertex 757.2704564438669 35.02040660185026 35.75000000000008
vertex 757.2704564438665 47.020406601850176 35.750000000000036
endloop
endfacet
facet normal 6.237776926953082e-16 6.217248937900891e-15 1.0
outer loop
vertex 755.5384056362976 47.020406601850155 32.750000000000036
vertex 755.020767546093 35.02040660185018 32.81814834742193
vertex 755.5384056362981 35.020406601850205 32.75000000000007
endloop
endfacet
facet normal 0.25881904510251214 1.1989399741317422e-14 0.9659258262890706
outer loop
vertex 755.020767546093 35.02040660185018 32.81814834742193
vertex 755.5384056362976 47.020406601850155 32.750000000000036
vertex 755.0207675460925 47.020406601850105 32.8181483474219
endloop
endfacet
facet normal 0.25881904510250997 1.1989399741317374e-14 0.9659258262890712
outer loop
vertex 755.0207675460925 47.020406601850105 32.8181483474219
vertex 754.538405636298 35.020406601850176 33.017949192431196
vertex 755.020767546093 35.02040660185018 32.81814834742193
endloop
endfacet
facet normal 0.5000000000000188 1.694449276578379e-14 0.8660254037844278
outer loop
vertex 754.538405636298 35.020406601850176 33.017949192431196
vertex 755.0207675460925 47.020406601850105 32.8181483474219
vertex 754.5384056362975 47.0204066018501 33.01794919243116
endloop
endfacet
facet normal 0.500000000000018 1.6944492765783774e-14 0.8660254037844283
outer loop
vertex 754.5384056362975 47.0204066018501 33.01794919243116
vertex 754.124192073925 35.0204066018501 33.33578643762698
vertex 754.538405636298 35.020406601850176 33.017949192431196
endloop
endfacet
facet normal 0.7071067811865706 2.0744846610359766e-14 0.7071067811865246
outer loop
vertex 754.124192073925 35.0204066018501 33.33578643762698
vertex 754.5384056362975 47.0204066018501 33.01794919243116
vertex 754.1241920739245 47.02040660185013 33.335786437626936
endloop
endfacet
facet normal 0.707106781186572 2.074484661035979e-14 0.707106781186523
outer loop
vertex 754.1241920739245 47.02040660185013 33.335786437626936
vertex 753.8063548287291 35.020406601850176 33.75000000000008
vertex 754.124192073925 35.0204066018501 33.33578643762698
endloop
endfacet
facet normal 0.8660254037844227 2.31314734409191e-14 0.5000000000000275
outer loop
vertex 753.8063548287291 35.020406601850176 33.75000000000008
vertex 754.1241920739245 47.02040660185013 33.335786437626936
vertex 753.8063548287288 47.020406601850084 33.75000000000004
endloop
endfacet
facet normal 0.8660254037844265 2.313147344091915e-14 0.5000000000000212
outer loop
vertex 753.8063548287288 47.020406601850084 33.75000000000004
vertex 753.6065539837199 35.020406601850176 34.23236190979503
vertex 753.8063548287291 35.020406601850176 33.75000000000008
endloop
endfacet
facet normal 0.9659258262890675 2.3941728583047847e-14 0.25881904510252424
outer loop
vertex 753.6065539837199 35.020406601850176 34.23236190979503
vertex 753.8063548287288 47.020406601850084 33.75000000000004
vertex 753.6065539837194 47.02040660185013 34.232361909794996
endloop
endfacet
facet normal 0.9659258262890675 2.3941728583047847e-14 0.25881904510252424
outer loop
vertex 753.6065539837199 35.020406601850176 34.23236190979503
vertex 753.5384056362976 47.020406601850084 34.750000000000036
vertex 753.5384056362981 35.02040660185016 34.75000000000008
endloop
endfacet
facet normal 1.0 2.3120394487818888e-14 -1.0693331874790062e-16
outer loop
vertex 753.5384056362976 47.020406601850084 34.750000000000036
vertex 753.6065539837199 35.020406601850176 34.23236190979503
vertex 753.6065539837194 47.02040660185013 34.232361909794996
endloop
endfacet
facet normal 2.479401515359874e-14 -1.0 1.3263697101927454e-14
outer loop
vertex 757.0384056362979 41.020406601850205 30.750000000000018
vertex 758.4384056362977 41.02040660185018 27.250000000000036
vertex 758.4384056362977 41.020406601850226 30.75000000000002
endloop
endfacet
facet normal 2.479401515359874e-14 -1.0 1.3263697101927454e-14
outer loop
vertex 758.4384056362977 41.02040660185018 27.250000000000036
vertex 757.0384056362979 41.020406601850205 30.750000000000018
vertex 757.0384056362979 41.02040660185012 24.750000000000043
endloop
endfacet
facet normal 2.479401515359874e-14 -1.0 1.3263697101927454e-14
outer loop
vertex 758.4384056362977 41.02040660185018 27.250000000000036
vertex 757.0384056362979 41.02040660185012 24.750000000000043
vertex 759.7884056362979 41.02040660185022 27.250000000000036
endloop
endfacet
facet normal 1.0 3.007964248051093e-14 -2.255973186038306e-14
outer loop
vertex 759.038405636298 35.02040660185025 30.750000000000046
vertex 759.0384056362976 47.02040660185021 34.75000000000002
vertex 759.0384056362981 35.02040660185026 34.750000000000064
endloop
endfacet
facet normal 1.0 3.007964248051093e-14 -2.255973186038306e-14
outer loop
vertex 759.0384056362976 47.02040660185021 34.75000000000002
vertex 759.038405636298 35.02040660185025 30.750000000000046
vertex 759.0384056362975 47.0204066018502 30.74999999999999
endloop
endfacet
facet normal -2.3120394487818847e-14 1.0 -5.536329509637092e-15
outer loop
vertex 757.0384056362975 47.020406601850105 24.750000000000007
vertex 758.4384056362975 47.020406601850176 27.249999999999996
vertex 759.7884056362976 47.020406601850205 27.249999999999996
endloop
endfacet
facet normal -2.3120394487818847e-14 1.0 -5.536329509637092e-15
outer loop
vertex 758.5694945495432 47.02040660185022 36.49999999999993
vertex 755.5384056362976 47.020406601850176 36.750000000000036
vertex 758.315142327317 47.020406601850226 36.88066500153045
endloop
endfacet
facet normal -2.3120394487818847e-14 1.0 -5.536329509637092e-15
outer loop
vertex 755.5384056362976 47.020406601850176 36.750000000000036
vertex 758.5694945495432 47.02040660185022 36.49999999999993
vertex 756.0560437265027 47.020406601850155 36.68185165257817
endloop
endfacet
facet normal -2.3120394487818847e-14 1.0 -5.536329509637092e-15
outer loop
vertex 756.0560437265027 47.020406601850155 36.68185165257817
vertex 758.5694945495432 47.02040660185022 36.49999999999993
vertex 756.5384056362976 47.02040660185016 36.48205080756891
endloop
endfacet
facet normal -2.3120394487818847e-14 1.0 -5.536329509637092e-15
outer loop
vertex 756.5384056362976 47.02040660185016 36.48205080756891
vertex 758.5694945495432 47.02040660185022 36.49999999999993
vertex 758.7719840000871 47.02040660185023 36.08939201327774
endloop
endfacet
facet normal -2.3120394487818847e-14 1.0 -5.536329509637092e-15
outer loop
vertex 756.5384056362976 47.02040660185016 36.48205080756891
vertex 758.7719840000871 47.02040660185023 36.08939201327774
vertex 756.9526191986707 47.02040660185021 36.16421356237313
endloop
endfacet
facet normal -2.3120394487818847e-14 1.0 -5.536329509637092e-15
outer loop
vertex 756.9526191986707 47.02040660185021 36.16421356237313
vertex 758.7719840000871 47.02040660185023 36.08939201327774
vertex 757.2704564438665 47.020406601850176 35.750000000000036
endloop
endfacet
facet normal -2.3120394487818847e-14 1.0 -5.536329509637092e-15
outer loop
vertex 757.2704564438665 47.020406601850176 35.750000000000036
vertex 758.7719840000871 47.02040660185023 36.08939201327774
vertex 758.9191460283093 47.02040660185021 35.655866657858745
endloop
endfacet
facet normal -2.3120394487818847e-14 1.0 -5.536329509637092e-15
outer loop
vertex 757.2704564438665 47.020406601850176 35.750000000000036
vertex 758.9191460283093 47.02040660185021 35.655866657858745
vertex 757.4702572888758 47.02040660185022 35.267638090205075
endloop
endfacet
facet normal -2.3120394487818847e-14 1.0 -5.536329509637092e-15
outer loop
vertex 757.4702572888758 47.02040660185022 35.267638090205075
vertex 758.9191460283093 47.02040660185021 35.655866657858745
vertex 759.008462651106 47.02040660185023 35.2068416727701
endloop
endfacet
facet normal -2.3120394487818847e-14 1.0 -5.536329509637092e-15
outer loop
vertex 757.4702572888758 47.02040660185022 35.267638090205075
vertex 759.008462651106 47.02040660185023 35.2068416727701
vertex 757.5384056362976 47.02040660185018 34.750000000000036
endloop
endfacet
facet normal -2.3120394487818847e-14 1.0 -5.536329509637092e-15
outer loop
vertex 757.5384056362976 47.02040660185018 34.750000000000036
vertex 759.008462651106 47.02040660185023 35.2068416727701
vertex 759.0384056362976 47.02040660185021 34.75000000000002
endloop
endfacet
facet normal -2.3120394487818847e-14 1.0 -5.536329509637092e-15
outer loop
vertex 757.5384056362976 47.02040660185018 34.750000000000036
vertex 759.0384056362976 47.02040660185021 34.75000000000002
vertex 757.4702572888758 47.02040660185021 34.232361909794996
endloop
endfacet
facet normal -2.3120394487818847e-14 1.0 -5.536329509637092e-15
outer loop
vertex 757.4702572888758 47.02040660185021 34.232361909794996
vertex 759.0384056362976 47.02040660185021 34.75000000000002
vertex 759.0384056362975 47.0204066018502 30.74999999999999
endloop
endfacet
facet normal -2.3120394487818847e-14 1.0 -5.536329509637092e-15
outer loop
vertex 757.4702572888758 47.02040660185021 34.232361909794996
vertex 759.0384056362975 47.0204066018502 30.74999999999999
vertex 757.2704564438665 47.02040660185016 33.750000000000036
endloop
endfacet
facet normal -2.3120394487818847e-14 1.0 -5.536329509637092e-15
outer loop
vertex 757.2704564438665 47.02040660185016 33.750000000000036
vertex 759.0384056362975 47.0204066018502 30.74999999999999
vertex 756.9526191986707 47.02040660185019 33.335786437626936
endloop
endfacet
facet normal -2.3120394487818847e-14 1.0 -5.536329509637092e-15
outer loop
vertex 756.9526191986707 47.02040660185019 33.335786437626936
vertex 759.0384056362975 47.0204066018502 30.74999999999999
vertex 756.5384056362976 47.02040660185014 33.01794919243116
endloop
endfacet
facet normal -2.3120394487818847e-14 1.0 -5.536329509637092e-15
outer loop
vertex 756.5384056362976 47.02040660185014 33.01794919243116
vertex 759.0384056362975 47.0204066018502 30.74999999999999
vertex 756.0560437265027 47.02040660185013 32.8181483474219
endloop
endfacet
facet normal -2.3120394487818847e-14 1.0 -5.536329509637092e-15
outer loop
vertex 756.0560437265027 47.02040660185013 32.8181483474219
vertex 759.0384056362975 47.0204066018502 30.74999999999999
vertex 755.5384056362976 47.020406601850155 32.750000000000036
endloop
endfacet
facet normal -2.3120394487818847e-14 1.0 -5.536329509637092e-15
outer loop
vertex 755.5384056362976 47.020406601850155 32.750000000000036
vertex 759.0384056362975 47.0204066018502 30.74999999999999
vertex 757.0384056362975 47.0204066018502 30.74999999999999
endloop
endfacet
facet normal -2.3120394487818847e-14 1.0 -5.536329509637092e-15
outer loop
vertex 757.0384056362975 47.0204066018502 30.74999999999999
vertex 759.0384056362975 47.0204066018502 30.74999999999999
vertex 758.4384056362975 47.02040660185018 30.74999999999999
endloop
endfacet
facet normal -2.3120394487818847e-14 1.0 -5.536329509637092e-15
outer loop
vertex 757.0384056362975 47.0204066018502 30.74999999999999
vertex 758.4384056362975 47.02040660185018 30.74999999999999
vertex 757.0384056362975 47.020406601850105 24.750000000000007
endloop
endfacet
facet normal -2.3120394487818847e-14 1.0 -5.536329509637092e-15
outer loop
vertex 757.0384056362975 47.020406601850105 24.750000000000007
vertex 758.4384056362975 47.02040660185018 30.74999999999999
vertex 758.4384056362975 47.020406601850176 27.249999999999996
endloop
endfacet
facet normal -2.3120394487818847e-14 1.0 -5.536329509637092e-15
outer loop
vertex 755.9952473090677 47.02040660185018 38.22005701480828
vertex 755.0815639635274 47.02040660185016 38.2200570148083
vertex 755.5384056362976 47.020406601850176 38.24999999999995
endloop
endfacet
facet normal -2.3120394487818847e-14 1.0 -5.536329509637092e-15
outer loop
vertex 755.0815639635274 47.02040660185016 38.2200570148083
vertex 755.9952473090677 47.02040660185018 38.22005701480828
vertex 754.6325389784387 47.020406601850155 38.130740392011695
endloop
endfacet
facet normal -2.3120394487818847e-14 1.0 -5.536329509637092e-15
outer loop
vertex 754.6325389784387 47.020406601850155 38.130740392011695
vertex 755.9952473090677 47.02040660185018 38.22005701480828
vertex 756.4442722941565 47.020406601850205 38.13074039201168
endloop
endfacet
facet normal -2.3120394487818847e-14 1.0 -5.536329509637092e-15
outer loop
vertex 754.6325389784387 47.020406601850155 38.130740392011695
vertex 756.4442722941565 47.020406601850205 38.13074039201168
vertex 754.1990136230198 47.02040660185014 37.98357836378947
endloop
endfacet
facet normal -2.3120394487818847e-14 1.0 -5.536329509637092e-15
outer loop
vertex 754.1990136230198 47.02040660185014 37.98357836378947
vertex 756.4442722941565 47.020406601850205 38.13074039201168
vertex 756.8777976495754 47.020406601850205 37.98357836378945
endloop
endfacet
facet normal -2.3120394487818847e-14 1.0 -5.536329509637092e-15
outer loop
vertex 754.1990136230198 47.02040660185014 37.98357836378947
vertex 756.8777976495754 47.020406601850205 37.98357836378945
vertex 753.7884056362975 47.02040660185013 37.7810889132455
endloop
endfacet
facet normal -2.3120394487818847e-14 1.0 -5.536329509637092e-15
outer loop
vertex 753.7884056362975 47.02040660185013 37.7810889132455
vertex 756.8777976495754 47.020406601850205 37.98357836378945
vertex 757.2884056362976 47.02040660185022 37.781088913245476
endloop
endfacet
facet normal -2.3120394487818847e-14 1.0 -5.536329509637092e-15
outer loop
vertex 753.7884056362975 47.02040660185013 37.7810889132455
vertex 757.2884056362976 47.02040660185022 37.781088913245476
vertex 753.407740634767 47.0204066018501 37.52673669101928
endloop
endfacet
facet normal -2.3120394487818847e-14 1.0 -5.536329509637092e-15
outer loop
vertex 753.407740634767 47.0204066018501 37.52673669101928
vertex 757.2884056362976 47.02040660185022 37.781088913245476
vertex 757.6690706378281 47.0204066018502 37.52673669101926
endloop
endfacet
facet normal -2.3120394487818847e-14 1.0 -5.536329509637092e-15
outer loop
vertex 753.407740634767 47.0204066018501 37.52673669101928
vertex 757.6690706378281 47.0204066018502 37.52673669101926
vertex 753.0635319021447 47.02040660185011 37.22487373415288
endloop
endfacet
facet normal -2.3120394487818847e-14 1.0 -5.536329509637092e-15
outer loop
vertex 753.0635319021447 47.02040660185011 37.22487373415288
vertex 757.6690706378281 47.0204066018502 37.52673669101926
vertex 758.0132793704505 47.020406601850226 37.22487373415285
endloop
endfacet
facet normal -2.3120394487818847e-14 1.0 -5.536329509637092e-15
outer loop
vertex 753.0635319021447 47.02040660185011 37.22487373415288
vertex 758.0132793704505 47.020406601850226 37.22487373415285
vertex 752.7616689452783 47.0204066018501 36.88066500153049
endloop
endfacet
facet normal -2.3120394487818847e-14 1.0 -5.536329509637092e-15
outer loop
vertex 752.7616689452783 47.0204066018501 36.88066500153049
vertex 758.0132793704505 47.020406601850226 37.22487373415285
vertex 758.315142327317 47.020406601850226 36.88066500153045
endloop
endfacet
facet normal -2.3120394487818847e-14 1.0 -5.536329509637092e-15
outer loop
vertex 752.7616689452783 47.0204066018501 36.88066500153049
vertex 758.315142327317 47.020406601850226 36.88066500153045
vertex 755.5384056362976 47.020406601850176 36.750000000000036
endloop
endfacet
facet normal -2.3120394487818847e-14 1.0 -5.536329509637092e-15
outer loop
vertex 752.7616689452783 47.0204066018501 36.88066500153049
vertex 755.5384056362976 47.020406601850176 36.750000000000036
vertex 752.5073167230521 47.02040660185008 36.499999999999964
endloop
endfacet
facet normal -2.3120394487818847e-14 1.0 -5.536329509637092e-15
outer loop
vertex 752.5073167230521 47.02040660185008 36.499999999999964
vertex 755.5384056362976 47.020406601850176 36.750000000000036
vertex 755.0207675460925 47.02040660185013 36.68185165257817
endloop
endfacet
facet normal -2.3120394487818847e-14 1.0 -5.536329509637092e-15
outer loop
vertex 752.5073167230521 47.02040660185008 36.499999999999964
vertex 755.0207675460925 47.02040660185013 36.68185165257817
vertex 754.5384056362975 47.02040660185012 36.48205080756891
endloop
endfacet
facet normal -2.3120394487818847e-14 1.0 -5.536329509637092e-15
outer loop
vertex 752.5073167230521 47.02040660185008 36.499999999999964
vertex 754.5384056362975 47.02040660185012 36.48205080756891
vertex 752.3048272725081 47.020406601850084 36.08939201327778
endloop
endfacet
facet normal -2.3120394487818847e-14 1.0 -5.536329509637092e-15
outer loop
vertex 752.3048272725081 47.020406601850084 36.08939201327778
vertex 754.5384056362975 47.02040660185012 36.48205080756891
vertex 754.1241920739245 47.02040660185015 36.16421356237313
endloop
endfacet
facet normal -2.3120394487818847e-14 1.0 -5.536329509637092e-15
outer loop
vertex 752.3048272725081 47.020406601850084 36.08939201327778
vertex 754.1241920739245 47.02040660185015 36.16421356237313
vertex 753.8063548287288 47.0204066018501 35.750000000000036
endloop
endfacet
facet normal -2.3120394487818847e-14 1.0 -5.536329509637092e-15
outer loop
vertex 752.3048272725081 47.020406601850084 36.08939201327778
vertex 753.8063548287288 47.0204066018501 35.750000000000036
vertex 752.1576652442858 47.02040660185007 35.65586665785878
endloop
endfacet
facet normal -2.3120394487818847e-14 1.0 -5.536329509637092e-15
outer loop
vertex 752.1576652442858 47.02040660185007 35.65586665785878
vertex 753.8063548287288 47.0204066018501 35.750000000000036
vertex 753.6065539837194 47.02040660185013 35.267638090205075
endloop
endfacet
facet normal -2.3120394487818847e-14 1.0 -5.536329509637092e-15
outer loop
vertex 752.1576652442858 47.02040660185007 35.65586665785878
vertex 753.6065539837194 47.02040660185013 35.267638090205075
vertex 752.0683486214892 47.02040660185008 35.20684167277014
endloop
endfacet
facet normal -2.3120394487818847e-14 1.0 -5.536329509637092e-15
outer loop
vertex 752.0683486214892 47.02040660185008 35.20684167277014
vertex 753.6065539837194 47.02040660185013 35.267638090205075
vertex 753.5384056362976 47.020406601850084 34.750000000000036
endloop
endfacet
facet normal -2.3120394487818847e-14 1.0 -5.536329509637092e-15
outer loop
vertex 752.0683486214892 47.02040660185008 35.20684167277014
vertex 753.5384056362976 47.020406601850084 34.750000000000036
vertex 752.0384056362976 47.02040660185005 34.750000000000036
endloop
endfacet
facet normal -2.3120394487818847e-14 1.0 -5.536329509637092e-15
outer loop
vertex 752.0384056362976 47.02040660185005 34.750000000000036
vertex 753.5384056362976 47.020406601850084 34.750000000000036
vertex 753.6065539837194 47.02040660185013 34.232361909794996
endloop
endfacet
facet normal -2.3120394487818847e-14 1.0 -5.536329509637092e-15
outer loop
vertex 752.0384056362976 47.02040660185005 34.750000000000036
vertex 753.6065539837194 47.02040660185013 34.232361909794996
vertex 752.0384056362976 47.02040660185004 30.74999999999999
endloop
endfacet
facet normal -2.3120394487818847e-14 1.0 -5.536329509637092e-15
outer loop
vertex 752.0384056362976 47.02040660185004 30.74999999999999
vertex 753.6065539837194 47.02040660185013 34.232361909794996
vertex 753.8063548287288 47.020406601850084 33.75000000000004
endloop
endfacet
facet normal -2.3120394487818847e-14 1.0 -5.536329509637092e-15
outer loop
vertex 752.0384056362976 47.02040660185004 30.74999999999999
vertex 753.8063548287288 47.020406601850084 33.75000000000004
vertex 754.1241920739245 47.02040660185013 33.335786437626936
endloop
endfacet
facet normal -2.3120394487818847e-14 1.0 -5.536329509637092e-15
outer loop
vertex 752.0384056362976 47.02040660185004 30.74999999999999
vertex 754.1241920739245 47.02040660185013 33.335786437626936
vertex 754.5384056362975 47.0204066018501 33.01794919243116
endloop
endfacet
facet normal -2.3120394487818847e-14 1.0 -5.536329509637092e-15
outer loop
vertex 752.0384056362976 47.02040660185004 30.74999999999999
vertex 754.5384056362975 47.0204066018501 33.01794919243116
vertex 755.0207675460925 47.020406601850105 32.8181483474219
endloop
endfacet
facet normal -2.3120394487818847e-14 1.0 -5.536329509637092e-15
outer loop
vertex 752.0384056362976 47.02040660185004 30.74999999999999
vertex 755.0207675460925 47.020406601850105 32.8181483474219
vertex 755.5384056362976 47.020406601850155 32.750000000000036
endloop
endfacet
facet normal -2.3120394487818847e-14 1.0 -5.536329509637092e-15
outer loop
vertex 752.0384056362976 47.02040660185004 30.74999999999999
vertex 755.5384056362976 47.020406601850155 32.750000000000036
vertex 754.0384056362976 47.02040660185013 30.74999999999999
endloop
endfacet
facet normal -2.3120394487818847e-14 1.0 -5.536329509637092e-15
outer loop
vertex 754.0384056362976 47.02040660185013 30.74999999999999
vertex 755.5384056362976 47.020406601850155 32.750000000000036
vertex 757.0384056362975 47.0204066018502 30.74999999999999
endloop
endfacet
facet normal -2.3120394487818847e-14 1.0 -5.536329509637092e-15
outer loop
vertex 752.0384056362976 47.02040660185004 30.74999999999999
vertex 754.0384056362976 47.02040660185013 30.74999999999999
vertex 752.6384056362978 47.020406601850055 30.74999999999998
endloop
endfacet
facet normal -2.3120394487818847e-14 1.0 -5.536329509637092e-15
outer loop
vertex 752.6384056362978 47.020406601850055 30.74999999999998
vertex 754.0384056362976 47.02040660185013 30.74999999999999
vertex 754.0384056362976 47.02040660185004 24.750000000000007
endloop
endfacet
facet normal -2.3120394487818847e-14 1.0 -5.536329509637092e-15
outer loop
vertex 752.6384056362978 47.020406601850055 30.74999999999998
vertex 754.0384056362976 47.02040660185004 24.750000000000007
vertex 752.6384056362976 47.02040660185005 27.249999999999996
endloop
endfacet
facet normal -2.3120394487818847e-14 1.0 -5.536329509637092e-15
outer loop
vertex 754.0384056362976 47.02040660185004 24.750000000000007
vertex 751.2884056362975 47.02040660185001 27.249999999999996
vertex 752.6384056362976 47.02040660185005 27.249999999999996
endloop
endfacet
facet normal 0.9978589232386063 2.3599105112667543e-14 0.06540312923010269
outer loop
vertex 759.0384056362981 35.02040660185026 34.750000000000064
vertex 759.008462651106 47.02040660185023 35.2068416727701
vertex 759.0084626511065 35.02040660185021 35.206841672770224
endloop
endfacet
facet normal 0.9914448613738119 2.397192930721677e-14 0.1305261922200406
outer loop
vertex 759.008462651106 47.02040660185023 35.2068416727701
vertex 759.0384056362981 35.02040660185026 34.750000000000064
vertex 759.0384056362976 47.02040660185021 34.75000000000002
endloop
endfacet
facet normal 0.9914448613738119 2.397192930721677e-14 0.1305261922200406
outer loop
vertex 759.008462651106 47.02040660185023 35.2068416727701
vertex 758.9191460283098 35.02040660185027 35.655866657858866
vertex 759.0084626511065 35.02040660185021 35.206841672770224
endloop
endfacet
facet normal 0.965925826289054 2.4410086048362163e-14 0.25881904510257453
outer loop
vertex 758.9191460283098 35.02040660185027 35.655866657858866
vertex 759.008462651106 47.02040660185023 35.2068416727701
vertex 758.9191460283093 47.02040660185021 35.655866657858745
endloop
endfacet
facet normal 0.965925826289054 2.4410086048362163e-14 0.25881904510257453
outer loop
vertex 758.9191460283098 35.02040660185027 35.655866657858866
vertex 758.7719840000871 47.02040660185023 36.08939201327774
vertex 758.7719840000875 35.02040660185026 36.08939201327786
endloop
endfacet
facet normal 0.9238795325112775 2.4432199167140505e-14 0.3826834323651125
outer loop
vertex 758.7719840000871 47.02040660185023 36.08939201327774
vertex 758.9191460283098 35.02040660185027 35.655866657858866
vertex 758.9191460283093 47.02040660185021 35.655866657858745
endloop
endfacet
facet normal 0.9238795325112775 2.4432199167140505e-14 0.3826834323651125
outer loop
vertex 758.7719840000871 47.02040660185023 36.08939201327774
vertex 758.5694945495436 35.02040660185027 36.50000000000005
vertex 758.7719840000875 35.02040660185026 36.08939201327786
endloop
endfacet
facet normal 0.866025403784441 2.4036270584283916e-14 0.49999999999999606
outer loop
vertex 758.5694945495436 35.02040660185027 36.50000000000005
vertex 758.7719840000871 47.02040660185023 36.08939201327774
vertex 758.5694945495432 47.02040660185022 36.49999999999993
endloop
endfacet
facet normal 0.866025403784441 2.4036270584283916e-14 0.49999999999999606
outer loop
vertex 758.5694945495436 35.02040660185027 36.50000000000005
vertex 758.315142327317 47.020406601850226 36.88066500153045
vertex 758.3151423273174 35.02040660185023 36.880665001530566
endloop
endfacet
facet normal 0.7933533402912247 2.3229074747616813e-14 0.6087614290087345
outer loop
vertex 758.315142327317 47.020406601850226 36.88066500153045
vertex 758.5694945495436 35.02040660185027 36.50000000000005
vertex 758.5694945495432 47.02040660185022 36.49999999999993
endloop
endfacet
facet normal 0.7933533402912247 2.3229074747616813e-14 0.6087614290087345
outer loop
vertex 758.315142327317 47.020406601850226 36.88066500153045
vertex 758.013279370451 35.02040660185026 37.224873734152965
vertex 758.3151423273174 35.02040660185023 36.880665001530566
endloop
endfacet
facet normal 0.7071067811865518 2.2024423001702096e-14 0.7071067811865434
outer loop
vertex 758.013279370451 35.02040660185026 37.224873734152965
vertex 758.315142327317 47.020406601850226 36.88066500153045
vertex 758.0132793704505 47.020406601850226 37.22487373415285
endloop
endfacet
facet normal 0.7071067811865512 2.2024423001702087e-14 0.7071067811865439
outer loop
vertex 758.0132793704505 47.020406601850226 37.22487373415285
vertex 757.6690706378286 35.020406601850254 37.52673669101938
vertex 758.013279370451 35.02040660185026 37.224873734152965
endloop
endfacet
facet normal 0.6087614290087607 2.0442927271904996e-14 0.7933533402912044
outer loop
vertex 757.6690706378286 35.020406601850254 37.52673669101938
vertex 758.0132793704505 47.020406601850226 37.22487373415285
vertex 757.6690706378281 47.0204066018502 37.52673669101926
endloop
endfacet
facet normal 0.6087614290087604 2.0442927271904993e-14 0.7933533402912046
outer loop
vertex 757.6690706378281 47.0204066018502 37.52673669101926
vertex 757.2884056362981 35.02040660185025 37.7810889132456
vertex 757.6690706378286 35.020406601850254 37.52673669101938
endloop
endfacet
facet normal 0.5000000000000064 1.8511647388634217e-14 0.8660254037844349
outer loop
vertex 757.2884056362981 35.02040660185025 37.7810889132456
vertex 757.6690706378281 47.0204066018502 37.52673669101926
vertex 757.2884056362976 47.02040660185022 37.781088913245476
endloop
endfacet
facet normal 0.5000000000000056 1.85116473886342e-14 0.8660254037844355
outer loop
vertex 757.2884056362976 47.02040660185022 37.781088913245476
vertex 756.8777976495759 35.02040660185023 37.98357836378956
vertex 757.2884056362981 35.02040660185025 37.7810889132456
endloop
endfacet
facet normal 0.3826834323650802 1.6263628086145878e-14 0.9238795325112908
outer loop
vertex 756.8777976495759 35.02040660185023 37.98357836378956
vertex 757.2884056362976 47.02040660185022 37.781088913245476
vertex 756.8777976495754 47.020406601850205 37.98357836378945
endloop
endfacet
facet normal 0.3826834323650797 1.626362808614587e-14 0.9238795325112911
outer loop
vertex 756.8777976495754 47.020406601850205 37.98357836378945
vertex 756.4442722941569 35.02040660185023 38.1307403920118
vertex 756.8777976495759 35.02040660185023 37.98357836378956
endloop
endfacet
facet normal 0.2588190451025438 1.373733359797498e-14 0.9659258262890622
outer loop
vertex 756.4442722941569 35.02040660185023 38.1307403920118
vertex 756.8777976495754 47.020406601850205 37.98357836378945
vertex 756.4442722941565 47.020406601850205 38.13074039201168
endloop
endfacet
facet normal 0.258819045102543 1.3737333597974965e-14 0.9659258262890624
outer loop
vertex 756.4442722941565 47.020406601850205 38.13074039201168
vertex 755.9952473090682 35.02040660185022 38.220057014808404
vertex 756.4442722941569 35.02040660185023 38.1307403920118
endloop
endfacet
facet normal 0.13052619222005135 1.0975989523233158e-14 0.9914448613738106
outer loop
vertex 755.9952473090682 35.02040660185022 38.220057014808404
vertex 756.4442722941565 47.020406601850205 38.13074039201168
vertex 755.9952473090677 47.02040660185018 38.22005701480828
endloop
endfacet
facet normal 0.130526192220051 1.0975989523233147e-14 0.9914448613738105
outer loop
vertex 755.9952473090677 47.02040660185018 38.22005701480828
vertex 755.5384056362981 35.020406601850205 38.25000000000007
vertex 755.9952473090682 35.02040660185022 38.220057014808404
endloop
endfacet
facet normal 1.260342821020842e-14 8.026843224630387e-15 1.0
outer loop
vertex 755.5384056362981 35.020406601850205 38.25000000000007
vertex 755.9952473090677 47.02040660185018 38.22005701480828
vertex 755.5384056362976 47.020406601850176 38.24999999999995
endloop
endfacet
facet normal 1.1979233135519484e-14 8.026843224630372e-15 1.0
outer loop
vertex 755.5384056362976 47.020406601850176 38.24999999999995
vertex 755.0815639635279 35.0204066018502 38.22005701480841
vertex 755.5384056362981 35.020406601850205 38.25000000000007
endloop
endfacet
facet normal -0.13052619222003878 4.940355412992537e-15 0.9914448613738122
outer loop
vertex 755.0815639635279 35.0204066018502 38.22005701480841
vertex 755.5384056362976 47.020406601850176 38.24999999999995
vertex 755.0815639635274 47.02040660185016 38.2200570148083
endloop
endfacet
facet normal -0.13052619222003917 4.940355412992528e-15 0.991444861373812
outer loop
vertex 755.0815639635274 47.02040660185016 38.2200570148083
vertex 754.6325389784391 35.020406601850176 38.13074039201181
vertex 755.0815639635279 35.0204066018502 38.22005701480841
endloop
endfacet
facet normal -0.2588190451025319 1.7693367505124897e-15 0.9659258262890654
outer loop
vertex 754.6325389784391 35.020406601850176 38.13074039201181
vertex 755.0815639635274 47.02040660185016 38.2200570148083
vertex 754.6325389784387 47.020406601850155 38.130740392011695
endloop
endfacet
facet normal -0.25881904510253223 1.7693367505124806e-15 0.9659258262890652
outer loop
vertex 754.6325389784387 47.020406601850155 38.130740392011695
vertex 754.1990136230203 35.02040660185017 37.98357836378959
vertex 754.6325389784391 35.020406601850176 38.13074039201181
endloop
endfacet
facet normal -0.38268343236506874 -1.4319557543202264e-15 0.9238795325112955
outer loop
vertex 754.1990136230203 35.02040660185017 37.98357836378959
vertex 754.6325389784387 47.020406601850155 38.130740392011695
vertex 754.1990136230198 47.02040660185014 37.98357836378947
endloop
endfacet
facet normal -0.38268343236506946 -1.4319557543202442e-15 0.9238795325112954
outer loop
vertex 754.1990136230198 47.02040660185014 37.98357836378947
vertex 753.788405636298 35.020406601850155 37.78108891324562
vertex 754.1990136230203 35.02040660185017 37.98357836378959
endloop
endfacet
facet normal -0.500000000000006 -4.608747099184935e-15 0.8660254037844353
outer loop
vertex 753.788405636298 35.020406601850155 37.78108891324562
vertex 754.1990136230198 47.02040660185014 37.98357836378947
vertex 753.7884056362975 47.02040660185013 37.7810889132455
endloop
endfacet
facet normal -0.5000000000000059 -4.608747099184932e-15 0.8660254037844353
outer loop
vertex 753.7884056362975 47.02040660185013 37.7810889132455
vertex 753.4077406347675 35.020406601850155 37.5267366910194
vertex 753.788405636298 35.020406601850155 37.78108891324562
endloop
endfacet
facet normal -0.6087614290087529 -7.706681503396547e-15 0.7933533402912106
outer loop
vertex 753.4077406347675 35.020406601850155 37.5267366910194
vertex 753.7884056362975 47.02040660185013 37.7810889132455
vertex 753.407740634767 47.0204066018501 37.52673669101928
endloop
endfacet
facet normal -0.6087614290087535 -7.706681503396569e-15 0.7933533402912101
outer loop
vertex 753.407740634767 47.0204066018501 37.52673669101928
vertex 753.0635319021452 35.02040660185015 37.224873734153
vertex 753.4077406347675 35.020406601850155 37.5267366910194
endloop
endfacet
facet normal -0.707106781186545 -1.0672752450387484e-14 0.7071067811865501
outer loop
vertex 753.0635319021452 35.02040660185015 37.224873734153
vertex 753.407740634767 47.0204066018501 37.52673669101928
vertex 753.0635319021447 47.02040660185011 37.22487373415288
endloop
endfacet
facet normal -0.707106781186545 -1.0672752450387484e-14 0.7071067811865501
outer loop
vertex 753.0635319021452 35.02040660185015 37.224873734153
vertex 752.7616689452783 47.0204066018501 36.88066500153049
vertex 752.7616689452788 35.020406601850105 36.8806650015306
endloop
endfacet
facet normal -0.7933533402912248 -1.345620964390703e-14 0.6087614290087342
outer loop
vertex 752.7616689452783 47.0204066018501 36.88066500153049
vertex 753.0635319021452 35.02040660185015 37.224873734153
vertex 753.0635319021447 47.02040660185011 37.22487373415288
endloop
endfacet
facet normal -0.7933533402912248 -1.345620964390703e-14 0.6087614290087342
outer loop
vertex 752.7616689452783 47.0204066018501 36.88066500153049
vertex 752.5073167230526 35.02040660185013 36.500000000000085
vertex 752.7616689452788 35.020406601850105 36.8806650015306
endloop
endfacet
facet normal -0.8660254037844382 -1.6009427359653777e-14 0.5000000000000011
outer loop
vertex 752.5073167230526 35.02040660185013 36.500000000000085
vertex 752.7616689452783 47.0204066018501 36.88066500153049
vertex 752.5073167230521 47.02040660185008 36.499999999999964
endloop
endfacet
facet normal -0.8660254037844382 -1.6009427359653777e-14 0.5000000000000011
outer loop
vertex 752.5073167230526 35.02040660185013 36.500000000000085
vertex 752.3048272725081 47.020406601850084 36.08939201327778
vertex 752.3048272725085 35.02040660185011 36.0893920132779
endloop
endfacet
facet normal -0.9238795325112764 -1.828871933462427e-14 0.3826834323651152
outer loop
vertex 752.3048272725081 47.020406601850084 36.08939201327778
vertex 752.5073167230526 35.02040660185013 36.500000000000085
vertex 752.5073167230521 47.02040660185008 36.499999999999964
endloop
endfacet
facet normal -0.9238795325112764 -1.828871933462427e-14 0.3826834323651152
outer loop
vertex 752.3048272725081 47.020406601850084 36.08939201327778
vertex 752.1576652442862 35.02040660185013 35.6558666578589
vertex 752.3048272725085 35.02040660185011 36.0893920132779
endloop
endfacet
facet normal -0.9659258262890544 -2.0255086251188523e-14 0.2588190451025727
outer loop
vertex 752.1576652442862 35.02040660185013 35.6558666578589
vertex 752.3048272725081 47.020406601850084 36.08939201327778
vertex 752.1576652442858 47.02040660185007 35.65586665785878
endloop
endfacet
facet normal -0.9659258262890544 -2.0255086251188523e-14 0.2588190451025727
outer loop
vertex 752.1576652442862 35.02040660185013 35.6558666578589
vertex 752.0683486214892 47.02040660185008 35.20684167277014
vertex 752.0683486214897 35.020406601850055 35.20684167277026
endloop
endfacet
facet normal -0.9914448613738122 -2.1881674832638986e-14 0.130526192220039
outer loop
vertex 752.0683486214892 47.02040660185008 35.20684167277014
vertex 752.1576652442862 35.02040660185013 35.6558666578589
vertex 752.1576652442858 47.02040660185007 35.65586665785878
endloop
endfacet
facet normal -0.9914448613738122 -2.1881674832638986e-14 0.130526192220039
outer loop
vertex 752.0683486214892 47.02040660185008 35.20684167277014
vertex 752.0384056362981 35.0204066018501 34.75000000000008
vertex 752.0683486214897 35.020406601850055 35.20684167277026
endloop
endfacet
facet normal -0.9978589232386065 -2.255946581300625e-14 0.06540312923009906
outer loop
vertex 752.0384056362981 35.0204066018501 34.75000000000008
vertex 752.0683486214892 47.02040660185008 35.20684167277014
vertex 752.0384056362976 47.02040660185005 34.750000000000036
endloop
endfacet
facet normal 2.2905539898672336e-14 -1.0 4.698635035875166e-15
outer loop
vertex 755.0815639635279 35.0204066018502 38.22005701480841
vertex 755.9952473090682 35.02040660185022 38.220057014808404
vertex 755.5384056362981 35.020406601850205 38.25000000000007
endloop
endfacet
facet normal 2.2905539898672336e-14 -1.0 4.698635035875166e-15
outer loop
vertex 755.9952473090682 35.02040660185022 38.220057014808404
vertex 755.0815639635279 35.0204066018502 38.22005701480841
vertex 754.6325389784391 35.020406601850176 38.13074039201181
endloop
endfacet
facet normal 2.2905539898672336e-14 -1.0 4.698635035875166e-15
outer loop
vertex 755.9952473090682 35.02040660185022 38.220057014808404
vertex 754.6325389784391 35.020406601850176 38.13074039201181
vertex 756.4442722941569 35.02040660185023 38.1307403920118
endloop
endfacet
facet normal 2.2905539898672336e-14 -1.0 4.698635035875166e-15
outer loop
vertex 756.4442722941569 35.02040660185023 38.1307403920118
vertex 754.6325389784391 35.020406601850176 38.13074039201181
vertex 754.1990136230203 35.02040660185017 37.98357836378959
endloop
endfacet
facet normal 2.2905539898672336e-14 -1.0 4.698635035875166e-15
outer loop
vertex 756.4442722941569 35.02040660185023 38.1307403920118
vertex 754.1990136230203 35.02040660185017 37.98357836378959
vertex 756.8777976495759 35.02040660185023 37.98357836378956
endloop
endfacet
facet normal 2.2905539898672336e-14 -1.0 4.698635035875166e-15
outer loop
vertex 756.8777976495759 35.02040660185023 37.98357836378956
vertex 754.1990136230203 35.02040660185017 37.98357836378959
vertex 753.788405636298 35.020406601850155 37.78108891324562
endloop
endfacet
facet normal 2.2905539898672336e-14 -1.0 4.698635035875166e-15
outer loop
vertex 756.8777976495759 35.02040660185023 37.98357836378956
vertex 753.788405636298 35.020406601850155 37.78108891324562
vertex 757.2884056362981 35.02040660185025 37.7810889132456
endloop
endfacet
facet normal 2.2905539898672336e-14 -1.0 4.698635035875166e-15
outer loop
vertex 757.2884056362981 35.02040660185025 37.7810889132456
vertex 753.788405636298 35.020406601850155 37.78108891324562
vertex 753.4077406347675 35.020406601850155 37.5267366910194
endloop
endfacet
facet normal 2.2905539898672336e-14 -1.0 4.698635035875166e-15
outer loop
vertex 757.2884056362981 35.02040660185025 37.7810889132456
vertex 753.4077406347675 35.020406601850155 37.5267366910194
vertex 757.6690706378286 35.020406601850254 37.52673669101938
endloop
endfacet
facet normal 2.2905539898672336e-14 -1.0 4.698635035875166e-15
outer loop
vertex 757.6690706378286 35.020406601850254 37.52673669101938
vertex 753.4077406347675 35.020406601850155 37.5267366910194
vertex 753.0635319021452 35.02040660185015 37.224873734153
endloop
endfacet
facet normal 2.2905539898672336e-14 -1.0 4.698635035875166e-15
outer loop
vertex 757.6690706378286 35.020406601850254 37.52673669101938
vertex 753.0635319021452 35.02040660185015 37.224873734153
vertex 758.013279370451 35.02040660185026 37.224873734152965
endloop
endfacet
facet normal 2.2905539898672336e-14 -1.0 4.698635035875166e-15
outer loop
vertex 758.013279370451 35.02040660185026 37.224873734152965
vertex 753.0635319021452 35.02040660185015 37.224873734153
vertex 752.7616689452788 35.020406601850105 36.8806650015306
endloop
endfacet
facet normal 2.2905539898672336e-14 -1.0 4.698635035875166e-15
outer loop
vertex 758.013279370451 35.02040660185026 37.224873734152965
vertex 752.7616689452788 35.020406601850105 36.8806650015306
vertex 758.3151423273174 35.02040660185023 36.880665001530566
endloop
endfacet
facet normal 2.2905539898672336e-14 -1.0 4.698635035875166e-15
outer loop
vertex 758.3151423273174 35.02040660185023 36.880665001530566
vertex 752.7616689452788 35.020406601850105 36.8806650015306
vertex 755.5384056362981 35.02040660185021 36.75000000000007
endloop
endfacet
facet normal 2.2905539898672336e-14 -1.0 4.698635035875166e-15
outer loop
vertex 755.5384056362981 35.02040660185021 36.75000000000007
vertex 752.7616689452788 35.020406601850105 36.8806650015306
vertex 752.5073167230526 35.02040660185013 36.500000000000085
endloop
endfacet
facet normal 2.2905539898672336e-14 -1.0 4.698635035875166e-15
outer loop
vertex 755.5384056362981 35.02040660185021 36.75000000000007
vertex 752.5073167230526 35.02040660185013 36.500000000000085
vertex 755.020767546093 35.020406601850205 36.68185165257821
endloop
endfacet
facet normal 2.2905539898672336e-14 -1.0 4.698635035875166e-15
outer loop
vertex 755.020767546093 35.020406601850205 36.68185165257821
vertex 752.5073167230526 35.02040660185013 36.500000000000085
vertex 754.538405636298 35.0204066018502 36.48205080756895
endloop
endfacet
facet normal 2.2905539898672336e-14 -1.0 4.698635035875166e-15
outer loop
vertex 754.538405636298 35.0204066018502 36.48205080756895
vertex 752.5073167230526 35.02040660185013 36.500000000000085
vertex 752.3048272725085 35.02040660185011 36.0893920132779
endloop
endfacet
facet normal 2.2905539898672336e-14 -1.0 4.698635035875166e-15
outer loop
vertex 754.538405636298 35.0204066018502 36.48205080756895
vertex 752.3048272725085 35.02040660185011 36.0893920132779
vertex 754.124192073925 35.0204066018502 36.16421356237316
endloop
endfacet
facet normal 2.2905539898672336e-14 -1.0 4.698635035875166e-15
outer loop
vertex 754.124192073925 35.0204066018502 36.16421356237316
vertex 752.3048272725085 35.02040660185011 36.0893920132779
vertex 753.8063548287291 35.02040660185018 35.75000000000008
endloop
endfacet
facet normal 2.2905539898672336e-14 -1.0 4.698635035875166e-15
outer loop
vertex 753.8063548287291 35.02040660185018 35.75000000000008
vertex 752.3048272725085 35.02040660185011 36.0893920132779
vertex 752.1576652442862 35.02040660185013 35.6558666578589
endloop
endfacet
facet normal 2.2905539898672336e-14 -1.0 4.698635035875166e-15
outer loop
vertex 753.8063548287291 35.02040660185018 35.75000000000008
vertex 752.1576652442862 35.02040660185013 35.6558666578589
vertex 753.6065539837199 35.0204066018501 35.26763809020511
endloop
endfacet
facet normal 2.2905539898672336e-14 -1.0 4.698635035875166e-15
outer loop
vertex 753.6065539837199 35.0204066018501 35.26763809020511
vertex 752.1576652442862 35.02040660185013 35.6558666578589
vertex 752.0683486214897 35.020406601850055 35.20684167277026
endloop
endfacet
facet normal 2.2905539898672336e-14 -1.0 4.698635035875166e-15
outer loop
vertex 753.6065539837199 35.0204066018501 35.26763809020511
vertex 752.0683486214897 35.020406601850055 35.20684167277026
vertex 753.5384056362981 35.02040660185016 34.75000000000008
endloop
endfacet
facet normal 2.2905539898672336e-14 -1.0 4.698635035875166e-15
outer loop
vertex 753.5384056362981 35.02040660185016 34.75000000000008
vertex 752.0683486214897 35.020406601850055 35.20684167277026
vertex 752.0384056362981 35.0204066018501 34.75000000000008
endloop
endfacet
facet normal 2.2905539898672336e-14 -1.0 4.698635035875166e-15
outer loop
vertex 753.5384056362981 35.02040660185016 34.75000000000008
vertex 752.0384056362981 35.0204066018501 34.75000000000008
vertex 752.0384056362981 35.0204066018501 30.750000000000057
endloop
endfacet
facet normal 2.2905539898672336e-14 -1.0 4.698635035875166e-15
outer loop
vertex 753.5384056362981 35.02040660185016 34.75000000000008
vertex 752.0384056362981 35.0204066018501 30.750000000000057
vertex 753.6065539837199 35.020406601850176 34.23236190979503
endloop
endfacet
facet normal 2.2905539898672336e-14 -1.0 4.698635035875166e-15
outer loop
vertex 753.6065539837199 35.020406601850176 34.23236190979503
vertex 752.0384056362981 35.0204066018501 30.750000000000057
vertex 753.8063548287291 35.020406601850176 33.75000000000008
endloop
endfacet
facet normal 2.2905539898672336e-14 -1.0 4.698635035875166e-15
outer loop
vertex 753.8063548287291 35.020406601850176 33.75000000000008
vertex 752.0384056362981 35.0204066018501 30.750000000000057
vertex 754.124192073925 35.0204066018501 33.33578643762698
endloop
endfacet
facet normal 2.2905539898672336e-14 -1.0 4.698635035875166e-15
outer loop
vertex 754.124192073925 35.0204066018501 33.33578643762698
vertex 752.0384056362981 35.0204066018501 30.750000000000057
vertex 754.538405636298 35.020406601850176 33.017949192431196
endloop
endfacet
facet normal 2.2905539898672336e-14 -1.0 4.698635035875166e-15
outer loop
vertex 754.538405636298 35.020406601850176 33.017949192431196
vertex 752.0384056362981 35.0204066018501 30.750000000000057
vertex 755.020767546093 35.02040660185018 32.81814834742193
endloop
endfacet
facet normal 2.2905539898672336e-14 -1.0 4.698635035875166e-15
outer loop
vertex 755.020767546093 35.02040660185018 32.81814834742193
vertex 752.0384056362981 35.0204066018501 30.750000000000057
vertex 755.5384056362981 35.020406601850205 32.75000000000007
endloop
endfacet
facet normal 2.2905539898672336e-14 -1.0 4.698635035875166e-15
outer loop
vertex 755.5384056362981 35.02040660185021 36.75000000000007
vertex 758.5694945495436 35.02040660185027 36.50000000000005
vertex 758.3151423273174 35.02040660185023 36.880665001530566
endloop
endfacet
facet normal 2.2905539898672336e-14 -1.0 4.698635035875166e-15
outer loop
vertex 758.5694945495436 35.02040660185027 36.50000000000005
vertex 755.5384056362981 35.02040660185021 36.75000000000007
vertex 756.0560437265032 35.02040660185023 36.68185165257821
endloop
endfacet
facet normal 2.2905539898672336e-14 -1.0 4.698635035875166e-15
outer loop
vertex 758.5694945495436 35.02040660185027 36.50000000000005
vertex 756.0560437265032 35.02040660185023 36.68185165257821
vertex 756.5384056362981 35.02040660185024 36.48205080756895
endloop
endfacet
facet normal 2.2905539898672336e-14 -1.0 4.698635035875166e-15
outer loop
vertex 758.5694945495436 35.02040660185027 36.50000000000005
vertex 756.5384056362981 35.02040660185024 36.48205080756895
vertex 758.7719840000875 35.02040660185026 36.08939201327786
endloop
endfacet
facet normal 2.2905539898672336e-14 -1.0 4.698635035875166e-15
outer loop
vertex 758.7719840000875 35.02040660185026 36.08939201327786
vertex 756.5384056362981 35.02040660185024 36.48205080756895
vertex 756.9526191986712 35.02040660185026 36.16421356237316
endloop
endfacet
facet normal 2.2905539898672336e-14 -1.0 4.698635035875166e-15
outer loop
vertex 758.7719840000875 35.02040660185026 36.08939201327786
vertex 756.9526191986712 35.02040660185026 36.16421356237316
vertex 757.2704564438669 35.02040660185026 35.75000000000008
endloop
endfacet
facet normal 2.2905539898672336e-14 -1.0 4.698635035875166e-15
outer loop
vertex 758.7719840000875 35.02040660185026 36.08939201327786
vertex 757.2704564438669 35.02040660185026 35.75000000000008
vertex 758.9191460283098 35.02040660185027 35.655866657858866
endloop
endfacet
facet normal 2.2905539898672336e-14 -1.0 4.698635035875166e-15
outer loop
vertex 758.9191460283098 35.02040660185027 35.655866657858866
vertex 757.2704564438669 35.02040660185026 35.75000000000008
vertex 757.4702572888763 35.02040660185019 35.26763809020511
endloop
endfacet
facet normal 2.2905539898672336e-14 -1.0 4.698635035875166e-15
outer loop
vertex 758.9191460283098 35.02040660185027 35.655866657858866
vertex 757.4702572888763 35.02040660185019 35.26763809020511
vertex 759.0084626511065 35.02040660185021 35.206841672770224
endloop
endfacet
facet normal 2.2905539898672336e-14 -1.0 4.698635035875166e-15
outer loop
vertex 759.0084626511065 35.02040660185021 35.206841672770224
vertex 757.4702572888763 35.02040660185019 35.26763809020511
vertex 757.5384056362981 35.02040660185026 34.75000000000008
endloop
endfacet
facet normal 2.2905539898672336e-14 -1.0 4.698635035875166e-15
outer loop
vertex 759.0084626511065 35.02040660185021 35.206841672770224
vertex 757.5384056362981 35.02040660185026 34.75000000000008
vertex 759.0384056362981 35.02040660185026 34.750000000000064
endloop
endfacet
facet normal 2.2905539898672336e-14 -1.0 4.698635035875166e-15
outer loop
vertex 759.0384056362981 35.02040660185026 34.750000000000064
vertex 757.5384056362981 35.02040660185026 34.75000000000008
vertex 757.4702572888763 35.02040660185026 34.23236190979503
endloop
endfacet
facet normal 2.2905539898672336e-14 -1.0 4.698635035875166e-15
outer loop
vertex 759.0384056362981 35.02040660185026 34.750000000000064
vertex 757.4702572888763 35.02040660185026 34.23236190979503
vertex 759.038405636298 35.02040660185025 30.750000000000046
endloop
endfacet
facet normal 2.2905539898672336e-14 -1.0 4.698635035875166e-15
outer loop
vertex 759.038405636298 35.02040660185025 30.750000000000046
vertex 757.4702572888763 35.02040660185026 34.23236190979503
vertex 757.2704564438669 35.020406601850254 33.75000000000008
endloop
endfacet
facet normal 2.2905539898672336e-14 -1.0 4.698635035875166e-15
outer loop
vertex 759.038405636298 35.02040660185025 30.750000000000046
vertex 757.2704564438669 35.020406601850254 33.75000000000008
vertex 756.9526191986712 35.020406601850155 33.33578643762698
endloop
endfacet
facet normal 2.2905539898672336e-14 -1.0 4.698635035875166e-15
outer loop
vertex 759.038405636298 35.02040660185025 30.750000000000046
vertex 756.9526191986712 35.020406601850155 33.33578643762698
vertex 756.5384056362981 35.02040660185022 33.017949192431196
endloop
endfacet
facet normal 2.2905539898672336e-14 -1.0 4.698635035875166e-15
outer loop
vertex 759.038405636298 35.02040660185025 30.750000000000046
vertex 756.5384056362981 35.02040660185022 33.017949192431196
vertex 756.0560437265032 35.020406601850205 32.81814834742193
endloop
endfacet
facet normal 2.2905539898672336e-14 -1.0 4.698635035875166e-15
outer loop
vertex 759.038405636298 35.02040660185025 30.750000000000046
vertex 756.0560437265032 35.020406601850205 32.81814834742193
vertex 755.5384056362981 35.020406601850205 32.75000000000007
endloop
endfacet
facet normal 2.2905539898672336e-14 -1.0 4.698635035875166e-15
outer loop
vertex 759.038405636298 35.02040660185025 30.750000000000046
vertex 755.5384056362981 35.020406601850205 32.75000000000007
vertex 752.0384056362981 35.0204066018501 30.750000000000057
endloop
endfacet
facet normal 2.0462678287981713e-14 -1.0 1.4328017815391696e-14
outer loop
vertex 754.0384056362979 41.02040660185005 24.750000000000043
vertex 752.6384056362979 41.02040660185006 27.25000000000003
vertex 751.2884056362977 41.020406601850034 27.250000000000036
endloop
endfacet
facet normal 2.0462678287981713e-14 -1.0 1.4328017815391696e-14
outer loop
vertex 752.6384056362979 41.02040660185006 27.25000000000003
vertex 754.0384056362979 41.02040660185014 30.750000000000018
vertex 752.6384056362979 41.020406601850105 30.750000000000018
endloop
endfacet
facet normal 2.0462678287981713e-14 -1.0 1.4328017815391696e-14
outer loop
vertex 754.0384056362979 41.02040660185014 30.750000000000018
vertex 752.6384056362979 41.02040660185006 27.25000000000003
vertex 754.0384056362979 41.02040660185005 24.750000000000043
endloop
endfacet
facet normal 1.0 3.007964248051104e-14 -1.941637795054399e-28
outer loop
vertex 758.4384056362975 47.020406601850176 27.249999999999996
vertex 758.4384056362977 41.020406601850226 30.75000000000002
vertex 758.4384056362977 41.02040660185018 27.250000000000036
endloop
endfacet
facet normal 1.0 3.007964248051104e-14 -1.941637795054399e-28
outer loop
vertex 758.4384056362977 41.020406601850226 30.75000000000002
vertex 758.4384056362975 47.020406601850176 27.249999999999996
vertex 758.4384056362975 47.02040660185018 30.74999999999999
endloop
endfacet
facet normal -1.0 -2.6319687170447202e-14 -7.519910620127778e-15
outer loop
vertex 752.0384056362976 47.02040660185005 34.750000000000036
vertex 752.0384056362981 35.0204066018501 30.750000000000057
vertex 752.0384056362981 35.0204066018501 34.75000000000008
endloop
endfacet
facet normal -1.0 -2.6319687170447202e-14 -7.519910620127778e-15
outer loop
vertex 752.0384056362981 35.0204066018501 30.750000000000057
vertex 752.0384056362976 47.02040660185005 34.750000000000036
vertex 752.0384056362976 47.02040660185004 30.74999999999999
endloop
endfacet
facet normal -1.0 -2.2559731860383236e-14 1.2891275348790597e-14
outer loop
vertex 752.6384056362979 41.020406601850105 30.750000000000018
vertex 752.6384056362976 47.02040660185005 27.249999999999996
vertex 752.6384056362979 41.02040660185006 27.25000000000003
endloop
endfacet
facet normal -1.0 -2.2559731860383236e-14 1.2891275348790597e-14
outer loop
vertex 752.6384056362976 47.02040660185005 27.249999999999996
vertex 752.6384056362979 41.020406601850105 30.750000000000018
vertex 752.6384056362978 47.020406601850055 30.74999999999998
endloop
endfacet
facet normal -2.1426497147447333e-16 -5.623570005691013e-15 -1.0
outer loop
vertex 759.038405636298 35.02040660185025 30.750000000000046
vertex 758.4384056362977 41.020406601850226 30.75000000000002
vertex 759.0384056362975 47.0204066018502 30.74999999999999
endloop
endfacet
facet normal -2.1426497147447333e-16 -5.623570005691013e-15 -1.0
outer loop
vertex 758.4384056362977 41.020406601850226 30.75000000000002
vertex 759.038405636298 35.02040660185025 30.750000000000046
vertex 752.0384056362981 35.0204066018501 30.750000000000057
endloop
endfacet
facet normal -2.1426497147447333e-16 -5.623570005691013e-15 -1.0
outer loop
vertex 758.4384056362977 41.020406601850226 30.75000000000002
vertex 752.0384056362981 35.0204066018501 30.750000000000057
vertex 757.0384056362979 41.020406601850205 30.750000000000018
endloop
endfacet
facet normal -2.1426497147447333e-16 -5.623570005691013e-15 -1.0
outer loop
vertex 757.0384056362979 41.020406601850205 30.750000000000018
vertex 752.0384056362981 35.0204066018501 30.750000000000057
vertex 757.0384056362975 47.0204066018502 30.74999999999999
endloop
endfacet
facet normal -2.1426497147447333e-16 -5.623570005691013e-15 -1.0
outer loop
vertex 757.0384056362975 47.0204066018502 30.74999999999999
vertex 752.0384056362981 35.0204066018501 30.750000000000057
vertex 754.0384056362979 41.02040660185014 30.750000000000018
endloop
endfacet
facet normal -2.1426497147447333e-16 -5.623570005691013e-15 -1.0
outer loop
vertex 754.0384056362979 41.02040660185014 30.750000000000018
vertex 752.0384056362981 35.0204066018501 30.750000000000057
vertex 752.6384056362979 41.020406601850105 30.750000000000018
endloop
endfacet
facet normal -2.1426497147447333e-16 -5.623570005691013e-15 -1.0
outer loop
vertex 752.6384056362979 41.020406601850105 30.750000000000018
vertex 752.0384056362981 35.0204066018501 30.750000000000057
vertex 752.6384056362978 47.020406601850055 30.74999999999998
endloop
endfacet
facet normal -2.1426497147447333e-16 -5.623570005691013e-15 -1.0
outer loop
vertex 752.6384056362978 47.020406601850055 30.74999999999998
vertex 752.0384056362981 35.0204066018501 30.750000000000057
vertex 752.0384056362976 47.02040660185004 30.74999999999999
endloop
endfacet
facet normal -2.1426497147447333e-16 -5.623570005691013e-15 -1.0
outer loop
vertex 754.0384056362976 47.02040660185013 30.74999999999999
vertex 757.0384056362975 47.0204066018502 30.74999999999999
vertex 754.0384056362979 41.02040660185014 30.750000000000018
endloop
endfacet
facet normal -2.1426497147447333e-16 -5.623570005691013e-15 -1.0
outer loop
vertex 758.4384056362975 47.02040660185018 30.74999999999999
vertex 759.0384056362975 47.0204066018502 30.74999999999999
vertex 758.4384056362977 41.020406601850226 30.75000000000002
endloop
endfacet
endsolid newXgantryHP
