solid model
facet normal -0.019215635209609377 -0.9998153626362676 0.0
outer loop
vertex -0.05380377858690542 -2.7994830153815493 8.999999999999998
vertex -0.7765299801108091 -2.690167502217865 0.9999999999999999
vertex -0.05380377858690542 -2.7994830153815493 0.9999999999999999
endloop
endfacet
facet normal -0.2773321357538604 -0.9607741079349518 0.0
outer loop
vertex -0.7765299801108091 -2.690167502217865 0.9999999999999999
vertex -0.05380377858690542 -2.7994830153815493 8.999999999999998
vertex -0.7765299801108091 -2.690167502217865 8.999999999999998
endloop
endfacet
facet normal -0.9885066742850264 -0.15117723007767025 0.0
outer loop
vertex -3.7563253622831003 -0.5744734742951454 0.9999999999999999
vertex -3.47964700332009 -1.5271073087001832 0.0
vertex -3.47964700332009 -1.5271073087001832 0.9999999999999999
endloop
endfacet
facet normal -0.9156965798210763 -0.4018703443947851 0.0
outer loop
vertex -3.47964700332009 -1.5271073087001832 0.0
vertex -3.7563253622831003 -0.5744734742951454 0.9999999999999999
vertex -3.7563253622831003 -0.5744734742951454 0.0
endloop
endfacet
facet normal 0.5920813280861844 0.8058782171840235 0.0
outer loop
vertex 2.2499090467275016 3.062337225299289 0.9999999999999999
vertex 2.965836451469377 2.375671303681454 0.0
vertex 2.2499090467275016 3.062337225299289 0.0
endloop
endfacet
facet normal 0.7804832767024678 0.6251766588635403 0.0
outer loop
vertex 2.965836451469377 2.375671303681454 0.0
vertex 2.2499090467275016 3.062337225299289 0.9999999999999999
vertex 2.965836451469377 2.375671303681454 0.9999999999999999
endloop
endfacet
facet normal 0.24021037911883802 -0.9707208526469308 0.0
outer loop
vertex 0.672589061532747 -2.718018387411406 8.999999999999998
vertex -0.05380377858690542 -2.7994830153815493 0.9999999999999999
vertex 0.672589061532747 -2.718018387411406 0.9999999999999999
endloop
endfacet
facet normal -0.019215635209609377 -0.9998153626362676 0.0
outer loop
vertex -0.05380377858690542 -2.7994830153815493 0.9999999999999999
vertex 0.672589061532747 -2.718018387411406 8.999999999999998
vertex -0.05380377858690542 -2.7994830153815493 8.999999999999998
endloop
endfacet
facet normal 0.69338871689307 -0.7205637288161139 0.0
outer loop
vertex 1.9414884073005967 -2.0175784406851185 8.999999999999998
vertex 1.3531460686149206 -2.451325298076937 0.9999999999999999
vertex 1.9414884073005967 -2.0175784406851185 0.9999999999999999
endloop
endfacet
facet normal 0.4832664530767574 -0.8754733207417632 0.0
outer loop
vertex 1.3531460686149206 -2.451325298076937 0.9999999999999999
vertex 1.9414884073005967 -2.0175784406851185 8.999999999999998
vertex 1.3531460686149206 -2.451325298076937 8.999999999999998
endloop
endfacet
facet normal -0.10981836263705352 -0.9939516724809697 0.0
outer loop
vertex -0.41730977802080316 -3.7770163554276848 0.9999999999999999
vertex -1.3806540586016485 -3.540309925764522 0.0
vertex -0.41730977802080316 -3.7770163554276848 0.0
endloop
endfacet
facet normal -0.36333001542148663 -0.9316605067801373 0.0
outer loop
vertex -1.3806540586016485 -3.540309925764522 0.0
vertex -0.41730977802080316 -3.7770163554276848 0.9999999999999999
vertex -1.3806540586016485 -3.540309925764522 0.9999999999999999
endloop
endfacet
facet normal 0.960774107934952 -0.27733213575386 0.0
outer loop
vertex 2.690167502217865 -0.7765299801108096 0.9999999999999999
vertex 2.3975215194900312 -1.4463369467666292 8.999999999999998
vertex 2.3975215194900312 -1.4463369467666292 0.9999999999999999
endloop
endfacet
facet normal 0.856257685532154 -0.51654890955951 0.0
outer loop
vertex 2.3975215194900312 -1.4463369467666292 8.999999999999998
vertex 2.690167502217865 -0.7765299801108096 0.9999999999999999
vertex 2.690167502217865 -0.7765299801108096 8.999999999999998
endloop
endfacet
facet normal 0.9998153626362675 -0.01921563520960926 0.0
outer loop
vertex 2.799483015381549 -0.05380377858690665 0.9999999999999999
vertex 2.690167502217865 -0.7765299801108096 8.999999999999998
vertex 2.690167502217865 -0.7765299801108096 0.9999999999999999
endloop
endfacet
facet normal 0.960774107934952 -0.27733213575386 0.0
outer loop
vertex 2.690167502217865 -0.7765299801108096 8.999999999999998
vertex 2.799483015381549 -0.05380377858690665 0.9999999999999999
vertex 2.799483015381549 -0.05380377858690665 8.999999999999998
endloop
endfacet
facet normal 0.9156965798210766 0.40187034439478464 0.0
outer loop
vertex 3.47964700332009 1.5271073087001836 0.0
vertex 3.7563253622831003 0.5744734742951433 0.9999999999999999
vertex 3.7563253622831003 0.5744734742951433 0.0
endloop
endfacet
facet normal 0.9885066742850264 0.15117723007766995 0.0
outer loop
vertex 3.7563253622831003 0.5744734742951433 0.9999999999999999
vertex 3.47964700332009 1.5271073087001836 0.0
vertex 3.47964700332009 1.5271073087001836 0.9999999999999999
endloop
endfacet
facet normal -0.6933887168930705 0.7205637288161134 0.0
outer loop
vertex -1.941488407300598 2.017578440685117 8.999999999999998
vertex -1.353146068614921 2.451325298076937 0.9999999999999999
vertex -1.941488407300598 2.017578440685117 0.9999999999999999
endloop
endfacet
facet normal -0.48326645307675764 0.8754733207417631 0.0
outer loop
vertex -1.353146068614921 2.451325298076937 0.9999999999999999
vertex -1.941488407300598 2.017578440685117 8.999999999999998
vertex -1.353146068614921 2.451325298076937 8.999999999999998
endloop
endfacet
facet normal 0.5295047346685553 0.8483069821494946 0.0
outer loop
vertex -1.0060589958702548 -1.6117832660840399 8.999999999999998
vertex -0.5546181610414334 -1.8172503117190597 0.0
vertex -1.0060589958702548 -1.6117832660840399 0.0
endloop
endfacet
facet normal 0.29190429528496503 0.9564475324837154 0.0
outer loop
vertex -0.5546181610414334 -1.8172503117190597 0.0
vertex -1.0060589958702548 -1.6117832660840399 8.999999999999998
vertex -0.5546181610414334 -1.8172503117190597 8.999999999999998
endloop
endfacet
facet normal -0.7310203014324311 -0.6823557128753578 0.0
outer loop
vertex 1.3889385727216192 1.2964758544631798 8.999999999999998
vertex 1.677164281171524 0.8928157558883051 0.0
vertex 1.677164281171524 0.8928157558883051 8.999999999999998
endloop
endfacet
facet normal -0.882718042721855 -0.46990302941489703 0.0
outer loop
vertex 1.677164281171524 0.8928157558883051 0.0
vertex 1.3889385727216192 1.2964758544631798 8.999999999999998
vertex 1.3889385727216192 1.2964758544631798 0.0
endloop
endfacet
facet normal -0.48326645307675764 0.8754733207417631 0.0
outer loop
vertex -1.353146068614921 2.451325298076937 8.999999999999998
vertex -0.672589061532748 2.718018387411406 0.9999999999999999
vertex -1.353146068614921 2.451325298076937 0.9999999999999999
endloop
endfacet
facet normal -0.24021037911883839 0.9707208526469305 0.0
outer loop
vertex -0.672589061532748 2.718018387411406 0.9999999999999999
vertex -1.353146068614921 2.451325298076937 8.999999999999998
vertex -0.672589061532748 2.718018387411406 8.999999999999998
endloop
endfacet
facet normal -0.2773321357538604 -0.9607741079349518 0.0
outer loop
vertex -0.7765299801108091 -2.690167502217865 8.999999999999998
vertex -1.4463369467666276 -2.3975215194900312 0.9999999999999999
vertex -0.7765299801108091 -2.690167502217865 0.9999999999999999
endloop
endfacet
facet normal -0.5165489095595103 -0.856257685532154 0.0
outer loop
vertex -1.4463369467666276 -2.3975215194900312 0.9999999999999999
vertex -0.7765299801108091 -2.690167502217865 8.999999999999998
vertex -1.4463369467666276 -2.3975215194900312 8.999999999999998
endloop
endfacet
facet normal 0.8058782171840231 -0.592081328086185 0.0
outer loop
vertex 3.0623372252992875 -2.2499090467275034 0.0
vertex 2.3756713036814525 -2.965836451469378 0.9999999999999999
vertex 2.3756713036814525 -2.965836451469378 0.0
endloop
endfacet
facet normal 0.6251766588635399 -0.780483276702468 0.0
outer loop
vertex 2.3756713036814525 -2.965836451469378 0.9999999999999999
vertex 3.0623372252992875 -2.2499090467275034 0.0
vertex 3.0623372252992875 -2.2499090467275034 0.9999999999999999
endloop
endfacet
facet normal -0.8562576855321542 0.5165489095595095 0.0
outer loop
vertex -2.3975215194900317 1.4463369467666278 8.999999999999998
vertex -2.690167502217865 0.7765299801108085 0.9999999999999999
vertex -2.690167502217865 0.7765299801108085 8.999999999999998
endloop
endfacet
facet normal -0.9607741079349519 0.27733213575385984 0.0
outer loop
vertex -2.690167502217865 0.7765299801108085 0.9999999999999999
vertex -2.3975215194900317 1.4463369467666278 8.999999999999998
vertex -2.3975215194900317 1.4463369467666278 0.9999999999999999
endloop
endfacet
facet normal -0.5920813280861849 -0.8058782171840231 0.0
outer loop
vertex -2.2499090467275025 -3.062337225299288 0.9999999999999999
vertex -2.9658364514693774 -2.3756713036814525 0.0
vertex -2.2499090467275025 -3.062337225299288 0.0
endloop
endfacet
facet normal -0.7804832767024678 -0.62517665886354 0.0
outer loop
vertex -2.9658364514693774 -2.3756713036814525 0.0
vertex -2.2499090467275025 -3.062337225299288 0.9999999999999999
vertex -2.9658364514693774 -2.3756713036814525 0.9999999999999999
endloop
endfacet
facet normal 0.7804832767024678 0.6251766588635403 0.0
outer loop
vertex 2.965836451469377 2.375671303681454 0.0
vertex 3.47964700332009 1.5271073087001836 0.9999999999999999
vertex 3.47964700332009 1.5271073087001836 0.0
endloop
endfacet
facet normal 0.9156965798210766 0.40187034439478464 0.0
outer loop
vertex 3.47964700332009 1.5271073087001836 0.9999999999999999
vertex 2.965836451469377 2.375671303681454 0.0
vertex 2.965836451469377 2.375671303681454 0.9999999999999999
endloop
endfacet
facet normal -0.24021037911883839 0.9707208526469305 0.0
outer loop
vertex -0.672589061532748 2.718018387411406 8.999999999999998
vertex 0.05380377858690383 2.7994830153815493 0.9999999999999999
vertex -0.672589061532748 2.718018387411406 0.9999999999999999
endloop
endfacet
facet normal 0.019215635209608978 0.9998153626362676 0.0
outer loop
vertex 0.05380377858690383 2.7994830153815493 0.9999999999999999
vertex -0.672589061532748 2.718018387411406 8.999999999999998
vertex 0.05380377858690383 2.7994830153815493 8.999999999999998
endloop
endfacet
facet normal 0.019215635209608978 0.9998153626362676 0.0
outer loop
vertex 0.05380377858690383 2.7994830153815493 8.999999999999998
vertex 0.7765299801108085 2.690167502217865 0.9999999999999999
vertex 0.05380377858690383 2.7994830153815493 0.9999999999999999
endloop
endfacet
facet normal 0.2773321357538602 0.960774107934952 0.0
outer loop
vertex 0.7765299801108085 2.690167502217865 0.9999999999999999
vertex 0.05380377858690383 2.7994830153815493 8.999999999999998
vertex 0.7765299801108085 2.690167502217865 8.999999999999998
endloop
endfacet
facet normal -0.9998153626362675 0.01921563520960908 0.0
outer loop
vertex -2.799483015381549 0.053803778586905944 8.999999999999998
vertex -2.7180183874114054 -0.6725890615327473 0.9999999999999999
vertex -2.7180183874114054 -0.6725890615327473 8.999999999999998
endloop
endfacet
facet normal -0.9707208526469306 -0.24021037911883808 0.0
outer loop
vertex -2.7180183874114054 -0.6725890615327473 0.9999999999999999
vertex -2.799483015381549 0.053803778586905944 8.999999999999998
vertex -2.799483015381549 0.053803778586905944 0.9999999999999999
endloop
endfacet
facet normal -0.9156965798210763 -0.4018703443947851 0.0
outer loop
vertex -3.47964700332009 -1.5271073087001832 0.9999999999999999
vertex -2.9658364514693774 -2.3756713036814525 0.0
vertex -2.9658364514693774 -2.3756713036814525 0.9999999999999999
endloop
endfacet
facet normal -0.7804832767024678 -0.62517665886354 0.0
outer loop
vertex -2.9658364514693774 -2.3756713036814525 0.0
vertex -3.47964700332009 -1.5271073087001832 0.9999999999999999
vertex -3.47964700332009 -1.5271073087001832 0.0
endloop
endfacet
facet normal 0.9707208526469306 0.24021037911883789 0.0
outer loop
vertex 2.718018387411406 0.6725890615327461 0.9999999999999999
vertex 2.799483015381549 -0.05380377858690665 8.999999999999998
vertex 2.799483015381549 -0.05380377858690665 0.9999999999999999
endloop
endfacet
facet normal 0.9998153626362675 -0.01921563520960926 0.0
outer loop
vertex 2.799483015381549 -0.05380377858690665 8.999999999999998
vertex 2.718018387411406 0.6725890615327461 0.9999999999999999
vertex 2.718018387411406 0.6725890615327461 8.999999999999998
endloop
endfacet
facet normal 0.856257685532154 -0.51654890955951 0.0
outer loop
vertex 2.3975215194900312 -1.4463369467666292 0.9999999999999999
vertex 1.9414884073005967 -2.0175784406851185 8.999999999999998
vertex 1.9414884073005967 -2.0175784406851185 0.9999999999999999
endloop
endfacet
facet normal 0.69338871689307 -0.7205637288161139 0.0
outer loop
vertex 1.9414884073005967 -2.0175784406851185 8.999999999999998
vertex 2.3975215194900312 -1.4463369467666292 0.9999999999999999
vertex 2.3975215194900312 -1.4463369467666292 8.999999999999998
endloop
endfacet
facet normal -0.9607741079349519 0.27733213575385984 0.0
outer loop
vertex -2.690167502217865 0.7765299801108085 8.999999999999998
vertex -2.799483015381549 0.053803778586905944 0.9999999999999999
vertex -2.799483015381549 0.053803778586905944 8.999999999999998
endloop
endfacet
facet normal -0.9998153626362675 0.01921563520960908 0.0
outer loop
vertex -2.799483015381549 0.053803778586905944 0.9999999999999999
vertex -2.690167502217865 0.7765299801108085 8.999999999999998
vertex -2.690167502217865 0.7765299801108085 0.9999999999999999
endloop
endfacet
facet normal -0.6933887168930705 0.7205637288161134 0.0
outer loop
vertex -1.941488407300598 2.017578440685117 8.999999999999998
vertex -2.3975215194900317 1.4463369467666278 0.9999999999999999
vertex -2.3975215194900317 1.4463369467666278 8.999999999999998
endloop
endfacet
facet normal -0.8562576855321542 0.5165489095595095 0.0
outer loop
vertex -2.3975215194900317 1.4463369467666278 0.9999999999999999
vertex -1.941488407300598 2.017578440685117 8.999999999999998
vertex -1.941488407300598 2.017578440685117 0.9999999999999999
endloop
endfacet
facet normal -0.9707208526469306 -0.24021037911883808 0.0
outer loop
vertex -2.7180183874114054 -0.6725890615327473 8.999999999999998
vertex -2.451325298076937 -1.3531460686149206 0.9999999999999999
vertex -2.451325298076937 -1.3531460686149206 8.999999999999998
endloop
endfacet
facet normal -0.8754733207417631 -0.4832664530767576 0.0
outer loop
vertex -2.451325298076937 -1.3531460686149206 0.9999999999999999
vertex -2.7180183874114054 -0.6725890615327473 8.999999999999998
vertex -2.7180183874114054 -0.6725890615327473 0.9999999999999999
endloop
endfacet
facet normal 0.0 0.0 -1.0
outer loop
vertex -3.5403099257645225 1.3806540586016467 0.0
vertex -3.7563253622831003 -0.5744734742951454 0.0
vertex -3.7770163554276848 0.41730977802080277 0.0
endloop
endfacet
facet normal 0.0 0.0 -1.0
outer loop
vertex -3.7563253622831003 -0.5744734742951454 0.0
vertex -3.5403099257645225 1.3806540586016467 0.0
vertex -3.47964700332009 -1.5271073087001832 0.0
endloop
endfacet
facet normal 0.0 0.0 -1.0
outer loop
vertex -3.47964700332009 -1.5271073087001832 0.0
vertex -3.5403099257645225 1.3806540586016467 0.0
vertex -3.0623372252992884 2.2499090467275016 0.0
endloop
endfacet
facet normal 0.0 0.0 -1.0
outer loop
vertex -3.47964700332009 -1.5271073087001832 0.0
vertex -3.0623372252992884 2.2499090467275016 0.0
vertex -2.9658364514693774 -2.3756713036814525 0.0
endloop
endfacet
facet normal 0.0 0.0 -1.0
outer loop
vertex -2.9658364514693774 -2.3756713036814525 0.0
vertex -3.0623372252992884 2.2499090467275016 0.0
vertex -2.3756713036814534 2.965836451469377 0.0
endloop
endfacet
facet normal 0.0 0.0 -1.0
outer loop
vertex -2.9658364514693774 -2.3756713036814525 0.0
vertex -2.3756713036814534 2.965836451469377 0.0
vertex -2.2499090467275025 -3.062337225299288 0.0
endloop
endfacet
facet normal 0.0 0.0 -1.0
outer loop
vertex -2.2499090467275025 -3.062337225299288 0.0
vertex -2.3756713036814534 2.965836451469377 0.0
vertex -1.5271073087001834 3.47964700332009 0.0
endloop
endfacet
facet normal 0.0 0.0 -1.0
outer loop
vertex -2.2499090467275025 -3.062337225299288 0.0
vertex -1.5271073087001834 3.47964700332009 0.0
vertex -1.8988747517585596 0.06538101508748459 0.0
endloop
endfacet
facet normal 0.0 0.0 -1.0
outer loop
vertex -1.8988747517585596 0.06538101508748459 0.0
vertex -1.5271073087001834 3.47964700332009 0.0
vertex -1.8172503117190597 0.5546181610414324 0.0
endloop
endfacet
facet normal 0.0 0.0 -1.0
outer loop
vertex -1.8172503117190597 0.5546181610414324 0.0
vertex -1.5271073087001834 3.47964700332009 0.0
vertex -1.6117832660840399 1.0060589958702546 0.0
endloop
endfacet
facet normal 0.0 0.0 -1.0
outer loop
vertex -1.6117832660840399 1.0060589958702546 0.0
vertex -1.5271073087001834 3.47964700332009 0.0
vertex -1.2964758544631796 1.3889385727216192 0.0
endloop
endfacet
facet normal 0.0 0.0 -1.0
outer loop
vertex -1.2964758544631796 1.3889385727216192 0.0
vertex -1.5271073087001834 3.47964700332009 0.0
vertex -0.5744734742951456 3.7563253622831003 0.0
endloop
endfacet
facet normal 0.0 0.0 -1.0
outer loop
vertex -1.2964758544631796 1.3889385727216192 0.0
vertex -0.5744734742951456 3.7563253622831003 0.0
vertex -0.8928157558883049 1.677164281171524 0.0
endloop
endfacet
facet normal 0.0 0.0 -1.0
outer loop
vertex -0.8928157558883049 1.677164281171524 0.0
vertex -0.5744734742951456 3.7563253622831003 0.0
vertex -0.4283117389974403 1.8510940155046123 0.0
endloop
endfacet
facet normal 0.0 0.0 -1.0
outer loop
vertex -0.4283117389974403 1.8510940155046123 0.0
vertex -0.5744734742951456 3.7563253622831003 0.0
vertex 0.4173097780208014 3.7770163554276848 0.0
endloop
endfacet
facet normal 0.0 0.0 -1.0
outer loop
vertex -0.4283117389974403 1.8510940155046123 0.0
vertex 0.4173097780208014 3.7770163554276848 0.0
vertex 0.06538101508748388 1.8988747517585596 0.0
endloop
endfacet
facet normal 0.0 0.0 -1.0
outer loop
vertex 0.06538101508748388 1.8988747517585596 0.0
vertex 0.4173097780208014 3.7770163554276848 0.0
vertex 0.5546181610414324 1.8172503117190597 0.0
endloop
endfacet
facet normal 0.0 0.0 -1.0
outer loop
vertex 0.5546181610414324 1.8172503117190597 0.0
vertex 0.4173097780208014 3.7770163554276848 0.0
vertex 1.3806540586016467 3.5403099257645225 0.0
endloop
endfacet
facet normal 0.0 0.0 -1.0
outer loop
vertex 0.5546181610414324 1.8172503117190597 0.0
vertex 1.3806540586016467 3.5403099257645225 0.0
vertex 1.0060589958702546 1.6117832660840399 0.0
endloop
endfacet
facet normal 0.0 0.0 -1.0
outer loop
vertex 1.0060589958702546 1.6117832660840399 0.0
vertex 1.3806540586016467 3.5403099257645225 0.0
vertex 1.3889385727216192 1.2964758544631798 0.0
endloop
endfacet
facet normal 0.0 0.0 -1.0
outer loop
vertex 1.3889385727216192 1.2964758544631798 0.0
vertex 1.3806540586016467 3.5403099257645225 0.0
vertex 2.2499090467275016 3.062337225299289 0.0
endloop
endfacet
facet normal 0.0 0.0 -1.0
outer loop
vertex 1.3889385727216192 1.2964758544631798 0.0
vertex 2.2499090467275016 3.062337225299289 0.0
vertex 1.677164281171524 0.8928157558883051 0.0
endloop
endfacet
facet normal 0.0 0.0 -1.0
outer loop
vertex 1.677164281171524 0.8928157558883051 0.0
vertex 2.2499090467275016 3.062337225299289 0.0
vertex 1.8510940155046123 0.42831173899743913 0.0
endloop
endfacet
facet normal 0.0 0.0 -1.0
outer loop
vertex 1.8510940155046123 0.42831173899743913 0.0
vertex 2.2499090467275016 3.062337225299289 0.0
vertex 1.8988747517585596 -0.06538101508748477 0.0
endloop
endfacet
facet normal 0.0 0.0 -1.0
outer loop
vertex -2.2499090467275025 -3.062337225299288 0.0
vertex -1.8510940155046123 -0.4283117389974402 0.0
vertex -1.3806540586016485 -3.540309925764522 0.0
endloop
endfacet
facet normal 0.0 0.0 -1.0
outer loop
vertex -1.8510940155046123 -0.4283117389974402 0.0
vertex -2.2499090467275025 -3.062337225299288 0.0
vertex -1.8988747517585596 0.06538101508748459 0.0
endloop
endfacet
facet normal 0.0 0.0 -1.0
outer loop
vertex -1.3806540586016485 -3.540309925764522 0.0
vertex -1.8510940155046123 -0.4283117389974402 0.0
vertex -1.677164281171524 -0.8928157558883049 0.0
endloop
endfacet
facet normal 0.0 0.0 -1.0
outer loop
vertex -1.3806540586016485 -3.540309925764522 0.0
vertex -1.677164281171524 -0.8928157558883049 0.0
vertex -1.3889385727216197 -1.2964758544631791 0.0
endloop
endfacet
facet normal 0.0 0.0 -1.0
outer loop
vertex -1.3806540586016485 -3.540309925764522 0.0
vertex -1.3889385727216197 -1.2964758544631791 0.0
vertex -1.0060589958702548 -1.6117832660840399 0.0
endloop
endfacet
facet normal 0.0 0.0 -1.0
outer loop
vertex -1.3806540586016485 -3.540309925764522 0.0
vertex -1.0060589958702548 -1.6117832660840399 0.0
vertex -0.41730977802080316 -3.7770163554276848 0.0
endloop
endfacet
facet normal 0.0 0.0 -1.0
outer loop
vertex -0.41730977802080316 -3.7770163554276848 0.0
vertex -1.0060589958702548 -1.6117832660840399 0.0
vertex -0.5546181610414334 -1.8172503117190597 0.0
endloop
endfacet
facet normal 0.0 0.0 -1.0
outer loop
vertex -0.41730977802080316 -3.7770163554276848 0.0
vertex -0.5546181610414334 -1.8172503117190597 0.0
vertex -0.06538101508748477 -1.8988747517585596 0.0
endloop
endfacet
facet normal 0.0 0.0 -1.0
outer loop
vertex -0.41730977802080316 -3.7770163554276848 0.0
vertex -0.06538101508748477 -1.8988747517585596 0.0
vertex 0.5744734742951435 -3.7563253622831003 0.0
endloop
endfacet
facet normal 0.0 0.0 -1.0
outer loop
vertex 0.5744734742951435 -3.7563253622831003 0.0
vertex -0.06538101508748477 -1.8988747517585596 0.0
vertex 0.42831173899743913 -1.8510940155046123 0.0
endloop
endfacet
facet normal 0.0 0.0 -1.0
outer loop
vertex 0.5744734742951435 -3.7563253622831003 0.0
vertex 0.42831173899743913 -1.8510940155046123 0.0
vertex 0.8928157558883048 -1.677164281171524 0.0
endloop
endfacet
facet normal 0.0 0.0 -1.0
outer loop
vertex 0.5744734742951435 -3.7563253622831003 0.0
vertex 0.8928157558883048 -1.677164281171524 0.0
vertex 1.5271073087001827 -3.47964700332009 0.0
endloop
endfacet
facet normal 0.0 0.0 -1.0
outer loop
vertex 1.5271073087001827 -3.47964700332009 0.0
vertex 0.8928157558883048 -1.677164281171524 0.0
vertex 1.2964758544631791 -1.3889385727216197 0.0
endloop
endfacet
facet normal 0.0 0.0 -1.0
outer loop
vertex 1.5271073087001827 -3.47964700332009 0.0
vertex 1.2964758544631791 -1.3889385727216197 0.0
vertex 1.6117832660840394 -1.0060589958702555 0.0
endloop
endfacet
facet normal 0.0 0.0 -1.0
outer loop
vertex 1.5271073087001827 -3.47964700332009 0.0
vertex 1.6117832660840394 -1.0060589958702555 0.0
vertex 2.3756713036814525 -2.965836451469378 0.0
endloop
endfacet
facet normal 0.0 0.0 -1.0
outer loop
vertex 2.3756713036814525 -2.965836451469378 0.0
vertex 1.6117832660840394 -1.0060589958702555 0.0
vertex 1.8172503117190597 -0.5546181610414328 0.0
endloop
endfacet
facet normal 0.0 0.0 -1.0
outer loop
vertex 2.3756713036814525 -2.965836451469378 0.0
vertex 1.8172503117190597 -0.5546181610414328 0.0
vertex 1.8988747517585596 -0.06538101508748477 0.0
endloop
endfacet
facet normal 0.0 0.0 -1.0
outer loop
vertex 2.3756713036814525 -2.965836451469378 0.0
vertex 1.8988747517585596 -0.06538101508748477 0.0
vertex 2.2499090467275016 3.062337225299289 0.0
endloop
endfacet
facet normal 0.0 0.0 -1.0
outer loop
vertex 2.3756713036814525 -2.965836451469378 0.0
vertex 2.2499090467275016 3.062337225299289 0.0
vertex 2.965836451469377 2.375671303681454 0.0
endloop
endfacet
facet normal 0.0 0.0 -1.0
outer loop
vertex 2.3756713036814525 -2.965836451469378 0.0
vertex 2.965836451469377 2.375671303681454 0.0
vertex 3.0623372252992875 -2.2499090467275034 0.0
endloop
endfacet
facet normal 0.0 0.0 -1.0
outer loop
vertex 3.0623372252992875 -2.2499090467275034 0.0
vertex 2.965836451469377 2.375671303681454 0.0
vertex 3.47964700332009 1.5271073087001836 0.0
endloop
endfacet
facet normal 0.0 0.0 -1.0
outer loop
vertex 3.0623372252992875 -2.2499090467275034 0.0
vertex 3.47964700332009 1.5271073087001836 0.0
vertex 3.5403099257645225 -1.3806540586016474 0.0
endloop
endfacet
facet normal 0.0 0.0 -1.0
outer loop
vertex 3.5403099257645225 -1.3806540586016474 0.0
vertex 3.47964700332009 1.5271073087001836 0.0
vertex 3.7563253622831003 0.5744734742951433 0.0
endloop
endfacet
facet normal 0.0 0.0 -1.0
outer loop
vertex 3.5403099257645225 -1.3806540586016474 0.0
vertex 3.7563253622831003 0.5744734742951433 0.0
vertex 3.7770163554276848 -0.41730977802080316 0.0
endloop
endfacet
facet normal 0.6251766588635399 -0.780483276702468 0.0
outer loop
vertex 2.3756713036814525 -2.965836451469378 0.9999999999999999
vertex 1.5271073087001827 -3.47964700332009 0.0
vertex 2.3756713036814525 -2.965836451469378 0.0
endloop
endfacet
facet normal 0.40187034439478464 -0.9156965798210764 0.0
outer loop
vertex 1.5271073087001827 -3.47964700332009 0.0
vertex 2.3756713036814525 -2.965836451469378 0.9999999999999999
vertex 1.5271073087001827 -3.47964700332009 0.9999999999999999
endloop
endfacet
facet normal 0.9994077640834522 -0.034411060572360555 0.0
outer loop
vertex -1.8988747517585596 0.06538101508748459 0.0
vertex -1.8510940155046123 -0.4283117389974402 8.999999999999998
vertex -1.8510940155046123 -0.4283117389974402 0.0
endloop
endfacet
facet normal 0.9742600081603219 0.22542723105128468 0.0
outer loop
vertex -1.8510940155046123 -0.4283117389974402 8.999999999999998
vertex -1.8988747517585596 0.06538101508748459 0.0
vertex -1.8988747517585596 0.06538101508748459 8.999999999999998
endloop
endfacet
facet normal -0.6251766588635403 0.7804832767024678 0.0
outer loop
vertex -2.3756713036814534 2.965836451469377 0.9999999999999999
vertex -3.0623372252992884 2.2499090467275016 0.0
vertex -3.0623372252992884 2.2499090467275016 0.9999999999999999
endloop
endfacet
facet normal -0.8058782171840234 0.5920813280861845 0.0
outer loop
vertex -3.0623372252992884 2.2499090467275016 0.0
vertex -2.3756713036814534 2.965836451469377 0.9999999999999999
vertex -2.3756713036814534 2.965836451469377 0.0
endloop
endfacet
facet normal 0.9564475324837155 -0.2919042952849649 0.0
outer loop
vertex -1.8172503117190597 0.5546181610414324 0.0
vertex -1.8988747517585596 0.06538101508748459 8.999999999999998
vertex -1.8988747517585596 0.06538101508748459 0.0
endloop
endfacet
facet normal 0.9994077640834522 -0.034411060572360555 0.0
outer loop
vertex -1.8988747517585596 0.06538101508748459 8.999999999999998
vertex -1.8172503117190597 0.5546181610414324 0.0
vertex -1.8172503117190597 0.5546181610414324 8.999999999999998
endloop
endfacet
facet normal -0.0 -0.0 1.0
outer loop
vertex -2.9658364514693774 -2.3756713036814525 0.9999999999999999
vertex -2.7180183874114054 -0.6725890615327473 0.9999999999999999
vertex -2.799483015381549 0.053803778586905944 0.9999999999999999
endloop
endfacet
facet normal -0.0 -0.0 1.0
outer loop
vertex -2.7180183874114054 -0.6725890615327473 0.9999999999999999
vertex -2.9658364514693774 -2.3756713036814525 0.9999999999999999
vertex -2.2499090467275025 -3.062337225299288 0.9999999999999999
endloop
endfacet
facet normal -0.0 -0.0 1.0
outer loop
vertex -2.7180183874114054 -0.6725890615327473 0.9999999999999999
vertex -2.2499090467275025 -3.062337225299288 0.9999999999999999
vertex -2.451325298076937 -1.3531460686149206 0.9999999999999999
endloop
endfacet
facet normal -0.0 -0.0 1.0
outer loop
vertex -2.451325298076937 -1.3531460686149206 0.9999999999999999
vertex -2.2499090467275025 -3.062337225299288 0.9999999999999999
vertex -2.0175784406851176 -1.9414884073005967 0.9999999999999999
endloop
endfacet
facet normal -0.0 -0.0 1.0
outer loop
vertex -2.0175784406851176 -1.9414884073005967 0.9999999999999999
vertex -2.2499090467275025 -3.062337225299288 0.9999999999999999
vertex -1.3806540586016485 -3.540309925764522 0.9999999999999999
endloop
endfacet
facet normal -0.0 -0.0 1.0
outer loop
vertex -2.0175784406851176 -1.9414884073005967 0.9999999999999999
vertex -1.3806540586016485 -3.540309925764522 0.9999999999999999
vertex -1.4463369467666276 -2.3975215194900312 0.9999999999999999
endloop
endfacet
facet normal -0.0 -0.0 1.0
outer loop
vertex -1.4463369467666276 -2.3975215194900312 0.9999999999999999
vertex -1.3806540586016485 -3.540309925764522 0.9999999999999999
vertex -0.7765299801108091 -2.690167502217865 0.9999999999999999
endloop
endfacet
facet normal -0.0 -0.0 1.0
outer loop
vertex -0.7765299801108091 -2.690167502217865 0.9999999999999999
vertex -1.3806540586016485 -3.540309925764522 0.9999999999999999
vertex -0.41730977802080316 -3.7770163554276848 0.9999999999999999
endloop
endfacet
facet normal -0.0 -0.0 1.0
outer loop
vertex -0.7765299801108091 -2.690167502217865 0.9999999999999999
vertex -0.41730977802080316 -3.7770163554276848 0.9999999999999999
vertex -0.05380377858690542 -2.7994830153815493 0.9999999999999999
endloop
endfacet
facet normal -0.0 -0.0 1.0
outer loop
vertex -0.05380377858690542 -2.7994830153815493 0.9999999999999999
vertex -0.41730977802080316 -3.7770163554276848 0.9999999999999999
vertex 0.5744734742951435 -3.7563253622831003 0.9999999999999999
endloop
endfacet
facet normal -0.0 -0.0 1.0
outer loop
vertex -0.05380377858690542 -2.7994830153815493 0.9999999999999999
vertex 0.5744734742951435 -3.7563253622831003 0.9999999999999999
vertex 0.672589061532747 -2.718018387411406 0.9999999999999999
endloop
endfacet
facet normal -0.0 -0.0 1.0
outer loop
vertex 0.672589061532747 -2.718018387411406 0.9999999999999999
vertex 0.5744734742951435 -3.7563253622831003 0.9999999999999999
vertex 1.5271073087001827 -3.47964700332009 0.9999999999999999
endloop
endfacet
facet normal -0.0 -0.0 1.0
outer loop
vertex 0.672589061532747 -2.718018387411406 0.9999999999999999
vertex 1.5271073087001827 -3.47964700332009 0.9999999999999999
vertex 1.3531460686149206 -2.451325298076937 0.9999999999999999
endloop
endfacet
facet normal -0.0 -0.0 1.0
outer loop
vertex 1.3531460686149206 -2.451325298076937 0.9999999999999999
vertex 1.5271073087001827 -3.47964700332009 0.9999999999999999
vertex 1.9414884073005967 -2.0175784406851185 0.9999999999999999
endloop
endfacet
facet normal -0.0 -0.0 1.0
outer loop
vertex 1.9414884073005967 -2.0175784406851185 0.9999999999999999
vertex 1.5271073087001827 -3.47964700332009 0.9999999999999999
vertex 2.3756713036814525 -2.965836451469378 0.9999999999999999
endloop
endfacet
facet normal -0.0 -0.0 1.0
outer loop
vertex 1.9414884073005967 -2.0175784406851185 0.9999999999999999
vertex 2.3756713036814525 -2.965836451469378 0.9999999999999999
vertex 2.3975215194900312 -1.4463369467666292 0.9999999999999999
endloop
endfacet
facet normal -0.0 -0.0 1.0
outer loop
vertex 2.3975215194900312 -1.4463369467666292 0.9999999999999999
vertex 2.3756713036814525 -2.965836451469378 0.9999999999999999
vertex 3.0623372252992875 -2.2499090467275034 0.9999999999999999
endloop
endfacet
facet normal -0.0 -0.0 1.0
outer loop
vertex 2.3975215194900312 -1.4463369467666292 0.9999999999999999
vertex 3.0623372252992875 -2.2499090467275034 0.9999999999999999
vertex 2.690167502217865 -0.7765299801108096 0.9999999999999999
endloop
endfacet
facet normal -0.0 -0.0 1.0
outer loop
vertex 2.690167502217865 -0.7765299801108096 0.9999999999999999
vertex 3.0623372252992875 -2.2499090467275034 0.9999999999999999
vertex 2.799483015381549 -0.05380377858690665 0.9999999999999999
endloop
endfacet
facet normal -0.0 -0.0 1.0
outer loop
vertex 2.799483015381549 -0.05380377858690665 0.9999999999999999
vertex 3.0623372252992875 -2.2499090467275034 0.9999999999999999
vertex 2.965836451469377 2.375671303681454 0.9999999999999999
endloop
endfacet
facet normal -0.0 -0.0 1.0
outer loop
vertex 2.965836451469377 2.375671303681454 0.9999999999999999
vertex 3.0623372252992875 -2.2499090467275034 0.9999999999999999
vertex 3.47964700332009 1.5271073087001836 0.9999999999999999
endloop
endfacet
facet normal -0.0 -0.0 1.0
outer loop
vertex 3.47964700332009 1.5271073087001836 0.9999999999999999
vertex 3.0623372252992875 -2.2499090467275034 0.9999999999999999
vertex 3.5403099257645225 -1.3806540586016474 0.9999999999999999
endloop
endfacet
facet normal -0.0 -0.0 1.0
outer loop
vertex 3.47964700332009 1.5271073087001836 0.9999999999999999
vertex 3.5403099257645225 -1.3806540586016474 0.9999999999999999
vertex 3.7563253622831003 0.5744734742951433 0.9999999999999999
endloop
endfacet
facet normal -0.0 -0.0 1.0
outer loop
vertex 3.7563253622831003 0.5744734742951433 0.9999999999999999
vertex 3.5403099257645225 -1.3806540586016474 0.9999999999999999
vertex 3.7770163554276848 -0.41730977802080316 0.9999999999999999
endloop
endfacet
facet normal -0.0 -0.0 1.0
outer loop
vertex -3.7563253622831003 -0.5744734742951454 0.9999999999999999
vertex -3.5403099257645225 1.3806540586016467 0.9999999999999999
vertex -3.7770163554276848 0.41730977802080277 0.9999999999999999
endloop
endfacet
facet normal -0.0 -0.0 1.0
outer loop
vertex -3.5403099257645225 1.3806540586016467 0.9999999999999999
vertex -3.7563253622831003 -0.5744734742951454 0.9999999999999999
vertex -3.47964700332009 -1.5271073087001832 0.9999999999999999
endloop
endfacet
facet normal -0.0 -0.0 1.0
outer loop
vertex -3.5403099257645225 1.3806540586016467 0.9999999999999999
vertex -3.47964700332009 -1.5271073087001832 0.9999999999999999
vertex -3.0623372252992884 2.2499090467275016 0.9999999999999999
endloop
endfacet
facet normal -0.0 -0.0 1.0
outer loop
vertex -3.0623372252992884 2.2499090467275016 0.9999999999999999
vertex -3.47964700332009 -1.5271073087001832 0.9999999999999999
vertex -2.9658364514693774 -2.3756713036814525 0.9999999999999999
endloop
endfacet
facet normal -0.0 -0.0 1.0
outer loop
vertex -3.0623372252992884 2.2499090467275016 0.9999999999999999
vertex -2.9658364514693774 -2.3756713036814525 0.9999999999999999
vertex -2.799483015381549 0.053803778586905944 0.9999999999999999
endloop
endfacet
facet normal -0.0 -0.0 1.0
outer loop
vertex -3.0623372252992884 2.2499090467275016 0.9999999999999999
vertex -2.799483015381549 0.053803778586905944 0.9999999999999999
vertex -2.3756713036814534 2.965836451469377 0.9999999999999999
endloop
endfacet
facet normal -0.0 -0.0 1.0
outer loop
vertex -2.3756713036814534 2.965836451469377 0.9999999999999999
vertex -2.799483015381549 0.053803778586905944 0.9999999999999999
vertex -2.690167502217865 0.7765299801108085 0.9999999999999999
endloop
endfacet
facet normal -0.0 -0.0 1.0
outer loop
vertex -2.3756713036814534 2.965836451469377 0.9999999999999999
vertex -2.690167502217865 0.7765299801108085 0.9999999999999999
vertex -2.3975215194900317 1.4463369467666278 0.9999999999999999
endloop
endfacet
facet normal -0.0 -0.0 1.0
outer loop
vertex -2.3756713036814534 2.965836451469377 0.9999999999999999
vertex -2.3975215194900317 1.4463369467666278 0.9999999999999999
vertex -1.941488407300598 2.017578440685117 0.9999999999999999
endloop
endfacet
facet normal -0.0 -0.0 1.0
outer loop
vertex -2.3756713036814534 2.965836451469377 0.9999999999999999
vertex -1.941488407300598 2.017578440685117 0.9999999999999999
vertex -1.5271073087001834 3.47964700332009 0.9999999999999999
endloop
endfacet
facet normal -0.0 -0.0 1.0
outer loop
vertex -1.5271073087001834 3.47964700332009 0.9999999999999999
vertex -1.941488407300598 2.017578440685117 0.9999999999999999
vertex -1.353146068614921 2.451325298076937 0.9999999999999999
endloop
endfacet
facet normal -0.0 -0.0 1.0
outer loop
vertex -1.5271073087001834 3.47964700332009 0.9999999999999999
vertex -1.353146068614921 2.451325298076937 0.9999999999999999
vertex -0.5744734742951456 3.7563253622831003 0.9999999999999999
endloop
endfacet
facet normal -0.0 -0.0 1.0
outer loop
vertex -0.5744734742951456 3.7563253622831003 0.9999999999999999
vertex -1.353146068614921 2.451325298076937 0.9999999999999999
vertex -0.672589061532748 2.718018387411406 0.9999999999999999
endloop
endfacet
facet normal -0.0 -0.0 1.0
outer loop
vertex -0.5744734742951456 3.7563253622831003 0.9999999999999999
vertex -0.672589061532748 2.718018387411406 0.9999999999999999
vertex 0.05380377858690383 2.7994830153815493 0.9999999999999999
endloop
endfacet
facet normal -0.0 -0.0 1.0
outer loop
vertex -0.5744734742951456 3.7563253622831003 0.9999999999999999
vertex 0.05380377858690383 2.7994830153815493 0.9999999999999999
vertex 0.4173097780208014 3.7770163554276848 0.9999999999999999
endloop
endfacet
facet normal -0.0 -0.0 1.0
outer loop
vertex 0.4173097780208014 3.7770163554276848 0.9999999999999999
vertex 0.05380377858690383 2.7994830153815493 0.9999999999999999
vertex 0.7765299801108085 2.690167502217865 0.9999999999999999
endloop
endfacet
facet normal -0.0 -0.0 1.0
outer loop
vertex 0.4173097780208014 3.7770163554276848 0.9999999999999999
vertex 0.7765299801108085 2.690167502217865 0.9999999999999999
vertex 1.3806540586016467 3.5403099257645225 0.9999999999999999
endloop
endfacet
facet normal -0.0 -0.0 1.0
outer loop
vertex 1.3806540586016467 3.5403099257645225 0.9999999999999999
vertex 0.7765299801108085 2.690167502217865 0.9999999999999999
vertex 1.446336946766627 2.3975215194900317 0.9999999999999999
endloop
endfacet
facet normal -0.0 -0.0 1.0
outer loop
vertex 1.3806540586016467 3.5403099257645225 0.9999999999999999
vertex 1.446336946766627 2.3975215194900317 0.9999999999999999
vertex 2.2499090467275016 3.062337225299289 0.9999999999999999
endloop
endfacet
facet normal -0.0 -0.0 1.0
outer loop
vertex 2.2499090467275016 3.062337225299289 0.9999999999999999
vertex 1.446336946766627 2.3975215194900317 0.9999999999999999
vertex 2.0175784406851163 1.9414884073005976 0.9999999999999999
endloop
endfacet
facet normal -0.0 -0.0 1.0
outer loop
vertex 2.2499090467275016 3.062337225299289 0.9999999999999999
vertex 2.0175784406851163 1.9414884073005976 0.9999999999999999
vertex 2.451325298076937 1.3531460686149201 0.9999999999999999
endloop
endfacet
facet normal -0.0 -0.0 1.0
outer loop
vertex 2.2499090467275016 3.062337225299289 0.9999999999999999
vertex 2.451325298076937 1.3531460686149201 0.9999999999999999
vertex 2.965836451469377 2.375671303681454 0.9999999999999999
endloop
endfacet
facet normal -0.0 -0.0 1.0
outer loop
vertex 2.965836451469377 2.375671303681454 0.9999999999999999
vertex 2.451325298076937 1.3531460686149201 0.9999999999999999
vertex 2.718018387411406 0.6725890615327461 0.9999999999999999
endloop
endfacet
facet normal -0.0 -0.0 1.0
outer loop
vertex 2.965836451469377 2.375671303681454 0.9999999999999999
vertex 2.718018387411406 0.6725890615327461 0.9999999999999999
vertex 2.799483015381549 -0.05380377858690665 0.9999999999999999
endloop
endfacet
facet normal 0.8483069821494948 -0.5295047346685549 0.0
outer loop
vertex -1.6117832660840399 1.0060589958702546 0.0
vertex -1.8172503117190597 0.5546181610414324 8.999999999999998
vertex -1.8172503117190597 0.5546181610414324 0.0
endloop
endfacet
facet normal 0.9564475324837155 -0.2919042952849649 0.0
outer loop
vertex -1.8172503117190597 0.5546181610414324 8.999999999999998
vertex -1.6117832660840399 1.0060589958702546 0.0
vertex -1.6117832660840399 1.0060589958702546 8.999999999999998
endloop
endfacet
facet normal 0.2773321357538602 0.960774107934952 0.0
outer loop
vertex 0.7765299801108085 2.690167502217865 8.999999999999998
vertex 1.446336946766627 2.3975215194900317 0.9999999999999999
vertex 0.7765299801108085 2.690167502217865 0.9999999999999999
endloop
endfacet
facet normal 0.5165489095595098 0.8562576855321542 0.0
outer loop
vertex 1.446336946766627 2.3975215194900317 0.9999999999999999
vertex 0.7765299801108085 2.690167502217865 8.999999999999998
vertex 1.446336946766627 2.3975215194900317 8.999999999999998
endloop
endfacet
facet normal -0.9316605067801375 0.3633300154214864 0.0
outer loop
vertex -3.5403099257645225 1.3806540586016467 0.9999999999999999
vertex -3.7770163554276848 0.41730977802080277 0.0
vertex -3.7770163554276848 0.41730977802080277 0.9999999999999999
endloop
endfacet
facet normal -0.9939516724809696 0.10981836263705337 0.0
outer loop
vertex -3.7770163554276848 0.41730977802080277 0.0
vertex -3.5403099257645225 1.3806540586016467 0.9999999999999999
vertex -3.5403099257645225 1.3806540586016467 0.0
endloop
endfacet
facet normal -0.2919042952849648 -0.9564475324837155 0.0
outer loop
vertex 0.5546181610414324 1.8172503117190597 8.999999999999998
vertex 0.06538101508748388 1.8988747517585596 0.0
vertex 0.5546181610414324 1.8172503117190597 0.0
endloop
endfacet
facet normal -0.034411060572360375 -0.9994077640834522 0.0
outer loop
vertex 0.06538101508748388 1.8988747517585596 0.0
vertex 0.5546181610414324 1.8172503117190597 8.999999999999998
vertex 0.06538101508748388 1.8988747517585596 8.999999999999998
endloop
endfacet
facet normal -0.9564475324837154 0.291904295284965 0.0
outer loop
vertex 1.8172503117190597 -0.5546181610414328 8.999999999999998
vertex 1.6117832660840394 -1.0060589958702555 0.0
vertex 1.6117832660840394 -1.0060589958702555 8.999999999999998
endloop
endfacet
facet normal -0.8483069821494946 0.5295047346685552 0.0
outer loop
vertex 1.6117832660840394 -1.0060589958702555 0.0
vertex 1.8172503117190597 -0.5546181610414328 8.999999999999998
vertex 1.8172503117190597 -0.5546181610414328 0.0
endloop
endfacet
facet normal -0.36333001542148663 -0.9316605067801373 0.0
outer loop
vertex -1.3806540586016485 -3.540309925764522 0.9999999999999999
vertex -2.2499090467275025 -3.062337225299288 0.0
vertex -1.3806540586016485 -3.540309925764522 0.0
endloop
endfacet
facet normal -0.5920813280861849 -0.8058782171840231 0.0
outer loop
vertex -2.2499090467275025 -3.062337225299288 0.0
vertex -1.3806540586016485 -3.540309925764522 0.9999999999999999
vertex -2.2499090467275025 -3.062337225299288 0.9999999999999999
endloop
endfacet
facet normal 0.6823557128753576 -0.7310203014324311 0.0
outer loop
vertex -1.2964758544631796 1.3889385727216192 0.0
vertex -1.6117832660840399 1.0060589958702546 8.999999999999998
vertex -1.6117832660840399 1.0060589958702546 0.0
endloop
endfacet
facet normal 0.8483069821494948 -0.5295047346685549 0.0
outer loop
vertex -1.6117832660840399 1.0060589958702546 8.999999999999998
vertex -1.2964758544631796 1.3889385727216192 0.0
vertex -1.2964758544631796 1.3889385727216192 8.999999999999998
endloop
endfacet
facet normal -0.9939516724809696 0.10981836263705337 0.0
outer loop
vertex -3.7770163554276848 0.41730977802080277 0.9999999999999999
vertex -3.7563253622831003 -0.5744734742951454 0.0
vertex -3.7563253622831003 -0.5744734742951454 0.9999999999999999
endloop
endfacet
facet normal -0.9885066742850264 -0.15117723007767025 0.0
outer loop
vertex -3.7563253622831003 -0.5744734742951454 0.0
vertex -3.7770163554276848 0.41730977802080277 0.9999999999999999
vertex -3.7770163554276848 0.41730977802080277 0.0
endloop
endfacet
facet normal 0.4699030294148975 -0.8827180427218545 0.0
outer loop
vertex -0.8928157558883049 1.677164281171524 8.999999999999998
vertex -1.2964758544631796 1.3889385727216192 0.0
vertex -0.8928157558883049 1.677164281171524 0.0
endloop
endfacet
facet normal 0.6823557128753576 -0.7310203014324311 0.0
outer loop
vertex -1.2964758544631796 1.3889385727216192 0.0
vertex -0.8928157558883049 1.677164281171524 8.999999999999998
vertex -1.2964758544631796 1.3889385727216192 8.999999999999998
endloop
endfacet
facet normal 0.5165489095595098 0.8562576855321542 0.0
outer loop
vertex 1.446336946766627 2.3975215194900317 8.999999999999998
vertex 2.0175784406851163 1.9414884073005976 0.9999999999999999
vertex 1.446336946766627 2.3975215194900317 0.9999999999999999
endloop
endfacet
facet normal 0.7205637288161134 0.6933887168930705 0.0
outer loop
vertex 2.0175784406851163 1.9414884073005976 0.9999999999999999
vertex 1.446336946766627 2.3975215194900317 8.999999999999998
vertex 2.0175784406851163 1.9414884073005976 8.999999999999998
endloop
endfacet
facet normal 0.3633300154214861 0.9316605067801375 0.0
outer loop
vertex 1.3806540586016467 3.5403099257645225 0.9999999999999999
vertex 2.2499090467275016 3.062337225299289 0.0
vertex 1.3806540586016467 3.5403099257645225 0.0
endloop
endfacet
facet normal 0.5920813280861844 0.8058782171840235 0.0
outer loop
vertex 2.2499090467275016 3.062337225299289 0.0
vertex 1.3806540586016467 3.5403099257645225 0.9999999999999999
vertex 2.2499090467275016 3.062337225299289 0.9999999999999999
endloop
endfacet
facet normal 0.22542723105128476 -0.9742600081603219 0.0
outer loop
vertex -0.4283117389974403 1.8510940155046123 8.999999999999998
vertex -0.8928157558883049 1.677164281171524 0.0
vertex -0.4283117389974403 1.8510940155046123 0.0
endloop
endfacet
facet normal 0.4699030294148975 -0.8827180427218545 0.0
outer loop
vertex -0.8928157558883049 1.677164281171524 0.0
vertex -0.4283117389974403 1.8510940155046123 8.999999999999998
vertex -0.8928157558883049 1.677164281171524 8.999999999999998
endloop
endfacet
facet normal -0.6251766588635403 0.7804832767024678 0.0
outer loop
vertex -2.3756713036814534 2.965836451469377 0.9999999999999999
vertex -1.5271073087001834 3.47964700332009 0.0
vertex -2.3756713036814534 2.965836451469377 0.0
endloop
endfacet
facet normal -0.4018703443947849 0.9156965798210763 0.0
outer loop
vertex -1.5271073087001834 3.47964700332009 0.0
vertex -2.3756713036814534 2.965836451469377 0.9999999999999999
vertex -1.5271073087001834 3.47964700332009 0.9999999999999999
endloop
endfacet
facet normal 0.0 0.0 1.0
outer loop
vertex -2.7180183874114054 -0.6725890615327473 8.999999999999998
vertex -2.690167502217865 0.7765299801108085 8.999999999999998
vertex -2.799483015381549 0.053803778586905944 8.999999999999998
endloop
endfacet
facet normal 0.0 0.0 1.0
outer loop
vertex -2.690167502217865 0.7765299801108085 8.999999999999998
vertex -2.7180183874114054 -0.6725890615327473 8.999999999999998
vertex -2.451325298076937 -1.3531460686149206 8.999999999999998
endloop
endfacet
facet normal 0.0 0.0 1.0
outer loop
vertex -2.690167502217865 0.7765299801108085 8.999999999999998
vertex -2.451325298076937 -1.3531460686149206 8.999999999999998
vertex -2.3975215194900317 1.4463369467666278 8.999999999999998
endloop
endfacet
facet normal 0.0 0.0 1.0
outer loop
vertex -2.3975215194900317 1.4463369467666278 8.999999999999998
vertex -2.451325298076937 -1.3531460686149206 8.999999999999998
vertex -2.0175784406851176 -1.9414884073005967 8.999999999999998
endloop
endfacet
facet normal 0.0 0.0 1.0
outer loop
vertex -2.3975215194900317 1.4463369467666278 8.999999999999998
vertex -2.0175784406851176 -1.9414884073005967 8.999999999999998
vertex -1.941488407300598 2.017578440685117 8.999999999999998
endloop
endfacet
facet normal 0.0 0.0 1.0
outer loop
vertex -1.941488407300598 2.017578440685117 8.999999999999998
vertex -2.0175784406851176 -1.9414884073005967 8.999999999999998
vertex -1.8988747517585596 0.06538101508748459 8.999999999999998
endloop
endfacet
facet normal 0.0 0.0 1.0
outer loop
vertex -1.8988747517585596 0.06538101508748459 8.999999999999998
vertex -2.0175784406851176 -1.9414884073005967 8.999999999999998
vertex -1.8510940155046123 -0.4283117389974402 8.999999999999998
endloop
endfacet
facet normal 0.0 0.0 1.0
outer loop
vertex -1.8510940155046123 -0.4283117389974402 8.999999999999998
vertex -2.0175784406851176 -1.9414884073005967 8.999999999999998
vertex -1.4463369467666276 -2.3975215194900312 8.999999999999998
endloop
endfacet
facet normal 0.0 0.0 1.0
outer loop
vertex -1.8510940155046123 -0.4283117389974402 8.999999999999998
vertex -1.4463369467666276 -2.3975215194900312 8.999999999999998
vertex -1.677164281171524 -0.8928157558883049 8.999999999999998
endloop
endfacet
facet normal 0.0 0.0 1.0
outer loop
vertex -1.677164281171524 -0.8928157558883049 8.999999999999998
vertex -1.4463369467666276 -2.3975215194900312 8.999999999999998
vertex -1.3889385727216197 -1.2964758544631791 8.999999999999998
endloop
endfacet
facet normal 0.0 0.0 1.0
outer loop
vertex -1.3889385727216197 -1.2964758544631791 8.999999999999998
vertex -1.4463369467666276 -2.3975215194900312 8.999999999999998
vertex -0.7765299801108091 -2.690167502217865 8.999999999999998
endloop
endfacet
facet normal 0.0 0.0 1.0
outer loop
vertex -1.3889385727216197 -1.2964758544631791 8.999999999999998
vertex -0.7765299801108091 -2.690167502217865 8.999999999999998
vertex -1.0060589958702548 -1.6117832660840399 8.999999999999998
endloop
endfacet
facet normal 0.0 0.0 1.0
outer loop
vertex -1.0060589958702548 -1.6117832660840399 8.999999999999998
vertex -0.7765299801108091 -2.690167502217865 8.999999999999998
vertex -0.5546181610414334 -1.8172503117190597 8.999999999999998
endloop
endfacet
facet normal 0.0 0.0 1.0
outer loop
vertex -0.5546181610414334 -1.8172503117190597 8.999999999999998
vertex -0.7765299801108091 -2.690167502217865 8.999999999999998
vertex -0.05380377858690542 -2.7994830153815493 8.999999999999998
endloop
endfacet
facet normal 0.0 0.0 1.0
outer loop
vertex -0.5546181610414334 -1.8172503117190597 8.999999999999998
vertex -0.05380377858690542 -2.7994830153815493 8.999999999999998
vertex -0.06538101508748477 -1.8988747517585596 8.999999999999998
endloop
endfacet
facet normal 0.0 0.0 1.0
outer loop
vertex -0.06538101508748477 -1.8988747517585596 8.999999999999998
vertex -0.05380377858690542 -2.7994830153815493 8.999999999999998
vertex 0.42831173899743913 -1.8510940155046123 8.999999999999998
endloop
endfacet
facet normal 0.0 0.0 1.0
outer loop
vertex 0.42831173899743913 -1.8510940155046123 8.999999999999998
vertex -0.05380377858690542 -2.7994830153815493 8.999999999999998
vertex 0.672589061532747 -2.718018387411406 8.999999999999998
endloop
endfacet
facet normal 0.0 0.0 1.0
outer loop
vertex 0.42831173899743913 -1.8510940155046123 8.999999999999998
vertex 0.672589061532747 -2.718018387411406 8.999999999999998
vertex 0.8928157558883048 -1.677164281171524 8.999999999999998
endloop
endfacet
facet normal 0.0 0.0 1.0
outer loop
vertex 0.8928157558883048 -1.677164281171524 8.999999999999998
vertex 0.672589061532747 -2.718018387411406 8.999999999999998
vertex 1.3531460686149206 -2.451325298076937 8.999999999999998
endloop
endfacet
facet normal 0.0 0.0 1.0
outer loop
vertex 0.8928157558883048 -1.677164281171524 8.999999999999998
vertex 1.3531460686149206 -2.451325298076937 8.999999999999998
vertex 1.2964758544631791 -1.3889385727216197 8.999999999999998
endloop
endfacet
facet normal 0.0 0.0 1.0
outer loop
vertex 1.2964758544631791 -1.3889385727216197 8.999999999999998
vertex 1.3531460686149206 -2.451325298076937 8.999999999999998
vertex 1.6117832660840394 -1.0060589958702555 8.999999999999998
endloop
endfacet
facet normal 0.0 0.0 1.0
outer loop
vertex 1.6117832660840394 -1.0060589958702555 8.999999999999998
vertex 1.3531460686149206 -2.451325298076937 8.999999999999998
vertex 1.9414884073005967 -2.0175784406851185 8.999999999999998
endloop
endfacet
facet normal 0.0 0.0 1.0
outer loop
vertex 1.6117832660840394 -1.0060589958702555 8.999999999999998
vertex 1.9414884073005967 -2.0175784406851185 8.999999999999998
vertex 1.8172503117190597 -0.5546181610414328 8.999999999999998
endloop
endfacet
facet normal 0.0 0.0 1.0
outer loop
vertex 1.8172503117190597 -0.5546181610414328 8.999999999999998
vertex 1.9414884073005967 -2.0175784406851185 8.999999999999998
vertex 1.8988747517585596 -0.06538101508748477 8.999999999999998
endloop
endfacet
facet normal 0.0 0.0 1.0
outer loop
vertex -1.941488407300598 2.017578440685117 8.999999999999998
vertex -1.8172503117190597 0.5546181610414324 8.999999999999998
vertex -1.353146068614921 2.451325298076937 8.999999999999998
endloop
endfacet
facet normal 0.0 0.0 1.0
outer loop
vertex -1.8172503117190597 0.5546181610414324 8.999999999999998
vertex -1.941488407300598 2.017578440685117 8.999999999999998
vertex -1.8988747517585596 0.06538101508748459 8.999999999999998
endloop
endfacet
facet normal 0.0 0.0 1.0
outer loop
vertex -1.353146068614921 2.451325298076937 8.999999999999998
vertex -1.8172503117190597 0.5546181610414324 8.999999999999998
vertex -1.6117832660840399 1.0060589958702546 8.999999999999998
endloop
endfacet
facet normal 0.0 0.0 1.0
outer loop
vertex -1.353146068614921 2.451325298076937 8.999999999999998
vertex -1.6117832660840399 1.0060589958702546 8.999999999999998
vertex -1.2964758544631796 1.3889385727216192 8.999999999999998
endloop
endfacet
facet normal 0.0 0.0 1.0
outer loop
vertex -1.353146068614921 2.451325298076937 8.999999999999998
vertex -1.2964758544631796 1.3889385727216192 8.999999999999998
vertex -0.672589061532748 2.718018387411406 8.999999999999998
endloop
endfacet
facet normal 0.0 0.0 1.0
outer loop
vertex -0.672589061532748 2.718018387411406 8.999999999999998
vertex -1.2964758544631796 1.3889385727216192 8.999999999999998
vertex -0.8928157558883049 1.677164281171524 8.999999999999998
endloop
endfacet
facet normal 0.0 0.0 1.0
outer loop
vertex -0.672589061532748 2.718018387411406 8.999999999999998
vertex -0.8928157558883049 1.677164281171524 8.999999999999998
vertex -0.4283117389974403 1.8510940155046123 8.999999999999998
endloop
endfacet
facet normal 0.0 0.0 1.0
outer loop
vertex -0.672589061532748 2.718018387411406 8.999999999999998
vertex -0.4283117389974403 1.8510940155046123 8.999999999999998
vertex 0.05380377858690383 2.7994830153815493 8.999999999999998
endloop
endfacet
facet normal 0.0 0.0 1.0
outer loop
vertex 0.05380377858690383 2.7994830153815493 8.999999999999998
vertex -0.4283117389974403 1.8510940155046123 8.999999999999998
vertex 0.06538101508748388 1.8988747517585596 8.999999999999998
endloop
endfacet
facet normal 0.0 0.0 1.0
outer loop
vertex 0.05380377858690383 2.7994830153815493 8.999999999999998
vertex 0.06538101508748388 1.8988747517585596 8.999999999999998
vertex 0.7765299801108085 2.690167502217865 8.999999999999998
endloop
endfacet
facet normal 0.0 0.0 1.0
outer loop
vertex 0.7765299801108085 2.690167502217865 8.999999999999998
vertex 0.06538101508748388 1.8988747517585596 8.999999999999998
vertex 0.5546181610414324 1.8172503117190597 8.999999999999998
endloop
endfacet
facet normal 0.0 0.0 1.0
outer loop
vertex 0.7765299801108085 2.690167502217865 8.999999999999998
vertex 0.5546181610414324 1.8172503117190597 8.999999999999998
vertex 1.0060589958702546 1.6117832660840399 8.999999999999998
endloop
endfacet
facet normal 0.0 0.0 1.0
outer loop
vertex 0.7765299801108085 2.690167502217865 8.999999999999998
vertex 1.0060589958702546 1.6117832660840399 8.999999999999998
vertex 1.446336946766627 2.3975215194900317 8.999999999999998
endloop
endfacet
facet normal 0.0 0.0 1.0
outer loop
vertex 1.446336946766627 2.3975215194900317 8.999999999999998
vertex 1.0060589958702546 1.6117832660840399 8.999999999999998
vertex 1.3889385727216192 1.2964758544631798 8.999999999999998
endloop
endfacet
facet normal 0.0 0.0 1.0
outer loop
vertex 1.446336946766627 2.3975215194900317 8.999999999999998
vertex 1.3889385727216192 1.2964758544631798 8.999999999999998
vertex 1.677164281171524 0.8928157558883051 8.999999999999998
endloop
endfacet
facet normal 0.0 0.0 1.0
outer loop
vertex 1.446336946766627 2.3975215194900317 8.999999999999998
vertex 1.677164281171524 0.8928157558883051 8.999999999999998
vertex 2.0175784406851163 1.9414884073005976 8.999999999999998
endloop
endfacet
facet normal 0.0 0.0 1.0
outer loop
vertex 2.0175784406851163 1.9414884073005976 8.999999999999998
vertex 1.677164281171524 0.8928157558883051 8.999999999999998
vertex 1.8510940155046123 0.42831173899743913 8.999999999999998
endloop
endfacet
facet normal 0.0 0.0 1.0
outer loop
vertex 2.0175784406851163 1.9414884073005976 8.999999999999998
vertex 1.8510940155046123 0.42831173899743913 8.999999999999998
vertex 1.8988747517585596 -0.06538101508748477 8.999999999999998
endloop
endfacet
facet normal 0.0 0.0 1.0
outer loop
vertex 2.0175784406851163 1.9414884073005976 8.999999999999998
vertex 1.8988747517585596 -0.06538101508748477 8.999999999999998
vertex 1.9414884073005967 -2.0175784406851185 8.999999999999998
endloop
endfacet
facet normal 0.0 0.0 1.0
outer loop
vertex 2.0175784406851163 1.9414884073005976 8.999999999999998
vertex 1.9414884073005967 -2.0175784406851185 8.999999999999998
vertex 2.3975215194900312 -1.4463369467666292 8.999999999999998
endloop
endfacet
facet normal 0.0 0.0 1.0
outer loop
vertex 2.0175784406851163 1.9414884073005976 8.999999999999998
vertex 2.3975215194900312 -1.4463369467666292 8.999999999999998
vertex 2.451325298076937 1.3531460686149201 8.999999999999998
endloop
endfacet
facet normal 0.0 0.0 1.0
outer loop
vertex 2.451325298076937 1.3531460686149201 8.999999999999998
vertex 2.3975215194900312 -1.4463369467666292 8.999999999999998
vertex 2.690167502217865 -0.7765299801108096 8.999999999999998
endloop
endfacet
facet normal 0.0 0.0 1.0
outer loop
vertex 2.451325298076937 1.3531460686149201 8.999999999999998
vertex 2.690167502217865 -0.7765299801108096 8.999999999999998
vertex 2.718018387411406 0.6725890615327461 8.999999999999998
endloop
endfacet
facet normal 0.0 0.0 1.0
outer loop
vertex 2.718018387411406 0.6725890615327461 8.999999999999998
vertex 2.690167502217865 -0.7765299801108096 8.999999999999998
vertex 2.799483015381549 -0.05380377858690665 8.999999999999998
endloop
endfacet
facet normal -0.034411060572360375 -0.9994077640834522 0.0
outer loop
vertex 0.06538101508748388 1.8988747517585596 8.999999999999998
vertex -0.4283117389974403 1.8510940155046123 0.0
vertex 0.06538101508748388 1.8988747517585596 0.0
endloop
endfacet
facet normal 0.22542723105128476 -0.9742600081603219 0.0
outer loop
vertex -0.4283117389974403 1.8510940155046123 0.0
vertex 0.06538101508748388 1.8988747517585596 8.999999999999998
vertex -0.4283117389974403 1.8510940155046123 8.999999999999998
endloop
endfacet
facet normal -0.5165489095595103 -0.856257685532154 0.0
outer loop
vertex -1.4463369467666276 -2.3975215194900312 8.999999999999998
vertex -2.0175784406851176 -1.9414884073005967 0.9999999999999999
vertex -1.4463369467666276 -2.3975215194900312 0.9999999999999999
endloop
endfacet
facet normal -0.7205637288161135 -0.6933887168930702 0.0
outer loop
vertex -2.0175784406851176 -1.9414884073005967 0.9999999999999999
vertex -1.4463369467666276 -2.3975215194900312 8.999999999999998
vertex -2.0175784406851176 -1.9414884073005967 8.999999999999998
endloop
endfacet
facet normal 0.7205637288161134 0.6933887168930705 0.0
outer loop
vertex 2.0175784406851163 1.9414884073005976 0.9999999999999999
vertex 2.451325298076937 1.3531460686149201 8.999999999999998
vertex 2.451325298076937 1.3531460686149201 0.9999999999999999
endloop
endfacet
facet normal 0.8754733207417632 0.48326645307675764 0.0
outer loop
vertex 2.451325298076937 1.3531460686149201 8.999999999999998
vertex 2.0175784406851163 1.9414884073005976 0.9999999999999999
vertex 2.0175784406851163 1.9414884073005976 8.999999999999998
endloop
endfacet
facet normal 0.10981836263705318 0.9939516724809696 0.0
outer loop
vertex 0.4173097780208014 3.7770163554276848 0.9999999999999999
vertex 1.3806540586016467 3.5403099257645225 0.0
vertex 0.4173097780208014 3.7770163554276848 0.0
endloop
endfacet
facet normal 0.3633300154214861 0.9316605067801375 0.0
outer loop
vertex 1.3806540586016467 3.5403099257645225 0.0
vertex 0.4173097780208014 3.7770163554276848 0.9999999999999999
vertex 1.3806540586016467 3.5403099257645225 0.9999999999999999
endloop
endfacet
facet normal 0.9316605067801373 -0.36333001542148646 0.0
outer loop
vertex 3.5403099257645225 -1.3806540586016474 0.0
vertex 3.0623372252992875 -2.2499090467275034 0.9999999999999999
vertex 3.0623372252992875 -2.2499090467275034 0.0
endloop
endfacet
facet normal 0.8058782171840231 -0.592081328086185 0.0
outer loop
vertex 3.0623372252992875 -2.2499090467275034 0.9999999999999999
vertex 3.5403099257645225 -1.3806540586016474 0.0
vertex 3.5403099257645225 -1.3806540586016474 0.9999999999999999
endloop
endfacet
facet normal -0.15117723007767028 0.9885066742850265 0.0
outer loop
vertex -0.5744734742951456 3.7563253622831003 0.9999999999999999
vertex 0.4173097780208014 3.7770163554276848 0.0
vertex -0.5744734742951456 3.7563253622831003 0.0
endloop
endfacet
facet normal 0.10981836263705318 0.9939516724809696 0.0
outer loop
vertex 0.4173097780208014 3.7770163554276848 0.0
vertex -0.5744734742951456 3.7563253622831003 0.9999999999999999
vertex 0.4173097780208014 3.7770163554276848 0.9999999999999999
endloop
endfacet
facet normal -0.882718042721855 -0.46990302941489703 0.0
outer loop
vertex 1.677164281171524 0.8928157558883051 8.999999999999998
vertex 1.8510940155046123 0.42831173899743913 0.0
vertex 1.8510940155046123 0.42831173899743913 8.999999999999998
endloop
endfacet
facet normal -0.9742600081603222 -0.22542723105128437 0.0
outer loop
vertex 1.8510940155046123 0.42831173899743913 0.0
vertex 1.677164281171524 0.8928157558883051 8.999999999999998
vertex 1.677164281171524 0.8928157558883051 0.0
endloop
endfacet
facet normal 0.8754733207417632 0.48326645307675764 0.0
outer loop
vertex 2.451325298076937 1.3531460686149201 0.9999999999999999
vertex 2.718018387411406 0.6725890615327461 8.999999999999998
vertex 2.718018387411406 0.6725890615327461 0.9999999999999999
endloop
endfacet
facet normal 0.9707208526469306 0.24021037911883789 0.0
outer loop
vertex 2.718018387411406 0.6725890615327461 8.999999999999998
vertex 2.451325298076937 1.3531460686149201 0.9999999999999999
vertex 2.451325298076937 1.3531460686149201 8.999999999999998
endloop
endfacet
facet normal -0.5295047346685545 -0.8483069821494951 0.0
outer loop
vertex 1.0060589958702546 1.6117832660840399 8.999999999999998
vertex 0.5546181610414324 1.8172503117190597 0.0
vertex 1.0060589958702546 1.6117832660840399 0.0
endloop
endfacet
facet normal -0.2919042952849648 -0.9564475324837155 0.0
outer loop
vertex 0.5546181610414324 1.8172503117190597 0.0
vertex 1.0060589958702546 1.6117832660840399 8.999999999999998
vertex 0.5546181610414324 1.8172503117190597 8.999999999999998
endloop
endfacet
facet normal -0.7310203014324311 -0.6823557128753578 0.0
outer loop
vertex 1.3889385727216192 1.2964758544631798 8.999999999999998
vertex 1.0060589958702546 1.6117832660840399 0.0
vertex 1.3889385727216192 1.2964758544631798 0.0
endloop
endfacet
facet normal -0.5295047346685545 -0.8483069821494951 0.0
outer loop
vertex 1.0060589958702546 1.6117832660840399 0.0
vertex 1.3889385727216192 1.2964758544631798 8.999999999999998
vertex 1.0060589958702546 1.6117832660840399 8.999999999999998
endloop
endfacet
facet normal 0.7310203014324315 0.6823557128753573 0.0
outer loop
vertex -1.3889385727216197 -1.2964758544631791 8.999999999999998
vertex -1.0060589958702548 -1.6117832660840399 0.0
vertex -1.3889385727216197 -1.2964758544631791 0.0
endloop
endfacet
facet normal 0.5295047346685553 0.8483069821494946 0.0
outer loop
vertex -1.0060589958702548 -1.6117832660840399 0.0
vertex -1.3889385727216197 -1.2964758544631791 8.999999999999998
vertex -1.0060589958702548 -1.6117832660840399 8.999999999999998
endloop
endfacet
facet normal -0.9742600081603222 -0.22542723105128437 0.0
outer loop
vertex 1.8510940155046123 0.42831173899743913 8.999999999999998
vertex 1.8988747517585596 -0.06538101508748477 0.0
vertex 1.8988747517585596 -0.06538101508748477 8.999999999999998
endloop
endfacet
facet normal -0.9994077640834522 0.0344110605723604 0.0
outer loop
vertex 1.8988747517585596 -0.06538101508748477 0.0
vertex 1.8510940155046123 0.42831173899743913 8.999999999999998
vertex 1.8510940155046123 0.42831173899743913 0.0
endloop
endfacet
facet normal 0.8827180427218546 0.46990302941489737 0.0
outer loop
vertex -1.677164281171524 -0.8928157558883049 0.0
vertex -1.3889385727216197 -1.2964758544631791 8.999999999999998
vertex -1.3889385727216197 -1.2964758544631791 0.0
endloop
endfacet
facet normal 0.7310203014324315 0.6823557128753573 0.0
outer loop
vertex -1.3889385727216197 -1.2964758544631791 8.999999999999998
vertex -1.677164281171524 -0.8928157558883049 0.0
vertex -1.677164281171524 -0.8928157558883049 8.999999999999998
endloop
endfacet
facet normal -0.9994077640834522 0.0344110605723604 0.0
outer loop
vertex 1.8988747517585596 -0.06538101508748477 8.999999999999998
vertex 1.8172503117190597 -0.5546181610414328 0.0
vertex 1.8172503117190597 -0.5546181610414328 8.999999999999998
endloop
endfacet
facet normal -0.9564475324837154 0.291904295284965 0.0
outer loop
vertex 1.8172503117190597 -0.5546181610414328 0.0
vertex 1.8988747517585596 -0.06538101508748477 8.999999999999998
vertex 1.8988747517585596 -0.06538101508748477 0.0
endloop
endfacet
facet normal 0.9885066742850264 0.15117723007766995 0.0
outer loop
vertex 3.7563253622831003 0.5744734742951433 0.0
vertex 3.7770163554276848 -0.41730977802080316 0.9999999999999999
vertex 3.7770163554276848 -0.41730977802080316 0.0
endloop
endfacet
facet normal 0.9939516724809696 -0.1098183626370533 0.0
outer loop
vertex 3.7770163554276848 -0.41730977802080316 0.9999999999999999
vertex 3.7563253622831003 0.5744734742951433 0.0
vertex 3.7563253622831003 0.5744734742951433 0.9999999999999999
endloop
endfacet
facet normal 0.9939516724809696 -0.1098183626370533 0.0
outer loop
vertex 3.7770163554276848 -0.41730977802080316 0.0
vertex 3.5403099257645225 -1.3806540586016474 0.9999999999999999
vertex 3.5403099257645225 -1.3806540586016474 0.0
endloop
endfacet
facet normal 0.9316605067801373 -0.36333001542148646 0.0
outer loop
vertex 3.5403099257645225 -1.3806540586016474 0.9999999999999999
vertex 3.7770163554276848 -0.41730977802080316 0.0
vertex 3.7770163554276848 -0.41730977802080316 0.9999999999999999
endloop
endfacet
facet normal -0.8483069821494946 0.5295047346685552 0.0
outer loop
vertex 1.6117832660840394 -1.0060589958702555 8.999999999999998
vertex 1.2964758544631791 -1.3889385727216197 0.0
vertex 1.2964758544631791 -1.3889385727216197 8.999999999999998
endloop
endfacet
facet normal -0.6823557128753571 0.7310203014324316 0.0
outer loop
vertex 1.2964758544631791 -1.3889385727216197 0.0
vertex 1.6117832660840394 -1.0060589958702555 8.999999999999998
vertex 1.6117832660840394 -1.0060589958702555 0.0
endloop
endfacet
facet normal -0.4699030294148969 0.8827180427218548 0.0
outer loop
vertex 0.8928157558883048 -1.677164281171524 8.999999999999998
vertex 1.2964758544631791 -1.3889385727216197 0.0
vertex 0.8928157558883048 -1.677164281171524 0.0
endloop
endfacet
facet normal -0.6823557128753571 0.7310203014324316 0.0
outer loop
vertex 1.2964758544631791 -1.3889385727216197 0.0
vertex 0.8928157558883048 -1.677164281171524 8.999999999999998
vertex 1.2964758544631791 -1.3889385727216197 8.999999999999998
endloop
endfacet
facet normal -0.8058782171840234 0.5920813280861845 0.0
outer loop
vertex -3.0623372252992884 2.2499090467275016 0.9999999999999999
vertex -3.5403099257645225 1.3806540586016467 0.0
vertex -3.5403099257645225 1.3806540586016467 0.9999999999999999
endloop
endfacet
facet normal -0.9316605067801375 0.3633300154214864 0.0
outer loop
vertex -3.5403099257645225 1.3806540586016467 0.0
vertex -3.0623372252992884 2.2499090467275016 0.9999999999999999
vertex -3.0623372252992884 2.2499090467275016 0.0
endloop
endfacet
facet normal -0.8754733207417631 -0.4832664530767576 0.0
outer loop
vertex -2.451325298076937 -1.3531460686149206 8.999999999999998
vertex -2.0175784406851176 -1.9414884073005967 0.9999999999999999
vertex -2.0175784406851176 -1.9414884073005967 8.999999999999998
endloop
endfacet
facet normal -0.7205637288161135 -0.6933887168930702 0.0
outer loop
vertex -2.0175784406851176 -1.9414884073005967 0.9999999999999999
vertex -2.451325298076937 -1.3531460686149206 8.999999999999998
vertex -2.451325298076937 -1.3531460686149206 0.9999999999999999
endloop
endfacet
facet normal 0.9742600081603219 0.22542723105128468 0.0
outer loop
vertex -1.8510940155046123 -0.4283117389974402 0.0
vertex -1.677164281171524 -0.8928157558883049 8.999999999999998
vertex -1.677164281171524 -0.8928157558883049 0.0
endloop
endfacet
facet normal 0.8827180427218546 0.46990302941489737 0.0
outer loop
vertex -1.677164281171524 -0.8928157558883049 8.999999999999998
vertex -1.8510940155046123 -0.4283117389974402 0.0
vertex -1.8510940155046123 -0.4283117389974402 8.999999999999998
endloop
endfacet
facet normal 0.15117723007767006 -0.9885066742850264 0.0
outer loop
vertex 0.5744734742951435 -3.7563253622831003 0.9999999999999999
vertex -0.41730977802080316 -3.7770163554276848 0.0
vertex 0.5744734742951435 -3.7563253622831003 0.0
endloop
endfacet
facet normal -0.10981836263705352 -0.9939516724809697 0.0
outer loop
vertex -0.41730977802080316 -3.7770163554276848 0.0
vertex 0.5744734742951435 -3.7563253622831003 0.9999999999999999
vertex -0.41730977802080316 -3.7770163554276848 0.9999999999999999
endloop
endfacet
facet normal -0.4018703443947849 0.9156965798210763 0.0
outer loop
vertex -1.5271073087001834 3.47964700332009 0.9999999999999999
vertex -0.5744734742951456 3.7563253622831003 0.0
vertex -1.5271073087001834 3.47964700332009 0.0
endloop
endfacet
facet normal -0.15117723007767028 0.9885066742850265 0.0
outer loop
vertex -0.5744734742951456 3.7563253622831003 0.0
vertex -1.5271073087001834 3.47964700332009 0.9999999999999999
vertex -0.5744734742951456 3.7563253622831003 0.9999999999999999
endloop
endfacet
facet normal -0.22542723105128448 0.974260008160322 0.0
outer loop
vertex 0.42831173899743913 -1.8510940155046123 8.999999999999998
vertex 0.8928157558883048 -1.677164281171524 0.0
vertex 0.42831173899743913 -1.8510940155046123 0.0
endloop
endfacet
facet normal -0.4699030294148969 0.8827180427218548 0.0
outer loop
vertex 0.8928157558883048 -1.677164281171524 0.0
vertex 0.42831173899743913 -1.8510940155046123 8.999999999999998
vertex 0.8928157558883048 -1.677164281171524 8.999999999999998
endloop
endfacet
facet normal 0.03441106057236032 0.9994077640834522 0.0
outer loop
vertex -0.06538101508748477 -1.8988747517585596 8.999999999999998
vertex 0.42831173899743913 -1.8510940155046123 0.0
vertex -0.06538101508748477 -1.8988747517585596 0.0
endloop
endfacet
facet normal -0.22542723105128448 0.974260008160322 0.0
outer loop
vertex 0.42831173899743913 -1.8510940155046123 0.0
vertex -0.06538101508748477 -1.8988747517585596 8.999999999999998
vertex 0.42831173899743913 -1.8510940155046123 8.999999999999998
endloop
endfacet
facet normal 0.29190429528496503 0.9564475324837154 0.0
outer loop
vertex -0.5546181610414334 -1.8172503117190597 8.999999999999998
vertex -0.06538101508748477 -1.8988747517585596 0.0
vertex -0.5546181610414334 -1.8172503117190597 0.0
endloop
endfacet
facet normal 0.03441106057236032 0.9994077640834522 0.0
outer loop
vertex -0.06538101508748477 -1.8988747517585596 0.0
vertex -0.5546181610414334 -1.8172503117190597 8.999999999999998
vertex -0.06538101508748477 -1.8988747517585596 8.999999999999998
endloop
endfacet
facet normal 0.4832664530767574 -0.8754733207417632 0.0
outer loop
vertex 1.3531460686149206 -2.451325298076937 8.999999999999998
vertex 0.672589061532747 -2.718018387411406 0.9999999999999999
vertex 1.3531460686149206 -2.451325298076937 0.9999999999999999
endloop
endfacet
facet normal 0.24021037911883802 -0.9707208526469308 0.0
outer loop
vertex 0.672589061532747 -2.718018387411406 0.9999999999999999
vertex 1.3531460686149206 -2.451325298076937 8.999999999999998
vertex 0.672589061532747 -2.718018387411406 8.999999999999998
endloop
endfacet
facet normal 0.40187034439478464 -0.9156965798210764 0.0
outer loop
vertex 1.5271073087001827 -3.47964700332009 0.9999999999999999
vertex 0.5744734742951435 -3.7563253622831003 0.0
vertex 1.5271073087001827 -3.47964700332009 0.0
endloop
endfacet
facet normal 0.15117723007767006 -0.9885066742850264 0.0
outer loop
vertex 0.5744734742951435 -3.7563253622831003 0.0
vertex 1.5271073087001827 -3.47964700332009 0.9999999999999999
vertex 0.5744734742951435 -3.7563253622831003 0.9999999999999999
endloop
endfacet
endsolid model
