solid model
facet normal 0.0 -1.0 0.0
outer loop
vertex 45.00000000000005 12.499999999999998 0.0
vertex -23.00000000000012 12.499999999999998 -1.5
vertex 45.00000000000005 12.499999999999998 -1.5
endloop
endfacet
facet normal 0.0 -1.0 0.0
outer loop
vertex -23.00000000000012 12.499999999999998 -1.5
vertex 45.00000000000005 12.499999999999998 0.0
vertex -23.00000000000012 12.499999999999998 0.0
endloop
endfacet
facet normal 0.0 0.0 -1.0
outer loop
vertex -28.50000000000011 20.56217782649103 -1.5
vertex -29.00000000000011 12.249999999999977 -1.5
vertex -29.261330003061154 20.053473382038607 -1.5
endloop
endfacet
facet normal 0.0 0.0 -1.0
outer loop
vertex -29.00000000000011 12.249999999999977 -1.5
vertex -28.50000000000011 20.56217782649103 -1.5
vertex -25.80000000000011 12.249999999999977 -1.5
endloop
endfacet
facet normal 0.0 0.0 -1.0
outer loop
vertex -25.80000000000011 12.249999999999977 -1.5
vertex -28.50000000000011 20.56217782649103 -1.5
vertex -27.678784026555743 20.96715672757897 -1.5
endloop
endfacet
facet normal 0.0 0.0 -1.0
outer loop
vertex -25.80000000000011 12.249999999999977 -1.5
vertex -27.678784026555743 20.96715672757897 -1.5
vertex -26.811733315717756 21.261480784023437 -1.5
endloop
endfacet
facet normal 0.0 0.0 -1.0
outer loop
vertex -25.80000000000011 12.249999999999977 -1.5
vertex -26.811733315717756 21.261480784023437 -1.5
vertex -25.913683345540473 21.440114029616634 -1.5
endloop
endfacet
facet normal 0.0 0.0 -1.0
outer loop
vertex -25.80000000000011 12.249999999999977 -1.5
vertex -25.913683345540473 21.440114029616634 -1.5
vertex -25.000000000000114 21.49999999999996 -1.5
endloop
endfacet
facet normal 0.0 0.0 -1.0
outer loop
vertex -25.80000000000011 12.249999999999977 -1.5
vertex -25.000000000000114 21.49999999999996 -1.5
vertex -25.80000000000011 5.249999999999979 -1.5
endloop
endfacet
facet normal 0.0 0.0 -1.0
outer loop
vertex 45.00000000000005 21.49999999999996 -1.5
vertex -23.00000000000012 12.499999999999998 -1.5
vertex -25.000000000000114 21.49999999999996 -1.5
endloop
endfacet
facet normal 0.0 0.0 -1.0
outer loop
vertex -23.00000000000012 12.499999999999998 -1.5
vertex 45.00000000000005 21.49999999999996 -1.5
vertex 45.00000000000005 12.499999999999998 -1.5
endloop
endfacet
facet normal 0.0 0.0 -1.0
outer loop
vertex -31.940114029616783 15.413683345540324 -1.5
vertex -32.000000000000114 3.9999999999999982 -1.5
vertex -32.000000000000114 14.499999999999963 -1.5
endloop
endfacet
facet normal 0.0 0.0 -1.0
outer loop
vertex -32.000000000000114 3.9999999999999982 -1.5
vertex -31.940114029616783 15.413683345540324 -1.5
vertex -29.00000000000011 5.249999999999979 -1.5
endloop
endfacet
facet normal 0.0 0.0 -1.0
outer loop
vertex -32.000000000000114 3.9999999999999982 -1.5
vertex -29.00000000000011 5.249999999999979 -1.5
vertex -23.00000000000012 3.9999999999999982 -1.5
endloop
endfacet
facet normal 0.0 0.0 -1.0
outer loop
vertex -29.00000000000011 5.249999999999979 -1.5
vertex -31.940114029616783 15.413683345540324 -1.5
vertex -31.76148078402359 16.311733315717607 -1.5
endloop
endfacet
facet normal 0.0 0.0 -1.0
outer loop
vertex -29.00000000000011 5.249999999999979 -1.5
vertex -31.76148078402359 16.311733315717607 -1.5
vertex -31.46715672757912 17.17878402655559 -1.5
endloop
endfacet
facet normal 0.0 0.0 -1.0
outer loop
vertex -29.00000000000011 5.249999999999979 -1.5
vertex -31.46715672757912 17.17878402655559 -1.5
vertex -31.06217782649118 17.99999999999996 -1.5
endloop
endfacet
facet normal 0.0 0.0 -1.0
outer loop
vertex -29.00000000000011 5.249999999999979 -1.5
vertex -31.06217782649118 17.99999999999996 -1.5
vertex -30.553473382038757 18.761330003061005 -1.5
endloop
endfacet
facet normal 0.0 0.0 -1.0
outer loop
vertex -29.00000000000011 5.249999999999979 -1.5
vertex -30.553473382038757 18.761330003061005 -1.5
vertex -29.949747468305947 19.449747468305794 -1.5
endloop
endfacet
facet normal 0.0 0.0 -1.0
outer loop
vertex -29.00000000000011 5.249999999999979 -1.5
vertex -29.949747468305947 19.449747468305794 -1.5
vertex -29.261330003061154 20.053473382038607 -1.5
endloop
endfacet
facet normal 0.0 0.0 -1.0
outer loop
vertex -29.00000000000011 5.249999999999979 -1.5
vertex -29.261330003061154 20.053473382038607 -1.5
vertex -29.00000000000011 12.249999999999977 -1.5
endloop
endfacet
facet normal 0.0 0.0 -1.0
outer loop
vertex -23.00000000000012 3.9999999999999982 -1.5
vertex -29.00000000000011 5.249999999999979 -1.5
vertex -25.80000000000011 5.249999999999979 -1.5
endloop
endfacet
facet normal 0.0 0.0 -1.0
outer loop
vertex -23.00000000000012 3.9999999999999982 -1.5
vertex -25.80000000000011 5.249999999999979 -1.5
vertex -25.000000000000114 21.49999999999996 -1.5
endloop
endfacet
facet normal 0.0 0.0 -1.0
outer loop
vertex -23.00000000000012 3.9999999999999982 -1.5
vertex -25.000000000000114 21.49999999999996 -1.5
vertex -23.00000000000012 12.499999999999998 -1.5
endloop
endfacet
facet normal -1.0 0.0 0.0
outer loop
vertex -32.000000000000114 3.9999999999999982 5.762786342070624
vertex -32.000000000000114 7.277756813566434 2.9813931710353123
vertex -32.000000000000114 3.9999999999999982 -1.5
endloop
endfacet
facet normal -1.0 0.0 0.0
outer loop
vertex -32.000000000000114 7.277756813566434 2.9813931710353123
vertex -32.000000000000114 3.9999999999999982 5.762786342070624
vertex -32.000000000000114 7.5479184719828485 3.3334746990524424
endloop
endfacet
facet normal -1.0 0.0 0.0
outer loop
vertex -32.000000000000114 7.5479184719828485 3.3334746990524424
vertex -32.000000000000114 3.9999999999999982 5.762786342070624
vertex -32.000000000000114 7.89999999999998 3.6036363574688575
endloop
endfacet
facet normal -1.0 0.0 0.0
outer loop
vertex -32.000000000000114 7.89999999999998 3.6036363574688575
vertex -32.000000000000114 3.9999999999999982 5.762786342070624
vertex -32.000000000000114 8.310007623325694 3.7734670757267277
endloop
endfacet
facet normal -1.0 0.0 0.0
outer loop
vertex -32.000000000000114 8.310007623325694 3.7734670757267277
vertex -32.000000000000114 3.9999999999999982 5.762786342070624
vertex -32.000000000000114 14.499999999999963 5.762786342070624
endloop
endfacet
facet normal -1.0 0.0 0.0
outer loop
vertex -32.000000000000114 3.9999999999999982 -1.5
vertex -32.000000000000114 7.277756813566434 2.9813931710353123
vertex -32.000000000000114 7.107926095308563 2.571385547709597
endloop
endfacet
facet normal -1.0 0.0 0.0
outer loop
vertex -32.000000000000114 3.9999999999999982 -1.5
vertex -32.000000000000114 7.107926095308563 2.571385547709597
vertex -32.000000000000114 7.0499999999999785 2.131393171035312
endloop
endfacet
facet normal -1.0 0.0 0.0
outer loop
vertex -32.000000000000114 8.310007623325694 3.7734670757267277
vertex -32.000000000000114 14.499999999999963 5.762786342070624
vertex -32.000000000000114 8.749999999999979 3.8313931710353115
endloop
endfacet
facet normal -1.0 0.0 0.0
outer loop
vertex -32.000000000000114 8.749999999999979 3.8313931710353115
vertex -32.000000000000114 14.499999999999963 5.762786342070624
vertex -32.000000000000114 9.189992376674263 3.7734670757267272
endloop
endfacet
facet normal -1.0 0.0 0.0
outer loop
vertex -32.000000000000114 9.189992376674263 3.7734670757267272
vertex -32.000000000000114 14.499999999999963 5.762786342070624
vertex -32.000000000000114 9.59999999999998 3.6036363574688575
endloop
endfacet
facet normal -1.0 0.0 0.0
outer loop
vertex -32.000000000000114 9.59999999999998 3.6036363574688575
vertex -32.000000000000114 14.499999999999963 5.762786342070624
vertex -32.000000000000114 9.952081528017109 3.3334746990524424
endloop
endfacet
facet normal -1.0 0.0 0.0
outer loop
vertex -32.000000000000114 9.952081528017109 3.3334746990524424
vertex -32.000000000000114 14.499999999999963 5.762786342070624
vertex -32.000000000000114 10.222243186433523 2.981393171035312
endloop
endfacet
facet normal -1.0 0.0 0.0
outer loop
vertex -32.000000000000114 10.222243186433523 2.981393171035312
vertex -32.000000000000114 14.499999999999963 5.762786342070624
vertex -32.000000000000114 10.392073904691394 2.571385547709597
endloop
endfacet
facet normal -1.0 0.0 0.0
outer loop
vertex -32.000000000000114 10.392073904691394 2.571385547709597
vertex -32.000000000000114 14.499999999999963 5.762786342070624
vertex -32.000000000000114 10.449999999999978 2.131393171035312
endloop
endfacet
facet normal -1.0 0.0 0.0
outer loop
vertex -32.000000000000114 3.9999999999999982 -1.5
vertex -32.000000000000114 8.310007623325694 0.4893192663438964
vertex -32.000000000000114 14.499999999999963 -1.5
endloop
endfacet
facet normal -1.0 0.0 0.0
outer loop
vertex -32.000000000000114 8.310007623325694 0.4893192663438964
vertex -32.000000000000114 3.9999999999999982 -1.5
vertex -32.000000000000114 7.899999999999977 0.6591499846017669
endloop
endfacet
facet normal -1.0 0.0 0.0
outer loop
vertex -32.000000000000114 7.899999999999977 0.6591499846017669
vertex -32.000000000000114 3.9999999999999982 -1.5
vertex -32.000000000000114 7.547918471982846 0.929311643018182
endloop
endfacet
facet normal -1.0 0.0 0.0
outer loop
vertex -32.000000000000114 7.547918471982846 0.929311643018182
vertex -32.000000000000114 3.9999999999999982 -1.5
vertex -32.000000000000114 7.277756813566431 1.2813931710353128
endloop
endfacet
facet normal -1.0 0.0 0.0
outer loop
vertex -32.000000000000114 7.277756813566431 1.2813931710353128
vertex -32.000000000000114 3.9999999999999982 -1.5
vertex -32.000000000000114 7.107926095308563 1.6914007943610272
endloop
endfacet
facet normal -1.0 0.0 0.0
outer loop
vertex -32.000000000000114 7.107926095308563 1.6914007943610272
vertex -32.000000000000114 3.9999999999999982 -1.5
vertex -32.000000000000114 7.0499999999999785 2.131393171035312
endloop
endfacet
facet normal -1.0 0.0 0.0
outer loop
vertex -32.000000000000114 14.499999999999963 -1.5
vertex -32.000000000000114 8.310007623325694 0.4893192663438964
vertex -32.000000000000114 8.749999999999979 0.4313931710353122
endloop
endfacet
facet normal -1.0 0.0 0.0
outer loop
vertex -32.000000000000114 14.499999999999963 -1.5
vertex -32.000000000000114 8.749999999999979 0.4313931710353122
vertex -32.000000000000114 9.189992376674263 0.48931926634389605
endloop
endfacet
facet normal -1.0 0.0 0.0
outer loop
vertex -32.000000000000114 14.499999999999963 -1.5
vertex -32.000000000000114 9.189992376674263 0.48931926634389605
vertex -32.000000000000114 9.599999999999977 0.6591499846017658
endloop
endfacet
facet normal -1.0 0.0 0.0
outer loop
vertex -32.000000000000114 14.499999999999963 -1.5
vertex -32.000000000000114 9.599999999999977 0.6591499846017658
vertex -32.000000000000114 9.952081528017109 0.929311643018181
endloop
endfacet
facet normal -1.0 0.0 0.0
outer loop
vertex -32.000000000000114 14.499999999999963 -1.5
vertex -32.000000000000114 9.952081528017109 0.929311643018181
vertex -32.000000000000114 10.222243186433523 1.2813931710353115
endloop
endfacet
facet normal -1.0 0.0 0.0
outer loop
vertex -32.000000000000114 14.499999999999963 -1.5
vertex -32.000000000000114 10.222243186433523 1.2813931710353115
vertex -32.000000000000114 10.392073904691394 1.6914007943610252
endloop
endfacet
facet normal -1.0 0.0 0.0
outer loop
vertex -32.000000000000114 14.499999999999963 -1.5
vertex -32.000000000000114 10.392073904691394 1.6914007943610252
vertex -32.000000000000114 10.449999999999978 2.131393171035312
endloop
endfacet
facet normal -1.0 0.0 0.0
outer loop
vertex -32.000000000000114 14.499999999999963 -1.5
vertex -32.000000000000114 10.449999999999978 2.131393171035312
vertex -32.000000000000114 14.499999999999963 5.762786342070624
endloop
endfacet
facet normal 0.0 1.0 0.0
outer loop
vertex -25.000000000000114 21.49999999999996 -1.5
vertex -23.00000000000012 21.49999999999996 0.0
vertex 45.00000000000005 21.49999999999996 -1.5
endloop
endfacet
facet normal 0.0 1.0 0.0
outer loop
vertex -23.00000000000012 21.49999999999996 0.0
vertex -25.000000000000114 21.49999999999996 -1.5
vertex -25.000000000000114 21.49999999999996 5.762786342070624
endloop
endfacet
facet normal 0.0 1.0 0.0
outer loop
vertex -23.00000000000012 21.49999999999996 0.0
vertex -25.000000000000114 21.49999999999996 5.762786342070624
vertex -23.00000000000012 21.49999999999996 5.762786342070624
endloop
endfacet
facet normal 0.0 1.0 0.0
outer loop
vertex 45.00000000000005 21.49999999999996 0.0
vertex 45.00000000000005 21.49999999999996 -1.5
vertex -23.00000000000012 21.49999999999996 0.0
endloop
endfacet
facet normal 1.0 0.0 0.0
outer loop
vertex 45.00000000000005 21.49999999999996 -1.5
vertex 45.00000000000005 12.499999999999998 0.0
vertex 45.00000000000005 12.499999999999998 -1.5
endloop
endfacet
facet normal 1.0 0.0 0.0
outer loop
vertex 45.00000000000005 12.499999999999998 0.0
vertex 45.00000000000005 21.49999999999996 -1.5
vertex 45.00000000000005 21.49999999999996 0.0
endloop
endfacet
facet normal 0.0 0.0 1.0
outer loop
vertex -32.000000000000114 3.9999999999999982 5.762786342070624
vertex -29.00000000000011 5.249999999999979 5.762786342070627
vertex -32.000000000000114 14.499999999999963 5.762786342070624
endloop
endfacet
facet normal 0.0 0.0 1.0
outer loop
vertex -29.00000000000011 5.249999999999979 5.762786342070627
vertex -32.000000000000114 3.9999999999999982 5.762786342070624
vertex -23.00000000000012 3.9999999999999982 5.762786342070624
endloop
endfacet
facet normal 0.0 0.0 1.0
outer loop
vertex -32.000000000000114 14.499999999999963 5.762786342070624
vertex -29.00000000000011 5.249999999999979 5.762786342070627
vertex -31.940114029616783 15.413683345540324 5.762786342070624
endloop
endfacet
facet normal 0.0 0.0 1.0
outer loop
vertex -31.940114029616783 15.413683345540324 5.762786342070624
vertex -29.00000000000011 5.249999999999979 5.762786342070627
vertex -31.76148078402359 16.311733315717607 5.762786342070624
endloop
endfacet
facet normal 0.0 0.0 1.0
outer loop
vertex -31.76148078402359 16.311733315717607 5.762786342070624
vertex -29.00000000000011 5.249999999999979 5.762786342070627
vertex -31.46715672757912 17.17878402655559 5.762786342070624
endloop
endfacet
facet normal 0.0 0.0 1.0
outer loop
vertex -31.46715672757912 17.17878402655559 5.762786342070624
vertex -29.00000000000011 5.249999999999979 5.762786342070627
vertex -31.06217782649118 17.99999999999996 5.762786342070624
endloop
endfacet
facet normal 0.0 0.0 1.0
outer loop
vertex -31.06217782649118 17.99999999999996 5.762786342070624
vertex -29.00000000000011 5.249999999999979 5.762786342070627
vertex -30.553473382038757 18.761330003061005 5.762786342070624
endloop
endfacet
facet normal 0.0 0.0 1.0
outer loop
vertex -30.553473382038757 18.761330003061005 5.762786342070624
vertex -29.00000000000011 5.249999999999979 5.762786342070627
vertex -29.949747468305947 19.449747468305794 5.762786342070624
endloop
endfacet
facet normal 0.0 0.0 1.0
outer loop
vertex -29.949747468305947 19.449747468305794 5.762786342070624
vertex -29.00000000000011 5.249999999999979 5.762786342070627
vertex -29.261330003061154 20.053473382038607 5.762786342070624
endloop
endfacet
facet normal 0.0 0.0 1.0
outer loop
vertex -29.00000000000011 5.249999999999979 5.762786342070627
vertex -23.00000000000012 3.9999999999999982 5.762786342070624
vertex -25.80000000000011 5.249999999999979 5.762786342070627
endloop
endfacet
facet normal 0.0 0.0 1.0
outer loop
vertex -25.80000000000011 5.249999999999979 5.762786342070627
vertex -23.00000000000012 3.9999999999999982 5.762786342070624
vertex -25.80000000000011 12.249999999999977 5.762786342070627
endloop
endfacet
facet normal 0.0 0.0 1.0
outer loop
vertex -25.80000000000011 12.249999999999977 5.762786342070627
vertex -23.00000000000012 3.9999999999999982 5.762786342070624
vertex -25.000000000000114 21.49999999999996 5.762786342070624
endloop
endfacet
facet normal 0.0 0.0 1.0
outer loop
vertex -25.000000000000114 21.49999999999996 5.762786342070624
vertex -23.00000000000012 3.9999999999999982 5.762786342070624
vertex -23.00000000000012 21.49999999999996 5.762786342070624
endloop
endfacet
facet normal 0.0 0.0 1.0
outer loop
vertex -29.261330003061154 20.053473382038607 5.762786342070624
vertex -29.00000000000011 12.249999999999977 5.762786342070627
vertex -28.50000000000011 20.56217782649103 5.762786342070624
endloop
endfacet
facet normal 0.0 0.0 1.0
outer loop
vertex -29.00000000000011 12.249999999999977 5.762786342070627
vertex -29.261330003061154 20.053473382038607 5.762786342070624
vertex -29.00000000000011 5.249999999999979 5.762786342070627
endloop
endfacet
facet normal 0.0 0.0 1.0
outer loop
vertex -28.50000000000011 20.56217782649103 5.762786342070624
vertex -29.00000000000011 12.249999999999977 5.762786342070627
vertex -25.80000000000011 12.249999999999977 5.762786342070627
endloop
endfacet
facet normal 0.0 0.0 1.0
outer loop
vertex -28.50000000000011 20.56217782649103 5.762786342070624
vertex -25.80000000000011 12.249999999999977 5.762786342070627
vertex -27.678784026555743 20.96715672757897 5.762786342070624
endloop
endfacet
facet normal 0.0 0.0 1.0
outer loop
vertex -27.678784026555743 20.96715672757897 5.762786342070624
vertex -25.80000000000011 12.249999999999977 5.762786342070627
vertex -26.811733315717756 21.261480784023437 5.762786342070624
endloop
endfacet
facet normal 0.0 0.0 1.0
outer loop
vertex -26.811733315717756 21.261480784023437 5.762786342070624
vertex -25.80000000000011 12.249999999999977 5.762786342070627
vertex -25.913683345540473 21.440114029616634 5.762786342070624
endloop
endfacet
facet normal 0.0 0.0 1.0
outer loop
vertex -25.913683345540473 21.440114029616634 5.762786342070624
vertex -25.80000000000011 12.249999999999977 5.762786342070627
vertex -25.000000000000114 21.49999999999996 5.762786342070624
endloop
endfacet
facet normal -6.586375774271155e-16 -0.9659258262890685 -0.25881904510252024
outer loop
vertex -29.00000000000011 10.39207390469139 2.571385547709597
vertex -32.000000000000114 10.449999999999978 2.131393171035312
vertex -29.00000000000011 10.449999999999974 2.131393171035312
endloop
endfacet
facet normal -9.430269335325115e-16 -1.0 -2.495110770781134e-16
outer loop
vertex -32.000000000000114 10.449999999999978 2.131393171035312
vertex -29.00000000000011 10.39207390469139 2.571385547709597
vertex -32.000000000000114 10.392073904691394 2.571385547709597
endloop
endfacet
facet normal -9.430269335325113e-16 -1.0 -2.4951107707811333e-16
outer loop
vertex -29.00000000000011 10.449999999999974 2.131393171035312
vertex -32.000000000000114 10.392073904691394 1.6914007943610252
vertex -29.00000000000011 10.39207390469139 1.6914007943610252
endloop
endfacet
facet normal -4.532234197179404e-16 -0.9659258262890688 0.2588190451025191
outer loop
vertex -32.000000000000114 10.392073904691394 1.6914007943610252
vertex -29.00000000000011 10.449999999999974 2.131393171035312
vertex -32.000000000000114 10.449999999999978 2.131393171035312
endloop
endfacet
facet normal 2.804712805929074e-16 0.7071067811865467 0.7071067811865485
outer loop
vertex -29.00000000000011 7.547918471982846 0.929311643018182
vertex -32.000000000000114 7.899999999999977 0.6591499846017669
vertex -32.000000000000114 7.547918471982846 0.929311643018182
endloop
endfacet
facet normal -2.3753917866185816e-17 0.4999999999999987 0.8660254037844394
outer loop
vertex -32.000000000000114 7.899999999999977 0.6591499846017669
vertex -29.00000000000011 7.547918471982846 0.929311643018182
vertex -29.00000000000011 7.899999999999977 0.6591499846017662
endloop
endfacet
facet normal 4.559908988571553e-16 -0.8660254037844399 0.49999999999999806
outer loop
vertex -29.00000000000011 10.222243186433525 1.2813931710353106
vertex -32.000000000000114 9.952081528017109 0.929311643018181
vertex -29.00000000000011 9.95208152801711 0.9293116430181804
endloop
endfacet
facet normal 7.515282581512992e-16 -0.707106781186547 0.707106781186548
outer loop
vertex -32.000000000000114 9.952081528017109 0.929311643018181
vertex -29.00000000000011 10.222243186433525 1.2813931710353106
vertex -32.000000000000114 10.222243186433523 1.2813931710353115
endloop
endfacet
facet normal 3.0160717195026123e-16 -0.4999999999999988 0.8660254037844394
outer loop
vertex -29.00000000000011 9.59999999999998 0.6591499846017662
vertex -32.000000000000114 9.952081528017109 0.929311643018181
vertex -32.000000000000114 9.599999999999977 0.6591499846017658
endloop
endfacet
facet normal 7.515282581512992e-16 -0.707106781186547 0.707106781186548
outer loop
vertex -32.000000000000114 9.952081528017109 0.929311643018181
vertex -29.00000000000011 9.59999999999998 0.6591499846017662
vertex -29.00000000000011 9.95208152801711 0.9293116430181804
endloop
endfacet
facet normal -1.5242191295747515e-16 -0.2588190451025209 0.9659258262890684
outer loop
vertex -29.00000000000011 9.189992376674267 0.48931926634389816
vertex -32.000000000000114 9.599999999999977 0.6591499846017658
vertex -32.000000000000114 9.189992376674263 0.48931926634389605
endloop
endfacet
facet normal 3.0160717195026083e-16 -0.49999999999999856 0.8660254037844394
outer loop
vertex -32.000000000000114 9.599999999999977 0.6591499846017658
vertex -29.00000000000011 9.189992376674267 0.48931926634389816
vertex -29.00000000000011 9.59999999999998 0.6591499846017662
endloop
endfacet
facet normal -2.658005682874642e-16 -1.5505331218425614e-15 1.0
outer loop
vertex -29.00000000000011 8.749999999999984 0.43139317103531294
vertex -32.000000000000114 9.189992376674263 0.48931926634389605
vertex -32.000000000000114 8.749999999999979 0.4313931710353122
endloop
endfacet
facet normal -1.5242191295747535e-16 -0.2588190451025208 0.9659258262890684
outer loop
vertex -32.000000000000114 9.189992376674263 0.48931926634389605
vertex -29.00000000000011 8.749999999999984 0.43139317103531294
vertex -29.00000000000011 9.189992376674267 0.48931926634389816
endloop
endfacet
facet normal -1.9576085466965746e-16 0.2588190451025186 0.965925826289069
outer loop
vertex -29.00000000000011 8.3100076233257 0.4893192663438957
vertex -32.000000000000114 8.749999999999979 0.4313931710353122
vertex -32.000000000000114 8.310007623325694 0.4893192663438964
endloop
endfacet
facet normal -2.6580056828746417e-16 -1.2297331655992728e-15 1.0
outer loop
vertex -32.000000000000114 8.749999999999979 0.4313931710353122
vertex -29.00000000000011 8.3100076233257 0.4893192663438957
vertex -29.00000000000011 8.749999999999984 0.43139317103531294
endloop
endfacet
facet normal -2.3753917866185847e-17 0.49999999999999883 0.8660254037844395
outer loop
vertex -29.00000000000011 7.899999999999977 0.6591499846017662
vertex -32.000000000000114 8.310007623325694 0.4893192663438964
vertex -32.000000000000114 7.899999999999977 0.6591499846017669
endloop
endfacet
facet normal -1.9576085466965734e-16 0.25881904510251885 0.965925826289069
outer loop
vertex -32.000000000000114 8.310007623325694 0.4893192663438964
vertex -29.00000000000011 7.899999999999977 0.6591499846017662
vertex -29.00000000000011 8.3100076233257 0.4893192663438957
endloop
endfacet
facet normal 3.1807092524751287e-17 -0.2588190451025205 -0.9659258262890685
outer loop
vertex -29.00000000000011 9.189992376674267 3.7734670757267272
vertex -32.000000000000114 8.749999999999979 3.8313931710353115
vertex -32.000000000000114 9.189992376674263 3.7734670757267272
endloop
endfacet
facet normal 1.763282264701892e-16 -1.5683553416338551e-15 -1.0
outer loop
vertex -32.000000000000114 8.749999999999979 3.8313931710353115
vertex -29.00000000000011 9.189992376674267 3.7734670757267272
vertex -29.00000000000011 8.749999999999979 3.8313931710353115
endloop
endfacet
facet normal 4.573547435630544e-16 0.8660254037844402 0.4999999999999976
outer loop
vertex -32.000000000000114 7.277756813566431 1.2813931710353128
vertex -29.00000000000011 7.547918471982846 0.929311643018182
vertex -32.000000000000114 7.547918471982846 0.929311643018182
endloop
endfacet
facet normal 2.804712805929074e-16 0.7071067811865467 0.7071067811865485
outer loop
vertex -29.00000000000011 7.547918471982846 0.929311643018182
vertex -32.000000000000114 7.277756813566431 1.2813931710353128
vertex -29.00000000000011 7.277756813566429 1.2813931710353117
endloop
endfacet
facet normal 4.573547435630544e-16 0.8660254037844402 0.4999999999999976
outer loop
vertex -32.000000000000114 7.277756813566431 1.2813931710353128
vertex -29.00000000000011 7.107926095308563 1.691400794361028
vertex -29.00000000000011 7.277756813566429 1.2813931710353117
endloop
endfacet
facet normal 4.520266082756314e-16 0.965925826289069 0.25881904510251896
outer loop
vertex -29.00000000000011 7.107926095308563 1.691400794361028
vertex -32.000000000000114 7.277756813566431 1.2813931710353128
vertex -32.000000000000114 7.107926095308563 1.6914007943610272
endloop
endfacet
facet normal 2.228516471781509e-16 1.0 -1.497066462468681e-15
outer loop
vertex -32.000000000000114 7.0499999999999785 2.131393171035312
vertex -29.00000000000011 7.107926095308563 1.691400794361028
vertex -32.000000000000114 7.107926095308563 1.6914007943610272
endloop
endfacet
facet normal 4.520266082756314e-16 0.965925826289069 0.25881904510251896
outer loop
vertex -29.00000000000011 7.107926095308563 1.691400794361028
vertex -32.000000000000114 7.0499999999999785 2.131393171035312
vertex -29.00000000000011 7.049999999999976 2.131393171035312
endloop
endfacet
facet normal -2.009820201654229e-16 0.9659258262890678 -0.2588190451025232
outer loop
vertex -32.000000000000114 7.107926095308563 2.571385547709597
vertex -29.00000000000011 7.049999999999976 2.131393171035312
vertex -32.000000000000114 7.0499999999999785 2.131393171035312
endloop
endfacet
facet normal 2.228516471781509e-16 1.0 -1.4970664624686812e-15
outer loop
vertex -29.00000000000011 7.049999999999976 2.131393171035312
vertex -32.000000000000114 7.107926095308563 2.571385547709597
vertex -29.00000000000011 7.107926095308566 2.571385547709597
endloop
endfacet
facet normal -1.7860107674257277e-16 0.8660254037844392 -0.49999999999999956
outer loop
vertex -32.000000000000114 7.277756813566434 2.9813931710353123
vertex -29.00000000000011 7.107926095308566 2.571385547709597
vertex -32.000000000000114 7.107926095308563 2.571385547709597
endloop
endfacet
facet normal -2.0098202016542213e-16 0.9659258262890678 -0.2588190451025227
outer loop
vertex -29.00000000000011 7.107926095308566 2.571385547709597
vertex -32.000000000000114 7.277756813566434 2.9813931710353123
vertex -29.000000000000117 7.277756813566434 2.981393171035313
endloop
endfacet
facet normal -7.942545367986375e-17 0.7071067811865469 -0.7071067811865481
outer loop
vertex -32.000000000000114 7.5479184719828485 3.3334746990524424
vertex -29.000000000000117 7.277756813566434 2.981393171035313
vertex -32.000000000000114 7.277756813566434 2.9813931710353123
endloop
endfacet
facet normal -1.7860107674257267e-16 0.866025403784439 -0.49999999999999944
outer loop
vertex -29.000000000000117 7.277756813566434 2.981393171035313
vertex -32.000000000000114 7.5479184719828485 3.3334746990524424
vertex -29.00000000000011 7.5479184719828485 3.333474699052442
endloop
endfacet
facet normal -4.901743396307609e-18 0.5000000000000004 -0.8660254037844384
outer loop
vertex -29.00000000000011 7.899999999999983 3.6036363574688592
vertex -32.000000000000114 7.5479184719828485 3.3334746990524424
vertex -32.000000000000114 7.89999999999998 3.6036363574688575
endloop
endfacet
facet normal -7.942545367986375e-17 0.7071067811865469 -0.7071067811865481
outer loop
vertex -32.000000000000114 7.5479184719828485 3.3334746990524424
vertex -29.00000000000011 7.899999999999983 3.6036363574688592
vertex -29.00000000000011 7.5479184719828485 3.333474699052442
endloop
endfacet
facet normal 2.3793217390029793e-16 0.2588190451025204 -0.9659258262890684
outer loop
vertex -29.00000000000011 8.310007623325696 3.77346707572673
vertex -32.000000000000114 7.89999999999998 3.6036363574688575
vertex -32.000000000000114 8.310007623325694 3.7734670757267277
endloop
endfacet
facet normal -4.901743396307863e-18 0.5000000000000006 -0.8660254037844384
outer loop
vertex -32.000000000000114 7.89999999999998 3.6036363574688575
vertex -29.00000000000011 8.310007623325696 3.77346707572673
vertex -29.00000000000011 7.899999999999983 3.6036363574688592
endloop
endfacet
facet normal 1.763282264701892e-16 -1.5683553416338551e-15 -1.0
outer loop
vertex -29.00000000000011 8.749999999999979 3.8313931710353115
vertex -32.000000000000114 8.310007623325694 3.7734670757267277
vertex -32.000000000000114 8.749999999999979 3.8313931710353115
endloop
endfacet
facet normal 2.379321739002979e-16 0.2588190451025206 -0.9659258262890684
outer loop
vertex -32.000000000000114 8.310007623325694 3.7734670757267277
vertex -29.00000000000011 8.749999999999979 3.8313931710353115
vertex -29.00000000000011 8.310007623325696 3.77346707572673
endloop
endfacet
facet normal -9.672178092621807e-17 -0.5 -0.8660254037844387
outer loop
vertex -29.000000000000117 9.599999999999977 3.6036363574688575
vertex -32.000000000000114 9.189992376674263 3.7734670757267272
vertex -32.000000000000114 9.59999999999998 3.6036363574688575
endloop
endfacet
facet normal 3.1807092524751194e-17 -0.25881904510252085 -0.9659258262890683
outer loop
vertex -32.000000000000114 9.189992376674263 3.7734670757267272
vertex -29.000000000000117 9.599999999999977 3.6036363574688575
vertex -29.00000000000011 9.189992376674267 3.7734670757267272
endloop
endfacet
facet normal 1.005229134565278e-17 -0.7071067811865482 -0.7071067811865469
outer loop
vertex -29.00000000000011 9.952081528017109 3.3334746990524433
vertex -32.000000000000114 9.59999999999998 3.6036363574688575
vertex -32.000000000000114 9.952081528017109 3.3334746990524424
endloop
endfacet
facet normal -9.672178092621815e-17 -0.5000000000000001 -0.8660254037844386
outer loop
vertex -32.000000000000114 9.59999999999998 3.6036363574688575
vertex -29.00000000000011 9.952081528017109 3.3334746990524433
vertex -29.000000000000117 9.599999999999977 3.6036363574688575
endloop
endfacet
facet normal -7.796020109448642e-17 -0.8660254037844393 -0.4999999999999989
outer loop
vertex -29.00000000000011 10.222243186433523 2.981393171035313
vertex -32.000000000000114 9.952081528017109 3.3334746990524424
vertex -32.000000000000114 10.222243186433523 2.981393171035312
endloop
endfacet
facet normal 1.0052291345651993e-17 -0.7071067811865478 -0.7071067811865472
outer loop
vertex -32.000000000000114 9.952081528017109 3.3334746990524424
vertex -29.00000000000011 10.222243186433523 2.981393171035313
vertex -29.00000000000011 9.952081528017109 3.3334746990524433
endloop
endfacet
facet normal -7.796020109448642e-17 -0.8660254037844393 -0.4999999999999989
outer loop
vertex -29.00000000000011 10.222243186433523 2.981393171035313
vertex -32.000000000000114 10.392073904691394 2.571385547709597
vertex -29.00000000000011 10.39207390469139 2.571385547709597
endloop
endfacet
facet normal -6.586375774271152e-16 -0.9659258262890685 -0.2588190451025202
outer loop
vertex -32.000000000000114 10.392073904691394 2.571385547709597
vertex -29.00000000000011 10.222243186433523 2.981393171035313
vertex -32.000000000000114 10.222243186433523 2.981393171035312
endloop
endfacet
facet normal 1.0 0.0 0.0
outer loop
vertex -29.00000000000011 5.249999999999979 -1.5
vertex -29.00000000000011 7.277756813566429 1.2813931710353117
vertex -29.00000000000011 5.249999999999979 5.762786342070627
endloop
endfacet
facet normal 1.0 0.0 0.0
outer loop
vertex -29.00000000000011 7.277756813566429 1.2813931710353117
vertex -29.00000000000011 5.249999999999979 -1.5
vertex -29.00000000000011 7.547918471982846 0.929311643018182
endloop
endfacet
facet normal 1.0 0.0 0.0
outer loop
vertex -29.00000000000011 7.547918471982846 0.929311643018182
vertex -29.00000000000011 5.249999999999979 -1.5
vertex -29.00000000000011 7.899999999999977 0.6591499846017662
endloop
endfacet
facet normal 1.0 0.0 0.0
outer loop
vertex -29.00000000000011 7.899999999999977 0.6591499846017662
vertex -29.00000000000011 5.249999999999979 -1.5
vertex -29.00000000000011 12.249999999999977 -1.5
endloop
endfacet
facet normal 1.0 0.0 0.0
outer loop
vertex -29.00000000000011 5.249999999999979 5.762786342070627
vertex -29.00000000000011 7.277756813566429 1.2813931710353117
vertex -29.00000000000011 7.107926095308563 1.691400794361028
endloop
endfacet
facet normal 1.0 0.0 0.0
outer loop
vertex -29.00000000000011 5.249999999999979 5.762786342070627
vertex -29.00000000000011 7.107926095308563 1.691400794361028
vertex -29.00000000000011 7.049999999999976 2.131393171035312
endloop
endfacet
facet normal 1.0 0.0 0.0
outer loop
vertex -29.00000000000011 7.899999999999977 0.6591499846017662
vertex -29.00000000000011 12.249999999999977 -1.5
vertex -29.00000000000011 8.3100076233257 0.4893192663438957
endloop
endfacet
facet normal 1.0 0.0 0.0
outer loop
vertex -29.00000000000011 8.3100076233257 0.4893192663438957
vertex -29.00000000000011 12.249999999999977 -1.5
vertex -29.00000000000011 8.749999999999984 0.43139317103531294
endloop
endfacet
facet normal 1.0 0.0 0.0
outer loop
vertex -29.00000000000011 8.749999999999984 0.43139317103531294
vertex -29.00000000000011 12.249999999999977 -1.5
vertex -29.00000000000011 9.189992376674267 0.48931926634389816
endloop
endfacet
facet normal 1.0 0.0 0.0
outer loop
vertex -29.00000000000011 9.189992376674267 0.48931926634389816
vertex -29.00000000000011 12.249999999999977 -1.5
vertex -29.00000000000011 9.59999999999998 0.6591499846017662
endloop
endfacet
facet normal 1.0 0.0 0.0
outer loop
vertex -29.00000000000011 9.59999999999998 0.6591499846017662
vertex -29.00000000000011 12.249999999999977 -1.5
vertex -29.00000000000011 9.95208152801711 0.9293116430181804
endloop
endfacet
facet normal 1.0 0.0 0.0
outer loop
vertex -29.00000000000011 9.95208152801711 0.9293116430181804
vertex -29.00000000000011 12.249999999999977 -1.5
vertex -29.00000000000011 10.222243186433525 1.2813931710353106
endloop
endfacet
facet normal 1.0 0.0 0.0
outer loop
vertex -29.00000000000011 10.222243186433525 1.2813931710353106
vertex -29.00000000000011 12.249999999999977 -1.5
vertex -29.00000000000011 10.39207390469139 1.6914007943610252
endloop
endfacet
facet normal 1.0 0.0 0.0
outer loop
vertex -29.00000000000011 10.39207390469139 1.6914007943610252
vertex -29.00000000000011 12.249999999999977 -1.5
vertex -29.00000000000011 10.449999999999974 2.131393171035312
endloop
endfacet
facet normal 1.0 0.0 0.0
outer loop
vertex -29.00000000000011 5.249999999999979 5.762786342070627
vertex -29.00000000000011 7.899999999999983 3.6036363574688592
vertex -29.00000000000011 12.249999999999977 5.762786342070627
endloop
endfacet
facet normal 1.0 0.0 0.0
outer loop
vertex -29.00000000000011 7.899999999999983 3.6036363574688592
vertex -29.00000000000011 5.249999999999979 5.762786342070627
vertex -29.00000000000011 7.5479184719828485 3.333474699052442
endloop
endfacet
facet normal 1.0 0.0 0.0
outer loop
vertex -29.00000000000011 7.5479184719828485 3.333474699052442
vertex -29.00000000000011 5.249999999999979 5.762786342070627
vertex -29.000000000000117 7.277756813566434 2.981393171035313
endloop
endfacet
facet normal 1.0 0.0 0.0
outer loop
vertex -29.000000000000117 7.277756813566434 2.981393171035313
vertex -29.00000000000011 5.249999999999979 5.762786342070627
vertex -29.00000000000011 7.107926095308566 2.571385547709597
endloop
endfacet
facet normal 1.0 0.0 0.0
outer loop
vertex -29.00000000000011 7.107926095308566 2.571385547709597
vertex -29.00000000000011 5.249999999999979 5.762786342070627
vertex -29.00000000000011 7.049999999999976 2.131393171035312
endloop
endfacet
facet normal 1.0 0.0 0.0
outer loop
vertex -29.00000000000011 12.249999999999977 5.762786342070627
vertex -29.00000000000011 7.899999999999983 3.6036363574688592
vertex -29.00000000000011 8.310007623325696 3.77346707572673
endloop
endfacet
facet normal 1.0 0.0 0.0
outer loop
vertex -29.00000000000011 12.249999999999977 5.762786342070627
vertex -29.00000000000011 8.310007623325696 3.77346707572673
vertex -29.00000000000011 8.749999999999979 3.8313931710353115
endloop
endfacet
facet normal 1.0 0.0 0.0
outer loop
vertex -29.00000000000011 12.249999999999977 5.762786342070627
vertex -29.00000000000011 8.749999999999979 3.8313931710353115
vertex -29.00000000000011 9.189992376674267 3.7734670757267272
endloop
endfacet
facet normal 1.0 0.0 0.0
outer loop
vertex -29.00000000000011 12.249999999999977 5.762786342070627
vertex -29.00000000000011 9.189992376674267 3.7734670757267272
vertex -29.000000000000117 9.599999999999977 3.6036363574688575
endloop
endfacet
facet normal 1.0 0.0 0.0
outer loop
vertex -29.00000000000011 12.249999999999977 5.762786342070627
vertex -29.000000000000117 9.599999999999977 3.6036363574688575
vertex -29.00000000000011 9.952081528017109 3.3334746990524433
endloop
endfacet
facet normal 1.0 0.0 0.0
outer loop
vertex -29.00000000000011 12.249999999999977 5.762786342070627
vertex -29.00000000000011 9.952081528017109 3.3334746990524433
vertex -29.00000000000011 10.222243186433523 2.981393171035313
endloop
endfacet
facet normal 1.0 0.0 0.0
outer loop
vertex -29.00000000000011 12.249999999999977 5.762786342070627
vertex -29.00000000000011 10.222243186433523 2.981393171035313
vertex -29.00000000000011 10.39207390469139 2.571385547709597
endloop
endfacet
facet normal 1.0 0.0 0.0
outer loop
vertex -29.00000000000011 12.249999999999977 5.762786342070627
vertex -29.00000000000011 10.39207390469139 2.571385547709597
vertex -29.00000000000011 10.449999999999974 2.131393171035312
endloop
endfacet
facet normal 1.0 0.0 0.0
outer loop
vertex -29.00000000000011 12.249999999999977 5.762786342070627
vertex -29.00000000000011 10.449999999999974 2.131393171035312
vertex -29.00000000000011 12.249999999999977 -1.5
endloop
endfacet
facet normal 2.5347849847463474e-16 -0.9659258262890685 -0.2588190451025202
outer loop
vertex -23.00000000000013 10.392073904691394 2.571385547709597
vertex -25.80000000000011 10.449999999999974 2.131393171035312
vertex -23.00000000000013 10.449999999999978 2.131393171035312
endloop
endfacet
facet normal 3.6294621538177417e-16 -1.0 -2.4059996718246644e-16
outer loop
vertex -25.80000000000011 10.449999999999974 2.131393171035312
vertex -23.00000000000013 10.392073904691394 2.571385547709597
vertex -25.80000000000011 10.39207390469139 2.571385547709597
endloop
endfacet
facet normal 0.0 -1.0 0.0
outer loop
vertex -23.00000000000012 3.9999999999999982 5.762786342070624
vertex -32.000000000000114 3.9999999999999982 -1.5
vertex -23.00000000000012 3.9999999999999982 -1.5
endloop
endfacet
facet normal 0.0 -1.0 0.0
outer loop
vertex -32.000000000000114 3.9999999999999982 -1.5
vertex -23.00000000000012 3.9999999999999982 5.762786342070624
vertex -32.000000000000114 3.9999999999999982 5.762786342070624
endloop
endfacet
facet normal 3.629462153817742e-16 -1.0 -2.4059996718246644e-16
outer loop
vertex -23.00000000000013 10.449999999999978 2.131393171035312
vertex -25.80000000000011 10.39207390469139 1.6914007943610252
vertex -23.00000000000013 10.392073904691394 1.6914007943610252
endloop
endfacet
facet normal 1.7457917383139792e-16 -0.9659258262890689 0.2588190451025192
outer loop
vertex -25.80000000000011 10.39207390469139 1.6914007943610252
vertex -23.00000000000013 10.449999999999978 2.131393171035312
vertex -25.80000000000011 10.449999999999974 2.131393171035312
endloop
endfacet
facet normal 6.9408528183917e-17 0.8660254037844389 -0.49999999999999956
outer loop
vertex -25.80000000000011 7.277756813566434 2.981393171035313
vertex -23.00000000000013 7.5479184719828485 3.3334746990524424
vertex -23.00000000000013 7.277756813566434 2.9813931710353123
endloop
endfacet
facet normal 3.147576830895229e-17 0.7071067811865468 -0.7071067811865482
outer loop
vertex -23.00000000000013 7.5479184719828485 3.3334746990524424
vertex -25.80000000000011 7.277756813566434 2.981393171035313
vertex -25.80000000000011 7.5479184719828485 3.333474699052442
endloop
endfacet
facet normal 0.0 -1.0 0.0
outer loop
vertex -25.80000000000011 12.249999999999977 5.762786342070627
vertex -29.00000000000011 12.249999999999977 -1.5
vertex -25.80000000000011 12.249999999999977 -1.5
endloop
endfacet
facet normal 0.0 -1.0 0.0
outer loop
vertex -29.00000000000011 12.249999999999977 -1.5
vertex -25.80000000000011 12.249999999999977 5.762786342070627
vertex -29.00000000000011 12.249999999999977 5.762786342070627
endloop
endfacet
facet normal -1.0 0.0 0.0
outer loop
vertex -25.80000000000011 5.249999999999979 5.762786342070627
vertex -25.80000000000011 7.277756813566434 2.981393171035313
vertex -25.80000000000011 5.249999999999979 -1.5
endloop
endfacet
facet normal -1.0 0.0 0.0
outer loop
vertex -25.80000000000011 7.277756813566434 2.981393171035313
vertex -25.80000000000011 5.249999999999979 5.762786342070627
vertex -25.80000000000011 7.5479184719828485 3.333474699052442
endloop
endfacet
facet normal -1.0 0.0 0.0
outer loop
vertex -25.80000000000011 7.5479184719828485 3.333474699052442
vertex -25.80000000000011 5.249999999999979 5.762786342070627
vertex -25.80000000000011 7.899999999999983 3.6036363574688592
endloop
endfacet
facet normal -1.0 0.0 0.0
outer loop
vertex -25.80000000000011 7.899999999999983 3.6036363574688592
vertex -25.80000000000011 5.249999999999979 5.762786342070627
vertex -25.80000000000011 12.249999999999977 5.762786342070627
endloop
endfacet
facet normal -1.0 0.0 0.0
outer loop
vertex -25.80000000000011 5.249999999999979 -1.5
vertex -25.80000000000011 7.277756813566434 2.981393171035313
vertex -25.80000000000011 7.107926095308566 2.571385547709597
endloop
endfacet
facet normal -1.0 0.0 0.0
outer loop
vertex -25.80000000000011 5.249999999999979 -1.5
vertex -25.80000000000011 7.107926095308566 2.571385547709597
vertex -25.80000000000011 7.049999999999976 2.131393171035312
endloop
endfacet
facet normal -1.0 0.0 0.0
outer loop
vertex -25.80000000000011 7.899999999999983 3.6036363574688592
vertex -25.80000000000011 12.249999999999977 5.762786342070627
vertex -25.80000000000011 8.310007623325696 3.77346707572673
endloop
endfacet
facet normal -1.0 0.0 0.0
outer loop
vertex -25.80000000000011 8.310007623325696 3.77346707572673
vertex -25.80000000000011 12.249999999999977 5.762786342070627
vertex -25.80000000000011 8.749999999999979 3.8313931710353115
endloop
endfacet
facet normal -1.0 0.0 0.0
outer loop
vertex -25.80000000000011 8.749999999999979 3.8313931710353115
vertex -25.80000000000011 12.249999999999977 5.762786342070627
vertex -25.80000000000011 9.189992376674267 3.7734670757267272
endloop
endfacet
facet normal -1.0 0.0 0.0
outer loop
vertex -25.80000000000011 9.189992376674267 3.7734670757267272
vertex -25.80000000000011 12.249999999999977 5.762786342070627
vertex -25.80000000000011 9.599999999999977 3.6036363574688575
endloop
endfacet
facet normal -1.0 0.0 0.0
outer loop
vertex -25.80000000000011 9.599999999999977 3.6036363574688575
vertex -25.80000000000011 12.249999999999977 5.762786342070627
vertex -25.80000000000011 9.952081528017109 3.3334746990524433
endloop
endfacet
facet normal -1.0 0.0 0.0
outer loop
vertex -25.80000000000011 9.952081528017109 3.3334746990524433
vertex -25.80000000000011 12.249999999999977 5.762786342070627
vertex -25.80000000000011 10.222243186433523 2.981393171035313
endloop
endfacet
facet normal -1.0 0.0 0.0
outer loop
vertex -25.80000000000011 10.222243186433523 2.981393171035313
vertex -25.80000000000011 12.249999999999977 5.762786342070627
vertex -25.80000000000011 10.39207390469139 2.571385547709597
endloop
endfacet
facet normal -1.0 0.0 0.0
outer loop
vertex -25.80000000000011 10.39207390469139 2.571385547709597
vertex -25.80000000000011 12.249999999999977 5.762786342070627
vertex -25.80000000000011 10.449999999999974 2.131393171035312
endloop
endfacet
facet normal -1.0 0.0 0.0
outer loop
vertex -25.80000000000011 5.249999999999979 -1.5
vertex -25.80000000000011 7.899999999999977 0.6591499846017662
vertex -25.80000000000011 12.249999999999977 -1.5
endloop
endfacet
facet normal -1.0 0.0 0.0
outer loop
vertex -25.80000000000011 7.899999999999977 0.6591499846017662
vertex -25.80000000000011 5.249999999999979 -1.5
vertex -25.80000000000011 7.547918471982846 0.929311643018182
endloop
endfacet
facet normal -1.0 0.0 0.0
outer loop
vertex -25.80000000000011 7.547918471982846 0.929311643018182
vertex -25.80000000000011 5.249999999999979 -1.5
vertex -25.80000000000011 7.277756813566429 1.2813931710353117
endloop
endfacet
facet normal -1.0 0.0 0.0
outer loop
vertex -25.80000000000011 7.277756813566429 1.2813931710353117
vertex -25.80000000000011 5.249999999999979 -1.5
vertex -25.80000000000011 7.107926095308563 1.691400794361028
endloop
endfacet
facet normal -1.0 0.0 0.0
outer loop
vertex -25.80000000000011 7.107926095308563 1.691400794361028
vertex -25.80000000000011 5.249999999999979 -1.5
vertex -25.80000000000011 7.049999999999976 2.131393171035312
endloop
endfacet
facet normal -1.0 0.0 0.0
outer loop
vertex -25.80000000000011 12.249999999999977 -1.5
vertex -25.80000000000011 7.899999999999977 0.6591499846017662
vertex -25.80000000000011 8.3100076233257 0.4893192663438957
endloop
endfacet
facet normal -1.0 0.0 0.0
outer loop
vertex -25.80000000000011 12.249999999999977 -1.5
vertex -25.80000000000011 8.3100076233257 0.4893192663438957
vertex -25.80000000000011 8.749999999999984 0.43139317103531294
endloop
endfacet
facet normal -1.0 0.0 0.0
outer loop
vertex -25.80000000000011 12.249999999999977 -1.5
vertex -25.80000000000011 8.749999999999984 0.43139317103531294
vertex -25.80000000000011 9.189992376674267 0.48931926634389816
endloop
endfacet
facet normal -1.0 0.0 0.0
outer loop
vertex -25.80000000000011 12.249999999999977 -1.5
vertex -25.80000000000011 9.189992376674267 0.48931926634389816
vertex -25.80000000000011 9.59999999999998 0.6591499846017662
endloop
endfacet
facet normal -1.0 0.0 0.0
outer loop
vertex -25.80000000000011 12.249999999999977 -1.5
vertex -25.80000000000011 9.59999999999998 0.6591499846017662
vertex -25.80000000000011 9.95208152801711 0.9293116430181804
endloop
endfacet
facet normal -1.0 0.0 0.0
outer loop
vertex -25.80000000000011 12.249999999999977 -1.5
vertex -25.80000000000011 9.95208152801711 0.9293116430181804
vertex -25.80000000000011 10.222243186433525 1.2813931710353106
endloop
endfacet
facet normal -1.0 0.0 0.0
outer loop
vertex -25.80000000000011 12.249999999999977 -1.5
vertex -25.80000000000011 10.222243186433525 1.2813931710353106
vertex -25.80000000000011 10.39207390469139 1.6914007943610252
endloop
endfacet
facet normal -1.0 0.0 0.0
outer loop
vertex -25.80000000000011 12.249999999999977 -1.5
vertex -25.80000000000011 10.39207390469139 1.6914007943610252
vertex -25.80000000000011 10.449999999999974 2.131393171035312
endloop
endfacet
facet normal -1.0 0.0 0.0
outer loop
vertex -25.80000000000011 12.249999999999977 -1.5
vertex -25.80000000000011 10.449999999999974 2.131393171035312
vertex -25.80000000000011 12.249999999999977 5.762786342070627
endloop
endfacet
facet normal 0.0 1.0 0.0
outer loop
vertex -29.00000000000011 5.249999999999979 5.762786342070627
vertex -25.80000000000011 5.249999999999979 -1.5
vertex -29.00000000000011 5.249999999999979 -1.5
endloop
endfacet
facet normal 0.0 1.0 0.0
outer loop
vertex -25.80000000000011 5.249999999999979 -1.5
vertex -29.00000000000011 5.249999999999979 5.762786342070627
vertex -25.80000000000011 5.249999999999979 5.762786342070627
endloop
endfacet
facet normal 0.0 0.0 1.0
outer loop
vertex 45.00000000000005 12.499999999999998 0.0
vertex -23.00000000000012 21.49999999999996 0.0
vertex -23.00000000000012 12.499999999999998 0.0
endloop
endfacet
facet normal 0.0 0.0 1.0
outer loop
vertex -23.00000000000012 21.49999999999996 0.0
vertex 45.00000000000005 12.499999999999998 0.0
vertex 45.00000000000005 21.49999999999996 0.0
endloop
endfacet
facet normal -4.532234197179403e-16 -0.9659258262890689 0.2588190451025192
outer loop
vertex -29.00000000000011 10.39207390469139 1.6914007943610252
vertex -32.000000000000114 10.222243186433523 1.2813931710353115
vertex -29.00000000000011 10.222243186433525 1.2813931710353106
endloop
endfacet
facet normal 4.559908988571553e-16 -0.8660254037844399 0.499999999999998
outer loop
vertex -32.000000000000114 10.222243186433523 1.2813931710353115
vertex -29.00000000000011 10.39207390469139 1.6914007943610252
vertex -32.000000000000114 10.392073904691394 1.6914007943610252
endloop
endfacet
facet normal 1.0 0.0 0.0
outer loop
vertex -23.00000000000012 3.9999999999999982 -1.5
vertex -23.00000000000013 7.277756813566431 1.2813931710353128
vertex -23.00000000000012 3.9999999999999982 5.762786342070624
endloop
endfacet
facet normal 1.0 0.0 0.0
outer loop
vertex -23.00000000000013 7.277756813566431 1.2813931710353128
vertex -23.00000000000012 3.9999999999999982 -1.5
vertex -23.00000000000013 7.547918471982846 0.929311643018182
endloop
endfacet
facet normal 1.0 0.0 0.0
outer loop
vertex -23.00000000000013 7.547918471982846 0.929311643018182
vertex -23.00000000000012 3.9999999999999982 -1.5
vertex -23.00000000000013 7.899999999999977 0.6591499846017669
endloop
endfacet
facet normal 1.0 0.0 0.0
outer loop
vertex -23.00000000000013 7.899999999999977 0.6591499846017669
vertex -23.00000000000012 3.9999999999999982 -1.5
vertex -23.00000000000012 12.499999999999998 -1.5
endloop
endfacet
facet normal 1.0 0.0 0.0
outer loop
vertex -23.00000000000012 3.9999999999999982 5.762786342070624
vertex -23.00000000000013 7.277756813566431 1.2813931710353128
vertex -23.00000000000013 7.107926095308563 1.6914007943610272
endloop
endfacet
facet normal 1.0 0.0 0.0
outer loop
vertex -23.00000000000012 3.9999999999999982 5.762786342070624
vertex -23.00000000000013 7.107926095308563 1.6914007943610272
vertex -23.00000000000013 7.0499999999999785 2.131393171035312
endloop
endfacet
facet normal 1.0 0.0 0.0
outer loop
vertex -23.00000000000013 7.899999999999977 0.6591499846017669
vertex -23.00000000000012 12.499999999999998 -1.5
vertex -23.00000000000013 8.310007623325694 0.4893192663438964
endloop
endfacet
facet normal 1.0 0.0 0.0
outer loop
vertex -23.00000000000013 8.310007623325694 0.4893192663438964
vertex -23.00000000000012 12.499999999999998 -1.5
vertex -23.00000000000013 8.749999999999979 0.4313931710353122
endloop
endfacet
facet normal 1.0 0.0 0.0
outer loop
vertex -23.00000000000013 8.749999999999979 0.4313931710353122
vertex -23.00000000000012 12.499999999999998 -1.5
vertex -23.00000000000013 9.189992376674263 0.48931926634389605
endloop
endfacet
facet normal 1.0 0.0 0.0
outer loop
vertex -23.00000000000013 9.189992376674263 0.48931926634389605
vertex -23.00000000000012 12.499999999999998 -1.5
vertex -23.00000000000013 9.599999999999977 0.6591499846017658
endloop
endfacet
facet normal 1.0 0.0 0.0
outer loop
vertex -23.00000000000013 9.599999999999977 0.6591499846017658
vertex -23.00000000000012 12.499999999999998 -1.5
vertex -23.00000000000013 9.952081528017109 0.929311643018181
endloop
endfacet
facet normal 1.0 0.0 0.0
outer loop
vertex -23.00000000000013 9.952081528017109 0.929311643018181
vertex -23.00000000000012 12.499999999999998 -1.5
vertex -23.00000000000013 10.222243186433523 1.2813931710353115
endloop
endfacet
facet normal 1.0 0.0 0.0
outer loop
vertex -23.00000000000013 10.222243186433523 1.2813931710353115
vertex -23.00000000000012 12.499999999999998 -1.5
vertex -23.00000000000013 10.392073904691394 1.6914007943610252
endloop
endfacet
facet normal 1.0 0.0 0.0
outer loop
vertex -23.00000000000013 10.392073904691394 1.6914007943610252
vertex -23.00000000000012 12.499999999999998 -1.5
vertex -23.00000000000013 10.449999999999978 2.131393171035312
endloop
endfacet
facet normal 1.0 0.0 0.0
outer loop
vertex -23.00000000000012 3.9999999999999982 5.762786342070624
vertex -23.00000000000013 8.310007623325694 3.7734670757267277
vertex -23.00000000000012 21.49999999999996 5.762786342070624
endloop
endfacet
facet normal 1.0 0.0 0.0
outer loop
vertex -23.00000000000013 8.310007623325694 3.7734670757267277
vertex -23.00000000000012 3.9999999999999982 5.762786342070624
vertex -23.00000000000013 7.89999999999998 3.6036363574688575
endloop
endfacet
facet normal 1.0 0.0 0.0
outer loop
vertex -23.00000000000013 7.89999999999998 3.6036363574688575
vertex -23.00000000000012 3.9999999999999982 5.762786342070624
vertex -23.00000000000013 7.5479184719828485 3.3334746990524424
endloop
endfacet
facet normal 1.0 0.0 0.0
outer loop
vertex -23.00000000000013 7.5479184719828485 3.3334746990524424
vertex -23.00000000000012 3.9999999999999982 5.762786342070624
vertex -23.00000000000013 7.277756813566434 2.9813931710353123
endloop
endfacet
facet normal 1.0 0.0 0.0
outer loop
vertex -23.00000000000013 7.277756813566434 2.9813931710353123
vertex -23.00000000000012 3.9999999999999982 5.762786342070624
vertex -23.00000000000013 7.107926095308563 2.571385547709597
endloop
endfacet
facet normal 1.0 0.0 0.0
outer loop
vertex -23.00000000000013 7.107926095308563 2.571385547709597
vertex -23.00000000000012 3.9999999999999982 5.762786342070624
vertex -23.00000000000013 7.0499999999999785 2.131393171035312
endloop
endfacet
facet normal 1.0 0.0 0.0
outer loop
vertex -23.00000000000012 21.49999999999996 5.762786342070624
vertex -23.00000000000013 8.310007623325694 3.7734670757267277
vertex -23.00000000000013 8.749999999999979 3.8313931710353115
endloop
endfacet
facet normal 1.0 0.0 0.0
outer loop
vertex -23.00000000000012 21.49999999999996 5.762786342070624
vertex -23.00000000000013 8.749999999999979 3.8313931710353115
vertex -23.00000000000013 9.189992376674263 3.7734670757267272
endloop
endfacet
facet normal 1.0 0.0 0.0
outer loop
vertex -23.00000000000012 21.49999999999996 5.762786342070624
vertex -23.00000000000013 9.189992376674263 3.7734670757267272
vertex -23.00000000000013 9.59999999999998 3.6036363574688575
endloop
endfacet
facet normal 1.0 0.0 0.0
outer loop
vertex -23.00000000000012 21.49999999999996 5.762786342070624
vertex -23.00000000000013 9.59999999999998 3.6036363574688575
vertex -23.00000000000013 9.952081528017109 3.3334746990524424
endloop
endfacet
facet normal 1.0 0.0 0.0
outer loop
vertex -23.00000000000012 21.49999999999996 5.762786342070624
vertex -23.00000000000013 9.952081528017109 3.3334746990524424
vertex -23.00000000000013 10.222243186433523 2.981393171035312
endloop
endfacet
facet normal 1.0 0.0 0.0
outer loop
vertex -23.00000000000012 21.49999999999996 5.762786342070624
vertex -23.00000000000013 10.222243186433523 2.981393171035312
vertex -23.00000000000013 10.392073904691394 2.571385547709597
endloop
endfacet
facet normal 1.0 0.0 0.0
outer loop
vertex -23.00000000000012 21.49999999999996 5.762786342070624
vertex -23.00000000000013 10.392073904691394 2.571385547709597
vertex -23.00000000000013 10.449999999999978 2.131393171035312
endloop
endfacet
facet normal 1.0 0.0 0.0
outer loop
vertex -23.00000000000012 21.49999999999996 5.762786342070624
vertex -23.00000000000013 10.449999999999978 2.131393171035312
vertex -23.00000000000012 12.499999999999998 0.0
endloop
endfacet
facet normal 1.0 0.0 0.0
outer loop
vertex -23.00000000000012 12.499999999999998 0.0
vertex -23.00000000000013 10.449999999999978 2.131393171035312
vertex -23.00000000000012 12.499999999999998 -1.5
endloop
endfacet
facet normal 1.0 0.0 0.0
outer loop
vertex -23.00000000000012 21.49999999999996 5.762786342070624
vertex -23.00000000000012 12.499999999999998 0.0
vertex -23.00000000000012 21.49999999999996 0.0
endloop
endfacet
facet normal -1.7368933357921927e-16 0.965925826289069 0.25881904510251896
outer loop
vertex -25.80000000000011 7.107926095308563 1.691400794361028
vertex -23.00000000000013 7.0499999999999785 2.131393171035312
vertex -23.00000000000013 7.107926095308563 1.6914007943610272
endloop
endfacet
facet normal -8.60064832205643e-17 1.0 -1.497066462468681e-15
outer loop
vertex -23.00000000000013 7.0499999999999785 2.131393171035312
vertex -25.80000000000011 7.107926095308563 1.691400794361028
vertex -25.80000000000011 7.049999999999976 2.131393171035312
endloop
endfacet
facet normal 1.0250496956014174e-16 -1.2208220557036259e-15 1.0
outer loop
vertex -23.00000000000013 8.749999999999979 0.4313931710353122
vertex -25.80000000000011 9.189992376674267 0.48931926634389816
vertex -25.80000000000011 8.749999999999984 0.43139317103531294
endloop
endfacet
facet normal 5.809806548967547e-17 -0.2588190451025209 0.9659258262890682
outer loop
vertex -25.80000000000011 9.189992376674267 0.48931926634389816
vertex -23.00000000000013 8.749999999999979 0.4313931710353122
vertex -23.00000000000013 9.189992376674263 0.48931926634389605
endloop
endfacet
facet normal 7.712423787480644e-17 0.9659258262890676 -0.2588190451025232
outer loop
vertex -25.80000000000011 7.107926095308566 2.571385547709597
vertex -23.00000000000013 7.0499999999999785 2.131393171035312
vertex -25.80000000000011 7.049999999999976 2.131393171035312
endloop
endfacet
facet normal -8.60064832205643e-17 1.0 -1.497066462468681e-15
outer loop
vertex -23.00000000000013 7.0499999999999785 2.131393171035312
vertex -25.80000000000011 7.107926095308566 2.571385547709597
vertex -23.00000000000013 7.107926095308563 2.571385547709597
endloop
endfacet
facet normal 6.9408528183917e-17 0.8660254037844389 -0.49999999999999956
outer loop
vertex -25.80000000000011 7.277756813566434 2.981393171035313
vertex -23.00000000000013 7.107926095308563 2.571385547709597
vertex -25.80000000000011 7.107926095308566 2.571385547709597
endloop
endfacet
facet normal 7.712423787480644e-17 0.9659258262890678 -0.25881904510252324
outer loop
vertex -23.00000000000013 7.107926095308563 2.571385547709597
vertex -25.80000000000011 7.277756813566434 2.981393171035313
vertex -23.00000000000013 7.277756813566434 2.9813931710353123
endloop
endfacet
facet normal -2.8871981620465767e-16 -0.7071067811865471 0.7071067811865479
outer loop
vertex -23.00000000000013 9.952081528017109 0.929311643018181
vertex -25.80000000000011 10.222243186433525 1.2813931710353106
vertex -25.80000000000011 9.95208152801711 0.9293116430181804
endloop
endfacet
facet normal -1.746543117565757e-16 -0.8660254037844399 0.49999999999999795
outer loop
vertex -25.80000000000011 10.222243186433525 1.2813931710353106
vertex -23.00000000000013 9.952081528017109 0.929311643018181
vertex -23.00000000000013 10.222243186433523 1.2813931710353115
endloop
endfacet
facet normal 2.416220701059188e-18 0.5000000000000006 -0.8660254037844384
outer loop
vertex -23.00000000000013 7.89999999999998 3.6036363574688575
vertex -25.80000000000011 7.5479184719828485 3.333474699052442
vertex -25.80000000000011 7.899999999999983 3.6036363574688592
endloop
endfacet
facet normal 3.1475768308952286e-17 0.7071067811865469 -0.7071067811865481
outer loop
vertex -25.80000000000011 7.5479184719828485 3.333474699052442
vertex -23.00000000000013 7.89999999999998 3.6036363574688575
vertex -23.00000000000013 7.5479184719828485 3.3334746990524424
endloop
endfacet
facet normal -9.129594688925146e-17 0.2588190451025206 -0.9659258262890684
outer loop
vertex -23.00000000000013 8.310007623325694 3.7734670757267277
vertex -25.80000000000011 7.899999999999983 3.6036363574688592
vertex -25.80000000000011 8.310007623325696 3.77346707572673
endloop
endfacet
facet normal 2.4162207010590854e-18 0.5000000000000004 -0.8660254037844386
outer loop
vertex -25.80000000000011 7.899999999999983 3.6036363574688592
vertex -23.00000000000013 8.310007623325694 3.7734670757267277
vertex -23.00000000000013 7.89999999999998 3.6036363574688575
endloop
endfacet
facet normal -6.768920621013224e-17 -1.5505331218425614e-15 -1.0
outer loop
vertex -23.00000000000013 8.749999999999979 3.8313931710353115
vertex -25.80000000000011 8.310007623325696 3.77346707572673
vertex -25.80000000000011 8.749999999999979 3.8313931710353115
endloop
endfacet
facet normal -9.129594688925149e-17 0.2588190451025203 -0.9659258262890684
outer loop
vertex -25.80000000000011 8.310007623325696 3.77346707572673
vertex -23.00000000000013 8.749999999999979 3.8313931710353115
vertex -23.00000000000013 8.310007623325694 3.7734670757267277
endloop
endfacet
facet normal 3.827298935198437e-17 -0.5000000000000003 -0.8660254037844387
outer loop
vertex -23.00000000000013 9.59999999999998 3.6036363574688575
vertex -25.80000000000011 9.189992376674267 3.7734670757267272
vertex -25.80000000000011 9.599999999999977 3.6036363574688575
endloop
endfacet
facet normal -1.1362484587590551e-17 -0.258819045102521 -0.9659258262890682
outer loop
vertex -25.80000000000011 9.189992376674267 3.7734670757267272
vertex -23.00000000000013 9.59999999999998 3.6036363574688575
vertex -23.00000000000013 9.189992376674263 3.7734670757267272
endloop
endfacet
facet normal -3.821172529515616e-18 -0.707106781186548 -0.7071067811865471
outer loop
vertex -23.00000000000013 9.952081528017109 3.3334746990524424
vertex -25.80000000000011 9.599999999999977 3.6036363574688575
vertex -25.80000000000011 9.952081528017109 3.3334746990524433
endloop
endfacet
facet normal 3.827298935198432e-17 -0.5000000000000001 -0.8660254037844388
outer loop
vertex -25.80000000000011 9.599999999999977 3.6036363574688575
vertex -23.00000000000013 9.952081528017109 3.3334746990524424
vertex -23.00000000000013 9.59999999999998 3.6036363574688575
endloop
endfacet
facet normal -3.821172529515616e-18 -0.707106781186548 -0.7071067811865471
outer loop
vertex -23.00000000000013 9.952081528017109 3.3334746990524424
vertex -25.80000000000011 10.222243186433523 2.981393171035313
vertex -23.00000000000013 10.222243186433523 2.981393171035312
endloop
endfacet
facet normal 2.967387042437279e-17 -0.8660254037844393 -0.4999999999999989
outer loop
vertex -25.80000000000011 10.222243186433523 2.981393171035313
vertex -23.00000000000013 9.952081528017109 3.3334746990524424
vertex -25.80000000000011 9.952081528017109 3.3334746990524433
endloop
endfacet
facet normal 2.967387042437286e-17 -0.8660254037844394 -0.4999999999999988
outer loop
vertex -23.00000000000013 10.222243186433523 2.981393171035312
vertex -25.80000000000011 10.39207390469139 2.571385547709597
vertex -23.00000000000013 10.392073904691394 2.571385547709597
endloop
endfacet
facet normal 2.5347849847463474e-16 -0.9659258262890685 -0.25881904510252024
outer loop
vertex -25.80000000000011 10.39207390469139 2.571385547709597
vertex -23.00000000000013 10.222243186433523 2.981393171035312
vertex -25.80000000000011 10.222243186433523 2.981393171035313
endloop
endfacet
facet normal -1.0756227330466665e-16 0.7071067811865467 0.7071067811865485
outer loop
vertex -23.00000000000013 7.547918471982846 0.929311643018182
vertex -25.80000000000011 7.899999999999977 0.6591499846017662
vertex -25.80000000000011 7.547918471982846 0.929311643018182
endloop
endfacet
facet normal 9.949180926336971e-18 0.49999999999999883 0.8660254037844395
outer loop
vertex -25.80000000000011 7.899999999999977 0.6591499846017662
vertex -23.00000000000013 7.547918471982846 0.929311643018182
vertex -23.00000000000013 7.899999999999977 0.6591499846017669
endloop
endfacet
facet normal -1.1700610030927424e-16 -0.4999999999999987 0.8660254037844395
outer loop
vertex -23.00000000000013 9.599999999999977 0.6591499846017658
vertex -25.80000000000011 9.95208152801711 0.9293116430181804
vertex -25.80000000000011 9.59999999999998 0.6591499846017662
endloop
endfacet
facet normal -2.8871981620465777e-16 -0.7071067811865472 0.7071067811865479
outer loop
vertex -25.80000000000011 9.95208152801711 0.9293116430181804
vertex -23.00000000000013 9.599999999999977 0.6591499846017658
vertex -23.00000000000013 9.952081528017109 0.929311643018181
endloop
endfacet
facet normal 5.809806548967556e-17 -0.2588190451025208 0.9659258262890684
outer loop
vertex -23.00000000000013 9.189992376674263 0.48931926634389605
vertex -25.80000000000011 9.59999999999998 0.6591499846017662
vertex -25.80000000000011 9.189992376674267 0.48931926634389816
endloop
endfacet
facet normal -1.1700610030927434e-16 -0.4999999999999988 0.8660254037844394
outer loop
vertex -25.80000000000011 9.59999999999998 0.6591499846017662
vertex -23.00000000000013 9.189992376674263 0.48931926634389605
vertex -23.00000000000013 9.599999999999977 0.6591499846017658
endloop
endfacet
facet normal 7.556824169002037e-17 0.25881904510251885 0.965925826289069
outer loop
vertex -23.00000000000013 8.310007623325694 0.4893192663438964
vertex -25.80000000000011 8.749999999999984 0.43139317103531294
vertex -25.80000000000011 8.3100076233257 0.4893192663438957
endloop
endfacet
facet normal 1.0250496956014175e-16 -1.5594442317382082e-15 1.0
outer loop
vertex -25.80000000000011 8.749999999999984 0.43139317103531294
vertex -23.00000000000013 8.310007623325694 0.4893192663438964
vertex -23.00000000000013 8.749999999999979 0.4313931710353122
endloop
endfacet
facet normal 9.949180926336962e-18 0.4999999999999987 0.8660254037844394
outer loop
vertex -23.00000000000013 7.899999999999977 0.6591499846017669
vertex -25.80000000000011 8.3100076233257 0.4893192663438957
vertex -25.80000000000011 7.899999999999977 0.6591499846017662
endloop
endfacet
facet normal 7.556824169002045e-17 0.2588190451025186 0.965925826289069
outer loop
vertex -25.80000000000011 8.3100076233257 0.4893192663438957
vertex -23.00000000000013 7.899999999999977 0.6591499846017669
vertex -23.00000000000013 8.310007623325694 0.4893192663438964
endloop
endfacet
facet normal -1.1362484587590568e-17 -0.2588190451025209 -0.9659258262890684
outer loop
vertex -23.00000000000013 9.189992376674263 3.7734670757267272
vertex -25.80000000000011 8.749999999999979 3.8313931710353115
vertex -25.80000000000011 9.189992376674267 3.7734670757267272
endloop
endfacet
facet normal -6.768920621013224e-17 -1.5505331218425614e-15 -1.0
outer loop
vertex -25.80000000000011 8.749999999999979 3.8313931710353115
vertex -23.00000000000013 9.189992376674263 3.7734670757267272
vertex -23.00000000000013 8.749999999999979 3.8313931710353115
endloop
endfacet
facet normal -1.7594291445845384e-16 0.8660254037844403 0.49999999999999756
outer loop
vertex -25.80000000000011 7.277756813566429 1.2813931710353117
vertex -23.00000000000013 7.547918471982846 0.929311643018182
vertex -25.80000000000011 7.547918471982846 0.929311643018182
endloop
endfacet
facet normal -1.0756227330466665e-16 0.7071067811865467 0.7071067811865485
outer loop
vertex -23.00000000000013 7.547918471982846 0.929311643018182
vertex -25.80000000000011 7.277756813566429 1.2813931710353117
vertex -23.00000000000013 7.277756813566431 1.2813931710353128
endloop
endfacet
facet normal -1.7368933357921927e-16 0.965925826289069 0.25881904510251896
outer loop
vertex -25.80000000000011 7.107926095308563 1.691400794361028
vertex -23.00000000000013 7.277756813566431 1.2813931710353128
vertex -25.80000000000011 7.277756813566429 1.2813931710353117
endloop
endfacet
facet normal -1.7594291445845374e-16 0.8660254037844402 0.4999999999999974
outer loop
vertex -23.00000000000013 7.277756813566431 1.2813931710353128
vertex -25.80000000000011 7.107926095308563 1.691400794361028
vertex -23.00000000000013 7.107926095308563 1.6914007943610272
endloop
endfacet
facet normal -1.7465431175657578e-16 -0.8660254037844399 0.499999999999998
outer loop
vertex -23.00000000000013 10.222243186433523 1.2813931710353115
vertex -25.80000000000011 10.39207390469139 1.6914007943610252
vertex -25.80000000000011 10.222243186433525 1.2813931710353106
endloop
endfacet
facet normal 1.7457917383139792e-16 -0.9659258262890689 0.2588190451025192
outer loop
vertex -25.80000000000011 10.39207390469139 1.6914007943610252
vertex -23.00000000000013 10.222243186433523 1.2813931710353115
vertex -23.00000000000013 10.392073904691394 1.6914007943610252
endloop
endfacet
facet normal -0.2588190451025196 0.9659258262890686 0.0
outer loop
vertex -26.811733315717756 21.261480784023437 5.762786342070624
vertex -25.913683345540473 21.440114029616634 -1.5
vertex -26.811733315717756 21.261480784023437 -1.5
endloop
endfacet
facet normal -0.1305261922200521 0.9914448613738104 0.0
outer loop
vertex -25.913683345540473 21.440114029616634 -1.5
vertex -26.811733315717756 21.261480784023437 5.762786342070624
vertex -25.913683345540473 21.440114029616634 5.762786342070624
endloop
endfacet
facet normal -0.3826834323650896 0.9238795325112868 0.0
outer loop
vertex -27.678784026555743 20.96715672757897 5.762786342070624
vertex -26.811733315717756 21.261480784023437 -1.5
vertex -27.678784026555743 20.96715672757897 -1.5
endloop
endfacet
facet normal -0.2588190451025196 0.9659258262890686 0.0
outer loop
vertex -26.811733315717756 21.261480784023437 -1.5
vertex -27.678784026555743 20.96715672757897 5.762786342070624
vertex -26.811733315717756 21.261480784023437 5.762786342070624
endloop
endfacet
facet normal -0.5000000000000016 0.8660254037844379 0.0
outer loop
vertex -28.50000000000011 20.56217782649103 5.762786342070624
vertex -27.678784026555743 20.96715672757897 -1.5
vertex -28.50000000000011 20.56217782649103 -1.5
endloop
endfacet
facet normal -0.3826834323650896 0.9238795325112868 0.0
outer loop
vertex -27.678784026555743 20.96715672757897 -1.5
vertex -28.50000000000011 20.56217782649103 5.762786342070624
vertex -27.678784026555743 20.96715672757897 5.762786342070624
endloop
endfacet
facet normal -0.6087614290087199 0.7933533402912358 0.0
outer loop
vertex -29.261330003061154 20.053473382038607 5.762786342070624
vertex -28.50000000000011 20.56217782649103 -1.5
vertex -29.261330003061154 20.053473382038607 -1.5
endloop
endfacet
facet normal -0.5000000000000016 0.8660254037844379 0.0
outer loop
vertex -28.50000000000011 20.56217782649103 -1.5
vertex -29.261330003061154 20.053473382038607 5.762786342070624
vertex -28.50000000000011 20.56217782649103 5.762786342070624
endloop
endfacet
facet normal -0.1305261922200521 0.9914448613738104 0.0
outer loop
vertex -25.913683345540473 21.440114029616634 5.762786342070624
vertex -25.000000000000114 21.49999999999996 -1.5
vertex -25.913683345540473 21.440114029616634 -1.5
endloop
endfacet
facet normal -0.06540312923014249 0.9978589232386036 0.0
outer loop
vertex -25.000000000000114 21.49999999999996 -1.5
vertex -25.913683345540473 21.440114029616634 5.762786342070624
vertex -25.000000000000114 21.49999999999996 5.762786342070624
endloop
endfacet
facet normal -0.7071067811865477 0.7071067811865474 0.0
outer loop
vertex -29.949747468305947 19.449747468305794 5.762786342070624
vertex -29.261330003061154 20.053473382038607 -1.5
vertex -29.949747468305947 19.449747468305794 -1.5
endloop
endfacet
facet normal -0.6087614290087199 0.7933533402912358 0.0
outer loop
vertex -29.261330003061154 20.053473382038607 -1.5
vertex -29.949747468305947 19.449747468305794 5.762786342070624
vertex -29.261330003061154 20.053473382038607 5.762786342070624
endloop
endfacet
facet normal -0.7071067811865477 0.7071067811865474 0.0
outer loop
vertex -29.949747468305947 19.449747468305794 5.762786342070624
vertex -30.553473382038757 18.761330003061005 -1.5
vertex -30.553473382038757 18.761330003061005 5.762786342070624
endloop
endfacet
facet normal -0.7933533402912359 0.6087614290087198 0.0
outer loop
vertex -30.553473382038757 18.761330003061005 -1.5
vertex -29.949747468305947 19.449747468305794 5.762786342070624
vertex -29.949747468305947 19.449747468305794 -1.5
endloop
endfacet
facet normal -0.7933533402912359 0.6087614290087198 0.0
outer loop
vertex -30.553473382038757 18.761330003061005 5.762786342070624
vertex -31.06217782649118 17.99999999999996 -1.5
vertex -31.06217782649118 17.99999999999996 5.762786342070624
endloop
endfacet
facet normal -0.8660254037844382 0.500000000000001 0.0
outer loop
vertex -31.06217782649118 17.99999999999996 -1.5
vertex -30.553473382038757 18.761330003061005 5.762786342070624
vertex -30.553473382038757 18.761330003061005 -1.5
endloop
endfacet
facet normal -0.8660254037844382 0.500000000000001 0.0
outer loop
vertex -31.06217782649118 17.99999999999996 5.762786342070624
vertex -31.46715672757912 17.17878402655559 -1.5
vertex -31.46715672757912 17.17878402655559 5.762786342070624
endloop
endfacet
facet normal -0.9238795325112868 0.38268343236509 0.0
outer loop
vertex -31.46715672757912 17.17878402655559 -1.5
vertex -31.06217782649118 17.99999999999996 5.762786342070624
vertex -31.06217782649118 17.99999999999996 -1.5
endloop
endfacet
facet normal -0.9238795325112868 0.38268343236509 0.0
outer loop
vertex -31.46715672757912 17.17878402655559 5.762786342070624
vertex -31.76148078402359 16.311733315717607 -1.5
vertex -31.76148078402359 16.311733315717607 5.762786342070624
endloop
endfacet
facet normal -0.9659258262890685 0.2588190451025203 0.0
outer loop
vertex -31.76148078402359 16.311733315717607 -1.5
vertex -31.46715672757912 17.17878402655559 5.762786342070624
vertex -31.46715672757912 17.17878402655559 -1.5
endloop
endfacet
facet normal -0.9659258262890685 0.2588190451025203 0.0
outer loop
vertex -31.76148078402359 16.311733315717607 5.762786342070624
vertex -31.940114029616783 15.413683345540324 -1.5
vertex -31.940114029616783 15.413683345540324 5.762786342070624
endloop
endfacet
facet normal -0.9914448613738105 0.1305261922200518 0.0
outer loop
vertex -31.940114029616783 15.413683345540324 -1.5
vertex -31.76148078402359 16.311733315717607 5.762786342070624
vertex -31.76148078402359 16.311733315717607 -1.5
endloop
endfacet
facet normal -0.9914448613738105 0.1305261922200518 0.0
outer loop
vertex -31.940114029616783 15.413683345540324 5.762786342070624
vertex -32.000000000000114 14.499999999999963 -1.5
vertex -32.000000000000114 14.499999999999963 5.762786342070624
endloop
endfacet
facet normal -0.9978589232386036 0.06540312923014249 0.0
outer loop
vertex -32.000000000000114 14.499999999999963 -1.5
vertex -31.940114029616783 15.413683345540324 5.762786342070624
vertex -31.940114029616783 15.413683345540324 -1.5
endloop
endfacet
endsolid model
